<svg width="23" height="23" viewBox="0 0 23 23" fill="none" xmlns="http://www.w3.org/2000/svg">
<path d="M3.83332 20.1251C3.30624 20.1251 2.85502 19.9374 2.47968 19.5621C2.10433 19.1867 1.91666 18.7355 1.91666 18.2084V7.66675C1.91666 7.13967 2.10433 6.68845 2.47968 6.3131C2.85502 5.93776 3.30624 5.75008 3.83332 5.75008H7.66666V3.83341C7.66666 3.30633 7.85433 2.85512 8.22968 2.47977C8.60502 2.10442 9.05624 1.91675 9.58332 1.91675H13.4167C13.9437 1.91675 14.395 2.10442 14.7703 2.47977C15.1456 2.85512 15.3333 3.30633 15.3333 3.83341V5.75008H19.1667C19.6937 5.75008 20.145 5.93776 20.5203 6.3131C20.8956 6.68845 21.0833 7.13967 21.0833 7.66675V18.2084C21.0833 18.7355 20.8956 19.1867 20.5203 19.5621C20.145 19.9374 19.6937 20.1251 19.1667 20.1251H3.83332ZM3.83332 18.2084H19.1667V7.66675H3.83332V18.2084ZM9.58332 5.75008H13.4167V3.83341H9.58332V5.75008Z" fill="white"/>
</svg>
