<svg width="22" height="22" viewBox="0 0 22 22" fill="none" xmlns="http://www.w3.org/2000/svg">
<path d="M8.25001 13.0624C7.92918 13.0624 7.658 12.9517 7.43647 12.7301C7.21494 12.5086 7.10418 12.2374 7.10418 11.9166C7.10418 11.5958 7.21494 11.3246 7.43647 11.103C7.658 10.8815 7.92918 10.7708 8.25001 10.7708C8.57084 10.7708 8.84202 10.8815 9.06355 11.103C9.28508 11.3246 9.39584 11.5958 9.39584 11.9166C9.39584 12.2374 9.28508 12.5086 9.06355 12.7301C8.84202 12.9517 8.57084 13.0624 8.25001 13.0624ZM13.75 13.0624C13.4292 13.0624 13.158 12.9517 12.9365 12.7301C12.7149 12.5086 12.6042 12.2374 12.6042 11.9166C12.6042 11.5958 12.7149 11.3246 12.9365 11.103C13.158 10.8815 13.4292 10.7708 13.75 10.7708C14.0708 10.7708 14.342 10.8815 14.5636 11.103C14.7851 11.3246 14.8958 11.5958 14.8958 11.9166C14.8958 12.2374 14.7851 12.5086 14.5636 12.7301C14.342 12.9517 14.0708 13.0624 13.75 13.0624ZM11 18.3333C13.0472 18.3333 14.7813 17.6228 16.2021 16.202C17.6229 14.7812 18.3333 13.0471 18.3333 10.9999C18.3333 10.6333 18.3104 10.278 18.2646 9.93429C18.2188 9.59054 18.1347 9.25825 18.0125 8.93742C17.6917 9.01381 17.3708 9.0711 17.05 9.10929C16.7292 9.14749 16.3931 9.16659 16.0417 9.16659C14.6514 9.16659 13.3375 8.86867 12.1 8.27284C10.8625 7.677 9.80834 6.84436 8.93751 5.77492C8.44862 6.96659 7.74966 8.00166 6.84064 8.88013C5.93161 9.7586 4.87362 10.4194 3.66668 10.8624V10.9999C3.66668 13.0471 4.37709 14.7812 5.79793 16.202C7.21876 17.6228 8.95279 18.3333 11 18.3333ZM11 20.1666C9.73196 20.1666 8.54029 19.926 7.42501 19.4447C6.30973 18.9635 5.33959 18.3103 4.51459 17.4853C3.68959 16.6603 3.03647 15.6902 2.55522 14.5749C2.07397 13.4596 1.83334 12.268 1.83334 10.9999C1.83334 9.73186 2.07397 8.5402 2.55522 7.42492C3.03647 6.30964 3.68959 5.3395 4.51459 4.5145C5.33959 3.6895 6.30973 3.03638 7.42501 2.55513C8.54029 2.07388 9.73196 1.83325 11 1.83325C12.2681 1.83325 13.4597 2.07388 14.575 2.55513C15.6903 3.03638 16.6604 3.6895 17.4854 4.5145C18.3104 5.3395 18.9636 6.30964 19.4448 7.42492C19.9261 8.5402 20.1667 9.73186 20.1667 10.9999C20.1667 12.268 19.9261 13.4596 19.4448 14.5749C18.9636 15.6902 18.3104 16.6603 17.4854 17.4853C16.6604 18.3103 15.6903 18.9635 14.575 19.4447C13.4597 19.926 12.2681 20.1666 11 20.1666ZM9.76251 3.78117C10.4042 4.85061 11.275 5.70999 12.375 6.35929C13.475 7.0086 14.6972 7.33325 16.0417 7.33325C16.2556 7.33325 16.4618 7.32179 16.6604 7.29888C16.859 7.27596 17.0653 7.24922 17.2792 7.21867C16.6375 6.14922 15.7667 5.28985 14.6667 4.64054C13.5667 3.99124 12.3445 3.66659 11 3.66659C10.7861 3.66659 10.5799 3.67804 10.3813 3.70096C10.1826 3.72388 9.9764 3.75061 9.76251 3.78117ZM4.05626 8.68534C4.83543 8.24228 5.51529 7.66936 6.09584 6.96659C6.6764 6.26381 7.11182 5.477 7.40209 4.60617C6.62293 5.04922 5.94307 5.62214 5.36251 6.32492C4.78195 7.0277 4.34654 7.8145 4.05626 8.68534Z" fill="white"/>
</svg>
