<svg width="10" height="19" viewBox="0 0 10 19" fill="none" xmlns="http://www.w3.org/2000/svg">
<g clip-path="url(#clip0_1820_217)">
<path fill-rule="evenodd" clip-rule="evenodd" d="M7.96834 3.20813C8.56201 3.19504 9.15567 3.20813 9.74934 3.20813H10V0.14404C9.68338 0.117851 9.35356 0.0654736 9.02375 0.0523792C8.41689 0.0261904 7.81003 1.55531e-06 7.20317 0.013096C6.27968 0.0261904 5.39578 0.26189 4.63061 0.798761C3.7467 1.42729 3.27177 2.31771 3.08707 3.35217C3.00792 3.78429 2.99472 4.2295 2.98153 4.66161C2.96834 5.34252 2.98153 6.03653 2.98153 6.71744V6.97933H0V10.397H2.92876V19H6.51715V10.4101H9.44591C9.59103 9.27085 9.73615 8.14473 9.89446 6.97933C9.65699 6.97933 9.44591 6.97933 9.23483 6.97933C8.40369 6.97933 6.49077 6.97933 6.49077 6.97933C6.49077 6.97933 6.49077 5.29015 6.51715 4.54376C6.54354 3.53549 7.1504 3.23432 7.95515 3.19504L7.96834 3.20813Z" fill="white"/>
</g>
<defs>
<clipPath id="clip0_1820_217">
<rect width="10" height="19" fill="white"/>
</clipPath>
</defs>
</svg>
