<svg width="15" height="15" viewBox="0 0 15 15" fill="none" xmlns="http://www.w3.org/2000/svg">
<g clip-path="url(#clip0_1820_220)">
<path d="M0.248139 4.97512H3.36228V15H0.248139V4.97512ZM1.79901 0C2.79156 0 3.59801 0.808458 3.59801 1.80348C3.59801 2.79851 2.79156 3.60697 1.79901 3.60697C0.806452 3.60697 0 2.79851 0 1.80348C0 0.808458 0.806452 0 1.79901 0Z" fill="white"/>
<path d="M5.31006 4.97514H8.28773V6.34329H8.32495C8.74678 5.55971 9.75175 4.72638 11.2654 4.72638C14.4168 4.72638 14.9875 6.80349 14.9875 9.5025V15H11.8857V10.1244C11.8857 8.95524 11.8609 7.4627 10.2728 7.4627C8.68475 7.4627 8.4118 8.73135 8.4118 10.0373V15H5.31006V4.97514Z" fill="white"/>
</g>
<defs>
<clipPath id="clip0_1820_220">
<rect width="15" height="15" fill="white"/>
</clipPath>
</defs>
</svg>
