<svg width="180" height="180" viewBox="0 0 180 180" fill="none" xmlns="http://www.w3.org/2000/svg">
<g clip-path="url(#clip0_121_55)">
<path d="M100.247 174.241C146.058 168.4 178.459 126.527 172.617 80.7168C166.775 34.9064 124.903 2.50539 79.0923 8.34714C33.2819 14.1889 0.880876 56.0612 6.72263 101.872C12.5644 147.682 54.4367 180.083 100.247 174.241Z" fill="#222A4F"/>
<path d="M89.664 171.768C134.107 171.768 170.136 135.739 170.136 91.296C170.136 46.8525 134.107 10.824 89.664 10.824C45.2206 10.824 9.19202 46.8525 9.19202 91.296C9.19202 135.739 45.2206 171.768 89.664 171.768Z" fill="white"/>
<path fill-rule="evenodd" clip-rule="evenodd" d="M29.028 68.5679C38.376 43.5599 62.88 26.6279 89.664 26.6279C125.28 26.6279 154.332 55.6799 154.332 91.2959C154.332 126.912 125.28 155.964 89.664 155.964C54.048 155.964 24.996 126.912 24.996 91.2959C24.996 83.7239 26.508 75.6359 29.028 68.5679Z" fill="#222A4F"/>
<path fill-rule="evenodd" clip-rule="evenodd" d="M40.632 72.912C48.192 52.692 68.004 39 89.652 39C118.452 39 141.936 62.484 141.936 91.284C141.936 120.084 118.452 143.568 89.652 143.568C60.852 143.568 37.368 120.084 37.368 91.284C37.368 85.176 38.592 78.636 40.632 72.912Z" fill="white"/>
<path fill-rule="evenodd" clip-rule="evenodd" d="M52.812 60.228H62.748C57.468 61.14 53.34 65.556 52.812 71.004V60.228ZM101.364 84.192V132.984H76.812V84.192H66.816C72.48 83.208 76.812 78.204 76.812 72.216C76.812 66.216 72.48 61.212 66.816 60.24H112.236C106.572 61.224 102.24 66.228 102.24 72.216C102.24 78.216 106.572 83.22 112.236 84.192H101.364ZM116.304 60.228H126.504V84.18H116.304C121.968 83.196 126.3 78.192 126.3 72.204C126.3 66.216 121.968 61.212 116.304 60.228ZM62.76 84.192H52.812V73.416C53.34 78.864 57.468 83.28 62.76 84.192Z" fill="#848586"/>
<path fill-rule="evenodd" clip-rule="evenodd" d="M89.772 101.304C93.276 101.304 96.12 98.4239 96.12 94.8839C96.12 91.3439 93.264 88.4639 89.772 88.4639C86.268 88.4639 83.412 91.3439 83.412 94.8839C83.412 98.4239 86.268 101.304 89.772 101.304Z" fill="white"/>
<path fill-rule="evenodd" clip-rule="evenodd" d="M92.388 67.1039C94.344 67.8599 95.916 69.4319 96.66 71.3879H98.952V76.7399H96.6C95.508 79.4639 92.844 81.3839 89.736 81.3839C86.628 81.3839 83.964 79.4519 82.872 76.7399H80.532V71.3999H82.824C83.568 69.4319 85.128 67.8719 87.084 67.1159V64.4759H88.188V62.9639H84.792V61.5239H94.704V62.9639H91.008V64.4759H92.376V67.1039H92.388Z" fill="white"/>
<path fill-rule="evenodd" clip-rule="evenodd" d="M89.064 108.54C95.808 108.54 101.304 114.036 101.304 120.78C101.304 127.524 95.808 133.02 89.064 133.02C82.32 133.02 76.824 127.524 76.824 120.78C76.824 114.036 82.32 108.54 89.064 108.54Z" fill="white"/>
<path fill-rule="evenodd" clip-rule="evenodd" d="M87.732 108.672H88.764L90.108 110.64V108.672H91.14V112.224H90.108L88.776 110.268V112.224H87.732V108.672Z" fill="#848586"/>
<path fill-rule="evenodd" clip-rule="evenodd" d="M82.032 113.136L91.476 120.888L92.112 123.096L89.46 122.556L82.032 113.136Z" fill="#848586"/>
<path fill-rule="evenodd" clip-rule="evenodd" d="M97.8359 118.956H100.776V119.712H98.9279V120.276H100.644V120.996H98.9279V121.704H100.824V122.508H97.8359V118.956Z" fill="#848586"/>
<path fill-rule="evenodd" clip-rule="evenodd" d="M76.74 118.956H77.784L78.156 120.936L78.708 118.956H79.74L80.292 120.936L80.676 118.956H81.708L80.928 122.508H79.848L79.224 120.264L78.6 122.508H77.532L76.74 118.956Z" fill="#848586"/>
<path fill-rule="evenodd" clip-rule="evenodd" d="M87.54 132.024L88.584 131.964C88.608 132.132 88.656 132.264 88.728 132.348C88.836 132.492 89.004 132.564 89.208 132.564C89.364 132.564 89.484 132.528 89.568 132.456C89.652 132.384 89.7 132.3 89.7 132.204C89.7 132.108 89.664 132.024 89.58 131.952C89.496 131.88 89.316 131.808 89.016 131.748C88.536 131.64 88.188 131.496 87.984 131.316C87.78 131.136 87.672 130.908 87.672 130.632C87.672 130.452 87.72 130.272 87.828 130.116C87.936 129.948 88.092 129.828 88.308 129.732C88.524 129.636 88.812 129.588 89.184 129.588C89.64 129.588 89.988 129.672 90.228 129.84C90.468 130.008 90.612 130.284 90.648 130.644L89.616 130.704C89.592 130.548 89.532 130.428 89.436 130.356C89.352 130.284 89.232 130.248 89.076 130.248C88.944 130.248 88.848 130.272 88.788 130.332C88.728 130.38 88.692 130.452 88.692 130.524C88.692 130.584 88.716 130.632 88.776 130.68C88.824 130.728 88.956 130.764 89.148 130.812C89.628 130.92 89.976 131.016 90.18 131.124C90.384 131.232 90.54 131.364 90.636 131.52C90.732 131.676 90.78 131.856 90.78 132.048C90.78 132.276 90.72 132.492 90.588 132.672C90.468 132.864 90.288 133.008 90.06 133.116C89.832 133.212 89.544 133.26 89.208 133.26C88.608 133.26 88.188 133.14 87.948 132.912C87.696 132.672 87.564 132.384 87.54 132.024Z" fill="#848586"/>
<path d="M30.036 64.6679L20.028 60.0839L18.36 63.5999L16.332 62.6639L20.784 53.2559L22.824 54.1919L21.168 57.6959L31.164 62.2799L30.036 64.6679Z" fill="#222A4F"/>
<path d="M28.092 42.3839L29.856 40.3919L35.28 45.0359C36.144 45.7679 36.72 46.2239 37.02 46.3919C37.5 46.6559 38.016 46.7399 38.544 46.6319C39.072 46.5239 39.588 46.1879 40.08 45.6359C40.584 45.0719 40.836 44.5439 40.86 44.0639C40.884 43.5719 40.74 43.1639 40.452 42.8039C40.164 42.4559 39.612 41.9399 38.82 41.2679L33.276 36.5279L35.04 34.5359L40.308 39.0359C41.508 40.0679 42.312 40.8359 42.72 41.3759C43.116 41.9039 43.368 42.4679 43.452 43.0439C43.536 43.6199 43.476 44.2439 43.248 44.9039C43.02 45.5639 42.564 46.2719 41.88 47.0519C41.052 47.9999 40.308 48.6119 39.66 48.9119C39.012 49.2119 38.388 49.3439 37.776 49.3319C37.176 49.3079 36.636 49.1879 36.168 48.9359C35.472 48.5759 34.572 47.9159 33.456 46.9559L28.092 42.3839Z" fill="#222A4F"/>
<path d="M56.412 34.9079L45.816 25.7519L48.36 24.3599L56.064 31.2119L54.144 21.2159L56.628 19.8599L58.908 33.5399L56.412 34.9079Z" fill="#222A4F"/>
<path d="M81.996 26.052L79.14 26.652L77.376 23.988L72.18 25.068L71.736 28.188L68.952 28.764L71.256 14.94L74.028 14.364L81.996 26.052ZM76.08 22.008L73.26 17.64L72.528 22.74L76.08 22.008Z" fill="#222A4F"/>
<path d="M91.104 25.7639L92.028 12.7439L94.632 12.9239L99.432 21.9959L100.056 13.2959L102.54 13.4639L101.616 26.4839L98.928 26.3039L94.2 17.4479L93.588 25.9319L91.104 25.7639Z" fill="#222A4F"/>
<path d="M114.084 23.2079C114.636 21.9959 115.284 21.0599 116.028 20.3879C116.58 19.8959 117.204 19.5239 117.9 19.2479C118.596 18.9719 119.28 18.8399 119.952 18.8639C120.852 18.8879 121.8 19.1039 122.784 19.5359C124.572 20.3159 125.748 21.4919 126.336 23.0519C126.912 24.6119 126.768 26.3639 125.88 28.2959C125.004 30.2159 123.792 31.4999 122.232 32.1119C120.672 32.7359 119.004 32.6519 117.228 31.8719C115.428 31.0799 114.24 29.9159 113.652 28.3679C113.088 26.8199 113.232 25.1039 114.084 23.2079ZM116.652 24.2279C116.04 25.5719 115.896 26.7359 116.208 27.7199C116.532 28.6919 117.18 29.3999 118.152 29.8199C119.124 30.2519 120.084 30.2519 121.032 29.8319C121.968 29.4119 122.748 28.5119 123.384 27.1319C124.008 25.7639 124.164 24.6119 123.852 23.6759C123.54 22.7399 122.892 22.0439 121.884 21.5999C120.876 21.1559 119.904 21.1439 118.98 21.5519C118.044 21.9599 117.276 22.8599 116.652 24.2279Z" fill="#222A4F"/>
<path d="M133.692 36.3239L135.78 37.8839C135.3 38.6159 135.096 39.2999 135.168 39.9119C135.24 40.5239 135.576 41.1119 136.164 41.6519C136.8 42.2279 137.4 42.5399 137.964 42.5639C138.528 42.5999 138.984 42.4319 139.32 42.0839C139.536 41.8559 139.644 41.6039 139.668 41.3279C139.68 41.0399 139.584 40.6919 139.356 40.2719C139.2 39.9839 138.804 39.3599 138.18 38.4119C137.376 37.1879 136.932 36.2039 136.86 35.4359C136.764 34.3679 137.076 33.4439 137.784 32.6999C138.252 32.2079 138.816 31.8839 139.5 31.7159C140.184 31.5479 140.892 31.5959 141.636 31.8599C142.368 32.1239 143.112 32.5919 143.856 33.2759C145.08 34.3919 145.752 35.4959 145.86 36.5879C145.98 37.6799 145.632 38.6759 144.828 39.5759L142.788 37.8599C143.172 37.2959 143.328 36.7799 143.256 36.3119C143.184 35.8439 142.872 35.3519 142.32 34.8479C141.744 34.3319 141.192 34.0319 140.652 33.9719C140.304 33.9239 140.016 34.0319 139.776 34.2839C139.56 34.5119 139.476 34.7999 139.512 35.1359C139.56 35.5679 139.968 36.3359 140.712 37.4279C141.456 38.5199 141.948 39.3959 142.176 40.0559C142.404 40.7159 142.452 41.3639 142.332 42.0119C142.2 42.6599 141.852 43.2839 141.276 43.8839C140.76 44.4359 140.112 44.7959 139.356 44.9999C138.6 45.1919 137.82 45.1439 137.04 44.8679C136.26 44.5799 135.432 44.0519 134.592 43.2839C133.368 42.1559 132.684 41.0159 132.552 39.8519C132.432 38.6879 132.816 37.5119 133.692 36.3239Z" fill="#222A4F"/>
<path d="M150.732 64.7399L149.28 62.2559L151.308 59.7839L148.656 55.2719L145.5 55.8239L144.072 53.3999L158.16 51.2759L159.576 53.6879L150.732 64.7399ZM152.808 57.9479L156.156 53.9639L150.996 54.8639L152.808 57.9479Z" fill="#222A4F"/>
<path d="M31.284 122.676L33.624 126.696C34.152 127.608 34.476 128.328 34.608 128.88C34.788 129.624 34.752 130.356 34.512 131.076C34.272 131.796 33.864 132.468 33.264 133.092C32.664 133.716 31.836 134.316 30.768 134.88C29.832 135.372 28.944 135.696 28.14 135.828C27.156 135.996 26.256 135.96 25.44 135.732C24.828 135.564 24.228 135.204 23.628 134.664C23.184 134.268 22.728 133.656 22.248 132.84L19.836 128.7L31.284 122.676ZM30.624 125.904L23.04 129.912L24 131.556C24.36 132.168 24.648 132.6 24.888 132.828C25.188 133.14 25.524 133.344 25.884 133.464C26.244 133.584 26.724 133.572 27.324 133.452C27.924 133.332 28.668 133.032 29.556 132.564C30.444 132.096 31.08 131.664 31.464 131.268C31.848 130.872 32.1 130.464 32.208 130.056C32.316 129.648 32.304 129.216 32.148 128.748C32.04 128.4 31.728 127.776 31.2 126.888L30.624 125.904Z" fill="#222A4F"/>
<path d="M31.656 145.056L40.752 136.092L47.736 142.512L46.2 144.036L41.124 139.368L39.108 141.36L43.836 145.704L42.3 147.216L37.572 142.872L35.1 145.308L40.356 150.144L38.82 151.656L31.656 145.056Z" fill="#222A4F"/>
<path d="M48.276 153.516L50.628 154.536C50.328 155.328 50.28 156 50.496 156.552C50.7 157.104 51.156 157.584 51.852 157.968C52.584 158.376 53.232 158.532 53.784 158.436C54.336 158.352 54.732 158.1 54.972 157.704C55.128 157.452 55.176 157.188 55.128 156.924C55.08 156.66 54.9 156.348 54.588 156C54.372 155.76 53.856 155.268 53.04 154.524C51.984 153.564 51.348 152.724 51.108 152.04C50.772 151.068 50.856 150.144 51.384 149.292C51.72 148.74 52.188 148.32 52.812 148.02C53.424 147.72 54.12 147.612 54.888 147.708C55.656 147.804 56.472 148.08 57.348 148.56C58.776 149.34 59.664 150.228 60.024 151.212C60.384 152.208 60.276 153.204 59.712 154.212L57.36 153.048C57.6 152.436 57.636 151.92 57.456 151.5C57.276 151.08 56.868 150.696 56.232 150.336C55.572 149.964 54.972 149.808 54.432 149.868C54.084 149.904 53.832 150.06 53.664 150.336C53.508 150.588 53.484 150.876 53.604 151.176C53.748 151.56 54.312 152.196 55.272 153.048C56.232 153.912 56.904 154.62 57.276 155.184C57.648 155.748 57.84 156.336 57.864 156.972C57.888 157.608 57.684 158.256 57.276 158.94C56.904 159.564 56.364 160.044 55.68 160.38C54.996 160.728 54.24 160.848 53.424 160.74C52.608 160.644 51.696 160.32 50.712 159.78C49.284 158.988 48.372 158.076 47.988 157.02C47.592 155.976 47.688 154.8 48.276 153.516Z" fill="#222A4F"/>
<path d="M68.076 153.612L72.72 154.884C73.764 155.172 74.544 155.46 75.048 155.76C75.72 156.168 76.248 156.708 76.608 157.38C76.98 158.052 77.184 158.808 77.232 159.648C77.268 160.488 77.124 161.472 76.788 162.6C76.488 163.584 76.104 164.4 75.636 165.048C75.06 165.828 74.4 166.416 73.656 166.8C73.092 167.088 72.408 167.244 71.58 167.268C70.968 167.28 70.2 167.16 69.252 166.908L64.476 165.6L68.076 153.612ZM70.008 156.324L67.62 164.256L69.516 164.772C70.224 164.964 70.752 165.072 71.088 165.072C71.532 165.084 71.916 165.012 72.264 164.856C72.612 164.7 72.948 164.364 73.272 163.884C73.608 163.392 73.908 162.684 74.196 161.76C74.472 160.836 74.604 160.104 74.58 159.552C74.556 159.012 74.436 158.556 74.208 158.196C73.98 157.836 73.644 157.536 73.2 157.308C72.864 157.128 72.192 156.912 71.148 156.624L70.008 156.324Z" fill="#222A4F"/>
<path d="M84.984 169.296L85.44 156.84L95.136 157.164L95.064 159.276L88.008 159.036L87.912 161.796L94.476 162.012L94.404 164.112L87.84 163.896L87.72 167.292L95.028 167.532L94.956 169.632L84.984 169.296Z" fill="#222A4F"/>
<path d="M119.94 163.728L117.612 164.628L114.072 156.276C113.544 157.368 112.776 158.304 111.78 159.108L110.928 157.092C111.456 156.672 111.96 156.06 112.452 155.256C112.944 154.452 113.172 153.648 113.124 152.844L115.008 152.112L119.94 163.728Z" fill="#222A4F"/>
<path d="M128.484 156.696L130.296 155.124C130.632 155.472 130.98 155.664 131.316 155.712C131.664 155.76 132 155.664 132.324 155.436C132.744 155.148 132.96 154.716 132.972 154.152C132.984 153.576 132.6 152.688 131.796 151.476C131.712 152.4 131.292 153.12 130.524 153.648C129.696 154.224 128.736 154.416 127.668 154.224C126.6 154.032 125.688 153.444 124.932 152.46C124.152 151.44 123.84 150.384 124.008 149.316C124.164 148.248 124.74 147.372 125.724 146.688C126.804 145.944 127.98 145.728 129.276 146.052C130.572 146.364 131.904 147.432 133.284 149.244C134.688 151.092 135.348 152.664 135.252 153.984C135.156 155.292 134.532 156.348 133.38 157.152C132.552 157.728 131.724 157.98 130.896 157.908C130.08 157.836 129.276 157.428 128.484 156.696ZM129.864 149.292C129.384 148.668 128.868 148.284 128.304 148.152C127.74 148.02 127.26 148.092 126.864 148.356C126.492 148.62 126.288 148.968 126.252 149.424C126.216 149.88 126.444 150.432 126.936 151.068C127.428 151.716 127.932 152.1 128.436 152.22C128.94 152.34 129.396 152.256 129.792 151.98C130.176 151.716 130.404 151.332 130.44 150.864C130.488 150.384 130.296 149.868 129.864 149.292Z" fill="#222A4F"/>
<path d="M136.524 141.804L134.82 140.292L140.676 134.316L142.008 135.504C142.032 136.452 142.272 137.604 142.728 138.96C143.184 140.316 143.82 141.6 144.624 142.824C145.44 144.048 146.268 145.032 147.12 145.776L145.476 147.456C144.18 146.256 143.088 144.792 142.188 143.076C141.288 141.36 140.7 139.62 140.424 137.832L136.524 141.804Z" fill="#222A4F"/>
<path d="M158.064 131.58L155.76 130.368L153.168 134.832L151.248 133.812L146.736 125.244L147.756 123.492L155.016 127.332L155.808 125.976L157.74 126.996L156.948 128.352L159.252 129.564L158.064 131.58ZM153.828 129.348L149.916 127.284L152.376 131.856L153.828 129.348Z" fill="#222A4F"/>
</g>
<defs>
<clipPath id="clip0_121_55">
<rect width="180" height="180" fill="white"/>
</clipPath>
</defs>
</svg>
