<svg width="19" height="17" viewBox="0 0 19 17" fill="none" xmlns="http://www.w3.org/2000/svg">
<path d="M9.39641 15.3C9.45396 15.3 9.51151 15.2858 9.56906 15.2575C9.62661 15.2292 9.66977 15.2008 9.69855 15.1725L16.7771 8.2025C16.9498 8.0325 17.0757 7.84125 17.1548 7.62875C17.2339 7.41625 17.2735 7.20375 17.2735 6.99125C17.2735 6.76458 17.2339 6.54854 17.1548 6.34312C17.0757 6.13771 16.9498 5.95708 16.7771 5.80125L13.1084 2.18875C12.9501 2.01875 12.7667 1.89479 12.558 1.81687C12.3494 1.73896 12.13 1.7 11.8998 1.7C11.684 1.7 11.4682 1.73896 11.2524 1.81687C11.0366 1.89479 10.8423 2.01875 10.6697 2.18875L10.4323 2.4225L12.0293 4.01625C12.2451 4.21458 12.4034 4.44125 12.5041 4.69625C12.6048 4.95125 12.6552 5.22042 12.6552 5.50375C12.6552 6.09875 12.4501 6.59812 12.0401 7.00187C11.6301 7.40562 11.1229 7.6075 10.5186 7.6075C10.2309 7.6075 9.95392 7.55792 9.68775 7.45875C9.42159 7.35958 9.18779 7.21083 8.98637 7.0125L7.36779 5.44L3.59109 9.15875C3.54793 9.20125 3.51556 9.24729 3.49398 9.29688C3.4724 9.34646 3.46161 9.39958 3.46161 9.45625C3.46161 9.56958 3.50477 9.67229 3.59109 9.76437C3.67742 9.85646 3.77813 9.9025 3.89323 9.9025C3.95078 9.9025 4.00833 9.88833 4.06588 9.86C4.12343 9.83167 4.16659 9.80333 4.19537 9.775L7.13039 6.885L8.33894 8.075L5.42549 10.965C5.38233 11.0075 5.34995 11.0535 5.32837 11.1031C5.30679 11.1527 5.296 11.2058 5.296 11.2625C5.296 11.3758 5.33916 11.475 5.42549 11.56C5.51181 11.645 5.61252 11.6875 5.72762 11.6875C5.78517 11.6875 5.84272 11.6733 5.90027 11.645C5.95782 11.6167 6.00098 11.5883 6.02976 11.56L8.96479 8.69125L10.1733 9.88125L7.25988 12.7712C7.21672 12.7996 7.18435 12.8421 7.16277 12.8988C7.14119 12.9554 7.13039 13.0121 7.13039 13.0688C7.13039 13.1821 7.17356 13.2812 7.25988 13.3663C7.34621 13.4513 7.44692 13.4938 7.56202 13.4938C7.61957 13.4938 7.67352 13.4831 7.72388 13.4619C7.77423 13.4406 7.82099 13.4088 7.86415 13.3663L10.7992 10.4975L12.0077 11.6875L9.07269 14.5775C9.02953 14.62 8.99716 14.666 8.97558 14.7156C8.954 14.7652 8.94321 14.8183 8.94321 14.875C8.94321 14.9883 8.98997 15.0875 9.08348 15.1725C9.177 15.2575 9.28131 15.3 9.39641 15.3ZM9.37483 17C8.84249 17 8.37131 16.8265 7.96127 16.4794C7.55123 16.1323 7.31024 15.6967 7.2383 15.1725C6.74913 15.1017 6.33909 14.9033 6.00818 14.5775C5.67727 14.2517 5.47584 13.8479 5.40391 13.3663C4.91474 13.2954 4.50829 13.0935 4.18458 12.7606C3.86086 12.4277 3.66303 12.0275 3.59109 11.56C3.04437 11.4892 2.59836 11.2554 2.25307 10.8588C1.90777 10.4621 1.73512 9.99458 1.73512 9.45625C1.73512 9.17292 1.78907 8.90021 1.89698 8.63813C2.00488 8.37604 2.15955 8.14583 2.36097 7.9475L7.36779 3.03875L10.1949 5.8225C10.2237 5.865 10.2668 5.89687 10.3244 5.91813C10.3819 5.93937 10.4395 5.95 10.497 5.95C10.6265 5.95 10.7344 5.91104 10.8208 5.83313C10.9071 5.75521 10.9502 5.6525 10.9502 5.525C10.9502 5.46833 10.9395 5.41167 10.9179 5.355C10.8963 5.29833 10.8639 5.25583 10.8208 5.2275L7.73467 2.18875C7.5764 2.01875 7.39296 1.89479 7.18435 1.81687C6.97573 1.73896 6.75632 1.7 6.52612 1.7C6.31031 1.7 6.0945 1.73896 5.87869 1.81687C5.66288 1.89479 5.46865 2.01875 5.296 2.18875L2.25307 5.20625C2.12358 5.33375 2.01567 5.4825 1.92935 5.6525C1.84303 5.8225 1.78548 5.9925 1.7567 6.1625C1.72793 6.3325 1.72793 6.50604 1.7567 6.68313C1.78548 6.86021 1.84303 7.02667 1.92935 7.1825L0.677646 8.415C0.433061 8.08917 0.253218 7.73146 0.138119 7.34188C0.0230198 6.95229 -0.0201424 6.55917 0.00863244 6.1625C0.0374072 5.76583 0.138119 5.37979 0.310768 5.00437C0.483417 4.62896 0.720809 4.2925 1.02294 3.995L4.06588 0.99875C4.41118 0.672917 4.79604 0.425 5.22047 0.255C5.6449 0.085 6.08011 0 6.52612 0C6.97213 0 7.40735 0.085 7.83178 0.255C8.25621 0.425 8.63388 0.672917 8.96479 0.99875L9.20218 1.2325L9.43957 0.99875C9.78487 0.672917 10.1697 0.425 10.5942 0.255C11.0186 0.085 11.4538 0 11.8998 0C12.3458 0 12.781 0.085 13.2055 0.255C13.6299 0.425 14.0076 0.672917 14.3385 0.99875L17.9857 4.59C18.3166 4.91583 18.5684 5.29125 18.741 5.71625C18.9137 6.14125 19 6.57333 19 7.0125C19 7.45167 18.9137 7.88021 18.741 8.29813C18.5684 8.71604 18.3166 9.08792 17.9857 9.41375L10.9071 16.3625C10.7057 16.5608 10.4719 16.7167 10.2057 16.83C9.93953 16.9433 9.66258 17 9.37483 17Z" fill="white"/>
</svg>
