<svg width="21" height="19" viewBox="0 0 21 19" fill="none" xmlns="http://www.w3.org/2000/svg">
<path d="M19.3546 8.11958V16.0696C19.3546 16.6196 19.1588 17.0904 18.7671 17.4821C18.3755 17.8737 17.9046 18.0696 17.3546 18.0696H3.35463C2.80463 18.0696 2.3338 17.8737 1.94213 17.4821C1.55047 17.0904 1.35463 16.6196 1.35463 16.0696V8.11958C0.971299 7.76958 0.675466 7.31958 0.467132 6.76958C0.258799 6.21958 0.254632 5.61958 0.454632 4.96958L1.50463 1.56958C1.63797 1.13625 1.87547 0.777913 2.21713 0.49458C2.5588 0.211247 2.95463 0.0695801 3.40463 0.0695801H17.3046C17.7546 0.0695801 18.1463 0.20708 18.4796 0.48208C18.813 0.75708 19.0546 1.11958 19.2046 1.56958L20.2546 4.96958C20.4546 5.61958 20.4505 6.21125 20.2421 6.74458C20.0338 7.27791 19.738 7.73625 19.3546 8.11958ZM12.5546 7.06958C13.0046 7.06958 13.3463 6.91541 13.5796 6.60708C13.813 6.29875 13.9046 5.95291 13.8546 5.56958L13.3046 2.06958H11.3546V5.76958C11.3546 6.11958 11.4713 6.42375 11.7046 6.68208C11.938 6.94041 12.2213 7.06958 12.5546 7.06958ZM8.05463 7.06958C8.43797 7.06958 8.75047 6.94041 8.99213 6.68208C9.2338 6.42375 9.35463 6.11958 9.35463 5.76958V2.06958H7.40463L6.85463 5.56958C6.78797 5.96958 6.87547 6.31958 7.11713 6.61958C7.3588 6.91958 7.6713 7.06958 8.05463 7.06958ZM3.60463 7.06958C3.90463 7.06958 4.16713 6.96125 4.39213 6.74458C4.61713 6.52791 4.75463 6.25291 4.80463 5.91958L5.35463 2.06958H3.40463L2.40463 5.41958C2.30463 5.75291 2.3588 6.11125 2.56713 6.49458C2.77547 6.87791 3.1213 7.06958 3.60463 7.06958ZM17.1046 7.06958C17.588 7.06958 17.938 6.87791 18.1546 6.49458C18.3713 6.11125 18.4213 5.75291 18.3046 5.41958L17.2546 2.06958H15.3546L15.9046 5.91958C15.9546 6.25291 16.0921 6.52791 16.3171 6.74458C16.5421 6.96125 16.8046 7.06958 17.1046 7.06958ZM3.35463 16.0696H17.3546V9.01958C17.2713 9.05291 17.2171 9.06958 17.1921 9.06958H17.1046C16.6546 9.06958 16.2588 8.99458 15.9171 8.84458C15.5755 8.69458 15.238 8.45291 14.9046 8.11958C14.6046 8.41958 14.263 8.65291 13.8796 8.81958C13.4963 8.98625 13.088 9.06958 12.6546 9.06958C12.2046 9.06958 11.7838 8.98625 11.3921 8.81958C11.0005 8.65291 10.6546 8.41958 10.3546 8.11958C10.0713 8.41958 9.74213 8.65291 9.36713 8.81958C8.99213 8.98625 8.58797 9.06958 8.15463 9.06958C7.6713 9.06958 7.2338 8.98625 6.84213 8.81958C6.45047 8.65291 6.10463 8.41958 5.80463 8.11958C5.45463 8.46958 5.1088 8.71541 4.76713 8.85708C4.42547 8.99875 4.03797 9.06958 3.60463 9.06958H3.49213C3.45047 9.06958 3.40463 9.05291 3.35463 9.01958V16.0696Z" fill="white"/>
</svg>
