<?xml version="1.0" encoding="UTF-8"?>
<svg xmlns="http://www.w3.org/2000/svg" version="1.1" viewBox="0 0 250 250">
  <defs>
    <style>
      .cls-1 {
        fill: #1b1c3c;
      }
    </style>
  </defs>
  <!-- Generator: Adobe Illustrator 28.6.0, SVG Export Plug-In . SVG Version: 1.2.0 Build 709)  -->
  <g>
    <g id="Capa_1">
      <path class="cls-1" d="M196.6,62.1c-1.5-.8-2.9-1.6-4.3-2.5-4.1-2.7-7.8-5.9-11.1-9.5-8.3-9.5-11.4-19.1-12.5-25.9h0c-1-5.6-.6-9.2-.5-9.2h-37.8v146.1c0,2,0,3.9,0,5.8,0,.2,0,.5,0,.7,0,.1,0,.2,0,.3h0c-.8,10.7-6.9,20.3-16.1,25.5-4.8,2.7-10.2,4.1-15.6,4.1-17.6,0-31.9-14.4-31.9-32.1s14.3-32.1,31.9-32.1c3.3,0,6.6.5,9.8,1.6v-38.5c-19.4-2.5-39,3.2-54,15.8-6.5,5.7-12,12.4-16.2,20-1.6,2.7-7.6,13.8-8.3,31.7-.5,10.2,2.6,20.7,4.1,25.1h0c.9,2.7,4.5,11.4,10.3,18.8,4.7,5.9,10.2,11.1,16.4,15.4h0c0,0,0,0,0,0,18.3,12.4,38.6,11.6,38.6,11.6,3.5-.1,15.3,0,28.6-6.3,14.8-7,23.2-17.5,23.2-17.5,5.4-6.2,9.7-13.4,12.7-21.1,3.4-9,4.6-19.8,4.6-24.1v-77.5c.5.3,6.6,4.3,6.6,4.3,0,0,8.8,5.6,22.5,9.3,9.8,2.6,23.1,3.2,23.1,3.2v-37.5c-4.6.5-14.1-1-23.7-5.8Z"/>
    </g>
  </g>
</svg>