<svg xmlns="http://www.w3.org/2000/svg" width="36" height="36" fill="none" xmlns:v="https://vecta.io/nano"><g clip-path="url(#A)"><path fill-rule="evenodd" d="M20.968 11.208h1.781H23V8.144l-.976-.092-1.821-.039c-.924.013-1.807.249-2.573.786-.884.629-1.359 1.519-1.544 2.553-.079.432-.092.877-.106 1.309v2.056.262H13v3.418h2.929V27h3.588v-8.59h2.929l.449-3.431h-.66-2.744l.026-2.436c.026-1.008.633-1.309 1.438-1.349l.013.013z" fill="#fff"/></g><circle cx="18" cy="18" r="17.5" stroke="#fff"/><defs><clipPath id="A"><path fill="#fff" transform="translate(13 8)" d="M0 0h10v19H0z"/></clipPath></defs></svg>