<svg xmlns="http://www.w3.org/2000/svg" width="36" height="36" fill="none" xmlns:v="https://vecta.io/nano"><g clip-path="url(#A)" fill="#fff"><path d="M11.248 14.975h3.114V25h-3.114V14.975zM12.799 10c.993 0 1.799.809 1.799 1.803s-.806 1.803-1.799 1.803A1.8 1.8 0 0 1 11 11.804c0-.995.807-1.804 1.799-1.804zm3.511 4.975h2.978v1.368h.037c.422-.784 1.427-1.617 2.94-1.617 3.151 0 3.722 2.077 3.722 4.776V25h-3.102v-4.876c0-1.169-.025-2.662-1.613-2.662s-1.861 1.269-1.861 2.575V25H16.31V14.975z"/></g><circle cx="18" cy="18" r="17.5" stroke="#fff"/><defs><clipPath id="A"><path fill="#fff" transform="translate(11 10)" d="M0 0h15v15H0z"/></clipPath></defs></svg>