<svg xmlns="http://www.w3.org/2000/svg" width="36" height="36" fill="none" xmlns:v="https://vecta.io/nano"><g clip-path="url(#A)"><path fill-rule="evenodd" d="M11.752 23.644c-.641-.211-1.072-.632-1.308-1.278-.562-1.554-.732-8.101.353-9.392a2.11 2.11 0 0 1 1.425-.764c2.929-.316 11.992-.277 13.038.105.615.224 1.046.619 1.282 1.238.615 1.62.641 7.508-.079 9.063-.196.421-.51.724-.915.935-1.099.579-12.345.566-13.783.092h-.013zm4.655-3.069l5.283-2.753-5.283-2.779v5.532z" fill="#fff"/></g><circle cx="18" cy="18" r="17.5" stroke="#fff"/><defs><clipPath id="A"><path fill="#fff" transform="translate(10 12)" d="M0 0h17v12H0z"/></clipPath></defs></svg>