<svg xmlns="http://www.w3.org/2000/svg" width="135" height="135" fill="none" xmlns:v="https://vecta.io/nano"><path d="M75.185 130.681c34.358-4.381 58.659-35.786 54.278-70.143S93.677 1.879 59.319 6.26.661 42.046 5.042 76.404s35.786 58.658 70.143 54.277z" fill="#222a4f"/><path d="M67.248 128.826c33.333 0 60.354-27.021 60.354-60.354S100.581 8.118 67.248 8.118 6.894 35.139 6.894 68.472s27.021 60.354 60.354 60.354z" fill="#fff"/><g fill-rule="evenodd"><path d="M21.771 51.426C28.782 32.67 47.16 19.971 67.248 19.971c26.712 0 48.501 21.789 48.501 48.501s-21.789 48.501-48.501 48.501-48.501-21.789-48.501-48.501c0-5.679 1.134-11.745 3.024-17.046z" fill="#222a4f"/><path d="M30.474 54.684c5.67-15.165 20.529-25.434 36.765-25.434 21.6 0 39.213 17.613 39.213 39.213s-17.613 39.213-39.213 39.213-39.213-17.613-39.213-39.213c0-4.581.918-9.486 2.448-13.779z" fill="#fff"/><path d="M39.609 45.171h7.452c-3.96.684-7.056 3.996-7.452 8.082v-8.082zm36.414 17.973v36.594H57.609V63.144h-7.497c4.248-.738 7.497-4.491 7.497-8.982 0-4.5-3.249-8.253-7.497-8.982h34.065c-4.248.738-7.497 4.491-7.497 8.982 0 4.5 3.249 8.253 7.497 8.982h-8.154zm11.205-17.973h7.65v17.964h-7.65c4.248-.738 7.497-4.491 7.497-8.982s-3.249-8.244-7.497-8.982zM47.07 63.144h-7.461v-8.082c.396 4.086 3.492 7.398 7.461 8.082z" fill="#848586"/><path d="M67.329 75.978c2.628 0 4.761-2.16 4.761-4.815s-2.142-4.815-4.761-4.815c-2.628 0-4.77 2.16-4.77 4.815s2.142 4.815 4.77 4.815zm1.962-25.65c1.467.567 2.646 1.746 3.204 3.213h1.719v4.014H72.45c-.819 2.043-2.817 3.483-5.148 3.483a5.56 5.56 0 0 1-5.148-3.483h-1.755V53.55h1.719c.558-1.476 1.728-2.646 3.195-3.213v-1.98h.828v-1.134h-2.547v-1.08h7.434v1.08h-2.772v1.134h1.026v1.971h.009zm-2.493 31.077a9.2 9.2 0 0 1 9.18 9.18 9.2 9.2 0 0 1-9.18 9.18 9.2 9.2 0 0 1-9.18-9.18 9.2 9.2 0 0 1 9.18-9.18z" fill="#fff"/><path d="M65.799 81.504h.774l1.008 1.476v-1.476h.774v2.664h-.774l-.999-1.467v1.467h-.783v-2.664zm-4.275 3.348l7.083 5.814.477 1.656-1.989-.405-5.571-7.065zm11.853 4.365h2.205v.567h-1.386v.423h1.287v.54h-1.287v.531h1.422v.603h-2.241v-2.664zm-15.822 0h.783l.279 1.485.414-1.485h.774l.414 1.485.288-1.485h.774l-.585 2.664h-.81l-.468-1.683-.468 1.683h-.801l-.594-2.664zm8.1 9.801l.783-.045c.018.126.054.225.108.288.081.108.207.162.36.162.117 0 .207-.027.27-.081s.099-.117.099-.189-.027-.135-.09-.189-.198-.108-.423-.153c-.36-.081-.621-.189-.774-.324a.66.66 0 0 1-.234-.513c0-.135.036-.27.117-.387a.78.78 0 0 1 .36-.288c.162-.072.378-.108.657-.108.342 0 .603.063.783.189s.288.333.315.603l-.774.045c-.018-.117-.063-.207-.135-.261-.063-.054-.153-.081-.27-.081-.099 0-.171.018-.216.063-.045.036-.072.09-.072.144 0 .045.018.081.063.117.036.036.135.063.279.099.36.081.621.153.774.234s.27.18.342.297.108.252.108.396a.78.78 0 0 1-.144.468c-.09.144-.225.252-.396.333-.171.072-.387.108-.639.108-.45 0-.765-.09-.945-.261-.189-.18-.288-.396-.306-.666z" fill="#848586"/></g><path d="M22.527 48.501l-7.506-3.438L13.77 47.7l-1.521-.702 3.339-7.056 1.53.702-1.242 2.628 7.497 3.438-.846 1.791zm-1.458-16.713l1.323-1.494 4.068 3.483 1.305 1.017a1.64 1.64 0 0 0 1.143.18c.396-.081.783-.333 1.152-.747.378-.423.567-.819.585-1.179.018-.369-.09-.675-.306-.945-.216-.261-.63-.648-1.224-1.152l-4.158-3.555 1.323-1.494 3.951 3.375c.9.774 1.503 1.35 1.809 1.755.297.396.486.819.549 1.251s.018.9-.153 1.395-.513 1.026-1.026 1.611c-.621.711-1.179 1.17-1.665 1.395s-.954.324-1.413.315c-.45-.018-.855-.108-1.206-.297-.522-.27-1.197-.765-2.034-1.485l-4.023-3.429zm21.24-5.607l-7.947-6.867 1.908-1.044 5.778 5.139-1.44-7.497 1.863-1.017 1.71 10.26-1.872 1.026zm19.188-6.642l-2.142.45-1.323-1.998-3.897.81-.333 2.34-2.088.432 1.728-10.368 2.079-.432 5.976 8.766zm-4.437-3.033l-2.115-3.276-.549 3.825 2.664-.549zm11.268 2.817l.693-9.765 1.953.135 3.6 6.804.468-6.525 1.863.126-.693 9.765-2.016-.135-3.546-6.642-.459 6.363-1.863-.126zm17.235-1.917c.414-.909.9-1.611 1.458-2.115.414-.369.882-.648 1.404-.855s1.035-.306 1.539-.288c.675.018 1.386.18 2.124.504 1.341.585 2.223 1.467 2.664 2.637.432 1.17.324 2.484-.342 3.933-.657 1.44-1.566 2.403-2.736 2.862-1.17.468-2.421.405-3.753-.18-1.35-.594-2.241-1.467-2.682-2.628-.423-1.161-.315-2.448.324-3.87zm1.926.765c-.459 1.008-.567 1.881-.333 2.619.243.729.729 1.26 1.458 1.575.729.324 1.449.324 2.16.009.702-.315 1.287-.99 1.764-2.025.468-1.026.585-1.89.351-2.592s-.72-1.224-1.476-1.557-1.485-.342-2.178-.036c-.702.306-1.278.981-1.746 2.007zm12.78 9.072l1.566 1.17c-.36.549-.513 1.062-.459 1.521s.306.9.747 1.305c.477.432.927.666 1.35.684.423.027.765-.099 1.017-.36.162-.171.243-.36.261-.567.009-.216-.063-.477-.234-.792-.117-.216-.414-.684-.882-1.395-.603-.918-.936-1.656-.99-2.232-.072-.801.162-1.494.693-2.052a2.57 2.57 0 0 1 1.287-.738c.513-.126 1.044-.09 1.602.108.549.198 1.107.549 1.665 1.062.918.837 1.422 1.665 1.503 2.484.09.819-.171 1.566-.774 2.241l-1.53-1.287c.288-.423.405-.81.351-1.161s-.288-.72-.702-1.098c-.432-.387-.846-.612-1.251-.657a.72.72 0 0 0-.657.234c-.162.171-.225.387-.198.639.036.324.342.9.9 1.719s.927 1.476 1.098 1.971a2.83 2.83 0 0 1 .117 1.467c-.099.486-.36.954-.792 1.404-.387.414-.873.684-1.44.837-.567.144-1.152.108-1.737-.099-.585-.216-1.206-.612-1.836-1.188-.918-.846-1.431-1.701-1.53-2.574-.09-.873.198-1.755.855-2.646zm12.78 21.312l-1.089-1.863 1.521-1.854-1.989-3.384-2.367.414-1.071-1.818 10.566-1.593 1.062 1.809-6.633 8.289zm1.557-5.094l2.511-2.988-3.87.675 1.359 2.313zM23.463 92.007l1.755 3.015c.396.684.639 1.224.738 1.638a2.93 2.93 0 0 1-.072 1.647c-.18.54-.486 1.044-.936 1.512s-1.071.918-1.872 1.341c-.702.369-1.368.612-1.971.711-.738.126-1.413.099-2.025-.072-.459-.126-.909-.396-1.359-.801-.333-.297-.675-.756-1.035-1.368l-1.809-3.105 8.586-4.518zm-.495 2.421l-5.688 3.006.72 1.233c.27.459.486.783.666.954.225.234.477.387.747.477s.63.081 1.08-.009 1.008-.315 1.674-.666 1.143-.675 1.431-.972.477-.603.558-.909.072-.63-.045-.981c-.081-.261-.315-.729-.711-1.395l-.432-.738zm.774 14.364l6.822-6.723 5.238 4.815-1.152 1.143-3.807-3.501-1.512 1.494 3.546 3.258-1.152 1.134-3.546-3.258-1.854 1.827 3.942 3.627-1.152 1.134-5.373-4.95zm12.465 6.345l1.764.765c-.225.594-.261 1.098-.099 1.512.153.414.495.774 1.017 1.062.549.306 1.035.423 1.449.351.414-.063.711-.252.891-.549a.81.81 0 0 0 .117-.585c-.036-.198-.171-.432-.405-.693-.162-.18-.549-.549-1.161-1.107-.792-.72-1.269-1.35-1.449-1.863-.252-.729-.189-1.422.207-2.061a2.46 2.46 0 0 1 1.071-.954c.459-.225.981-.306 1.557-.234s1.188.279 1.845.639c1.071.585 1.737 1.251 2.007 1.989.27.747.189 1.494-.234 2.25l-1.764-.873c.18-.459.207-.846.072-1.161s-.441-.603-.918-.873c-.495-.279-.945-.396-1.35-.351-.261.027-.45.144-.576.351-.117.189-.135.405-.045.63.108.288.531.765 1.251 1.404.72.648 1.224 1.179 1.503 1.602s.423.864.441 1.341-.135.963-.441 1.476a2.79 2.79 0 0 1-1.197 1.08c-.513.261-1.08.351-1.692.27-.612-.072-1.296-.315-2.034-.72-1.071-.594-1.755-1.278-2.043-2.07-.297-.783-.225-1.665.216-2.628zm14.85.072l3.483.954c.783.216 1.368.432 1.746.657.504.306.9.711 1.17 1.215.279.504.432 1.071.468 1.701.027.63-.081 1.368-.333 2.214-.225.738-.513 1.35-.864 1.836-.432.585-.927 1.026-1.485 1.314-.423.216-.936.333-1.557.351-.459.009-1.035-.081-1.746-.27l-3.582-.981 2.7-8.991zm1.449 2.034l-1.791 5.949 1.422.387c.531.144.927.225 1.179.225a1.98 1.98 0 0 0 .882-.162c.261-.117.513-.369.756-.729.252-.369.477-.9.693-1.593.207-.693.306-1.242.288-1.656-.018-.405-.108-.747-.279-1.017s-.423-.495-.756-.666c-.252-.135-.756-.297-1.539-.513l-.855-.225zm11.232 9.729l.342-9.342 7.272.243-.054 1.584-5.292-.18-.072 2.07 4.923.162-.054 1.575-4.923-.162-.09 2.547 5.481.18-.054 1.575-7.479-.252zm26.217-4.176l-1.746.675-2.655-6.264c-.396.819-.972 1.521-1.719 2.124l-.639-1.512c.396-.315.774-.774 1.143-1.377s.54-1.206.504-1.809l1.413-.549 3.699 8.712zm6.408-5.274l1.359-1.179c.252.261.513.405.765.441.261.036.513-.036.756-.207.315-.216.477-.54.486-.963.009-.432-.279-1.098-.882-2.007-.063.693-.378 1.233-.954 1.629-.621.432-1.341.576-2.142.432s-1.485-.585-2.052-1.323c-.585-.765-.819-1.557-.693-2.358.117-.801.549-1.458 1.287-1.971a3.14 3.14 0 0 1 2.664-.477c.972.234 1.971 1.035 3.006 2.394 1.053 1.386 1.548 2.565 1.476 3.555-.072.981-.54 1.773-1.404 2.376-.621.432-1.242.621-1.863.567-.612-.054-1.215-.36-1.809-.909zm1.035-5.553c-.36-.468-.747-.756-1.17-.855s-.783-.045-1.08.153a1.03 1.03 0 0 0-.459.801c-.027.342.144.756.513 1.233.369.486.747.774 1.125.864s.72.027 1.017-.18a1.09 1.09 0 0 0 .486-.837c.036-.36-.108-.747-.432-1.179zm4.995-5.616l-1.278-1.134 4.392-4.482.999.891c.018.711.198 1.575.54 2.592a12.55 12.55 0 0 0 1.422 2.898c.612.918 1.233 1.656 1.872 2.214l-1.233 1.26c-.972-.9-1.791-1.998-2.466-3.285s-1.116-2.592-1.323-3.933l-2.925 2.979zm16.155-7.668l-1.728-.909-1.944 3.348-1.44-.765-3.384-6.426.765-1.314 5.445 2.88.594-1.017 1.449.765-.594 1.017 1.728.909-.891 1.512zm-3.177-1.674l-2.934-1.548 1.845 3.429 1.089-1.881z" fill="#222a4f"/></svg>