<svg width="92" height="74" viewBox="0 0 92 74" fill="none" xmlns="http://www.w3.org/2000/svg">
<g clip-path="url(#clip0_1145_70)">
<path d="M43.4308 66.204C14.5531 66.204 1.95869 51.047 1.42984 50.3914C1.22092 50.1382 1.10992 49.8137 1.10992 49.4826V38.1619C1.10992 37.3635 1.76282 36.7144 2.56589 36.7144C3.36895 36.7144 4.02185 37.3635 4.02185 38.1619V48.9373C6.15683 51.2482 18.9537 63.8347 44.9782 63.2894C78.6809 62.6468 87.3057 51.8584 89.0097 48.9763V41.5958C89.0097 40.7973 89.6626 40.1482 90.4657 40.1482C91.2688 40.1482 91.9216 40.7973 91.9216 41.5958V49.3528C91.9216 49.5865 91.8629 49.8201 91.7519 50.0279C85.6995 61.394 63.6511 65.8275 45.037 66.1845C44.5016 66.1975 43.9597 66.1975 43.4374 66.1975L43.4308 66.204Z" fill="#002C72"/>
<path d="M43.0979 59.557C32.3511 59.557 22.6621 57.6486 14.2658 53.8772C13.5346 53.5461 13.2081 52.6893 13.5411 51.9623C13.8741 51.2352 14.7359 50.9172 15.4672 51.2417C23.8765 55.0196 33.6961 56.8696 44.6256 56.6489C47.3482 56.6035 49.9859 56.4996 52.467 56.3373C53.27 56.2919 53.9621 56.8891 54.0143 57.6875C54.0666 58.4859 53.4594 59.174 52.6563 59.2259C50.1296 59.3882 47.4462 59.4921 44.6844 59.544C44.1556 59.5505 43.6332 59.557 43.1109 59.557H43.0979Z" fill="#002C72"/>
<path d="M46.5647 74C21.8003 74 9.0361 63.5102 5.62144 54.5134C5.34069 53.7669 5.71937 52.9295 6.47021 52.6504C7.22104 52.3712 8.06328 52.7477 8.34403 53.4942C12.9666 65.6718 30.8625 71.1114 46.6039 71.1114H46.7606C62.9786 71.0725 81.4752 65.3148 86.261 52.5335C86.5417 51.787 87.3774 51.4041 88.1348 51.6832C88.8857 51.9623 89.2709 52.7932 88.9901 53.5462C85.471 62.9455 72.3085 73.9481 46.7737 74.0065H46.5713L46.5647 74ZM55.1308 28.2239C54.7847 28.2239 54.4518 28.1005 54.1841 27.8733C53.8641 27.6007 53.6748 27.1983 53.6748 26.7763V16.0788L42.2164 13.7225V18.9414L47.1915 21.5055C47.9032 21.8755 48.1839 22.7453 47.8118 23.4528C47.4396 24.1604 46.5647 24.4395 45.8531 24.0695L40.088 21.103C39.6048 20.8563 39.3045 20.3565 39.3045 19.8177V11.9439C39.3045 11.509 39.5004 11.1 39.8399 10.8209C40.1794 10.5483 40.6234 10.4379 41.0543 10.5288L55.2156 13.4369L69.4227 12.3074L70.1736 9.15264C70.3564 8.3737 71.1399 7.89335 71.9233 8.0751C72.7068 8.25685 73.19 9.0358 73.0071 9.81475L72.0539 13.8328V24.3681C72.0539 25.0821 71.5316 25.6858 70.8265 25.7962L55.3528 28.2044C55.2809 28.2174 55.2026 28.2239 55.1308 28.2239ZM56.5867 16.2346V25.0886L69.1485 23.1347V15.2349L56.5867 16.2346Z" fill="#002C72"/>
<path d="M42.9085 50.5018C12.8033 50.5018 0.868356 37.4349 0.365623 36.8637C0.13058 36.5975 0 36.26 0 35.9095V28.7821C0 28.6003 0.0326449 28.4251 0.0979348 28.2563L1.06423 25.7767C0.770421 23.641 -0.568022 13.4563 0.437442 9.42526C0.568022 8.89947 0.979348 8.49701 1.50167 8.36719C1.86729 8.27631 10.5639 6.19912 22.8515 6.67298C24.9212 6.24456 36.7909 3.79736 39.2458 3.79736C40.0488 3.79736 40.7017 4.44649 40.7017 5.24491C40.7017 6.04333 40.0488 6.69245 39.2458 6.69245C37.5482 6.69245 28.7602 8.39964 23.2693 9.5421C23.1518 9.56807 23.0343 9.58105 22.9102 9.57456C13.1951 9.18508 5.62799 10.4768 3.09474 10.9832C2.6116 14.7351 3.54524 22.7453 3.98921 25.7377C4.02839 25.9844 3.99574 26.2375 3.90434 26.4712L2.89887 29.0482V35.3123C5.1122 37.4414 17.6348 48.1325 44.8999 47.5807C69.2595 47.1068 84.5178 42.5954 89.0685 34.5203L88.8204 20.6616C88.8073 19.8632 89.4472 19.201 90.2502 19.1881C91.0794 19.1686 91.7192 19.8112 91.7323 20.6096L91.9869 34.8514C91.9869 35.0916 91.9347 35.3317 91.8237 35.546C86.9008 44.9453 71.1333 49.963 44.9586 50.4758C44.26 50.4888 43.5745 50.4953 42.8955 50.4953L42.9085 50.5018ZM56.8871 12.9889C43.9466 12.9889 43.2937 9.41228 43.2937 8.69175C43.2937 7.97122 43.9466 4.40105 56.8871 4.40105C69.8275 4.40105 70.4804 7.97771 70.4804 8.69175C70.4804 11.0675 66.7916 11.8919 65.5837 12.1646C64.8002 12.3333 64.0233 11.8465 63.847 11.0675C63.6707 10.2886 64.1604 9.51614 64.9504 9.34087C65.995 9.10719 66.661 8.8735 67.0723 8.68526C65.6751 8.06859 62.169 7.28964 56.9001 7.28964C51.6313 7.28964 48.1056 8.07508 46.7149 8.69175C48.1056 9.30842 51.6182 10.0939 56.9001 10.0939C58.6107 10.0939 60.2626 10.0095 61.8165 9.8407C62.613 9.75631 63.3312 10.3275 63.4226 11.1195C63.5075 11.9114 62.9329 12.6254 62.1364 12.7163C60.4846 12.8981 58.7217 12.9825 56.9067 12.9825L56.8871 12.9889Z" fill="#002C72"/>
<path d="M43.3721 43.8807C42.1446 43.8807 40.9433 43.8612 39.7616 43.8223C38.9585 43.7963 38.3252 43.1277 38.3513 42.3293C38.3774 41.5309 39.0564 40.8882 39.853 40.9272C41.6223 40.9791 43.457 40.9921 45.3243 40.9661C60.7392 40.7065 72.4196 39.0772 80.0454 36.1107C80.7897 35.8186 81.6385 36.1886 81.9323 36.9351C82.2261 37.6816 81.854 38.5189 81.1097 38.8111C73.1574 41.9009 61.1375 43.6016 45.3765 43.8612C44.7105 43.8742 44.0381 43.8742 43.3786 43.8742L43.3721 43.8807Z" fill="#002C72"/>
<path d="M49.2221 32.6768C37.3524 32.6768 24.5621 31.1838 13.0906 27.5747C12.3267 27.3346 11.9024 26.5231 12.1439 25.7572C12.3855 24.9977 13.2016 24.5693 13.972 24.816C46.062 34.9098 84.805 27.4644 88.5658 21.0056C88.8726 20.4798 88.9118 19.9735 88.6963 19.3633C87.5668 16.1631 80.0977 12.2554 75.6514 10.5417C74.9006 10.2496 74.5284 9.41227 74.8222 8.67227C75.1095 7.92578 75.9517 7.55578 76.7026 7.84788C77.4795 8.14648 81.8409 9.87315 85.6603 12.3788V6.69894C78.4001 2.97297 63.7817 7.43244 63.625 7.48437C62.8611 7.72455 62.045 7.29613 61.8034 6.53665C61.5619 5.77718 61.9928 4.96578 62.7567 4.7256C63.4487 4.51139 79.7777 -0.467381 87.8933 4.64771C88.3111 4.91385 88.5723 5.37472 88.5723 5.86806V14.2677C88.5723 14.3651 88.5592 14.4624 88.5462 14.5598C89.8977 15.7607 90.9619 17.0589 91.445 18.4221C91.9412 19.8177 91.8172 21.2198 91.0859 22.4726C87.7692 28.1784 69.8863 32.6963 49.2286 32.6963L49.2221 32.6768ZM30.7646 7.89332C30.0007 7.89332 29.3609 7.30262 29.3152 6.53665L29.0475 2.34981C28.9952 1.56437 29.5894 0.876303 30.3859 0.817882L40.7278 -1.25002e-05C41.1849 -0.0389599 41.6354 0.149286 41.9422 0.493321L44.3775 3.28455C50.5801 3.63508 53.2309 4.4335 53.3419 4.47244C54.1123 4.71262 54.5367 5.51753 54.3016 6.2835C54.0666 7.04297 53.2504 7.47139 52.4866 7.23771C52.4409 7.22472 49.7966 6.45227 43.6137 6.14718C43.2154 6.12771 42.8498 5.94595 42.5886 5.65385L40.2316 2.9535L32.0443 3.59613L32.2206 6.36139C32.2728 7.15981 31.6591 7.84788 30.8625 7.89332C30.8299 7.89332 30.7972 7.89332 30.7711 7.89332H30.7646Z" fill="#002C72"/>
</g>
<defs>
<clipPath id="clip0_1145_70">
<rect width="92" height="74" fill="white"/>
</clipPath>
</defs>
</svg>
