<svg width="69" height="68" viewBox="0 0 69 68" fill="none" xmlns="http://www.w3.org/2000/svg">
<g clip-path="url(#clip0_1147_120)">
<path d="M66.306 67.8873H66.2965C66.2965 67.8873 66.2206 67.8873 66.1922 67.8873H3.86073C2.24813 67.8873 1.49875 67.0516 1.18572 66.554C0.796801 65.9155 0.711428 65.2207 0.701942 64.7418C0.701942 64.6573 0.701942 64.5916 0.701942 64.5352V58.7981C0.701942 58.7981 0.61657 58.7793 0.569141 58.7606L0.474282 58.723C0.34148 58.6667 0.237136 58.5634 0.180221 58.4319L0.142278 58.338C0.11382 58.2723 0.0948486 58.1972 0.0948486 58.1315V54.9484C0.0948486 54.8732 0.11382 54.8075 0.132792 54.7418L0.170735 54.6479C0.22765 54.5164 0.331995 54.4038 0.474282 54.3568L0.569141 54.3192C0.626056 54.2911 0.692457 54.2817 0.758857 54.2817V47.6808C0.692457 47.6808 0.626056 47.662 0.559655 47.6432L0.464796 47.6056C0.331995 47.5493 0.22765 47.446 0.170735 47.3146L0.132792 47.2207C0.104334 47.1549 0.0948486 47.0798 0.0948486 47.0141V43.8967C0.0948486 43.8216 0.11382 43.7559 0.132792 43.6901L0.170735 43.5962C0.22765 43.4648 0.331995 43.3521 0.474282 43.3052L0.569141 43.2676C0.635541 43.2394 0.701942 43.23 0.777829 43.23H0.825258V36.5634H0.777829C0.701942 36.5634 0.635541 36.5446 0.569141 36.5258L0.474282 36.4883C0.34148 36.4319 0.237136 36.3286 0.180221 36.1972L0.142278 36.1033C0.11382 36.0376 0.104334 35.9624 0.104334 35.8967V32.8451C0.104334 32.77 0.123306 32.7042 0.142278 32.6385L0.180221 32.5446C0.237136 32.4131 0.34148 32.3099 0.474282 32.2535L0.569141 32.216C0.635541 32.1878 0.701942 32.1784 0.777829 32.1784H0.825258V25.6432H0.777829C0.701942 25.6432 0.635541 25.6244 0.569141 25.6056L0.474282 25.5681C0.34148 25.5117 0.237136 25.4085 0.180221 25.277L0.142278 25.1831C0.11382 25.1174 0.104334 25.0423 0.104334 24.9765V21.9531C0.104334 21.8779 0.123306 21.8122 0.142278 21.7465L0.180221 21.6526C0.237136 21.5211 0.34148 21.4178 0.474282 21.3615L0.569141 21.3239C0.635541 21.2958 0.701942 21.2864 0.768343 21.2864V13.5869C0.768343 12.3944 1.29006 11.3803 2.23865 10.7418C2.55168 10.5352 2.85523 10.3944 3.11135 10.3005V3.70892C3.11135 3.22066 3.38644 2.78873 3.8797 2.50704C4.17376 2.33803 4.55319 2.20657 5.03697 2.11268C5.33103 2.05634 5.61561 2.01878 5.86224 2V1.71831C5.86224 1.39906 6.08041 1.12676 6.39345 1.06103L10.5672 0.131455C10.6431 0.112676 10.7285 0.112676 10.8138 0.131455L10.9277 0.159624C11.0889 0.197183 11.2312 0.300469 11.2976 0.450704L11.3451 0.55399C11.383 0.629108 11.402 0.704225 11.402 0.788732V1.04225H13.5173V0.788732C13.5173 0.713615 13.5363 0.647887 13.5553 0.582159L13.5932 0.488263C13.6501 0.356807 13.7545 0.253521 13.8873 0.197183L13.9821 0.159624C14.0485 0.131455 14.1244 0.122065 14.1908 0.122065H15.1963C15.2722 0.122065 15.3386 0.140845 15.405 0.159624L15.4999 0.197183C15.6327 0.253521 15.7465 0.356807 15.7939 0.497652L15.8319 0.591549C15.8603 0.657277 15.8698 0.723004 15.8698 0.798122V1.05164H17.9851V0.798122C17.9851 0.713615 18.0041 0.638497 18.0421 0.56338L18.0895 0.460094C18.1654 0.309859 18.2982 0.206572 18.4594 0.169014L18.5733 0.140845C18.6492 0.122065 18.7345 0.122065 18.8199 0.140845L22.5668 0.938967C22.8798 1.00469 23.1075 1.28638 23.1075 1.60563V2.07512C24.0087 2.13146 24.7106 2.30986 25.1944 2.60094C25.3272 2.67606 25.4315 2.76056 25.5264 2.84507C26.6267 2.58216 29.6053 2.04695 35.4201 2.04695C42.3732 2.04695 47.5525 3.53991 48.5106 3.84038C49.924 3.81221 62.2366 3.55869 64.978 3.55869H64.9875C66.3914 3.55869 67.1218 4.12207 67.4823 4.60094C67.8332 5.07042 68.0229 5.68075 68.0229 6.3662C68.0229 6.61033 67.9945 6.8169 67.9755 6.94836V21.2394H68.1842C68.2601 21.2394 68.3265 21.2582 68.3929 21.277L68.4878 21.3146C68.6206 21.3709 68.7249 21.4742 68.7818 21.6056L68.8198 21.6995C68.8482 21.7653 68.8577 21.8404 68.8577 21.9061V24.8638C68.8577 24.939 68.8387 25.0047 68.8198 25.0704L68.7818 25.1643C68.7249 25.2958 68.6206 25.4085 68.4783 25.4554L68.3834 25.493C68.317 25.5211 68.2506 25.5305 68.1747 25.5305H68.0988V32.1315H68.1747C68.2411 32.1315 68.317 32.1502 68.3834 32.169L68.4783 32.2066C68.6111 32.2629 68.7249 32.3662 68.7818 32.4977L68.8198 32.5915C68.8482 32.6573 68.8577 32.7324 68.8577 32.7981V35.8498C68.8577 35.9249 68.8387 35.9906 68.8198 36.0563L68.7818 36.1502C68.7249 36.2817 68.6206 36.385 68.4878 36.4413L68.3929 36.4789C68.3265 36.507 68.2506 36.5164 68.1842 36.5164H68.1083V43.1831H68.1842C68.2506 43.1831 68.3265 43.2019 68.3929 43.2207L68.4878 43.2582C68.6206 43.3146 68.7344 43.4178 68.7913 43.5493L68.8292 43.6432C68.8577 43.7089 68.8672 43.784 68.8672 43.8498V46.9202C68.8672 46.9953 68.8482 47.061 68.8292 47.1268L68.7913 47.2207C68.7344 47.3521 68.63 47.4554 68.4972 47.5117L68.4024 47.5493C68.336 47.5775 68.2601 47.5869 68.1937 47.5869H68.1178V54.2347H68.1937C68.2601 54.2347 68.336 54.2535 68.4024 54.2723L68.4972 54.3099C68.63 54.3662 68.7439 54.4695 68.8008 54.6009L68.8387 54.6948C68.8672 54.7606 68.8767 54.8357 68.8767 54.9014V58.0188C68.8767 58.0939 68.8577 58.1596 68.8387 58.2254L68.8008 58.3193C68.7439 58.4507 68.6395 58.5634 68.4972 58.6103L68.4024 58.6479C68.4024 58.6479 68.3644 58.6667 68.3455 58.6667V64.7793C68.3455 65.9061 68.0894 66.7418 67.5866 67.2582C67.1028 67.7653 66.5432 67.8216 66.306 67.8216V67.8873ZM66.2301 66.5258C66.2301 66.5258 66.2965 66.5258 66.3155 66.5258C66.3629 66.5258 66.4768 66.507 66.6001 66.385C66.7424 66.2347 66.9795 65.8404 66.9795 64.8357V58.0657C66.9795 58 66.9985 57.9249 67.0175 57.8592L67.0554 57.7653C67.1123 57.6338 67.2167 57.5211 67.3589 57.4648L67.4538 57.4272C67.4538 57.4272 67.4917 57.4085 67.5107 57.4085V55.6244H67.4348C67.3589 55.6244 67.2925 55.6056 67.2261 55.5869L67.1313 55.5493C66.9985 55.493 66.8941 55.3897 66.8372 55.2582L66.7993 55.1643C66.7708 55.0986 66.7613 55.0235 66.7613 54.9577V46.9577C66.7613 46.8826 66.7803 46.8169 66.7993 46.7512L66.8372 46.6573C66.8941 46.5258 66.9985 46.4131 67.1408 46.3662L67.2356 46.3286C67.302 46.3005 67.3684 46.2911 67.4443 46.2911H67.5202V44.5728H67.4443C67.3684 44.5728 67.302 44.554 67.2356 44.5352L67.1408 44.4977C67.008 44.4413 66.9036 44.338 66.8467 44.2066L66.8088 44.1127C66.7803 44.0469 66.7708 43.9718 66.7708 43.9061V35.8873C66.7708 35.8122 66.7898 35.7465 66.8088 35.6808L66.8467 35.5869C66.9036 35.4554 67.008 35.3521 67.1408 35.2958L67.2356 35.2582C67.302 35.23 67.3779 35.2207 67.4443 35.2207H67.5202V33.5305H67.4443C67.3684 33.5305 67.302 33.5117 67.2356 33.493L67.1408 33.4554C67.008 33.3991 66.8941 33.2958 66.8372 33.1643L66.7993 33.0704C66.7708 33.0047 66.7613 32.9296 66.7613 32.8638V24.9108C66.7613 24.8357 66.7803 24.77 66.7993 24.7042L66.8372 24.6103C66.8941 24.4789 66.9985 24.3756 67.1313 24.3192L67.2261 24.2817C67.2925 24.2535 67.3589 24.2441 67.4348 24.2441H67.5107V22.6385H67.302C67.2261 22.6385 67.1597 22.6197 67.0933 22.6009L66.9985 22.5634C66.8657 22.507 66.7518 22.4038 66.7044 22.2629L66.6665 22.169C66.638 22.1033 66.6285 22.0376 66.6285 21.9624V6.87324C66.6285 6.87324 66.6285 6.80751 66.6285 6.78873L66.657 6.62911C66.657 6.57277 66.676 6.46948 66.676 6.34742C66.676 6.12207 66.638 5.70892 66.4104 5.40845C66.1448 5.07042 65.6894 4.90141 64.9875 4.90141C62.6445 4.90141 53.3958 5.0892 50.6164 5.14554L48.4442 5.19249C48.4442 5.19249 48.4157 5.19249 48.4062 5.19249C48.3778 5.19249 48.3493 5.19249 48.3209 5.19249C48.2829 5.19249 48.226 5.17371 48.207 5.16432C48.207 5.16432 48.1217 5.13615 47.9699 5.0892C47.8086 5.04225 47.5715 4.97653 47.2679 4.89202C46.7083 4.74178 45.7881 4.51643 44.6024 4.29108C42.525 3.88732 39.2429 3.40845 35.4296 3.40845C28.8844 3.40845 26.0671 4.10329 25.5643 4.24413L25.4695 4.2723C25.3936 4.30047 25.3177 4.30986 25.2418 4.30047H25.128C24.9667 4.2723 24.8149 4.1784 24.7296 4.04695L24.6821 3.98122C24.6821 3.98122 24.6347 3.9061 24.6157 3.86854C24.6157 3.86854 24.6157 3.86854 24.6157 3.85915V3.83099C24.6157 3.83099 24.5683 3.80282 24.5019 3.76526C24.3312 3.66197 23.7905 3.41784 22.453 3.41784C22.3866 3.41784 22.3107 3.39906 22.2443 3.38028L22.1494 3.34272C22.0166 3.28638 21.9028 3.1831 21.8459 3.05164L21.8079 2.95775C21.7795 2.89202 21.77 2.8169 21.77 2.75117V2.16901L19.389 1.66197V1.75587C19.389 1.8216 19.3701 1.89671 19.3511 1.96244L19.3132 2.05634C19.2562 2.18779 19.1519 2.30047 19.0191 2.35681L18.9242 2.39437C18.8578 2.42253 18.782 2.43192 18.7156 2.43192H15.2342C15.1584 2.43192 15.092 2.41315 15.0256 2.39437L14.9307 2.35681C14.8548 2.32864 14.7884 2.28169 14.7315 2.21596C14.6746 2.2723 14.6082 2.31925 14.5323 2.35681L14.4374 2.39437C14.371 2.42253 14.2952 2.43192 14.2288 2.43192H10.7474C10.6716 2.43192 10.6052 2.41315 10.5388 2.39437L10.4439 2.35681C10.3111 2.30047 10.2068 2.19718 10.1498 2.06573L10.1119 1.97183C10.0834 1.9061 10.074 1.83099 10.074 1.76526V1.68075L7.2946 2.30047V2.68545C7.2946 2.76056 7.27563 2.82629 7.25666 2.89202L7.21871 2.98592C7.1618 3.11737 7.05746 3.22066 6.92465 3.277L6.82979 3.31455C6.76339 3.34272 6.68751 3.35211 6.62111 3.35211C6.62111 3.35211 6.53573 3.35211 6.39345 3.35211C6.25116 3.35211 6.05196 3.37089 5.83378 3.39906C5.32155 3.4554 4.87571 3.56807 4.65754 3.69953C4.57217 3.74648 4.55319 3.77465 4.55319 3.78404L4.57217 10.7606C4.57217 11.0892 4.33502 11.3709 4.00301 11.4272H3.9461C3.9461 11.4272 3.83227 11.4742 3.7469 11.5023C3.58564 11.5587 3.34849 11.6526 3.10186 11.8216C2.51374 12.2254 2.22916 12.7887 2.22916 13.5493V21.9249C2.22916 21.9906 2.21019 22.0657 2.19122 22.1315L2.15328 22.2254C2.09636 22.3568 1.99202 22.4695 1.85921 22.5258L1.76436 22.5634C1.69796 22.5916 1.63155 22.6009 1.56515 22.6009V24.2723H1.62207C1.69796 24.2723 1.76436 24.2911 1.83076 24.3099L1.92562 24.3474C2.05842 24.4038 2.16276 24.507 2.21968 24.6385L2.25762 24.7324C2.28608 24.7981 2.29556 24.8732 2.29556 24.939V32.8263C2.29556 32.9014 2.27659 32.9671 2.25762 33.0329L2.21968 33.1268C2.16276 33.2582 2.05842 33.3709 1.91613 33.4178L1.82127 33.4554C1.75487 33.4836 1.68847 33.493 1.61258 33.493H1.55567V35.1831H1.61258C1.68847 35.1831 1.75487 35.2019 1.82127 35.2207L1.91613 35.2582C2.04893 35.3146 2.15328 35.4178 2.21019 35.5493L2.24813 35.6432C2.27659 35.7089 2.29556 35.784 2.29556 35.8498V43.8685C2.29556 43.9437 2.27659 44.0094 2.25762 44.0751L2.21968 44.169C2.16276 44.3005 2.05842 44.4038 1.92562 44.4601L1.83076 44.4977C1.76436 44.5258 1.68847 44.5352 1.62207 44.5352H1.56515V46.3005C1.63155 46.3005 1.69796 46.3192 1.75487 46.338L1.84973 46.3756C1.98253 46.4319 2.09636 46.5352 2.15328 46.6761L2.19122 46.77C2.21968 46.8357 2.22916 46.9014 2.22916 46.9765V54.9296C2.22916 55.0047 2.21019 55.0704 2.19122 55.1362L2.15328 55.23C2.09636 55.3615 1.99202 55.4648 1.85921 55.5211L1.76436 55.5587C1.69796 55.5869 1.63155 55.5962 1.56515 55.5962V57.4272C1.56515 57.4272 1.65053 57.446 1.68847 57.4648L1.78333 57.5023C1.91613 57.5587 2.02047 57.662 2.07739 57.7934L2.11533 57.8873C2.14379 57.9531 2.15328 58.0282 2.15328 58.0939V64.5164C2.15328 64.5164 2.15328 64.5634 2.15328 64.5822V64.7042C2.15328 64.8545 2.16276 65.3897 2.42837 65.8028C2.6086 66.0939 2.96906 66.4789 3.9461 66.4883H66.287L66.2301 66.5258Z" fill="white"/>
<path d="M66.306 68H66.2965C66.2965 68 66.2206 68 66.1922 68H3.87971C2.18174 68 1.4039 67.1362 1.09087 66.6104C0.68298 65.9531 0.597608 65.2301 0.597608 64.7418C0.597608 64.6573 0.597608 64.5822 0.597608 64.5352V58.9014C0.597608 58.9014 0.559665 58.892 0.540693 58.8827L0.445834 58.8451C0.284575 58.7794 0.151773 58.6479 0.0853726 58.4883L0.0474292 58.3944C0.00948584 58.3099 0 58.2254 0 58.1409V54.9578C0 54.8733 0.0189717 54.7888 0.0474292 54.7043L0.0853726 54.6104C0.151773 54.4507 0.284575 54.3193 0.445834 54.2535L0.540693 54.216C0.540693 54.216 0.61658 54.1878 0.664009 54.1784V47.7841C0.664009 47.7841 0.578636 47.7653 0.540693 47.7465L0.445834 47.709C0.284575 47.6432 0.151773 47.5118 0.0853726 47.3521L0.0474292 47.2582C0.00948584 47.1737 0 47.0892 0 47.0047V43.8874C0 43.8028 0.0189717 43.7183 0.0474292 43.6338L0.0853726 43.5399C0.151773 43.3803 0.284575 43.2489 0.445834 43.1831L0.540693 43.1456C0.597608 43.1174 0.664009 43.108 0.73041 43.0986V36.6573C0.664009 36.6573 0.607094 36.6385 0.540693 36.6104L0.445834 36.5728C0.284575 36.5071 0.151773 36.3756 0.0853726 36.216L0.0474292 36.1221C0.00948584 36.047 0 35.9531 0 35.8686V32.8169C0 32.7324 0.0189717 32.6385 0.0474292 32.5634L0.0853726 32.4695C0.151773 32.3099 0.284575 32.1784 0.445834 32.1127L0.540693 32.0751C0.597608 32.047 0.664009 32.0376 0.73041 32.0282V25.7277C0.664009 25.7277 0.607094 25.709 0.540693 25.6808L0.445834 25.6432C0.284575 25.5775 0.151773 25.446 0.0853726 25.2864L0.0474292 25.1925C0.00948584 25.108 0 25.0235 0 24.939V21.9155C0 21.831 0.0189717 21.7371 0.0474292 21.662L0.0853726 21.5681C0.151773 21.4085 0.284575 21.277 0.445834 21.2113L0.540693 21.1737C0.540693 21.1737 0.626065 21.1456 0.664009 21.1362V13.5399C0.664009 12.3005 1.2047 11.2582 2.19123 10.5916C2.43786 10.4226 2.71295 10.2817 3.0165 10.1597V3.70895C3.0165 3.17374 3.31056 2.71364 3.85125 2.40378C4.1548 2.22538 4.54372 2.09392 5.03698 2.00003C5.26464 1.96247 5.50179 1.92491 5.75791 1.89674V1.71834C5.75791 1.34275 6.01402 1.0235 6.38397 0.938995L10.5388 0.0188074C10.6336 2.80815e-05 10.738 2.80815e-05 10.8328 0.0188074L10.9467 0.0469764C11.1459 0.0939248 11.3071 0.22538 11.402 0.403784L11.4494 0.50707C11.4968 0.591577 11.5158 0.694864 11.5158 0.78876V0.920216H13.394V0.78876C13.394 0.704253 13.413 0.610357 13.4414 0.535239L13.4794 0.441343C13.5458 0.281718 13.6786 0.150263 13.8398 0.0845351L13.9347 0.0469764C14.0106 0.00941776 14.096 2.80819e-05 14.1908 2.80819e-05H15.1963C15.2817 2.80819e-05 15.3671 0.0188074 15.4524 0.0469764L15.5473 0.0845351C15.7085 0.150263 15.8414 0.281718 15.9078 0.441343L15.9457 0.535239C15.9836 0.619746 15.9931 0.704253 15.9931 0.78876V0.920216H17.8713V0.78876C17.8713 0.694864 17.8903 0.591577 17.9377 0.50707L17.9852 0.403784C18.0705 0.22538 18.2318 0.0939248 18.431 0.0469764L18.5448 0.0188074C18.6397 -0.00936159 18.744 -0.00936159 18.8389 0.0188074L22.5858 0.81693C22.9557 0.892047 23.2213 1.22069 23.2213 1.59627V1.95308C24.094 2.01881 24.7675 2.19721 25.2513 2.48829C25.3556 2.55402 25.46 2.62914 25.5549 2.70425C26.6268 2.46012 29.6338 1.91552 35.4201 1.91552C42.3353 1.91552 47.5146 3.3897 48.5296 3.69956H48.5675C51.7832 3.63383 62.4737 3.41787 64.978 3.41787C66.4483 3.41787 67.2072 4.00942 67.5866 4.50707C67.9566 4.99533 68.1558 5.62444 68.1558 6.33806C68.1558 6.61036 68.1273 6.83571 68.1083 6.94839V21.0986H68.1937C68.2791 21.0986 68.3644 21.1174 68.4498 21.1456L68.5447 21.1831C68.7059 21.2489 68.8387 21.3803 68.9051 21.5399L68.9431 21.6338C68.981 21.709 68.9905 21.8028 68.9905 21.8874V24.8451C68.9905 24.9296 68.9715 25.0235 68.9431 25.0986L68.9051 25.1925C68.8387 25.3521 68.7059 25.4836 68.5447 25.5493L68.4498 25.5869C68.3834 25.6151 68.317 25.6338 68.2411 25.6338V32C68.3075 32 68.3834 32.0188 68.4498 32.047L68.5447 32.0845C68.7059 32.1503 68.8387 32.2817 68.9051 32.4413L68.9431 32.5352C68.981 32.6197 68.9905 32.7043 68.9905 32.7888V35.8404C68.9905 35.9249 68.9715 36.0094 68.9431 36.0939L68.9051 36.1878C68.8387 36.3474 68.7059 36.4789 68.5447 36.5446L68.4498 36.5822C68.3834 36.6104 68.317 36.6291 68.2411 36.6291V43.0611C68.3075 43.0611 68.3834 43.0798 68.4498 43.108L68.5447 43.1456C68.7154 43.2113 68.8387 43.3428 68.9051 43.5024L68.9431 43.5963C68.981 43.6714 68.9905 43.7559 68.9905 43.8498V46.9202C68.9905 47.0047 68.9715 47.0986 68.9431 47.1737L68.9051 47.2676C68.8387 47.4273 68.7059 47.5587 68.5447 47.6244L68.4498 47.662C68.3834 47.6902 68.317 47.709 68.2411 47.709V54.1221C68.3075 54.1221 68.3834 54.1409 68.4498 54.169L68.5447 54.2066C68.7059 54.2723 68.8387 54.4038 68.9051 54.5634L68.9431 54.6573C68.981 54.7324 68.9905 54.8263 68.9905 54.9108V58.0282C68.9905 58.1127 68.9715 58.1972 68.9431 58.2817L68.9051 58.3756C68.8387 58.5352 68.7059 58.6667 68.5447 58.7324L68.4688 58.7606V64.7888C68.4688 65.9437 68.2032 66.8075 67.6815 67.3521C67.1597 67.8968 66.5527 67.9531 66.3155 67.9531L66.306 68ZM0.806296 43.324C0.749381 43.324 0.692466 43.3334 0.645037 43.3521L0.550179 43.3897C0.445834 43.4273 0.360462 43.5212 0.313033 43.6244L0.275089 43.7183C0.256118 43.7653 0.246632 43.8216 0.246632 43.878V46.9953C0.246632 47.0517 0.256118 47.108 0.275089 47.155L0.313033 47.2489C0.360462 47.3521 0.436349 47.4366 0.540693 47.4836L0.635551 47.5212C0.635551 47.5212 0.739895 47.5493 0.787325 47.5493H0.901155V54.3756H0.787325C0.73041 54.3756 0.68298 54.3944 0.635551 54.4132L0.540693 54.4507C0.436349 54.4883 0.350976 54.5728 0.303547 54.6855L0.265604 54.7794C0.246632 54.8263 0.237146 54.8827 0.237146 54.939V58.1221C0.237146 58.1784 0.246632 58.2348 0.275089 58.2911L0.313033 58.385C0.360462 58.4883 0.436349 58.5728 0.540693 58.6104L0.635551 58.6479C0.635551 58.6479 0.701952 58.6667 0.739895 58.6761L0.84424 58.6949V64.5352C0.84424 64.5916 0.84424 64.6573 0.84424 64.7324C0.84424 65.1925 0.929612 65.8686 1.30905 66.4789C1.60311 66.9578 2.31454 67.7559 3.87971 67.7559H66.2112C66.2112 67.7559 66.2776 67.7559 66.3155 67.7559H66.325C66.5337 67.7559 67.0554 67.709 67.5107 67.2301C67.9945 66.7324 68.2411 65.9249 68.2411 64.8263V58.6197L68.336 58.601C68.336 58.601 68.3644 58.601 68.3739 58.5916L68.4688 58.554C68.5731 58.5071 68.6585 58.432 68.7059 58.3193L68.7439 58.2254C68.7629 58.1784 68.7723 58.1221 68.7723 58.0658V54.9484C68.7723 54.892 68.7629 54.8357 68.7439 54.7888L68.7059 54.6949C68.6585 54.5916 68.5731 54.5071 68.4688 54.4601L68.3739 54.4226C68.317 54.4038 68.2696 54.385 68.2127 54.385H68.023V47.5024H68.2127C68.2696 47.5024 68.3265 47.493 68.3739 47.4742L68.4688 47.4366C68.5731 47.3897 68.6585 47.3146 68.7059 47.2019L68.7439 47.108C68.7629 47.0611 68.7723 47.0047 68.7723 46.9484V43.878C68.7723 43.8216 68.7629 43.7653 68.7439 43.7183L68.7059 43.6244C68.6585 43.5212 68.5731 43.4366 68.4688 43.3897L68.3739 43.3521C68.3265 43.3334 68.2696 43.324 68.2127 43.324H68.023V36.4226H68.2127C68.2696 36.4226 68.3265 36.4132 68.3739 36.3944L68.4688 36.3568C68.5731 36.3099 68.6585 36.2348 68.7059 36.1221L68.7439 36.0282C68.7629 35.9812 68.7723 35.9249 68.7723 35.8686V32.8169C68.7723 32.7606 68.7629 32.7043 68.7439 32.6573L68.7059 32.5634C68.6585 32.4601 68.5731 32.3756 68.4688 32.3287L68.3739 32.2911C68.3265 32.2723 68.2696 32.2629 68.2127 32.2629H68.023V25.4273H68.2127C68.2696 25.4273 68.3265 25.4179 68.3739 25.3991L68.4688 25.3615C68.5731 25.3146 68.6585 25.2395 68.7059 25.1268L68.7439 25.0329C68.7629 24.9859 68.7723 24.9296 68.7723 24.8733V21.9155C68.7723 21.8592 68.7629 21.8028 68.7439 21.7559L68.7059 21.662C68.6585 21.5587 68.5826 21.4742 68.4688 21.4273L68.3739 21.3897C68.3265 21.3709 68.2696 21.3615 68.2127 21.3615H67.8902V6.92961C67.9091 6.80754 67.9376 6.60097 67.9376 6.34745C67.9376 5.69017 67.7574 5.09862 67.4159 4.65731C67.0744 4.2066 66.3724 3.662 65.0159 3.662C62.5022 3.662 51.8117 3.87796 48.596 3.94369H48.5201H48.5011C47.5335 3.64322 42.3638 2.15965 35.4486 2.15965C29.5768 2.15965 26.5888 2.71364 25.5833 2.94839L25.5169 2.96716L25.4695 2.92022C25.3746 2.83571 25.2703 2.7512 25.1564 2.68547C24.6916 2.40378 24.0087 2.23477 23.1265 2.17843H23.0126V1.59627C23.0126 1.33336 22.8229 1.09862 22.5668 1.05167L18.8199 0.253549C18.7535 0.24416 18.6966 0.24416 18.6302 0.253549L18.5164 0.281718C18.393 0.309887 18.2887 0.394394 18.2318 0.51646L18.1844 0.619746C18.1559 0.676084 18.1464 0.741812 18.1464 0.79815V1.16435H15.7939V0.79815C15.7939 0.741812 15.7844 0.685474 15.756 0.638526L15.718 0.544629C15.6706 0.441343 15.5947 0.356836 15.4809 0.309887L15.386 0.272329C15.3386 0.253549 15.2817 0.24416 15.2248 0.24416H14.2193C14.1624 0.24416 14.1054 0.253549 14.058 0.281718L13.9632 0.319277C13.8588 0.366225 13.7734 0.441343 13.7355 0.544629L13.6976 0.638526C13.6786 0.685474 13.6596 0.741812 13.6596 0.79815V1.16435H11.3071V0.79815C11.3071 0.732422 11.2881 0.666695 11.2692 0.610357L11.2217 0.50707C11.1648 0.394394 11.0605 0.309887 10.9277 0.281718L10.8139 0.253549C10.7475 0.23477 10.6905 0.23477 10.6241 0.253549L6.46934 1.18313C6.21322 1.23946 6.03299 1.46482 6.03299 1.72773V2.12209H5.92865C5.64407 2.15965 5.36899 2.19721 5.12235 2.24416C4.65755 2.33806 4.2876 2.46012 4.00302 2.61975C3.5477 2.88266 3.29159 3.27702 3.29159 3.71834V10.3193L3.2157 10.3474C2.91215 10.4601 2.62758 10.601 2.37146 10.7794C1.45133 11.3991 0.948584 12.3756 0.948584 13.5305V21.3428H0.834754C0.787325 21.3428 0.73041 21.3615 0.68298 21.3803L0.588122 21.4179C0.483778 21.4648 0.398405 21.5399 0.360462 21.6526L0.322519 21.7465C0.303547 21.7935 0.294061 21.8498 0.294061 21.9061V24.9296C0.294061 24.9859 0.303547 25.0423 0.322519 25.0892L0.360462 25.1831C0.407891 25.2864 0.483778 25.3709 0.588122 25.4179L0.68298 25.4554C0.739896 25.4742 0.796811 25.493 0.84424 25.493H1.01498V32.2629H0.84424C0.787325 32.2629 0.73041 32.2723 0.68298 32.2911L0.588122 32.3287C0.483778 32.3756 0.398405 32.4507 0.350976 32.5634L0.313033 32.6573C0.294061 32.7043 0.284575 32.7606 0.284575 32.8169V35.8686C0.284575 35.9249 0.294061 35.9812 0.313033 36.0282L0.350976 36.1221C0.398405 36.2254 0.474292 36.3099 0.588122 36.3568L0.68298 36.3944C0.739896 36.4132 0.796811 36.432 0.84424 36.432H1.01498V43.3334H0.84424L0.806296 43.324ZM66.325 66.6479C66.325 66.6479 66.2586 66.6479 66.2396 66.6479H3.88919C2.84575 66.6479 2.46632 66.2254 2.26712 65.9155C1.99203 65.4648 1.97305 64.9108 1.97305 64.7512V64.5634V58.1409C1.97305 58.0845 1.96357 58.0282 1.9446 57.9813L1.90665 57.8874C1.85922 57.7841 1.77385 57.6996 1.66951 57.6526L1.57465 57.6151C1.57465 57.6151 1.50825 57.5963 1.47979 57.5869L1.37545 57.5681V55.5212H1.48928C1.53671 55.5212 1.59362 55.5024 1.64105 55.4836L1.73591 55.446C1.84025 55.3991 1.92563 55.324 1.97305 55.2113L2.011 55.1174C2.02997 55.0611 2.04894 55.0047 2.04894 54.9578V47.0047C2.04894 46.9484 2.03946 46.892 2.011 46.8451L1.97305 46.7512C1.92563 46.6479 1.84974 46.5634 1.73591 46.5165L1.64105 46.4789C1.59362 46.4601 1.53671 46.4507 1.48928 46.4413H1.37545V44.4507H1.54619C1.60311 44.4507 1.66002 44.4413 1.70745 44.4226L1.80231 44.385C1.90665 44.3381 1.99203 44.2629 2.03946 44.1503L2.0774 44.0564C2.09637 44.0094 2.10586 43.9437 2.10586 43.8967V35.878C2.10586 35.8216 2.09637 35.7653 2.06791 35.7183L2.02997 35.6244C1.98254 35.5212 1.90665 35.4366 1.80231 35.3991L1.70745 35.3615C1.66002 35.3428 1.60311 35.3334 1.54619 35.3334H1.37545V33.4085H1.54619C1.60311 33.4085 1.66002 33.3991 1.70745 33.3803L1.80231 33.3428C1.90665 33.3052 1.99203 33.2207 2.03946 33.108L2.0774 33.0141C2.09637 32.9672 2.10586 32.9014 2.10586 32.8545V24.9672C2.10586 24.9108 2.09637 24.8545 2.06791 24.8075L2.02997 24.7136C1.98254 24.6104 1.90665 24.5259 1.79282 24.4789L1.69797 24.4413C1.64105 24.4226 1.58414 24.4038 1.53671 24.4038H1.36596V22.4977H1.47979C1.52722 22.4977 1.58414 22.4883 1.63156 22.4601L1.72642 22.4226C1.83077 22.3756 1.91614 22.3005 1.96357 22.1878L2.00151 22.0939C2.02048 22.0376 2.03946 21.9813 2.03946 21.9343V13.5587C2.03946 12.7512 2.343 12.1597 2.96907 11.7371C3.2157 11.5681 3.47182 11.4648 3.64256 11.4085C3.72793 11.3803 3.80382 11.3615 3.85125 11.3428L3.90817 11.324C4.19274 11.277 4.39194 11.0423 4.39194 10.77L4.37297 3.79346C4.37297 3.79346 4.37297 3.70895 4.53423 3.61505C4.77138 3.47421 5.2267 3.35214 5.75791 3.2958C5.93814 3.27702 6.12785 3.25824 6.32705 3.24885C6.46934 3.24885 6.54523 3.24885 6.55472 3.24885C6.61163 3.24885 6.66855 3.23946 6.71597 3.22069L6.81083 3.18313C6.91518 3.13618 7.00055 3.06106 7.04798 2.94839L7.08592 2.85449C7.10489 2.80754 7.11438 2.7512 7.11438 2.69486V2.21599L10.1309 1.53993V1.76529C10.1309 1.82162 10.1404 1.87796 10.1593 1.92491L10.1973 2.01881C10.2447 2.12209 10.3301 2.2066 10.4344 2.25355L10.5293 2.29111C10.5767 2.30989 10.6431 2.31928 10.6905 2.31928H14.1718C14.2288 2.31928 14.2857 2.30989 14.3331 2.28172L14.428 2.24416C14.4849 2.21599 14.5418 2.17843 14.5797 2.14087L14.6651 2.04698L14.7505 2.14087C14.7505 2.14087 14.8453 2.22538 14.9023 2.24416L14.9971 2.28172C15.0445 2.3005 15.1109 2.30989 15.1584 2.30989H18.6397C18.6966 2.30989 18.7535 2.3005 18.8009 2.27233L18.8958 2.23477C19.0001 2.18782 19.0855 2.10331 19.1329 2.00003L19.1709 1.90613C19.1899 1.84979 19.2088 1.79346 19.2088 1.74651V1.51177L21.8269 2.06576V2.74181C21.8269 2.79815 21.8364 2.85449 21.8649 2.90144L21.9028 2.99533C21.9502 3.09862 22.0356 3.18313 22.1399 3.23008L22.2348 3.26763C22.2917 3.28641 22.3486 3.30519 22.3961 3.30519C23.762 3.30519 24.3312 3.55871 24.5114 3.67139C24.5494 3.69956 24.5873 3.71834 24.6063 3.73712L24.5494 3.83101L24.6632 3.78407L24.6822 3.82162C24.6822 3.82162 24.7201 3.88735 24.7391 3.91552L24.7865 3.99064C24.8529 4.09392 24.9667 4.16904 25.0995 4.17843H25.2134C25.2798 4.19721 25.3367 4.18782 25.3936 4.17843L25.4979 4.15026C26.0007 4.00942 28.8464 3.31458 35.4012 3.31458C39.2334 3.31458 42.5155 3.79346 44.6024 4.19721C45.7787 4.42256 46.7083 4.65731 47.2774 4.80754C47.5905 4.89205 47.8276 4.95777 47.9889 5.00472C48.1501 5.05167 48.226 5.07984 48.2355 5.07984C48.245 5.07984 48.2924 5.08923 48.3304 5.09862C48.3493 5.09862 48.3778 5.09862 48.3968 5.09862H48.4347L50.5975 5.05167C53.3673 4.99533 62.6065 4.80754 64.9685 4.80754C65.6989 4.80754 66.1922 4.98594 66.4862 5.36153C66.7424 5.69956 66.7803 6.14087 66.7803 6.37562C66.7803 6.49768 66.7708 6.61036 66.7613 6.6667L66.7329 6.85449C66.7329 6.85449 66.7329 6.89205 66.7329 6.90144V21.9249C66.7329 21.9813 66.7424 22.0376 66.7613 22.0845L66.7993 22.1784C66.8467 22.2817 66.9226 22.3662 67.0364 22.4132L67.1313 22.4507C67.1787 22.4695 67.2356 22.4789 67.2925 22.4789H67.6151V24.3193H67.4253C67.3684 24.3193 67.3115 24.3287 67.2641 24.3474L67.1692 24.385C67.0649 24.432 66.9795 24.5071 66.9321 24.6197L66.8941 24.7136C66.8752 24.77 66.8562 24.8263 66.8562 24.8733V32.8263C66.8562 32.8827 66.8657 32.939 66.8847 32.9859L66.9226 33.0798C66.97 33.1831 67.0554 33.2676 67.1597 33.3146L67.2546 33.3521C67.3115 33.3709 67.3589 33.3803 67.4159 33.3803H67.6056V35.3052H67.4159C67.3589 35.3052 67.302 35.3146 67.2546 35.3428L67.1597 35.3803C67.0554 35.4273 66.97 35.5024 66.9321 35.6057L66.8941 35.6996C66.8752 35.7559 66.8562 35.8122 66.8562 35.8592V43.878C66.8562 43.9343 66.8657 43.9906 66.8847 44.0376L66.9226 44.1315C66.97 44.2348 67.0459 44.3193 67.1597 44.3662L67.2546 44.4038C67.302 44.4226 67.3589 44.432 67.4159 44.432H67.6056V46.385H67.4159C67.3589 46.385 67.302 46.3944 67.2546 46.4226L67.1597 46.4601C67.0554 46.5071 66.97 46.5822 66.9226 46.6949L66.8847 46.7888C66.8657 46.8357 66.8562 46.9014 66.8562 46.9484V54.9484C66.8562 55.0047 66.8657 55.0611 66.8941 55.108L66.9321 55.2019C66.9795 55.3052 67.0554 55.3897 67.1597 55.4273L67.2546 55.4648C67.302 55.4836 67.3589 55.493 67.4159 55.493H67.6056V57.4836L67.5202 57.5118C67.5202 57.5118 67.4823 57.5212 67.4728 57.5305L67.3779 57.5681C67.2736 57.6151 67.1882 57.6996 67.1408 57.8028L67.1028 57.8967C67.0839 57.9531 67.0649 58.0094 67.0649 58.0564V64.8263C67.0649 65.8686 66.8088 66.2911 66.657 66.4507C66.5052 66.6104 66.3534 66.6291 66.2965 66.6291L66.325 66.6479ZM1.60311 57.3709C1.60311 57.3709 1.64105 57.3803 1.66002 57.3897L1.75488 57.4273C1.91614 57.493 2.04894 57.6244 2.11534 57.7841L2.15329 57.878C2.19123 57.9531 2.20071 58.047 2.20071 58.1315V64.554C2.20071 64.554 2.20071 64.5916 2.20071 64.6104V64.7418C2.20071 64.8451 2.20071 65.3709 2.45683 65.7841C2.62758 66.047 2.9501 66.4038 3.87971 66.4132H66.2206C66.2206 66.4132 66.2965 66.4132 66.3155 66.4132C66.3155 66.4132 66.4009 66.4038 66.4957 66.3005C66.6001 66.1878 66.8467 65.831 66.8467 64.8357V58.0658C66.8467 57.9813 66.8657 57.8967 66.8941 57.8216L66.9321 57.7277C66.9985 57.5681 67.1313 57.4366 67.2925 57.3615L67.3779 57.324V55.7465C67.302 55.7465 67.2356 55.7277 67.1692 55.6996L67.0744 55.662C66.9131 55.5963 66.7803 55.4648 66.7139 55.3052L66.676 55.2113C66.638 55.1268 66.6285 55.0423 66.6285 54.9578V46.9578C66.6285 46.8733 66.6475 46.7888 66.676 46.7043L66.7139 46.6104C66.7803 46.4507 66.9131 46.3193 67.0744 46.2535L67.1692 46.216C67.2356 46.1878 67.3115 46.169 67.3779 46.169V44.6855C67.302 44.6855 67.2356 44.6667 67.1692 44.6385L67.0744 44.601C66.9131 44.5352 66.7803 44.4038 66.7139 44.2442L66.676 44.1503C66.638 44.0658 66.6285 43.9813 66.6285 43.8967V35.878C66.6285 35.7935 66.6475 35.7089 66.676 35.6244L66.7139 35.5305C66.7803 35.3709 66.9131 35.2395 67.0744 35.1737L67.1692 35.1362C67.2356 35.108 67.3115 35.0892 67.3779 35.0892V33.6244C67.302 33.6244 67.2356 33.6057 67.1692 33.5775L67.0744 33.5399C66.9131 33.4742 66.7803 33.3428 66.7139 33.1831L66.676 33.0892C66.638 33.0047 66.6285 32.9202 66.6285 32.8357V24.8827C66.6285 24.7982 66.6475 24.7136 66.676 24.6291L66.7139 24.5352C66.7803 24.3756 66.9131 24.2442 67.0744 24.1784L67.1692 24.1409C67.2356 24.1127 67.3115 24.0939 67.3779 24.0939V22.723H67.2925C67.2072 22.723 67.1218 22.7043 67.0364 22.6761L66.9416 22.6385C66.7803 22.5728 66.6475 22.4413 66.5811 22.2817L66.5432 22.1878C66.5052 22.1033 66.4957 22.0188 66.4957 21.9343V6.87327C66.4957 6.87327 66.4957 6.83571 66.4957 6.80754V6.76998L66.5242 6.61036C66.5242 6.55402 66.5432 6.46012 66.5432 6.34745C66.5432 6.14087 66.5147 5.7559 66.2965 5.47421C66.0594 5.16435 65.623 5.01411 64.9685 5.01411C62.616 5.01411 53.3768 5.20191 50.607 5.25824L48.3968 5.30519C48.3968 5.30519 48.3209 5.30519 48.2924 5.2958C48.2545 5.2958 48.1881 5.27702 48.1596 5.26763C48.1406 5.26763 48.0647 5.23947 47.9319 5.19252C47.7707 5.14557 47.5335 5.07984 47.23 4.99533C46.6608 4.8451 45.7407 4.61975 44.574 4.39439C42.4966 3.99064 39.2334 3.51177 35.4201 3.51177C28.8939 3.51177 26.0861 4.19721 25.5833 4.33806L25.4885 4.36623C25.4031 4.39439 25.3082 4.40378 25.2134 4.39439H25.0995C24.9003 4.35684 24.7296 4.25355 24.6158 4.08454L24.5778 4.01881C24.5778 4.01881 24.5209 3.94369 24.5019 3.88735C24.5019 3.88735 24.464 3.84979 24.4355 3.83101C24.2743 3.72773 23.7525 3.50238 22.4435 3.50238C22.3581 3.50238 22.2728 3.4836 22.1969 3.45543L22.102 3.41787C21.9407 3.35214 21.8079 3.22069 21.7415 3.06106L21.7036 2.96716C21.6657 2.88266 21.6562 2.79815 21.6562 2.71364V2.22538L19.5124 1.77468C19.5124 1.8404 19.4934 1.90613 19.4649 1.97186L19.427 2.06576C19.3606 2.22538 19.2278 2.35684 19.0665 2.42256L18.9717 2.46012C18.8863 2.49768 18.8009 2.50707 18.7156 2.50707H15.2343C15.1489 2.50707 15.0635 2.48829 14.9781 2.46012L14.8833 2.42256C14.8264 2.40378 14.7789 2.37562 14.7315 2.33806C14.6841 2.37562 14.6367 2.40378 14.5797 2.42256L14.4849 2.46012C14.3995 2.49768 14.3141 2.50707 14.2288 2.50707H10.7475C10.6621 2.50707 10.5767 2.48829 10.4913 2.46012L10.3965 2.42256C10.2352 2.35684 10.1024 2.22538 10.036 2.06576L9.99807 1.97186C9.96962 1.91552 9.96013 1.84979 9.95065 1.78407L7.39895 2.35684V2.64792C7.39895 2.73242 7.37998 2.81693 7.35153 2.90144L7.31358 2.99533C7.24718 3.15496 7.11438 3.28641 6.95312 3.35214L6.85826 3.3897C6.78238 3.42726 6.68752 3.43665 6.60214 3.43665C6.60214 3.43665 6.51677 3.43665 6.38397 3.43665C6.18477 3.43665 6.00454 3.45543 5.82431 3.4836C5.33104 3.53993 4.89469 3.65261 4.69549 3.77468C4.67652 3.78407 4.65755 3.79346 4.64806 3.80285L4.66703 10.7324C4.66703 11.1268 4.38246 11.4554 3.99354 11.5118H3.94611C3.94611 11.5118 3.84177 11.5493 3.75639 11.5775C3.60462 11.6338 3.36747 11.7277 3.13981 11.878C2.58963 12.2535 2.31454 12.7888 2.31454 13.5118V21.8874C2.31454 21.9719 2.29557 22.0564 2.26712 22.1409L2.22917 22.2348C2.16277 22.3944 2.02997 22.5259 1.86871 22.5916L1.77385 22.6291C1.77385 22.6291 1.68848 22.6573 1.65054 22.6667V24.1221C1.71694 24.1221 1.78334 24.1409 1.84025 24.169L1.93511 24.2066C2.09637 24.2723 2.22917 24.4038 2.29557 24.5634L2.33352 24.6573C2.37146 24.7418 2.38095 24.8263 2.38095 24.9108V32.7981C2.38095 32.8827 2.36197 32.9672 2.33352 33.0517L2.29557 33.1456C2.22917 33.3052 2.09637 33.4366 1.93511 33.5024L1.84025 33.5399C1.78334 33.5681 1.71694 33.5775 1.65054 33.5869V35.0517C1.71694 35.0517 1.78334 35.0704 1.84025 35.0986L1.93511 35.1362C2.09637 35.2019 2.22917 35.3334 2.29557 35.493L2.33352 35.5869C2.37146 35.662 2.39043 35.7559 2.39043 35.8404V43.8592C2.39043 43.9437 2.37146 44.0282 2.343 44.1127L2.30506 44.2066C2.23866 44.3662 2.10586 44.4977 1.9446 44.5634L1.84974 44.601C1.79282 44.6291 1.72642 44.6385 1.66002 44.6479V46.1878C1.66002 46.1878 1.74539 46.2066 1.78334 46.2254L1.8782 46.2629C2.04894 46.3287 2.17226 46.4601 2.23866 46.6197L2.2766 46.7136C2.31454 46.7981 2.32403 46.8827 2.32403 46.9672V54.9202C2.32403 55.0047 2.30506 55.0892 2.2766 55.1737L2.23866 55.2676C2.17226 55.4273 2.03946 55.5587 1.8782 55.6244L1.78334 55.662C1.78334 55.662 1.69797 55.6902 1.66002 55.6996V57.3334L1.60311 57.3709Z" fill="white"/>
<path d="M15.2722 13.7183H1.56512C1.18569 13.7183 0.882141 13.4179 0.882141 13.0423C0.882141 12.6667 1.18569 12.3662 1.56512 12.3662H15.2722C15.6516 12.3662 15.9551 12.6667 15.9551 13.0423C15.9551 13.4179 15.6516 13.7183 15.2722 13.7183Z" fill="white"/>
<path d="M15.2722 13.8404H1.56515C1.11931 13.8404 0.75885 13.4836 0.75885 13.0423C0.75885 12.6009 1.11931 12.2441 1.56515 12.2441H15.2722C15.718 12.2441 16.0785 12.6009 16.0785 13.0423C16.0785 13.4836 15.718 13.8404 15.2722 13.8404ZM1.56515 12.4883C1.25211 12.4883 0.995996 12.7418 0.995996 13.0517C0.995996 13.3615 1.25211 13.615 1.56515 13.615H15.2722C15.5852 13.615 15.8413 13.3615 15.8413 13.0517C15.8413 12.7418 15.5852 12.4883 15.2722 12.4883H1.56515Z" fill="white"/>
<path d="M24.5303 13.7183H20.9731C20.5937 13.7183 20.2902 13.4178 20.2902 13.0423C20.2902 12.6667 20.5937 12.3662 20.9731 12.3662H24.5114C25.6971 12.3662 26.1334 11.8967 26.3516 11.5399C26.6362 11.0704 26.6457 10.5352 26.6457 10.4695V5.69014C26.6457 5.23943 26.8354 4.82629 27.1959 4.51643C27.433 4.30986 27.746 4.14084 28.1255 4.02817C28.6472 3.86854 29.1404 3.83098 29.2922 3.82159C29.3112 3.82159 29.3207 3.82159 29.3397 3.82159H38.5409C39.8405 3.82159 40.6468 4.2723 41.0926 4.64789C41.5954 5.07042 41.7756 5.50235 41.804 5.58685C41.8135 5.61502 41.823 5.64319 41.823 5.66197C41.823 5.69014 41.842 5.76526 41.842 5.79343L42.0127 10.216C42.0127 11.0798 42.2499 11.6432 42.7431 11.9624C43.1605 12.2347 43.6538 12.2535 43.8056 12.2535H43.8909H67.1407C67.5202 12.2535 67.8237 12.554 67.8237 12.9296C67.8237 13.3052 67.5202 13.6056 67.1407 13.6056H43.9573C43.9573 13.6056 43.8625 13.6056 43.8056 13.6056C43.4261 13.6056 42.6767 13.5399 41.9938 13.0986C41.3772 12.7042 40.6468 11.8873 40.6468 10.2629L40.476 6C40.476 6 40.476 6 40.476 5.99061C40.4191 5.9061 40.3337 5.79343 40.2009 5.68075C39.812 5.35211 39.2524 5.1831 38.5409 5.1831H29.3586C29.3586 5.1831 29.2922 5.1831 29.2258 5.19249C29.131 5.20188 28.9887 5.22066 28.8464 5.24882C28.5239 5.31455 28.2393 5.42723 28.1065 5.5399C28.0306 5.60563 28.0211 5.64319 28.0211 5.69953V10.4038V10.4695C28.0211 10.7606 27.9737 11.5211 27.5279 12.2441C27.1959 12.7981 26.3611 13.7183 24.5398 13.7183H24.5303Z" fill="white"/>
<path d="M24.5304 13.8404H20.9732C20.5273 13.8404 20.1669 13.4836 20.1669 13.0423C20.1669 12.6009 20.5273 12.2441 20.9732 12.2441H24.5114C25.6402 12.2441 26.0481 11.8028 26.2473 11.4742C26.5224 11.0235 26.5224 10.4789 26.5224 10.4695V5.69014C26.5224 5.21127 26.7311 4.76057 27.1105 4.43193C27.3666 4.20658 27.6797 4.03756 28.0875 3.9155C28.6282 3.74648 29.1405 3.70892 29.2828 3.70892C29.3112 3.70892 29.3207 3.70892 29.3302 3.70892H38.5315C39.8784 3.70892 40.7037 4.17841 41.159 4.56338C41.6808 5.0047 41.8705 5.46479 41.9084 5.5493C41.9179 5.57747 41.9274 5.61503 41.9369 5.6432C41.9369 5.68075 41.9558 5.76526 41.9558 5.79343L42.1266 10.216C42.1266 11.0423 42.3448 11.5681 42.8001 11.8685C43.1511 12.0939 43.5684 12.1315 43.7961 12.1408H43.872H67.1218C67.5676 12.1408 67.9281 12.4977 67.9281 12.939C67.9281 13.3803 67.5676 13.7371 67.1218 13.7371H43.9384C43.9384 13.7371 43.853 13.7371 43.7866 13.7371C43.3882 13.7371 42.6199 13.662 41.9084 13.2019C41.2729 12.7887 40.5045 11.9531 40.5045 10.2629L40.3338 6.03756C40.2579 5.93428 40.182 5.84038 40.0871 5.76526C39.7172 5.4554 39.186 5.29578 38.503 5.29578H29.3207C29.3207 5.29578 29.2543 5.29578 29.2069 5.29578C29.1405 5.29578 28.9982 5.31456 28.8369 5.35212C28.5334 5.40845 28.2678 5.51174 28.1539 5.61503C28.1065 5.65259 28.1065 5.66197 28.1065 5.69014V10.4507C28.1065 10.77 28.0591 11.5493 27.5943 12.3005C27.2433 12.8732 26.3801 13.831 24.5019 13.831L24.5304 13.8404ZM29.2828 3.83099V3.94366C29.15 3.94366 28.6662 3.98122 28.1539 4.14085C27.784 4.25352 27.4899 4.41315 27.2623 4.61033C26.9303 4.89202 26.75 5.277 26.7595 5.69014V10.4695C26.7595 10.4695 26.7595 11.0892 26.4465 11.5962C26.2093 11.9718 25.754 12.4695 24.5114 12.4789H20.9732C20.6601 12.4789 20.404 12.7324 20.404 13.0423C20.404 13.3521 20.6601 13.6056 20.9732 13.6056H24.5304C26.2947 13.6056 27.101 12.7136 27.4141 12.1878C27.8409 11.493 27.8883 10.7606 27.8883 10.4789V10.4131V5.70892C27.8883 5.62442 27.9073 5.55869 28.0117 5.46479C28.1634 5.33334 28.4575 5.21127 28.799 5.14554C28.9697 5.10798 29.1025 5.09859 29.1974 5.08921C29.2543 5.08921 29.3017 5.0892 29.3207 5.07982H38.522C39.2619 5.07982 39.85 5.25822 40.2579 5.60564C40.3812 5.70892 40.4761 5.8216 40.5614 5.94367L40.5804 5.97183V6.00939L40.7606 10.2723C40.7606 11.8592 41.4626 12.6385 42.0507 13.0141C42.7052 13.4366 43.4261 13.5024 43.7961 13.5024C43.853 13.5024 43.9004 13.5024 43.9384 13.5024H67.1313C67.4443 13.5024 67.7004 13.2488 67.7004 12.939C67.7004 12.6291 67.4443 12.3756 67.1313 12.3756H43.7961C43.5495 12.3756 43.0752 12.3286 42.6673 12.0751C42.1456 11.7277 41.8894 11.1268 41.88 10.2254L41.7092 5.80282C41.7092 5.80282 41.6997 5.71831 41.6902 5.69014C41.6902 5.67136 41.6808 5.65259 41.6713 5.62442C41.6523 5.57747 41.4816 5.15493 40.9978 4.7324C40.5709 4.3662 39.7931 3.93428 38.522 3.93428H29.3207L29.2733 3.8216L29.2828 3.83099Z" fill="white"/>
<path d="M67.6625 58.7512H54.8566C54.4772 58.7512 54.1736 58.4507 54.1736 58.0751C54.1736 57.6995 54.4772 57.3991 54.8566 57.3991H67.6625C68.0419 57.3991 68.3455 57.6995 68.3455 58.0751C68.3455 58.4507 68.0419 58.7512 67.6625 58.7512ZM50.6544 58.7512H33.3427C32.9633 58.7512 32.6597 58.4507 32.6597 58.0751C32.6597 57.6995 32.9633 57.3991 33.3427 57.3991H50.6544C51.0338 57.3991 51.3373 57.6995 51.3373 58.0751C51.3373 58.4507 51.0338 58.7512 50.6544 58.7512ZM4.41089 58.7512H0.806272C0.426838 58.7512 0.123291 58.4507 0.123291 58.0751C0.123291 57.6995 0.426838 57.3991 0.806272 57.3991H4.41089C4.79032 57.3991 5.09387 57.6995 5.09387 58.0751C5.09387 58.4507 4.79032 58.7512 4.41089 58.7512ZM67.3115 55.6338H55.0937C54.7143 55.6338 54.4108 55.3333 54.4108 54.9577C54.4108 54.5821 54.7143 54.2817 55.0937 54.2817H67.3115C67.6909 54.2817 67.9945 54.5821 67.9945 54.9577C67.9945 55.3333 67.6909 55.6338 67.3115 55.6338ZM50.5216 55.6338H33.3427C32.9633 55.6338 32.6597 55.3333 32.6597 54.9577C32.6597 54.5821 32.9633 54.2817 33.3427 54.2817H50.5216C50.901 54.2817 51.2045 54.5821 51.2045 54.9577C51.2045 55.3333 50.901 55.6338 50.5216 55.6338ZM4.41089 55.6338H0.806272C0.426838 55.6338 0.123291 55.3333 0.123291 54.9577C0.123291 54.5821 0.426838 54.2817 0.806272 54.2817H4.41089C4.79032 54.2817 5.09387 54.5821 5.09387 54.9577C5.09387 55.3333 4.79032 55.6338 4.41089 55.6338ZM67.3115 47.6714H54.885C54.5056 47.6714 54.2021 47.3709 54.2021 46.9953C54.2021 46.6197 54.5056 46.3192 54.885 46.3192H67.3115C67.6909 46.3192 67.9945 46.6197 67.9945 46.9953C67.9945 47.3709 67.6909 47.6714 67.3115 47.6714ZM50.7302 47.6714H33.3522C32.9728 47.6714 32.6692 47.3709 32.6692 46.9953C32.6692 46.6197 32.9728 46.3192 33.3522 46.3192H50.7302C51.1097 46.3192 51.4132 46.6197 51.4132 46.9953C51.4132 47.3709 51.1097 47.6714 50.7302 47.6714ZM4.42038 47.6714H0.806272C0.426838 47.6714 0.123291 47.3709 0.123291 46.9953C0.123291 46.6197 0.426838 46.3192 0.806272 46.3192H4.41089C4.79032 46.3192 5.09387 46.6197 5.09387 46.9953C5.09387 47.3709 4.79032 47.6714 4.41089 47.6714H4.42038ZM67.321 44.554H33.3522C32.9728 44.554 32.6692 44.2535 32.6692 43.8779C32.6692 43.5023 32.9728 43.2019 33.3522 43.2019H67.321C67.7004 43.2019 68.004 43.5023 68.004 43.8779C68.004 44.2535 67.7004 44.554 67.321 44.554ZM4.42038 44.554H0.806272C0.426838 44.554 0.123291 44.2535 0.123291 43.8779C0.123291 43.5023 0.426838 43.2019 0.806272 43.2019H4.41089C4.79032 43.2019 5.09387 43.5023 5.09387 43.8779C5.09387 44.2535 4.79032 44.554 4.41089 44.554H4.42038ZM67.321 36.5258H52.912C52.6748 36.5258 52.4567 36.4037 52.3334 36.216C52.21 36.4037 52.0014 36.5258 51.7547 36.5258H33.3522C32.9728 36.5258 32.6692 36.2253 32.6692 35.8498C32.6692 35.4742 32.9728 35.1737 33.3522 35.1737H51.7547C51.9919 35.1737 52.21 35.2958 52.3334 35.4836C52.4567 35.2958 52.6654 35.1737 52.912 35.1737H67.321C67.7004 35.1737 68.004 35.4742 68.004 35.8498C68.004 36.2253 67.7004 36.5258 67.321 36.5258ZM4.42038 36.5258H0.806272C0.426838 36.5258 0.123291 36.2253 0.123291 35.8498C0.123291 35.4742 0.426838 35.1737 0.806272 35.1737H4.41089C4.79032 35.1737 5.09387 35.4742 5.09387 35.8498C5.09387 36.2253 4.79032 36.5258 4.41089 36.5258H4.42038ZM67.321 22.554H33.3522C32.9728 22.554 32.6692 22.2535 32.6692 21.8779C32.6692 21.5023 32.9728 21.2019 33.3522 21.2019H67.321C67.7004 21.2019 68.004 21.5023 68.004 21.8779C68.004 22.2535 67.7004 22.554 67.321 22.554ZM4.42038 22.554H0.806272C0.426838 22.554 0.123291 22.2535 0.123291 21.8779C0.123291 21.5023 0.426838 21.2019 0.806272 21.2019H4.41089C4.79032 21.2019 5.09387 21.5023 5.09387 21.8779C5.09387 22.2535 4.79032 22.554 4.41089 22.554H4.42038ZM22.434 3.39905H6.56418C6.18474 3.39905 5.8812 3.09858 5.8812 2.72299C5.8812 2.34741 6.18474 2.04694 6.56418 2.04694H22.434C22.8134 2.04694 23.117 2.34741 23.117 2.72299C23.117 3.09858 22.8134 3.39905 22.434 3.39905Z" fill="white"/>
<path d="M67.6625 58.8638H54.8566C54.4108 58.8638 54.0503 58.507 54.0503 58.0657C54.0503 57.6244 54.4108 57.2676 54.8566 57.2676H67.6625C68.1083 57.2676 68.4688 57.6244 68.4688 58.0657C68.4688 58.507 68.1083 58.8638 67.6625 58.8638ZM54.8566 57.5117C54.5436 57.5117 54.2875 57.7652 54.2875 58.0751C54.2875 58.3849 54.5436 58.6385 54.8566 58.6385H67.6625C67.9755 58.6385 68.2317 58.3849 68.2317 58.0751C68.2317 57.7652 67.9755 57.5117 67.6625 57.5117H54.8566ZM50.6544 58.8638H33.3427C32.8969 58.8638 32.5364 58.507 32.5364 58.0657C32.5364 57.6244 32.8969 57.2676 33.3427 57.2676H50.6544C51.1002 57.2676 51.4607 57.6244 51.4607 58.0657C51.4607 58.507 51.1002 58.8638 50.6544 58.8638ZM33.3427 57.5117C33.0297 57.5117 32.7736 57.7652 32.7736 58.0751C32.7736 58.3849 33.0297 58.6385 33.3427 58.6385H50.6544C50.9674 58.6385 51.2235 58.3849 51.2235 58.0751C51.2235 57.7652 50.9674 57.5117 50.6544 57.5117H33.3427ZM4.41092 58.8638H0.806296C0.360462 58.8638 0 58.507 0 58.0657C0 57.6244 0.360462 57.2676 0.806296 57.2676H4.41092C4.85675 57.2676 5.21721 57.6244 5.21721 58.0657C5.21721 58.507 4.85675 58.8638 4.41092 58.8638ZM0.806296 57.5117C0.493264 57.5117 0.237146 57.7652 0.237146 58.0751C0.237146 58.3849 0.493264 58.6385 0.806296 58.6385H4.41092C4.72395 58.6385 4.98007 58.3849 4.98007 58.0751C4.98007 57.7652 4.72395 57.5117 4.41092 57.5117H0.806296ZM67.3115 55.7558H55.0938C54.6479 55.7558 54.2875 55.399 54.2875 54.9577C54.2875 54.5164 54.6479 54.1596 55.0938 54.1596H67.3115C67.7574 54.1596 68.1178 54.5164 68.1178 54.9577C68.1178 55.399 67.7574 55.7558 67.3115 55.7558ZM55.0938 54.4037C54.7807 54.4037 54.5246 54.6573 54.5246 54.9671C54.5246 55.277 54.7807 55.5305 55.0938 55.5305H67.3115C67.6246 55.5305 67.8807 55.277 67.8807 54.9671C67.8807 54.6573 67.6246 54.4037 67.3115 54.4037H55.0938ZM50.5216 55.7558H33.3427C32.8969 55.7558 32.5364 55.399 32.5364 54.9577C32.5364 54.5164 32.8969 54.1596 33.3427 54.1596H50.5216C50.9674 54.1596 51.3279 54.5164 51.3279 54.9577C51.3279 55.399 50.9674 55.7558 50.5216 55.7558ZM33.3427 54.4037C33.0297 54.4037 32.7736 54.6573 32.7736 54.9671C32.7736 55.277 33.0297 55.5305 33.3427 55.5305H50.5216C50.8346 55.5305 51.0907 55.277 51.0907 54.9671C51.0907 54.6573 50.8346 54.4037 50.5216 54.4037H33.3427ZM4.41092 55.7558H0.806296C0.360462 55.7558 0 55.399 0 54.9577C0 54.5164 0.360462 54.1596 0.806296 54.1596H4.41092C4.85675 54.1596 5.21721 54.5164 5.21721 54.9577C5.21721 55.399 4.85675 55.7558 4.41092 55.7558ZM0.806296 54.4037C0.493264 54.4037 0.237146 54.6573 0.237146 54.9671C0.237146 55.277 0.493264 55.5305 0.806296 55.5305H4.41092C4.72395 55.5305 4.98007 55.277 4.98007 54.9671C4.98007 54.6573 4.72395 54.4037 4.41092 54.4037H0.806296ZM67.302 47.8028H54.8756C54.4297 47.8028 54.0693 47.446 54.0693 47.0047C54.0693 46.5634 54.4297 46.2065 54.8756 46.2065H67.302C67.7479 46.2065 68.1083 46.5634 68.1083 47.0047C68.1083 47.446 67.7479 47.8028 67.302 47.8028ZM54.8756 46.4507C54.5625 46.4507 54.3064 46.7042 54.3064 47.0141C54.3064 47.3239 54.5625 47.5774 54.8756 47.5774H67.302C67.6151 47.5774 67.8712 47.3239 67.8712 47.0141C67.8712 46.7042 67.6151 46.4507 67.302 46.4507H54.8756ZM50.7208 47.8028H33.3332C32.8874 47.8028 32.5269 47.446 32.5269 47.0047C32.5269 46.5634 32.8874 46.2065 33.3332 46.2065H50.7208C51.1666 46.2065 51.5271 46.5634 51.5271 47.0047C51.5271 47.446 51.1666 47.8028 50.7208 47.8028ZM33.3332 46.4507C33.0202 46.4507 32.7641 46.7042 32.7641 47.0141C32.7641 47.3239 33.0202 47.5774 33.3332 47.5774H50.7208C51.0338 47.5774 51.2899 47.3239 51.2899 47.0141C51.2899 46.7042 51.0338 46.4507 50.7208 46.4507H33.3332ZM4.40143 47.8028H0.806296C0.360462 47.8028 0 47.446 0 47.0047C0 46.5634 0.360462 46.2065 0.806296 46.2065H4.41092C4.85675 46.2065 5.21721 46.5634 5.21721 47.0047C5.21721 47.446 4.85675 47.8028 4.41092 47.8028H4.40143ZM0.796811 46.4507C0.483778 46.4507 0.22766 46.7042 0.22766 47.0141C0.22766 47.3239 0.483778 47.5774 0.796811 47.5774H4.40143C4.71446 47.5774 4.97058 47.3239 4.97058 47.0141C4.97058 46.7042 4.71446 46.4507 4.40143 46.4507H0.806296H0.796811ZM67.302 44.6948H33.3332C32.8874 44.6948 32.5269 44.338 32.5269 43.8967C32.5269 43.4554 32.8874 43.0986 33.3332 43.0986H67.302C67.7479 43.0986 68.1083 43.4554 68.1083 43.8967C68.1083 44.338 67.7479 44.6948 67.302 44.6948ZM33.3332 43.3427C33.0202 43.3427 32.7641 43.5962 32.7641 43.9061C32.7641 44.2159 33.0202 44.4695 33.3332 44.4695H67.302C67.6151 44.4695 67.8712 44.2159 67.8712 43.9061C67.8712 43.5962 67.6151 43.3427 67.302 43.3427H33.3332ZM4.40143 44.6948H0.806296C0.360462 44.6948 0 44.338 0 43.8967C0 43.4554 0.360462 43.0986 0.806296 43.0986H4.41092C4.85675 43.0986 5.21721 43.4554 5.21721 43.8967C5.21721 44.338 4.85675 44.6948 4.41092 44.6948H4.40143ZM0.796811 43.3427C0.483778 43.3427 0.22766 43.5962 0.22766 43.9061C0.22766 44.2159 0.483778 44.4695 0.796811 44.4695H4.40143C4.71446 44.4695 4.97058 44.2159 4.97058 43.9061C4.97058 43.5962 4.71446 43.3427 4.40143 43.3427H0.806296H0.796811ZM67.2925 36.676H52.8836C52.6654 36.676 52.4567 36.5915 52.3049 36.4319C52.1531 36.5821 51.9445 36.676 51.7263 36.676H33.3238C32.8779 36.676 32.5175 36.3192 32.5175 35.8779C32.5175 35.4366 32.8779 35.0798 33.3238 35.0798H51.7263C51.9445 35.0798 52.1531 35.1643 52.3049 35.3239C52.4567 35.1737 52.6654 35.0798 52.8836 35.0798H67.2925C67.7384 35.0798 68.0988 35.4366 68.0988 35.8779C68.0988 36.3192 67.7384 36.676 67.2925 36.676ZM52.3049 36.0281L52.4093 36.1784C52.5136 36.338 52.6938 36.4413 52.8836 36.4413H67.2925C67.6056 36.4413 67.8617 36.1878 67.8617 35.8779C67.8617 35.568 67.6056 35.3145 67.2925 35.3145H52.8836C52.6938 35.3145 52.5136 35.4084 52.4093 35.5774L52.3049 35.7277L52.2006 35.5774C52.0962 35.4178 51.916 35.3145 51.7263 35.3145H33.3238C33.0107 35.3145 32.7546 35.568 32.7546 35.8779C32.7546 36.1878 33.0107 36.4413 33.3238 36.4413H51.7263C51.916 36.4413 52.0962 36.3474 52.2006 36.1784L52.3049 36.0281ZM4.39194 36.676H0.806296C0.360462 36.676 0 36.3192 0 35.8779C0 35.4366 0.360462 35.0798 0.806296 35.0798H4.41092C4.85675 35.0798 5.21721 35.4366 5.21721 35.8779C5.21721 36.3192 4.85675 36.676 4.41092 36.676H4.39194ZM0.787325 35.3239C0.474292 35.3239 0.218174 35.5774 0.218174 35.8873C0.218174 36.1972 0.474292 36.4507 0.787325 36.4507H4.39194C4.70498 36.4507 4.96109 36.1972 4.96109 35.8873C4.96109 35.5774 4.70498 35.3239 4.39194 35.3239H0.806296H0.787325ZM67.2831 22.7136H33.3143C32.8684 22.7136 32.508 22.3568 32.508 21.9155C32.508 21.4742 32.8684 21.1173 33.3143 21.1173H67.2831C67.7289 21.1173 68.0894 21.4742 68.0894 21.9155C68.0894 22.3568 67.7289 22.7136 67.2831 22.7136ZM33.3143 21.3615C33.0012 21.3615 32.7451 21.615 32.7451 21.9249C32.7451 22.2347 33.0012 22.4882 33.3143 22.4882H67.2831C67.5961 22.4882 67.8522 22.2347 67.8522 21.9249C67.8522 21.615 67.5961 21.3615 67.2831 21.3615H33.3143ZM4.38246 22.7136H0.806296C0.360462 22.7136 0 22.3568 0 21.9155C0 21.4742 0.360462 21.1173 0.806296 21.1173H4.41092C4.85675 21.1173 5.21721 21.4742 5.21721 21.9155C5.21721 22.3568 4.85675 22.7136 4.41092 22.7136H4.38246ZM0.777839 21.3615C0.464806 21.3615 0.208688 21.615 0.208688 21.9249C0.208688 22.2347 0.464806 22.4882 0.777839 22.4882H4.38246C4.69549 22.4882 4.95161 22.2347 4.95161 21.9249C4.95161 21.615 4.69549 21.3615 4.38246 21.3615H0.806296H0.777839ZM22.434 3.51171H6.5642C6.11837 3.51171 5.75791 3.1549 5.75791 2.71359C5.75791 2.27227 6.11837 1.91547 6.5642 1.91547H22.434C22.8798 1.91547 23.2403 2.27227 23.2403 2.71359C23.2403 3.1549 22.8798 3.51171 22.434 3.51171ZM6.5642 2.1596C6.25117 2.1596 5.99505 2.41312 5.99505 2.72298C5.99505 3.03284 6.25117 3.28636 6.5642 3.28636H22.434C22.747 3.28636 23.0032 3.03284 23.0032 2.72298C23.0032 2.41312 22.747 2.1596 22.434 2.1596H6.5642Z" fill="white"/>
<path d="M67.302 33.493H33.3332C32.9538 33.493 32.6502 33.1925 32.6502 32.8169C32.6502 32.4413 32.9538 32.1408 33.3332 32.1408H67.302C67.6814 32.1408 67.985 32.4413 67.985 32.8169C67.985 33.1925 67.6814 33.493 67.302 33.493ZM4.4014 33.493H0.806272C0.426838 33.493 0.123291 33.1925 0.123291 32.8169C0.123291 32.4413 0.426838 32.1408 0.806272 32.1408H4.41089C4.79032 32.1408 5.09387 32.4413 5.09387 32.8169C5.09387 33.1925 4.79032 33.493 4.41089 33.493H4.4014ZM67.302 25.5305H33.3332C32.9538 25.5305 32.6502 25.23 32.6502 24.8545C32.6502 24.4789 32.9538 24.1784 33.3332 24.1784H67.302C67.6814 24.1784 67.985 24.4789 67.985 24.8545C67.985 25.23 67.6814 25.5305 67.302 25.5305ZM4.4014 25.5305H0.806272C0.426838 25.5305 0.123291 25.23 0.123291 24.8545C0.123291 24.4789 0.426838 24.1784 0.806272 24.1784H4.41089C4.79032 24.1784 5.09387 24.4789 5.09387 24.8545C5.09387 25.23 4.79032 25.5305 4.41089 25.5305H4.4014Z" fill="white"/>
<path d="M67.302 33.6056H33.3332C32.8874 33.6056 32.5269 33.2488 32.5269 32.8075C32.5269 32.3662 32.8874 32.0094 33.3332 32.0094H67.302C67.7479 32.0094 68.1083 32.3662 68.1083 32.8075C68.1083 33.2488 67.7479 33.6056 67.302 33.6056ZM33.3332 32.2535C33.0202 32.2535 32.7641 32.507 32.7641 32.8169C32.7641 33.1268 33.0202 33.3803 33.3332 33.3803H67.302C67.6151 33.3803 67.8712 33.1268 67.8712 32.8169C67.8712 32.507 67.6151 32.2535 67.302 32.2535H33.3332ZM4.40143 33.6056H0.806296C0.360462 33.6056 0 33.2488 0 32.8075C0 32.3662 0.360462 32.0094 0.806296 32.0094H4.41092C4.85675 32.0094 5.21721 32.3662 5.21721 32.8075C5.21721 33.2488 4.85675 33.6056 4.41092 33.6056H4.40143ZM0.796811 32.2535C0.483778 32.2535 0.22766 32.507 0.22766 32.8169C0.22766 33.1268 0.483778 33.3803 0.796811 33.3803H4.40143C4.71446 33.3803 4.97058 33.1268 4.97058 32.8169C4.97058 32.507 4.71446 32.2535 4.40143 32.2535H0.806296H0.796811ZM67.2925 25.6526H33.3238C32.8779 25.6526 32.5175 25.2958 32.5175 24.8545C32.5175 24.4131 32.8779 24.0563 33.3238 24.0563H67.2925C67.7384 24.0563 68.0988 24.4131 68.0988 24.8545C68.0988 25.2958 67.7384 25.6526 67.2925 25.6526ZM33.3238 24.3005C33.0107 24.3005 32.7546 24.554 32.7546 24.8638C32.7546 25.1737 33.0107 25.4272 33.3238 25.4272H67.2925C67.6056 25.4272 67.8617 25.1737 67.8617 24.8638C67.8617 24.554 67.6056 24.3005 67.2925 24.3005H33.3238ZM4.39194 25.6526H0.806296C0.360462 25.6526 0 25.2958 0 24.8545C0 24.4131 0.360462 24.0563 0.806296 24.0563H4.41092C4.85675 24.0563 5.21721 24.4131 5.21721 24.8545C5.21721 25.2958 4.85675 25.6526 4.41092 25.6526H4.39194ZM0.787325 24.3005C0.474292 24.3005 0.218174 24.554 0.218174 24.8638C0.218174 25.1737 0.474292 25.4272 0.787325 25.4272H4.39194C4.70498 25.4272 4.96109 25.1737 4.96109 24.8638C4.96109 24.554 4.70498 24.3005 4.39194 24.3005H0.806296H0.787325Z" fill="white"/>
</g>
<defs>
<clipPath id="clip0_1147_120">
<rect width="69" height="68" fill="white"/>
</clipPath>
</defs>
</svg>
