<svg width="61" height="72" viewBox="0 0 61 72" fill="none" xmlns="http://www.w3.org/2000/svg">
<g clip-path="url(#clip0_1145_88)">
<path d="M58.25 72H2.55V63.45H0V59.39H2.55V54.64H0V50.58H2.55V45.71H0V41.65H2.55V36.66H0V32.6H2.55V27.61H0V23.55H2.55V18.93H0V14.87H2.55V6.01C2.55 5.96 2.55 5.89 2.55 5.81V5.11H2.8C2.86 5.01 2.94 4.9 3.04 4.8C4.77 2.89 11.04 1.7 21.31 1.31V0H38.18V1.32C52.62 1.89 56.7 3.89 57.84 5.11H58.26V14.87H60.41V18.93H58.26V23.55H60.41V27.61H58.26V32.6H60.41V36.66H58.26V41.65H60.41V45.71H58.26V50.58H60.41V54.64H58.26V59.39H60.41V63.45H58.26V72H58.25ZM4.48 70.3H56.32V63.45H4.48V70.3ZM58.25 61.75H58.47V61.1H58.25V61.75ZM4.48 61.75H56.32V61.1H4.48V61.75ZM1.93 61.75H2.55V61.1H1.93V61.75ZM4.48 59.39H56.32V54.64H4.48V59.39ZM58.25 52.94H58.47V52.29H58.25V52.94ZM4.48 52.94H56.32V52.29H4.48V52.94ZM1.93 52.94H2.55V52.29H1.93V52.94ZM4.48 50.58H56.32V45.71H4.48V50.58ZM58.25 44.01H58.47V43.35H58.25V44.01ZM4.48 44.01H56.32V43.35H4.48V44.01ZM1.93 44.01H2.55V43.35H1.93V44.01ZM4.48 41.65H56.32V36.66H4.48V41.65ZM58.25 34.96H58.47V34.31H58.25V34.96ZM4.48 34.96H56.32V34.31H4.48V34.96ZM1.93 34.96H2.55V34.31H1.93V34.96ZM4.48 32.6H56.32V27.61H4.48V32.6ZM58.25 25.91H58.47V25.26H58.25V25.91ZM4.48 25.91H56.32V25.26H4.48V25.91ZM1.93 25.91H2.55V25.26H1.93V25.91ZM4.48 23.55H56.32V18.93H4.48V23.55ZM58.25 17.23H58.47V16.58H58.25V17.23ZM4.48 17.23H56.32V16.58H4.48V17.23ZM1.93 17.23H2.55V16.58H1.93V17.23ZM4.48 14.87H56.32V6.82H4.48V14.88V14.87ZM50.23 5.11H54.16C52.94 4.7 51.07 4.24 48.23 3.85C48.8 4.19 49.46 4.6 50.24 5.11H50.23ZM37.35 5.11H45.06C44.1 4.08 43.91 3.67 43.93 3.38C42.25 3.24 40.34 3.12 38.17 3.03V4.68L37.35 5.11ZM27.24 5.11H32.54V2.88C30.85 2.86 28.96 2.86 27.24 2.88V5.12V5.11ZM15.96 5.11H22.21L21.31 4.62V3C19.75 3.06 18.34 3.13 17.06 3.22C17.16 3.53 17.1 3.88 15.96 5.1V5.11ZM5.77 5.11H10.79C11.8 4.44 12.63 3.94 13.3 3.55C9.17 4.01 6.95 4.61 5.77 5.11ZM23.24 3.67L25.31 4.79V2.89C24.59 2.9 23.9 2.92 23.24 2.94V3.67ZM34.47 2.91V4.65L36.25 3.71V2.95C35.68 2.93 35.08 2.92 34.47 2.9V2.91Z" fill="#002C72"/>
</g>
<defs>
<clipPath id="clip0_1145_88">
<rect width="60.4" height="72" fill="white"/>
</clipPath>
</defs>
</svg>
