<svg width="106" height="56" viewBox="0 0 106 56" fill="none" xmlns="http://www.w3.org/2000/svg">
<g clip-path="url(#clip0_1145_100)">
<path d="M26.34 55.31C26.02 55.31 24.94 55.24 24.05 54.41C23.52 53.91 22.88 52.97 22.88 51.32V8.34999C22.72 7.81999 22.52 6.77999 23.13 5.83999C23.73 4.89999 24.84 4.42999 26.42 4.42999C29.61 4.42999 40.94 4.71999 41.42 4.73999L41.78 4.79999C41.83 4.81999 47.31 6.41999 52.53 6.41999C57.75 6.41999 62.81 5.09999 62.86 5.08999L63.22 5.03999H78.5C78.99 4.94999 80.15 4.84999 81.12 5.58999C81.67 6.00999 82.32 6.83999 82.32 8.40999V51.34C82.39 51.8 82.44 52.87 81.69 53.83C80.93 54.81 79.64 55.3 77.87 55.3H26.43C26.43 55.3 26.39 55.3 26.34 55.3V55.31ZM25.46 7.37999L25.54 7.52999L25.67 7.80999V51.32C25.67 51.82 25.77 52.19 25.94 52.36C26.1 52.52 26.36 52.52 26.37 52.52H77.88C78.83 52.52 79.34 52.32 79.49 52.13C79.61 51.99 79.57 51.77 79.57 51.77L79.54 51.47V8.40999C79.54 7.98999 79.45 7.81999 79.43 7.79999C79.38 7.75999 79.15 7.73999 78.98 7.77999L78.64 7.81999H63.4C62.41 8.06999 57.64 9.19999 52.54 9.19999C47.44 9.19999 42.23 7.80999 41.18 7.51999C39.69 7.47999 29.37 7.21999 26.43 7.21999C25.68 7.21999 25.46 7.37999 25.45 7.37999H25.46Z" fill="white"/>
<path d="M96.5 54.47H90.55V51.68H96.5C96.94 51.68 97.17 51.6 97.25 51.55V48.34H100.04V51.7C100.04 52.81 99.1 54.47 96.51 54.47H96.5Z" fill="white"/>
<path d="M13.47 54.47H8.88001C6.29001 54.47 5.35001 52.82 5.35001 51.7V49.1H8.14001V51.55C8.22001 51.6 8.44001 51.68 8.89001 51.68H13.48V54.47H13.47Z" fill="white"/>
<path d="M91.67 54.14L91.26 51.38C91.71 51.31 102.44 49.33 102.44 29.4C102.44 9.46997 91.74 7.78997 91.28 7.72997L91.63 4.96997C92.19 5.03997 105.22 6.90997 105.22 29.41C105.22 51.91 92.22 54.06 91.66 54.15L91.67 54.14Z" fill="white"/>
<path d="M13.56 54.14C13.01 54.06 0 51.87 0 29.4C0 6.92997 13.04 5.03997 13.59 4.96997L13.93 7.72997C13.49 7.78997 2.79 9.49997 2.79 29.4C2.79 49.3 13.52 51.31 13.98 51.38L13.56 54.14Z" fill="white"/>
<path d="M92.35 41.27L91.5 38.62L94.35 37.7V31.62L91.31 30.57L92.22 27.94L97.13 29.64V39.74L92.35 41.27Z" fill="white"/>
<path d="M12.57 41.27L7.78999 39.74V29.64L12.69 27.94L13.61 30.57L10.57 31.62V37.7L13.42 38.62L12.57 41.27Z" fill="white"/>
<path d="M87.82 53.68H85.03V31.11H82.76V28.32H87.82V53.68Z" fill="white"/>
<path d="M20.34 53.68H17.56V28.32H22.61V31.11H20.34V53.68Z" fill="white"/>
<path d="M89.48 54.92H85.21C83.01 54.92 81.22 53.13 81.22 50.93V8.33998C81.22 6.13998 83.01 4.34998 85.21 4.34998H89.48C91.68 4.34998 93.47 6.13998 93.47 8.33998V50.93C93.47 53.13 91.68 54.92 89.48 54.92ZM85.21 7.13998C84.55 7.13998 84.01 7.67998 84.01 8.34998V50.94C84.01 51.6 84.55 52.14 85.21 52.14H89.48C90.15 52.14 90.69 51.6 90.69 50.94V8.33998C90.69 7.66998 90.15 7.12998 89.48 7.12998H85.21V7.13998Z" fill="white"/>
<path d="M20.02 54.92H15.75C13.55 54.92 11.76 53.13 11.76 50.93V8.33998C11.76 6.13998 13.55 4.34998 15.75 4.34998H20.02C22.22 4.34998 24.01 6.13998 24.01 8.33998V50.93C24.01 53.13 22.22 54.92 20.02 54.92ZM15.75 7.13998C15.09 7.13998 14.55 7.67998 14.55 8.34998V50.94C14.55 51.6 15.09 52.14 15.75 52.14H20.02C20.68 52.14 21.22 51.6 21.22 50.94V8.33998C21.22 7.66998 20.68 7.12998 20.02 7.12998H15.75V7.13998Z" fill="white"/>
<path d="M62.69 2.79H42.54V2.61H41.14V0H64.08V2.77L62.69 2.79Z" fill="white"/>
<path d="M58.28 2.60999H55.49V7.33999H58.28V2.60999Z" fill="white"/>
<path d="M49.73 2.60999H46.94V7.33999H49.73V2.60999Z" fill="white"/>
<path d="M65 6.43003H62.21V4.32003H43.01V6.28003H40.23V1.53003H65V6.43003Z" fill="white"/>
<path d="M29.72 53.91H26.94V31.33H24.33V28.55H29.72V53.91Z" fill="white"/>
<path d="M78.35 53.91H75.57V28.55H80.63V31.33H78.35V53.91Z" fill="white"/>
</g>
<defs>
<clipPath id="clip0_1145_100">
<rect width="105.22" height="55.31" fill="white"/>
</clipPath>
</defs>
</svg>
