<svg width="58" height="85" viewBox="0 0 58 85" fill="none" xmlns="http://www.w3.org/2000/svg">
<g clip-path="url(#clip0_1145_94)">
<path d="M33.2217 84.6289H24.7783V81.3492L1.09434 64.4796H0.371471V13.4997H1.06422L16.907 3.93155V0.381104H41.093V3.87137L56.9358 13.4997H57.6285V64.4897H56.5241L33.2318 81.0684V84.6289H33.2217ZM26.726 82.7935H31.264V81.8608H26.726V82.7935ZM26.1437 80.0254H31.4547L53.2813 64.4897H4.32716L26.1537 80.0254H26.1437ZM2.32923 62.6543H55.6708V15.3251H2.32923V62.6442V62.6543ZM37.1573 13.4997H53.3415L39.9384 5.35573H36.7558L37.1573 5.59644V13.4997ZM22.9912 13.4997H35.2096V6.63951C34.3161 6.21827 32.1475 5.35573 29.2962 5.35573C26.4449 5.35573 24.0152 6.12801 22.9912 6.51916V13.4997ZM4.67855 13.4997H21.0334V5.35573H18.162L4.67855 13.4997ZM18.8648 3.52034H39.1452V2.2165H18.8648V3.52034Z" fill="#002C72"/>
<path d="M33.6033 85H24.4068V81.5398L0.963822 64.8608H0V13.1186H0.963822L16.5356 3.72094V0H41.4745V3.66077L57.0462 13.1186H58.01V64.8608H56.6446L33.6033 81.259V85ZM25.1598 84.2478H32.8503V80.8678L56.4037 64.1086H57.257V13.8708H56.8354L40.7215 4.08201V0.752212H17.2886V4.14218L1.17466 13.8708H0.752986V64.1086H1.21482L1.31522 64.1788L25.1598 81.1487V84.2478ZM31.6555 83.1646H26.3645V81.4796H31.6555V83.1646ZM27.1175 82.4124H30.9025V82.2319H27.1175V82.4124ZM31.5953 80.3965H26.0332L3.14246 64.1086H54.4559L31.5752 80.3965H31.5953ZM26.2842 79.6442H31.3543L52.1267 64.8608H5.50182L26.2641 79.6442H26.2842ZM56.0623 63.0254H1.95776V14.954H56.0523V63.0254H56.0623ZM2.72079 62.2732H55.3093V15.7062H2.71075V62.2732H2.72079ZM54.6869 13.8708H36.7859V5.80708L35.4004 4.97463H40.0388L54.6768 13.8708H54.6869ZM37.5389 13.1186H51.9962L39.8279 5.72684H37.5389V13.1186ZM35.5811 13.8708H22.6097V6.24838L22.8506 6.15811C24.0152 5.71681 26.3947 4.97463 29.2861 4.97463C32.1776 4.97463 34.3161 5.80708 35.3602 6.29853L35.5711 6.39882V13.8708H35.5811ZM23.3626 13.1186H34.8281V6.88024C33.9044 6.46903 31.8764 5.72684 29.2962 5.72684C26.7159 5.72684 24.4068 6.39882 23.3727 6.76991V13.1186H23.3626ZM21.4049 13.8708H3.32318L18.0616 4.97463H21.4149V13.8708H21.4049ZM6.02389 13.1186H20.6519V5.72684H18.2624L6.01385 13.1186H6.02389ZM39.5167 3.89145H18.4833V1.8354H39.5167V3.89145ZM19.2363 3.13923H38.7637V2.58761H19.2363V3.13923Z" fill="#002C72"/>
</g>
<defs>
<clipPath id="clip0_1145_94">
<rect width="58" height="85" fill="white"/>
</clipPath>
</defs>
</svg>
