<?xml version="1.0" encoding="utf-8"?>
<!-- Generator: Adobe Illustrator 28.0.0, SVG Export Plug-In . SVG Version: 6.00 Build 0)  -->
<svg version="1.1" id="Capa_1" xmlns="http://www.w3.org/2000/svg" xmlns:xlink="http://www.w3.org/1999/xlink" x="0px" y="0px"
	 viewBox="0 0 269 92" style="enable-background:new 0 0 269 92;" xml:space="preserve">
<style type="text/css">
	.st0{fill:#006AAA;}
	.st1{fill:#0164A8;}
	.st2{fill:#FEFEFE;}
	.st3{fill:#0563A8;}
	.st4{fill:#0065A7;}
	.st5{fill:#0069AA;}
	.st6{fill:#0562A8;}
	.st7{fill:#035EA5;}
	.st8{fill:#035EA4;}
	.st9{fill:#E1EDF1;}
	.st10{fill:#0462A8;}
	.st11{fill:#0460A7;}
	.st12{fill:#055DA6;}
	.st13{fill:#055DA5;}
	.st14{fill:#0262A7;}
	.st15{fill:#0165A9;}
	.st16{fill:#055CA5;}
	.st17{fill:#F9FBFC;}
	.st18{fill:#025EA3;}
	.st19{fill:#0166AA;}
</style>
<g>
	<path class="st0" d="M31,77.7c0-21.2,0-42.4,0-63.5c0.4-1.3,1.5-1.8,2.7-2.2c69.9,0,139.8,0,209.7,0c1.1,0.5,2.1,1.1,2.7,2.2
		c0,21.2,0,42.4,0,63.5c-0.5,1.2-1.5,1.8-2.7,2.2c-70.1,0-140.1,0-210.2,0C32.1,79.5,31.4,78.8,31,77.7z"/>
	<path class="st0" d="M246,14.2c-1.3-0.2-2.1-1.1-2.7-2.2C244.8,12,246.7,11.5,246,14.2z"/>
	<path class="st0" d="M243.3,79.9c0.9-0.7,1.8-1.4,2.7-2.2C246.7,80.4,244.8,79.9,243.3,79.9z"/>
	<path class="st1" d="M33.7,12c-0.9,0.7-1.8,1.4-2.7,2.2C30.3,11.5,32.2,12.1,33.7,12z"/>
	<path class="st0" d="M31,77.7c0.7,0.7,1.4,1.4,2.2,2C31.3,80.2,30.6,79.5,31,77.7z"/>
	<path class="st2" d="M84.5,15.9c1.2,0.1,2.3,0.2,3.5,0.2c49.8,0,99.5,0,149.3,0c1.4,0,2.9-0.1,4.3,0.3c0.9,0.9,0.7,2,0.7,3
		c0,17.7,0,35.3,0,53c0,0.7,0,1.4-0.3,2.1c-0.7,1.6-2.1,1.1-3.3,1.2c-16.4,0-32.8,0-49.3,0c-34.3,0-68.6,0-102.8,0
		c-1.3,0-2.7,0.4-3.9-0.7c0,0,0,0,0,0c0-18.8,0-37.6-0.1-56.4c0-1,0-2,1.1-2.5C84,16,84.3,15.9,84.5,15.9z"/>
	<path class="st2" d="M35.1,45.7c0-8.8,0.1-17.6,0-26.4c0-2.5,0.7-3.3,3.2-3.3c12.4,0.1,24.8,0.1,37.2,0c2.3,0,3.2,0.6,3.1,3.1
		c-0.1,17.8-0.1,35.7,0,53.5c0,2.3-0.7,3.1-3.1,3.1c-12.4-0.1-24.8-0.1-37.2,0c-2.7,0-3.3-0.9-3.3-3.4
		C35.2,63.4,35.1,54.6,35.1,45.7z"/>
	<path class="st1" d="M84.5,15.9C84.3,16,84,16,83.8,16.1c0.6-1,1.5-0.8,2.4-0.8c51,0,102.1,0,153.1,0c0.3,0,0.6,0.1,1,0.5
		c-1.1,0-2.1,0-3.2,0c-49.7,0-99.4,0-149,0C86.8,15.8,85.7,15.9,84.5,15.9z"/>
	<path class="st3" d="M242,74.5c0-18.1,0-36.2-0.1-54.4c0-1.2,0.1-2.5-0.3-3.7c1.4,1,1.2,2.5,1.2,3.9c0,11.3,0,22.5,0,33.8
		c-0.6,5.6-0.1,11.3-0.3,17c0,1.1,0.3,2.3-0.3,3.4C242.1,74.4,242.1,74.5,242,74.5z"/>
	<path class="st4" d="M34.3,74.1c0-18.8,0-37.5,0-56.3c0.1,0,0.2,0,0.3,0c0,18.8,0,37.5,0,56.3C34.5,74.1,34.4,74.1,34.3,74.1z"/>
	<path class="st4" d="M79.1,73c0-18.2,0-36.4,0-54.6c0.1,0,0.2,0,0.3,0c0,18.2,0,36.4,0,54.6C79.3,73,79.2,73,79.1,73z"/>
	<path class="st4" d="M82.7,75c-1.6,0.2-1.1-1.1-1.1-1.7c-0.1-3.4,0-6.8,0-10.2c0-13.3,0-26.5,0-39.8c0-0.9,0-1.8,0-2.6
		c0.2,0,0.4,0,0.5,0c0,0.9,0,1.8,0,2.7c0,16.1,0,32.3,0,48.4C82.2,72.8,81.9,74,82.7,75C82.7,75,82.7,75,82.7,75z"/>
	<path class="st1" d="M76.9,15.7c-13.4,0-26.8,0-40.1,0c0-0.1,0-0.2,0-0.3c13.4,0,26.8,0,40.1,0C76.9,15.5,76.9,15.6,76.9,15.7z"/>
	<path class="st4" d="M39.5,76.3c12.3,0,24.6,0,36.9,0c0,0.1,0,0.2,0,0.3c-12.3,0-24.6,0-36.9,0C39.5,76.4,39.5,76.3,39.5,76.3z"/>
	<path class="st4" d="M242.2,74.4c0-5.8,0-11.5,0-17.3c0-1-0.2-2.1,0.5-3.1c0,6,0,12,0,18C242.8,72.8,243.4,73.9,242.2,74.4z"/>
	<path class="st0" d="M149.5,61.1c-3.9,0.1-7.9,0.1-11.8,0.2c-1.4,0.1-1.8-0.7-2.2-1.8c-2.4-6.5-4.7-12.9-7.1-19.3
		c-0.2-0.6-0.5-1.3-1-2.4c0,6.9,0,13.2,0,19.6c-0.5,3.5-0.5,3.5-4.2,3.5c-1.1,0-2.3-0.3-3.3,0.3c-0.7-0.2-0.5-0.7-0.4-1.2
		c0.4-8.5,0.1-17,0.2-25.5c0-3.6,0-3.7,3.5-3.5c3.5,0.1,7-0.6,10.4,0.5c2.3,5.9,4.6,11.9,6.9,17.8c0.4,0.9,0.7,1.8,1.1,2.7
		c0.4,0.4,0.7,0.2,1-0.2c0.1-4,0.2-8-0.1-12c-0.3-0.8,0-1.7-0.3-2.5c0-2.1,0.1-4.2,0.1-6.2c1.8-0.1,3.7,0,5.5,0c1,0,2-0.1,2.1,1.4
		c0,8.7,0,17.5,0,26.2C149.8,59.4,150.1,60.3,149.5,61.1z"/>
	<path class="st0" d="M152.4,36.3c1.1-4.2,3.6-5.9,9.1-5.9c2.5,0.3,5,0.3,7.5,0c6.3,0,8.7,3.6,8.6,8.1c0,0.4,0,1.1-0.2,1.2
		c-1.4,0.7-3,0.4-4.5,0.3c-1.3-0.1-3.2,1.1-3.5-1.5c-0.1-1-1.1-1.4-2-1.5c-1.8-0.2-3.6-0.2-5.4,0.2c-1.4,0.3-1.8,1.2-1.8,2.6
		c0,1.4,0.6,2.2,2,2.4c1.2,0.1,2.3,0.3,3.4,0.5c1.1,0.6,2.2,0.4,3.3,0.1c1.5,0.2,3,0.3,4.5,0.6c2.8,0.6,4.6,2.3,4.8,5.3
		c0,0.2,0.1,0.4,0.1,0.5c1.1,8-1.1,10.9-9,12c-3.7,0.5-7.5,0.5-11.3-0.2c-4-0.8-6.8-4.8-6.1-8.8c0-0.2,0-0.5,0.1-0.5
		c1.9-1,4-0.3,6-0.4c0.7-0.1,1.7-0.5,1.9,0.9c0.3,2.3,1.9,2.6,3.7,2.6c1.3,0,2.7,0,4-0.1c1.9-0.1,2.6-1.2,2.6-3
		c0-1.9-1.1-2.4-2.7-2.5c-3.4-0.2-6.8-0.3-10.2-1c-2.7-0.6-4.5-2.1-4.9-5C152.4,40.9,152.4,38.6,152.4,36.3z"/>
	<path class="st0" d="M110.7,61.1c-2-0.1-1.6-1.9-1.9-3c-0.5-1.8-1.3-2.3-3-2.2c-1.2,0.1-2.5,0-3.8,0c-4.5,0-4.6,0-6.2,4.1
		c-0.3,0.8-0.7,1.1-1.5,1.1c-2.4,0-4.8,0-7.4,0c3-10,5.9-19.6,8.8-29.3c0.3-1.1,0.8-1.6,2.1-1.6c3.1,0.1,6.3,0.1,9.4,0
		c1,0,1.6,0.3,2,1.3c2.8,9.6,5.7,19.2,8.6,28.7C115.5,61.3,113,60.2,110.7,61.1z"/>
	<path class="st0" d="M205.5,55.1c-0.6,2.9-2.4,4.8-5.2,5.6c-4.1,1.1-8.3,1.4-12.5,0.4c-0.5-0.6-1-0.3-1.5-0.1
		c-4.9-0.9-6.8-2.8-6.9-7.7c-0.2-7.1-0.1-14.2-0.1-21.2c0-0.3-0.1-0.7,0-0.8c2.1-1.7,4.5-0.5,6.8-0.8c1.6-0.2,1.4,0.9,1.4,1.9
		c0,5.7,0,11.5,0,17.2c0,1.7-0.3,3.7,1.7,4.4c2.4,0.8,5,1,7.3-0.2c1.2-0.6,1.1-2,1.1-3.1c0-5.9,0.1-11.8,0-17.7
		c0-2.1,0.6-2.8,2.6-2.5c1.8,0.3,3.7-0.4,5.5,0.4c-1.6,0.6-3.4,0.3-5,0.2c-1.8-0.1-2.4,0.4-2.3,2.3c0.1,4.4,0,8.8,0,13.2
		c0-4.3,0.1-8.5,0-12.8c-0.1-1.9,0.3-2.7,2.5-2.6c5.4,0.2,4.8-0.8,4.8,4.9C205.6,42.4,205.7,48.7,205.5,55.1z"/>
	<path class="st5" d="M215.9,54c3.7,0,7.4,0.1,11,0.1c1.5,0,1.9,0.5,2,2c0.1,5.1,0.2,5.1-5,5.1c-4.7,0-9.3-0.1-14,0
		c-1.7,0-2.3-0.3-2.3-2.2c0.1-8.9,0.1-17.7,0-26.6c0-1.6,0.5-2.3,2.1-2.1c2,0.3,4-0.5,6,0.4c-0.6,0.6-1.3,0-2,0.5
		c1.9-0.6,1.9,0.5,1.9,1.8c0,6.1,0,12.2,0,18.3C215.6,52.3,215.3,53.2,215.9,54z"/>
	<path class="st6" d="M133.5,31.4c-3.5,0-7,0.1-10.5,0c-2.3-0.1-3.2,0.7-3.1,3.1c0.1,7.4,0.1,14.9,0,22.3c0,1.1,0.2,2.2-0.4,3.2
		c0-9.2,0-18.4-0.1-27.7c0-1.1,0.1-1.9,1.5-1.9c3.8,0.1,7.5,0,11.3,0C132.9,30.4,133.4,30.5,133.5,31.4z"/>
	<path class="st4" d="M205.5,55.1c-0.8-2.1-0.3-4.3-0.4-6.4c-0.1-4.9-0.1-9.9,0-14.8c0.1-2.4-1.3-2.6-3.1-2.5
		c-1.7,0.1-3.5-0.3-3.4,2.5c0.1,5.5,0,10.9-0.5,16.4c0-2.3,0-4.6,0-6.8c0-2.9,0-5.7,0-8.6c0-3.9,0-3.9,4.1-3.9c1.2,0,2.3,0,3.5,0
		c0,0,0,0,0,0c0.4,7.4,0.4,14.8,0,22.2C205.6,53.8,205.5,54.4,205.5,55.1z"/>
	<path class="st7" d="M149.5,61.1c0-9.7,0-19.4,0-29.1c0.2-0.3,0.4-0.3,0.6,0c0,9.3,0.1,18.6,0.1,27.9
		C150.2,60.4,150.3,61,149.5,61.1z"/>
	<path class="st8" d="M215.9,54c-0.7-0.9-0.5-2-0.6-3.1c0-4.9,0-9.9,0-14.8c0-4.5,0-4.5-4.3-5.2c1.6,0,3.2,0,4.8,0
		C215.8,38.6,215.8,46.3,215.9,54z"/>
	<path class="st0" d="M205.6,53.1c0-7.4,0-14.8,0-22.2c0.7,3.5,0.3,7.1,0.3,10.7C205.9,45.4,206.3,49.2,205.6,53.1z"/>
	<path class="st9" d="M142.1,37.2c0.1,0.8,0.3,1.5,0.4,2.3c0.6,4.7,0.3,9.3,0.1,14c-1.4,0.2-0.9-1-1.2-1.6c1.1-2.3,0.3-4.7,0.4-7
		C142.1,42.3,142,39.7,142.1,37.2z"/>
	<path class="st6" d="M150.1,32c-0.2,0-0.4,0-0.6,0c-2.3-1.3-5,0.2-7.4-1c2.4-1.1,4.9-0.3,7.3-0.4C150.4,30.5,150.2,31.3,150.1,32z"
		/>
	<path class="st10" d="M119.9,61.1c0.8-0.7,1.8-0.7,2.8-0.6c2.5,0.3,4.5-0.2,4.7-3.2c0,0.8,0.1,1.6,0.1,2.4c0.1,1.1-0.3,1.7-1.5,1.6
		C124,61.2,121.9,61.2,119.9,61.1z"/>
	<path class="st11" d="M152.4,36.3c0.7,2.3,0.7,4.6,0,7C151.8,40.9,151.8,38.6,152.4,36.3z"/>
	<path class="st12" d="M168.9,30.4c-2.5,0.7-5,0.7-7.5,0C163.9,30.4,166.4,30.4,168.9,30.4z"/>
	<path class="st6" d="M110.7,61.1c2.3-1.2,4.7-0.3,7-0.6C115.5,62.2,113.1,61,110.7,61.1z"/>
	<path class="st13" d="M168.9,42.8c-1.1,0.6-2.2,0.7-3.3-0.1C166.8,42.7,167.9,42.8,168.9,42.8z"/>
	<path class="st14" d="M186.2,61c0.6-0.4,1.2-0.7,1.8-0.3c0.3,0.1-0.1,0.3-0.3,0.4C187.2,61,186.7,61,186.2,61z"/>
	<path class="st0" d="M59,61c-0.9-0.7-0.4-1.7-0.4-2.5c-0.1-7.3-0.1-14.5,0-21.8c0-2.6-0.3-4.7-2.9-6.2c3.3,0,6.6-0.2,9.8,0.1
		c1.9,0.1,3.3,1.5,3.7,3.5c-0.4,6.4-0.1,12.8-0.2,19.2c0,2.4,0.2,4.8-0.1,7.2c-2.9,0.6-5.7,0.1-8.6,0.3c-0.5-0.1-0.9-0.3-0.9-0.8
		c-0.1-3.2,0-6.4-0.1-8.7C59,53.9,59.7,57.5,59,61z"/>
	<path class="st0" d="M41.2,53.7c0-4.4,3.4-7.7,7.9-7.8c4.4,0,7.8,3.5,7.8,7.8c0,4.3-3.6,7.9-7.9,7.8C44.7,61.5,41.2,58,41.2,53.7z"
		/>
	<path class="st0" d="M48.8,44.3c-4-0.8-6.2-3.6-5.9-7.6c0.2-3.3,3.3-6.1,6.8-6.4c3.3-0.2,6.6,2.4,7.2,5.6c0.7,4-1.3,7-5.4,8.2
		C50.5,44,49.6,43.9,48.8,44.3z"/>
	<path class="st1" d="M68.7,60.5c0-7.7,0-15.5,0-23.2c0-1.1-0.2-2.2,0.5-3.1c0,8.8,0,17.6,0,26.4C69,60.7,68.9,60.7,68.7,60.5z"/>
	<path class="st15" d="M59,61c0-3.8,0-7.5,0-11.3c0.2,0,0.4,0,0.5,0c0,2.4,0,4.7,0,7.1c0,1.2-0.3,2.5,0.5,3.7c0.4,0.2,0.4,0.4,0,0.6
		C59.7,61.4,59.3,61.4,59,61z"/>
	<path class="st6" d="M60.1,61.1c0-0.2,0-0.4,0-0.6c2.9,0,5.7,0,8.6,0c0.2,0,0.3,0,0.5,0c-0.5,1.4-1.6,0.7-2.5,0.7
		C64.5,61.3,62.3,61.2,60.1,61.1z"/>
	<path class="st3" d="M48.8,44.3c0.9-0.7,1.8-0.7,2.7,0C50.6,44.7,49.7,44.6,48.8,44.3z"/>
	<path class="st16" d="M142.6,53.5c0-4.7-0.1-9.3-0.1-14C143.5,44.1,143.3,48.8,142.6,53.5z"/>
	<path class="st17" d="M99.5,50.2c-0.7-0.4-0.5-1-0.3-1.6c1.1-3.7,2.1-7.4,3.5-11.1c0.9,4.3,3.5,8.1,3.1,12.8
		C103.7,50.8,101.6,50.8,99.5,50.2z"/>
	<path class="st1" d="M97.8,55.2c3.1,0,6.1,0,9.2,0c0,0.1,0,0.2,0,0.3c-3.1,0-6.1,0-9.2,0C97.8,55.4,97.8,55.3,97.8,55.2z"/>
	<path class="st18" d="M99.5,50.2c2.1-0.3,4.2-0.3,6.3,0C103.7,51.2,101.6,51.2,99.5,50.2z"/>
	<path class="st19" d="M227.3,55c-3.5,0-7,0-10.5,0c0-0.1,0-0.2,0-0.3c3.5,0,7,0,10.5,0C227.3,54.8,227.3,54.9,227.3,55z"/>
</g>
<g>
	<path class="st19" d="M236.6,57.6c0,1.7-1.4,3.1-3.1,3.1c-1.8,0-3.1-1.4-3.1-3.1c0-1.7,1.4-3.1,3.1-3.1
		C235.2,54.5,236.6,55.9,236.6,57.6z M231.1,57.6c0,1.4,1,2.4,2.4,2.4c1.3,0,2.3-1.1,2.3-2.4c0-1.4-1-2.5-2.3-2.5
		C232.1,55.2,231.1,56.3,231.1,57.6z M232.9,59.2h-0.7v-3.1c0.3-0.1,0.7-0.1,1.2-0.1c0.6,0,0.8,0.1,1.1,0.2c0.2,0.1,0.3,0.4,0.3,0.7
		c0,0.3-0.3,0.6-0.6,0.7v0c0.3,0.1,0.5,0.3,0.6,0.7c0.1,0.5,0.1,0.7,0.2,0.8h-0.8c-0.1-0.1-0.1-0.4-0.2-0.7
		c-0.1-0.3-0.2-0.5-0.6-0.5h-0.3V59.2z M233,57.5h0.3c0.4,0,0.7-0.1,0.7-0.4c0-0.3-0.2-0.5-0.7-0.5c-0.2,0-0.3,0-0.4,0V57.5z"/>
</g>
</svg>
