<?xml version="1.0" encoding="utf-8"?>
<!-- Generator: Adobe Illustrator 28.0.0, SVG Export Plug-In . SVG Version: 6.00 Build 0)  -->
<svg version="1.1" id="Capa_1" xmlns="http://www.w3.org/2000/svg" xmlns:xlink="http://www.w3.org/1999/xlink" x="0px" y="0px"
	 viewBox="0 0 548.6 135.4" style="enable-background:new 0 0 548.6 135.4;" xml:space="preserve">
<style type="text/css">
	.st0{fill:#F16626;}
	.st1{fill:#819097;}
	.st2{fill:#FEFEFE;}
</style>
<g>
	<path class="st0" d="M53.5,36.1c0.6-0.3,1.1-0.2,1.6-0.2c13.3,0,26.5,0,39.8,0c1.3,0,1.7,0.3,1.7,1.6c-0.1,19,0,38,0,57
		c0,8.8-5.8,16.4-14.2,18.9c-2.5,0.7-5,1.1-7.6,1.1c-18.4,0-36.8,0-55.3,0c-1.3,0-1.7-0.2-1.7-1.6c0.1-13.3,0-26.7,0-40
		c0-0.4,0-0.9,0-1.6c0.6,0.5,1,0.9,1.4,1.3c11,11,22,21.9,33,32.9c0.9,0.9,1.4,1,2.3,0c1.5-1.7,3.1-3.2,4.7-4.7
		c0.7-0.7,0.7-1.1,0-1.8C45.7,85.6,32.4,72.3,19,59c-1-0.9-1.1-1.5,0-2.4c1.8-1.6,3.5-3.3,5.1-5.1c0.8-0.9,1.3-0.9,2.2,0
		C39.6,64.8,52.9,78,66.2,91.3c0.9,0.9,1.4,1.1,2.3,0c1.6-1.8,3.3-3.4,5-5c0.9-0.8,1-1.3,0-2.2C61.7,72.4,49.9,60.7,38.1,48.9
		c-1.6-1.6-3.2-3.2-4.8-4.8c-0.6-0.6-0.9-1-0.1-1.8c2-2,4-4,6-6c0.5-0.5,0.8-0.5,1.2,0c0.2,0.3,0.5,0.5,0.7,0.8
		c13.2,13.2,26.5,26.4,39.7,39.7c0.9,0.9,1.4,1,2.2,0c1.4-1.6,2.9-3.1,4.5-4.5c0.9-0.8,0.9-1.3,0-2.2c-11-10.9-21.9-21.8-32.8-32.7
		C54.4,37,54,36.6,53.5,36.1z"/>
	<path class="st1" d="M170.3,61.5c7.1,2.3,10,7.7,10.2,13c0.2,7.5-3,12.9-9.4,15.6c-4.2,1.8-8.6,2.4-13.1,2.4c-9.6,0-19.3,0-28.9,0
		c-1.2,0-1.5-0.3-1.5-1.5c0-17.9,0-35.8,0-53.6c0-1,0.1-1.5,1.4-1.5c10.2,0.1,20.5,0,30.7,0.1c3.9,0,7.6,0.8,11.1,2.4
		c4.5,2.1,6.9,5.7,7.2,10.7c0.3,4.6-1.5,8.3-5.4,11C171.9,60.5,171.1,61,170.3,61.5z"/>
	<path class="st1" d="M512.8,70.2c0-0.5,0-1.1,0-1.6c0-10.4,0-20.8,0-31.1c0-1.2,0.3-1.6,1.6-1.6c4,0.1,8.1,0.1,12.1,0
		c1,0,1.4,0.2,1.4,1.3c0,18,0,36.1,0,54.1c0,1-0.4,1.3-1.3,1.3c-4.6,0-9.3,0-13.9,0c-1,0-1.4-0.4-1.9-1.1
		c-6-10.1-12.1-20.2-18.1-30.4c-0.7-1.1-1.4-2.2-2.3-3.4c0,0.5,0,1,0,1.5c0,10.6,0,21.2,0,31.7c0,1.4-0.4,1.7-1.7,1.6
		c-4-0.1-8.1-0.1-12.1,0c-1,0-1.3-0.3-1.3-1.3c0-18,0-36.1,0-54.1c0-1,0.3-1.3,1.3-1.3c4.5,0,9.1,0.1,13.6,0c1.1,0,1.7,0.3,2.3,1.3
		c5.8,9.8,11.7,19.5,17.6,29.2c0.8,1.3,1.6,2.6,2.4,3.9C512.6,70.3,512.7,70.2,512.8,70.2z"/>
	<path class="st1" d="M291.2,66.1c6,1.9,7.8,6.6,8.6,11.9c0.5,3.5,0.5,7,1.2,10.5c0.3,1.3,0.6,2.6,1.3,3.8c-0.2,0.4-0.5,0.2-0.8,0.2
		c-4.5,0-9.1,0-13.6,0c-1.1,0-1.5-0.4-1.8-1.4c-0.7-2.6-0.8-5.3-1.1-7.9c-0.2-1.9-0.4-3.7-0.9-5.5c-1-3.8-3.6-5.8-7.5-5.8
		c-3.8-0.1-7.6,0-11.4,0c-1,0-1.2,0.4-1.2,1.3c0,5.9,0,11.9,0,17.8c0,1.2-0.3,1.5-1.5,1.5c-4.2-0.1-8.4-0.1-12.6,0
		c-1,0-1.3-0.2-1.3-1.3c0-18,0-36.1,0-54.1c0-1,0.3-1.3,1.3-1.3c10.4,0,20.9-0.1,31.3,0.1c5.7,0.1,11.1,1.5,15.3,5.7
		c7,6.9,4.6,19.8-4.3,23.9C292.1,65.7,291.8,65.8,291.2,66.1z"/>
	<path class="st1" d="M213.8,34.4c7.3,0,14.1,1.6,19.9,6.3c5.7,4.7,9,10.8,10,18.1c1,6.9,0.4,13.7-2.9,20
		c-4.6,8.9-12.2,13.7-22.1,14.9c-6.6,0.8-13,0.3-19.1-2.6c-8.7-4.1-13.8-11.1-15.4-20.5c-1.3-7.2-0.7-14.4,2.7-21
		c4.5-8.7,11.9-13.4,21.5-14.8C210.2,34.5,212,34.4,213.8,34.4z"/>
	<path class="st1" d="M321.5,54.8c0,5.3,0,10.6,0,15.9c0,8.3,5.2,11.2,12.3,10.4c5.8-0.6,8.6-3.8,8.7-9.7c0.1-11.2,0.1-22.5,0-33.7
		c0-1.6,0.4-1.9,1.9-1.9c4.2,0.1,8.5,0.1,12.7,0c1,0,1.4,0.3,1.4,1.3c-0.1,11.4,0.1,22.8-0.1,34.2c-0.1,5.7-1.4,11.1-5.3,15.5
		c-2.6,2.9-5.9,4.7-9.6,5.7c-7.7,2-15.4,2-23,0c-8.2-2.2-12.8-7.8-14.4-16c-0.4-2.3-0.6-4.7-0.6-7.1c0-10.7,0-21.4,0-32
		c0-1.4,0.4-1.7,1.7-1.7c4.2,0.1,8.5,0.1,12.7,0c1.2,0,1.6,0.3,1.6,1.6C321.5,43.3,321.5,49,321.5,54.8z"/>
	<path class="st1" d="M387.3,94c-7.9-0.1-15.2-2.1-21.5-7.3c-1.8-1.5-3-3.4-3.9-5.5c-0.3-0.7-0.2-1,0.6-1.3
		c3.9-1.3,7.7-2.6,11.6-3.9c0.8-0.3,1.2-0.1,1.6,0.6c3.9,6,13.2,7,18.7,3.7c1.7-1,2.6-2.4,2.6-4.3c0-1.8-1.1-3-2.6-3.7
		c-2.8-1.4-5.8-1.8-8.8-2.7c-4.2-1.2-8.5-2.2-12.5-4c-4.2-1.9-7.8-4.4-9.4-9c-2.2-6.2-0.1-13,5.3-16.9c4.5-3.2,9.6-4.6,15-5
		c5.8-0.4,11.6,0.1,17,2.6c3.3,1.5,6.1,3.5,8.1,6.6c0.5,0.7,0.5,1.2-0.4,1.6c-3.6,1.7-7.2,3.5-10.7,5.3c-0.5,0.3-0.8,0.2-1.3-0.2
		c-4.3-3.8-9.2-4.9-14.7-3.5c-1.6,0.4-2.7,1.5-2.8,3.3c-0.2,1.7,0.9,2.7,2.2,3.4c3.2,1.8,6.8,2.2,10.2,3.1c4.4,1.2,8.9,2.3,13,4.4
		c5.2,2.7,8.6,6.7,8.7,12.8c0.1,6.4-2.2,11.6-7.8,15.1C400.1,92.4,394,94,387.3,94z"/>
	<path class="st1" d="M410.2,92.3c1.4-3.4,2.7-6.8,4.1-10.2c6-14.9,11.9-29.8,17.9-44.7c0.5-1.2,1-1.6,2.3-1.5
		c4.4,0.1,8.8,0.1,13.2,0c1,0,1.5,0.2,1.9,1.2c7.2,18,14.4,36,21.6,53.9c0.4,1.1,0.5,1.6-0.9,1.5c-4.6-0.1-9.2-0.1-13.8,0
		c-1.1,0-1.5-0.4-1.8-1.3c-0.9-2.6-1.9-5.1-2.8-7.7c-0.3-0.7-0.6-1.1-1.5-1.1c-6.4,0-12.7,0-19.1,0c-0.8,0-1.1,0.3-1.4,1
		c-1,2.6-2,5.3-2.9,7.9c-0.2,0.6-0.4,1.2-1.3,1.2c-5,0-10,0-15,0C410.5,92.5,410.4,92.4,410.2,92.3z"/>
	<path class="st2" d="M151.3,80.7c-2.5,0-4.6,0-6.8,0c-0.9,0-1.1-0.3-1.1-1.1c0-3.6,0-7.1,0-10.7c0-0.7,0-1.2,0.9-1.1
		c4.7,0.1,9.5-0.3,14.2,0.2c4.5,0.5,6.6,3.6,5.8,8c-0.4,2.3-2.4,3.9-5.2,4.4C156.5,80.9,153.7,80.6,151.3,80.7z"/>
	<path class="st2" d="M150.8,47.4c2,0,3.9-0.1,5.9,0c3.2,0.1,5.2,1.9,5.3,4.8c0.1,3.1-1.8,5.5-5,5.7c-4.2,0.2-8.5,0.1-12.7,0.2
		c-0.6,0-0.9-0.2-0.9-0.9c0-3,0-5.9,0-8.9c0-0.9,0.5-0.9,1.2-0.9C146.7,47.4,148.7,47.4,150.8,47.4
		C150.8,47.4,150.8,47.4,150.8,47.4z"/>
	<path class="st2" d="M271.9,60.4c-2.2,0-4.3,0-6.5,0c-0.9,0-1.3-0.2-1.3-1.2c0.1-3.4,0.1-6.8,0-10.3c0-1,0.4-1.2,1.3-1.2
		c4,0,8,0,12,0c1,0,2,0.1,3,0.4c3.4,0.8,4.8,3.1,4.4,7c-0.3,3.1-2.6,5.1-6.2,5.3C276.3,60.5,274.1,60.4,271.9,60.4
		C271.9,60.4,271.9,60.4,271.9,60.4z"/>
	<path class="st2" d="M213.7,81.1c-7.6,0-13-5.3-13.9-13.3c-0.4-4.1-0.3-8,1.2-11.9c2.3-5.8,6.6-8.6,12.9-8.6
		c6.2,0,10.4,2.9,12.6,8.7c2.1,5.6,2,11.4-0.2,16.9C224.1,78.4,219.7,81.1,213.7,81.1z"/>
	<path class="st2" d="M434,71.4c2.3-6.6,4.5-13,6.9-19.8c0.7,1.9,1.3,3.6,1.9,5.3c1.5,4.3,2.9,8.7,4.4,13c0.4,1.1,0.4,1.6-1,1.5
		C442.2,71.3,438.2,71.4,434,71.4z"/>
</g>
</svg>
