<?xml version="1.0" encoding="utf-8"?>
<!-- Generator: Adobe Illustrator 28.0.0, SVG Export Plug-In . SVG Version: 6.00 Build 0)  -->
<svg version="1.1" id="Capa_1" xmlns="http://www.w3.org/2000/svg" xmlns:xlink="http://www.w3.org/1999/xlink" x="0px" y="0px"
	 viewBox="0 0 496.7 228.9" style="enable-background:new 0 0 496.7 228.9;" xml:space="preserve">
<style type="text/css">
	.st0{fill-rule:evenodd;clip-rule:evenodd;fill:#083390;}
	.st1{fill-rule:evenodd;clip-rule:evenodd;fill:#29B683;}
	.st2{fill-rule:evenodd;clip-rule:evenodd;fill:#00B4C3;}
	.st3{fill-rule:evenodd;clip-rule:evenodd;fill:#7DBA00;}
	.st4{fill-rule:evenodd;clip-rule:evenodd;fill:#55B841;}
	.st5{fill-rule:evenodd;clip-rule:evenodd;fill:#01B8E0;}
	.st6{fill-rule:evenodd;clip-rule:evenodd;fill:#0298CD;}
	.st7{fill-rule:evenodd;clip-rule:evenodd;fill:#0655A4;}
	.st8{fill-rule:evenodd;clip-rule:evenodd;fill:#0475B7;}
</style>
<g>
	<g>
		<path class="st0" d="M87,211.9h-1.3c-44.8-4.3-29-72.8,14.9-53l1,0.3l-3.3,8.3l-1.7-0.7c-35.7-16.2-36.6,48.4,1.3,34.5l1.3-0.7
			l2.3,7.6l-0.7,0.3c-1.8,1.7-10.4,3.4-12.9,3.3L87,211.9z M123.1,178.5h-0.7l-0.7,0.3h-1l-0.7,0.3h-0.3l-0.7,0.3l-0.3,0.3l-0.7,0.3
			l-0.3,0.3h-0.3l-0.3,0.7l-1,1l-0.3,0.7l-0.7,0.7v0.7l-0.3,0.3v0.7l-0.3,0.7v0.3l-0.3,0.7c-0.5,3.9-0.5,5.1,0,8.9l0.3,0.7v0.3
			l0.3,0.7v0.7l0.3,0.3v0.7l0.3,0.3l0.3,0.3l0.3,0.7l0.3,0.3l0.3,0.3l0.3,0.3l0.3,0.3c1.1,1.1,2.5,1.9,4,2h3.6
			c1.2-0.1,2.4-0.6,3.3-1.7l0.7-0.3l0.3-0.3l0.3-0.3l0.3-0.3l0.3-0.3l0.3-0.7v-0.3l0.3-0.3l0.3-0.7V198l0.3-0.7v-0.7l0.3-0.3v-0.7
			c0.9-3.9,0.7-4.2,0.3-8l-0.3-1v-0.7l-0.3-0.3v-0.7l-0.3-0.7v-0.3l-0.3-0.7l-0.3-0.3v-0.3l-0.3-0.7l-1-1l-0.3-0.7h-0.7l-0.7-0.7
			l-0.7-0.3l-0.3-0.3h-0.7l-0.3-0.3h-1.3l-0.7-0.3H123.1z M123.1,211.9h-3.3l-1-0.3l-1-0.3h-1l-1-0.3l-1-0.3l-0.7-0.7l-1-0.3l-1-0.3
			l-0.7-0.7l-1-0.7l-0.7-0.7l-2.7-2.7c-2.2-3.4-3.8-7.2-4-11.3v-3.3c0.4-11,6.7-18,17.6-19.9h3.6c25.3,1.7,24.8,39.8,1,41.8
			L123.1,211.9z"/>
		<path class="st0" d="M174.5,211.3v-27.5l-0.3-0.3v-0.7l-0.3-0.3v-0.3l-0.3-0.3v-0.3h-0.3l-0.3-0.3v-0.3l-0.3-0.3l-3.3-1.7h-1.7
			c-2.3-0.1-4.9,0.2-7,1l-1,0.3l-1,0.3v1.7l0.3,29.2h-9.6v-32.1l-0.3-1v-1.7l-0.3-1.7v-0.7l2-0.7c11.5-4.4,33.8-7.1,33.5,10.9v26.8
			L174.5,211.3z M206.3,212.6h-2.7l-0.7-0.3h-1l-0.7-0.3h-0.7l-0.3-0.3l-0.7-0.3h-0.3l-0.7-0.3l-0.7-0.7l-0.7-0.3l-0.3-0.3l-0.3-0.3
			l-0.3-0.3l-0.3-0.7l-0.3-0.3l-0.3-0.3L195,207v-0.3l-0.7-1.3v-1l-0.3-0.7v-24.2l-4.6-0.3v-7.6l4.6-0.3v-10.9h9.6v10.9h11.3v8.3
			h-11.3V202l0.3,0.3v0.7l0.3,0.3h0.3v0.3h0.3l0.3,0.3h0.7l0.7,0.3h1.7l0.7-0.3h1l1-0.3l1-0.3h0.7l1-0.3l0.7-0.3l3,7.6l-1.3,0.7
			c-3.1,0.8-5.7,1.5-8.9,1.7L206.3,212.6z M243.4,179.4l-0.7-0.3c-5-0.9-5.9-0.9-10.9,0.3l-1,0.3h0.3v31.5h-9.6v-30.5
			c-0.2-1.8-0.4-3.6-0.7-5.3v-0.7l2-1l2.3-1c3.4-1.2,5.8-1.5,8.9-2.3h1.3l1-0.3c2.4-0.1,6,0.1,8.3,0.7h0.7l1,0.3L243.4,179.4z
			 M265.9,178.5h-0.7l-0.7,0.3h-1l-0.7,0.3h-0.7l-0.3,0.3l-0.7,0.3l-0.7,0.7h-0.3l-0.3,0.7l-0.3,0.3l-0.7,0.7l-0.3,0.7l-0.7,0.7v0.7
			l-0.3,0.3l-0.3,0.7v0.7l-0.3,0.3v0.7l-0.3,1v7l0.3,1v0.7l0.3,0.3v0.7l0.3,0.7l0.3,0.3v0.7l0.3,0.3l0.3,0.3l0.3,0.7l0.3,0.3
			l0.3,0.3l0.3,0.3l0.3,0.3l1,1l0.7,0.3l0.3,0.3h0.7l0.7,0.3h4.6l0.7-0.3h0.7l0.3-0.3l0.7-0.3l1-1l0.3-0.3l0.7-0.3l0.3-0.3l0.3-0.3
			v-0.7l0.3-0.3l0.3-0.3l0.3-0.7V198l0.3-0.7v-0.7l0.3-0.3v-0.7l0.3-1v-7l-0.3-1v-0.7l-0.3-0.3v-0.7l-0.3-0.7v-0.3l-0.3-0.7
			l-0.7-0.7v-0.7l-0.7-0.7l-0.7-0.3l-0.3-0.7h-0.3l-0.7-0.7l-0.7-0.3l-0.3-0.3h-0.7l-0.7-0.3h-1l-0.7-0.3H265.9z M265.9,211.9h-3.3
			c-10-1.7-16.4-9.5-16.6-19.6v-2.3c0.3-11.1,6.7-18.1,17.6-19.9h3.3c25.4,1.3,25.1,39.8,1.3,41.8L265.9,211.9z"/>
		<path class="st0" d="M301.4,211.3v-59h-9.6v59H301.4z M320.3,211.9h-1c-3,0.1-8.3-0.8-10.9-2l-1.3-0.7l2.7-7.3l1,0.3l1.3,0.3
			l1.3,0.7l1,0.3l1.3,0.3h1.3l0.7,0.3h3.3l0.7-0.3h0.3c1.7-0.5,2.8-1.3,3.3-3v-1.7c-0.6-5.4-12.7-5.7-15.6-11.6l-0.7-0.7l-1-3v-4.6
			l0.3-0.7l0.3-0.3v-0.7l1-2l0.3-0.3l0.3-0.7l0.7-0.3l0.3-0.3l0.7-0.3l0.3-0.7l1.3-0.7l0.3-0.3h0.7l2-1h0.3l0.7-0.3h0.7l0.7-0.3h1.3
			l0.7-0.3h3.3c2.7,0.2,5.1,0.9,7.6,1.3l1.3,0.7l0.3,0.3l0.7,0.3l-2.7,7.3l-1-0.3l-1-0.3l-1.3-0.3l-1-0.3l-1.3-0.3h-2l-1.3-0.3h-0.3
			l-0.3,0.3h-1.7l-0.7,0.3l-0.3,0.3H319l-0.3,0.3v0.3l-0.7,0.7v1l-0.3,0.3l0.3,0.7v0.7l0.3,0.3l0.3,0.7l0.3,0.3l0.7,0.3l0.3,0.3
			l1.3,0.7l0.7,0.3l1,0.3l0.7,0.3l3.3,1.3l1,0.3l0.7,0.3l1,0.7c3.5,1.3,6.4,5.7,6.3,9.3l0.3,1.3l-0.3,1v1.3l-0.3,0.7v0.7l-1.3,2.7
			l-0.3,0.3l-0.3,0.7l-0.7,0.3l-0.3,0.7l-0.7,0.3l-0.7,0.3l-0.3,0.3l-0.7,0.3c-1.7,1.1-6,2.3-8,2.3H320.3z M17.7,144l-1,0.3
			c-2.2,0.8-4.4,1.3-6.6,2l-1.3,0.3L7.1,138l0.7-0.3h1l0.7-0.3h0.7l1-0.3h0.7l0.7-0.3h0.7l0.7-0.3l0.3-0.3h0.3l0.7-0.3l0.3-0.3h0.3
			L16,135l0.3-0.3l0.3-0.3L17,134v-0.3l0.7-0.7v-0.3l0.3-0.3v-0.3l0.3-0.7c0.4-1.1,0.8-3.8,0.7-5V83.3H29v39.1
			c0.5,8.4-1.3,18.2-10.3,21.2L17.7,144z"/>
		<path class="st0" d="M55.1,105.2h-2l-0.7,0.3c-1.8,0.2-2.8,1.5-4.3,2.7l-0.3,0.3v0.7l-0.3,0.3l-0.3,0.7l-0.3,0.3v0.7l-0.3,0.3v0.7
			l-0.3,0.3v0.7l-0.3,1v1.3l-0.3,1v2.3l0.3,1.3c0.1,2.2,0.8,4.5,2,6.3v0.3l0.3,0.3l0.3,0.3l0.3,0.7l0.7,0.3l0.3,0.3h0.3l0.3,0.3
			l0.7,0.3l0.3,0.3h0.7l0.3,0.3h1.3l0.7,0.3h1.3l0.7-0.3h1l0.7-0.3h0.3l0.7-0.3l0.3-0.3l0.7-0.3h0.3l0.7-0.7l0.3-0.7l0.3-0.3
			l0.3-0.3l0.3-0.3l0.3-0.7l0.3-0.3v-0.7l0.3-0.3l0.3-0.7v-0.3l0.3-0.7v-0.7l0.3-1v-6.6l-0.3-1.3v-0.3l-0.3-0.7v-0.7l-0.3-0.3
			l-0.3-0.7v-0.3l-0.3-0.7l-0.3-0.3l-0.3-0.3c-1-1.7-2.8-3.2-4.6-3.3l-0.3-0.3L55.1,105.2z M55.1,138.4h-2.3
			c-24.2-1.9-23.6-41,1-41.4l1.3-0.3l1,0.3c24.7,0,25.6,39.7,1.3,41.4H55.1z M106.8,137.7v-26.8l-0.3-0.7v-1l-0.3-0.3l-0.7-1.3
			l-1.3-1.3l-1.3-0.7h-0.7l-0.7-0.3c-3.1-0.2-5.8,0.3-8.6,1.7l-1,0.7l-1,0.3v29.8h-9.6V79h9.6v20.2l1.3-0.3l1.7-0.7
			c5.1-1.6,10.6-2.2,15.6-0.3l0.3,0.3l0.7,0.3c4,2,6.2,7.2,6,11.6v27.5L106.8,137.7z M149.9,137.7v-27.8l-0.3-0.3v-0.3l-0.3-0.3
			v-0.3c-1.7-1.5-0.5-0.9-1.3-1.7h-0.3l-0.7-0.7h-0.3l-1.3-0.7h-0.7l-0.7-0.3h-1.7c-1.4-0.1-3.9,0.2-5.3,0.7l-1,0.3l-1,0.3l-1,0.3
			v0.3l0.3,0.3v30.2h-9.6v-31.5c0.1-1.4-0.5-3.5-0.7-5v-0.7l2.3-0.7l2-0.7l2.3-0.7c2-0.6,7.2-1.9,9.3-1.7h2.3c2.9,0,4.1-0.2,7,0.3
			l1.3,0.7h0.7l1,0.3l1.3,0.7l0.3,0.3l0.7,0.3l0.7,0.7l0.7,0.3l0.3,0.7l0.7,0.3l1,2l0.7,0.7v0.7l0.7,1.3v1l0.3,1v0.7l0.3,1v27.8
			L149.9,137.7z M178.4,138.4h-1c-3.7,0.2-7.1-0.8-10.6-2l-1.7-0.3l3-7.6l1,0.3l1.3,0.7l1,0.3l1.3,0.3c3,1,3.1,0.6,6,0.7h1l0.7-0.3
			h0.3l0.7-0.3l0.3-0.3h0.3l0.7-0.3l0.3-0.3v-0.7l0.3-0.3l0.3-0.7v-2.3l-0.3-0.3l-0.7-1.3l-0.7-0.3l-0.3-0.3l-0.7-0.3l-2-1l-1-0.3
			c-2.7-2.2-5.9-1.9-8.3-5l-2-2l-0.3-0.7l-0.7-2c-1.1-5.1-0.6-2.6,0-6.6l0.7-1.3c1.5-2.4,1.3-2.7,4-4l0.3-0.7l0.7-0.3h0.7l0.7-0.3
			l0.3-0.3h0.7l1.3-0.7h0.7l0.7-0.3h2.3l1.3-0.3l1,0.3h3l0.7,0.3h1.7l1.3,0.7l1.3,0.3h0.7l2,1l-2.7,7.3l-1-0.3l-1.3-0.3l-1-0.3
			l-1.3-0.3c-2.1,0-1.4-0.6-4.6-0.3h-2l-0.3,0.3h-0.3l-0.3,0.3h-0.3l-0.3,0.3l-0.3,0.3l-0.3,0.3v0.3l-0.3,0.7v1.3l0.3,0.7v0.3
			l0.3,0.7l0.7,0.3l0.3,0.3l3.3,1.7l1,0.3l1.7,0.7c5,2.1,8.3,3.6,10.3,8.9v1.3l0.3,1c0,4.7-0.4,6.8-4,9.9l-0.7,0.3l-0.7,0.3
			l-0.3,0.7H188l-2.7,1.3h-0.7l-0.7,0.3h-0.7c-1.8,0.2-1.1,0.5-3.6,0.3L178.4,138.4z"/>
		<path class="st0" d="M218.9,105.2h-2l-0.7,0.3h-0.3l-0.7,0.3h-0.7l-0.3,0.3l-0.3,0.3l-0.7,0.3l-1.7,1.7l-0.3,0.7l-0.3,0.3v0.7
			l-0.3,0.3l-0.3,0.7v0.3l-0.3,0.7v1l-0.3,1l-0.3,1.3v4.6l0.7,2v1.3l0.3,0.3v0.7l0.3,0.3l0.3,0.7v0.3l0.3,0.7l0.3,0.3l0.3,0.3
			l0.3,0.3l0.3,0.7l0.7,0.7h0.7l0.3,0.3l0.3,0.3l0.7,0.3h0.7l0.3,0.3h1.3l0.7,0.3h1l0.7-0.3h1.3l0.7-0.3h0.3l0.7-0.3l0.7-0.7h0.7
			l0.7-0.7l0.3-0.7l0.3-0.3l0.3-0.3l0.3-0.3l0.3-0.7v-0.3l0.3-0.7l0.3-0.3v-0.7l0.3-0.3v-0.7l0.3-0.7v-1l0.3-1v-4.6l-0.3-1v-1.3
			l-0.3-0.3v-0.7l-0.3-0.7v-0.3l-0.3-0.7l-0.3-0.3v-0.7l-0.3-0.3l-0.3-0.3l-0.3-0.7l-1.3-1.3l-0.7-0.3l-0.7-0.7h-0.7l-0.3-0.3h-0.7
			l-0.7-0.3L218.9,105.2z M218.9,138.7l-1.3-0.3h-1c-24.4-1.6-23.8-41.2,1-41.4l1.3-0.3l1,0.3h2.3c5,0.8,6.7,2.2,10.6,5l0.7,0.7
			l0.7,0.7l0.3,1l0.7,0.7l0.7,1l0.3,0.7l0.7,1l0.3,1l0.3,0.7l0.7,2v1l0.3,1l0.3,1.3v4.3c0,3.7-1.4,8.6-3.6,11.6l-0.7,0.7l-0.3,1
			c-2.7,2.7-7,5.7-10.9,6l-1,0.3h-2.3L218.9,138.7z M270.6,137.7v-26.2l-0.3-0.7v-1l-0.3-0.3v-0.7l-0.3-0.3v-0.3h-0.3l-0.3-0.3v-0.3
			l-0.7-0.7h-0.3v-0.3l-0.3-0.3h-0.3l-1.3-0.7h-1l-0.7-0.3h-1.7c-1.4-0.1-5,0.5-6.3,1l-1,0.3l-0.7,0.3v30.8h-9.6v-31.5
			c0.2-3.4-0.5-2.2-0.3-5l-0.3-0.7l4.6-1.3l2-0.7c2-0.6,7.2-1.9,9.3-1.7h1.3l1-0.3l1,0.3h4.3l0.7,0.3h1l1.3,0.7h1
			c5.2,2.1,8,6.4,8.3,11.9v27.8H270.6z"/>
	</g>
	<path class="st1" d="M459.5,27.3l-0.7-1l-1-0.7l-0.7-1l-1-0.7l-2,1c-9.3,4.8-18.2,10.3-25.2,18.2l-1.7,1.3l0.7,2.7
		c3.1,26.1,2.2,49.5-7,74.2l-0.7,1.3l1,1.7c3.9,6.8,11.7,15.3,18.2,19.6l1.7,1.3l1-0.7c1.9-1.4,4.3-2.1,5.3-3.3l1-0.7l-1.3-1.3
		c-27.5-34.2-23.1-82.2,10.6-110.7L459.5,27.3z"/>
	<path class="st2" d="M442.2,14.1l-2-1.3l-1-0.3l-1-0.7l-2.3,1c-4,2.3-8.2,4.2-11.9,7l-1.7,1l0.3,1.3l2,8l0.3,1.3l2-2.3
		c3.9-4.7,8.6-8.7,12.9-12.9L442.2,14.1z M420.4,152.6l1.3-0.3c2.9-0.4,4.2-0.9,7-1.7l1-0.3L428,148c-3.9-4.2-7.7-8.6-10.6-13.6
		l-1.7-2.3l-1,1.3c-0.7,2.7-3.9,5.9-5,8l-1,1.3l1.3,1.3c2.9,3.2,5.7,4.9,8.9,7.6L420.4,152.6z"/>
	<path class="st3" d="M478.7,62.1l-1.3,1.3c-15.5,14.2-18.2,34.7-7.3,52.7l0.3,0.7l1.3-2c7.9-14.5,11.4-34.3,7.3-50.4L478.7,62.1z"
		/>
	<path class="st4" d="M455.8,85.7v-1.3c1.9-13.8,6.7-27.6,15.6-38.4l1-1l-0.7-1l-0.7-1.3l-0.7-1l-0.3-1l-2,1
		c-35.4,20.7-40.9,62-11.6,90.5l1,1.3l1-1c1.2-1.4,3.5-3.1,4.3-4.6l0.7-0.7l-0.7-1c-6.1-12.9-8.3-24.8-7.3-39.1L455.8,85.7z"/>
	<path class="st5" d="M354.1,25.7l-1,1c-11.9,11.8-20.3,29-21.2,45.7l-0.3,1.7l1-1c12-12,18.6-29.3,21.5-45.7V25.7z"/>
	<path class="st6" d="M369,14.4l-1,0.7l-0.7,0.3l-1,0.7c-2.1,1.9-3.6,14.2-5.3,18.2l-1,2.7l-0.7,2.7c-2.6,6.5-4,13.6-8,19.6l-2,4.6
		l-1,2l-1.3,2c-2.2,4.8-5.5,8.8-8.3,13.3l-1.3,2l-1.3,1.7c-5.7,7.3-4.3,3.3-2.7,11.9l1,4l2.7-2c24.9-16.3,34.1-53.5,31.8-81.5
		L369,14.4z"/>
	<path class="st0" d="M429.7,64.4v-2l-0.3-2c-0.3-10-2.3-19-4-28.8l-0.7-2l-0.3-1.7l-0.3-2c-1.1-2.2-1.6-6.4-2.7-8.6l-0.7-2
		l-0.3-1.7l-3.3-8.3l-1-0.3h-2.3l-1-0.3l0.7,5.3c4.4,46.3,2,99.6-30.5,136.2l-3,3l1,0.3l1.3,0.7l1,0.3c3.5,1.3,5.8,1.2,9.3,2.3h1.3
		l1,0.3h1.3l1.3,0.3h1l4-3.3l8.3-9.9l1.7-2.3l1.3-2.3c11.8-18.9,16.3-41.6,15.9-63.6L429.7,64.4z"/>
	<path class="st7" d="M400.5,4.8h-1l-1,0.3h-2.3l0.3,3.6c0.4,41.4-7,92.2-38.1,122.3l-3.3,3l1.3,1c1.8,1.9,6,4.9,8.3,6.3l1.3,1
		l4.3-3c39.8-30.6,42.9-85.5,31.5-130.6L400.5,4.8z"/>
	<path class="st8" d="M383.9,7.8l-0.7,0.3l-3,1v3.6c-3,35.6-11.8,72.2-38.1,98.1l-2.7,2.3l0.7,1.7c1.4,2.7,3.3,5.1,5,7.6l0.7,1.3
		l3.6-2.3c33.9-23.5,42.2-71.8,35.5-110L383.9,7.8z"/>
</g>
</svg>
