<?xml version="1.0" encoding="utf-8"?>
<!-- Generator: Adobe Illustrator 28.0.0, SVG Export Plug-In . SVG Version: 6.00 Build 0)  -->
<svg version="1.1" id="Capa_1" xmlns="http://www.w3.org/2000/svg" xmlns:xlink="http://www.w3.org/1999/xlink" x="0px" y="0px"
	 viewBox="0 0 1003 229.3" style="enable-background:new 0 0 1003 229.3;" xml:space="preserve">
<style type="text/css">
	.st0{fill:#0071CE;}
</style>
<polygon class="st0" points="258.4,43.7 317.8,43.7 317.8,185.9 258.4,185.9 "/>
<path class="st0" d="M226.2,43.3h-54c0,0,0,40.5,0,64.8c-19.9-25.3-51.8-64.8-51.8-64.8H43.1v142.8h65.3c0,0,0-43,0-67.3
	c20.1,25.3,54.3,67.3,54.3,67.3h73.2V43.3H226.2L226.2,43.3z"/>
<path class="st0" d="M683.6,134.5c0,14-6.9,20.1-22.6,20.1l0,0c-2.7,0.2-5.6,0.2-8.8,0.2H604c-2,0-3.9,0-5.7-0.2h-1.9
	c-15.9,0-22.6-6.1-22.6-20.2V93.8c0-14.3,6.7-20.2,22.6-20.2h64.3c15,0,21.6,5.2,22.6,17.7c9.4,0,30.7,0,35.1,0
	c0-16.9-1.9-28.9-9.3-36.4c-8.8-8.8-26.5-12.7-59.4-12.7h-53c-38,0-61.6,8.3-61.6,49.9V136c0,41.7,23.5,49.9,61.6,49.9h72.6
	c44.7,0,51-19.7,51-41c0,0,0-6.9,0-10.6C715.7,134.5,691.7,134.5,683.6,134.5L683.6,134.5z"/>
<path class="st0" d="M891.5,137c0,20.9-12.7,25.6-28.2,25.6h-73.4c-15.7,0-28.2-4.6-28.2-25.6V91.8c0-20.9,12.7-25.6,28.2-25.6h73.6
	c15.7,0,28.2,4.6,28.2,25.6V137H891.5z M731.4,133.8c0,35.8,12,52.8,50.3,52.8h89.9c38.3,0,50.3-17,50.3-52.8V95
	c0-35.8-12-52.8-50.3-52.8h-90.1c-38.3,0-50.3,17-50.3,52.8v38.8H731.4z"/>
<path class="st0" d="M498.8,114.4v-0.7c12.1-3.4,20.9-8.3,20.9-32.7c0-27.8-16.9-37.3-51.8-37.3H339.5v142.4h141.7
	c25,0,43.5-6.4,43.5-37.8C525,127,518.1,116.9,498.8,114.4L498.8,114.4z M474.2,89.2c0,8.6-5.1,11.8-13.7,11.8h-73.1V77.3h73.1
	C469.1,77.3,474.2,80.5,474.2,89.2L474.2,89.2z M461.4,152.9h-74.1v-23.6h74.1c10.1,0,16.9,2.4,16.9,12.7
	C478.1,150.7,471.5,152.9,461.4,152.9L461.4,152.9z"/>
<path class="st0" d="M947.9,77.3c-6.7,0-13.2-5.4-13.2-12.7s5.9-12.7,13.2-12.7S961,57.3,961,64.6S954.8,77.3,947.9,77.3L947.9,77.3
	z M947.9,79.6c8.3,0,15.2-6.7,15.2-15.2s-6.7-15.2-15.2-15.2c-8.3,0-15.2,6.7-15.2,15.2C932.9,72.9,939.6,79.6,947.9,79.6
	L947.9,79.6z M949.9,64.9c2.9,0,4.9-1.5,4.9-4.4c0-3.4-2.9-4.4-5.9-4.4h-7.3v16.5h2.4v-7.8h2.9l4.9,7.8h2.9L949.9,64.9L949.9,64.9z
	 M944.5,62.6v-4.4h4.4c1.5,0,4.4,0.5,4.4,2c0,2.4-3.9,2-5.4,2h-3.4L944.5,62.6L944.5,62.6z"/>
</svg>
