<?xml version="1.0" encoding="utf-8"?>
<!-- Generator: Adobe Illustrator 28.0.0, SVG Export Plug-In . SVG Version: 6.00 Build 0)  -->
<svg version="1.1" id="Capa_1" xmlns="http://www.w3.org/2000/svg" xmlns:xlink="http://www.w3.org/1999/xlink" x="0px" y="0px"
	 viewBox="0 0 213.6 57.7" style="enable-background:new 0 0 213.6 57.7;" xml:space="preserve">
<style type="text/css">
	.st0{fill:#CF0A2C;}
</style>
<path d="M103.7,43.4h5l-0.2,0.8h-2l-1.5,7.5h-0.9l1.5-7.5h-2.1L103.7,43.4z"/>
<path d="M108.8,51.7h-0.8l1.7-8.3h0.8l-0.6,2.8h0c0.5-0.5,1-0.8,1.6-0.8c0.9,0,1.3,0.5,1.1,1.6l-1,4.8h-0.8l0.9-4.5
	c0.1-0.6,0-1.1-0.7-1.1c-0.3,0-0.6,0.1-0.9,0.3c-0.4,0.3-0.5,0.7-0.6,1.1L108.8,51.7z"/>
<path d="M116.5,48c0.1-0.7,0.4-1.9-0.6-1.9c-1,0-1.2,1.1-1.4,1.9H116.5z M117,49.7c-0.2,1.2-1,2.2-2.2,2.2c-1.1,0-1.7-0.8-1.2-3.3
	c0.3-1.3,1-3.2,2.5-3.2c1.9,0,1.4,1.9,1.2,3.3h-2.9c-0.1,0.8-0.6,2.4,0.6,2.4c0.8,0,1.2-0.8,1.3-1.5H117L117,49.7z"/>
<path d="M125.2,45.6c0.2-0.9-0.1-1.5-0.9-1.5c-1.3,0-1.6,0.8-1.7,1.5c-0.1,0.6,0.1,0.9,0.5,1.1l1.2,0.5c1.4,0.6,1.5,1.1,1.3,2.2
	c-0.3,1.6-1.4,2.5-3,2.5c-0.8,0-1.7-0.2-1.9-1.3c-0.1-0.4,0.1-1.1,0.1-1.5h0.9c-0.3,1.2-0.2,2,1.1,2c0.9,0,1.6-0.5,1.8-1.5
	c0.3-1.3-0.2-1.3-1-1.6c-0.4-0.2-1-0.4-1.4-0.6c-0.7-0.4-0.7-1.1-0.6-1.9c0.3-1.4,1.4-2.3,2.7-2.3c1.4,0,2.2,0.8,1.8,2.4L125.2,45.6
	L125.2,45.6z"/>
<path d="M127,45.6h0.9l0.2,5.3h0l2.4-5.3h0.9l-2.9,5.9c-0.2,0.4-0.6,1.3-0.9,1.6c-0.4,0.6-0.9,0.8-1.5,0.8c-0.2,0-0.4,0-0.6-0.1
	l0.2-0.8c0.2,0.1,0.4,0.1,0.6,0.1c0.8,0,0.9-0.6,1.3-1.2L127,45.6z"/>
<path d="M132,51.7h-0.8l1.3-6.2h0.8l-0.2,0.8h0c0.4-0.5,1-1,1.6-1c0.6,0,1.1,0.4,1.2,1c0.5-0.6,1-1,1.8-1c0.4,0,0.7,0.1,1,0.4
	c0.3,0.4,0.1,1.1,0.1,1.4l-0.9,4.5h-0.8l0.9-4.5c0.1-0.7,0-1.1-0.7-1.1c-0.3,0-0.6,0.1-0.9,0.3c-0.4,0.3-0.5,0.7-0.6,1.1l-0.8,4.1
	H134l0.9-4.5c0.1-0.6,0-1.1-0.7-1.1c-0.3,0-0.6,0.1-0.9,0.3c-0.4,0.3-0.5,0.7-0.6,1.1L132,51.7z"/>
<path d="M140.7,48.8c0.2-0.9,0.5-2.7,1.7-2.7c1.1,0,0.8,1.6,0.6,2.4c-0.3,1.7-0.8,2.6-1.6,2.6C140.3,51.2,140.6,49.7,140.7,48.8z
	 M140.3,51L140.3,51c0.2,0.7,0.7,0.9,1.2,0.9c1.6,0,2.2-1.9,2.5-3.7c0.3-1.3,0.2-2.9-1.3-2.9c-0.5,0-0.9,0.2-1.4,0.8h0l0.6-2.8H141
	l-1.7,8.3h0.8L140.3,51z"/>
<path d="M148.3,48.7c-0.3,1.5-0.7,2.4-1.7,2.4c-1,0-1-1-0.7-2.4c0.4-1.9,0.9-2.6,1.8-2.6C148.5,46.1,148.7,46.9,148.3,48.7z
	 M149.3,48.4c0.4-1.9,0-3-1.5-3c-1.4,0-2.3,1.2-2.7,3c-0.5,2.7,0.1,3.5,1.4,3.5C147.8,51.9,148.7,51.1,149.3,48.4z"/>
<path d="M149.9,51.7l1.7-8.3h0.8l-1.7,8.3H149.9z"/>
<path d="M158.6,48.7c-0.3,1.5-0.7,2.4-1.7,2.4c-1,0-1-1-0.7-2.4c0.4-1.9,0.9-2.6,1.8-2.6C158.8,46.1,159,46.9,158.6,48.7z
	 M159.5,48.4c0.4-1.9,0-3-1.5-3c-1.4,0-2.3,1.2-2.7,3c-0.5,2.7,0.1,3.5,1.4,3.5C158,51.9,159,51.1,159.5,48.4z"/>
<path d="M161.5,46.3h-0.9l0.2-0.7h0.8l0.1-0.5c0.1-0.4,0.2-0.9,0.5-1.2c0.4-0.4,0.9-0.5,1.6-0.4l-0.2,0.7c-0.7-0.1-0.9,0-1.1,0.8
	l-0.1,0.7h0.9l-0.1,0.7h-0.9l-1.1,5.4h-0.8L161.5,46.3z"/>
<path d="M168.3,44.2h0.9c1.1,0,1.8,0.2,1.6,1.5c-0.3,1.4-1.1,1.6-2.3,1.6h-0.9L168.3,44.2z M166.8,51.7l0.7-3.5h0.5
	c0.6,0,1.5,0,2.1-0.2c0.9-0.4,1.4-1.3,1.6-2.2c0.1-0.7,0.1-1.3-0.3-1.8c-0.4-0.5-1.1-0.5-1.7-0.5h-2.1l-1.7,8.3L166.8,51.7
	L166.8,51.7z"/>
<path d="M173.6,46.6L173.6,46.6c0.5-0.8,1.1-1.2,2-1.1l-0.2,0.9c-1-0.2-1.8,0.5-2,1.6l-0.8,3.7h-0.8l1.2-6.2h0.8L173.6,46.6z"/>
<path d="M178.9,48.7c-0.3,1.5-0.7,2.4-1.7,2.4c-1,0-1-1-0.7-2.4c0.4-1.9,0.9-2.6,1.8-2.6C179,46.1,179.3,46.9,178.9,48.7z
	 M179.8,48.4c0.4-1.9,0-3-1.5-3c-1.4,0-2.3,1.2-2.7,3c-0.5,2.7,0.1,3.5,1.4,3.5C178.3,51.9,179.3,51.1,179.8,48.4z"/>
<path d="M182.7,45.6h1l-0.2,0.7h-1l-0.9,4.2c0,0.2-0.2,0.5,0.3,0.5h0.6l-0.2,0.7h-0.9c-0.5,0-0.9-0.1-0.7-1l0.9-4.4h-0.8l0.1-0.7
	h0.8l0.3-1.7h0.8L182.7,45.6z"/>
<path d="M184.7,48c0.2-0.7,0.4-1.9,1.4-1.9s0.7,1.1,0.6,1.9H184.7z M186.4,49.7c-0.1,0.7-0.5,1.5-1.3,1.5c-1.2,0-0.7-1.6-0.6-2.4
	h2.9c0.2-1.4,0.7-3.3-1.2-3.3c-1.6,0-2.3,1.9-2.5,3.2c-0.5,2.5,0.1,3.3,1.2,3.3c1.2,0,2-1,2.2-2.2L186.4,49.7L186.4,49.7L186.4,49.7
	z"/>
<path d="M189.2,48.9c-0.2,0.8-0.4,2.2,0.7,2.2c0.9,0,1.2-0.8,1.4-1.6h0.8c-0.3,1.2-0.9,2.3-2.2,2.3c-1.8,0-1.7-1.6-1.4-3.2
	c0.3-1.5,0.9-3.3,2.7-3.3c1.2,0,1.6,1,1.3,2.1h-0.8c0.1-0.7,0.1-1.4-0.7-1.4C189.7,46.1,189.4,48,189.2,48.9z"/>
<path d="M195,45.6h1l-0.2,0.7h-1l-0.9,4.2c0,0.2-0.2,0.5,0.3,0.5h0.6l-0.1,0.7h-0.9c-0.5,0-0.9-0.1-0.7-1l0.9-4.4h-0.8l0.1-0.7h0.8
	l0.3-1.7h0.8L195,45.6z"/>
<path d="M198,44.5l0.2-1.1h-0.8l-0.2,1.1H198z M196.5,51.7l1.2-6.2H197l-1.2,6.2H196.5z"/>
<path d="M201.8,48.7c-0.3,1.5-0.7,2.4-1.7,2.4c-1,0-1-1-0.7-2.4c0.4-1.9,0.9-2.6,1.8-2.6C201.9,46.1,202.2,46.9,201.8,48.7z
	 M202.7,48.4c0.4-1.9,0-3-1.5-3c-1.4,0-2.3,1.2-2.7,3c-0.5,2.7,0.1,3.5,1.4,3.5C201.2,51.9,202.2,51.1,202.7,48.4z"/>
<path d="M205.3,46.2L205.3,46.2c0.5-0.5,1-0.8,1.7-0.8c0.9,0,1.3,0.5,1.1,1.6l-1,4.8h-0.8l0.9-4.5c0.1-0.6,0-1.1-0.7-1.1
	c-0.3,0-0.6,0.1-0.9,0.3c-0.4,0.3-0.5,0.7-0.6,1.1l-0.8,4.1h-0.8l1.2-6.2h0.8L205.3,46.2z"/>
<path d="M44.1,48c0-1,0.8-1.8,1.8-1.8l0,0c1,0,1.8,0.8,1.8,1.8l0,0c0,1-0.8,1.8-1.8,1.8l0,0C44.9,49.8,44.1,49,44.1,48L44.1,48z
	 M44.3,48c0,0.8,0.7,1.5,1.5,1.5l0,0c0.8,0,1.5-0.7,1.5-1.5l0,0c0-0.8-0.7-1.5-1.5-1.5l0,0C45,46.5,44.3,47.2,44.3,48L44.3,48z"/>
<path class="st0" d="M31,3.8C18.4,3.8,8.1,14.1,8.1,26.8c0,12.7,10.3,22.9,22.9,22.9c12.6,0,22.9-10.3,22.9-22.9
	C53.9,14.1,43.7,3.8,31,3.8z M31,45C21,45,12.8,36.8,12.8,26.8C12.8,16.7,21,8.6,31,8.6c10.1,0,18.2,8.1,18.2,18.2
	C49.2,36.8,41.1,45,31,45z"/>
<path class="st0" d="M43.1,22.3c0-5.2-3.5-8.3-8.6-8.3l-12,0l0,26.2h5.6l0-9.4l6.3,0C43,29.8,43.1,24.7,43.1,22.3z M33.1,26.3
	l-5.1,0l0-7.7l4.4,0c3.4,0,5.1,1.1,5.1,3.6C37.5,23.4,37.2,26.3,33.1,26.3z"/>
<path d="M45.2,47H46c0.2,0,0.3,0,0.4,0.1c0.1,0.1,0.1,0.2,0.1,0.3c0,0.1,0,0.1-0.1,0.2c0,0.1-0.1,0.1-0.2,0.1c-0.1,0-0.2,0-0.3,0
	h-0.6V47L45.2,47z M45.2,49.2v-1.1h0.3c0.1,0,0.1,0,0.2,0c0,0,0.1,0,0.1,0.1c0,0,0.1,0.1,0.2,0.2c0.1,0.1,0.1,0.2,0.2,0.3l0.3,0.5
	h0.4l-0.4-0.6c-0.1-0.1-0.2-0.2-0.2-0.3c0,0-0.1-0.1-0.2-0.1c0.2,0,0.4-0.1,0.5-0.2c0.1-0.1,0.2-0.3,0.2-0.4c0-0.1,0-0.2-0.1-0.4
	c-0.1-0.1-0.1-0.2-0.3-0.2c-0.1,0-0.3-0.1-0.5-0.1h-1v2.4L45.2,49.2L45.2,49.2z"/>
<path d="M96.2,14c-8.5-0.2-15.1,6.1-15.1,13.6c0,8.1,6.7,13.8,14.7,13.8c8,0,14.8-5.9,14.8-14C110.6,20.3,104.7,13.9,96.2,14
	L96.2,14z M95.9,16.8c6.4,0,9.2,5.6,9.2,11.4c0,5.9-2.9,10.3-9.1,10.3c-6.3,0-9.7-5.7-9.7-11.3C86.3,21.3,89.7,16.8,95.9,16.8
	L95.9,16.8z"/>
<path d="M58.2,14.1v0.1c2.4,0.8,2.1,3.7,2.1,5.5v15.1c0,1.8,0.3,4.8-2.2,5.5v0.1h9.6v-0.1c-2.6-1.2-2.5-2.8-2.5-5.1V17.2
	c1.1-0.2,2.2-0.2,3.4-0.2c3.8,0,6.8,1.4,6.8,4.9c0,3.9-4.5,6-8.6,6.2c1.1,0.4,2.3,1,3.5,1c5.4,0,10.9-3.4,10.9-8c0-4.5-5.1-7-11.4-7
	L58.2,14.1L58.2,14.1z"/>
<path d="M121.1,17.5h3.5c1.4,0,2.7-0.1,3.3,1.2c0,0-0.3-4.4-1-4.4c0,0-17.2,0.2-17.7,0H109l-0.8,4.4c0,0,2.1-1.3,4.5-1.2h3.4V35
	c0,1.8,0.6,4.6-1.5,5.4v0.1h8.4v-0.1c-2.2-1.2-1.9-2.8-1.9-5L121.1,17.5L121.1,17.5z"/>
<path d="M154.1,27.9h3.3c1.4,0,3.2,0,3.9,1.1h0.1v-4.2h-0.1c-0.5,0.2-1.2,0.2-1.9,0.2h-5.3v-7.3c1.4-0.2,3-0.3,4.5-0.3
	c2,0,3.8,0.2,5.2,1.6h0.1v-4.6h-0.1c-0.6,0.3-1.3,0.2-2.1,0.2h-14.1v0.1c2.3,0.7,2,3.6,2,5.4V35c0,1.8,0.3,4.7-2,5.4v0.1H169l2-5.1
	l-2.5,0.4c-2.2,2.3-2.7,1.9-8.7,1.9l-5.6-0.1L154.1,27.9L154.1,27.9z"/>
<path d="M166,14.7v0.1c2.4,0.7,2.1,3.6,2.1,5.4V35c0,1.8,0.3,4.7-2.1,5.4v0.1h9v-0.1c-2.4-0.7-2.1-3.6-2.1-5.4V17.4
	c1.1-0.2,2.1-0.3,3.2-0.3c3.1-0.1,6.1,1.5,6.1,4.4c0,3.7-4.4,5.1-8.1,5.6l4.3,5.5l4.4,6c1.4,1.5,0.9,1.9,4.2,1.9h4
	c-2.7-1.4-4-3.8-6-5.8l-4.8-6.5c3.9-0.7,6.8-3.8,6.8-7.2c0-3.6-3.4-6.3-9.7-6.3L166,14.7L166,14.7z"/>
<path d="M139.8,17.5h3.5c1.4,0,3.1,0.2,3.6,1.6h0.1c0,0,0-4.7-0.7-4.7c0,0-17,0.2-17.5,0h-0.1c-0.6,0.6-0.9,4.4-0.9,4.4
	s1.2-1.3,3.6-1.2h3.4V35c0,1.8,0.6,4.6-1.5,5.4v0.1h8.4v-0.1c-2.2-1.2-1.9-2.8-1.9-5L139.8,17.5L139.8,17.5z"/>
</svg>
