<?xml version="1.0" encoding="utf-8"?>
<!-- Generator: Adobe Illustrator 28.0.0, SVG Export Plug-In . SVG Version: 6.00 Build 0)  -->
<svg version="1.1" id="Capa_1" xmlns="http://www.w3.org/2000/svg" xmlns:xlink="http://www.w3.org/1999/xlink" x="0px" y="0px"
	 viewBox="0 0 483.4 162.9" style="enable-background:new 0 0 483.4 162.9;" xml:space="preserve">
<style type="text/css">
	.st0{fill:#FEFEFE;}
	.st1{fill:#005EB7;}
	.st2{fill:#EAB5BA;}
	.st3{fill:#0053B3;}
	.st4{fill:#FAFAFA;}
	.st5{fill:#A9A9A9;}
	.st6{fill:#CE4E59;}
	.st7{fill:#646464;}
	.st8{fill:#BF0D1E;}
	.st9{fill:#BC0000;}
	.st10{fill:#020202;}
	.st11{fill:#BE0017;}
	.st12{fill:#F9F9F9;}
	.st13{fill:#F5F5F5;}
	.st14{fill:#0B0B0B;}
</style>
<g>
	<path class="st0" d="M451.5,116.5c0,1,0,2,0,3c-2.4,2-5.4,1.4-8.1,1.4c-71.9,0-143.9,0-215.8,0c-68.9,0-137.9,0-206.8,0
		c-2.5,0-5-0.5-7.3,0.7c-0.3,0.5-0.6,1.1-0.7,1.7c-1,12.4-1,12.4,11.4,12.4c137.8,0,275.6,0,413.3,0c3.5,0,7-0.1,10.5,0.1
		c0.6,0.1,1.3,0.2,1.9,0.4c0.6,0.3,1.1,0.6,1.6,1c-0.9,2-2.7,0.9-4,0.9c-44.7,0.1-89.4,0.1-134.1,0.1c-99.9,0-199.7,0-299.6,0.1
		c-3.4,0-4.1-0.7-4.1-4C10,99,9.9,63.7,10,28.5c0-1.3-1.1-3.1,0.9-4c2.2,2.7,1.2,5.9,1.5,8.9c0.2,2.2-0.6,4.6,1.9,6.1
		c2.5,0.8,5,0.4,7.4,0.4c140.2,0,280.5,0,420.7,0.1c3.1,0,6.4-0.8,9.1,1.4c0,3.6,0,7.2,0,10.9c-2,0.3-1.8-1.4-2.4-2.5
		c-2.4-4-6.5-5.3-10-3.2c-3.3,1.9-4.3,6-2.4,9.9c0.7,1.4,2.3,2.5,2.2,4.3c-0.4,0.8-1,1.1-1.8,1.3c-1.7,0.3-3.3-0.3-4.9-0.7
		c-9.2-2.5-18.4-1.3-27.5,0.3c-6.5,1.1-10.5,5.4-12.5,11.4c-2.8,8.3-2.7,16.9-1.1,25.3c1.4,7.5,6.9,11.7,13.7,14.3
		c4.5,1.7,9.3,2.3,14.1,2.4c10.4,0.2,20.9-0.6,31.3,0.4C450.6,115.8,451.1,116.1,451.5,116.5z"/>
	<path class="st1" d="M11.9,41.2c-2-5.5-0.1-11.2-1-16.7c145.4,0,290.8,0,436.1-0.1c3.7,0,4.9,0.8,4.6,4.5
		c-0.4,3.8-0.1,7.6-0.1,11.4c-1.9,0.9-3.9,0.5-5.9,0.5c-142.6,0-285.2,0-427.8,0C15.9,40.8,13.9,40.5,11.9,41.2z"/>
	<path class="st2" d="M11,120.5c1.7-2.1,4-1.1,6-1.1c144.8-0.1,289.7,0,434.5,0c0,0.3,0,0.7,0,1c-0.5,0.4-1.1,0.8-1.7,1
		c-2.3,0.6-4.6,0.4-6.9,0.4c-141.2,0-282.5,0-423.7,0C16.4,121.8,13.5,122.5,11,120.5z"/>
	<path class="st3" d="M11.9,41.2c1.9-1.6,4.2-0.8,6.2-0.8c144.5,0,288.9,0,433.4,0c0,0.3,0,0.7,0,1c-1.8,0.1-3.6,0.2-5.5,0.2
		c-142.9,0-285.8,0-428.7,0C15.6,41.5,13.8,41.3,11.9,41.2z"/>
	<path class="st4" d="M451.5,92.7c0,2,0,4,0,5.9c-0.5,0.4-1,0.8-1.6,1c-10.1,1.1-20.1,0.5-30.2,0.4c-1.5,0-2.9-0.5-4.2-1.4
		c-1.5-1.1-2.8-2.5-2.5-4.5c0.4-2.3,2.3-2.7,4.1-2.7c10.9-0.1,21.8-0.8,32.7,0.3C450.5,92,451,92.3,451.5,92.7z"/>
	<path class="st4" d="M437.3,61.2c0.4-0.3,0.8-0.6,1.3-0.9c3.9-1.1,8.8,0.1,10.7-5.1c0.4-1,0.6-2.4,2.2-2c0,8.6,0,17.1,0,25.7
		c-0.4,0.3-0.9,0.3-1.3,0c-2.3-6.6-5.8-12.3-12.1-16C437.6,62.5,437.3,61.9,437.3,61.2z"/>
	<path class="st5" d="M450.3,98.8c0.4-0.1,0.8-0.1,1.2-0.2c0,5.9,0,11.9,0,17.8c-0.3,0-0.7,0-1,0
		C448.1,110.6,448.2,104.7,450.3,98.8z"/>
	<path class="st6" d="M450.4,120.5c0.4,0,0.7-0.1,1.1-0.1c0,5.6,0,11.2,0,16.8c-0.4-0.1-0.7-0.1-1.1-0.2c-2.5-4.9-1.1-10-1-15
		C449.7,121.5,450,121,450.4,120.5z"/>
	<path class="st7" d="M450.7,78.7c0.3-0.2,0.6-0.1,0.8,0.2c0,4.6,0,9.2,0,13.8c-0.4,0-0.7-0.1-1.1-0.1C448.3,88,448,83.3,450.7,78.7
		z"/>
	<path class="st8" d="M449.5,137c-1.7,0.1-3.3,0.2-5,0.2c-142.7,0-285.4,0-428.1,0.1c-4.5,0-6.2-1-5.6-5.6c0.4-3.4,0.2-6.9,0.2-10.4
		c1.4-0.8,2.9-0.4,4.4-0.4c143.6,0,287.2,0,430.8,0c1,0,2,0,3,0.1C450.7,126.4,450.2,131.7,449.5,137z"/>
	<path d="M70.1,80.2c6,2.8,8.4,7.5,8.7,12.9c0.5,7.1,0.2,14.1,0.5,21.2c0.1,2.6-1.2,2.9-3.3,2.9c-7.1-0.1-14.3-0.2-21.4,0
		c-2.8,0.1-3.3-1.1-3.2-3.5c0.1-6.6,0.2-13.2,0.1-19.8c-0.1-5.6-7.6-9.7-12.6-7c-1.5,0.8-0.9,2.3-0.9,3.6c-0.1,7.6-0.2,15.2,0,22.7
		c0.1,3.2-0.9,3.8-3.9,3.7c-6.6-0.2-13.3-0.2-19.9,0c-2.3,0-3.1-0.6-3.1-3c0.1-22.1,0.1-44.1,0-66.2c0-2.2,0.7-2.8,2.8-2.8
		c15.6,0.1,31.2-0.2,46.8,0.2c8,0.2,14.4,4,17.1,12C80.7,66.2,78.9,74.1,70.1,80.2z"/>
	<path d="M285.4,80.4c0-10.4,0.1-20.7-0.1-31.1c0-3,0.4-4.4,4-4.3c6.8,0.3,13.6,0.2,20.4,0c2.5-0.1,3.4,0.6,3.4,3.2
		c0,3.6-1.7,8.4,0.8,10.3c2.3,1.8,7,0.7,10.6,0.7c19,0,23.1,3.7,24.9,22.6c0.6,6.2,0.7,12.5-0.4,18.7c-1.5,8.8-6.9,14.8-15.9,15.8
		c-15,1.7-30.2,0.4-45.3,0.8c-3.1,0.1-2.4-2.1-2.4-3.7C285.4,102.4,285.4,91.4,285.4,80.4z"/>
	<path d="M254.7,116.9c-6.6,0-13.3,0-19.9,0c-8.7,0-14-4.7-14.8-13.3c-0.2-2.3-0.3-4.6-0.2-6.9c0.4-9,4.6-13.6,13.7-14.3
		c5.9-0.4,11.9-0.2,17.9-0.3c0.9,0,2.2,0.5,2.6-0.6c0.6-1.3-0.5-2.1-1.3-3c-1.5-1.7-3.5-1.6-5.5-1.6c-7.5,0-14.9-0.1-22.4,0.1
		c-2.7,0.1-3.9-0.5-3.7-3.4c0.3-3.8,0.1-7.6,0-11.3c0-1.8,0.4-2.7,2.5-2.7c12.4,0.2,24.9-0.3,37.3,0.5c12.8,0.8,19.1,8.4,19.1,21.2
		c0,10.7-0.1,21.4,0.1,32.1c0,2.7-0.7,3.6-3.5,3.6C269.4,116.7,262,116.8,254.7,116.9C254.7,116.8,254.7,116.9,254.7,116.9z"/>
	<path d="M125.2,116.8c-9.1-0.2-19.3,0.9-28.9-3.8c-7.9-3.9-12.1-9.9-12.7-18.5c-0.5-7.2-0.5-14.4,1.9-21.5
		c2.5-7.3,7.2-12,15.2-13.1c9.7-1.3,19.5-2.3,29.1,0.9c10.8,3.6,15.9,10.4,16.4,21.5c0.5,10.5,0.5,10.5-10,10.5c-8,0-15.9,0-23.9,0
		c-1.2,0-2.9-0.8-3.3,1c-0.3,1.5,0.8,2.8,2,3.7c1.6,1.2,3.4,1.1,5.2,1.1c8.6,0,17.3,0.2,25.9-0.1c3.1-0.1,4.1,0.8,3.8,3.9
		c-0.3,4.6,1.4,10.6-1,13.3c-2.4,2.9-8.7,0.6-13.3,0.9C129.8,116.9,127.9,116.8,125.2,116.8z"/>
	<path d="M450.7,78.7c-0.1,4.6-0.1,9.3-0.2,13.9c-11,0.1-21.9,0.1-32.9,0.2c-1.2,0-3-0.8-3.5,0.8c-0.6,1.7,0.7,3,2.1,4.1
		c1.7,1.3,3.7,1.2,5.7,1.2c9.5,0,18.9,0,28.4,0c0.1,5.9,0.1,11.7,0.2,17.6c-13.5,0-27.2,1.4-40.6-0.9c-14.3-2.4-21.1-10.3-21.4-24.5
		c-0.1-4.7-0.2-9.5,0.9-14.2c2.8-11.7,7.8-16.4,19.9-17.6c9.4-1,18.8-1.5,27.9,2C444.6,64.9,449.7,70.3,450.7,78.7z"/>
	<path d="M355.9,81.4c0-10.7,0.1-21.4-0.1-32.1c0-3,0.4-4.3,3.9-4.1c6.8,0.3,13.6,0.2,20.4,0c2.6-0.1,3.7,0.4,3.7,3.4
		c-0.1,21.7-0.1,43.4,0,65.1c0,2.9-0.9,3.6-3.7,3.5c-6.6-0.2-13.3-0.2-19.9,0c-3.4,0.1-4.5-0.7-4.5-4.3
		C356.1,102.4,355.9,91.9,355.9,81.4z"/>
	<path d="M152.5,80.9c0-10.7,0.1-21.4-0.1-32.1c-0.1-3.1,0.7-3.9,3.8-3.8c7,0.2,13.9,0.2,20.9,0c2.6-0.1,3.4,0.6,3.4,3.3
		c-0.1,21.9-0.1,43.8,0,65.6c0,2.4-0.6,3.1-3.1,3c-7.1-0.2-14.3-0.2-21.4,0c-2.8,0.1-3.7-0.7-3.6-3.5
		C152.6,102.6,152.5,91.7,152.5,80.9z"/>
	<path d="M214.4,87.8c0,8.6-0.1,17.1,0.1,25.6c0.1,2.8-0.8,3.6-3.6,3.5c-7-0.2-13.9-0.2-20.9,0c-2.6,0.1-3.4-0.8-3.4-3.4
		c0.1-16.9,0.1-33.9,0-50.8c0-2.8,0.9-3.6,3.7-3.5c6.8,0.2,13.6,0.2,20.4,0c3.2-0.1,3.8,1,3.8,3.9C214.2,71.3,214.4,79.6,214.4,87.8
		C214.4,87.8,214.4,87.8,214.4,87.8z"/>
	<path class="st9" d="M449.5,121.4c-146.1,0-292.3,0-438.4,0c-0.2-0.3-0.2-0.6-0.1-0.9c1.3,0,2.7-0.1,4-0.1c143.8,0,287.7,0,431.5,0
		c1.3,0,2.7,0.1,4,0.1c0.1,0.3,0.1,0.6,0,0.8C450.2,121.9,449.9,121.8,449.5,121.4z"/>
	<path class="st10" d="M200.8,56.1c-2.3,0-4.7,0-7,0c-7,0-8.9-2.6-7.2-9.4c0.5-2,1.8-1.6,3-1.6c7.3,0,14.6,0,21.9-0.1
		c2.1,0,3.1,0.4,2.9,2.7c-0.2,1.8-0.2,3.6,0,5.4c0.3,2.5-1,3-3.2,2.9C207.7,55.9,204.2,56.1,200.8,56.1z"/>
	<path class="st11" d="M449.5,121.4c0.3,0,0.6,0,0.9,0c0,5.2,0,10.5,0,15.7l-0.5,0.1l-0.5-0.1C449.5,131.8,449.5,126.6,449.5,121.4z
		"/>
	<path class="st12" d="M37.9,65.9c0.7-2.6-2.3-7.5,4.6-6.8c5.6,0.5,8.4,2.4,8.3,6.8c-0.1,4.4-3.2,6.4-8.4,6.9
		C35.9,73.4,38.3,69,37.9,65.9z"/>
	<path class="st4" d="M313.1,87.5c0-1.8-0.2-3.6,0.1-5.4c0.3-1.7-1.5-4.3,1.4-4.9c2.5-0.5,4.9,0.5,6.5,2.6
		c2.7,3.5,2.5,13.5-0.2,16.8c-1.7,2.2-4.1,1.9-6.3,1.7c-2.5-0.3-1.3-2.6-1.4-4C312.9,92.1,313.1,89.8,313.1,87.5
		C313.1,87.5,313.1,87.5,313.1,87.5z"/>
	<path class="st13" d="M254.9,99.1c-0.3,2.8,1.2,6.1-3.5,5.6c-3.6-0.3-6.3-1.5-6.3-5.4c0-4.2,3.2-5.2,6.8-5.4
		C257,93.8,253.8,97.8,254.9,99.1z"/>
	<path class="st12" d="M114.5,80.4c-1.8-1.4-5.6,1.8-5.6-2.5c0-3,1.9-5.1,5.4-5c3.6,0.1,5.1,2.4,5.1,5.3
		C119.4,82.1,116.1,79.1,114.5,80.4z"/>
	<path class="st12" d="M413.8,79.6c0.1-3.7,1.1-6.9,5.8-6.7c4.4,0.2,5,3.4,5.1,6.8C421,80.6,417.4,80.9,413.8,79.6z"/>
	<path class="st14" d="M413.8,79.6c3.6,0.6,7.2,0.6,10.8,0.2c-1.2,1.7-3,1.2-4.5,1c-4.4-0.6-6.1,1.2-5.4,5.5c0.2,1.1,0,2.2-0.3,3.4
		C414.1,86.3,411.4,83.1,413.8,79.6z"/>
</g>
<g>
	<path d="M449.2,50.5c0,3.3-2.6,5.9-5.9,5.9c-3.3,0-6-2.6-6-5.9c0-3.2,2.6-5.8,6-5.8C446.6,44.8,449.2,47.3,449.2,50.5z M438.8,50.5
		c0,2.6,1.9,4.6,4.5,4.6c2.5,0,4.4-2,4.4-4.6c0-2.6-1.9-4.7-4.4-4.7C440.7,45.9,438.8,48,438.8,50.5z M442.4,53.6H441v-5.8
		c0.5-0.1,1.3-0.2,2.2-0.2c1.1,0,1.6,0.2,2,0.4c0.3,0.2,0.6,0.7,0.6,1.3c0,0.6-0.5,1.1-1.2,1.3v0.1c0.6,0.2,0.9,0.6,1.1,1.4
		c0.2,0.9,0.3,1.2,0.4,1.4h-1.4c-0.2-0.2-0.3-0.7-0.5-1.4c-0.1-0.6-0.5-0.9-1.2-0.9h-0.6V53.6z M442.4,50.3h0.6
		c0.7,0,1.3-0.2,1.3-0.8c0-0.5-0.4-0.9-1.2-0.9c-0.4,0-0.6,0-0.7,0.1V50.3z"/>
</g>
</svg>
