<?xml version="1.0" encoding="utf-8"?>
<!-- Generator: Adobe Illustrator 28.0.0, SVG Export Plug-In . SVG Version: 6.00 Build 0)  -->
<svg version="1.1" id="Capa_1" xmlns="http://www.w3.org/2000/svg" xmlns:xlink="http://www.w3.org/1999/xlink" x="0px" y="0px"
	 viewBox="0 0 246.3 80.7" style="enable-background:new 0 0 246.3 80.7;" xml:space="preserve">
<style type="text/css">
	.st0{fill:#F5F5F6;}
	.st1{fill:#E22421;}
	.st2{fill:#19161B;}
	.st3{fill:#373539;}
	.st4{fill:#86888A;}
	.st5{fill:#87898A;}
	.st6{fill:#19171B;}
	.st7{fill:#161517;}
	.st8{fill:#141316;}
	.st9{fill:#312F31;}
	.st10{fill:#28262A;}
	.st11{fill:#3A383C;}
	.st12{fill:#0B0A0C;}
	.st13{fill:#8C868D;}
	.st14{fill:#F1F1F1;}
	.st15{fill:#0D0D0F;}
	.st16{fill:#DD282C;}
	.st17{fill:#D92C31;}
	.st18{fill:#141315;}
	.st19{fill:#F9F0ED;}
	.st20{fill:#FBF3EE;}
	.st21{fill:#DE262B;}
	.st22{fill:#F3F2EA;}
	.st23{fill:#DA2C2E;}
	.st24{fill:#2F2E30;}
	.st25{fill:#9B9B9A;}
	.st26{fill:#FAE3E5;}
	.st27{fill:#D4312E;}
	.st28{fill:#979797;}
	.st29{fill:#F9EEED;}
	.st30{fill:#BBBBBB;}
	.st31{fill:#D52F29;}
	.st32{fill:#CC2C27;}
	.st33{fill:#EDF5EC;}
	.st34{fill:#2A282B;}
	.st35{fill:#2A282A;}
	.st36{fill:#EFEAE5;}
	.st37{fill:#B3B3B3;}
	.st38{fill:#9F9E9E;}
	.st39{fill:#B9B8B8;}
	.st40{fill:#0E0C10;}
	.st41{fill:#927E83;}
	.st42{fill:#DB2621;}
	.st43{fill:#121212;}
	.st44{fill:#111111;}
	.st45{fill:#1F1E21;}
	.st46{fill:#100F12;}
	.st47{fill:#0E0D0E;}
	.st48{fill:#201E20;}
	.st49{fill:#343136;}
	.st50{fill:#85898D;}
	.st51{fill:#97787A;}
	.st52{fill:#D72936;}
	.st53{fill:#938388;}
	.st54{fill:#C73932;}
	.st55{fill:#161317;}
	.st56{fill:#8F848C;}
	.st57{fill:#997772;}
	.st58{fill:#131113;}
	.st59{fill:#898580;}
	.st60{fill:#E02228;}
</style>
<g>
	<path class="st0" d="M46.1,68.8c0-0.6-0.2-1-1-0.8c-0.3,0.1-0.6,0-0.8,0c-11.7,0-23.5,0-35.2,0c-0.6,0-1.2,0.2-1.7-0.2
		c-0.2-0.1-0.5,0.1-0.5-0.4c0-0.4,0.2-0.6,0.6-0.6c0.4,0.5,1,0.4,1.5,0.4c7.8,0,15.6,0,23.4,0c4.5,0,9.1-0.1,13.6,0
		c0.3,0,0.6,0,0.9,0c0.6-0.1,1.2,0,1.9,0c8.2,0,16.5,0,24.7,0c0.3,0.1,0.5,0.2,0.3,0.5c-0.1,0.2-0.3,0.4-0.4,0.3
		c-0.7-0.6-1.5,0-2.2,0c-7.2,0-14.4,0-21.7,0c-0.4,0-0.9-0.2-1.2,0.2c-0.1,0.1-0.3,0.1-0.4,0c-0.9-0.6-1-0.6-1,0.5
		C46.5,68.8,46.3,68.8,46.1,68.8z"/>
	<path class="st1" d="M102.5,34.4c1.7,1.1,3.7,1.5,5.6,2.2c2.7,0.9,5.3,1.9,7.7,3.3c1.3,0.8,2.5,1.6,3.5,2.8c0.4,0.3,0.7,0.5,0.9,1
		c3.5,5.1,1.7,12.5-1.4,15.9c-0.3,0.5-1,0.7-1.1,1.3c-2.6,2.8-5.8,4.4-9.4,5.4c-4.6,1.2-9.3,1-14,0.8c-3.3-0.1-6.5-0.5-9.7-1.1
		c-0.7-0.1-0.8-0.4-0.8-1c0-3,0.1-6.1,0-9.1c0-1,0.5-0.8,1-0.7c3.7,0.7,7.5,1.2,11.3,1.2c2.7,0,5.3,0,7.9-0.9
		c0.9-0.3,1.7-0.8,2.3-1.5c0.2-0.1,0.4-0.2,0.6-0.1c0.3,0.1,0.2,0.4,0.2,0.6c0.1-0.3,0-0.4-0.2-0.6c-0.2-0.4-0.1-0.8,0.1-1.1
		c0.1-0.2,0.2-0.4,0-0.7c0.3-2.7-1.2-4.2-3.5-5.3c-0.3-0.2-0.7-0.4-1-0.6c-0.2-0.2-0.4-0.4-0.8-0.3c-2.5-0.9-4.9-2.1-7.2-3.3
		c-1.2-0.6-2.5-1.1-3.5-1.9c-0.1-0.2-0.2-0.4-0.1-0.7c0-0.2,0.5-0.3,0.2-0.7c-0.4-0.4-0.8-0.4-1.2-0.1c-0.6,0-0.7-0.6-1.1-0.8
		c-2.4-2.5-3.1-6.8-1.6-10.2c2.5-5.5,6.9-8.5,12.8-9.3c4.5-0.6,8.9-0.4,13.3,0.6c0.5,0,0.5,0.4,0.7,0.7c0,3,0,6,0.1,9
		c0,0.7-0.4,0.6-0.8,0.6c-3.2,0-6.5,0-9.7,0c-0.5,0-1,0-1.5,0.2c-0.8,0.3-1.6,0.7-1.6,1.6c0,0.9,0.5,1.7,1.2,2.2
		c0.1,0.1,0.2,0.1,0.3,0.2C102.1,34.1,102.3,34.1,102.5,34.4z"/>
	<path class="st2" d="M223.6,36.6c-1.2,1.7-2.3,3.3-3.6,5c-0.6,0.8-0.6,1.3,0,2.1c5.2,7.4,10.4,14.8,15.6,22.2
		c0.3,0.4,1,0.9,0.7,1.4c-0.2,0.4-1,0.1-1.5,0.1c-4.3,0-8.6,0-12.9,0c-1.1,0-1.7-0.3-2.2-1.3c-2.5-4.3-5.1-8.6-7.6-12.8
		c-0.6-1.1-0.7-1.1-1.3,0c-2.8,4.3-5.7,8.7-8.5,13c-0.2,0.3-0.3,0.7-0.7,0.8c-0.3-0.2-0.7-0.1-1-0.1c-4.4,0-8.9,0-13.3,0
		c-0.3,0-0.6,0-0.7,0c4.8,0,9.7,0,14.7,0c0.1,0,0.2,0,0.3,0.1c-0.2,0.3-0.6,0.2-0.9,0.2c-4.8,0-9.6,0-14.4,0c-0.3,0-0.7,0.1-0.9-0.2
		c-0.2-0.3,0.2-0.6,0.4-0.9c5.4-7.5,10.9-15,16.3-22.5c1.1-1.5,1.1-1,0-2.6c-5.1-7-10.3-14-15.4-20.9c-0.1-0.2-0.3-0.4-0.4-0.6
		c-0.3-0.4-0.3-0.7,0.3-0.7c0.2,0,0.4,0,0.5,0c0.1,0,0.2,0.1,0.2,0.2c0.9,1.3,1.8,2.5,2.7,3.7c2.9,3.9,5.8,7.9,8.7,11.9
		c0.5,0.7,1.1,0.9,1.9,0.9c7.1,0,14.3,0,21.4,0c0.4,0,0.8,0,1.2,0C223.9,35.9,223.9,36.2,223.6,36.6z"/>
	<path class="st2" d="M164.1,66.8c-5.5-0.7-10.8-2.3-15.5-5.5c-6-4.1-8.9-9.9-9.3-16.9c-0.1-2,0-4.1,0.6-6.1c0.3-0.3,0-0.8,0.2-1.1
		c0-0.3,0-0.6,0.2-0.9c0.2-0.4,0.6-0.5,0.9-0.5c4.3,0,8.6,0,12.9,0c0.3,0,0.8,0,0.9,0.5c-0.7,1.7-1.3,3.5-1.5,5.3
		c-0.5,4.3,0.9,7.7,4.3,10.3c3.1,2.4,6.8,3.5,10.7,3.8c4,0.3,8,0,12-0.5c0.3,0,0.8-0.3,0.9,0.3c0,3.4,0,6.8,0,10.2
		c0.1,0.7-0.6,0.6-0.9,0.7c-4.1,0.8-8.2,1.2-12.4,0.9c-1.1-0.1-2.2-0.1-3.3-0.4C164.5,66.6,164.3,66.7,164.1,66.8z"/>
	<path class="st3" d="M155,36.2c-0.2-0.3-0.6-0.2-0.9-0.2c-4.3,0-8.5,0-12.8,0c-0.3,0-0.7,0-1,0.2c0.4-1.8,1.3-3.5,2.3-5
		c4.4-6.5,10.6-10.2,18.2-11.7c0.4-0.1,0.8-0.1,1.2-0.2c0.2,0.1,0.3,0.2,0.5,0.1c3.6-0.5,7.2-0.3,10.9-0.2c0.8,0,1.7,0.4,2.5,0.1
		c5.7,1,10.6,3.3,14.4,7.7c2.3,2.7,3.9,5.7,4.7,9.1c-0.3,0.2-0.7,0.1-1,0.1c-10.5,0-21,0-31.5,0c-0.6,0-1.2,0.1-1.7-0.2
		c-0.2-0.1-0.2-0.3,0-0.4c0.7-0.3,1.3-0.6,2.1-0.5c2.3,0.1,4.7,0.1,7,0c1.2-0.1,2.4,0,3.6,0c0.3,0,0.6,0.1,0.9-0.1
		c1.4,0,2.9-0.1,4.3,0c0.8,0,1.1-0.2,0.8-1c0.3-0.4,0.1-0.8-0.1-1.2c-0.7-1.3-1.7-2.1-3-2.6c-1.7-0.8-3.5-1.1-5.3-1.1
		c-2.9-0.1-5.8,0-8.7,1c-1.9,0.7-3.7,1.6-5.3,2.9c-0.2,0.2-0.5,0.4-0.7,0.6c-0.1,0.5-0.8,0.7-0.8,1.2
		C155.6,35.4,155.3,35.8,155,36.2z"/>
	<path class="st3" d="M187.3,19.1c-0.3,0.1-1.1-0.4-0.9,0.6c-0.2-0.1-0.4-0.3-0.3-0.6c0.1-0.3,0.4-0.2,0.7-0.2c2,0,4,0,6,0
		c2.7,0,5.3,0,8,0c0.8,0,1.3,0.3,1.7,1c2.6,4,5.2,7.9,7.8,11.9c0.8,1.3,0.8,1.3,1.6,0c2.6-4,5.3-8,7.9-12c0.4-0.6,0.8-0.8,1.5-0.8
		c4.7,0,9.3,0,14,0c0.3,0,0.7-0.1,0.8,0.2c0.1,0.3-0.1,0.5-0.3,0.7c-4,5.5-8,11.1-12,16.6c0,0-0.1,0.1-0.1,0.1
		c0.1-0.4,0-0.6-0.5-0.6c-1,0-1.9,0-2.9,0c-6.6,0-13.2,0-19.8,0c-0.8,0-1.2-0.2-1.7-0.8c-3.1-4.3-6.3-8.6-9.5-12.9
		c-0.6-0.8-1.1-1.7-1.9-2.4c-0.1-0.1-0.3-0.3-0.1-0.6c0.2-0.1,0.4-0.1,0.5-0.1c4.6,0,9.2,0,13.9,0c-4.5,0-8.9,0-13.4,0
		C187.9,19.2,187.6,19.3,187.3,19.1z"/>
	<path class="st1" d="M49.6,29.1c1.7-0.4,3.4-1.1,5.1-1.7c0.6-0.2,0.8-0.2,1.1,0.4c3,5.8,2.5,11.4-0.7,16.9
		c-0.8,1.4-1.8,2.4-3.4,2.5c-0.3-0.1-0.5,0.1-0.8,0.3c-1.4,0.5-2.8,1-4.3,1.5c-0.9,0.7-2.1,0.9-3.2,1.1c-2.7,0.9-5.5,1.8-8.2,2.7
		c-1,0.3-2,0.6-3,1c-0.4,0.2-0.7,0-0.9-0.4c-2-3.8-2.6-7.7-1-11.9c0.7-1.8,2-3.2,3.3-4.6c0.9-1,2-1.9,3-2.9c1.2-1.3,3-1.6,4.5-2.2
		c2.1-0.8,4.3-1.5,6.4-2.3c0.2-0.4,0.7-0.2,1-0.3c0.1,0,0.1,0,0.1,0C48.9,29.2,49.3,29.3,49.6,29.1z"/>
	<path class="st2" d="M137.7,36c0,0.1,0,0.1,0,0.2c-0.3,0.4-0.2,0.8-0.2,1.3c0,9.5,0,19,0,28.6c0,0.4,0.2,0.9-0.3,1.3
		c-2.5,0.1-5,0.1-7.6,0.1c-1.9,0-3.7,0.1-5.6-0.1c-0.4-0.3-0.2-0.7-0.2-1.1c0-3.3,0-6.7,0-10c0-3.5-0.1-7-0.1-10.5
		c0-2.3,0.1-4.5,0.1-6.8c0-0.9,0-1.8-0.2-2.6c0-0.1,0-0.1,0-0.2c0.1-0.1,0.2-0.1,0.3-0.2c0.4-0.1,0.8-0.1,1.2-0.1
		c3.7,0,7.4,0,11.1,0C136.7,35.7,137.3,35.6,137.7,36z"/>
	<path class="st4" d="M73.4,67.4c0,0.2,0,0.3-0.2,0.3c-0.3,0-0.6,0-0.8,0c-8.2,0-16.4,0-24.5,0c-0.4,0-0.7,0-1.1,0
		c-0.3-0.2-0.2-0.6-0.5-0.8c-0.1-0.1-0.3-0.2-0.4-0.3c-0.4-0.4-0.6-1-1-1.4c-0.2-0.3-0.4-0.6-0.5-0.9c0-0.1,0-0.3,0-0.4
		c0.2-0.4,0.2-0.9,0.1-1.3c-0.2-1-0.4-1.9-0.4-2.9c0-0.4-0.4,0.2-0.5-0.1c-0.2-0.3-0.2-0.6,0.1-0.9c0.5-0.2,0.4-0.5,0.4-0.9
		c0.8-1.4,1.9-2.7,3-4c0.6-0.7,1.3-1.3,1.8-2c0.2-0.3,0.4-0.5,0.7-0.5c0.2-0.1,0.6,0.5,0.6-0.3c0-0.4,0.6-0.6,1-0.5
		c0.8,0.1,1.2-0.3,1.3-1c0.1-0.6,0.7-0.8,0.9-1.2c1.8-0.6,3.7-1.3,5.5-1.9c0.6-0.2,0.6,0.2,0.8,0.5c2.5,3.7,5,7.5,7.5,11.3
		C69.3,61.2,71.4,64.3,73.4,67.4z"/>
	<path class="st2" d="M160.7,36c11,0,22,0,33.1,0c0.4,0,0.9-0.1,1.3,0.2c0.4,1,0.5,2.1,0.6,3.2c-0.3,0.9-0.4,1.9,0,2.8
		c0,0.1,0,0.1,0,0.2c-0.2,2.8-0.2,2.8-2.9,2.8c-11.2,0-22.4,0-33.6,0c-1.4,0-1.5,0-1.6-1.5c-0.1-2.8,0.3-5.4,2.6-7.4
		C160.3,36.1,160.5,35.9,160.7,36z"/>
	<path class="st4" d="M46.1,67.7c-0.3,0-0.7,0-1,0c-12.3,0-24.7,0-37,0c-0.6,0-1.1,0-0.6-0.8c0.6-1.1,1.3-2.2,1.9-3.3
		c0.2-0.3,0.4-0.6,0.8-0.7c7.3-2.5,14.6-5,21.9-7.5c0.1,0,0.2,0,0.3,0c1.1,1.3,2.4,2.4,3,4c-0.1,0.2-0.3,0.3-0.4,0.5
		c0.2-0.2,0.4-0.3,0.7-0.3c0.2,0,0.4,0.1,0.6,0.3c1.5,1.5,3.2,2.6,4.9,3.8c0.3,0.2,0.6,0.5,0.9,0.8c0.2,0.2,0.4,0.3,0.6,0.3
		c1.1,0.4,2,1.2,3,1.6c0.1,0.1,0.2,0.2,0.2,0.3C45.9,67.1,46.3,67.4,46.1,67.7z"/>
	<path class="st3" d="M137.7,36c-4.6,0-9.3,0-13.9,0c-0.2-0.3-0.1-0.5-0.1-0.8c0-5,0-10,0-15c0-1,0-1.1,1-1.1c3.7,0,7.5,0,11.2,0
		c-4-0.1-8,0-12-0.1c-0.1,0-0.2-0.1-0.3-0.2c0.2-0.4,0.6-0.2,0.9-0.2c4,0,8.1,0,12.1,0c0.8,0,1.1,0.3,1.1,1.1c0,5.1,0,10.2,0,15.4
		C137.8,35.5,137.7,35.7,137.7,36z"/>
	<path class="st5" d="M68.3,51.2c1.4-2.4,2.5-4.9,3.2-7.5c1.6-6.2,1-12.2-1.6-17.9c-2.3-5.1-6.1-9-10.8-11.9
		c-5.1-3.2-10.6-4.3-16.5-3.7c-9.8,1-16.9,6.1-21.3,14.9c-1.9,3.9-2.9,8-2.9,12.3c0,3.9,0.9,7.6,2.6,11.1c0.1,0.3,0.3,0.6,0.4,0.9
		c0.1,0.2,0,0.3-0.2,0.2c-2.1-2.7-3-5.9-3.5-9.2c-1.2-7.7,0.6-14.8,4.9-21.1c3.7-5.5,9.1-8.9,15.5-10.6c9-2.3,17.3-0.8,24.7,4.9
		c5.9,4.6,9.5,10.6,10.4,18.1c0.8,6.8-0.3,13.1-4.1,18.9c-0.2,0.3-0.4,0.5-0.6,0.8C68.3,51.4,68.2,51.4,68.3,51.2z"/>
	<path class="st1" d="M45.6,66.6c-1-0.2-1.7-0.9-2.6-1.3c-0.2-0.1-0.3-0.1-0.5-0.2c-0.2-0.1-0.4-0.2-0.6-0.3
		c-2.1-1.6-4.3-3.1-6.3-4.9c-0.2-0.1-0.3-0.2-0.4-0.4c-0.9-1.2-1.9-2.4-2.8-3.6c-0.1-0.1-0.2-0.2-0.2-0.4c2.8-1,5.7-2,8.5-3
		c1-0.4,2-0.7,3-1.1c0.6-0.5,1.3-0.6,2-0.9c0.1,0,0.2-0.1,0.3-0.1c0.6-0.2,1.2-0.4,1.9-0.5c0.2,0,0.3,0,0.5,0c0.5-0.1,1-0.2,1.5-0.4
		c0.4-0.2,0.9-0.3,1.2,0.3c0,0.1,0,0.3,0,0.4c-0.4,0.4-0.8,0.8-1.2,1.2c-1.5,1.5-2.8,3.1-4.1,4.7c-0.4,0.6-0.9,1.2-1.3,1.7
		c0,0.3,0.1,0.7-0.2,0.9c-0.4,0.1-0.3,0.5-0.3,0.8c0.1,0.1,0,0,0.1,0.1c0.2,1.5,0.4,2.9,0.7,4.4c0,0.1,0,0.2,0,0.3
		c0.2,0.3,0.1,0.7,0.5,0.8c0.3,0.5,0.6,1,0.9,1.5C45.9,66.7,45.8,66.7,45.6,66.6z"/>
	<path class="st1" d="M41.4,29.9c1.2-1.3,1.6-2.9,2-4.5c0.7-2.7,0.3-5.2-0.7-7.8c0.6-0.1,1.1,0.2,1.6,0.3c1.6,0.6,3.2,1.2,4.8,2.1
		c2.3,1.4,3.9,3.3,5.4,5.4c0.4,0.5,0.1,0.7-0.4,0.8c-2.8,0.9-5.6,1.8-8.4,2.8c-1.4,0.5-2.9,0.8-4.3,1.5c-0.3,0.2-0.5,0.1-0.3-0.3
		C41.2,30.2,41.3,30.1,41.4,29.9z"/>
	<path class="st6" d="M157,33c1.4-1.5,3.2-2.4,5.1-3.1c3.2-1.2,6.5-1.3,9.8-1.1c2.2,0.1,4.4,0.6,6.2,2c0.9,0.7,1.5,1.6,1.9,2.7
		c0.2,0.5,0,0.6-0.5,0.5c-1.4-2.8-4-3.8-6.9-4.1c-4.8-0.6-9.4-0.2-13.6,2.2c-0.6,0.3-1.2,0.8-1.8,1.1C157,33.3,157,33.2,157,33z"/>
	<path class="st7" d="M137.2,67.2c0.3-0.3,0.2-0.8,0.2-1.1c0-9.6,0-19.2,0-28.7c0-0.4-0.3-0.9,0.4-1.1c0,0.3,0.1,0.6,0.1,0.8
		c0,9.8,0,19.5,0,29.3c0,1.2,0,1.2-1.3,1.2c-4,0-8,0-12,0c-0.3,0-0.6,0.2-0.8-0.2c0.3-0.2,0.6-0.1,0.9-0.1c3.9,0,7.8,0,11.7,0
		C136.6,67.3,136.9,67.3,137.2,67.2z"/>
	<path class="st8" d="M123.6,36.2c0.1,0,0.5,0,0.4,0.2c-0.5,0.9,0.1,1.7,0,2.5c-0.1,2.1,0,4.2-0.1,6.4c-0.1,1.4-0.2,2.9,0.1,4.3
		c0.2,0.7,0,1.6-0.1,2.3c-0.2,0.9,0.2,1.8,0.2,2.8c0,4.2,0,8.3,0,12.5c-0.2,0.1-0.3-0.1-0.4-0.2c0-0.2-0.1-0.4-0.1-0.6
		c0-9.8,0-19.7,0-29.5C123.5,36.6,123.6,36.4,123.6,36.2z"/>
	<path class="st9" d="M175.9,19.3c0,0.2-0.1,0.3-0.4,0.3c-2-0.3-4-0.1-6.1-0.2c-2.4,0-4.8-0.1-7.1,0.2c-0.2,0-0.3-0.1-0.4-0.3
		c0.7,0.1,1.3-0.4,1.9-0.2c0.4-0.2,0.8,0.1,1.2-0.2c2.4-0.2,4.9-0.3,7.3,0c0.6,0.1,1.1,0.1,1.7,0.2
		C174.8,19.2,175.4,19.3,175.9,19.3z"/>
	<path class="st10" d="M123.6,18.9c0.1,0,0.1,0,0.2,0c1.9,0.1,3.8,0,5.6,0.1c2.4,0,4.8,0,7.1,0c0.2,0,0.6-0.2,0.7,0.3
		c-4.2,0-8.4,0-12.6,0c-0.7,0-1,0.2-0.9,0.9c0,5.3,0,10.5,0,15.8c-0.1,0-0.1,0-0.2,0c0-1.3,0-2.6,0-3.9c0-4.1,0-8.1,0-12.2
		C123.5,19.6,123.5,19.3,123.6,18.9z"/>
	<path class="st11" d="M160.7,36c-0.2,0.1-0.4,0.1-0.6,0.2c0.6-0.7,1.3-1.1,2.3-1.1c3.7,0,7.3-0.1,11-0.1c0.3,0,0.7,0,1,0.1
		c-0.1,0.2-0.4,0.2-0.6,0.2c-3.5,0-7,0.4-10.5,0.1C162.4,35.3,161.6,35.8,160.7,36z"/>
	<path class="st12" d="M181.4,65.7c-0.3-0.2-0.2-0.6-0.2-0.9c0-3,0-6-0.1-9.1c0-0.2,0.1-0.3,0.3-0.3c0.2,1.2,0.1,2.4,0.1,3.6
		C181.4,61.3,181.5,63.5,181.4,65.7z"/>
	<path class="st13" d="M49.8,51.4c0.2-0.5,0.6-0.9,1.1-1.1c0.4-0.5,1.3-0.6,1.3-1.5c0-0.1,0-0.2,0-0.2c0.4-0.1,0.9-0.2,1.3-0.3
		c0.1,0.1,0.2,0.2,0.3,0.4c-1.1,0.2-0.6,1.5-1.5,2c-0.3,0.1-0.4,0.5-0.8,0.2c-0.3-0.2-0.7-0.1-0.9,0.2c-0.3,0.4,0.1,0.4,0.2,0.6
		c0.1,0.1,0.1,0.3,0,0.4c-0.2,0.2-0.3,0-0.4-0.1C50.2,51.7,50.1,51.4,49.8,51.4z"/>
	<path class="st14" d="M46.1,50.6L46.1,50.6l-0.2,0c-0.6,0.1-1.1,0.4-1.7,0c-0.1-0.5-0.5-0.3-0.8-0.4c1-0.5,2.1-0.8,3.2-1.1
		c0.1,0.3,0.6,0.3,0.6,0.7C46.8,50.2,46.3,50.2,46.1,50.6z"/>
	<path class="st15" d="M123.6,67c0.1,0.1,0.3,0.1,0.4,0.2c4.4,0,8.8,0,13.2,0c-0.3,0.3-0.7,0.2-1.1,0.2c-4.2,0-8.3,0-12.5,0
		C123.6,67.2,123.6,67.1,123.6,67z"/>
	<path class="st16" d="M91,39.9c0,0.3,0,0.5,0,0.8c-0.9-0.6-1.7-1.3-2.3-2.3c0.6,0,0.7,0.7,1.2,0.7C90.9,38.9,91.1,39,91,39.9z"/>
	<path class="st17" d="M50.9,50c-0.2-0.7-0.7-0.5-1.1-0.3c-0.5,0.3-0.9,0.3-1.4,0.2c1.2-0.6,2.5-0.9,3.7-1.3c0,0,0,0.1,0,0.1
		C52.1,49.4,51.6,49.8,50.9,50z"/>
	<path class="st18" d="M195.6,42.1c-0.6,0.3-0.3-0.4-0.3-0.4c-0.1-0.8-0.3-1.6,0.3-2.3C195.7,40.3,195.8,41.2,195.6,42.1z"/>
	<path class="st19" d="M46.1,50.6c-0.1-1,0.6-0.7,1.1-0.7c0.3-0.4,0.5-0.3,0.8,0C47.4,50.3,46.7,50.4,46.1,50.6z"/>
	<path class="st20" d="M56.6,27.3c-0.1-0.6-0.7-1,0-1.4c0.1-0.1,0.3-0.1,0.4,0c0.2,0.1,0.1,0.2,0,0.4C56.7,26.5,56.9,26.9,56.6,27.3
		z"/>
	<path class="st19" d="M44.2,50.7c0.6,0,1.1,0,1.7,0c-0.7,0.3-1.3,0.6-2.1,0.7C44,51.1,44.1,50.9,44.2,50.7z"/>
	<path class="st21" d="M106.9,52.1c0.3,0.1,0.4,0.3,0.3,0.5c-0.3,0.4-0.3,0.9-0.3,1.4c-0.3,0-0.5,0-0.8,0
		C106.5,53.4,106.8,52.8,106.9,52.1z"/>
	<path class="st22" d="M41.4,29.9c0.2,0.2-0.8,0.4,0,0.7c0.1,0.2,0.2,0.4-0.2,0.4c-0.2,0-0.5,0-0.6-0.2c0-0.1,0-0.3,0-0.3
		c0.3-0.2,0.5-0.4,0.7-0.7C41.4,29.8,41.4,29.9,41.4,29.9z"/>
	<path class="st23" d="M117.7,60.9c-0.1-0.2-0.6-0.5,0.1-0.6c0.4-0.1,0.5-0.7,1-0.7C118.6,60.1,118.1,60.5,117.7,60.9z"/>
	<path class="st24" d="M155.7,34.9c-0.2,0.1-0.5,0.1-0.2-0.2c0.3-0.4,0.6-0.7,1-1.1c0.1,0,0.1,0.1,0.2,0.2
		C156.5,34.3,156.1,34.6,155.7,34.9z"/>
	<path class="st25" d="M68.3,51.2c0.1,0.1,0.1,0.1,0.2,0.2c-0.3,0.5-0.6,1-1.1,1.3C67.6,52.1,67.9,51.6,68.3,51.2z"/>
	<path class="st26" d="M120.3,43.7c-0.3-0.3-0.7-0.6-0.9-1C119.9,42.5,120.2,42.9,120.3,43.7z"/>
	<path class="st27" d="M101.7,45.9c0-0.1,0.1-0.4,0.2-0.3c0.3,0.1,0.5,0.3,0.5,0.6C102.2,46.2,101.9,46.1,101.7,45.9z"/>
	<path class="st28" d="M21.2,49.5c0.1-0.1,0.1-0.1,0.2-0.2c0.2,0.3,0.4,0.6,0.5,0.9c0.1,0.2,0,0.2-0.2,0.2
		C21.6,50.2,21.4,49.8,21.2,49.5z"/>
	<path class="st29" d="M48.5,29.5c-0.3,0.3-0.6,0.3-1,0.3C47.6,28.9,48.2,29.6,48.5,29.5z"/>
	<path class="st30" d="M24.5,54.1c0.4,0.1,0.6,0.3,0.8,0.6C24.8,54.8,24.7,54.3,24.5,54.1z"/>
	<path class="st3" d="M174.2,19.1c-0.6,0-1.1,0.1-1.7-0.2C173.1,18.8,173.6,19,174.2,19.1z"/>
	<path class="st31" d="M50.9,47.7c0.2-0.2,0.2-0.9,0.8-0.3C51.4,47.5,51.2,47.6,50.9,47.7z"/>
	<path class="st32" d="M113.9,20.2c-0.4,0-0.4-0.6-0.7-0.7C113.7,19.5,114.1,19.6,113.9,20.2z"/>
	<path class="st33" d="M114.4,38c0.1,0,0.2,0.1,0.2,0.2c0.1,0.2-0.1,0.2-0.2,0.2c-0.1,0-0.3-0.1-0.3-0.1
		C114,38.1,114.2,38.1,114.4,38z"/>
	<path class="st34" d="M156.7,33.8c-0.1-0.1-0.1-0.1-0.2-0.2c0.1-0.2,0.3-0.4,0.6-0.6c0.1,0.1,0.1,0.1,0.2,0.2
		C157.2,33.6,156.9,33.6,156.7,33.8z"/>
	<path class="st29" d="M49.6,29.1c-0.3,0.2-0.6,0.3-1,0.3C48.7,28.7,49.3,29.3,49.6,29.1z"/>
	<path class="st35" d="M140.1,37.1c0,0.4,0.2,0.8-0.2,1.1C139.9,37.8,139.9,37.4,140.1,37.1z"/>
	<path class="st36" d="M102.5,34.4c-0.2-0.1-0.4-0.2-0.6-0.4C102.3,33.8,102.4,34,102.5,34.4z"/>
	<path class="st37" d="M66.6,53.6c0.1-0.3,0.2-0.5,0.5-0.6C67.1,53.4,66.9,53.5,66.6,53.6z"/>
	<path class="st38" d="M21.8,50.5c0.1-0.1,0.1-0.1,0.2-0.2c0.1,0.2,0.3,0.4,0.5,0.8C22,50.9,21.9,50.7,21.8,50.5z"/>
	<path class="st3" d="M165.2,18.9c-0.4,0.4-0.8,0.2-1.2,0.2C164.3,18.9,164.8,18.9,165.2,18.9z"/>
	<path class="st39" d="M24.1,53.4c0,0.1-0.1,0.2-0.2,0.1c-0.1-0.1-0.2-0.2-0.2-0.3c0-0.1,0.1-0.1,0.2-0.1
		C24,53.2,24.1,53.3,24.1,53.4z"/>
	<path class="st40" d="M164.1,66.8c0.2-0.2,0.5-0.3,0.7,0C164.5,66.8,164.3,66.8,164.1,66.8z"/>
	<path class="st41" d="M46.1,67.7c0-0.3-0.4-0.4-0.4-0.7c0.2-0.2,0.5-0.1,0.7-0.2c0.2-0.2,0.3-0.1,0.4,0.1c0,0.3,0,0.5,0,0.8
		C46.5,67.7,46.3,67.7,46.1,67.7z"/>
	<path class="st42" d="M91,39.9c0-0.8-0.6-0.7-1.1-0.7c0.2-0.6,0.6-0.4,0.9-0.3c0.3,0.2,0.7,0.4,0.8,0.8C91.6,40,91.2,39.8,91,39.9z
		"/>
	<path class="st21" d="M106.9,53.9c0.4,0.3,0.5,0.6,0.3,1c-0.1,0.1-0.2,0-0.3,0C106.4,54.5,107,54.3,106.9,53.9z"/>
	<path class="st43" d="M201.6,67.2c-5.2,0-10.5,0-15.7,0c0-0.1,0-0.1,0-0.2c5.1,0,10.1,0,15.2,0C201.3,67,201.5,67,201.6,67.2
		C201.6,67.2,201.6,67.2,201.6,67.2z"/>
	<path class="st44" d="M236,67.1c-5,0-10,0-15,0c0,0,0,0,0-0.1C225.9,67,230.9,67,236,67.1C235.9,67,235.9,67.1,236,67.1z"/>
	<path class="st45" d="M187.3,19.1c4.7,0,9.5,0,14.2,0c0,0.1,0,0.1,0,0.2c-4.7,0-9.5,0-14.2,0C187.3,19.3,187.3,19.2,187.3,19.1z"/>
	<path class="st46" d="M169.8,56.1c1.3,0,2.7,0,4,0c0,0,0,0,0,0.1C172.5,56.2,171.2,56.2,169.8,56.1
		C169.8,56.1,169.8,56.1,169.8,56.1z"/>
	<path class="st47" d="M178.6,55.8c-0.3,0-0.5,0-0.8,0C178.1,55.6,178.4,55.6,178.6,55.8z"/>
	<path class="st11" d="M175,35.8c-3.9,0-7.8,0-11.7,0C167.3,35.8,171.1,35.3,175,35.8z"/>
	<path class="st11" d="M179.5,35.5c-0.9,0.5-1.9,0.2-3.1,0.4C177.5,35.3,178.5,35.5,179.5,35.5z"/>
	<path class="st48" d="M220.5,19.2c5,0,10.1,0,15.1,0c0,0,0,0,0,0.1C230.6,19.2,225.5,19.2,220.5,19.2
		C220.5,19.2,220.5,19.2,220.5,19.2z"/>
	<path class="st49" d="M126.7,66.8c0.7-0.5,0.7-0.5,1.7,0C127.8,66.9,127.3,66.9,126.7,66.8z"/>
	<path class="st50" d="M44.6,64c-0.8-1.4-1-2.9-0.8-4.4c0.3-0.1,0.7-0.4,0.7,0.2c-0.1,1.2,0.5,2.3,0.4,3.5
		C44.9,63.5,45.1,63.9,44.6,64z"/>
	<path class="st51" d="M44.2,58.8c0.1-0.3-0.1-0.7,0.2-0.9C44.6,58.3,44.8,58.6,44.2,58.8z"/>
	<path class="st52" d="M45.1,65.1c-0.6,0.1-0.6-0.4-0.5-0.8C45,64.4,44.9,64.9,45.1,65.1z"/>
	<path class="st53" d="M48.2,64.6c0,0.2-0.1,0.2-0.3,0.2c-0.1,0-0.3,0-0.3-0.2c0-0.2,0.1-0.2,0.3-0.2C48,64.4,48.2,64.4,48.2,64.6z"
		/>
	<path class="st54" d="M46.4,66.8c-0.2,0.3-0.5,0.1-0.7,0.2c0-0.1,0-0.2-0.1-0.3c0.1,0,0.3,0,0.4,0C46.2,66.7,46.3,66.7,46.4,66.8z"
		/>
	<path class="st55" d="M158.1,44.5c11.7,0,23.4,0,35,0c0.9,0,0.7-0.6,1-1.2c0.1,0.5-0.4,1,0.2,1.3c-12.1,0-24.2,0-36.3,0
		C158.1,44.6,158.1,44.6,158.1,44.5z"/>
	<path class="st56" d="M35.3,59.5c0.3,0,0.3,0.2,0.4,0.4c-0.2,0-0.4,0.2-0.5,0.3c-0.2,0.1-0.3,0.5-0.6,0.2c-0.2-0.2,0-0.4,0.2-0.6
		C35,59.7,35.1,59.6,35.3,59.5z"/>
	<path class="st57" d="M42,64.8c0.3-0.1,0.4,0.1,0.6,0.3C42.3,65.1,42,65.1,42,64.8z"/>
	<path class="st58" d="M137.3,19.3c-0.3-0.3-0.7-0.2-1.1-0.2c-3.8,0-7.7,0-11.5,0c-0.3,0-0.7,0.1-1-0.1c4.3,0,8.7,0,13,0
		C137,19,137.5,18.7,137.3,19.3z"/>
	<path class="st59" d="M50.9,50c0.5-0.3,1-0.7,1.3-1.3c0.3,0.8-0.1,1.3-1.3,1.7C50.9,50.2,50.9,50.1,50.9,50z"/>
	<path class="st60" d="M46,19.3c-1.3,0.1-1,1-1,1.7c0,0.4-0.1,0.8-0.4,1.2c0-0.9-0.1-1.9,0-2.7C44.7,18.8,45.4,19.2,46,19.3z"/>
</g>
</svg>
