<?xml version="1.0" encoding="utf-8"?>
<!-- Generator: Adobe Illustrator 28.0.0, SVG Export Plug-In . SVG Version: 6.00 Build 0)  -->
<svg version="1.1" id="Capa_1" xmlns="http://www.w3.org/2000/svg" xmlns:xlink="http://www.w3.org/1999/xlink" x="0px" y="0px"
	 viewBox="0 0 496.7 154" style="enable-background:new 0 0 496.7 154;" xml:space="preserve">
<style type="text/css">
	.st0{fill:#1A1414;}
	.st1{fill:#E98726;}
</style>
<path class="st0" d="M19.8,83.1c0.5-0.8,1.2-1,2.2-0.9c5.4,0,10.8,0,16.3,0c1.4,0,2.6,0.5,3.5,1.7c11.8,14.7,23.6,29.4,35.4,44.1
	c0.9,1.1,2,2.2,3.2,2.9c3.6,2.3,7.4,1.9,10.5-1c1.8-1.8,3.4-3.8,4.9-5.8c15.3-20.7,30.6-41.4,45.8-62.2
	c11.2-15.3,22.2-30.7,33.4-46.1c0.8-1.1,1.9-1.9,2.9-2.9H197c0.7,1.5-0.2,2.5-1,3.6c-26.2,35.5-52.4,71-78.5,106.5
	c-4.1,5.5-8.1,11.1-12.2,16.6c-0.5,0.6-1.3,1-1.9,1.5H67.2c-0.5-0.4-1.2-0.8-1.6-1.3c-11-13.6-22-27.1-33-40.7
	c-4.2-5.2-8.5-10.5-12.8-15.7V83.1z"/>
<path class="st0" d="M303.3,115.1c-4.5,0.8-8.9,1.9-13.3,2.4c-7.9,1-15.5,0.4-22.8-3.2c-2.7-1.4-4.2-3-3.7-6.2
	c0.3-1.7,0.7-2.8,2.2-3.8c6.5-4.1,13.7-5.7,21.3-4.9c3.2,0.3,6.2,1.2,9.4,1.9c1.3,0.3,1.5,0.2,1.5-1.1c0.1-5.3-2.2-8.5-7.1-9.6
	c-5.1-1.2-10.1,0.9-12.2,5.4c-0.6,1.2-1.2,1.5-2.5,1.5c-3.6-0.1-7.2,0-10.8,0c-1.4,0-1.7-0.3-1.7-1.7c0-1.5,0.1-3,0-4.6
	c-0.1-1.2,0.4-1.8,1.4-2.3c4.7-2.5,9.8-4.1,15.1-4.7c11.9-1.5,22.8,1.3,33.1,7c0.8,0.4,1,1,1,1.8c-0.1,8-0.1,15.9-0.2,23.9
	c0,1-0.5,1.4-1.5,1.4c-2,0-3.9,0-5.9,0c-1.8,0-2.8-0.8-3.2-2.4C303.4,115.4,303.3,115.1,303.3,115.1 M286.2,111.5
	c2.1-0.4,4.4-0.7,6.6-1.3c1.2-0.3,2.6-0.8,2.5-2.2c0-1.4-1.4-1.8-2.6-2.2c-3.7-1.2-7.4-1.3-11.2-0.6c-1.3,0.3-2.6,0.7-3.8,1.4
	c-1.5,0.8-1.4,2,0,2.9c0.7,0.4,1.4,0.8,2.2,1C281.9,110.9,283.9,111.2,286.2,111.5"/>
<path class="st0" d="M424.4,101.4c0-3.5,0-6.9,0-10.4c0-1.2,0.4-2.1,1.5-2.7c5.3-3.3,11.1-4.7,17.3-4.9c8.7-0.3,17,1.3,25.2,4
	c1.3,0.4,1.8,1.1,1.8,2.4c-0.1,2,0,3.9,0,5.9c0,1.4-0.3,1.6-1.7,1.6c-3.1,0-6.2,0-9.3,0c-1,0-1.6-0.3-2.1-1.1
	c-1.9-3.1-4.3-5.7-8.2-6.1c-7.3-0.9-14.5,4.1-13.4,12.5c0.6,4.4,4.2,6.8,8.3,8c5.1,1.5,11.5-1.5,14-6.1c0.2-0.4,0.8-0.8,1.3-0.8
	c3.3-0.1,6.6-0.1,9.9,0c1,0,1.5,0.6,1.5,1.6c0,2.1,0,4.1,0,6.2c0,1-0.5,1.8-1.5,2.2c-8.8,3.1-17.9,5-27.4,4.6
	c-5.3-0.2-10.4-1.2-15.2-3.5c-1.2-0.6-1.8-1.5-1.8-2.8C424.4,108.5,424.4,105,424.4,101.4"/>
<path class="st0" d="M172.9,101.1c0-3.5,0-7,0-10.5c0-1.1,0.4-1.9,1.4-2.5c4.8-3.1,10.2-4.5,15.9-4.9c9.3-0.6,18.2,1.1,26.9,4
	c1.1,0.4,1.6,0.9,1.5,2.1c-0.1,2.1,0,4.2,0,6.3c0,1.1-0.4,1.6-1.7,1.6c-3.1-0.1-6.1-0.1-9.2,0c-1.1,0-1.7-0.4-2.3-1.2
	c-1.7-2.8-3.9-5-7.2-5.9c-6.3-1.6-13.2,2.8-14.3,9.1c-0.9,5.1,2.8,10,8.5,11.4c5,1.2,11.4-1.7,13.7-6.1c0.2-0.4,0.9-0.9,1.4-0.9
	c3.2-0.1,6.4-0.1,9.6,0c1,0,1.7,0.5,1.7,1.6c0,2.1,0,4.1,0,6.2c0,1.1-0.6,1.8-1.7,2.2c-8,2.8-16.2,4.6-24.7,4.7
	c-6.1,0.1-12-0.9-17.5-3.4c-1.4-0.6-2-1.6-2-3.1C173,108.1,172.9,104.6,172.9,101.1"/>
<path class="st0" d="M358.4,113.7c-5,2.7-10.3,3.9-15.9,4c-6.3,0.1-12.3-1.2-18-3.5c-1.3-0.5-2-1.6-2-3c0-8.3,0.1-16.7,0-25
	c0-1.1,0.4-1.7,1.6-1.6c3,0.1,6.1,0,9.1,0c1.5,0,1.8,0.2,1.8,1.7c0,6,0.1,12.1,0,18.1c0,2,0.7,3.5,2.6,4.6c5.4,3.3,13.6,3,18.2-0.5
	c2-1.5,3-3.4,3-6c-0.1-5.4-0.1-10.8-0.2-16.1c0-1.7,0-1.8,1.9-1.8c3.1,0,6.2,0,9.3,0c0.9,0,1.3,0.3,1.3,1.2c0,10,0,20,0,30
	c0,0.9-0.4,1.2-1.3,1.2c-2.5,0-4.9,0-7.4,0c-1.7,0-2.9-0.6-3.5-2.2C358.8,114.4,358.6,114.1,358.4,113.7"/>
<path class="st0" d="M229.4,103.3c0-3,0-6,0-9c0-1.3-0.3-1.7-1.7-1.7c-1.1,0-2.2,0-3.3,0c-0.9,0-1.3-0.3-1.3-1.2
	c0.1-1.2,0-2.5,0-3.7c0-1,0.4-1.3,1.4-1.3c1.1,0,2.3,0,3.5,0c1.1,0.1,1.4-0.5,1.4-1.4c0-2.3,0-4.6,0-6.9c0-1.3,0.5-1.8,1.9-1.8
	c3,0,6.1,0,9.1,0c1,0,1.6,0.4,1.5,1.5c0,2.3,0,4.7,0,7c0,1.3,0.4,1.7,1.7,1.7c2.3,0,4.6,0,6.9,0c1.5,0,1.8,0.3,1.8,1.7c0,1,0,2,0,3
	c0,1.3-0.4,1.6-1.8,1.6c-2.4,0-4.9,0-7.3,0c-1,0-1.4,0.3-1.4,1.3c0.1,4.7,0,9.4,0,14.1c0,1.5,1.1,2.6,2.6,2.7c1.1,0.1,2-0.8,2.2-2.3
	c0.1-0.8,0.1-1.6,0.1-2.5c0-0.9,0.4-1.4,1.4-1.4c3.2,0,6.3,0,9.5,0c0.8,0,1.2,0.4,1.2,1.1c0,1.6,0.2,3.2,0,4.8
	c-0.2,1.1-0.8,2.2-1.5,3c-2.4,2.5-5.6,3.6-9,4.1c-4.8,0.7-9.5,0.2-14.1-1.2c-0.9-0.3-1.7-0.7-2.5-1.1c-1.5-0.8-2.2-2-2.2-3.7
	C229.5,108.9,229.4,106.1,229.4,103.3"/>
<path class="st0" d="M394.5,94c0,7.1,0,14.3,0,21.4c0,1.7-0.1,1.8-1.8,1.8c-3.7,0-7.4,0-11.1,0c-1.5,0-1.7-0.3-1.7-1.7V72.4
	c0-1.5,0.2-1.7,1.8-1.7c3.7,0,7.3,0,11,0c1.7,0,1.9,0.2,1.9,1.9V94z"/>
<path class="st0" d="M164.9,105.4c0,3.4,0,6.7,0,10.1c0,1.3-0.5,1.8-1.9,1.8c-2.6,0-5.3,0-7.9,0c-2,0-2.6-0.5-2.6-2.4
	c0-5.5,0-11.1,0-16.6c0-1.1,0-2.2,0-3.3c0-1.1,0.6-1.6,1.6-1.6c2.9,0,5.9,0,8.8,0c1.2,0,1.9,0.8,1.9,1.9
	C164.9,98.7,164.9,102.1,164.9,105.4"/>
<path class="st0" d="M415.7,105.4c0,3.3,0,6.7,0,10c0,1.4-0.4,1.8-1.9,1.8c-2.8,0-5.6,0-8.4,0c-1.2,0-1.9-0.6-1.9-1.8
	c0-6.9,0-13.9,0-20.8c0-0.9,0.5-1.4,1.4-1.4c3,0,6.1,0,9.1,0c1.1,0,1.8,0.8,1.8,1.9C415.8,98.6,415.8,102,415.7,105.4"/>
<path class="st1" d="M415.7,87c0,1.3,0,2.7,0,4c0,0.5-0.4,0.7-1.9,0.7c-2.8,0-5.6,0-8.4,0c-1.2,0-1.9-0.2-1.9-0.7c0-2.8,0-5.5,0-8.3
	c0-0.4,0.5-0.5,1.4-0.6c3,0,6.1,0,9.1,0c1.1,0,1.8,0.3,1.8,0.8C415.8,84.3,415.8,85.7,415.7,87"/>
<path class="st1" d="M164.8,87c0,1.3,0,2.7,0,4c0,0.5-0.4,0.7-1.9,0.7c-2.8,0-5.6,0-8.4,0c-1.2,0-1.9-0.2-1.9-0.7c0-2.8,0-5.5,0-8.3
	c0-0.4,0.5-0.5,1.4-0.6c3,0,6.1,0,9.1,0c1.1,0,1.8,0.3,1.8,0.8C164.8,84.3,164.8,85.7,164.8,87"/>
<polygon class="st1" points="119.2,141.1 127.2,131.5 468.8,131.5 468.8,140.8 "/>
</svg>
