<?xml version="1.0" encoding="utf-8"?>
<!-- Generator: Adobe Illustrator 28.0.0, SVG Export Plug-In . SVG Version: 6.00 Build 0)  -->
<svg version="1.1" id="Capa_1" xmlns="http://www.w3.org/2000/svg" xmlns:xlink="http://www.w3.org/1999/xlink" x="0px" y="0px"
	 viewBox="0 0 509 161" style="enable-background:new 0 0 509 161;" xml:space="preserve">
<style type="text/css">
	.st0{fill:#FFFFFF;}
	.st1{fill:#00B451;}
	.st2{opacity:0.72;}
	.st3{clip-path:url(#SVGID_00000130608526895710687030000007561316584287488170_);fill:#00AE42;}
	.st4{fill:#00CE7C;}
	.st5{clip-path:url(#SVGID_00000019655107569652312790000004231238828202813631_);fill:#00AE42;}
	.st6{clip-path:url(#SVGID_00000025434380157801862600000017670064724831250063_);fill:#00AE42;}
	.st7{clip-path:url(#SVGID_00000066473660922911350640000006364841874174559374_);fill:#00AE42;}
	.st8{clip-path:url(#SVGID_00000163766654087906299950000006528513781955866285_);fill:#00AE42;}
	.st9{clip-path:url(#SVGID_00000036941416912960948210000006245016709302599824_);fill:#00AE42;}
	.st10{fill:#79DEA8;}
	.st11{clip-path:url(#SVGID_00000018938262544761613980000007516924614508830651_);fill:#00AE42;}
	.st12{clip-path:url(#SVGID_00000024687039180837616190000008908332510099425727_);fill:#00AE42;}
</style>
<g>
	<g>
		<polygon class="st0" points="165.3,118.1 165.3,88.3 154.6,88.3 154.6,79.6 186,79.6 186,88.3 175.3,88.3 175.3,118.1 		"/>
	</g>
	<path class="st0" d="M193.6,102.5V79.6h10.1v22.6c0,4.6,2.8,7.9,8.1,7.9c5.3,0,8.1-3.3,8.1-7.9V79.6h10v22.8
		c0,9.6-5.8,16.3-18.1,16.3C199.5,118.8,193.6,112,193.6,102.5"/>
	<g>
		<polygon class="st0" points="250.2,118.1 235.7,79.6 247,79.6 256.5,107.4 265.9,79.6 277.2,79.6 262.7,118.1 		"/>
	</g>
	<g>
		<path class="st0" d="M306.5,118.1l-1.9-5.5h-15.2l-1.9,5.5h-11.2l14.5-38.5h12.5l14.5,38.5H306.5z M297.1,89.4l-4.9,14.5h9.8
			L297.1,89.4z"/>
	</g>
	<g>
		<polygon class="st0" points="349.7,118.1 333.4,95.8 333.4,118.1 323.5,118.1 323.5,79.6 333.7,79.6 349.3,100.8 349.3,79.6 
			359.3,79.6 359.3,118.1 		"/>
	</g>
	<path class="st0" d="M367.1,98.9c0-11.7,8.8-19.9,20.6-19.9c11.8,0,20.5,8.2,20.5,19.9c0,11.7-8.8,19.9-20.5,19.9
		C376,118.8,367.1,110.6,367.1,98.9 M398.2,98.9c0-6.3-4.1-11.1-10.4-11.1c-6.3,0-10.5,4.8-10.5,11.1c0,6.2,4.2,11.1,10.5,11.1
		C394.1,110,398.2,105.1,398.2,98.9"/>
	<path class="st0" d="M413.4,112.7l5.2-7.7c2.8,2.8,7,5.1,12.3,5.1c3.3,0,5.4-1.2,5.4-3.1c0-5.1-21.8-0.9-21.8-15.7
		c0-6.5,5.4-12.2,15.3-12.2c6.2,0,11.5,1.8,15.6,5.4l-5.4,7.4c-3.2-2.7-7.4-4-11.2-4c-2.9,0-4.2,1-4.2,2.7c0,4.7,21.7,1.2,21.7,15.5
		c0,7.7-5.7,12.9-16,12.9C422.7,118.8,417.3,116.3,413.4,112.7"/>
	<g>
		<path class="st0" d="M479.6,118.1l-1.9-5.5h-15.2l-1.9,5.5h-11.2l14.5-38.5h12.5l14.5,38.5H479.6z M470.1,89.4l-4.9,14.5h9.8
			L470.1,89.4z"/>
	</g>
	<g>
		<polygon class="st0" points="154.3,68.4 154.3,43.2 170.3,43.2 170.3,45.1 156.5,45.1 156.5,54.5 170.1,54.5 170.1,56.4 
			156.5,56.4 156.5,68.4 		"/>
	</g>
	<path class="st0" d="M191.5,58.7V43.2h2.2v15.5c0,5.1,2.7,8.2,7.6,8.2c5,0,7.6-3.1,7.6-8.2V43.2h2.2v15.5c0,6.2-3.3,10.1-9.8,10.1
		C194.8,68.8,191.5,64.9,191.5,58.7"/>
	<g>
		<polygon class="st0" points="252.1,68.4 236.2,46.7 236.2,68.4 234.1,68.4 234.1,43.2 236.3,43.2 252.1,64.5 252.1,43.2 
			254.2,43.2 254.2,68.4 		"/>
	</g>
	<path class="st0" d="M277.1,68.4V43.2h8.1c7.8,0,12.7,5.7,12.7,12.6c0,7-4.9,12.6-12.7,12.6H277.1z M295.7,55.8
		c0-5.9-3.8-10.7-10.5-10.7h-5.9v21.3h5.9C291.8,66.4,295.7,61.7,295.7,55.8"/>
	<g>
		<path class="st0" d="M336.7,68.4l-2.5-6.2h-13.3l-2.5,6.2h-2.5l10.3-25.2h2.7l10.3,25.2H336.7z M327.6,45.5l-6,14.7h11.9
			L327.6,45.5z"/>
	</g>
	<path class="st0" d="M357.1,55.8c0-7.7,5.6-13,12.8-13c4,0,7.1,1.8,9.2,4.5l-1.8,1.2c-1.6-2.2-4.3-3.7-7.4-3.7
		c-5.9,0-10.5,4.5-10.5,11.1c0,6.5,4.6,11.1,10.5,11.1c3,0,5.8-1.5,7.4-3.7l1.9,1.1c-2.3,2.8-5.2,4.5-9.2,4.5
		C362.8,68.8,357.1,63.6,357.1,55.8"/>
	<g>
		<rect x="400.1" y="43.2" class="st0" width="2.2" height="25.2"/>
	</g>
	<path class="st0" d="M424.2,55.8c0-7.4,4.8-13,12.3-13c7.4,0,12.3,5.7,12.3,13c0,7.4-4.9,13-12.3,13
		C429.1,68.8,424.2,63.2,424.2,55.8 M446.5,55.8c0-6.4-3.9-11.1-10-11.1c-6.1,0-10,4.7-10,11.1c0,6.4,3.9,11.1,10,11.1
		C442.5,66.9,446.5,62.2,446.5,55.8 M436,40.9h-1.7l5.8-5.4h2.3L436,40.9z"/>
	<g>
		<polygon class="st0" points="488.7,68.4 472.9,46.7 472.9,68.4 470.7,68.4 470.7,43.2 472.9,43.2 488.7,64.5 488.7,43.2 
			490.9,43.2 490.9,68.4 		"/>
	</g>
</g>
<g>
	<path class="st1" d="M61.6,67c-2.2-4.9-3.5-10.3-3.5-16c0-3.9,0.6-7.6,1.6-11.1c-8.8-4.8-19.1-5.9-28.6-3.4
		c-2.5,9.5-1.4,19.8,3.4,28.6c3.5-1,7.2-1.6,11.1-1.6C51.3,63.6,56.7,64.8,61.6,67"/>
	<path class="st1" d="M61.6,99.1c-4.9,2.2-10.3,3.5-16,3.5c-3.9,0-7.6-0.6-11.1-1.6c-4.8,8.8-5.9,19.1-3.4,28.6
		c9.5,2.5,19.8,1.4,28.6-3.4c-1-3.5-1.6-7.2-1.6-11.1C58.1,109.4,59.4,104,61.6,99.1"/>
	<path class="st1" d="M55,83.1c-5-1.9-9.7-4.8-13.7-8.8c-2.7-2.7-4.9-5.8-6.7-9c-9.6,2.9-17.7,9.3-22.6,17.8
		c4.9,8.5,13,15,22.6,17.8c1.7-3.2,3.9-6.3,6.7-9C45.2,87.9,49.9,85,55,83.1"/>
	<path class="st1" d="M93.6,99.1c2.2,4.9,3.5,10.3,3.5,16c0,3.9-0.6,7.6-1.6,11.1c8.8,4.8,19.1,5.9,28.6,3.4
		c2.5-9.5,1.4-19.8-3.4-28.6c-3.5,1-7.2,1.6-11.1,1.6C103.9,102.6,98.5,101.3,93.6,99.1"/>
	<path class="st1" d="M93.6,67c4.9-2.2,10.3-3.5,16-3.5c3.9,0,7.6,0.6,11.1,1.6c4.8-8.8,5.9-19.1,3.4-28.6
		c-9.5-2.5-19.8-1.4-28.6,3.4c1,3.5,1.6,7.2,1.6,11.1C97.1,56.8,95.9,62.2,93.6,67"/>
	<g class="st2">
		<g>
			<defs>
				<rect id="SVGID_1_" x="34.5" y="63.6" width="37.7" height="19.5"/>
			</defs>
			<clipPath id="SVGID_00000143579366746284795090000006668586131770233736_">
				<use xlink:href="#SVGID_1_"  style="overflow:visible;"/>
			</clipPath>
			<path style="clip-path:url(#SVGID_00000143579366746284795090000006668586131770233736_);fill:#00AE42;" d="M55,83.1
				c5.5-2.1,11.4-2.8,17.2-2.3C67.7,77.1,64,72.4,61.6,67c-4.9-2.2-10.3-3.5-16-3.5c-3.9,0-7.6,0.6-11.1,1.6c1.7,3.2,3.9,6.3,6.7,9
				C45.2,78.3,49.9,81.2,55,83.1"/>
		</g>
	</g>
	<path class="st4" d="M55,83.1c5.5-2.1,11.4-2.8,17.2-2.3C67.7,77.1,64,72.4,61.6,67c-4.9-2.2-10.3-3.5-16-3.5
		c-3.9,0-7.6,0.6-11.1,1.6c1.7,3.2,3.9,6.3,6.7,9C45.2,78.3,49.9,81.2,55,83.1"/>
	<g class="st2">
		<g>
			<defs>
				<rect id="SVGID_00000053543935009660660990000017300918195441395357_" x="34.5" y="83.1" width="37.7" height="19.5"/>
			</defs>
			<clipPath id="SVGID_00000050626640948413714680000000291595311965141649_">
				<use xlink:href="#SVGID_00000053543935009660660990000017300918195441395357_"  style="overflow:visible;"/>
			</clipPath>
			<path style="clip-path:url(#SVGID_00000050626640948413714680000000291595311965141649_);fill:#00AE42;" d="M61.6,99.1
				c2.4-5.4,6.1-10,10.6-13.8c-5.8,0.5-11.7-0.2-17.2-2.3c-5,1.9-9.7,4.8-13.7,8.8c-2.7,2.7-4.9,5.8-6.7,9c3.5,1,7.2,1.6,11.1,1.6
				C51.3,102.6,56.7,101.3,61.6,99.1"/>
		</g>
	</g>
	<path class="st4" d="M61.6,99.1c2.4-5.4,6.1-10,10.6-13.8c-5.8,0.5-11.7-0.2-17.2-2.3c-5,1.9-9.7,4.8-13.7,8.8
		c-2.7,2.7-4.9,5.8-6.7,9c3.5,1,7.2,1.6,11.1,1.6C51.3,102.6,56.7,101.3,61.6,99.1"/>
	<path class="st1" d="M143.4,83.1c-4.9-8.5-13-15-22.6-17.8c-1.7,3.2-3.9,6.3-6.7,9c-4,4-8.7,6.9-13.7,8.8c5,1.9,9.7,4.8,13.7,8.8
		c2.7,2.7,4.9,5.8,6.7,9C130.3,98.1,138.4,91.6,143.4,83.1"/>
	<g class="st2">
		<g>
			<defs>
				<rect id="SVGID_00000060724321424573371020000010445916753744443023_" x="83.1" y="83.1" width="37.7" height="19.5"/>
			</defs>
			<clipPath id="SVGID_00000060028923697750252510000006576355115438698889_">
				<use xlink:href="#SVGID_00000060724321424573371020000010445916753744443023_"  style="overflow:visible;"/>
			</clipPath>
			<path style="clip-path:url(#SVGID_00000060028923697750252510000006576355115438698889_);fill:#00AE42;" d="M100.3,83.1
				c-5.5,2.1-11.4,2.8-17.2,2.3c4.5,3.7,8.2,8.4,10.6,13.8c4.9,2.2,10.3,3.5,16,3.5c3.9,0,7.6-0.6,11.1-1.6c-1.7-3.2-3.9-6.3-6.7-9
				C110,87.9,105.3,85,100.3,83.1"/>
		</g>
	</g>
	<path class="st4" d="M100.3,83.1c-5.5,2.1-11.4,2.8-17.2,2.3c4.5,3.7,8.2,8.4,10.6,13.8c4.9,2.2,10.3,3.5,16,3.5
		c3.9,0,7.6-0.6,11.1-1.6c-1.7-3.2-3.9-6.3-6.7-9C110,87.9,105.3,85,100.3,83.1"/>
	<g class="st2">
		<g>
			<defs>
				<rect id="SVGID_00000114768400570067443640000009730943845620519040_" x="83.1" y="63.6" width="37.7" height="19.5"/>
			</defs>
			<clipPath id="SVGID_00000018199304395147042420000011413204111073743789_">
				<use xlink:href="#SVGID_00000114768400570067443640000009730943845620519040_"  style="overflow:visible;"/>
			</clipPath>
			<path style="clip-path:url(#SVGID_00000018199304395147042420000011413204111073743789_);fill:#00AE42;" d="M93.6,67
				c-2.4,5.4-6.1,10-10.6,13.8c5.8-0.5,11.7,0.2,17.2,2.3c5-1.9,9.7-4.8,13.7-8.8c2.7-2.7,4.9-5.8,6.7-9c-3.5-1-7.2-1.6-11.1-1.6
				C103.9,63.6,98.5,64.8,93.6,67"/>
		</g>
	</g>
	<path class="st4" d="M93.6,67c-2.4,5.4-6.1,10-10.6,13.8c5.8-0.5,11.7,0.2,17.2,2.3c5-1.9,9.7-4.8,13.7-8.8c2.7-2.7,4.9-5.8,6.7-9
		c-3.5-1-7.2-1.6-11.1-1.6C103.9,63.6,98.5,64.8,93.6,67"/>
	<path class="st1" d="M77.6,60.4c1.9-5,4.8-9.7,8.8-13.7c2.7-2.7,5.8-4.9,9-6.7c-2.9-9.6-9.3-17.7-17.8-22.6
		c-8.5,4.9-15,13-17.8,22.6c3.2,1.7,6.3,3.9,9,6.7C72.8,50.7,75.7,55.4,77.6,60.4"/>
	<g class="st2">
		<g>
			<defs>
				<rect id="SVGID_00000005962320313400664690000003661720860732956581_" x="58.1" y="40" width="19.5" height="37.7"/>
			</defs>
			<clipPath id="SVGID_00000094617386408079173210000016627662068530739849_">
				<use xlink:href="#SVGID_00000005962320313400664690000003661720860732956581_"  style="overflow:visible;"/>
			</clipPath>
			<path style="clip-path:url(#SVGID_00000094617386408079173210000016627662068530739849_);fill:#00AE42;" d="M61.6,67
				c5.4,2.4,10,6.1,13.8,10.6c-0.5-5.8,0.2-11.7,2.3-17.2c-1.9-5-4.8-9.7-8.8-13.7c-2.7-2.7-5.8-4.9-9-6.7c-1,3.5-1.6,7.2-1.6,11.1
				C58.1,56.8,59.4,62.2,61.6,67"/>
		</g>
	</g>
	<path class="st4" d="M61.6,67c5.4,2.4,10,6.1,13.8,10.6c-0.5-5.8,0.2-11.7,2.3-17.2c-1.9-5-4.8-9.7-8.8-13.7
		c-2.7-2.7-5.8-4.9-9-6.7c-1,3.5-1.6,7.2-1.6,11.1C58.1,56.8,59.4,62.2,61.6,67"/>
	<g class="st2">
		<g>
			<defs>
				<rect id="SVGID_00000170279583224175239030000016838519807817055143_" x="77.6" y="40" width="19.5" height="37.6"/>
			</defs>
			<clipPath id="SVGID_00000105426669135551077970000006003019610579897741_">
				<use xlink:href="#SVGID_00000170279583224175239030000016838519807817055143_"  style="overflow:visible;"/>
			</clipPath>
			<path style="clip-path:url(#SVGID_00000105426669135551077970000006003019610579897741_);fill:#00AE42;" d="M77.6,60.4
				c2.1,5.5,2.8,11.4,2.3,17.2c3.7-4.5,8.4-8.2,13.8-10.6c2.2-4.9,3.5-10.3,3.5-16c0-3.9-0.6-7.6-1.6-11.1c-3.2,1.7-6.3,3.9-9,6.7
				C82.4,50.7,79.5,55.4,77.6,60.4"/>
		</g>
	</g>
	<path class="st4" d="M77.6,60.4c2.1,5.5,2.8,11.4,2.3,17.2c3.7-4.5,8.4-8.2,13.8-10.6c2.2-4.9,3.5-10.3,3.5-16
		c0-3.9-0.6-7.6-1.6-11.1c-3.2,1.7-6.3,3.9-9,6.7C82.4,50.7,79.5,55.4,77.6,60.4"/>
	<path class="st10" d="M75.4,77.6C71.6,73.2,67,69.5,61.6,67c2.4,5.4,6.1,10,10.6,13.8c1.2,0.1,2.4,0.2,3.6,0.4
		C75.6,80,75.5,78.8,75.4,77.6"/>
	<path class="st10" d="M79.9,88.5c3.7,4.5,8.4,8.2,13.8,10.6c-2.4-5.4-6.1-10-10.6-13.8c-1.2-0.1-2.4-0.2-3.6-0.4
		C79.7,86.1,79.8,87.3,79.9,88.5"/>
	<path class="st10" d="M83.1,80.8c4.5-3.7,8.2-8.4,10.6-13.8c-5.4,2.4-10,6.1-13.8,10.6c-0.1,1.2-0.2,2.4-0.4,3.6
		C80.7,81,81.9,80.9,83.1,80.8"/>
	<path class="st10" d="M72.2,85.3c-4.5,3.7-8.2,8.4-10.6,13.8c5.4-2.4,10-6.1,13.8-10.6c0.1-1.2,0.2-2.4,0.4-3.6
		C74.6,85.1,73.4,85.2,72.2,85.3"/>
	<path class="st10" d="M72.2,80.8C66.4,80.3,60.5,81,55,83.1c5.5,2.1,11.4,2.8,17.2,2.3c0.9-0.8,1.8-1.6,2.8-2.3
		C74,82.4,73.1,81.6,72.2,80.8"/>
	<path class="st10" d="M83.1,80.8c-0.9,0.8-1.8,1.6-2.8,2.3c1,0.7,1.9,1.5,2.8,2.3c5.8,0.5,11.7-0.2,17.2-2.3
		C94.8,81,88.9,80.3,83.1,80.8"/>
	<path class="st10" d="M79.9,77.6c0.5-5.8-0.2-11.7-2.3-17.2c-2.1,5.5-2.8,11.4-2.3,17.2c0.8,0.9,1.6,1.8,2.3,2.8
		C78.3,79.5,79.1,78.6,79.9,77.6"/>
	<path class="st10" d="M75.4,88.5c-0.5,5.8,0.2,11.7,2.3,17.2c2.1-5.5,2.8-11.4,2.3-17.2c-0.8-0.9-1.6-1.8-2.3-2.8
		C76.9,86.7,76.1,87.6,75.4,88.5"/>
	<path class="st1" d="M77.6,105.7c-1.9,5-4.8,9.7-8.8,13.7c-2.7,2.7-5.8,4.9-9,6.7c2.9,9.6,9.3,17.7,17.8,22.6
		c8.5-4.9,15-13,17.8-22.6c-3.2-1.7-6.3-3.9-9-6.7C82.4,115.4,79.5,110.7,77.6,105.7"/>
	<g class="st2">
		<g>
			<defs>
				<rect id="SVGID_00000181082951438862960180000007773388692630999967_" x="77.6" y="88.5" width="19.5" height="37.7"/>
			</defs>
			<clipPath id="SVGID_00000024681704461738178910000000283311429335626647_">
				<use xlink:href="#SVGID_00000181082951438862960180000007773388692630999967_"  style="overflow:visible;"/>
			</clipPath>
			<path style="clip-path:url(#SVGID_00000024681704461738178910000000283311429335626647_);fill:#00AE42;" d="M93.6,99.1
				c-5.4-2.4-10-6.1-13.8-10.6c0.5,5.8-0.2,11.7-2.3,17.2c1.9,5,4.8,9.7,8.8,13.7c2.7,2.7,5.8,4.9,9,6.7c1-3.5,1.6-7.2,1.6-11.1
				C97.1,109.4,95.9,104,93.6,99.1"/>
		</g>
	</g>
	<path class="st4" d="M93.6,99.1c-5.4-2.4-10-6.1-13.8-10.6c0.5,5.8-0.2,11.7-2.3,17.2c1.9,5,4.8,9.7,8.8,13.7
		c2.7,2.7,5.8,4.9,9,6.7c1-3.5,1.6-7.2,1.6-11.1C97.1,109.4,95.9,104,93.6,99.1"/>
	<g class="st2">
		<g>
			<defs>
				<rect id="SVGID_00000021097675288080840280000009525597564811324091_" x="58.1" y="88.5" width="19.5" height="37.7"/>
			</defs>
			<clipPath id="SVGID_00000047022357309448706120000000075045699787536002_">
				<use xlink:href="#SVGID_00000021097675288080840280000009525597564811324091_"  style="overflow:visible;"/>
			</clipPath>
			<path style="clip-path:url(#SVGID_00000047022357309448706120000000075045699787536002_);fill:#00AE42;" d="M77.6,105.7
				c-2.1-5.5-2.8-11.4-2.3-17.2C71.6,93,67,96.7,61.6,99.1c-2.2,4.9-3.5,10.3-3.5,16c0,3.9,0.6,7.6,1.6,11.1c3.2-1.7,6.3-3.9,9-6.7
				C72.8,115.4,75.7,110.7,77.6,105.7"/>
		</g>
	</g>
	<path class="st4" d="M77.6,105.7c-2.1-5.5-2.8-11.4-2.3-17.2C71.6,93,67,96.7,61.6,99.1c-2.2,4.9-3.5,10.3-3.5,16
		c0,3.9,0.6,7.6,1.6,11.1c3.2-1.7,6.3-3.9,9-6.7C72.8,115.4,75.7,110.7,77.6,105.7"/>
	<path class="st0" d="M80.2,83.1c1-0.7,1.9-1.5,2.8-2.3c-1.2,0.1-2.4,0.2-3.6,0.4c0.2-1.2,0.3-2.4,0.4-3.6c-0.8,0.9-1.6,1.8-2.3,2.8
		c-0.7-1-1.5-1.9-2.3-2.8c0.1,1.2,0.2,2.4,0.4,3.6c-1.2-0.2-2.4-0.3-3.6-0.4c0.9,0.8,1.8,1.6,2.8,2.3c-1,0.7-1.9,1.5-2.8,2.3
		c1.2-0.1,2.4-0.2,3.6-0.4c-0.2,1.2-0.3,2.4-0.4,3.6c0.8-0.9,1.6-1.8,2.3-2.8c0.7,1,1.5,1.9,2.2,2.8c0,0,0,0,0,0c0,0,0,0,0,0
		c-0.1-1.2-0.2-2.4-0.4-3.6c1.2,0.2,2.4,0.3,3.6,0.4C82.1,84.5,81.2,83.8,80.2,83.1"/>
	<path class="st0" d="M75.4,88.5C75.4,88.5,75.4,88.5,75.4,88.5C75.4,88.5,75.4,88.5,75.4,88.5C75.4,88.5,75.4,88.5,75.4,88.5"/>
</g>
</svg>
