<?xml version="1.0" encoding="utf-8"?>
<!-- Generator: Adobe Illustrator 28.0.0, SVG Export Plug-In . SVG Version: 6.00 Build 0)  -->
<svg version="1.1" id="Capa_1" xmlns="http://www.w3.org/2000/svg" xmlns:xlink="http://www.w3.org/1999/xlink" x="0px" y="0px"
	 viewBox="0 0 46.1 17.3" style="enable-background:new 0 0 46.1 17.3;" xml:space="preserve">
<style type="text/css">
	.st0{fill:#F08724;}
</style>
<g>
	<path class="st0" d="M8.7,6.6L7.8,5.6L5.6,7.9L6,8.3c0.1,0.2,0.4,0.2,0.5,0L6.8,8l0.3,0.3c0.7,0.7,0.7,1.8,0,2.5
		c-0.7,0.7-1.7,0.7-2.4,0C4,10.1,4,8.9,4.7,8.2l2.8-2.9L6.9,4.7l0,0L6.5,4.3l0,0c-0.3-0.3-0.8-0.3-1.1,0L3.2,6.6
		c-1.5,1.6-1.5,4.2,0,5.8c0.8,0.8,1.8,1.2,2.8,1.2s2-0.4,2.8-1.2C10.2,10.7,10.2,8.2,8.7,6.6 M8.1,11.7c-1.2,1.2-3.1,1.2-4.3,0
		c-1.2-1.2-1.2-3.2,0-4.5l2-2.1C5.9,5,6,5,6.1,5.1l0.2,0.2L4.1,7.6c-1,1.1-1,2.8,0,3.8c0.5,0.5,1.2,0.8,1.8,0.8
		c0.7,0,1.3-0.3,1.8-0.8c1-1.1,1.1-2.6,0.1-3.7L7.5,7.3l0.1-0.2c0.1-0.1,0.3-0.1,0.4,0l0.1,0.1C8.7,7.9,9,8.6,9,9.4
		C9,10.3,8.6,11.1,8.1,11.7"/>
	<path class="st0" d="M11.8,12.3V5.1h3.5c0.5,0,0.9,0.1,1.2,0.3c0.3,0.2,0.6,0.5,0.8,0.8c0.2,0.3,0.3,0.7,0.3,1.2
		c0,0.4-0.1,0.8-0.3,1.1c-0.2,0.3-0.5,0.6-0.8,0.8c-0.4,0.2-0.8,0.3-1.2,0.3h-2v2.7H11.8z M13.3,8.3h1.9c0.3,0,0.6-0.1,0.7-0.3
		c0.2-0.2,0.3-0.4,0.3-0.7c0-0.3-0.1-0.5-0.3-0.7c-0.2-0.2-0.4-0.3-0.7-0.3h-1.9V8.3z"/>
	<path class="st0" d="M20.7,12.4c-0.5,0-1-0.1-1.4-0.4c-0.4-0.3-0.7-0.6-1-1c-0.2-0.4-0.4-0.9-0.4-1.4c0-0.5,0.1-1,0.4-1.4
		c0.2-0.4,0.6-0.8,1-1c0.4-0.2,0.8-0.4,1.3-0.4c0.5,0,0.9,0.1,1.3,0.4c0.4,0.3,0.7,0.6,0.9,1c0.2,0.4,0.3,0.9,0.3,1.5v0.4h-3.8
		c0.1,0.2,0.2,0.4,0.3,0.6c0.1,0.2,0.3,0.3,0.5,0.4c0.2,0.1,0.4,0.1,0.6,0.1c0.2,0,0.4,0,0.6-0.1c0.2-0.1,0.4-0.2,0.5-0.3l0.9,0.8
		c-0.3,0.3-0.6,0.5-1,0.6C21.5,12.3,21.1,12.4,20.7,12.4 M19.3,9.1h2.5c-0.1-0.2-0.1-0.4-0.3-0.6c-0.1-0.2-0.3-0.3-0.4-0.4
		C20.9,8.1,20.7,8,20.5,8c-0.2,0-0.4,0-0.6,0.1c-0.2,0.1-0.3,0.2-0.4,0.4C19.4,8.7,19.3,8.9,19.3,9.1"/>
	<polygon class="st0" points="23.3,12.3 25.3,9.6 23.3,6.9 24.9,6.9 26,8.5 27.2,6.9 28.7,6.9 26.8,9.5 28.8,12.3 27.2,12.3 
		26,10.6 24.8,12.3 	"/>
	<path class="st0" d="M31.8,14.5c-0.4,0-0.8,0-1.2-0.1c-0.4-0.1-0.7-0.2-1-0.4l0.5-1.1c0.3,0.1,0.6,0.3,0.8,0.3
		c0.3,0.1,0.5,0.1,0.8,0.1c0.4,0,0.7-0.1,0.9-0.3c0.2-0.2,0.3-0.4,0.3-0.8v-0.4c-0.4,0.3-0.9,0.5-1.4,0.5c-0.5,0-0.9-0.1-1.3-0.4
		c-0.4-0.2-0.7-0.6-0.9-1c-0.2-0.4-0.3-0.9-0.3-1.4c0-0.5,0.1-1,0.3-1.4c0.2-0.4,0.6-0.7,1-1c0.4-0.2,0.9-0.4,1.4-0.4
		c0.2,0,0.5,0,0.7,0.1C32.6,7,32.8,7.1,33,7.3V6.9h1.3v5.3c0,0.7-0.2,1.2-0.7,1.6C33.2,14.3,32.6,14.5,31.8,14.5 M31.8,11.1
		c0.2,0,0.5,0,0.7-0.1c0.2-0.1,0.4-0.2,0.5-0.4V8.5c-0.2-0.2-0.3-0.3-0.5-0.4c-0.2-0.1-0.4-0.1-0.7-0.1c-0.3,0-0.5,0.1-0.8,0.2
		c-0.2,0.1-0.4,0.3-0.5,0.5c-0.1,0.2-0.2,0.5-0.2,0.8c0,0.3,0.1,0.6,0.2,0.8c0.1,0.2,0.3,0.4,0.5,0.6C31.3,11,31.5,11.1,31.8,11.1"
		/>
	<path class="st0" d="M37.8,12.4c-0.5,0-1-0.1-1.4-0.4c-0.4-0.2-0.7-0.6-1-1c-0.2-0.4-0.4-0.9-0.4-1.4c0-0.5,0.1-1,0.4-1.4
		c0.2-0.4,0.6-0.8,1-1c0.4-0.2,0.9-0.4,1.4-0.4c0.5,0,1,0.1,1.4,0.4c0.4,0.2,0.7,0.6,1,1c0.2,0.4,0.4,0.9,0.4,1.4
		c0,0.5-0.1,1-0.4,1.4c-0.2,0.4-0.6,0.8-1,1C38.8,12.3,38.3,12.4,37.8,12.4 M37.8,11.2c0.3,0,0.5-0.1,0.7-0.2
		c0.2-0.1,0.4-0.3,0.5-0.6c0.1-0.2,0.2-0.5,0.2-0.8c0-0.3-0.1-0.5-0.2-0.8c-0.1-0.2-0.3-0.4-0.5-0.6c-0.2-0.1-0.5-0.2-0.7-0.2
		c-0.3,0-0.5,0.1-0.7,0.2c-0.2,0.1-0.4,0.3-0.5,0.6c-0.1,0.2-0.2,0.5-0.2,0.8c0,0.3,0.1,0.6,0.2,0.8c0.1,0.2,0.3,0.4,0.5,0.6
		C37.3,11.1,37.5,11.2,37.8,11.2"/>
	<polygon class="st0" points="41.3,12.3 41.3,5.1 42.6,4.9 42.6,12.3 	"/>
</g>
</svg>
