<?xml version="1.0" encoding="utf-8"?>
<!-- Generator: Adobe Illustrator 28.0.0, SVG Export Plug-In . SVG Version: 6.00 Build 0)  -->
<svg version="1.1" id="Capa_1" xmlns="http://www.w3.org/2000/svg" xmlns:xlink="http://www.w3.org/1999/xlink" x="0px" y="0px"
	 viewBox="0 0 46.1 17.3" style="enable-background:new 0 0 46.1 17.3;" xml:space="preserve">
<style type="text/css">
	.st0{fill:#F08724;}
	.st1{fill:#1C2241;}
</style>
<g>
	<path class="st0" d="M34.3,13.8L34,13.5l-0.6,0.7l0.1,0.1c0,0,0.1,0,0.2,0l0.1-0.1l0.1,0.1c0.2,0.2,0.2,0.5,0,0.7
		c-0.2,0.2-0.5,0.2-0.7,0c-0.2-0.2-0.2-0.5,0-0.7l0.8-0.8l-0.2-0.2l0,0l-0.1-0.1l0,0c-0.1-0.1-0.2-0.1-0.3,0l-0.6,0.7
		c-0.4,0.5-0.4,1.2,0,1.7c0.2,0.2,0.5,0.3,0.8,0.3c0.3,0,0.6-0.1,0.8-0.3C34.7,15,34.7,14.2,34.3,13.8 M34.1,15.2
		c-0.3,0.4-0.9,0.4-1.2,0c-0.3-0.4-0.3-0.9,0-1.3l0.6-0.6c0,0,0.1,0,0.1,0l0.1,0L33,14.1c-0.3,0.3-0.3,0.8,0,1.1
		c0.1,0.2,0.3,0.2,0.5,0.2C33.7,15.4,33.9,15.3,34.1,15.2c0.2-0.4,0.2-0.8-0.1-1.1L33.9,14l0,0c0,0,0.1,0,0.1,0l0,0
		c0.2,0.2,0.2,0.4,0.2,0.6C34.4,14.8,34.3,15.1,34.1,15.2"/>
	<path class="st0" d="M35.2,15.4v-2.1h1c0.1,0,0.2,0,0.3,0.1c0.1,0.1,0.2,0.1,0.2,0.2c0.1,0.1,0.1,0.2,0.1,0.3c0,0.1,0,0.2-0.1,0.3
		c-0.1,0.1-0.1,0.2-0.2,0.2c-0.1,0.1-0.2,0.1-0.3,0.1h-0.6v0.8H35.2z M35.6,14.3h0.5c0.1,0,0.2,0,0.2-0.1c0.1-0.1,0.1-0.1,0.1-0.2
		c0-0.1,0-0.2-0.1-0.2c-0.1-0.1-0.1-0.1-0.2-0.1h-0.5V14.3z"/>
	<path class="st0" d="M37.7,15.4c-0.1,0-0.3,0-0.4-0.1c-0.1-0.1-0.2-0.2-0.3-0.3c-0.1-0.1-0.1-0.3-0.1-0.4c0-0.1,0-0.3,0.1-0.4
		c0.1-0.1,0.2-0.2,0.3-0.3c0.1-0.1,0.2-0.1,0.4-0.1c0.1,0,0.3,0,0.4,0.1c0.1,0.1,0.2,0.2,0.3,0.3c0.1,0.1,0.1,0.3,0.1,0.4v0.1h-1.1
		c0,0.1,0,0.1,0.1,0.2c0,0,0.1,0.1,0.1,0.1c0.1,0,0.1,0,0.2,0c0.1,0,0.1,0,0.2,0C38,15,38,15,38.1,15l0.3,0.2
		c-0.1,0.1-0.2,0.1-0.3,0.2C38,15.4,37.8,15.4,37.7,15.4 M37.3,14.5H38c0-0.1,0-0.1-0.1-0.2c0,0-0.1-0.1-0.1-0.1c0,0-0.1,0-0.2,0
		c-0.1,0-0.1,0-0.2,0c0,0-0.1,0.1-0.1,0.1C37.4,14.4,37.3,14.4,37.3,14.5"/>
	<polygon class="st0" points="38.5,15.4 39,14.6 38.5,13.9 38.9,13.9 39.3,14.3 39.6,13.9 40,13.9 39.5,14.6 40.1,15.4 39.6,15.4 
		39.3,14.9 38.9,15.4 	"/>
	<path class="st0" d="M40.9,16c-0.1,0-0.2,0-0.3,0c-0.1,0-0.2-0.1-0.3-0.1l0.1-0.3c0.1,0,0.2,0.1,0.2,0.1c0.1,0,0.2,0,0.2,0
		c0.1,0,0.2,0,0.3-0.1c0.1-0.1,0.1-0.1,0.1-0.2v-0.1c-0.1,0.1-0.3,0.1-0.4,0.1c-0.1,0-0.3,0-0.4-0.1c-0.1-0.1-0.2-0.2-0.3-0.3
		c-0.1-0.1-0.1-0.3-0.1-0.4c0-0.1,0-0.3,0.1-0.4c0.1-0.1,0.2-0.2,0.3-0.3c0.1-0.1,0.2-0.1,0.4-0.1c0.1,0,0.1,0,0.2,0
		s0.1,0.1,0.2,0.1v-0.1h0.4v1.5c0,0.2-0.1,0.4-0.2,0.5C41.3,16,41.2,16,40.9,16 M40.9,15.1c0.1,0,0.1,0,0.2,0c0.1,0,0.1-0.1,0.2-0.1
		v-0.6c0,0-0.1-0.1-0.2-0.1c-0.1,0-0.1,0-0.2,0c-0.1,0-0.2,0-0.2,0.1c-0.1,0-0.1,0.1-0.2,0.2c0,0.1-0.1,0.1-0.1,0.2
		c0,0.1,0,0.2,0.1,0.2c0,0.1,0.1,0.1,0.2,0.2C40.8,15.1,40.8,15.1,40.9,15.1"/>
	<path class="st0" d="M42.7,15.4c-0.1,0-0.3,0-0.4-0.1C42.1,15.3,42,15.2,42,15c-0.1-0.1-0.1-0.3-0.1-0.4c0-0.1,0-0.3,0.1-0.4
		c0.1-0.1,0.2-0.2,0.3-0.3c0.1-0.1,0.3-0.1,0.4-0.1c0.1,0,0.3,0,0.4,0.1c0.1,0.1,0.2,0.2,0.3,0.3c0.1,0.1,0.1,0.3,0.1,0.4
		c0,0.1,0,0.3-0.1,0.4c-0.1,0.1-0.2,0.2-0.3,0.3C42.9,15.4,42.8,15.4,42.7,15.4 M42.7,15.1c0.1,0,0.1,0,0.2-0.1
		c0.1,0,0.1-0.1,0.1-0.2c0-0.1,0.1-0.1,0.1-0.2c0-0.1,0-0.2-0.1-0.2c0-0.1-0.1-0.1-0.1-0.2c-0.1,0-0.1-0.1-0.2-0.1
		c-0.1,0-0.1,0-0.2,0.1c-0.1,0-0.1,0.1-0.1,0.2c0,0.1-0.1,0.1-0.1,0.2c0,0.1,0,0.2,0.1,0.2c0,0.1,0.1,0.1,0.1,0.2
		C42.5,15.1,42.6,15.1,42.7,15.1"/>
	<polygon class="st0" points="43.6,15.4 43.6,13.3 44,13.3 44,15.4 	"/>
	<path class="st1" d="M15.8,7.1l-0.3-0.3c-0.1,0.1-0.3,0.1-0.4,0.1C15,7,14.9,7,14.7,7c-0.3,0-0.5-0.1-0.8-0.2
		c-0.2-0.1-0.5-0.2-0.6-0.4C13.1,6.2,13,6,12.9,5.8c-0.1-0.2-0.2-0.5-0.2-0.8c0-0.3,0.1-0.5,0.2-0.8C13,4,13.1,3.7,13.3,3.6
		c0.2-0.2,0.4-0.3,0.6-0.4C14.2,3,14.4,3,14.7,3C15,3,15.3,3,15.5,3.1c0.2,0.1,0.5,0.2,0.6,0.4c0.2,0.2,0.3,0.4,0.4,0.6
		c0.1,0.2,0.2,0.5,0.2,0.8c0,0.3-0.1,0.5-0.2,0.8c-0.1,0.2-0.2,0.5-0.4,0.6l0.4,0.5L15.8,7.1z M14.7,6.3c0.1,0,0.1,0,0.2,0
		c0.1,0,0.1,0,0.2-0.1l-0.4-0.5l0.7-0.2l0.3,0.4c0.1-0.1,0.1-0.2,0.2-0.4c0-0.1,0.1-0.3,0.1-0.4c0-0.2,0-0.4-0.1-0.5
		c-0.1-0.2-0.1-0.3-0.3-0.4c-0.1-0.1-0.2-0.2-0.4-0.3c-0.1-0.1-0.3-0.1-0.5-0.1c-0.2,0-0.3,0-0.5,0.1C14.1,3.9,14,4,13.9,4.1
		c-0.1,0.1-0.2,0.2-0.3,0.4c-0.1,0.2-0.1,0.3-0.1,0.5c0,0.2,0,0.3,0.1,0.5c0.1,0.2,0.1,0.3,0.3,0.4C14,6,14.1,6.1,14.3,6.2
		C14.4,6.2,14.6,6.3,14.7,6.3"/>
	<path class="st1" d="M18.7,7c-0.3,0-0.6-0.1-0.9-0.2c-0.3-0.1-0.4-0.3-0.6-0.6c-0.1-0.3-0.2-0.6-0.2-0.9V3h0.8v2.2
		c0,0.2,0,0.4,0.1,0.5c0.1,0.2,0.2,0.3,0.3,0.3c0.1,0.1,0.3,0.1,0.5,0.1c0.2,0,0.3,0,0.5-0.1c0.1-0.1,0.2-0.2,0.3-0.3
		c0.1-0.2,0.1-0.3,0.1-0.5V3h0.8v2.2c0,0.4-0.1,0.7-0.2,0.9c-0.1,0.3-0.3,0.5-0.6,0.6C19.4,6.9,19.1,7,18.7,7"/>
	<rect x="20.9" y="3" class="st1" width="0.8" height="3.9"/>
	<path class="st1" d="M24.1,7c-0.3,0-0.5-0.1-0.8-0.2c-0.2-0.1-0.5-0.2-0.6-0.4c-0.2-0.2-0.3-0.4-0.4-0.6c-0.1-0.2-0.2-0.5-0.2-0.8
		c0-0.3,0.1-0.5,0.2-0.8c0.1-0.2,0.2-0.5,0.4-0.6c0.2-0.2,0.4-0.3,0.6-0.4C23.6,3,23.9,3,24.1,3c0.2,0,0.4,0,0.6,0.1
		c0.2,0.1,0.4,0.1,0.5,0.3c0.2,0.1,0.3,0.2,0.4,0.4l-0.5,0.5c-0.1-0.2-0.3-0.3-0.5-0.4c-0.2-0.1-0.4-0.1-0.6-0.1
		c-0.2,0-0.3,0-0.5,0.1c-0.1,0.1-0.3,0.2-0.4,0.3c-0.1,0.1-0.2,0.2-0.3,0.4C23,4.6,22.9,4.8,22.9,5c0,0.2,0,0.3,0.1,0.5
		c0.1,0.2,0.1,0.3,0.3,0.4c0.1,0.1,0.2,0.2,0.4,0.3c0.1,0.1,0.3,0.1,0.5,0.1c0.2,0,0.4,0,0.6-0.1c0.2-0.1,0.3-0.2,0.5-0.4l0.5,0.5
		c-0.1,0.1-0.3,0.3-0.4,0.4c-0.2,0.1-0.3,0.2-0.5,0.2C24.5,7,24.3,7,24.1,7"/>
	<polygon class="st1" points="26,7 26,3 26.8,3 26.8,4.8 28.5,3 29.4,3 27.6,4.9 29.5,7 28.5,7 26.8,5.1 26.8,7 	"/>
	<path class="st1" d="M29.7,7V3h1.9c0.2,0,0.5,0.1,0.7,0.2c0.2,0.1,0.3,0.3,0.4,0.4c0.1,0.2,0.2,0.4,0.2,0.6c0,0.2-0.1,0.4-0.2,0.6
		c-0.1,0.2-0.3,0.3-0.4,0.4c-0.2,0.1-0.4,0.2-0.7,0.2h-1.1V7H29.7z M30.5,4.8h1c0.2,0,0.3,0,0.4-0.1c0.1-0.1,0.2-0.2,0.2-0.4
		c0-0.2-0.1-0.3-0.2-0.4c-0.1-0.1-0.2-0.1-0.4-0.1h-1V4.8z"/>
	<rect x="33.2" y="3" class="st1" width="0.8" height="3.9"/>
	<path class="st1" d="M34.6,7V3h1.9c0.2,0,0.5,0.1,0.7,0.2c0.2,0.1,0.3,0.3,0.4,0.4c0.1,0.2,0.2,0.4,0.2,0.6c0,0.2-0.1,0.4-0.2,0.6
		c-0.1,0.2-0.3,0.3-0.4,0.4c-0.2,0.1-0.4,0.2-0.7,0.2h-1.1V7H34.6z M35.4,4.8h1c0.2,0,0.3,0,0.4-0.1C36.9,4.6,37,4.4,37,4.3
		c0-0.2-0.1-0.3-0.2-0.4c-0.1-0.1-0.2-0.1-0.4-0.1h-1V4.8z"/>
	<polygon class="st1" points="38.2,7 38.2,3 41.1,3 41.1,3.7 38.9,3.7 38.9,4.6 40.3,4.6 40.3,5.3 38.9,5.3 38.9,6.2 41.1,6.2 
		41.1,7 	"/>
	<path class="st1" d="M42.9,7c-0.3,0-0.6-0.1-0.9-0.2c-0.3-0.1-0.5-0.3-0.8-0.5l0.4-0.6c0.2,0.2,0.4,0.3,0.6,0.4
		c0.2,0.1,0.4,0.1,0.6,0.1c0.2,0,0.3,0,0.4-0.1c0.1,0,0.2-0.1,0.3-0.2c0.1-0.1,0.1-0.2,0.1-0.3c0-0.1,0-0.2-0.1-0.3
		c-0.1-0.1-0.3-0.1-0.5-0.2l-0.7-0.1C42,5.2,41.8,5,41.6,4.9c-0.2-0.2-0.3-0.4-0.3-0.7c0-0.2,0.1-0.5,0.2-0.6s0.3-0.3,0.5-0.4
		C42.3,3,42.5,3,42.8,3c0.3,0,0.5,0,0.8,0.1c0.3,0.1,0.5,0.2,0.7,0.4L44,4.1c-0.4-0.3-0.8-0.5-1.2-0.5c-0.1,0-0.3,0-0.4,0.1
		c-0.1,0-0.2,0.1-0.2,0.2c-0.1,0.1-0.1,0.1-0.1,0.2c0,0.1,0,0.2,0.1,0.3c0.1,0.1,0.2,0.1,0.4,0.2l0.7,0.1C43.7,4.7,44,4.8,44.2,5
		c0.2,0.2,0.3,0.4,0.3,0.7c0,0.3-0.1,0.5-0.2,0.7c-0.1,0.2-0.3,0.3-0.6,0.4C43.5,7,43.2,7,42.9,7"/>
	<path class="st1" d="M14.3,11.9c-0.3,0-0.5-0.1-0.7-0.2c-0.2-0.1-0.4-0.3-0.6-0.5l0.2-0.3c0.2,0.2,0.3,0.3,0.5,0.4
		c0.2,0.1,0.4,0.1,0.6,0.1c0.2,0,0.3,0,0.5-0.1c0.1-0.1,0.2-0.1,0.3-0.2c0.1-0.1,0.1-0.2,0.1-0.3c0-0.2-0.1-0.3-0.2-0.4
		c-0.1-0.1-0.3-0.2-0.6-0.2L14,10.2c-0.3-0.1-0.5-0.2-0.7-0.3c-0.1-0.1-0.2-0.3-0.2-0.6c0-0.2,0-0.3,0.1-0.5
		c0.1-0.1,0.2-0.3,0.4-0.3c0.2-0.1,0.4-0.1,0.6-0.1c0.2,0,0.5,0,0.7,0.1c0.2,0.1,0.4,0.2,0.6,0.3l-0.2,0.3c-0.4-0.3-0.7-0.4-1.1-0.4
		c-0.2,0-0.3,0-0.4,0.1c-0.1,0-0.2,0.1-0.3,0.2c-0.1,0.1-0.1,0.2-0.1,0.3c0,0.2,0.1,0.3,0.2,0.4c0.1,0.1,0.3,0.1,0.5,0.2l0.5,0.1
		c0.4,0.1,0.6,0.2,0.8,0.3c0.2,0.1,0.2,0.3,0.2,0.6c0,0.2-0.1,0.4-0.2,0.5c-0.1,0.2-0.3,0.3-0.4,0.4C14.8,11.8,14.6,11.9,14.3,11.9"
		/>
	<polygon class="st1" points="17.2,11.8 17.2,10.4 15.9,8.5 16.3,8.5 17.4,10.1 18.4,8.5 18.8,8.5 17.5,10.5 17.5,11.8 	"/>
	<path class="st1" d="M20.4,11.9c-0.3,0-0.5-0.1-0.7-0.2c-0.2-0.1-0.4-0.3-0.6-0.5l0.2-0.3c0.2,0.2,0.3,0.3,0.5,0.4
		c0.2,0.1,0.4,0.1,0.6,0.1c0.2,0,0.3,0,0.5-0.1c0.1-0.1,0.2-0.1,0.3-0.2c0.1-0.1,0.1-0.2,0.1-0.3c0-0.2-0.1-0.3-0.2-0.4
		c-0.1-0.1-0.3-0.2-0.6-0.2l-0.5-0.1c-0.3-0.1-0.5-0.2-0.7-0.3c-0.1-0.1-0.2-0.3-0.2-0.6c0-0.2,0-0.3,0.1-0.5
		c0.1-0.1,0.2-0.3,0.4-0.3c0.2-0.1,0.4-0.1,0.6-0.1c0.2,0,0.5,0,0.7,0.1c0.2,0.1,0.4,0.2,0.6,0.3l-0.2,0.3c-0.4-0.3-0.7-0.4-1.1-0.4
		c-0.2,0-0.3,0-0.4,0.1c-0.1,0-0.2,0.1-0.3,0.2c-0.1,0.1-0.1,0.2-0.1,0.3c0,0.2,0.1,0.3,0.2,0.4c0.1,0.1,0.3,0.1,0.5,0.2l0.5,0.1
		c0.4,0.1,0.6,0.2,0.8,0.3c0.2,0.1,0.2,0.3,0.2,0.6c0,0.2-0.1,0.4-0.2,0.5c-0.1,0.2-0.3,0.3-0.4,0.4C20.9,11.8,20.7,11.9,20.4,11.9"
		/>
	<polygon class="st1" points="23.2,11.8 23.2,8.8 22,8.8 22,8.5 24.7,8.5 24.7,8.8 23.6,8.8 23.6,11.8 	"/>
	<polygon class="st1" points="25.4,11.8 25.4,8.5 27.7,8.5 27.7,8.8 25.7,8.8 25.7,10 27,10 27,10.3 25.7,10.3 25.7,11.5 27.7,11.5 
		27.7,11.8 	"/>
	<polygon class="st1" points="28.4,11.8 28.4,8.5 28.9,8.5 30,10.8 31.1,8.5 31.6,8.5 31.6,11.8 31.2,11.8 31.2,8.9 30,11.6 
		28.7,8.9 28.7,11.8 	"/>
	<path class="st1" d="M33.5,11.9c-0.3,0-0.5-0.1-0.7-0.2c-0.2-0.1-0.4-0.3-0.6-0.5l0.2-0.3c0.2,0.2,0.3,0.3,0.5,0.4
		c0.2,0.1,0.4,0.1,0.6,0.1c0.2,0,0.3,0,0.5-0.1c0.1-0.1,0.2-0.1,0.3-0.2c0.1-0.1,0.1-0.2,0.1-0.3c0-0.2-0.1-0.3-0.2-0.4
		c-0.1-0.1-0.3-0.2-0.6-0.2l-0.5-0.1c-0.3-0.1-0.5-0.2-0.7-0.3c-0.1-0.1-0.2-0.3-0.2-0.6c0-0.2,0-0.3,0.1-0.5
		c0.1-0.1,0.2-0.3,0.4-0.3c0.2-0.1,0.4-0.1,0.6-0.1c0.2,0,0.5,0,0.7,0.1c0.2,0.1,0.4,0.2,0.6,0.3l-0.2,0.3c-0.4-0.3-0.7-0.4-1.1-0.4
		c-0.2,0-0.3,0-0.4,0.1c-0.1,0-0.2,0.1-0.3,0.2c-0.1,0.1-0.1,0.2-0.1,0.3c0,0.2,0.1,0.3,0.2,0.4c0.1,0.1,0.3,0.1,0.5,0.2l0.5,0.1
		c0.4,0.1,0.6,0.2,0.8,0.3c0.2,0.1,0.2,0.3,0.2,0.6c0,0.2-0.1,0.4-0.2,0.5c-0.1,0.2-0.3,0.3-0.4,0.4C34,11.8,33.8,11.9,33.5,11.9"/>
	<path class="st1" d="M37.7,11.9c-0.3,0-0.5-0.1-0.7-0.2c-0.2-0.1-0.4-0.3-0.6-0.5l0.2-0.3c0.2,0.2,0.3,0.3,0.5,0.4
		c0.2,0.1,0.4,0.1,0.6,0.1c0.2,0,0.3,0,0.5-0.1c0.1-0.1,0.2-0.1,0.3-0.2c0.1-0.1,0.1-0.2,0.1-0.3c0-0.2-0.1-0.3-0.2-0.4
		c-0.1-0.1-0.3-0.2-0.6-0.2l-0.5-0.1c-0.3-0.1-0.5-0.2-0.7-0.3c-0.1-0.1-0.2-0.3-0.2-0.6c0-0.2,0-0.3,0.1-0.5
		c0.1-0.1,0.2-0.3,0.4-0.3c0.2-0.1,0.4-0.1,0.6-0.1c0.2,0,0.5,0,0.7,0.1c0.2,0.1,0.4,0.2,0.6,0.3l-0.2,0.3c-0.4-0.3-0.7-0.4-1.1-0.4
		c-0.2,0-0.3,0-0.4,0.1c-0.1,0-0.2,0.1-0.3,0.2c-0.1,0.1-0.1,0.2-0.1,0.3c0,0.2,0.1,0.3,0.2,0.4c0.1,0.1,0.3,0.1,0.5,0.2l0.5,0.1
		c0.4,0.1,0.6,0.2,0.8,0.3c0.2,0.1,0.2,0.3,0.2,0.6c0,0.2-0.1,0.4-0.2,0.5c-0.1,0.2-0.3,0.3-0.4,0.4C38.1,11.8,37.9,11.9,37.7,11.9"
		/>
	<path class="st1" d="M39.9,11.8C39.9,11.8,39.8,11.8,39.9,11.8c-0.1-0.1-0.1-0.1-0.1-0.1c0,0,0-0.1,0-0.1c0,0,0.1,0,0.1,0
		s0.1,0,0.1,0c0,0,0,0.1,0,0.1C40,11.8,40,11.8,39.9,11.8C40,11.8,39.9,11.8,39.9,11.8"/>
	<path class="st1" d="M40.6,11.8l1.3-3.4h0.4l1.3,3.4h-0.4l-0.4-1.1h-1.5l-0.4,1.1H40.6z M41.5,10.4h1.3l-0.6-1.6L41.5,10.4z"/>
	<path class="st1" d="M44.4,11.8c-0.1,0-0.1,0-0.2-0.1c0,0-0.1-0.1-0.1-0.2c0-0.1,0-0.1,0.1-0.2c0,0,0.1-0.1,0.2-0.1
		c0.1,0,0.1,0,0.2,0.1c0,0,0.1,0.1,0.1,0.2c0,0.1,0,0.1-0.1,0.2C44.6,11.8,44.5,11.8,44.4,11.8"/>
	<path class="st1" d="M5.8,9.5c0,0,1.4,0.2,3.1-1.8c1.3-1.4,1.7-3.7-1.2-2.3c-2.9,1.4-3.3,5.2-2,5.8C6.5,11.6,7,11.4,7.6,11
		c0.6-0.3-0.3,0.7-1,1c-1.4,0.6-4-0.4-2.7-4.2c1.5-4.5,5.7-5.1,6.7-4.4c1.1,0.9,0.6,2.4,0,3.6C9.7,8.6,8.1,9.6,7,9.9
		C5.6,10.3,5.3,9.5,5.8,9.5"/>
	<path class="st1" d="M4.6,8.3C5.7,8,6.3,7.5,7,6.7c1.3-1.5,1.2-3.8-1.3-2.5c-2.8,1.5-3.4,5.5-2,6.1c0.2,0.1,0.2-0.2,0.4-0.2
		c0.6,0.1,1.3,0.6,0.6,0.8c-1.4,0.6-4-0.3-2.7-4.2c1.5-4.5,5.7-5.1,6.7-4.4c1.1,0.9,0.6,2.4,0,3.6C7.7,7.6,6.1,8.6,5,8.9
		C3.6,9.3,4.1,8.5,4.6,8.3"/>
</g>
</svg>
