<?xml version="1.0" encoding="utf-8"?>
<!-- Generator: Adobe Illustrator 28.0.0, SVG Export Plug-In . SVG Version: 6.00 Build 0)  -->
<svg version="1.1" id="Capa_1" xmlns="http://www.w3.org/2000/svg" xmlns:xlink="http://www.w3.org/1999/xlink" x="0px" y="0px"
	 viewBox="0 0 449 196" style="enable-background:new 0 0 449 196;" xml:space="preserve">
<style type="text/css">
	.st0{fill:#4897B8;}
	.st1{fill:#325083;}
</style>
<g>
	<path class="st0" d="M399,86.4c0,19.3-15.2,33.8-34,33.8c-18.8,0-34-14.6-34-33.8c0-18.6,15.4-33.8,34-33.8
		C383.6,52.5,399,67.8,399,86.4 M390.9,86.4c0-14.3-10.7-26.3-25.9-26.3c-15.2,0-25.9,12-25.9,26.3c0,14.8,11.9,26.3,25.9,26.3
		C379,112.6,390.9,101.2,390.9,86.4 M327.5,118.8h-9.8l-19.1-27.5h-3.4v27.5h-8.1V53.9h9.8c5.8,0,12,0.1,17.1,3
		c5.4,3.2,8.5,9.3,8.5,15.5c0,9.3-6.2,17-15.6,18.2L327.5,118.8z M295.2,84.7h2.6c8.3,0,17.2-1.6,17.2-11.9
		c0-10.2-9.6-11.6-17.6-11.6h-2.2V84.7z M250.9,118.8h-8.1V53.9h9.3c20,0,26.2,6.9,26.2,18.8c0,13.7-10.4,18.9-22.7,18.9h-4.6V118.8
		z M250.9,84.4h2.6c8.3,0,17.2-1.5,17.2-11.9c0-10.1-9.6-11.4-17.7-11.4h-2.1V84.4z M189.7,102.6l-7.4,16.3h-8.7l31-67.7l31,67.7
		h-8.7l-7.4-16.3H189.7z M204.6,68.9l-11.5,26.3h23.1L204.6,68.9z M145.8,69.6c-4.4,0-8-3.6-8-8.1c0-4.5,3.6-8.1,8-8.1
		c4.5,0,8.1,3.6,8.1,8.1C153.8,66,150.2,69.6,145.8,69.6"/>
	<path class="st1" d="M145.6,118.8c-0.3,0-0.6,0-0.9-0.1C95.4,116,56.1,108.1,39.9,98l0,0.1l-0.1-0.2l0.2,0.1
		c11.8-14.5,36.2-26.6,67.7-34.2l-0.1-2.2h0c0-25.9-11.8-47-26.4-47c-0.1,0-0.2,0-0.4,0l0.4-0.1l-8.1,0l0.1,0
		c-6.9,0.3-12.8,9.7-16,23.7l1,0c3.8-12,10.6-20.6,18.5-23l-0.1,0l0.1,0l0.2,0l-0.2,0.1c8.8,3.8,15.5,23.1,15.5,46.3
		c0,0.2,0,0.4,0,0.5C55.6,68,32,77.2,32,87.7v0l0,0V118l0,0v0c0,29,47.8,53.4,112.7,60.5c0.2,0,0.4,0.1,0.6,0.1l0.4,0L145.6,118.8
		L145.6,118.8z M390,125.6h7.7v1.6h-5.9v4h5.7v1.6h-5.7v5.4h5.9v1.6H390V125.6z M370.1,139.9h-1.8v-14.3h1.8V139.9z M349.8,139.9
		h-2.2l-4.2-6.1h-0.7v6.1h-1.8v-14.3h2.2c1.3,0,2.6,0,3.8,0.7c1.2,0.7,1.9,2.1,1.9,3.4c0,2.1-1.4,3.8-3.4,4L349.8,139.9z
		 M342.7,132.3h0.6c1.8,0,3.8-0.3,3.8-2.6c0-2.2-2.1-2.6-3.9-2.6h-0.5V132.3z M318.9,139.9h-1.8v-12.7h-3.4v-1.6h8.6v1.6h-3.4V139.9
		z M294.1,128.3c-0.5-0.9-1.2-1.4-2.3-1.4c-1.1,0-2.4,0.8-2.4,2c0,1.1,1.1,1.7,2,2l1,0.4c2,0.8,3.5,1.9,3.5,4.3c0,2.6-2,4.5-4.6,4.5
		c-2.3,0-4.1-1.7-4.4-4l1.8-0.4c0,1.6,1.2,2.7,2.8,2.7c1.5,0,2.6-1.3,2.6-2.8c0-1.5-1.2-2.2-2.5-2.7l-1-0.4
		c-1.6-0.7-3.1-1.6-3.1-3.6c0-2.3,2-3.7,4.2-3.7c1.6,0,2.9,0.8,3.7,2.2L294.1,128.3z M259.4,125.6v8.5c0,2.3,0.7,4.5,3.5,4.5
		c2.8,0,3.5-2.2,3.5-4.5v-8.5h1.8v9.1c0,3.1-2,5.6-5.2,5.6c-3.3,0-5.2-2.4-5.2-5.6v-9.1H259.4z M227.9,125.6h3c4.4,0,8,2.3,8,7.1
		c0,4.9-3.6,7.2-8.1,7.2h-2.9V125.6z M229.7,138.2h0.6c3.6,0,6.8-1.4,6.8-5.5c0-4.2-3.1-5.5-6.8-5.5h-0.6V138.2z M195.8,124.9
		l10.7,11.3v-10.6h1.8v14.9l-10.7-11.3v10.7h-1.8V124.9z M176.1,139.9h-1.8v-14.3h1.8V139.9z"/>
</g>
</svg>
