<?xml version="1.0" encoding="utf-8"?>
<!-- Generator: Adobe Illustrator 28.0.0, SVG Export Plug-In . SVG Version: 6.00 Build 0)  -->
<svg version="1.1" id="Capa_1" xmlns="http://www.w3.org/2000/svg" xmlns:xlink="http://www.w3.org/1999/xlink" x="0px" y="0px"
	 viewBox="0 0 664 154" style="enable-background:new 0 0 664 154;" xml:space="preserve">
<style type="text/css">
	.st0{fill:#004287;}
	.st1{fill:#BFD0E1;}
	.st2{fill:#BF985D;}
	.st3{fill:#BF995D;}
	.st4{fill:#C0995D;}
	.st5{fill:#DECAAB;}
	.st6{fill:#044589;}
	.st7{fill:#0A498C;}
	.st8{fill:#FEFEFE;}
	.st9{fill:#F6F6F6;}
	.st10{fill:#F1F1F2;}
	.st11{fill:#F5F5F5;}
	.st12{fill:#F2F2F3;}
	.st13{fill:#F4F4F4;}
	.st14{fill:#F2F2F2;}
	.st15{fill:#F4F4F5;}
	.st16{fill:#E4E4E5;}
	.st17{fill:#8E8E90;}
	.st18{fill:#676768;}
	.st19{fill:#070707;}
	.st20{fill:#010101;}
	.st21{fill:#2A2A2B;}
	.st22{fill:#141415;}
	.st23{fill:#181819;}
</style>
<g>
	<path class="st0" d="M49.1,106c-0.4,0.3-0.2,0.7-0.2,1c0,7.6,0,15.1,0,22.7c0,0.7-0.2,1-0.9,1c-2.8,0-5.7,0-8.5,0
		c-0.3,0-0.7-0.1-1,0.1c0-16,0-32,0-48.1c3.2,0,6.4,0,9.5,0c0.7,0,0.9,0.2,0.9,0.9c0,7,0,14,0,21c0,0.3-0.2,0.7,0.2,1
		C49.3,105.7,49.3,105.8,49.1,106z"/>
	<path class="st1" d="M150.4,147.4c0-0.1,0-0.1,0-0.2c0.9-0.5,1.8-0.5,2.8,0c0,0.1,0,0.1,0,0.2C152.3,147.4,151.3,147.4,150.4,147.4
		z"/>
	<path class="st0" d="M218.9,95.6c3.1-0.7,6.1-0.9,9.1,0.2c1.7,0.6,3.1,1.6,4.4,2.8c2.2,2.1,3.4,4.9,4,7.8
		c1.4,6.7,0.6,13.1-3.6,18.7c-4.1,5.5-11.3,7.6-17.9,5.5c-0.5-0.2-0.7-0.4-0.8-0.9c-0.2-1-0.3-2-0.6-3c-0.2-0.8,0.1-0.6,0.5-0.5
		c0.8,0.3,1.7,0.6,2.6,0.7c3.8,0.4,6.7-1.5,7.9-5.5c1.7-5.3,1.7-10.6-0.1-15.8c-1.5-4.5-5.4-6-9.7-4.1c-1.5,0.6-2.1,1.4-2.1,3.2
		c0.1,13.7,0.1,27.4,0.1,41.1c0,0.8-0.2,1.1-1,1.1c-2.8-0.1-5.7-0.1-8.5,0c-0.8,0-1.1-0.2-1.1-1c0-14.8,0-29.6,0-44.5
		c0-1.5,0-2.9,0-4.4c0-0.6,0.2-0.7,0.7-0.8c3.1-0.4,6.2-0.9,9.3-1.4c0.5-0.1,0.7,0,0.7,0.6c0,0.8,0,1.6,0,2.5
		C214.9,97,216.8,96.1,218.9,95.6z"/>
	<path class="st0" d="M109.9,99.3c2.1-1.3,4.1-2.5,6.3-3.3c2.7-0.9,5.4-1.2,8.2-0.4c3.6,1,5.4,3.6,6.4,7c0.6,2.1,0.8,4.2,0.8,6.3
		c0,6.9,0,13.8,0,20.6c0,0.8-0.2,1-1,0.9c-3,0-5.9,0-8.9,0c-0.7,0-0.9-0.2-0.9-0.9c0-6.6,0-13.2,0-19.8c0-1.9-0.3-3.7-1-5.5
		c-0.9-2.3-3.4-2.9-5-2.5c-1.8,0.4-3.3,1.2-4.7,2.3c-0.4,0.3-0.3,0.7-0.3,1.1c0,8.1,0,16.1,0,24.2c0,1-0.3,1.2-1.2,1.1
		c-2.9-0.1-5.8,0-8.7,0c-0.6,0-0.8-0.1-0.8-0.8c0-10.9,0-21.8,0-32.7c0-0.5,0.1-0.7,0.6-0.8c3.1-0.5,6.3-1,9.4-1.5
		c0.5-0.1,0.6,0.1,0.6,0.5C109.8,96.6,109.9,97.9,109.9,99.3z"/>
	<path class="st0" d="M286.4,99.3c1.7-1.1,3.2-2,4.9-2.7c2.8-1.3,5.8-1.7,8.9-1.1c4,0.8,6.2,3.6,7.3,7.4c0.6,2,0.7,4.1,0.7,6.2
		c0,6.9,0,13.8,0,20.6c0,0.8-0.2,1-1,0.9c-3,0-5.9,0-8.9,0c-0.7,0-0.9-0.2-0.9-0.9c0-6.5,0-13.1,0-19.6c0-2-0.1-4-1.1-5.9
		c-1-1.8-3-2.7-5-2.2c-1.7,0.4-3.2,1.2-4.6,2.2c-0.4,0.3-0.4,0.7-0.4,1.1c0,8.1,0,16.1,0,24.2c0,0.8-0.2,1.1-1,1.1
		c-2.9-0.1-5.8,0-8.7,0c-0.6,0-0.8-0.2-0.8-0.8c0-10.8,0-21.7,0-32.5c0-0.6,0.1-0.8,0.8-0.9c3-0.5,6.1-1,9.1-1.5
		c0.5-0.1,0.7,0,0.7,0.6C286.3,96.7,286.4,97.9,286.4,99.3z"/>
	<path class="st0" d="M242.5,100.4c0.1-0.7,0.2-1.4,0.3-2.2c0-0.5,0.2-0.8,0.7-1c3.3-0.9,6.5-2.1,10-2.3c3.8-0.2,7.5,0.2,10.9,2
		c3.9,2,5.6,5.3,5.7,9.4c0.2,6.4,0.1,12.8,0.1,19.2c0,2.1,0.8,3.7,2.5,4.9c-0.2,0.2-0.4,0.1-0.7,0.1c-3.3,0-6.5,0-9.8-0.1
		c-1.9,0-2.7-0.9-2.7-2.8c-0.1-2.3,0-4.6,0-7c0-2.2,0-4.4,0-6.6c0-0.5,0-0.7-0.6-0.7c-5.3-0.2-9.6,5.2-8.2,10.3
		c0.5,1.9,1.4,2.6,3.4,2.6c0.8,0,1.6-0.1,2.4-0.3c0.7-0.2,1.5-0.4,2.3-0.6c-0.2,1.5-0.4,2.9-0.6,4.3c0,0.2-0.2,0.4-0.4,0.4
		c-3.5,1.3-7.1,2-10.8,1.1c-3.5-0.8-6.3-2.6-7.2-6.3c-1-3.9,0.2-7.2,3.2-9.9c3.3-2.8,7.2-4.1,11.3-5.1c1.5-0.3,2.9-0.7,4.4-0.8
		c0.5,0,0.8-0.2,0.8-0.8c-0.1-1.4,0.1-2.9-0.4-4.3c-0.2-0.5-0.3-1.1-0.7-1.5c-0.5-0.3-0.9-0.8-1.3-1.1c-0.8-0.7-1.8-0.9-2.8-1.1
		c-1-0.1-1.9-0.2-2.9,0c-1.7,0.2-3.4,0.5-5.2,0.6c-1.3,0.2-2.6,0.6-3.9,1C242.2,101.5,242.6,101,242.5,100.4z"/>
	<path class="st0" d="M170.7,124.6c2.4,0.9,4.7,1.8,7.2,2.1c2.6,0.4,5.2,0.5,7.6-0.8c2.2-1.2,3-3.3,2.1-5.2
		c-0.5-1.1-1.4-1.9-2.5-2.5c-2.7-1.4-5.5-2.4-8.1-3.9c-1.3-0.8-2.6-1.7-3.7-2.7c-3.3-3.1-3.3-8.5-0.1-12.1c2.3-2.5,5.3-3.7,8.6-4.2
		c3.9-0.6,7.7-0.1,11.3,1.4c0.5,0.2,0.8,0.5,0.9,1c0.3,1.1,0.5,2.1,0.8,3.2c0.1,0.3,0.3,0.6,0.1,0.9c-0.3,0.3-0.6-0.1-0.9-0.2
		c-2.5-1.1-5-2-7.7-2c-1.1,0-2.2,0.2-3.2,0.6c-1.3,0.5-2.1,1.4-2.3,2.8c-0.2,1.3,0.5,2.3,1.6,3c1.4,1,2.9,1.7,4.5,2.4
		c2.5,1.1,4.9,2.3,7.1,3.9c6.5,4.8,4.5,14.4-2.3,17.3c-4.2,1.8-8.5,2-13,1.4c-2-0.3-3.9-0.8-5.8-1.3c-0.7-0.2-1.1-0.5-1.2-1.3
		C171.4,127.3,171,126.1,170.7,124.6z"/>
	<path class="st0" d="M49.1,106c0-0.1,0-0.3,0-0.4c2.4-2.9,4.9-5.9,7.3-8.8c3.8-4.5,7.5-9,11.3-13.5c0.2-0.3,0.4-0.6,0.9-0.6
		c3,0,5.9,0,9.1,0c-0.7,0.8-1.2,1.5-1.8,2.1c-5.3,6.2-10.5,12.3-15.8,18.4c-0.4,0.5-0.5,0.8-0.1,1.4c5.8,7.8,11.5,15.7,17.3,23.5
		c0.6,0.8,1.1,1.5,1.7,2.3c-0.2,0.3-0.5,0.2-0.7,0.2c-3.9,0-7.8,0-11.7,0c-0.4,0-0.8,0-1.1-0.5c-5.4-8-10.8-16-16.2-23.9
		C49.2,106.1,49.2,106,49.1,106z"/>
	<path class="st2" d="M262.9,61.9c-5.8,0.3-11.6,0.3-17.4,0.2c-9.8-0.3-19.6-0.8-29.2-2.7c-5.5-1.1-10.9-2.4-15.8-5.3
		c-3.9-2.3-7.4-5.2-10.8-8.1c-4.3-3.7-8.3-7.8-12.1-12c-0.2-0.2-0.4-0.5-0.5-0.9c1.2,0.7,2.4,1.3,3.5,2c5.2,3.1,10.7,5.4,16.3,7.4
		c9.9,3.6,19.4,7.9,28.5,13c3.7,2,7.6,3,11.7,3.8C243,60.4,249,61,255,61.2c3,0.1,6,0.2,9,0.4C263.7,62.1,263.2,61.6,262.9,61.9z"/>
	<path class="st0" d="M92.8,112.7c0,5.7,0,11.4,0,17c0,0.7-0.1,0.9-0.9,0.9c-3,0-5.9,0-8.9,0c-0.6,0-0.8-0.2-0.8-0.8
		c0-10.9,0-21.7,0-32.6c0-0.6,0.2-0.8,0.8-0.9c3-0.5,6.1-1,9.1-1.5c0.7-0.1,0.7,0.3,0.7,0.8C92.8,101.2,92.8,106.9,92.8,112.7z"/>
	<path class="st2" d="M241.2,50.1c-1.2,0.4-2.2,0.6-3.2,0.6c-6.3,0.3-12.3-1-18.1-3.4c-4.4-1.8-8.6-4-12.9-5.9
		c-5.4-2.3-10.9-4-16.5-5.6c-5.2-1.5-9.7-4.1-14.3-7.2c1.1,0.1,2,0.4,2.9,0.7c3.6,1.2,7.4,1.5,11.2,2c6.1,0.8,12.1,1.9,18.1,3.2
		c4,0.9,7.9,1.9,11.7,3.7c3.8,1.8,7.2,4.3,10.3,7.1c2.3,2.2,5.1,3.3,8.2,3.8C239.2,49.4,240.1,49.6,241.2,50.1z"/>
	<path class="st2" d="M177,37.3c3.9,4.2,7.9,8.4,11.9,12.6c5.3,5.5,11.6,9.4,18.5,12.4c4.4,1.9,8.7,3.7,13.2,5.1
		c3.6,1.1,7.4,1.4,11.1,1.8c2.5,0.3,5,0.5,7.5,0.8c0.3,0,0.5,0.1,1,0.2c-1.7,0.6-3.3,0.7-4.9,1c-4.4,0.7-8.9,0.8-13.4,1
		c-4.1,0.1-8.1,0-12.1-0.8c-4.2-0.8-7.8-2.8-11-5.7c-6.8-6-12.4-13.1-17.4-20.6c-1.7-2.5-3.2-5-4.6-7.7
		C176.7,37.3,176.8,37.3,177,37.3z"/>
	<path class="st2" d="M169.7,23.7c1.1,0.1,2.2,0.2,3.4,0.4c2.1,0.3,4.1-0.4,6.1-1c4.7-1.3,9.5-2.3,14.3-2.9
		c6.5-0.7,12.2,1.2,17.1,5.4c1.3,1.1,2.6,2.2,3.8,3.5c2.1,2.2,4.7,3.5,7.5,4.3c0.4,0.1,0.9,0.2,1.3,0.6c-0.6,0.4-1.2,0.3-1.7,0.3
		c-2.8-0.1-5.5-0.7-8-1.9c-4.6-2.1-9.3-3.4-14.3-4c-2.5-0.3-4.9-0.4-7.4-0.6c-2.6-0.2-5.2-0.1-7.8-0.1c-3.5,0-6.7-1.1-10-2.1
		c-1.6-0.5-3.1-1.1-4.7-1.6C169.3,23.6,169.5,23.7,169.7,23.7z"/>
	<path class="st2" d="M162.1,20.9c1.9,0,3.5-0.2,5.1-0.3c2.8-0.2,5.3-1.2,7.6-2.7c2.6-1.6,5.3-3.1,8.1-4.3c3.7-1.7,7.3-1.4,10.9,0.2
		c1.4,0.6,2.8,1.4,4.1,2.3c1.6,1.1,3.2,2.2,5.2,2.7c-0.3,0.4-0.6,0.3-0.9,0.4c-1.6,0.1-3.1-0.2-4.6-0.6c-4.7-1.1-9.2-0.8-13.8,0.7
		c-3.2,1-6.3,2.1-9.6,2.7c-3.9,0.7-7.7,0.5-11.5-0.7C162.5,21.1,162.4,21,162.1,20.9z"/>
	<path class="st0" d="M81.6,84.7c0-3.3,2.6-5.9,6-5.9c3.3,0,6,2.6,6,5.8c0,3.2-2.7,5.9-6,5.9C84.2,90.5,81.6,87.9,81.6,84.7z"/>
	<path class="st2" d="M144.8,34c1.6-2.2,3.6-3.8,6.2-4.6c0.3-0.1,0.5-0.1,0.8,0c1.9,0.6,3.9,0.8,5.9,0.7c0.5,0,0.8,0.1,1,0.7
		c0.2,0.6,0.1,0.9-0.6,0.8c-0.4,0-0.9,0-1.3,0c-0.2,0-0.6-0.1-0.6,0.2c-0.1,0.3,0.1,0.6,0.4,0.8c0.4,0.2,0.9,0.4,1.3,0.6
		c1.6,0.7,3.1,1.4,4.5,2.5c1.4,1.2,1.4,2.8,1.8,4.4c-2.4-2.3-4.6-4.6-7.7-6c-0.1,0.1-0.1,0.1-0.2,0.2c0.5,0.5,1,0.9,1.5,1.4
		c1.1,1,2.1,2.1,2.8,3.3c0.2,0.3,0.4,0.7,0.6,1c0.1,0.3,0.2,0.7-0.1,0.8c-0.2,0.1-0.4-0.2-0.6-0.3c-3.1-2.8-6.4-5-10.5-6
		c-1.3-0.3-2.7-0.6-4.1-0.4C145.6,34.1,145.2,34.2,144.8,34z"/>
	<path class="st2" d="M157.1,19.6c4-0.5,7.3-2.2,10.2-4.9c1-0.9,2.2-1.7,3.3-2.5c2.5-2,5.3-2,8.3-1.6c1.1,0.2,2.2,0.3,3.3,0.5
		c0.4,0.1,0.7,0.1,1.2,0.5c-0.6,0-1,0-1.4,0c-1.6,0-3.1,0.4-4.5,1.3c-2.2,1.4-4.3,2.9-6.6,4.1c-3,1.6-6.3,2.2-9.6,2.5
		c-1.2,0.1-2.3,0.2-3.5,0.2C157.5,19.8,157.2,20.1,157.1,19.6z"/>
	<path class="st3" d="M102.1,55.4c0.1,1-0.1,1.9,0,2.8c0.4,2.9,2.8,4.5,5.6,3.6c0.3-0.1,0.7-0.5,0.9,0c0.2,0.5-0.2,0.8-0.5,1.1
		c-2.7,2.1-6.9,0.3-7.4-3.1c-0.1-0.9-0.1-1.7,0-2.5C100.8,56.4,101.3,55.9,102.1,55.4z"/>
	<path class="st3" d="M246.3,101.1c1.7-0.4,3.5-0.7,5.2-0.8c2,0.2,4,0.5,5.8,1.2c0.5,0.2,0.9,0.6,1.1,1.1c-2.8-0.2-5.5-0.6-8.2-1
		C248.9,101.5,247.6,101.3,246.3,101.1z"/>
	<path class="st4" d="M155.3,44.1c0,1.7-0.5,3.2-1.5,4.5c-0.3,0.4-0.6,0.7-1.1,0.8c-0.3,0.1-0.5,0-0.7-0.3c-0.2-0.3,0-0.4,0.1-0.6
		c1.1-1.5,1.5-3.3,1.6-5.1c0-0.3-0.3-0.9,0.4-1c0.6,0,1,0.3,1.2,0.9C155.3,43.6,155.3,43.8,155.3,44.1z"/>
	<path class="st2" d="M157.1,19.6c0.2,0.3,0.5,0.1,0.7,0.2c-0.6,0.3-1.3,0.1-2,0C156.2,19.7,156.6,19.6,157.1,19.6z"/>
	<path class="st5" d="M262.9,61.9c0.3-0.3,0.8,0,1.1-0.3c0.3,0,0.5-0.1,0.8,0.1C264.1,62,263.5,61.9,262.9,61.9z"/>
	<path class="st2" d="M177,37.3c-0.1,0.1-0.1,0.1-0.2,0.2c-0.1-0.2-0.3-0.4-0.5-0.8C176.7,36.9,176.9,37.1,177,37.3z"/>
	<path class="st2" d="M169.7,23.7c-0.1,0.1-0.2,0.1-0.3,0.2c-0.2,0-0.3-0.1-0.4-0.3C169.2,23.5,169.4,23.6,169.7,23.7z"/>
	<path class="st2" d="M242.8,98.3c-0.3-0.1-0.6-0.1-0.9-0.2c-3-0.8-6.1-1.5-9.1-2.3c-10.6-2.7-21-5.9-31.2-9.8
		c-1.8-0.7-2.9-1.8-3.2-3.8c-0.1-0.9-0.3-1.9-0.9-2.7c-0.5-0.5-0.6-0.9-0.1-1.5c0.4-0.4,0.4-1,0.4-1.6c0.1-0.4-0.1-0.5-0.5-0.4
		c-0.7,0.2-1.5,0.2-2.3,0.4c-6.2,1.2-12.2,3.1-17.8,6.1c-0.3,0.2-0.6,0.2-0.9,0c-3.2-2.8-7-4.6-10.9-6.2c-3.4-1.4-6.7-2.9-9.7-4.8
		c-5.4-3.5-10.5-7.4-14.3-12.7c-0.1-0.1-0.1-0.2-0.3-0.1c0.2,0.7,0.3,1.4,0.5,2.3c-4-1.7-7.9-3-12.3-3.4c0.6,1.3,1.7,1.5,2.7,2
		c-0.6,0.5-1.6,0.7-2.2,0.1c-0.9-0.8-1.8-1.6-2.5-2.6c-0.7-1-1-2.1-0.4-3.3c0.6-1.2,1.7-1.5,3-1.5c1.4,0,2.7,0.3,4,0.6
		c0.5,0.1,0.9,0.1,1.2-0.4c-0.5-0.3-1-0.6-1.6-0.6c-1.6-0.1-2.9-0.6-4-1.8c-0.4-0.4-0.7-0.8-0.6-1.4c0.2-1.9,2.3-3.1,4-2.3
		c1.1,0.5,1.9,1.3,2.9,1.9c0.7,0.5,1.4,1,2.3,1c0-0.3-0.2-0.4-0.3-0.6c-0.9-1-1.8-2-2.6-3.1c-0.4-0.5-0.2-0.9,0.3-1
		c1.1-0.3,2.1-0.4,3.2,0.2c2,1.3,4.2,2.4,6.2,3.8c4.9,3.2,10.6,5.2,15.3,8.8c0.7,0.5,1.6,0.8,2.5,0.9c1.9,0.1,3.8,0.4,5.7,0.8
		c3.6,0.9,7,2.3,10.4,3.7c0.7,0.3,1.5,0.6,2.3,0.7c-0.2-0.8-0.7-1.3-1.2-1.7c-2.8-2.2-4.8-5-6.4-8.1c-1.8-3.4-3.1-7-4.6-10.5
		c-0.4-1-0.8-2-1.4-2.8c0.9,5.9,1.9,11.8,3.4,17.6c-1.1-1.3-2.1-2.6-3.1-3.8c-1-1.3-2.1-2.5-3.2-3.6c-1.2-1.2-2.3-2.4-3.6-3.4
		c-1.3-1-2.5-2-4.1-3c0.2,0.6,0.4,0.9,0.5,1.3c1.4,3.1,2.8,6.2,4.2,9.3c0.1,0.2,0.4,0.5,0.1,0.6c-0.2,0.1-0.4-0.2-0.5-0.3
		c-0.6-0.7-1.3-1.3-2.1-1.8c-0.9-0.6-2-1.2-3.1-1c-1.5,0.3-2.6-0.3-3.7-1.1c-0.7-0.5-1.3-1.1-2.1-1.5c-0.5-0.2-0.4-0.4-0.2-0.8
		c0.4-0.8,0.7-1.7,1-2.5c0.9-1.8,0.6-3.5-0.4-5.1c-0.5-0.9-1.2-1.7-1.8-2.6c-0.5-0.7-0.9-0.9-1.7-0.4c-1,0.6-2,1-3,1.5
		c-0.4,0.2-0.7,0.2-1.1,0c-1.4-0.8-2.3-2-2.8-3.5c-0.7-1.9-0.7-1.9,0.9-3.1c0.1-0.1,0.2-0.2,0.3-0.2c0.6-0.4,0.5-0.7,0-1
		c-0.5-0.3-1.1-0.6-1.8-0.9c2.3-1.1,4.6-2,6.8-3c4.7-2.1,9.1-1.5,13.5,1c0.2,0.1,0.3,0.2,0.5,0.3c0.1,0.1,0.3,0.2,0.4,0
		c0.1-0.1,0.1-0.3,0-0.4c-0.2-0.2-0.4-0.4-0.7-0.5c-1.6-1.1-3.3-2.1-4.8-3.3c-1-0.8-1.8-0.8-2.9-0.3c-1.1,0.5-2.2,0.9-3.4,1.1
		c-0.5,0.1-0.7-0.1-0.5-0.6c0.6-1.4,1.4-2.6,2.6-3.6c1.4-1.2,3.2-1.6,4.9-2.2c2.2-0.7,4.5-1.3,6.3-2.9c1.9-1.6,3.8-3.2,5.8-4.7
		c0.2-0.2,0.5-0.3,0.6-0.7c-1.5-0.1-3.1,0-4.6,0.2c-1.9,0.2-3.4,1-4.7,2.4c-0.6,0.7-1.2,1.3-1.7,2c-1.7,2.1-3.7,3.7-6.1,5
		c-2.3,1.2-4,2.9-4.7,5.6c-0.1,0.4-0.4,0.5-0.7,0.6c-2.9,1.1-5.8,2.2-8.6,3.3c-1,0.4-1.2,1-0.6,1.8c1.2,1.7,1.9,3.5,2.4,5.5
		c0.2,0.5,0,0.6-0.5,0.5c-0.4-0.1-0.6-0.3-0.7-0.7c-0.3-0.8-0.5-1.5-0.8-2.2c-0.2-0.6-0.6-1.1-1.2-1.5c-0.2-0.1-0.5-0.5-0.8-0.2
		c-0.3,0.3-0.2,0.6,0.1,1c0.6,0.8,1.2,1.8,1.3,2.8c0.3,1.7,1.5,2.4,2.9,3c0.7,0.3,1.3,0.5,2,0.8c1.9,0.8,3.1,2.3,3.6,4.4
		c0.1,0.5,0.3,1.2-0.1,1.6c-0.3,0.3-0.9-0.2-1.3-0.4c-0.5-0.2-1-0.5-1.6-0.8c-1.3-0.7-2.6-1.5-4-2c-1.5-0.6-3.1-0.9-4.5,0
		c-1.4,0.9-3,1.4-4.5,2c-2,0.8-2.8,2.4-2.1,4.5c0.2,0.5,0,0.8-0.4,1.1c-0.6,0.4-1.1,0.8-1.3,1.5c-0.2,0.8-0.6,0.6-1,0.2
		c-2.3-2-4.9-3.6-7.7-4.9c-2.4-1-4.8-1-7.2-0.1c-0.2,0.1-0.6,0.1-0.7,0.5c-0.4,1.1-1.2,1.3-2.3,1.2c-0.6,0-1.3,0.1-1.7,0.6
		c-1.7,2.3-2.7,4.8-1.6,7.7c1.2,3.2,4,4.2,6.9,2.5c0.5-0.3,0.8-0.2,1.3,0.1c2.8,1.8,4.8,4.2,6.6,6.9c2.6,3.9,5.8,7.3,9.7,10
		c2,1.3,3.9,2.6,6,3.8c0.9,0.5,1.9,1.1,1.9,2.4c0,0.8,0.3,0.8,0.9,0.5c2.5-1,5-1.9,7.6-2.8c5.1-1.9,10.3-3.6,15.9-2.8
		c0.6,0.1,1-0.2,1.2-0.8c0.2-0.5,0.6-0.8,1.2-0.5c4.1,1.6,8.2,3,11.8,5.6c0.6,0.4,1,0.8,1.2,1.5c0.3,0.9,0.7,1,1.5,0.5
		c0.9-0.5,1.9-1,2.8-1.6c0.5-0.4,1-0.3,1.5-0.1c10.2,4.5,20.7,8,31.4,10.9c2.1,0.6,4.3,1,6.4,1.8c0.3,0.3,0.6,0.1,0.9,0.1
		c1.2-0.2,2.5-0.5,3.7-0.4c3,0.1,5.7,1,8,3c0.3,0.2,0.5,0.6,0.9,0.5c0.2-0.1,0.4,0,0.6,0c3.1,0.6,6.2,1.2,9.4,1.8
		C243.1,99.8,243,99,242.8,98.3z M160.8,49.5c0-0.2,0-0.3,0.2-0.2c2.5,2.6,4.3,5.6,6.5,8.7c-0.9-0.3-1.7-0.5-2.4-0.7
		c-0.4-0.1-0.5-0.4-0.7-0.7C163.2,54.1,162,51.8,160.8,49.5z M147.1,45.2c0.9,0.8,0.8,1.9,0.9,2.9c0,0.3-0.4,0.2-0.6,0.2
		c-0.5,0-0.8-0.4-0.7-0.9C146.9,46.8,147,46,147.1,45.2z M107.3,58.8c-0.2,0.3-0.6,0.3-0.9,0.1c-1.6-0.7-2.4-2.4-1.9-4.2
		c0.3-1,0.8-1.9,1.2-2.8c0.1-0.3,0.2-0.7,0.7-0.6c0.5,0.1,0.4,0.5,0.4,1c-0.4,1.9,0,3.8,0.8,5.6C107.8,58.3,107.5,58.5,107.3,58.8z
		 M137,60.5c-2.6,1.2-3.1,1.2-4.2,0.3C134,59.1,135.5,60,137,60.5z M110.1,56.6c-0.9-0.2-1.4-1.2-1.3-2.6c0.1-1.3,0.2-2.6,0.9-3.7
		c0.7-1.2,2-1.7,3.4-1.5c3.5,0.4,6.3,2.1,8.7,4.6c2.3,2.4,4.5,5,7,7.2c0,0.2,0,0.3-0.2,0.2c-4.1-2.5-8.2-4.8-12.6-6.8
		c0.1-0.1,0.1-0.2,0.2-0.2c0.3-0.1,0.9,0.2,1-0.2c0.1-0.5-0.5-0.5-0.9-0.6c-1.2-0.3-3.4,0.8-4,2C111.4,56.5,111,56.8,110.1,56.6z
		 M151.7,72.2c-1.7,0.2-3.1,0.8-4.4,1.8c-3.3,2.4-7.1,3.2-11,3.6c-0.1,0-0.4,0-0.4-0.1c-0.9-1.8-2.9-2.1-4.4-3
		c-1.8-1.1-3.7-1.9-5.3-3.3c-1.5-1.3-2.9-2.8-4.3-4.1c-3-2.8-6.2-5.5-9.5-7.9c-0.6-0.4-0.6-0.7-0.2-1.2c1.1-1.7,2.5-2.1,4.3-1.1
		c5,2.8,9.8,5.9,14.7,8.8c0.5,0.3,1.1,0.6,1.6,1c2.1,1.4,4.3,2.4,7,1c-0.4,1-0.4,1-1.5,1.5c2.2,1.1,5.3-0.1,6.2-2.5
		c0.3-0.8,0.5-0.9,1.1-0.3c2.3,1.9,4.7,3.8,7.3,5.7C152.4,72,152.1,72.1,151.7,72.2z"/>
	<path class="st2" d="M178.3,75.4c-0.7,0.2-1.5,0.4-2.3,0.2c0.5-0.3,1-0.5,1.4-0.8c0.7-0.5,1.4-1,1.7-1.9c0.1-0.3,0.4-0.8,0.1-1
		c-0.2-0.2-0.6,0-0.9,0.1c-4,1-8,0.7-11.9-0.6c-7.3-2.5-13.9-6.5-20.4-10.7c-0.3-0.2-0.5-0.5-1.1-0.5c0.8,0.9,1.4,1.7,2.2,2.4
		c4.4,4.3,9.5,7.7,15.1,10.4c4.7,2.3,9.3,4.6,13.7,7.4c0.9,0.5,1.5,0.5,2.3,0.1c3-1.7,6.2-3.2,9.4-4.6c2.3-1,4.6-2,7-2.8
		c-0.1-0.1-0.1-0.2-0.1-0.2c-3-2.9-6.5-5.2-9.7-7.8c-0.4-0.3-0.4,0-0.4,0.3c0,0.9,0,1.7,0,2.6C184,71.9,182,74.4,178.3,75.4z"/>
	<path class="st0" d="M166,128.6c-1.4-1-2.9-1.5-4.5-1.9c-2.5-0.6-5-0.9-7.5-1.1c-2.4-0.2-4.8-0.1-7.2-0.8c-1.2-0.4-1.4-0.8-0.9-1.9
		c0.2-0.4,0.4-0.8,0.5-1.3c0.3-0.7,0.7-1.1,1.5-0.8c0.6,0.2,1.3,0.2,1.9,0.2c4.1,0.1,7.9-0.5,11.3-3c5.3-4,7.1-10.7,2.6-16.7
		c-0.3-0.4-0.6-0.8-1-1.3c1.4,0.2,2.6,0.4,3.8,0.6c0.6,0.1,0.9,0,0.8-0.7c-0.1-1.3-0.1-2.5,0-3.8c0-0.8-0.2-0.9-0.9-0.9
		c-5.3,0-10.5,0-15.8,0c-4.3,0-8,1.5-11.2,4.3c-5.4,4.7-4.9,12.8-0.2,16.9c1,0.9,2.1,1.8,3.4,2.6c-0.6,0.6-1.2,1.1-1.7,1.6
		c-1.1,1.1-2.2,2.3-2.9,3.7c-1.6,3.1-0.2,6.6,3.2,7.7c1.2,0.4,2.5,0.7,3.8,0.8c2.9,0.3,5.9,0.4,8.8,1.1c1.8,0.4,3.6,0.9,5,2.2
		c1.2,1.1,1.2,2.5,0.1,3.7c-0.4,0.4-0.8,0.8-1.3,1c-2.5,1.4-5.2,1.8-8,1.7c-3.8-0.1-7.4-0.9-11-2c-0.3-0.1-0.6-0.2-0.9-0.1
		c0.3,1.1,0.7,2.2,0.9,3.3c0.2,1.1,0.9,1.5,1.8,1.7c3.3,0.9,6.6,1.5,10,1.5c0.9,0,1.8,0,2.8,0c2.8-0.2,5.6-0.7,8.3-1.9
		c4-1.8,6.8-4.5,7.4-9C169.3,133.2,168.6,130.5,166,128.6z M145.2,108.3c0-2.3,0.4-4.3,1.3-6.2c0.8-1.7,2.2-2.7,4.2-2.9
		c1.9-0.1,3.2,0.9,4.1,2.4c2.5,4.6,2.4,9.2-0.1,13.7c-1.4,2.6-5.5,2.2-7.1,0.4c-1.5-1.8-2.1-3.9-2.4-6.1
		C145.2,109.1,145.2,108.6,145.2,108.3z"/>
	<g>
		<path class="st6" d="M320.8,124.7c-0.6-1.9-2.5-3.2-4.5-3.2c-2.3,0.1-4.2,1.8-4.5,4.1c-0.3,2.1,1.2,4.3,3.4,4.8
			c2.2,0.6,4.5-0.5,5.4-2.5c0.1-0.2,0.1-0.5,0.4-0.7c0-0.7,0-1.3,0-2C320.8,125.1,320.9,124.9,320.8,124.7z M316.4,130.1
			c-2.2,0-4-1.9-4-4.1c0-2.2,1.9-4,4.2-4c2.2,0,4,1.8,4,4C320.5,128.4,318.7,130.2,316.4,130.1z"/>
		<path class="st7" d="M317.4,126.6c-0.2-0.3-0.4-0.5,0.1-0.7c0.6-0.3,0.9-0.7,0.7-1.4c-0.2-0.7-0.6-0.9-1.2-1
			c-0.9-0.2-1.9-0.1-2.9-0.1c0.8,0.6,0.9,4.5,0.1,5.2c0.8,0,1.4,0,2.1,0c-0.6-0.4-0.9-1.5-0.7-2.1c0.2-0.4,0.4-0.2,0.5,0
			c0.4,0.4,0.7,0.9,1,1.4c0.4,0.7,1,1,1.9,0.7C318.3,128,317.9,127.3,317.4,126.6z M316,125.8c-0.9,0-0.2-0.7-0.5-1
			c0.2-0.4-0.3-1.1,0.6-1c0.6,0.1,1.2,0.2,1.3,0.9C317.5,125.2,316.7,125.9,316,125.8z"/>
	</g>
</g>
<path d="M335.2,31.2c1.5,0,2.7,0,3.9,0c76.9,0,153.9,0,230.8-0.1c5.9,0,9.6,2.4,12,7.6c13,28.5,26.2,56.9,39.3,85.3
	c0.2,0.4,0.4,0.9,0.5,1.2c-0.9,1.1-1.9,0.6-2.8,0.6c-77.8,0-155.6,0-233.4,0.1c-4.6,0-7.7-1.8-9.6-5.9c-13.3-28.9-26.7-57.7-40-86.6
	C335.7,32.9,335.5,32.2,335.2,31.2z"/>
<path class="st8" d="M511.7,68.6c-2.8-5.8-5.6-11.5-8.4-17.4c0.8-0.3,1-0.4,1.2-0.4c11.6-0.5,11.6-0.5,16.5,10
	c4.2,9,8.3,17.9,12.4,26.9c0.4,0.9,1.1,1.7,0.7,3c-3.6,0-7.2,0-10.8,0c-1.5,0-2.4-1-3.4-1.9C514.2,84,508.7,79,503,74.1
	c-0.8-0.7-1.4-2.1-3.2-1.7c2.4,5.2,4.7,10.4,7.3,15.4c1.4,2.7,0.4,2.6-2,3c-7.3,1.2-11.3-1.4-14-8.6c-3.5-9.6-8.3-18.7-12.7-27.9
	c-1.2-2.6-1.5-3.4,2.1-3.7c6.6-0.6,11.6,1.3,16.2,6.1c4.3,4.6,9.4,8.5,14.2,12.6C511.6,69.6,512.1,69.6,511.7,68.6z"/>
<path class="st8" d="M445.2,90.7c-4.4,0-8.4,0-12.4,0c-1.2,0-1.7-0.9-2.1-1.8c-5.7-12.3-11.3-24.6-16.9-36.9
	c-0.1-0.3-0.1-0.7-0.1-1.3c3.8,0,7.6,0,11.4,0c1.2,0,2.1,0.3,2.5,1.6c0.3,0.9,0.8,1.8,1.2,2.7c4.6,10,4.6,10,16.1,8.9
	c-1-2.2-1.9-4.2-2.8-6.3c-0.9-2.1-1.9-4.2-3.1-6.8c4.4,0,8.4,0,12.3,0c1.4,0,1.8,1,2.2,2c5.5,11.8,10.9,23.7,16.4,35.5
	c1,2.1,0.4,2.4-1.6,2.5c-10.7,0.4-11.1,0.6-15.1-9.2c-2.1-5-4.8-7.3-10.2-6.4c-1.4,0.3-2.9,0-4.9,0
	C440.5,80.4,442.7,85.3,445.2,90.7z"/>
<path class="st8" d="M411.8,72.2c9.8,2.2,9.7,12.4,15.9,18.5c-4.8,0-9,0-13.2,0c-1.2,0-1.6-1-2.1-1.9c-1-1.9-2-3.9-3-5.8
	c-2.6-5.1-5.5-6.6-11.2-6.2c-1.8,0.1-2.1,0.6-1.3,2.2c1.6,3.2,3,6.4,4.5,9.6c0.7,1.5,0.5,2.2-1.4,2.2c-3.2-0.1-6.4-0.1-9.5,0
	c-1.5,0-2.2-0.6-2.7-1.8c-5.5-12-11-23.9-16.5-35.9c-0.6-1.3-1-2.4,1.1-2.3c9,0.3,18.1-0.8,27,0.9c6.6,1.2,11.3,5,13.8,11.2
	C414.8,66.7,414.5,68.4,411.8,72.2z"/>
<path class="st8" d="M560.5,91.8c-15.3-0.4-29.7-12.4-32.8-27.2c-1.7-8.2,2.1-13.6,10.5-14.7c6.5-0.9,12.7,0.5,18.4,3.6
	c8,4.3,13.7,10.9,17,19.4C577.9,84.2,572.4,92.1,560.5,91.8z"/>
<path class="st8" d="M489.8,90.4c-0.7,0.2-1,0.3-1.2,0.3c-12.2,0.6-12.1,0.6-17.2-10.6c-3.8-8.3-7.7-16.6-11.5-24.9
	c-0.6-1.3-1.2-2.6-2-4.4c4.4,0,8.3,0,12.1,0c1.1,0,1.7,0.5,2.2,1.5C478,64.9,483.8,77.5,489.8,90.4z"/>
<path class="st9" d="M416.5,109.6c1.2-3.6,2.1-6.3,3-8.9c0.2-0.7,0.5-1.4,1.5-1.4c0.9,0,1.2,0.7,1.4,1.4c0.9,2.6,1.8,5.2,3,8.9
	c1.1-3.5,1.9-6,2.7-8.5c0.3-1.2,0.8-2.2,2.2-1.8c1.5,0.5,0.5,1.6,0.2,2.4c-1.1,3.7-2.3,7.5-3.4,11.2c-0.2,0.8-0.3,1.8-1.4,1.9
	c-1.3,0.1-1.4-1.1-1.7-2c-0.9-2.6-1.8-5.3-3-8.7c-1.1,3.3-2.1,6.1-3,8.8c-0.3,0.8-0.3,1.8-1.4,1.9c-1.2,0.1-1.4-0.8-1.6-1.6
	c-1.2-4-2.5-7.9-3.7-11.9c-0.2-0.6-1.1-1.7,0.4-2c1.2-0.3,1.7,0.4,2.1,1.5C414.4,103.5,415.4,106.1,416.5,109.6z"/>
<path class="st10" d="M479.8,107.8c1.6,2.2,3.2,4.3,4.9,6.6c-1.7,1-2.9,0.6-3.8-0.8c-0.4-0.6-0.8-1.3-1.3-1.8
	c-1.3-1.3-2.1-4.1-3.6-3.7c-1.9,0.5-0.5,3.2-0.8,4.9c-0.2,1-0.1,2-1.5,1.9c-1.2-0.1-1.3-0.9-1.3-1.8c0-4,0-8,0-12.1
	c0-0.6,0-1.2,0.7-1.6c1.6-1,7.9,0,8.9,1.6C483.7,104,482.3,106.1,479.8,107.8z"/>
<path class="st11" d="M531.4,99.4c1.9-0.5,2,0.7,2,2.1c0,3.8,0,7.5,0,11.3c0,0.7,0.3,1.5-0.6,1.9c-1,0.5-1.6-0.2-2.1-0.9
	c-1.2-1.5-2.5-3-3.7-4.5c-1.1-1.4-2.3-2.8-3.7-4.5c-0.9,2.8-0.3,5.3-0.5,7.7c-0.1,1,0.5,2.4-1.3,2.4c-1.6,0-1-1.4-1-2.2
	c-0.1-3.8,0-7.5,0-11.3c0-0.7-0.3-1.6,0.6-1.9c1-0.4,1.5,0.4,2.1,1.1c2.3,2.8,4.6,5.6,6.9,8.5c1.7,0.1,1-1.3,1.1-2
	C531.3,104.4,530.6,101.9,531.4,99.4z"/>
<path class="st12" d="M510,110.9c-2.3-0.6-3.5,0.5-4,2.6c-0.3,1.2-1.1,1.7-2.2,1.3c-1.6-0.6-0.4-1.7-0.1-2.3
	c1.5-3.8,3.2-7.6,4.8-11.5c0.3-0.8,0.5-1.7,1.6-1.8c1,0,1.4,0.8,1.7,1.6c1.6,3.9,3.3,7.8,4.9,11.8c0.2,0.6,1.2,1.6-0.2,2.1
	c-1,0.4-1.9,0-2.2-1.2C513.7,111.3,512.3,110.3,510,110.9z"/>
<path class="st13" d="M550,115c-5.1-0.1-5.9-4.8-9-6.5c-0.8,1.5-0.2,3.1-0.4,4.6c-0.1,0.9-0.1,1.8-1.3,1.7c-1.3,0-1.2-1-1.2-1.8
	c0-4,0-8.1,0-12.1c0-0.9,0.1-1.8,1.3-1.7c0.9,0.1,1.2,0.7,1.2,1.5c0,1.2,0,2.4,0,3.6c3.6-0.5,4-6.2,8.9-4.8
	c-1.8,1.9-3.2,3.7-4.8,5.3c-1.5,1.3-1.3,2.2,0,3.6C546.4,110.4,548.5,112.1,550,115z"/>
<path class="st14" d="M445.6,113.6c0.1,0.9-0.1,1.2-0.7,1.3c-1,0.2-1.5-0.3-2.1-1.1c-2.7-4.1-5.8-4.2-8.2,0c-0.6,1-1.4,1.5-2.4,1.1
	c-1.2-0.5-0.2-1.5,0-2.2c1.6-4,3.2-7.9,4.8-11.8c0.5-1.2,1.7-2.6,2.5-1C442,104.4,443.7,109.2,445.6,113.6z"/>
<path class="st10" d="M459.6,107.2c0-0.5,0-1,0-1.5c0-7.3,0-7.3,7.3-6.5c0.9,0.1,1.7,0.1,1.7,1.3c0,1.2-0.8,1.3-1.7,1.3
	c-0.5,0-1-0.1-1.5,0c-1.3,0.2-3.2-0.8-3.2,1.7c0,2.3,1.7,1.5,2.9,1.6c1,0.1,2.1-0.1,2.1,1.3c0,1.4-1.3,1.3-2.2,1.2
	c-2.3-0.3-2.9,0.6-2.9,2.9c0,2.5,1.7,1.9,3,1.9c0.7,0,1.5,0,2.2,0c0.7,0,1.5-0.1,1.6,1c0.1,1.2-0.6,1.4-1.6,1.4c-0.1,0-0.2,0-0.4,0
	C459.6,115.6,459.6,115.6,459.6,107.2z"/>
<path class="st15" d="M556.2,115c-0.3-0.1-1.4-0.2-2.4-0.6c-1-0.5-2.6-1-1.7-2.6c0.9-1.5,1.8-0.3,2.7,0.3c1.5,0.9,3.3,1.1,4.2-0.5
	c1.2-2-0.8-2.7-2.2-3.4c-0.8-0.4-1.5-0.7-2.3-1.1c-1.6-0.9-2.6-2.3-2.3-4.2c0.3-1.7,1.2-2.9,2.9-3.4c1.8-0.6,3.6-0.4,5.2,0.7
	c0.5,0.4,0.8,0.9,0.4,1.5c-0.5,0.7-1.1,0.9-1.9,0.5c-1.4-0.7-3.2-1-3.8,0.7c-0.8,2.2,1.5,2.5,2.8,3c2.8,1.2,4.6,2.9,3.8,6.1
	C561.1,114.3,559.3,115.1,556.2,115z"/>
<path class="st16" d="M497.6,99.2c1.2,0,2.4,0,3.7,0c0.9,0,1.8,0.1,1.9,1.2c0.1,1.1-0.7,1.5-1.7,1.4c-2.3-0.3-2.6,1-2.5,2.9
	c0.1,2.7,0,5.4,0,8c0,0.9,0.2,2.1-1.2,2.2c-1.8,0.1-1.4-1.3-1.4-2.3c0-2.8-0.1-5.6,0-8.4c0-1.6-0.3-2.6-2.2-2.4c-1,0.1-2.1,0-2-1.4
	c0.1-1.4,1.3-1.2,2.2-1.2C495.4,99.2,496.5,99.2,497.6,99.2z"/>
<path class="st15" d="M450,108.4c0-1.2-0.1-2.4,0-3.7c0.2-2-0.1-3.4-2.6-3c-0.9,0.2-1.7-0.2-1.7-1.4c0.1-1.2,1-1.2,1.9-1.2
	c2.4,0,4.9,0,7.3,0c0.9,0,1.8,0.1,1.7,1.3c0,1.2-0.9,1.3-1.8,1.2c-2.4-0.3-2.5,1.1-2.5,2.9c0.1,2.7,0.1,5.4,0,8
	c0,0.9,0.4,2.1-1.1,2.2c-1.6,0.1-1.2-1.2-1.2-2.1C450,111.4,450,109.9,450,108.4z"/>
<path class="st17" d="M531.4,99.4c0,2.9-0.1,5.7-0.2,8.6c0,0.7,0.4,2.5-1.3,1c1.3-2.1,0.2-4.4,0.6-6.5
	C530.7,101.4,529.9,100,531.4,99.4z"/>
<path class="st18" d="M511.7,68.6c0.6,0.5,1.5,1.4,0.8,2c-0.8,0.7-1.3-0.3-1.7-1.1C511.1,69.2,511.4,68.9,511.7,68.6z"/>
<path class="st19" d="M396.5,67.9c-4.4,0.1-6.9-2.1-7.5-6c-0.1-0.6-0.2-1.4,0.6-1.3c3.3,0.1,6.9-0.9,9.8,1.6c1.2,1.1,2.5,2.3,2,4
	c-0.5,1.7-2.3,1.6-3.7,1.7C397.2,67.9,396.6,67.9,396.5,67.9z"/>
<path class="st20" d="M545.6,59.8c3.8,0.1,6,1.5,7.9,3.2c3.7,3.5,6.2,7.9,7.2,12.9c0.8,4.1-1.4,6.3-5.6,5.6c-2-0.3-3.8-1.1-5.3-2.4
	c-4.2-3.6-6.9-8.2-8-13.6C540.9,61.7,542.7,59.7,545.6,59.8z"/>
<path class="st21" d="M477.2,105.3c-1.3,0.1-2.3-0.1-2.2-1.9c0-1.5,0.9-1.8,2.1-1.7c1.4,0,2.8,0.1,2.8,1.9
	C479.9,105.2,478.6,105.3,477.2,105.3z"/>
<path class="st22" d="M511.7,107.2c0.3,1.1-0.3,1.4-1.1,1.4c-0.8,0-2.1,0.3-2-0.9c0.1-1.1,0.4-2.8,1.5-3
	C511.3,104.6,511,106.5,511.7,107.2z"/>
<path class="st23" d="M438.7,104c0.8,1.5,2.1,2.8,1.3,4.4c-0.3,0.6-2.3,0.6-2.6,0C436.6,106.8,438,105.5,438.7,104z"/>
</svg>
