<?xml version="1.0" encoding="utf-8"?>
<!-- Generator: Adobe Illustrator 28.0.0, SVG Export Plug-In . SVG Version: 6.00 Build 0)  -->
<svg version="1.1" id="Capa_1" xmlns="http://www.w3.org/2000/svg" xmlns:xlink="http://www.w3.org/1999/xlink" x="0px" y="0px"
	 viewBox="0 0 664 154" style="enable-background:new 0 0 664 154;" xml:space="preserve">
<style type="text/css">
	.st0{fill:#E20613;}
</style>
<g>
	<g>
		<rect x="228.7" y="45" class="st0" width="17.4" height="64.2"/>
		<polygon class="st0" points="443.3,61.1 464.3,61.1 464.3,109.1 482.7,109.1 482.7,61.1 503.2,61.1 503.2,44.6 443.3,44.6 		"/>
		<polygon class="st0" points="506.8,61.1 527.8,61.1 527.8,109.1 546.2,109.1 546.2,61.1 566.7,61.1 566.7,44.6 506.8,44.6 		"/>
		<polygon class="st0" points="256.6,45 256.4,60.9 283,60.9 253.9,109.1 312.2,109.1 312.2,93.5 283.3,93.5 312.2,45 		"/>
		<polygon class="st0" points="317.7,45 317.5,60.9 344.1,60.9 314.9,109.1 373.3,109.1 373.3,93.5 344.4,93.5 373.3,45 		"/>
		<path class="st0" d="M410.3,42.9c-17.9,0-32.5,14.7-32.5,32.9s14.6,32.9,32.5,32.9c17.9,0,32.5-14.7,32.5-32.9
			S428.3,42.9,410.3,42.9z M410.3,92c-8.3,0-14.9-7.2-14.9-16.1s6.7-16.1,14.9-16.1c8.3,0,14.9,7.2,14.9,16.1S418.6,92,410.3,92z"/>
		<path class="st0" d="M600.5,42.9c-17.9,0-32.5,14.7-32.5,32.9s14.6,32.9,32.5,32.9c17.9,0,32.5-14.7,32.5-32.9
			S618.4,42.9,600.5,42.9z M600.5,92c-8.3,0-14.9-7.2-14.9-16.1s6.7-16.1,14.9-16.1c8.3,0,14.9,7.2,14.9,16.1S608.7,92,600.5,92z"/>
		<path class="st0" d="M203.8,80.6c12.9-3.7,10.7-17.9,10.7-17.9s0.4-11-11.2-16.2c-2.9-1-7.2-1.6-12.7-1.6h-25.1v63.9h18V84h1.6
			c1.6,0,4.4,0.4,5.7,1.4c0.9,0.8,2,2.4,3.2,4.9l8.3,18.6h18.6L213,90.3C212.5,89.4,210,81.4,203.8,80.6z M191,72.3h-7.6V57.8h7.9
			c3.9,0,6.3,3,6.3,7.7C197.6,71.9,191.8,72.3,191,72.3z"/>
	</g>
	<g>
		<path class="st0" d="M130.9,57c0.3-0.3,0.5-0.6,0.8-0.9c-0.2-0.2-0.3-0.4-0.5-0.5c-9.1-9.1-18.2-18.2-27.3-27.3
			c-0.5-0.5-1-0.6-1.6-0.6c-26.1,0-52.2,0-78.3,0c-0.3,0-0.7,0-1,0c0.1,0.3,0.1,0.6,0.2,0.8c0.8,2.8,1.6,5.5,2.3,8.3
			c0.2,0.9,0.6,1.1,1.5,1.1c23.6,0,47.2,0,70.9,0c0.9,0,1.5,0.3,2.1,0.9c5.2,5.2,10.5,10.5,15.7,15.7c0.5,0.5,1.1,0.9,1.7,1.4
			c0,0.2,0,0.3,0,0.5c-0.4,0.3-0.8,0.5-1.1,0.8c-4.5,4.5-8.9,8.9-13.4,13.4c-0.5,0.5-0.6,1-0.4,1.7c1.8,6.2,3.5,12.5,5.3,18.7
			c0.3,1.1,0.6,2.1,0.9,3.3c-0.3-0.2-0.5-0.2-0.7-0.3c-2.6-1.8-5.1-3.6-7.7-5.4c-6.5-4.6-13.1-9.2-19.6-13.9c-0.4-0.3-0.8-0.3-1.2,0
			c-8,5.7-15.9,11.3-23.9,16.9c-1.3,0.9-2.5,1.8-3.8,2.7c-0.1,0-0.1-0.1-0.2-0.1c2.8-10,5.6-20.1,8.5-30.1c-9,0-17.8,0-26.7,0
			c0.1,0.4,0.1,0.6,0.2,0.9c0.8,2.8,1.6,5.6,2.4,8.4c0.2,0.7,0.5,0.9,1.1,0.9c2.7,0,5.5,0,8.2,0c0.4,0,0.7,0,1.2,0
			c-4.3,15.2-8.5,30.2-12.8,45.4c0.5-0.3,0.7-0.4,0.9-0.6c14.8-10.5,29.7-21,44.5-31.5c0.8-0.5,1.3-0.5,2,0
			c5.1,3.6,10.1,7.2,15.2,10.8c8.4,6,16.9,11.9,25.3,17.9c1.6,1.1,3.2,2.2,4.9,3.5c-0.1-0.4-0.1-0.5-0.2-0.6
			c-4.1-14.6-8.2-29.2-12.3-43.7c-0.2-0.8-0.1-1.3,0.5-1.9C119.9,68,125.4,62.5,130.9,57z"/>
		<path class="st0" d="M105.5,56c-0.4-0.4-0.6-0.6-0.8-0.8c-2.8-2.8-5.7-5.6-8.5-8.5c-0.6-0.6-1.3-0.9-2.2-0.9
			c-21.6,0-43.2,0-64.8,0c-0.3,0-0.7,0-1.1,0c0.1,0.4,0.1,0.7,0.2,1c0.8,2.8,1.6,5.5,2.3,8.3c0.2,0.8,0.5,1,1.3,1
			c24.1,0,48.2,0,72.3,0C104.6,56,105,56,105.5,56z"/>
	</g>
</g>
</svg>
