<?xml version="1.0" encoding="utf-8"?>
<!-- Generator: Adobe Illustrator 28.0.0, SVG Export Plug-In . SVG Version: 6.00 Build 0)  -->
<svg version="1.1" id="Capa_1" xmlns="http://www.w3.org/2000/svg" xmlns:xlink="http://www.w3.org/1999/xlink" x="0px" y="0px"
	 viewBox="0 0 788.8 773" style="enable-background:new 0 0 788.8 773;" xml:space="preserve">
<style type="text/css">
	.st0{fill:#CB0000;}
	.st1{fill:#FEFEFE;}
	.st2{fill:#D83F3F;}
	.st3{fill:#FEFDFD;}
	.st4{fill:#FEFCFC;}
	.st5{fill:#FDFBFB;}
	.st6{fill:#FDFAFA;}
	.st7{fill:#242021;}
	.st8{fill:#231F20;}
	.st9{fill:#CB0101;}
	.st10{fill:#CC0303;}
	.st11{fill:#CD0707;}
	.st12{fill:#CE0C0C;}
	.st13{fill:#CD0909;}
	.st14{fill:#CD0A0A;}
	.st15{fill:#CC0202;}
	.st16{fill:#CD0B0B;}
	.st17{fill:#CE0D0D;}
	.st18{fill:#272324;}
	.st19{fill:#262223;}
	.st20{fill:#F6F6F6;}
</style>
<g>
	<path class="st0" d="M425.7,743.4c-2.6,0-5.2,0-7.7,0c-2.2-1-4.3-1-6.5,0c-9,0-18.1,0-27.1,0c-2.6-1-5.2-1-7.7,0
		c-2.6,0-5.2,0-7.7,0c-10.8-1.6-21.8-0.9-32.5-2.8c-66.1-11.6-124.8-39.1-175.7-82.9c-42.9-36.9-75.7-81.4-98-133.5
		c-12.8-30-22.2-61.2-25.6-93.6c-2.6-25.2-1.8-50.6-1.3-75.9c0.5-31,7.2-60.5,17-89.6c17.7-52.8,46.3-99,85.5-138.8
		c51.4-52.2,113-85.6,184.4-101.4c17.5-3.9,35.2-5,53-6c85.7-5,164.2,15.8,234.1,66.3c70.2,50.7,116.9,118,140.2,201.4
		c5.9,21,9.5,42.3,9.4,64.2c0,1.1-0.2,2.2,0.6,3c0,2.2,0,4.3,0,6.5c-1,2.6-1,5.2,0,7.7c0,9,0,18.1,0,27.1c-1,2.6-1,5.2,0,7.7
		c0,2.6,0,5.2,0,7.7c-1.6,10.6-0.9,21.3-2.7,31.9c-11.4,66.1-38.7,125-82.5,175.8c-57.5,66.6-129.8,107.5-216.5,122.6
		C447.5,742.6,436.5,741.9,425.7,743.4z"/>
	<path class="st1" d="M759.9,353.6c-2.7-7.7-2.4-15.8-3.5-23.7C734.9,179.5,621.6,57.3,472.2,27.4c-123.6-24.7-232.9,6.8-325,93.2
		C88.1,176.1,52.1,245.1,40.5,325.2c-17,116.5,14.5,219.2,95.2,305.4c58.3,62.3,130.9,98.1,215.3,109.9c6,0.8,12.2,0.3,18,2.8
		c-111.4,0-222.7,0-334.2,0c0-2.1,0-4.2,0-6.3c0-237.6,0-475.2-0.1-712.7c0-5.2,1-6.3,6.3-6.3c237.8,0.2,475.6,0.2,713.4,0
		c5.1,0,5.8,1.4,5.8,6C759.8,133.9,759.9,243.8,759.9,353.6z"/>
	<path class="st1" d="M425.7,743.4c7.7-2.7,15.8-2.4,23.8-3.5C602.5,718,724.3,601.5,753.6,448.8c2.2-11.6,3.8-23.3,4.9-35.1
		c0.1-1.2-0.4-2.7,1.3-3.2c0,109.1,0,218.3,0.1,327.4c0,4.7-1,5.6-5.6,5.6C644.8,743.3,535.2,743.4,425.7,743.4z"/>
	<path class="st2" d="M759.9,402.7c-1.9-2.6-2-5.2,0-7.7C759.9,397.5,759.9,400.1,759.9,402.7z"/>
	<path class="st2" d="M759.9,367.8c-2-2.6-1.9-5.2,0-7.7C759.9,362.7,759.9,365.3,759.9,367.8z"/>
	<path class="st2" d="M376.6,743.4c2.6-1.9,5.2-2,7.7,0C381.8,743.4,379.2,743.4,376.6,743.4z"/>
	<path class="st2" d="M411.5,743.4c2.2-1.9,4.3-1.9,6.5,0C415.8,743.4,413.6,743.4,411.5,743.4z"/>
	<path class="st1" d="M663.7,381.4c0,147-119,265.9-266.1,265.8c-146.5,0-265.6-119.3-265.5-265.8c0.1-147,119.3-266,266.2-265.8
		C544.9,115.7,663.8,234.8,663.7,381.4z"/>
	<path class="st3" d="M271,108.7c-4-13.7-9.2-26.1-14.8-38.9c8.3-3.1,17.1-6.8,26.2-9.6c10.7-3.3,19.3,1.4,23.6,12.1
		c4.5,11.3,1.6,20.3-8.5,25.8c-1.5,0.8-3.1,1.6-4.7,2.2C285.5,103.2,278.1,106,271,108.7z"/>
	<path class="st3" d="M606.5,168.4c-3.5-3.7-6.2-6.7-8.5-9.1c10.9-8.6,20.5-18.2,30.4-28.4c6.4,6.9,13.6,14.2,20.3,22
		c5,5.7,4.5,12.7-0.5,17.3c-5,4.6-11.6,4.5-17.3-0.8c-4-3.6-7.6-7.6-11.3-11.5c-1.2-1.3-2.2-2.8-4.1-0.8
		C612.4,160.5,607.9,162.7,606.5,168.4z"/>
	<path class="st3" d="M158,202.5c-1.1,2.1-1.4,2.9-1.8,3.5c-2.9,3.9-3.3,10.6-11.5,7.6c-2.7-0.9-8.1-1.6-11,2.7
		c-2.2,3.1-3,5,1.3,7.4c8,4.5,7.8,4.8,2.6,12.5c-8.9-6.8-18.5-12.5-29-17.9c4.5-7.2,9.1-15.1,14.3-22.6c2.5-3.7,6.3-6.1,11.1-4.4
		c4.7,1.7,7.6,5,6.6,10.3c-0.6,3.2,0.4,4.1,3.6,3.8C148.4,205,152.8,205.4,158,202.5z"/>
	<path class="st3" d="M93.8,422.5c-7.8,1.5-14.3,1.3-20,5c-1.4-3-2-6.5-2-9.6c11.2-1.4,22-3.6,33.1-6.2c0.5,2.2,1.1,5,1.6,7.9
		c0.1,0.9,0.8,1.8-0.6,2.7c-8.1,5.2-10.1,14.8-17.4,22.8c8.5-1.7,15.4-1.7,21.8-5.3c0.6,3.3,1.3,6.6,1.8,9.7
		c-11.5,1.1-22.3,3.5-33.5,6.1c0.3,0.4-0.1,0.2-0.1-0.2c-0.8-5.2-3.2-9.8,2.8-14.7C86.5,436.7,89.2,429.7,93.8,422.5z"/>
	<path class="st3" d="M483.5,93.2c4.7-10.6,8.9-20.8,11.8-31.9c-0.1,0,0.5,0.1,1,0.3c4.8,1.6,9.3,2.4,10.5,9.6
		c1.1,6.7,5.6,12.8,9.3,20.5c2.3-5.9,5.2-10.6,5.8-15.5c0.6-5.2,2.4-4.1,5.4-2.8c1.7,0.7,3.4,1.4,4.6,1.8
		c-5.1,10.2-9.1,20.5-12.1,31.7c-2.4-0.8-5.2-1.7-7.9-2.9c-0.7-0.3-2.1-0.1-2.1-1.8c0-9.6-7.4-16.2-10.2-25.1
		c-3.2,6.2-6.5,12.2-7,19.5C489.2,95.4,486,94.2,483.5,93.2z"/>
	<path class="st3" d="M359.3,82.2c-0.9,0.4-1.5,0.8-2.1,0.9c-5.3,0.9-11.2,5-14.6-3.5c-0.8-2-3.4-3.2-5.1-4.8c-2.6-2.4-5.3-1-7.8,0
		c-2.6,1-0.6,3.4-0.7,5.1c-0.1,1,0.2,2.2,0.8,3.1c3.1,5,0.6,5.9-4,6.6c-3.7,0.6-4.2,0.2-4.7-3.6c-1.4-9.6-2.8-19.4-6.5-29.1
		c8.3-1.7,16.9-3.5,25.7-5.1c4.7-0.8,9.4-0.1,11.4,4.9c2,4.9,1.7,9.8-3.7,12.8c-3,1.6-1.5,2.8,0.1,4.1
		C351.7,76.6,354.7,80.2,359.3,82.2z"/>
	<path class="st3" d="M393.3,691c4,2.5,6.3,5.6,4.5,10.3c-1.7,4.5-5.3,6.1-9.6,6.1c-7.1,0-14.2-0.2-21.2-0.4
		c-2.5-0.1-3.4-0.7-3.1-3.8c0.8-8.7,0.9-17.5,0.9-26.3c0-2,0.5-2.1,1.8-2.1c7.5,0.2,15,0.4,22.5,0.9c3.9,0.2,7.2,1.9,8.4,5.9
		C398.4,685.5,396.9,688.7,393.3,691z"/>
	<path class="st3" d="M653.4,228.2c-1.4-1.7-1.9-2.1-2.2-2.6c-3.1-4.6-8.2-8.6-2.2-15.1c2-2.2,4.2-6.2,1.9-10.1
		c-1.7-2.9-3.4-5.6-7.1-1.9c-2,2-5.6,2.4-5.8,7.5c-2.9-4.2-5-7.3-6.9-10c9.9-5.7,19.1-12,28.4-19.2c4.5,6.9,9.8,14.5,14.7,22.4
		c2.6,4.2,2.8,8.6-1.3,12.2c-3.8,3.4-8.1,4-12.3,0.8c-2.1-1.6-3.1-1.7-3.9,0.9C655.6,217.8,653.2,221.9,653.4,228.2z"/>
	<path class="st4" d="M104.2,401.7c-11.9-0.6-23.1-0.8-34.7,1c0-7.7-0.2-15.8,0.1-23.9c0.3-9.2,6.2-14.7,15.8-15.1
		c10.3-0.4,16.8,4.4,17.6,13.7C103.8,385.5,103.9,393.7,104.2,401.7z"/>
	<path class="st3" d="M674.7,276c10.8-3.1,21.4-4.6,30.9-9.7c2.2-1.2,2.1,0.5,2.3,1.4c2.1,7.4,4.4,14.8,5.9,22.4
		c1.7,8.5-2.5,14.6-11.3,17.5c-9.1,3-16.1,0.5-20.2-7.4c-0.5-0.9-1-1.9-1.3-2.9C679,290.2,676.9,283.2,674.7,276z"/>
	<path class="st3" d="M612.4,624.3c-3.6,3.5-6.7,6.1-12.6,3.8c-5.8-2.3-12.6-2.2-20.2-3.4c4.8,5.5,7.8,11.2,13.4,15.1
		c-2.5,2-5.1,4.1-7.5,6.1c-6.6-8.3-13.1-16.5-20-25.2c-0.2,0.6-0.2,0.2,0,0c4.7-5.2,9.7-8.1,17.1-4.7c3.8,1.7,8.4,1.6,13.8,2.4
		c-2.9-3.8-4.8-7.2-7.6-9.5c-4.2-3.5-2.7-5.5,0.9-7.7c1.1-0.6,2-1.5,2.5-1.9C599.1,607.7,605.7,616,612.4,624.3z"/>
	<path class="st3" d="M140,567.6c-9,0-15.8-6.9-15.6-16c0.1-9.1,6.9-15.6,16.1-15.5c8.6,0.1,15.5,7,15.5,15.6
		C155.9,560.7,148.9,567.7,140,567.6z"/>
	<path class="st3" d="M471.7,697.9c-3.4,0.9-6.7,1.8-10,2.7c-1.1-9.9-4.3-19.3-7.2-28.6c-0.8-2.5-0.3-2.7,1.2-3.1
		c7-1.9,14-3.9,21.1-5.3c4.3-0.9,8.8-0.7,11.2,4.1c2.3,4.6,2.4,9.2-1.8,12.8c-2.2,1.9-1.7,3,0.2,4.4c2.7,2.1,5.3,4.3,8,6.4
		c-1.9,2.2-4.7,1.6-7,2.6c-2.2,0.9-3.5,0.6-5.5-1.7c-2.7-3.1-6.2-9.2-11.3-5.7C466.5,689.2,471.4,693.7,471.7,697.9z"/>
	<path class="st3" d="M673.6,552.4c-0.2,8.9-7.5,15.6-16.4,15.3c-9-0.4-15.3-7.3-15-16.5c0.3-8.7,7.1-15,16-14.9
		C667.2,536.4,673.9,543.3,673.6,552.4z"/>
	<path class="st4" d="M550.9,110.7c1.1-2.7,2.3-5.2,4.2-7.1c3.8,5.8,11.1,6.8,16,11.5c-3.7,1.7-5.7,4.9-6.3,8.2
		c-0.5,3.2-1.8,3.5-4.4,3.2c-7.6-1-14.6-3.4-20.6-8.3c-7-5.8-9-14.5-5.2-22c3.7-7.1,11.7-10.4,20.3-8.7c8.8,1.8,14.1,8.3,20.2,14.1
		c-1.8,2.3-4.5,3.6-7.2,5.2c-2.3-5.8-6.1-9.8-12-11.7c-5.5-1.8-9.8-0.1-12.8,4.6c-3.1,4.9-2.2,9.4,1.8,13.3c2.6,2.6,6,4.2,9.4,5.4
		c2.1,0.7,4.3,1.1,5.4-1.6c1.2-2.8-1.5-3-2.8-4.1C555.3,111.3,553.1,111.1,550.9,110.7z"/>
	<path class="st3" d="M660.3,239.7c0-10.3,7.2-17.7,17.3-17.6c10.3,0,19.7,11,19.7,23.1c0,10.2-7.2,17.6-17.3,17.5
		C669.4,262.6,660.3,252,660.3,239.7z"/>
	<path class="st3" d="M198.7,646c-2.3-1.8-5-3.9-7.8-6.1c2.6-3.5,8.3-6.3,7-10.1c-1.2-3.6-6.3-7.7-10-8.1c-3.6-0.4-5.6,5.4-8.2,9.2
		c-2.6-2-5.4-4.2-7.9-6.2c6.7-8.4,13.2-16.6,20-25.2c2.3,1.8,5.1,3.9,7.9,6.1c-2.1,3.3-7.9,5.2-5.9,9.3c1.7,3.5,6.1,7,9.8,7.7
		c3.5,0.6,4.9-4.9,7.3-8c2.7,2.1,5.5,4.4,7.9,6.3C212,629.3,205.4,637.6,198.7,646z"/>
	<path class="st3" d="M547.4,666.5c-8.8,0.1-15.9-7-15.9-15.9c0-10,10.1-18.9,21.3-18.9c9.1,0,16,6.8,16.1,15.7
		C568.9,656.8,558.2,666.4,547.4,666.5z"/>
	<path class="st3" d="M702.6,488.8c-1.6-1.4-2.7-2.5-3.8-3.4c-2.5-2-2.8-3,0.4-5.3c4.5-3.2,6.5-8.4,6.6-14c0-1.6,0.5-3.8-1.9-4.1
		c-2.1-0.3-3,1.3-3.7,2.9c-1.5,3.5-2.9,7.1-4.6,10.6c-2.4,5.1-5.7,9.3-12.3,7.9c-5.6-1.2-7.8-5.4-7.6-13.1c0.3-9,5.4-15.9,10.2-23.1
		c1.9,1.7,3.8,3.4,6,5.3c-5.7,4.6-8.9,10.4-9.5,17.5c-0.1,1.7-0.4,3.9,1.6,4.4c2.1,0.5,3.6-1.1,4.4-3c1.6-3.5,2.8-7.2,4.5-10.6
		c2.4-4.9,5.6-8.8,12-7.1c5.5,1.5,8.2,5.8,7.8,12.4c-0.4,5.9-2.5,11.2-6.1,15.9C705,484,703,485.7,702.6,488.8z"/>
	<path class="st3" d="M100.2,306.4c6.3-4.4,8.7-10.4,9.4-17.3c0.2-2,0.1-4.3-2-4.9c-2.5-0.8-3.3,1.6-4,3.3
		c-1.6,3.7-2.9,7.6-4.5,11.3c-2.2,5-5.7,8.2-11.6,6.9c-5.7-1.3-7.6-5.5-7.9-11c-0.6-9.6,4.9-16.4,10.6-24.4c1.1,1.5,2,3.1,3.2,4.3
		c1.7,1.7,2.1,2.3-0.3,4.1c-4.5,3.3-6.4,8.4-6.9,14c-0.2,2-0.2,4.4,1.9,5c2.2,0.6,3.3-1.6,4-3.4c1.5-3.8,2.8-7.6,4.5-11.3
		c2.3-5.1,5.8-8.8,11.9-7.4c6,1.4,7.6,6.1,7.7,11.8c0.2,8.6-4,15.5-8.2,22.6c-1,1.8-1.8,1.4-2.9,0.5
		C103.7,309.3,102.2,308,100.2,306.4z"/>
	<path class="st4" d="M721.7,325.6c-7.5-1-14.5,0.6-21.5,2c-5.6,1.1-5.4,5.9-4.9,10.3c0.4,4.2,2.2,8.1,6.8,7.8
		c7.1-0.4,14.5-0.6,21.4-3.5c0.2,0.4,0.5,0.9,0.6,1.5c1.6,7.7,1.6,7.7-6.3,8.5c-4.7,0.5-9.4,1.2-14.1,1.6c-1.9,0.2-3.9,0.2-5.8-0.2
		c-6-1.1-10-9.2-10.1-20.3c-0.1-8.3,2.7-12.8,9.1-14.3c7.3-1.7,14.9-0.9,22-3.8c1.9-0.8,1.9,1.1,2,2.2
		C721.3,320.1,721.4,322.8,721.7,325.6z"/>
	<path class="st4" d="M74.6,314.6c6.7,3.5,13.6,2.7,19.9,3.9c9.6,1.8,12.5,4.8,12.3,14.6c0,3-0.5,6-1.1,8.9
		c-2.3,10.2-5.7,12.6-16.3,11.8c-6.5-0.5-12.9-3-20-1.1c0.5-3.9,1.1-7.6,1.6-11.2c7.4,2.9,15,3.7,22.6,3.4c5.5-0.2,6-5.5,6.5-9.7
		c0.4-3.9-1-7.5-5.4-8.3c-5.9-1.1-12-2.7-17.8-2.2c-4.5,0.4-3.8-1.1-3.5-3.7C73.8,318.8,74.2,316.7,74.6,314.6z"/>
	<path class="st3" d="M408.4,675.7c9.7-1.7,9.7-1.7,10.6,7.8c0.3,2.6,0.5,5.1,0.7,7.7c0.4,5,3,7.4,8.1,6.8c5.2-0.6,7.6-3.4,6.8-8.8
		c-0.8-5.4-1.4-10.9-2.2-16.5c1.8-0.2,3.7-0.3,5.7-0.5c3-0.3,4.5,0.6,4.6,4.2c0,5.3,1,10.7,1.3,16c0.3,6.3-3.2,10.1-8.9,11.9
		c-2.8,0.9-5.9,1.4-8.9,1.5c-9.8,0.5-14.8-4-15.9-13.7C409.7,686.7,409.1,681.2,408.4,675.7z"/>
	<path class="st4" d="M719.5,404.1c-3.2-2.4-8.3-3.2-2.9-9.2c3.5-3.9,3.5-9.7,1.7-14.8c-1.5-4.3-4.5-7.2-9.5-7.4
		c-5.3-0.2-8.7,2.5-10.4,7c-2,5.2-2.2,11.3,1.4,15.4c3.7,4.1,1.7,5.2-1.5,6.8c-0.8,0.4-1.5,0.9-2.2,1.3c-4.2-8.2-7.4-16.3-4.8-25.7
		c2.3-8.4,8.7-13.9,17-13.8c8.5,0,14.7,5.2,17,13.8C728,387.3,724.1,395.6,719.5,404.1z"/>
	<path class="st4" d="M159.6,148.8c-0.6,1.1-0.5,0.6-0.2,0.4c3.8-3.5,5.5-8.8,13.7-4.1c8.5,4.8,19.1,6.8,30.7,9.8
		c-2.7,2-5.5,4-8.1,6.1c-1.7,1.4-2.3,2.5-3.9-0.5c-1.4-2.6-4.6-2.9-7.1-0.3c-1.6,1.7-3.3,3.3-5,5c-5.1,5.1-5,6.4,0.8,10.9
		c-2.5,2.6-5,5.2-7.7,8.1C168.6,172.4,166.1,160.3,159.6,148.8z"/>
	<path class="st3" d="M242.4,672.6c-2.7-1.5-5.3-2.9-7.8-4.4c-0.6-0.4-2.2-0.6-1.2-2.2c4.1-6.5-2.1-7.2-5.4-9.5
		c-3.2-2.3-5.6-3.3-9.2,0.5c-3.1,3.2-5.6-2.4-9.1-3c8.4-7.7,17.9-13.4,25.1-21.6c1.2-1.4,1.8,0,2.6,0.3c9.7,4.2,10.2,5.3,8.5,16
		C244.5,656.3,243.6,664.2,242.4,672.6z"/>
	<path class="st4" d="M494.5,667.7c-1.5-3.4-2.7-6.1-3.8-8.6c5.3-2.1,10.7-4.1,15.9-6.4c5.1-2.2,10.5-3.7,15.3-7
		c1.2,2.8,2.3,5.4,3.4,8.2c-11.7,3.5-11.7,3.5-7,14.8c0.5,1.2,1,2.4,1.5,3.6c1.2,2.7,4.1,7,3.3,7.8c-2.2,2.3-5.9,3.1-8.7,4.4
		c-2.5-6-5.2-11.6-7-17.4c-1.5-4.9-3.7-5.4-7.7-2.9C498,665,496,665.2,494.5,667.7z"/>
	<path class="st4" d="M266,648.1c3,1.2,6.3,2.6,9.8,4c-3.8,6.1-5.5,13-8.6,19.3c-1.1,2.4-0.1,3.6,2,4.3c6,2,11.5,5.4,18,6.4
		c-1.2,2.9-2.3,5.6-3.3,8.2c-10.2-4.2-20.1-8.4-30-12.4C258.6,668.3,262.4,658.7,266,648.1z"/>
	<path class="st5" d="M686.2,430.2c0.6-3.5,1.2-6.8,1.8-10.6c6.1,2.8,12.7,2.9,19.1,4.2c8.5,1.7,8.4,1.7,9.4-6.7
		c0.2-1.8-0.6-3.3-0.6-5.3c3,0.5,5.9,1,8.5,1.4c-2.9,11.4-4.8,22.7-6,34.8c-2.3,0.1-5.3-0.4-8.7-1.6c3.2-2.9,2.7-6.7,3.6-10
		c0.3-1,0.5-2.4-0.9-2.6C703.8,432.6,695.5,429.8,686.2,430.2z"/>
	<path class="st4" d="M328.3,693.2c0.3,8.5-3.7,8.5-9.9,6.4c-6.9-2.3-14.1-3.7-21.1-5.5c-1.8-0.5-2.3-0.5-1.4-3.3
		c2.8-9.2,5.9-18.4,7-28.4c3.2,0.8,6.8,1.7,10.5,2.7c-3.3,6.7-3.9,14-6.2,20.8c-0.6,1.7-0.2,2.9,1.8,3.3
		C315.5,690.2,321.6,693.1,328.3,693.2z"/>
	<path class="st4" d="M130,252.7c-1.5,3.5-3,6.8-4.5,10.1c-7-5-15-7.1-22.3-10.8c-2.1-1.1-3.2-0.1-3.9,1.8c-0.6,1.6-1.7,3.1-1.9,4.8
		c-0.6,5.2-3.2,4.9-6.6,2.8c-0.7-0.4-1.5-0.7-2.2-1.1c5.9-10.2,10.4-21.1,14.2-32.5c2.5,1.1,5.2,2.3,8.2,3.6c-1,0.9-1.9,1.4-2.5,2.2
		c-5.5,7.5-5.1,9.4,3.4,12.7C117.5,248.6,122.8,252.5,130,252.7z"/>
	<path class="st5" d="M419,73.7c0,2.8,0,5.8,0,8.6c-10.7-2.1-21.5-0.6-31.9-1.3c1.3-11.4,1.6-22.5,0.4-34c3.2,0,6.8,0,10.4,0
		c-1.3,8.1-1.3,16.1-1.2,24.2c0,1.5-0.1,3.5,2,3.4C405.3,74.4,412.2,76.1,419,73.7z"/>
	<path class="st4" d="M187,122.9c2.8-2.1,5.5-4.2,8.1-6.2c4,7.5,9.8,13.6,14.6,20.3c0.8,1.2,1.9,1.9,3.2,0.8
		c5.1-4.3,11.3-7.3,15.5-13.5c1.8,2.2,3.6,4.5,5.4,6.9c-10,5.3-17.6,13.4-26.2,18.8C201.8,140.1,194.8,131.4,187,122.9z"/>
	<path class="st5" d="M440.6,49.8c-3.4,8.2-3,16.6-4.6,24.7c-0.3,1.3-0.1,2.7,1.6,2.9c6.7,0.5,13.2,3,20.2,1.8
		c0.4,2.9-0.3,5.5-1,8.3c-10.4-3.4-21.2-3.2-31.4-5.5c2.8-11.1,4.1-22.1,5-33.5C433.5,48.8,437,49.3,440.6,49.8z"/>
	<path class="st4" d="M79.8,483.3c-1.1-3.4-2.3-7.3-3.4-10.4c13.5-3.5,26.5-7.6,39.4-12.9c1,3.2,2.3,7,3.3,10.3
		C105.9,473.9,93,477.8,79.8,483.3z"/>
	<path class="st6" d="M361.9,49.3c4.9-1.2,8.6-1.6,11.9-1.4c-0.2,10.8,0.7,21.1,2.6,31.4c0.1,0.7,1.9,1.4,0.6,1.8
		c-2.8,0.8-5.9,1.4-8.8,1.3c-3.3-0.2-1.2-2.9-1.3-4.4c-0.7-7.9-1.4-15.7-2-23.6C364.8,52.5,364.6,50.7,361.9,49.3z"/>
	<path class="st5" d="M337.7,703.1c2.7-8.9,3.4-18,4.4-27c0.4-3.9,0.8-5.5,5-4c1.7,0.6,3.7,0.6,5.5,0.8c-1.4,8.6-3.3,16.9-3.8,25.3
		c-0.4,6.2-2.7,7.1-7.8,5.4C339.8,703.2,338.5,703.2,337.7,703.1z"/>
	<path class="st5" d="M471.6,55.4c3.3,0.8,6.7,1.7,9.6,2.4c-3.5,10.7-6,21.4-8.2,32.7c0.5-0.1-0.1,0.2-0.6,0.1
		c-2.9-0.6-5.8-1.4-8.7-2.1c0.7-2.5,1.6-4.9,2.2-7.5C467.9,72.6,470.6,64.4,471.6,55.4z"/>
	<path class="st5" d="M141.9,169c8.3,7.9,16.9,14.9,27,21c-1.9,2.5-4.3,5.5-6.4,8.2c-8.1-8.2-17.1-14.8-26.8-21.2
		C137.5,174.7,139.7,171.9,141.9,169z"/>
	<path class="st7" d="M713.1,623.1c16.6,0,29,12.7,28.9,29.5c-0.1,16.7-12.7,29.7-29,29.8c-16.4,0.1-29.3-13.2-29.3-30.2
		C683.8,635.7,696.4,623.1,713.1,623.1z"/>
	<path class="st0" d="M397.9,446.8c79.1,0,158.3,0.1,237.4-0.2c6.5,0,6.8,1.7,5,7.1C606.3,554.5,537,615.5,432,631.5
		c-78.1,11.9-147.4-11.6-206-64.9c-33.7-30.8-56.9-68.5-70.2-112.2c-2.3-7.6-2.3-7.6,5.3-7.6C240.1,446.8,319,446.8,397.9,446.8z"/>
	<path class="st0" d="M641.7,316c-162.5,0-325,0-487.5,0c23.4-95.9,116.5-187.8,244.5-187.4C527.4,129,619.1,222.1,641.7,316z"/>
	<path class="st8" d="M397.9,440.3c-79.6,0-159.1,0-238.7,0.1c-5.2,0-7.6-0.9-8.8-6.8c-7.1-35.3-7-70.4,0.3-105.5
		c0.9-4.2,2.3-5.5,6.6-5.5c160.4,0.1,320.9,0.1,481.3,0c4.3,0,5.7,1.2,6.6,5.5c7.3,35.2,7.4,70.3,0.2,105.6
		c-1.1,5.2-2.6,6.9-8.2,6.9C557.5,440.2,477.7,440.3,397.9,440.3z"/>
	<path class="st9" d="M298.4,82.1c0,5.5-2.6,8.6-6.7,10.7c-12.8,6.9-13.2,6.7-18.2-6.5c-0.2-0.6-0.5-1.2-0.6-1.8
		c-0.9-4.1-6.1-9.4-2.7-11.7c5.4-3.7,12.3-7.8,19.7-4.8C296.1,70.6,297.6,76.6,298.4,82.1z"/>
	<path class="st10" d="M630.1,143.6c0.8,0.8,1.5,1.3,2.1,1.9c3.2,3.5,6.4,6.9,9.5,10.4c1.8,2,1.9,4.3,0.1,6.4
		c-1.7,2.1-4.4,2.8-6.3,1.2c-4.2-3.6-7.9-7.8-11.8-11.7c-1-1-0.5-1.9,0.3-2.7C626,147.2,628.1,145.4,630.1,143.6z"/>
	<path class="st11" d="M129.2,200c3.6,0.2,4.9,2,3.5,4.7c-1.8,3.8-4.2,7.4-6.4,11c-1.1,1.9-2.5,1.4-3.7,0.3c-1.1-1-4-1.1-2.8-3.3
		c2.2-4.1,4.9-7.9,7.6-11.8C127.8,200.3,128.8,200.1,129.2,200z"/>
	<path class="st12" d="M330.3,68c-2.9,0.6-4.1,0-4-2c0.1-1.7-1.9-4.2,0.9-5c4.3-1.2,8.7-1.9,13.1-2.6c1.9-0.3,3.3,1,3.7,2.8
		c0.5,2-0.8,3.4-2.4,3.9C337.5,66.4,333.3,67.3,330.3,68z"/>
	<path class="st13" d="M381.5,700.7c-4.3-0.5-9.1,1.7-7.8-5c0.4-1.8,1-2.6,2.9-2.5c3,0.3,6,0.4,9,0.7c2,0.2,4,0.9,3.9,3.4
		c-0.1,2.4-1.8,3.2-3.9,3.3C383.8,700.8,382.1,700.7,381.5,700.7z"/>
	<path class="st11" d="M380.1,681.6c2.8,1.4,8.2-1.1,7.8,3.2c-0.4,4.1-5.5,2.5-8.5,2.1c-1.9-0.2-5.9,1.6-5.3-3
		C374.7,679.5,378.2,682.6,380.1,681.6z"/>
	<path class="st13" d="M668,202.4c-0.9,2.4-2.7,5.2-5.4,2.6c-3.3-3.2-5.7-7.4-8.3-11.3c-0.9-1.4,0.1-2.4,1.3-3
		c1.3-0.6,2.1-2.3,3.8-1.8C660.5,189.2,668,201,668,202.4z"/>
	<path class="st0" d="M84.7,392.6c-1.9-0.1-6.6,2.3-8.1-0.7c-1.8-3.8-1.3-8.8,0-13.1c1.3-4.5,5.2-6,9.5-6.1c4.3-0.1,8.1,1.1,9.9,5.5
		c1.5,3.8,1.2,7.9,1.2,12c0,2.1-1.2,2.5-2.9,2.5C91.6,392.6,88.8,392.6,84.7,392.6z"/>
	<path class="st9" d="M695.5,299.7c-5.8-0.1-13.7-8.9-11.1-15.1c2.5-6,11.4-6.4,17.2-6.4c5.9,0,4.8,7.7,5.3,12.2
		C707.6,295.8,702.2,299.7,695.5,299.7z"/>
	<path class="st14" d="M475.2,671.1c2.8-0.2,5,0.8,4.3,2.9c-1.7,5.1-7,3.8-10.8,5.1c-2.9,1-3.4-2.1-3-3.5
		C467.3,670.7,472.7,673.2,475.2,671.1z"/>
	<path class="st9" d="M690.2,243c0.2,5.8-5.1,11.2-11,11.3c-5.8,0.1-11.7-6.1-11.9-12.3c-0.1-5.9,4.9-11,11.1-11.1
		C684.6,230.8,690,236.3,690.2,243z"/>
	<path class="st15" d="M549.3,658.1c-4.4,0.1-8.7-4.1-8.7-8.5c0-4.6,5.3-9.5,10.4-9.5c5.1,0,7.9,3.1,8.7,7.8
		C560.3,652.6,554.6,658,549.3,658.1z"/>
	<path class="st16" d="M170,153.2c3.3,0.9,5.4,1.4,7.4,2c1,0.3,1.9,0.8,3.2,1.4c-2.1,2.3-4.1,6.2-6.4,5.6
		C171.4,161.5,171.8,157,170,153.2z"/>
	<path class="st17" d="M238,640.6c-0.5,4.4-0.9,7.5-1.3,10.7c-0.1,1-0.6,1.9-1,3.3c-2.9-1.6-5.4-3.1-8-4.5c0.5-2.4,2.7-3.2,4.2-4.5
		C233.4,644.1,235.1,642.9,238,640.6z"/>
	<path class="st1" d="M736.4,652.9c-0.1,13.6-10.9,24.8-23.6,24.5c-12.9-0.2-23.3-11.5-23.2-25.1c0.1-13.5,10.9-24.6,23.7-24.5
		C726.2,628,736.5,639.2,736.4,652.9z"/>
	<path class="st1" d="M250.5,380.1c7,3.5,9,8,7.4,16.8c-1.2,6.5-5.3,9.8-11.6,9.9c-17.8,0.3-35.7,0.3-53.5,0.5c-2.6,0-3.3-1-3.3-3.4
		c0.1-15.7,0.1-31.4,0-47.1c0-2.7,1.1-3.1,3.5-3.1c16.3,0.1,32.7-0.1,49,0.2c5.7,0.1,11.2,1.8,13.4,8.1
		C257.8,368.7,256.2,374.9,250.5,380.1z"/>
	<path class="st1" d="M565.3,353.7c8.2,0,16.3-0.2,24.5,0.1c12.1,0.4,17.6,6.1,17.8,18.1c0.1,6.2,0.2,12.5-0.1,18.7
		c-0.5,10.4-5.1,15.4-15.5,16.2c-17.6,1.3-35.2,0.2-52.9,0.6c-3.4,0.1-3.7-1.7-3.7-4.4c0.1-14.8,0.1-29.7,0-44.5
		c0-3.6,0.9-4.9,4.6-4.7C548.5,353.8,556.9,353.6,565.3,353.7z"/>
	<path class="st1" d="M459.9,407.6c-7.9-0.2-15.9,1-23.8-0.9c-8.4-2-12.7-6.8-13-15.3c-0.2-7.3-0.2-14.6,0-21.9
		c0.3-9.3,5.2-15,14.5-15.9c14.6-1.4,29.2-1.3,43.8,0c9.4,0.8,14.3,6.1,14.9,15.6c0.5,7.3,0.4,14.6,0,21.9
		c-0.6,9.7-4.9,14.1-14.6,16c-1.1,0.2-2.1,0.5-3.2,0.5C472.4,407.7,466.1,407.6,459.9,407.6z"/>
	<path class="st1" d="M406.9,386.3c5.1,3.6,8.2,13.8,6,19.3c-0.7,1.6-1.8,1.6-3.1,1.6c-1.7,0-3.5-0.2-5.2,0.1
		c-5.6,0.8-9-0.3-8.3-7.2c0.5-4.7-2.2-6.9-7.2-6.7c-6.4,0.3-12.9,0.4-19.3,0c-4.7-0.3-5.9,1.4-5.6,5.8c0.2,2.6,1.6,6.9-1.2,7.6
		c-4.4,1.1-9.3,0.4-14,0c-1.4-0.1-1-2.2-1-3.4c0-15.3,0.1-30.5-0.1-45.8c0-3.1,0.9-4,4-4c15.9,0.1,31.8-0.1,47.7,0.1
		c8.3,0.1,12.6,4.3,13.5,12.5C414.4,376.7,413.1,380.8,406.9,386.3z"/>
	<path class="st1" d="M262.3,407.2c7.6-14.1,15.4-26.9,21.5-40.4c4.7-10.3,10.7-15,22.3-13.4c4.9,0.7,7.9,1.6,10.3,6.2
		c8.2,15.7,16.9,31.1,26,47.6c-6,0-11-0.1-16.1,0c-3.6,0.1-4.2-2.7-5.1-4.9c-1.6-3.7-4-4.9-7.9-4.7c-7.7,0.3-15.4,0.1-23.2,0.1
		c-2.4,0-4.9-0.2-5.7,2.8c-1.6,6.3-6,7.4-11.7,6.7C269.8,406.9,266.8,407.2,262.3,407.2z"/>
	<path class="st1" d="M523.7,380.6c0,7.1-0.2,14.2,0.1,21.2c0.2,4-0.7,5.6-5.1,5.5c-11.7-0.1-11.7,0.1-11.7-11.7
		c0-12.2,0.2-24.4-0.1-36.7c-0.1-4,0.7-5.5,5.2-5.4c11.7,0.2,11.7,0,11.7,11.6C523.7,370.3,523.7,375.4,523.7,380.6z"/>
	<path class="st18" d="M725.7,669.2c-4.3,1.7-6.5,0.3-7.1-4.1c-0.2-1.7-0.6-3.4-1.1-5c-1.2-3.8-4.3-4.7-7.7-4.3
		c-3.9,0.4-1.8,3.6-2.1,5.6c-0.3,1.9-0.1,3.9-0.1,5.8c0,1.8-0.6,2.7-2.6,2.7c-2.2,0.1-3.1-0.6-3.1-2.9c0.1-9.2,0-18.5,0-27.7
		c0-1.4,0.3-2.7,2-2.8c5.5-0.5,11.2-1.4,16.5,1.2c4.7,2.3,6.5,9,2.7,12.5c-3.3,3-1.7,4.5-0.5,7.4
		C724.3,661.2,724.8,665.3,725.7,669.2z"/>
	<path class="st8" d="M223,393.9c-4.1,0-8.1-0.1-12.2,0c-2.9,0.1-4.7-0.1-4.7-3.9c0-3.6,1.4-4.2,4.5-4.1c7.9,0.2,15.9,0,23.8,0.1
		c3.1,0,6.6,0.3,6.5,4.4c-0.1,3.9-3.5,3.5-6.3,3.6C230.7,393.9,226.9,393.9,223,393.9z"/>
	<path class="st7" d="M222.4,374.5c-3.8,0-7.7-0.1-11.5,0c-2.9,0.1-4.7-0.1-4.7-3.9c0-3.6,1.3-4.2,4.5-4.1
		c7.7,0.2,15.4,0.1,23.1,0.1c3,0,5.9,0.6,5.8,4.3c-0.1,3.5-2.9,3.7-5.6,3.6C230,374.5,226.2,374.5,222.4,374.5z"/>
	<path class="st8" d="M568.1,393c-4.3-0.5-11.2,2.3-14.6-1c-3.5-3.3-1-10.2-1.1-15.5c-0.2-9.3-0.1-9.3,9-9.3c7.1,0,14.2,0,21.2,0
		c5.5,0.1,8,2.9,8.2,8.4c0.7,16.5,0,17.3-16.7,17.3C572.5,393,570.7,393,568.1,393z"/>
	<path class="st8" d="M459.5,393.7c-2.8,0-5.6,0-8.4,0c-9.1,0-11-1.9-11.1-10.8c0-2.1,0-4.3,0-6.4c0-6,3.1-9.3,8.9-9.5
		c7.1-0.3,14.2-0.3,21.2,0c5.4,0.2,8.9,2.8,9,8.7c0,0.9,0.3,1.7,0.3,2.6c0.1,16.1-2.1,15.9-14.2,15.5
		C463.4,393.6,461.4,393.7,459.5,393.7z"/>
	<path class="st19" d="M379.4,379.7c-2.8,0-5.6-0.4-8.3,0.1c-6,1-7-1.7-6.9-7.1c0.1-4.6,1.6-5.8,5.9-5.6c6.8,0.3,13.7,0.1,20.5,0.1
		c4.4,0,6.8,1.7,6.7,6.4c-0.1,4.8-2.7,6.3-7,6.1C386.7,379.6,383,379.7,379.4,379.7z"/>
	<path class="st19" d="M312.3,385.7c-6.9,0-13,0-19.9,0c3.1-6.1,6-11.9,9.7-19C305.7,373.4,308.8,379.3,312.3,385.7z"/>
	<path class="st20" d="M707.6,646c0-3.1-0.7-6.3,3.9-5.7c3.6,0.4,7.2,0.9,7.2,5.5c0,5.1-4.1,5.3-7.7,5.7
		C706,651.9,708.1,648,707.6,646z"/>
</g>
</svg>
