<?xml version="1.0" encoding="utf-8"?>
<!-- Generator: Adobe Illustrator 28.0.0, SVG Export Plug-In . SVG Version: 6.00 Build 0)  -->
<svg version="1.1" id="Capa_1" xmlns="http://www.w3.org/2000/svg" xmlns:xlink="http://www.w3.org/1999/xlink" x="0px" y="0px"
	 viewBox="0 0 627 196" style="enable-background:new 0 0 627 196;" xml:space="preserve">
<style type="text/css">
	.st0{fill:#931914;}
	.st1{fill:#FFFFFF;}
	.st2{fill:none;stroke:#FFFFFF;stroke-width:1.3878;stroke-miterlimit:10;}
</style>
<g>
	<rect x="33.1" y="28.2" class="st0" width="558.9" height="139.1"/>
	<g>
		<path class="st1" d="M102.6,88c0-3.6,1.1-6.1,3.4-7.3c2.3-1.3,6-1.9,11.2-1.9c4.2,0,8.5,0.2,13,0.7V65.6
			c-7.1-0.8-14.4-1.3-21.7-1.3c-10,0-18.2,0.9-24.8,2.8c-6.5,1.9-11,4.2-13.4,7.2c-2.4,2.9-3.6,7.4-3.6,13.4v5.3h-20v14.8h20v56.2
			h35.9v-56.2h26.9V93.1h-26.9V88z"/>
		<path class="st1" d="M178.2,114.2h-36.7c3.7-6.9,10.9-14.5,20-17.8c9.1-3.3,22.6-4.9,40.4-4.9c16.2,0,28.3,1,36.3,3
			c7.9,2,13.5,4.5,16.8,7.6c3.2,3.1,4.9,8.7,4.9,16.8l-0.4,21.9c0,6.2,0.6,10.8,1.7,13.8c1.2,3,3.3,6.1,6.5,9.5h-36
			c-1-1.2-2.1-3.1-3.5-5.5c-0.6-1.1-1-1.8-1.3-2.2c-6.2,3.1-12.9,5.5-20,7c-7.1,1.6-14.6,2.3-22.7,2.3c-14.2,0-25.3-2-33.5-5.9
			c-8.2-4-12.2-9-12.2-15c0-4,1.9-7.6,5.6-10.7c3.7-3.1,8.9-5.5,15.6-7.2c6.7-1.7,16.4-3.1,29-4.4c17-1.6,28.8-3.2,35.4-4.6v-1.9
			c0-3.6-1.7-6.2-5.2-7.7c-3.5-1.5-10-2.3-19.6-2.3c-6.5,0-11.5,0.7-15.2,2C180.5,109.1,179.4,110.4,178.2,114.2z M224.1,130
			c-4.7,0.8-12.1,1.8-22.2,2.9c-10.1,1.1-16.7,2.2-19.8,3.3c-4.8,1.7-7.1,3.9-7.1,6.6c0,2.6,1.9,4.9,5.7,6.8
			c3.8,1.9,8.6,2.9,14.5,2.9c6.6,0,12.8-1.1,18.8-3.3c4.4-1.7,7.3-3.8,8.7-6.2c0.9-1.6,1.4-4.7,1.4-9.2V130z"/>
		<path class="st1" d="M409.4,164.1h-35.6v-36.2c0-7.7-0.8-12.6-2.3-14.9c-1.5-2.3-4-4-7.4-5.2c-3.4-1.2-7.5-1.9-12.3-1.9
			c-6.2,0-11.7,0.9-16.6,2.7c-4.9,1.8-8.2,4.1-10.1,7.1c-1.8,2.9-2.7,8.4-2.7,16.3v32.2H287v-71h33v10.4c11.7-8,26.5-12,44.3-12
			c7.8,0,15,0.7,21.5,2.2c6.5,1.5,11.4,3.4,14.7,5.7c3.3,2.3,5.6,4.9,7,7.9c1.3,2.9,2,7.2,2,12.6V164.1z"/>
		<path class="st1" d="M559.4,164.1h-35.8v-36.2c0-7.7-0.8-12.6-2.3-14.9c-1.5-2.3-4-4-7.4-5.2c-3.4-1.2-7.6-1.9-12.4-1.9
			c-6.2,0-11.7,0.9-16.7,2.7c-4.9,1.8-8.3,4.1-10.1,7.1c-1.8,2.9-2.7,8.4-2.7,16.3v32.2h-35.8v-71h33.2v10.4c11.8-8,26.6-12,44.5-12
			c7.9,0,15.1,0.7,21.6,2.2c6.5,1.5,11.5,3.4,14.8,5.7c3.3,2.3,5.7,4.9,7,7.9c1.3,2.9,2,7.2,2,12.6V164.1z"/>
	</g>
	<g>
		<circle class="st2" cx="571.2" cy="85.9" r="11.9"/>
		<g>
			<path class="st1" d="M565.6,92.4v-14h6.2c1.2,0,2.2,0.1,2.8,0.4c0.6,0.3,1.2,0.7,1.6,1.3c0.4,0.6,0.6,1.3,0.6,2.1
				c0,1-0.3,1.8-1,2.5c-0.6,0.7-1.6,1.1-3,1.3c0.5,0.2,0.9,0.5,1.1,0.7c0.5,0.5,1.1,1.1,1.5,1.9l2.4,3.8h-2.3l-1.8-2.9
				c-0.5-0.8-1-1.5-1.3-1.9c-0.3-0.4-0.7-0.8-0.9-0.9c-0.3-0.2-0.6-0.3-0.8-0.4c-0.2,0-0.6-0.1-1-0.1h-2.1v6.2H565.6z M567.5,84.6h4
				c0.8,0,1.5-0.1,2-0.3c0.5-0.2,0.8-0.5,1.1-0.8c0.2-0.4,0.4-0.8,0.4-1.3c0-0.7-0.2-1.2-0.7-1.6c-0.5-0.4-1.2-0.6-2.3-0.6h-4.4
				V84.6z"/>
		</g>
	</g>
</g>
</svg>
