<?xml version="1.0" encoding="utf-8"?>
<!-- Generator: Adobe Illustrator 28.0.0, SVG Export Plug-In . SVG Version: 6.00 Build 0)  -->
<svg version="1.1" id="Capa_1" xmlns="http://www.w3.org/2000/svg" xmlns:xlink="http://www.w3.org/1999/xlink" x="0px" y="0px"
	 viewBox="0 0 627 196" style="enable-background:new 0 0 627 196;" xml:space="preserve">
<style type="text/css">
	.st0{fill:#F7941F;}
</style>
<g>
	<path class="st0" d="M128,143.8c-19.7,20.5-51.7,20.5-71.4,0c-19.7-20.5-19.7-53.8,0-74.3l33.6-35c1.4-1.5,3.8-1.7,5.3-0.3l2.9,2.9
		l-37,38.4c-16.8,17.5-16.8,46.1,0,63.6c8.4,8.8,19.5,13.2,30.6,13.2c11.1,0,22.1-4.4,30.6-13.2c16.8-17.5,17.8-44.1,1-61.6
		l-5.7-6.3l2.3-2.6c1.6-1.8,4.3-1.9,6-0.2l2.2,2.3c9.6,10,14.4,21.5,14.5,35.7C142.8,120.6,137.6,133.9,128,143.8 M138.5,58.6
		l-15-15.7L87.5,81l5.9,6.3c2.4,2.6,6.5,2.7,9,0.1l5.2-5.3l4.6,4.4c11,11.5,10.9,30.1-0.1,41.6c-11,11.5-29,11.5-40.1,0
		c-11-11.5-11-30.2,0-41.7l47-48.9l-10.5-10.9l-0.1,0.1l-6.4-6.6l0,0c-5.2-5.4-13.7-5.4-18.9,0L46.1,58.6
		c-25.5,26.5-25.5,69.7,0,96.2c12.7,13.3,29.5,19.9,46.2,19.9c16.7,0,33.5-6.6,46.2-19.9C164,128.3,164,85.1,138.5,58.6"/>
	<path class="st0" d="M196.7,96.2h25.1c4.1,0,7.5-1.2,10-3.6c2.5-2.4,3.8-5.6,3.8-9.4c0-4-1.3-7.3-3.8-9.7c-2.5-2.4-5.8-3.6-10-3.6
		h-25.1V96.2z M177.5,149V52.8h46.3c6.1,0,11.4,1.3,16.1,3.9c4.7,2.6,8.3,6.2,10.9,10.7c2.6,4.5,3.9,9.7,3.9,15.6
		c0,5.7-1.3,10.8-3.9,15.3c-2.6,4.5-6.3,8-11,10.6c-4.7,2.6-10.1,3.8-16,3.8h-27.2V149H177.5z"/>
	<path class="st0" d="M277.5,106.1H311c-0.7-2.8-1.9-5.3-3.5-7.5c-1.6-2.2-3.6-3.8-5.9-5c-2.3-1.2-4.8-1.8-7.4-1.8
		c-2.8,0-5.4,0.6-7.7,1.7c-2.3,1.1-4.2,2.8-5.7,4.9C279.3,100.6,278.2,103.2,277.5,106.1 M296.1,150.4c-6.9,0-13.1-1.7-18.7-5
		c-5.6-3.3-10-7.8-13.3-13.3c-3.3-5.5-4.9-11.8-4.9-18.8c0-6.9,1.6-13.1,4.7-18.8c3.1-5.6,7.4-10.1,12.7-13.4
		c5.4-3.3,11.3-4.9,17.8-4.9c6.6,0,12.5,1.7,17.6,5c5.2,3.3,9.2,7.9,12.1,13.7c3,5.8,4.4,12.4,4.4,19.8v4.9h-51
		c0.8,2.8,2.1,5.4,4,7.7c1.8,2.3,4.1,4.1,6.7,5.3c2.6,1.2,5.5,1.9,8.6,1.9c3,0,5.8-0.5,8.5-1.4c2.6-1,4.9-2.4,6.7-4.2l11.9,11.3
		c-4.2,3.6-8.6,6.2-13,7.8C306.6,149.5,301.6,150.4,296.1,150.4"/>
	<polygon class="st0" points="331.1,149 357.5,112.6 331.7,77.4 352.7,77.4 367.9,98.7 383,77.4 403.3,77.4 378,112.3 404.8,149 
		383.8,149 367.5,126.2 351.4,149 	"/>
	<path class="st0" d="M445,133.5c3.3,0,6.2-0.6,9-1.7c2.7-1.1,5.1-2.8,7-4.9V99c-2-2.1-4.4-3.7-7.1-4.8c-2.7-1.1-5.7-1.7-8.8-1.7
		c-3.8,0-7.2,0.9-10.2,2.7c-3,1.8-5.4,4.2-7.1,7.3c-1.8,3.1-2.6,6.5-2.6,10.2c0,3.9,0.9,7.5,2.6,10.6c1.7,3.1,4.1,5.6,7.1,7.4
		C437.8,132.5,441.2,133.5,445,133.5 M445.2,178.4c-5.4,0-10.5-0.6-15.4-1.7c-4.9-1.1-9.4-2.8-13.5-4.9l6.3-14.6
		c3.9,1.9,7.6,3.4,11.2,4.3c3.6,1,7.3,1.4,11,1.4c5.3,0,9.3-1.2,12.1-3.6c2.8-2.4,4.2-6,4.2-10.8v-5.6c-5.6,4.2-11.9,6.3-18.9,6.3
		c-6.4,0-12.3-1.6-17.6-4.9c-5.3-3.2-9.5-7.6-12.6-13.2c-3.1-5.5-4.6-11.7-4.6-18.5c0-6.8,1.6-12.9,4.7-18.4
		c3.1-5.5,7.4-9.8,12.7-13.1c5.4-3.2,11.4-4.8,18.1-4.8c3.3,0,6.5,0.5,9.6,1.4c3.2,1,6.1,2.4,8.7,4.2v-4.7h18v71.5
		c0,9.4-2.9,16.7-8.8,21.8C464.5,175.8,456.1,178.4,445.2,178.4"/>
	<path class="st0" d="M525.4,134c3.6,0,6.9-0.9,9.8-2.8c2.9-1.9,5.2-4.4,6.9-7.5c1.7-3.1,2.5-6.6,2.5-10.6c0-3.8-0.9-7.3-2.6-10.4
		c-1.7-3.1-4-5.6-6.9-7.4c-2.9-1.8-6.1-2.7-9.6-2.7c-3.6,0-6.9,0.9-9.8,2.7c-2.9,1.8-5.2,4.3-6.9,7.4c-1.7,3.1-2.5,6.6-2.5,10.4
		c0,3.9,0.8,7.5,2.5,10.6c1.7,3.1,3.9,5.6,6.8,7.5C518.6,133.1,521.8,134,525.4,134 M525.4,150.4c-6.9,0-13.1-1.7-18.6-4.9
		c-5.5-3.3-9.9-7.8-13.2-13.4c-3.3-5.6-4.9-11.9-4.9-18.8c0-7,1.6-13.3,4.9-18.9c3.3-5.6,7.7-10.1,13.2-13.3
		c5.5-3.3,11.8-4.9,18.6-4.9c6.9,0,13.1,1.6,18.6,4.9c5.5,3.3,9.9,7.7,13.2,13.3c3.3,5.6,4.9,11.9,4.9,18.9c0,6.9-1.6,13.1-4.8,18.8
		c-3.2,5.6-7.6,10.1-13.1,13.4C538.6,148.7,532.4,150.4,525.4,150.4"/>
	<polygon class="st0" points="571.9,149 571.9,52.8 590,49.6 590,149 	"/>
</g>
</svg>
