<?xml version="1.0" encoding="utf-8"?>
<!-- Generator: Adobe Illustrator 28.0.0, SVG Export Plug-In . SVG Version: 6.00 Build 0)  -->
<svg version="1.1" id="Capa_1" xmlns="http://www.w3.org/2000/svg" xmlns:xlink="http://www.w3.org/1999/xlink" x="0px" y="0px"
	 viewBox="0 0 548.6 267.4" style="enable-background:new 0 0 548.6 267.4;" xml:space="preserve">
<style type="text/css">
	.st0{fill:#202A4C;}
	.st1{fill:#95A5AF;}
	.st2{fill:#36B4A3;}
</style>
<path class="st0" d="M191.4,68.7H169l11.2-37.5L191.4,68.7z M214.8,101l-22.4-74.7l-12.2,0.1l-12.2-0.1L145.7,101h13.7l6.2-20.9
	h29.1L201,101H214.8z M256.9,75.2c0,8.9-7.1,16.1-15.9,16.1c-8.7,0-15.9-7.2-15.9-16.1c0-8.9,7.1-16.1,15.9-16.1
	C249.8,59.1,256.9,66.4,256.9,75.2 M268.4,75.2c0-15.3-12.3-27.8-27.4-27.8c-15.1,0-27.4,12.5-27.4,27.8c0,13.6,9.7,25,22.5,27.3
	c0,0,0,0,0,0c0.4,1.2,0.9,2.4,1.4,3.5c0,0,0,0,0,0.1c0.2,0.5,0.5,0.9,0.7,1.3c0.1,0.2,0.2,0.3,0.3,0.5c0.3,0.4,0.5,0.8,0.8,1.2
	c0.1,0.2,0.3,0.3,0.4,0.5c0.3,0.4,0.6,0.8,0.9,1.1c0.1,0.1,0.2,0.3,0.4,0.4c0.6,0.6,1.2,1.3,1.8,1.8c0.2,0.2,0.4,0.4,0.6,0.6
	c0.3,0.2,0.6,0.5,0.9,0.7c0.3,0.2,0.5,0.4,0.8,0.6c0.3,0.2,0.6,0.4,0.9,0.6c0.3,0.2,0.7,0.4,1,0.6c0.3,0.2,0.5,0.3,0.8,0.5
	c0.5,0.3,1,0.5,1.5,0.8c0.2,0.1,0.4,0.2,0.6,0.3c0.6,0.2,1.1,0.5,1.7,0.6c0.2,0.1,0.5,0.1,0.7,0.2c0.5,0.1,0.9,0.3,1.4,0.4
	c0.3,0.1,0.5,0.1,0.8,0.2c0.5,0.1,1,0.2,1.5,0.2c0.2,0,0.5,0.1,0.7,0.1c0.7,0.1,1.5,0.1,2.3,0.1v-11.6c-0.5,0-1,0-1.5-0.1
	c-0.2,0-0.3-0.1-0.4-0.1c-0.4-0.1-0.7-0.1-1-0.2c-0.2,0-0.3-0.1-0.5-0.1c-0.4-0.1-0.7-0.2-1.1-0.4c-0.1,0-0.2-0.1-0.3-0.1
	c-0.5-0.2-0.9-0.4-1.3-0.6c0,0,0,0,0,0c-0.4-0.2-0.8-0.5-1.2-0.8c-0.1-0.1-0.2-0.1-0.2-0.2c-0.3-0.2-0.6-0.5-0.9-0.8
	c-0.1-0.1-0.1-0.1-0.2-0.2c-0.3-0.3-0.7-0.7-1-1c0,0,0,0,0,0c-0.3-0.4-0.6-0.8-0.9-1.3C260,98.6,268.4,87.9,268.4,75.2 M307.4,101
	h11.8V50.2h-12.7V84c0,0-3.4,6.2-9.9,6.2c-6.4,0-9.9-3.2-9.9-10.7V50.2h-12.7v32.9c0,12.2,8.8,19.2,18.4,19.2c10.2,0,15-8.7,15-8.7
	V101z M362,70.9h-24.8c0.4-4.5,4.1-10.3,12.2-10.3C357.8,60.6,361.8,66.5,362,70.9 M374.6,80.2c0.1-1.9,0.1-3.9,0.1-4.8
	c0-15.6-11.5-26.5-25.2-26.5c-14.5,0-25.1,11.8-25.1,26.7c0,14.9,11.7,26.7,26.9,26.7c12.1,0,20.1-7.3,20.1-7.3l-6.3-9.6
	c0,0-5,5.1-13.7,5.1c-7.9,0-13.1-5.8-14-10.3H374.6z M392.2,65c0-3.1,4.3-4.8,9.1-4.8c6.8,0,12.5,4.4,12.5,4.4l6.3-9.4
	c0,0-7.5-6.2-18.8-6.2c-13.7,0-21.5,7.9-21.5,15.9c0,9.6,8.7,13.9,18.6,16.1c7.6,1.6,9.9,2.2,9.9,5.6c0,3.1-4.3,4.6-9.5,4.6
	c-8.4,0-15.1-7.3-15.1-7.3l-7.1,9.3c0,0,7.9,9.2,22.6,9.2c12.8,0,21.9-7,21.9-15.6c0-10.5-7.1-13.8-17-16
	C395.6,68.8,392.2,68.1,392.2,65 M447.1,82.2V61.7h12.3c0.4,0,0.8,0.1,1.3,0.1v-0.1h1.5V50.2h-2.9c-6.4-0.7-11.5-6.3-11.5-13h-11.4
	c0,4.8,1.4,9.2,3.7,13h-5.7h-9.8v11.6h9.8v22.5c0,10.8,7.4,18,17.1,18c7.3,0,12-3.3,12-3.3l-4.6-10.5c0,0-2.4,1.8-5.3,1.8
	C450.3,90.3,447.1,88.4,447.1,82.2 M470.3,101H483V50.2h-12.7V101z M522.6,85.7c0,0-4,5.9-11.6,5.9c-3.9,0-9.1-1.2-9.1-6.5
	c0-5.5,5.4-7.2,9.3-7.2c6.9,0,11.4,2.6,11.4,2.6V85.7z M535.3,101V67.9c0-11.6-8.4-19-22.8-19c-10.5,0-19.7,4.6-19.7,4.6l4.1,10.6
	c0,0,7.7-3.8,15-3.8c4.4,0,10.8,2.1,10.8,8.8V72c0,0-4.8-3.6-13.9-3.6c-10.9,0-19.6,7.1-19.6,16.8c0,10.8,8.7,17,18.1,17
	c11.3,0,16.5-7.7,16.5-7.7v6.4H535.3z"/>
<path class="st1" d="M89.1,29.1h-15c0,0.5,0,0.9,0,1.3c0,28.7,18.9,53.1,44.9,61.3v-16c-17.5-7.5-29.9-25-29.9-45.3
	C89.1,30,89.1,29.5,89.1,29.1"/>
<path class="st0" d="M72.9,30c0-0.5,0-0.9,0-1.3h-15c0,0.4,0,0.9,0,1.3c0,20.6-12.7,38.2-30.6,45.6v16C53.6,83.5,72.9,59,72.9,30"/>
<rect x="27.9" y="90.8" class="st2" width="90.4" height="14.9"/>
<path class="st2" d="M225.9,230.8v-6.2c-6.8-2.9-11.6-9.7-11.6-17.5c0-0.2,0-0.4,0-0.5h-5.8h-0.1h-5.8c0,0.2,0,0.3,0,0.5
	c0,8-4.9,14.8-11.9,17.7v6.2c9.9-3,17.2-12,17.6-22.8C209,218.8,216.2,227.8,225.9,230.8 M225.9,234.3h-35v5.8h35V234.3z"/>
<path class="st0" d="M359.3,240.1h4.9v-24h7.9v-4.7h-20.7v4.7h7.9V240.1z M335.7,235.9c-5.8,0-9.5-4.6-9.5-10.2
	c0-5.5,3.7-10.2,9.5-10.2s9.5,4.6,9.5,10.2C345.2,231.3,341.5,235.9,335.7,235.9 M335.7,210.9c-8.4,0-14.5,6.4-14.5,14.9
	c0,8.5,6.1,14.9,14.5,14.9c8.4,0,14.5-6.4,14.5-14.9C350.2,217.2,344.1,210.9,335.7,210.9 M307.8,224.6h-3.9v-8.5h3.9
	c3.2,0,5.1,1.4,5.1,4.3C312.9,223.2,310.9,224.6,307.8,224.6 M299,240.1h4.9v-10.8h2.3l6.8,10.8h5.7l-7.2-11.2
	c4.1-1,6.4-4.3,6.4-8.6c0-5.2-3.8-8.9-9.5-8.9H299V240.1z M280.1,235.9c-5.8,0-9.5-4.6-9.5-10.2c0-5.5,3.7-10.2,9.5-10.2
	s9.5,4.6,9.5,10.2C289.6,231.3,285.8,235.9,280.1,235.9 M280.1,210.9c-8.4,0-14.5,6.4-14.5,14.9c0,8.5,6.1,14.9,14.5,14.9
	c8.4,0,14.5-6.4,14.5-14.9C294.6,217.2,288.4,210.9,280.1,210.9 M248.7,235.4h-4.4v-19.4h4.4c5.6,0,9.1,4.4,9.1,9.7
	C257.8,231,254.3,235.4,248.7,235.4 M248.6,211.4h-9.3v28.7h9.3c8.4,0,14.2-6.1,14.2-14.4C262.8,217.5,257,211.4,248.6,211.4"/>
<path class="st2" d="M59.5,231.3v-5.9c-6.8-2.8-11.6-9.2-11.6-16.6c0-0.2,0-0.3,0-0.5h-5.8h-0.1h-5.8c0,0.2,0,0.3,0,0.5
	c0,7.6-4.9,14-11.9,16.7v5.9c9.9-2.8,17.2-11.4,17.6-21.6C42.6,219.9,49.7,228.4,59.5,231.3 M59.5,234.7h-35v5.5h35V234.7z"/>
<path class="st0" d="M87.9,227.6h-8.7l4.3-14.5L87.9,227.6z M91.6,240.1h5.3l-8.7-28.9l-4.7,0l-4.7,0l-8.7,28.9h5.3l2.4-8.1h11.3
	L91.6,240.1z M100.6,240.1h4.9v-4.9h-4.9V240.1z M120.2,224.6h-3.9v-8.5h3.9c3.2,0,5.1,1.4,5.1,4.3
	C125.3,223.2,123.4,224.6,120.2,224.6 M131.1,240.1l-7.2-11.2c4.1-1,6.4-4.3,6.4-8.6c0-5.3-3.8-8.9-9.5-8.9h-9.4v28.7h4.9v-10.8h2.2
	l6.8,10.8H131.1z M135.9,240.1h4.9v-4.9h-4.9V240.1z M146.6,240.1h4.9v-28.7h-4.9V240.1z M162.9,235.2H158v4.9h4.9V235.2z"/>
<path class="st2" d="M435.1,230.8v-6.2c-6.8-2.9-11.6-9.7-11.6-17.5c0-0.2,0-0.4,0-0.5h-5.8h-0.1h-5.8c0,0.2,0,0.3,0,0.5
	c0,8-4.9,14.8-11.9,17.7v6.2c9.9-3,17.2-12,17.6-22.8C418.1,218.8,425.3,227.8,435.1,230.8 M435.1,234.3h-35v5.8h35V234.3z"/>
<path class="st0" d="M470.8,225.7c0,5.5-3.7,10.2-9.5,10.2c-5.8,0-9.5-4.6-9.5-10.2c0-5.5,3.7-10.2,9.5-10.2
	C467.1,215.6,470.8,220.2,470.8,225.7 M475.8,225.7c0-8.5-6.1-14.9-14.5-14.9c-8.4,0-14.5,6.4-14.5,14.9c0,8.5,6.1,14.9,14.5,14.9
	C469.7,240.6,475.8,234.2,475.8,225.7 M484.4,225.7c0-5.5,3.9-10.3,9.5-10.3c4.7,0,7.3,3.2,7.3,3.2l3.3-3.2c0,0-3.7-4.5-10.6-4.5
	c-8.3,0-14.5,6.4-14.5,14.9c0,8.5,6.3,14.9,14.5,14.9c7.2,0,11-4.9,11-4.9l-3.3-3.2c0,0-2.7,3.5-7.7,3.5
	C488.3,236,484.4,231.3,484.4,225.7 M533.7,211.4h-5.3l-8.1,27l-8.1-27h-5.3l8.7,28.9l4.7,0l4.7,0L533.7,211.4z"/>
<path class="st0" d="M293.6,145.6l6.6,15.5l5.2-12.4l5.1,12.4l6.6-15.5h-1.8l-4.8,11.7l-4.7-11.7h-1l-4.7,11.7l-4.8-11.7H293.6z
	 M282.6,159.2c-3.7,0-5.8-2.8-5.8-6.2c0-3.4,2.1-6.2,5.8-6.2c3.7,0,5.8,2.8,5.8,6.2C288.4,156.4,286.3,159.2,282.6,159.2
	 M282.6,145.2c-4.4,0-7.6,3.5-7.6,7.8c0,4.3,3.1,7.8,7.6,7.8c4.4,0,7.6-3.5,7.6-7.8C290.1,148.7,287,145.2,282.6,145.2 M267,160.4
	h1.7v-24.7H267L267,160.4z M249.4,139.2h10.8v-1.6h-12.5v22.8h1.7v-10.9h10.1v-1.6h-10.1V139.2z M217.5,152.1
	c0.1-1.6,1.4-5.3,5.6-5.3c3.9,0,5.4,3.6,5.4,5.3H217.5z M223.1,145.2c-4.4,0-7.3,3.6-7.3,7.8c0,4.2,3.2,7.8,7.6,7.8
	c2.4,0,4.8-1.3,6.2-3l-1.1-1.2c-1,1.3-2.8,2.5-5.1,2.5c-3.9,0-5.8-3.2-5.9-5.5h12.8c0-0.4,0-0.4,0-0.7
	C230.3,148.4,227,145.2,223.1,145.2 M199.5,148v-12.2h-1.7v24.7h1.7v-10.3c0,0,1.3-3.3,4.6-3.3c2.4,0,4.2,1.3,4.2,4.4v9.2h1.7v-9.5
	c0-4-2.8-5.8-5.6-5.8C200.9,145.2,199.5,148,199.5,148 M181.3,147.1h3.2v9.3c0,2.5,1.3,4.4,4.2,4.4c1.5,0,2.9-0.9,2.9-0.9l-0.7-1.5
	c0,0-1,0.7-2.2,0.7c-2,0-2.6-1.4-2.6-3.1v-9h5v-1.6h-5v-4.8h-1.7v4.8h-3.2V147.1z M162.9,155.7c0,0-1.5,3.5-5.4,3.5
	c-3.3,0-5.6-2.7-5.6-6.2c0-3.5,2.3-6.2,5.6-6.2c3.8,0,5.4,3.5,5.4,3.5V155.7z M163.1,145.6v2.7c0,0-1.6-3.1-5.5-3.1
	c-4.1,0-7.4,3.2-7.4,7.8s3.3,7.8,7.4,7.8c3.3,0,4.9-2.2,5.4-2.9v2.9c0,3.3-1.8,5.8-5.6,5.8c-3.8,0-5.7-2.6-5.7-2.6l-1.1,1.2
	c0,0,2.4,3,6.8,3c4.3,0,7.3-2.9,7.3-7.5v-15.2H163.1z M138.8,145.2c-3.7,0-5.1,3.1-5.1,3.1v-2.7h-1.5v14.9h1.7v-10.3
	c0,0,1.3-3.3,4.6-3.3c2.4,0,4.2,1.3,4.2,4.4v9.2h1.7v-9.5C144.4,146.9,141.6,145.2,138.8,145.2 M122.6,140.7c0,0.7,0.6,1.3,1.3,1.3
	c0.7,0,1.3-0.6,1.3-1.3c0-0.7-0.6-1.3-1.3-1.3C123.2,139.4,122.6,140,122.6,140.7 M123.1,160.4h1.7v-14.9h-1.7V160.4z M106.6,147.1
	h3.2v9.3c0,2.5,1.3,4.4,4.2,4.4c1.5,0,2.9-0.9,2.9-0.9l-0.6-1.5c0,0-1,0.7-2.2,0.7c-2,0-2.6-1.4-2.6-3.1v-9h5v-1.6h-5v-4.8h-1.7v4.8
	h-3.2V147.1z M96.6,159.2c-3.6,0-5.9-2.9-5.9-6.2c0-3.3,2.3-6.2,5.9-6.2c3.1,0,4.7,2.2,4.7,2.2l1.2-1.1c0,0-2-2.8-5.9-2.8
	c-4.4,0-7.7,3.5-7.7,7.8c0,4.3,3.2,7.8,7.7,7.8c4,0,6.1-3,6.1-3l-1.2-1.1C101.5,156.7,99.9,159.2,96.6,159.2 M71.6,152.1
	c0.1-1.6,1.4-5.3,5.6-5.3c3.9,0,5.4,3.6,5.4,5.3H71.6z M77.1,145.2c-4.4,0-7.3,3.6-7.3,7.8c0,4.2,3.2,7.8,7.6,7.8
	c2.4,0,4.8-1.3,6.2-3l-1.1-1.2c-1,1.3-2.8,2.5-5.1,2.5c-3.9,0-5.8-3.2-5.9-5.5h12.8c0-0.4,0-0.4,0-0.7
	C84.3,148.4,81.1,145.2,77.1,145.2 M64.3,145.2c-3.1,0-4.3,2.8-4.3,2.8v-2.4h-1.5v14.9h1.7v-10.7c0,0,1.2-2.9,3.8-2.9
	c1.4,0,2,0.4,2,0.4l0.7-1.6C66.6,145.6,65.7,145.2,64.3,145.2 M48.9,140.7c0,0.7,0.6,1.3,1.3,1.3c0.7,0,1.3-0.6,1.3-1.3
	c0-0.7-0.6-1.3-1.3-1.3C49.4,139.4,48.9,140,48.9,140.7 M49.3,160.4H51v-14.9h-1.7V160.4z M27,158.9v-19.7h4.2c6,0,9.8,3.9,9.8,9.9
	s-3.8,9.9-9.8,9.9H27z M25.3,137.6v22.8h6.2c6.6,0,11.3-4.8,11.3-11.4c0-6.6-4.7-11.4-11.3-11.4H25.3z"/>
</svg>
