<?xml version="1.0" encoding="utf-8"?>
<!-- Generator: Adobe Illustrator 28.0.0, SVG Export Plug-In . SVG Version: 6.00 Build 0)  -->
<svg version="1.1" id="Capa_1" xmlns="http://www.w3.org/2000/svg" xmlns:xlink="http://www.w3.org/1999/xlink" x="0px" y="0px"
	 viewBox="0 0 483.4 162.9" style="enable-background:new 0 0 483.4 162.9;" xml:space="preserve">
<style type="text/css">
	.st0{fill:#125FA9;}
</style>
<path class="st0" d="M374.8,70.2c0,21.4-0.1,42.9,0.1,64.3c0,3.7-1,4.6-4.6,4.5c-8.9-0.3-17.8-0.2-26.7,0c-2.5,0-3.4-0.6-3.4-3.2
	c0.1-36.1,0.1-72.2,0-108.3c0-2.7,1-3.2,3.4-3.2c16.2,0.1,32.4,0.1,48.6,0c2.4,0,3.3,0.8,4,3.1c6.2,20.9,12.5,41.8,18.8,62.7
	c0.3,1,0.6,1.9,1,3c1.4-1.1,0.7-2.4,0.7-3.6c0.1-20.4,0.2-40.8,0.2-61.2c0-2.9,0.5-4.1,3.8-4c9.1,0.2,18.3,0.1,27.5,0
	c2.3,0,3.5,0.3,3.5,3.1c-0.1,36.1,0,72.2,0.1,108.3c0,2.3-0.6,3.2-3.1,3.2c-16.6-0.1-33.2-0.1-49.8,0c-2.7,0-3.2-1.3-3.8-3.4
	c-6.1-20.8-12.4-41.6-18.5-62.3c-0.3-1.1-0.7-2.2-1-3.2C375.3,70,375.1,70.1,374.8,70.2"/>
<path class="st0" d="M23.5,81c0-17.8,0.1-35.6-0.1-53.3c0-2.8,0.6-3.8,3.6-3.8c31.6,0.1,63.3,0.1,94.9,0c2.9,0,3.5,0.6,2.6,3.4
	c-2.9,8.8-5.6,17.7-8.1,26.6c-0.7,2.4-1.8,2.9-4.1,2.9c-14.9-0.1-29.8,0.2-44.7-0.1c-4.2-0.1-3.7,2.1-3.8,4.8
	c-0.1,2.8,0,4.5,3.8,4.5c13.9-0.3,27.7,0,41.6-0.2c3.4,0,3.5,0.9,2.5,3.7c-2.7,7.9-5.2,15.9-7.5,23.9c-0.8,2.8-2.1,3.5-4.9,3.5
	c-10.7-0.2-21.4,0-32.2-0.1c-3.1-0.1-4.4,0.8-3.8,3.9c0.1,0.5,0.1,1.1,0,1.6c-0.5,3.2,0.5,4.3,3.9,4.2c9.8-0.2,19.6,0,29.4-0.1
	c3,0,3.5,0.7,2.6,3.5c-2.8,8.4-5.5,16.9-8,25.4c-0.7,2.4-1.6,3.4-4.3,3.3c-20-0.1-40-0.1-60,0c-3.2,0-3.5-1.2-3.5-3.9
	C23.6,116.8,23.5,98.9,23.5,81"/>
<path class="st0" d="M267.8,138.9h-35.1c-4.6,0-9.2-0.2-13.7,0.1c-3.4,0.2-4-1.1-4-4.2c0.1-24.4,0-48.9,0.2-73.4
	c0-3.5-0.9-4.4-4.3-4.3c-8.8,0.2-17.5-0.1-26.3-0.1c-2.4,0-3.2-0.7-3.1-3.1c0.1-8.9,0.1-17.8,0.1-26.7c0-2,0.2-3.2,2.7-3.1
	c33.4,0.1,66.7,0.2,100,0.3c0.2,0,0.4,0.2,0.6,0.3C238,40.4,226.6,107.1,267.8,138.9"/>
<path class="st0" d="M328.1,86.8c-0.1,12.9-9.7,22.7-22.4,22.7c-12.7,0-22.1-9.9-22-23c0.1-13.5,10.4-24.3,23.1-24.2
	C318.6,62.4,328.2,73.4,328.1,86.8"/>
<path class="st0" d="M151.2,134c-7.9,0-15.7-0.1-23.5,0c-2.7,0-3.8-0.3-2.7-3.4c2.7-8,5.2-16.2,7.5-24.3c0.6-2.2,1.6-2.8,3.8-2.8
	c10.3,0.1,20.6,0.1,31,0c2.3,0,3.2,0.7,3.8,2.8c2.3,8.3,4.7,16.6,7.2,24.8c0.7,2.4,0,2.9-2.3,2.9C167.7,133.9,159.5,134,151.2,134"
	/>
<path class="st0" d="M153.8,47.5c3.3,11.6,6.7,23.2,10.1,35.3c-6.7,0-13,0-19.2,0c-2,0-2-0.8-1.5-2.4c3.3-11,6.6-22,9.8-33
	C153.3,47.5,153.5,47.5,153.8,47.5"/>
</svg>
