<?xml version="1.0" encoding="utf-8"?>
<!-- Generator: Adobe Illustrator 28.0.0, SVG Export Plug-In . SVG Version: 6.00 Build 0)  -->
<svg version="1.1" id="Capa_1" xmlns="http://www.w3.org/2000/svg" xmlns:xlink="http://www.w3.org/1999/xlink" x="0px" y="0px"
	 viewBox="0 0 483.4 162.9" style="enable-background:new 0 0 483.4 162.9;" xml:space="preserve">
<style type="text/css">
	.st0{fill:#0758A2;}
	
		.st1{clip-path:url(#SVGID_00000083789770240881869750000015726084964147536054_);fill:url(#SVGID_00000040540420417897891890000016163859944912382391_);}
	
		.st2{clip-path:url(#SVGID_00000142863109283975920730000009941860105700623539_);fill:url(#SVGID_00000039829361341275568870000017059390023606808474_);}
</style>
<path class="st0" d="M224.4,54.3c6,0,12.7-0.1,18.9,0c15.4,0.1,14.5,29.5,0,29.5h-18.9V54.3z M197.9,30.6V134h26.4v-26.4h19.1
	c49.5,0,49.5-76.8,0-76.9H197.9z"/>
<path class="st0" d="M265.9,30.6c9,5.2,17,14,19.3,23.6h20.7V134H332V54.3h21.9V30.6H265.9z"/>
<polygon class="st0" points="452.7,30.3 411.5,75.2 371,30.3 361.3,30.3 361.3,134 388.3,134 388.3,87.9 410.1,111 413.1,111 
	435.1,87.9 435.1,134 462.1,134 462.1,30.3 "/>
<g>
	<defs>
		<path id="SVGID_1_" d="M120.5,19c6.9,7.1,11.7,16.2,13.6,25.9c1.7,8.8,0.8,18-1.4,26.7c-2.1,8.7-5.9,17-11.7,23.9
			c-6.1,7.2-14.3,12.4-23.4,15.1c-15.7,4.6-33.1,1.2-45.9-8.9c0,17.5,7.8,33.9,22.5,43.8c3.4,2.3,7.1,4.4,11,5.8
			c1.7,0.7,3.9,1.7,5.8,1.6c1.9,0,3.8-0.1,5.7-0.3c8.9-0.8,17.4-3.2,25.4-7.2c15.4-7.7,27.7-21.1,34-37.1c7.1-18,6.4-38.7-1.9-56.2
			c-7.2-15.1-19.7-27.1-34.8-34.1L120.5,19z"/>
	</defs>
	<clipPath id="SVGID_00000083069071007548700850000002439514135750674329_">
		<use xlink:href="#SVGID_1_"  style="overflow:visible;"/>
	</clipPath>
	
		<linearGradient id="SVGID_00000158726307055495001490000007708819726997750156_" gradientUnits="userSpaceOnUse" x1="-93.7796" y1="416.4796" x2="-87.8568" y2="416.4796" gradientTransform="matrix(19.3381 -5.5291 -5.5291 -19.3381 4162.3018 7638.4194)">
		<stop  offset="0" style="stop-color:#0758A2"/>
		<stop  offset="0.1949" style="stop-color:#0B60A8"/>
		<stop  offset="0.4982" style="stop-color:#1576B9"/>
		<stop  offset="0.87" style="stop-color:#259AD5"/>
		<stop  offset="1" style="stop-color:#2CA8E0"/>
	</linearGradient>
	
		<polygon style="clip-path:url(#SVGID_00000083069071007548700850000002439514135750674329_);fill:url(#SVGID_00000158726307055495001490000007708819726997750156_);" points="
		16.1,28.1 154.8,-11.5 198.9,142.7 60.2,182.4 	"/>
</g>
<g>
	<defs>
		<path id="SVGID_00000163781268794796056960000003516131977629718150_" d="M74.6,13.5c-21.1,4.8-39.1,19.6-48.2,39.2
			c-8.3,18-8.6,39.3-0.7,57.5c10.3,23.9,33.6,40.5,59.5,42.4c-15.9-4.1-29.1-15.5-35.1-30.8c-6.4-16.1-4-34.9,6.3-48.8
			c7.3-10,18.2-17.1,30.3-19.8c15.2-3.3,30.5,0.7,42.7,10c1-6.9,1.5-13.6,0.3-20.5c-1.3-7.5-4.3-14.7-8.7-20.9
			c-1.1-1.6-2.3-3.1-3.6-4.6c-1.2-1.4-4.1-1.9-5.8-2.4c-3.5-1.1-7.1-1.9-10.7-2.4c-3.4-0.5-6.8-0.8-10.3-0.8
			C85.2,11.7,79.8,12.3,74.6,13.5"/>
	</defs>
	<clipPath id="SVGID_00000131352933777665767290000010228058082768806841_">
		<use xlink:href="#SVGID_00000163781268794796056960000003516131977629718150_"  style="overflow:visible;"/>
	</clipPath>
	
		<linearGradient id="SVGID_00000130638127766197470550000000377152681470006712_" gradientUnits="userSpaceOnUse" x1="-86.5623" y1="389.2021" x2="-80.6394" y2="389.2021" gradientTransform="matrix(-8.4579 21.446 21.446 8.4579 -8977.7783 -1421.1979)">
		<stop  offset="0" style="stop-color:#0758A2"/>
		<stop  offset="0.1949" style="stop-color:#0B60A8"/>
		<stop  offset="0.4982" style="stop-color:#1576B9"/>
		<stop  offset="0.87" style="stop-color:#259AD5"/>
		<stop  offset="1" style="stop-color:#2CA8E0"/>
	</linearGradient>
	
		<polygon style="clip-path:url(#SVGID_00000131352933777665767290000010228058082768806841_);fill:url(#SVGID_00000130638127766197470550000000377152681470006712_);" points="
		179,30.7 115.7,191.2 -30.2,133.7 33.1,-26.9 	"/>
</g>
</svg>
