<?xml version="1.0" encoding="utf-8"?>
<!-- Generator: Adobe Illustrator 28.0.0, SVG Export Plug-In . SVG Version: 6.00 Build 0)  -->
<svg version="1.1" id="Capa_1" xmlns="http://www.w3.org/2000/svg" xmlns:xlink="http://www.w3.org/1999/xlink" x="0px" y="0px"
	 viewBox="0 0 65 28" style="enable-background:new 0 0 65 28;" xml:space="preserve">
<style type="text/css">
	.st0{fill:#2B2D6B;}
	.st1{fill:#FDFEFE;}
	.st2{fill:#FDFDFE;}
	.st3{fill:#FEFEFE;}
</style>
<g>
	<path class="st0" d="M4,4c3.4,1.2,6.8,2.1,10.3,2.9c0.2,0,0.4,0,0.5-0.1c2-1.8,4.8-1.7,6.7,0.2c0.3,0.3,0.6,0.6,0.9,0.9
		c0.2,0.3,0.5,0.4,0.9,0.4c0.5,0,0.9,0.1,1.4,0.1c0.2,0,0.3-0.1,0.3-0.3c0-0.8,0-1.7,0-2.5c0-0.3,0.1-0.4,0.4-0.4c0.3,0,0.5,0,0.8,0
		c0.3,0,0.4,0.1,0.4,0.4c0,0.9,0,1.8,0,2.7c0,0.2,0,0.3,0.3,0.3c2.5,0.2,5.1,0.2,7.6,0.2c0.3,0,0.5-0.1,0.6-0.4
		c0.7-1.9,2.4-3.1,4.5-3.1c1.1,0,2.2,0,3.4,0c0.3,0,0.4,0.1,0.4,0.4c0,0.2,0,0.5,0,0.7c0,0.3-0.1,0.4-0.4,0.4c-1.5,0-3,0-4.5,0
		c-0.6,0-1.1,0.1-1.5,0.5c-0.4,0.3-0.6,0.7-0.7,1.2c0,0.2,0,0.3,0.3,0.3c2.1-0.1,4.3-0.2,6.4-0.4c0.2,0,0.3-0.1,0.4-0.2
		c0.5-0.5,0.9-0.9,1.4-1.4c1.9-1.7,4.6-1.7,6.4,0c0.2,0.2,0.4,0.2,0.7,0.2c3.2-0.7,6.4-1.5,9.6-2.6c0.1,0,0.3-0.2,0.3,0
		c0.1,0.2-0.1,0.2-0.3,0.3c-3.1,1-6.2,1.9-9.4,2.6c-0.1,0-0.2,0.1-0.4,0.1c0.5,0.5,1,1,1.5,1.5c0.2,0.2,0.4,0.4,0.6,0.6
		c0.1,0.1,0.1,0.3,0,0.4c-0.2,0.2-0.4,0.4-0.6,0.6c-0.2,0.2-0.3,0.2-0.5,0c-0.8-0.8-1.6-1.6-2.5-2.5c-0.2-0.2-0.3-0.3-0.6-0.2
		c-1.4,0.3-2.8,0.5-4.2,0.7c-0.2,0-0.3,0.1-0.4,0.2c-0.6,0.6-1.2,1.2-1.8,1.8c-0.2,0.2-0.4,0.2-0.6,0c-0.7-0.7-0.7-0.7,0-1.5
		c0,0,0.1-0.1,0.2-0.2c-0.7,0.1-1.4,0.1-2.1,0.2C39.2,8.9,37.8,9,36.4,9c-0.3,0-0.4,0.1-0.4,0.4c0,1.3,0,2.7,0,4
		c0,0.3-0.1,0.5-0.4,0.4c-0.3,0-0.5,0-0.8,0c-0.2,0-0.3-0.1-0.3-0.3c0-1.4-0.1-2.8,0.1-4.1c0-0.3,0-0.3-0.3-0.3c-2.5,0-5,0-7.6-0.2
		c-0.3,0-0.4,0-0.4,0.3c0,0.4,0,0.7,0,1.1c0.1,1.3,0.7,1.9,2,2c1.5,0.1,3,0,4.6,0c0.3,0,0.4,0.1,0.4,0.4c0,1,0,1-1,1c-1,0-2,0-3,0
		c-2.4-0.1-4.4-2.1-4.5-4.5c0-0.5,0-0.5-0.5-0.6c-0.4,0-0.8-0.1-1.3-0.1c0.3,0.3,0.5,0.6,0.8,0.8c0.2,0.1,0.2,0.3,0,0.4
		c-0.1,0.1-0.1,0.1-0.2,0.2c-0.7,0.7-0.5,0.7-1.2,0c-0.5-0.5-1-1-1.5-1.5c-0.1-0.1-0.3-0.2-0.5-0.2c-1.4-0.2-2.7-0.4-4.1-0.7
		c-0.2,0-0.4,0-0.5,0.1c-0.9,0.9-1.7,1.7-2.6,2.6c-0.2,0.2-0.4,0.3-0.6,0c-0.7-0.7-0.7-0.7,0-1.5c0.5-0.5,1.1-1.1,1.6-1.7
		C10.8,6.4,7.4,5.4,4,4.3C4,4.2,4,4.1,4,4z"/>
	<path class="st0" d="M4,16.6c1.5,0,3,0,4.5,0c0.2,0,0.2-0.1,0.2-0.3c0-0.6,0-1.2,0-1.8c0-0.3,0.1-0.4,0.4-0.4c0.3,0,0.5,0,0.8,0
		c0.2,0,0.3,0.1,0.3,0.3c0,0.6,0,1.2,0,1.8c0,0.2,0,0.3,0.3,0.3c1.7,0,3.3,0,5,0c0.2,0,0.4-0.1,0.5-0.3c0.6-0.7,1.3-1.3,2.2-1.6
		c1.9-0.7,3.7-0.3,5.1,1.2c0.5,0.5,1,0.8,1.8,0.7c5.2,0,10.4,0,15.6,0c0.3,0,0.5-0.1,0.7-0.3c0.7-0.8,1.6-1.5,2.7-1.8
		c1.7-0.4,3.3,0,4.6,1.3c0.6,0.6,1.2,0.9,2,0.8c0.4-0.1,0.9,0,1.3,0c0.2,0,0.3-0.1,0.3-0.3c0-0.6,0-1.2,0-1.8c0-0.3,0.1-0.4,0.4-0.4
		c0.3,0,0.5,0,0.8,0c0.3,0,0.4,0.1,0.4,0.4c0,0.6,0,1.2,0,1.7c0,0.3,0.1,0.4,0.4,0.4c2.3,0,4.6,0,6.9,0c0.1,0,0.2,0,0.3,0
		c0.1,0,0.1,0.1,0.1,0.1c0,0.1,0,0.2-0.1,0.2c-0.1,0-0.2,0-0.3,0c-2.3,0-4.6,0-6.9,0C54,16.9,54,17,54,17.3c0,0.7,0,1.4,0,2.2
		c0.1,1.1,0.9,1.8,2,1.8c1.5,0,3,0,4.5,0c0.3,0,0.5,0.1,0.5,0.5c0,1,0,1-1,1c-1.2,0-2.3,0.1-3.5-0.1c-2.2-0.3-4-2.2-4.1-4.5
		c0-0.3,0-0.7,0-1c0-0.1,0-0.2-0.2-0.2c-0.8,0-1.5,0-2.4,0c0.5,0.5,0.9,0.9,1.3,1.2c0.4,0.3,0.4,0.4,0,0.7c-0.7,0.7-0.7,0.7-1.3,0
		c-0.6-0.6-1.2-1.1-1.7-1.7c-0.2-0.2-0.3-0.2-0.6-0.2c-1.4,0-2.8,0-4.2,0c-0.2,0-0.4,0.1-0.5,0.2c-0.7,0.7-1.4,1.4-2.1,2.1
		c-0.2,0.2-0.4,0.2-0.6,0c-0.1-0.2-0.3-0.3-0.5-0.5c-0.2-0.2-0.2-0.3,0-0.5c0.4-0.4,0.8-0.8,1.3-1.3c-5.5,0-10.9,0-16.5,0
		c0.3,0.3,0.6,0.6,0.9,0.9c0.7,0.7,0.7,0.7,0,1.3c-0.4,0.4-0.4,0.4-0.7,0c-0.7-0.7-1.4-1.4-2-2c-0.2-0.2-0.3-0.2-0.5-0.2
		c-1.4,0-2.8,0-4.2,0c-0.2,0-0.4,0.1-0.6,0.2c-0.7,0.7-1.4,1.4-2.1,2.1c-0.2,0.2-0.4,0.2-0.6,0c-0.7-0.7-0.7-0.7,0-1.4
		c0.3-0.3,0.6-0.5,0.9-0.8c-0.2-0.2-0.3-0.1-0.4-0.1c-1.5,0-3,0-4.5,0c-0.3,0-0.4,0.1-0.4,0.4c0,0.6,0,1.2,0,1.8
		c0,1.4,0.8,2.2,2.2,2.2c1.5,0,3,0,4.4,0c0.3,0,0.4,0.1,0.4,0.4c0,1,0,1-1,1c-1.1,0-2.1,0.1-3.2,0c-2.5-0.2-4.2-2-4.4-4.5
		c0-0.1,0-0.2,0-0.3c0-0.3,0.1-0.7-0.1-0.9c-0.2-0.2-0.6-0.1-0.9-0.1c-1.3,0-2.5,0-3.8,0C4,16.8,4,16.7,4,16.6z"/>
	<path class="st0" d="M32.7,22.7c-1.4,0-2.5-0.5-3.5-1.5c-0.8-0.8-1.5-1.5-2.3-2.3c-0.2-0.2-0.2-0.4,0-0.6c0.7-0.7,0.7-0.7,1.4,0
		c0.9,0.9,1.9,1.8,2.8,2.8c1,1,2.1,1,3.1,0c1-1,2.1-2.1,3.1-3.1c0.3-0.3,0.4-0.3,0.7,0c0.7,0.7,0.7,0.7,0,1.4
		c-0.6,0.6-1.3,1.3-1.9,1.9C35.2,22.2,34.1,22.7,32.7,22.7z"/>
	<path class="st1" d="M49.5,7.3c-1.4,0.2-2.7,0.5-4.2,0.7c0.6-0.5,1-1.2,1.7-1.5C47.9,6.1,48.8,6.4,49.5,7.3z"/>
	<path class="st2" d="M16.4,7.2c0.8-1,2-1.1,3-0.3c0.3,0.2,0.6,0.5,0.8,0.8c0.1,0.1,0.1,0.1,0.1,0.2c0,0.1-0.1,0-0.1,0
		C18.9,7.7,17.7,7.5,16.4,7.2C16.4,7.3,16.4,7.3,16.4,7.2z"/>
	<path class="st3" d="M22.1,16.6c-1.4,0-2.7,0-4.1,0C19,15.2,20.4,14.6,22.1,16.6z"/>
	<path class="st3" d="M43.4,16.6c1.1-1.4,2.5-1.9,4,0C47.2,16.6,43.9,16.6,43.4,16.6z"/>
</g>
</svg>
