<?xml version="1.0" encoding="utf-8"?>
<!-- Generator: Adobe Illustrator 28.0.0, SVG Export Plug-In . SVG Version: 6.00 Build 0)  -->
<svg version="1.1" id="Capa_1" xmlns="http://www.w3.org/2000/svg" xmlns:xlink="http://www.w3.org/1999/xlink" x="0px" y="0px"
	 viewBox="0 0 116.2 24.9" style="enable-background:new 0 0 116.2 24.9;" xml:space="preserve">
<style type="text/css">
	.st0{fill:#FEFEFE;}
	.st1{fill:#27AAE2;}
	.st2{fill:#2FAEE4;}
	.st3{fill:#31AFE4;}
	.st4{fill:#2FAFE4;}
	.st5{fill:#32AFE4;}
	.st6{fill:#27ABE2;}
	.st7{fill:#D8272F;}
	.st8{fill:#FEFBFB;}
</style>
<g>
	<path class="st0" d="M57.5,2.9c18.4,0,36.7,0,55.1,0c0.2,0,0.3,0,0.3,0.3c0,6.4,0,12.7,0,19.1c0,0.2,0,0.2-0.2,0.2
		c-36.7,0-73.4,0-110.2,0c-0.2,0-0.2,0-0.2-0.2c0-6.4,0-12.7,0-19.1c0-0.2,0-0.3,0.3-0.3C20.8,2.9,39.2,2.9,57.5,2.9z"/>
	<path class="st1" d="M26,6.4c0.1-0.1,0.2-0.1,0.3-0.1c28.5,0,57,0,85.5,0c0.4,0,0.4,0,0.4,0.3c0,4,0,8.1,0,12.1
		c0,0.3-0.1,0.3-0.4,0.3c-28.4,0-56.8,0-85.2,0c-0.1,0-0.2,0-0.3,0c0,0,0,0,0-0.1c4.6-2.1,9.1-4.2,13.7-6.3
		C35.3,10.6,30.7,8.5,26,6.4z"/>
	<path class="st1" d="M20.3,6.4c-4.6,2.1-9.2,4.2-13.9,6.4C11,14.9,15.5,17,20,19.1c-0.1,0.1-0.2,0-0.3,0c-5.4,0-10.9,0-16.3,0
		c-0.3,0-0.3,0-0.3-0.3c0-4,0-8.1,0-12.1c0-0.2,0-0.3,0.3-0.3c5.6,0,11.2,0,16.8,0C20.2,6.4,20.2,6.4,20.3,6.4
		C20.3,6.4,20.3,6.4,20.3,6.4z"/>
	<path class="st1" d="M37.6,12.8c-0.9,0.4-1.8,0.8-2.6,1.2c-3.8,1.8-7.7,3.5-11.5,5.3c-0.2,0.1-0.3,0.1-0.5,0
		c-4.6-2.1-9.2-4.3-13.8-6.4c0,0-0.1,0-0.2-0.1c0-0.1,0.1-0.1,0.2-0.1c4.6-2.1,9.2-4.2,13.7-6.3c0.2-0.1,0.3-0.1,0.5,0
		c4.6,2.1,9.3,4.2,13.9,6.3C37.4,12.7,37.5,12.7,37.6,12.8z"/>
	<path class="st2" d="M24.2,5.6c0.2,0,0.2,0,0.3,0c29.1,0,58.1,0,87.2,0c0.1,0,0.2,0,0.2,0c0.1,0,0.1,0,0.1,0.1
		c0,0.1-0.1,0.1-0.1,0.1c-0.1,0-0.1,0-0.2,0c-28.9,0-57.8,0-86.8,0C24.7,5.8,24.5,5.8,24.2,5.6z"/>
	<path class="st3" d="M24.3,20c0.2-0.2,0.5-0.3,0.7-0.3c28.9,0,57.8,0,86.7,0c0.1,0,0.1,0,0.2,0c0.1,0,0.1,0,0.1,0.1
		c0,0.1,0,0.1-0.1,0.1c-0.1,0-0.1,0-0.2,0c-29.1,0-58.2,0-87.2,0C24.5,20,24.4,20,24.3,20z"/>
	<path class="st1" d="M57.6,21.5c18,0,36.1,0,54.1,0c0.1,0,0.4-0.1,0.4,0.1c0,0.2-0.2,0.1-0.4,0.1c-36.1,0-72.2,0-108.2,0
		c-0.1,0-0.4,0.1-0.4-0.1c0-0.2,0.3-0.1,0.4-0.1C21.5,21.5,39.6,21.5,57.6,21.5z"/>
	<path class="st1" d="M57.6,5c-18,0-36.1,0-54.1,0C3.3,5,3.1,5.1,3.1,4.9c0-0.2,0.2-0.1,0.4-0.1c36.1,0,72.2,0,108.3,0
		c0.1,0,0.1,0,0.2,0c0.1,0,0.2,0,0.2,0.1C112.1,5,112,5,112,5c-0.1,0-0.2,0-0.2,0C93.7,5,75.6,5,57.6,5z"/>
	<path class="st1" d="M57.6,4.1c-18,0-36.1,0-54.1,0C3.3,4.1,3.1,4.2,3.1,4c0-0.2,0.2-0.1,0.3-0.1c36.1,0,72.2,0,108.3,0
		c0.1,0,0.3-0.1,0.4,0.1c0,0.2-0.2,0.1-0.3,0.1C93.7,4.1,75.6,4.1,57.6,4.1z"/>
	<path class="st1" d="M57.6,20.6c18,0,36,0,54.1,0c0.1,0,0.2,0,0.2,0c0.1,0,0.2,0,0.2,0.1c0,0.2-0.1,0.1-0.2,0.1c-0.1,0-0.1,0-0.2,0
		c-36.1,0-72.2,0-108.3,0c-0.1,0-0.1,0-0.2,0c-0.1,0-0.2,0-0.2-0.1c0-0.1,0.1-0.1,0.2-0.1c0.1,0,0.1,0,0.2,0
		C21.5,20.6,39.6,20.6,57.6,20.6z"/>
	<path class="st4" d="M22,5.6c-0.2,0.2-0.4,0.2-0.7,0.2c-6,0-12,0-18,0c-0.1,0-0.2,0-0.2-0.1c0-0.2,0.1-0.1,0.2-0.1
		c6.2,0,12.4,0,18.7,0C22,5.6,22,5.6,22,5.6z"/>
	<path class="st5" d="M22,20c-6.3,0-12.5,0-18.7,0c0,0-0.1,0-0.1,0c-0.1,0-0.1,0-0.1-0.1c0-0.1,0-0.1,0.1-0.1c0.1,0,0.1,0,0.2,0
		c5.9,0,11.9,0,17.8,0C21.5,19.8,21.7,19.9,22,20z"/>
	<path class="st0" d="M61.2,12.5c0,0.9,0,1.9,0,2.8c0,0.6,0,0.6-0.6,0.6c-0.3,0-0.5,0-0.8,0c-0.2,0-0.2,0-0.2-0.2c0-1.6,0-3.1,0-4.7
		c0-0.1,0-0.2,0.2-0.2c0.7,0,1.4,0,2.1,0c0.2,0,0.2,0.1,0.3,0.2c0.5,0.9,1,1.7,1.5,2.6c0,0.1,0.1,0.2,0.1,0.2c0.1,0,0.1-0.1,0.2-0.2
		c0.5-0.9,1-1.7,1.5-2.6c0.1-0.2,0.2-0.2,0.4-0.2c0.6,0,1.2,0,1.8,0c0.2,0,0.2,0,0.2,0.2c0,1.5,0,3.1,0,4.6c0,0.2-0.1,0.2-0.2,0.2
		c-0.4,0-0.7,0-1.1,0c-0.2,0-0.2-0.1-0.2-0.2c0-1,0-1.9,0-2.9c0-0.1,0-0.2,0-0.4c-0.1,0.1-0.1,0.2-0.2,0.3c-0.6,1-1.1,2-1.7,2.9
		c-0.1,0.2-0.2,0.2-0.4,0.2c-0.6,0.1-1-0.1-1.3-0.7C62.3,14.2,61.8,13.4,61.2,12.5C61.2,12.5,61.2,12.5,61.2,12.5z"/>
	<path class="st0" d="M55.4,10.8c0.8,0,1.6,0,2.4,0c0.6,0,1,0.3,1.1,1c0.1,0.7,0.1,1.4-0.4,1.9c-0.1,0.1-0.1,0.1,0,0.2
		c0.3,0.3,0.4,0.7,0.4,1.1c0,0.2,0,0.4,0,0.6c0,0.2,0,0.3-0.3,0.3c-0.4,0-0.8,0-1.2,0c-0.2,0-0.2-0.1-0.2-0.2c0-0.1,0-0.3,0-0.4
		c0-0.4-0.2-0.6-0.6-0.6c-0.7,0-1.5,0-2.2,0c-0.1,0-0.2,0-0.2,0.2c0,0.3,0,0.6,0,0.8c0,0.2,0,0.2-0.2,0.2c-0.4,0-0.8,0-1.2,0
		c-0.1,0-0.2,0-0.2-0.2c0-1.6,0-3.1,0-4.7c0-0.2,0.1-0.2,0.2-0.2C53.7,10.8,54.6,10.8,55.4,10.8z"/>
	<path class="st0" d="M90.7,10.8c0.7,0,1.5,0,2.2,0c0.7,0,1.1,0.3,1.3,1c0.2,0.7,0.1,1.3-0.4,1.9c-0.1,0.1-0.1,0.1,0,0.2
		c0.2,0.2,0.3,0.5,0.3,0.9c0,0.3,0,0.6,0,0.9c0,0.1-0.1,0.2-0.2,0.2c-0.4,0-0.8,0-1.2,0c-0.2,0-0.2,0-0.2-0.2c0-0.2,0-0.3,0-0.5
		c0-0.3-0.2-0.6-0.5-0.6c-0.8,0-1.5,0-2.3,0c-0.1,0-0.2,0.1-0.2,0.2c0,0.3,0,0.6,0,0.8c0,0.1,0,0.2-0.2,0.2c-0.4,0-0.8,0-1.2,0
		c-0.1,0-0.2-0.1-0.2-0.2c0-1.5,0-3.1,0-4.6c0-0.2,0.1-0.2,0.2-0.2C89,10.8,89.9,10.8,90.7,10.8C90.7,10.8,90.7,10.8,90.7,10.8z"/>
	<path class="st0" d="M106.9,14.3c0-1,0-2.1,0-3.1c0-0.3,0.1-0.4,0.4-0.3c0.3,0,0.6,0,0.9,0c0.2,0,0.2,0,0.2,0.2c0,1.5,0,3.1,0,4.6
		c0,0.2-0.1,0.2-0.2,0.2c-0.6,0-1.2,0-1.8,0c-0.1,0-0.2-0.1-0.3-0.2c-0.9-1-1.8-2.1-2.7-3.1c-0.1-0.1-0.1-0.2-0.2-0.3
		c-0.1,0.1,0,0.2,0,0.3c0,1,0,2,0,3c0,0.2,0,0.3-0.2,0.3c-0.3,0-0.7,0-1,0c-0.1,0-0.2,0-0.2-0.2c0-1.6,0-3.1,0-4.7
		c0-0.1,0.1-0.2,0.2-0.2c0.6,0,1.2,0,1.9,0c0.1,0,0.2,0.1,0.3,0.2c0.9,1,1.8,2.1,2.7,3.1C106.7,14.2,106.7,14.3,106.9,14.3
		C106.8,14.3,106.8,14.3,106.9,14.3z"/>
	<path class="st0" d="M97.8,15.9c-0.8,0-1.6,0-2.5,0c-0.2,0-0.2-0.1-0.2-0.2c0-1.5,0-3,0-4.5c0-0.2,0-0.3,0.2-0.3c1.6,0,3.3,0,4.9,0
		c0.2,0,0.3,0.1,0.2,0.3c0,0.2,0,0.4,0,0.7c0,0.2-0.1,0.2-0.2,0.2c-1.1,0-2.2,0-3.3,0c-0.3,0-0.3,0-0.3,0.3c0,0.5,0,0.5,0.5,0.5
		c0.9,0,1.9,0,2.8,0c0.2,0,0.3,0,0.3,0.3c0,0.2,0.1,0.5,0,0.7c-0.2,0.2-0.5,0.1-0.7,0.1c-0.9,0-1.7,0-2.6,0c-0.2,0-0.2,0-0.2,0.2
		c0,0.7,0,0.7,0.7,0.7c1,0,1.9,0,2.9,0c0.2,0,0.3,0.1,0.3,0.3c0,0.2,0,0.4,0,0.5c0,0.2,0,0.3-0.3,0.3C99.4,15.9,98.6,15.9,97.8,15.9
		C97.8,15.9,97.8,15.9,97.8,15.9z"/>
	<path class="st0" d="M84.2,15.9c-0.5,0-1.1,0-1.6,0c-0.8,0-1.5-0.7-1.5-1.4c0-1.1,0-2.2,0-3.4c0-0.1,0-0.2,0.2-0.2
		c0.4,0,0.7,0,1.1,0c0.2,0,0.3,0.1,0.3,0.3c0,0.9,0,1.7,0,2.6c0,0.5,0.2,0.7,0.7,0.7c0.6,0,1.2,0,1.8,0c0.5,0,0.7-0.2,0.7-0.7
		c0-0.9,0-1.8,0-2.7c0-0.2,0-0.2,0.2-0.2c0.4,0,0.8,0,1.2,0c0.1,0,0.2,0,0.2,0.2c0,1.1,0,2.3,0,3.4c0,0.8-0.7,1.4-1.5,1.4
		C85.3,15.9,84.8,15.9,84.2,15.9z"/>
	<path class="st0" d="M75.6,15.9c-0.5,0-0.9,0-1.4,0c-0.1,0-0.2,0-0.2-0.1c0,0,0,0,0-0.1c-0.2-0.6-0.6-0.8-1.2-0.7
		c-0.8,0.1-1.6,0-2.4,0c-0.2,0-0.3,0-0.3,0.2c-0.2,0.6-0.6,0.8-1.2,0.7c-0.2,0-0.5,0-0.7,0c0-0.1,0-0.2,0.1-0.2
		c0.9-1.5,1.8-3,2.7-4.6c0.1-0.2,0.2-0.2,0.4-0.2c0.4,0,0.9,0,1.3,0c0.1,0,0.2,0,0.3,0.2c0.9,1.6,1.8,3.2,2.7,4.8
		C75.6,15.8,75.6,15.8,75.6,15.9z"/>
	<path class="st0" d="M51.9,15.9c-0.5,0-0.9,0-1.4,0c-0.1,0-0.2-0.1-0.2-0.2c-0.2-0.6-0.7-0.8-1.3-0.7c-0.8,0.1-1.5,0-2.3,0
		c-0.2,0-0.3,0-0.3,0.2c-0.2,0.6-0.6,0.8-1.3,0.7c-0.2,0-0.4,0-0.7,0c0.3-0.6,0.7-1.1,1-1.7c0.6-1,1.2-2.1,1.8-3.1
		c0.1-0.2,0.2-0.2,0.4-0.2c0.4,0,0.9,0,1.3,0c0.1,0,0.2,0,0.3,0.2c0.9,1.6,1.8,3.1,2.7,4.7C51.9,15.8,51.9,15.8,51.9,15.9z"/>
	<path class="st0" d="M77.5,10.8c0.9,0,1.9,0,2.8,0c0.2,0,0.3,0.1,0.3,0.3c0,0.3,0,0.5,0,0.8c0,0.2,0,0.3-0.2,0.2
		c-0.6,0-1.2,0-1.8,0c-0.2,0-0.3,0.1-0.3,0.3c0,1.1,0,2.1,0,3.2c0,0.2-0.1,0.3-0.3,0.3c-0.3,0-0.7,0-1,0c-0.2,0-0.3,0-0.3-0.3
		c0-1.1,0-2.1,0-3.2c0-0.2-0.1-0.3-0.3-0.3c-0.6,0-1.1,0-1.7,0c-0.2,0-0.3-0.1-0.3-0.3c0-0.2,0-0.5,0-0.7c0-0.3,0-0.3,0.3-0.3
		C75.7,10.8,76.6,10.8,77.5,10.8C77.5,10.8,77.5,10.8,77.5,10.8z"/>
	<path class="st0" d="M33.5,12.7c-1,0.5-2,0.9-3,1.4c-2.4,1.1-4.7,2.2-7.1,3.2c-0.1,0.1-0.3,0.1-0.4,0c-3.3-1.5-6.6-3.1-9.9-4.6
		c0,0,0,0-0.1,0c0-0.1,0.1-0.1,0.1-0.1c3.3-1.5,6.6-3,9.9-4.5c0.1-0.1,0.2-0.1,0.3,0C26.7,9.6,30,11.2,33.5,12.7
		C33.4,12.7,33.4,12.7,33.5,12.7z"/>
	<path class="st6" d="M55.6,13.2c-0.4,0-0.7,0-1.1,0c-0.1,0-0.2,0-0.2-0.2c0-0.3-0.1-0.7,0.1-0.9c0.2-0.2,0.6-0.1,0.9-0.1
		c0.5,0,1,0,1.5,0c0.5,0,0.7,0.3,0.6,0.7c-0.1,0.3-0.3,0.4-0.5,0.4C56.3,13.2,56,13.2,55.6,13.2z"/>
	<path class="st6" d="M90.9,13.2c-0.4,0-0.7,0-1.1,0c-0.2,0-0.2-0.1-0.2-0.2c0-0.2,0-0.5,0-0.7c0-0.1,0-0.2,0.2-0.2
		c0.7,0,1.5,0,2.2,0c0.4,0,0.6,0.2,0.6,0.6c0,0.3-0.2,0.6-0.6,0.6C91.6,13.2,91.2,13.2,90.9,13.2z"/>
	<path class="st6" d="M70.8,13.9c0.4-0.7,0.8-1.3,1.1-1.9c0.3,0.6,0.6,1.2,0.9,1.8c0.1,0.1,0.1,0.2-0.1,0.2
		C72.2,13.9,71.5,13.9,70.8,13.9z"/>
	<path class="st1" d="M48.2,12c0.4,0.7,0.7,1.3,1,1.9c-0.7,0-1.4,0-2.1,0C47.5,13.3,47.8,12.7,48.2,12z"/>
	<path class="st7" d="M20.9,12.8c0-1,0-2,0-3c0-0.2,0.1-0.3,0.2-0.4c0.6-0.3,1.2-0.5,1.8-0.8c0.1-0.1,0.2-0.1,0.4,0
		c0.5,0.2,1,0.5,1.5,0.7c0.9,0.4,1.2,1,1,1.9c-0.1,0.6-0.4,1.1-0.8,1.5c-0.2,0.2-0.2,0.3-0.1,0.5c0.4,0.7,0.7,1.5,1,2.2
		c0.1,0.2,0.1,0.2-0.1,0.3c-0.4,0.2-0.8,0.3-1.2,0.5c-0.2,0.1-0.2,0-0.3-0.1c-0.3-0.7-0.7-1.4-1-2.1c-0.1-0.2-0.2-0.2-0.4-0.1
		c-0.3,0.1-0.4,0.3-0.4,0.6c0,0.6,0,1.3,0,1.9c0,0.3-0.1,0.3-0.3,0.2c-0.4-0.2-0.8-0.4-1.2-0.5c-0.2-0.1-0.3-0.2-0.3-0.4
		C21,14.8,20.9,13.8,20.9,12.8z"/>
	<path class="st7" d="M20.5,15.8c-0.6-0.3-1.1-0.5-1.6-0.7c-0.2-0.1-0.2-0.3-0.2-0.4c-0.1-0.2-0.2-0.4-0.4-0.5
		c-0.3-0.1-0.5-0.2-0.8-0.3c-0.2-0.1-0.2,0-0.3,0.1c0,0.2-0.2,0.2-0.4,0.1c-0.3-0.2-0.7-0.4-1.1-0.5c-0.1-0.1-0.1-0.1-0.1-0.2
		c0.3-0.6,0.6-1.1,0.9-1.7c0-0.1,0.1-0.1,0.2-0.2c0.7-0.3,1.5-0.7,2.2-1c0.1,0,0.2-0.1,0.2,0.1c0.4,1.7,0.8,3.4,1.3,5.1
		C20.5,15.7,20.5,15.7,20.5,15.8z"/>
	<path class="st7" d="M26.8,10.1c0.7,0.3,1.3,0.6,1.9,0.9c0.1,0,0.1,0.1,0.1,0.2c0,1,0,2,0,3c0,0.1,0,0.2-0.1,0.2
		c-0.6,0.2-1.1,0.5-1.7,0.7c-0.1,0.1-0.2,0-0.2-0.1C26.8,13.5,26.8,11.8,26.8,10.1z"/>
	<path class="st0" d="M22.7,11.2c0-0.3,0-0.5,0-0.8c0-0.2,0.1-0.3,0.2-0.3c0.2-0.1,0.5,0,0.7,0c0.2,0,0.5,0.3,0.5,0.6
		c0.1,0.6-0.6,1.5-1.2,1.6c-0.2,0-0.3-0.1-0.3-0.2C22.7,11.8,22.7,11.5,22.7,11.2z"/>
	<path class="st8" d="M18.2,13.1C18,13.1,17.8,13,17.7,13c-0.1,0-0.2,0-0.2-0.2c0-0.1,0-0.3,0.2-0.3c0.1,0,0.3-0.1,0.3,0.1
		C18.1,12.8,18.1,13,18.2,13.1z"/>
</g>
</svg>
