<?xml version="1.0" encoding="utf-8"?>
<!-- Generator: Adobe Illustrator 28.0.0, SVG Export Plug-In . SVG Version: 6.00 Build 0)  -->
<svg version="1.1" id="Capa_1" xmlns="http://www.w3.org/2000/svg" xmlns:xlink="http://www.w3.org/1999/xlink" x="0px" y="0px"
	 viewBox="0 0 175.1 52.5" style="enable-background:new 0 0 175.1 52.5;" xml:space="preserve">
<style type="text/css">
	.st0{fill:#425054;}
</style>
<path class="st0" d="M108.1,17c-2.7-0.2-5.3,1.1-6.9,2.9c-1.5-2.1-3.8-3.2-6.3-2.9c-2.1,0-4,0.6-5.5,2.1L88.9,17H83v24.8H90V26.9
	c0-2.5,1.3-4,3.4-4c1.3,0,2.9,0.4,2.9,3.4v15.4h6.7V26.9c0-1.5,0.4-4,3.4-4c1.9,0,2.9,1.1,2.9,3.2v15.8h6.9V25.4
	c0.2-2.3-0.6-4.6-2.1-6.3C112.5,17.6,110.4,16.8,108.1,17z"/>
<path class="st0" d="M19.1,9.2L6.9,41.8h8l2.1-6.5h11.4l2.1,6.5h8.2L26,9.2H19.1z M19.1,29.2l3.6-10.5l3.6,10.5H19.1z"/>
<path class="st0" d="M61.1,32.1V17h-6.9v15.1c0.2,1.7-1.1,3.4-2.9,3.6c-0.2,0-0.4,0-0.8,0c-1.9,0.2-3.4-1.1-3.6-2.7
	c0-0.2,0-0.4,0-0.8V17h-6.9v15.1c-0.2,2.7,0.8,5.3,2.7,7.2c2.1,1.9,5,2.7,7.8,2.5c2.3,0,4.6-0.4,6.7-1.7c1.7,1.3,3.8,1.9,5.9,1.7
	h1.1v-5.9l-0.4-0.2C62.4,35.5,61.1,34.9,61.1,32.1z"/>
<path class="st0" d="M74.2,9.2h-6.9v23.4c0,5.9,3.2,9.3,9,9.3h2.1v-5.7l-1.5-0.2c-1.1-0.2-2.5-0.8-2.5-3.6V22h4v-5h-4.2V9.2z"/>
<path class="st0" d="M124.5,7.5c-1.9,0-3.4,1.5-3.4,3.6s1.5,3.4,3.6,3.4c1.9,0,3.4-1.5,3.4-3.4C127.8,9,126.4,7.5,124.5,7.5z"/>
<path class="st0" d="M165.1,12.6c0-0.6-0.4-1.3-1.3-1.3h-0.2h-1.5v3.8h0.8v-1.5h0.6l0.6,1.3h1.1l-0.8-1.5
	C164.9,13.4,165.1,13,165.1,12.6z M163.6,13H163v-0.8h0.6c0.4,0,0.4,0.2,0.4,0.4C164,12.8,164,13,163.6,13z"/>
<path class="st0" d="M163.4,9.2c-2.1,0-4,1.9-4,4s1.9,4,4,4s4-1.9,4-4S165.7,9.2,163.4,9.2L163.4,9.2z M163.4,16.1
	c-1.7,0-3.2-1.5-2.9-3.2s1.5-3.2,3.2-2.9c1.7,0,3.2,1.5,2.9,3.2C166.5,14.9,165.3,16.1,163.4,16.1C163.6,16.1,163.6,16.1,163.4,16.1
	z"/>
<rect x="120.9" y="17" class="st0" width="6.9" height="24.8"/>
<polygon class="st0" points="149.1,17 144.2,23.9 139.4,17 131.6,17 140.5,29.4 131.6,41.8 139.4,41.8 144.2,34.9 149.1,41.8 
	156.9,41.8 148.2,29.4 156.9,17 "/>
</svg>
