<?xml version="1.0" encoding="utf-8"?>
<!-- Generator: Adobe Illustrator 28.0.0, SVG Export Plug-In . SVG Version: 6.00 Build 0)  -->
<svg version="1.1" id="Capa_1" xmlns="http://www.w3.org/2000/svg" xmlns:xlink="http://www.w3.org/1999/xlink" x="0px" y="0px"
	 viewBox="0 0 185 87.9" style="enable-background:new 0 0 185 87.9;" xml:space="preserve">
<style type="text/css">
	.st0{fill:#002D74;}
	
		.st1{clip-path:url(#SVGID_00000121267778679430250790000000028912164861627311_);fill:url(#SVGID_00000039852441947075085580000001764445472420372925_);}
	
		.st2{clip-path:url(#SVGID_00000147185380878206661060000012981946378033398935_);fill:url(#SVGID_00000183952206574556141110000013979000382684858786_);}
	
		.st3{clip-path:url(#SVGID_00000041991794359863734330000012403200331845069701_);fill:url(#SVGID_00000044141480571979296850000008040435420078916503_);}
	
		.st4{clip-path:url(#SVGID_00000147188092766600698120000010296248699042471608_);fill:url(#SVGID_00000158025143321011346300000001687199343417147289_);}
	
		.st5{clip-path:url(#SVGID_00000101091411851098361210000014440261551053448326_);fill:url(#SVGID_00000032621497534125378840000016488460615463130030_);}
	
		.st6{clip-path:url(#SVGID_00000017498292673356361080000013494912545168533662_);fill:url(#SVGID_00000108271265064840691280000014295915317249410704_);}
	
		.st7{clip-path:url(#SVGID_00000157309060764913497440000002292914054152962985_);fill:url(#SVGID_00000145052726006534679780000008896286332805099930_);}
	
		.st8{clip-path:url(#SVGID_00000084502382301709989540000011764085553371035038_);fill:url(#SVGID_00000105416551146748758020000009530668035438870658_);}
	
		.st9{clip-path:url(#SVGID_00000066486559458359337780000001102515589527350451_);fill:url(#SVGID_00000018942946422146401160000009567364062392539546_);}
	
		.st10{clip-path:url(#SVGID_00000060004266016033946750000010007939721256741041_);fill:url(#SVGID_00000108301224306578126230000001308911245614929282_);}
	
		.st11{clip-path:url(#SVGID_00000022547259412708368180000015476550123021829044_);fill:url(#SVGID_00000050663235119079315360000015682192846335320453_);}
	
		.st12{clip-path:url(#SVGID_00000008849748587428277820000017222408524201280142_);fill:url(#SVGID_00000108306569809898619740000001059178295745462701_);}
</style>
<g>
	<g>
		<path class="st0" d="M86.4,64v-5.4h1.7c2.4,0,5,0.1,5,2.5c0,2.6-2.5,2.8-5.5,2.8H86.4 M86.4,67h2.2l6.5,7.9h6.9l-8-8.6
			c1.7-0.5,5.2-1.6,5.2-5.2c0-5.2-7.1-5.4-10.6-5.4h-7.4c-0.8,0-1,0.1-1,0.6v18.5c0,0,0.2,0,1,0h4.2l1,0V67z"/>
		<path class="st0" d="M133.8,72.4c-3.4,0-4.9-2.7-4.9-7.1c0-4.3,1.5-7.1,4.9-7.1c3.4,0,4.9,2.7,4.9,7.1
			C138.7,69.7,137.2,72.4,133.8,72.4 M145.1,65.3c0-6.7-4.3-10-11.3-10c-7,0-11.3,3.3-11.3,10c0,6.8,4.3,10,11.3,10
			C140.8,75.3,145.1,72.1,145.1,65.3"/>
		<path class="st0" d="M66.4,66.4H75v-3h-8.6v-4.6H76l1.3-3H61.2h-0.1c-0.6,0-0.8,0.1-0.9,0.4v18.7l16.8,0v-0.6v-1.8l0-0.6H66.4
			V66.4z"/>
		<path class="st0" d="M168.2,55.7h-3.3l-1,0c0,0,0.1,11.5,0.1,12.4l-10.3-12.1c-0.3-0.3-0.4-0.4-1-0.4H149l-0.1,0
			c-0.6,0-0.8,0.1-0.8,0.4v18.7c0,0,0.2,0,1,0h3.3c0.8,0,1,0,1,0V64.2c0-1.3,0-2.1,0-2.5c0,0,10.5,12.3,10.9,12.7
			c0.4,0.5,1,0.4,1,0.4h3l1,0V55.7L168.2,55.7z"/>
		<path class="st0" d="M16.6,66.4h8.6v-3h-8.6v-4.6h9.6l1.3-3H11.4h-0.1c-0.7,0-0.9,0.1-0.9,0.5v18.6l16.8,0v-0.6v-1.8l0-0.6H16.6
			V66.4z"/>
		<path class="st0" d="M43.5,67.6l-7.3-11.4c-0.3-0.3-0.4-0.4-1-0.4h-3.7l-1,0V75c0,0,0.2,0,1,0h3.3c0.8,0,1,0,1,0V64.4
			c0-1.3,0-1.8,0-2.1c0,0,7.2,11.5,7.9,12.3h0c0.7-0.8,7.5-12.3,7.5-12.3c0,0.4,0,0.9,0,2.1V75c0,0,0.2,0,1,0h3.3c0.8,0,1,0,1,0
			V55.9l-1,0h-3.7c-0.7,0-0.8,0.1-1,0.4l-6.9,11.4H43.5z"/>
		<path class="st0" d="M117.4,64.5c-3.8-1.8-8.9-2-8.9-4.1c0-1.7,1.7-2.2,3.7-2.2c3.1,0,5.8,1.2,6,1.2c0.2,0,0.3-0.1,0.5-0.3
			l0.3-0.4l1.5-2c0,0,0,0,0,0s0,0,0,0c-0.1,0-0.4-0.2-0.7-0.3c-0.3-0.1-0.5-0.2-0.6-0.2c-1.5-0.5-4.4-1.1-7.1-1.1
			c-5,0-9.5,1.7-9.5,5.7c0,2.3,1.1,3.8,3.3,4.7c4.4,1.7,8.8,1.6,8.8,4.1c0,1.7-1.1,2.6-3.5,2.6c-3.7,0-6.9-1.2-7.1-1.2
			c-0.2,0-0.4,0.1-0.5,0.3l-0.5,0.9l-0.8,1.5l0.7,0.3c1.4,0.5,5,1.3,8.4,1.3c5.4,0,9.4-1.8,9.3-5.9
			C120.5,67.3,119.6,65.6,117.4,64.5"/>
	</g>
	<g>
		<defs>
			<path id="SVGID_1_" d="M99.7,35.3C99.7,35.3,99.7,35.3,99.7,35.3L99.7,35.3z"/>
		</defs>
		<clipPath id="SVGID_00000152969079946497564200000008964753971329346484_">
			<use xlink:href="#SVGID_1_"  style="overflow:visible;"/>
		</clipPath>
		
			<linearGradient id="SVGID_00000031199757882104451920000004964365541644181670_" gradientUnits="userSpaceOnUse" x1="99.6554" y1="35.3377" x2="99.6878" y2="35.3377" gradientTransform="matrix(5.000000e-04 3.000000e-04 2.000000e-04 -3.000000e-04 413.9568 270.9416)">
			<stop  offset="0" style="stop-color:#8C9091"/>
			<stop  offset="0.1035" style="stop-color:#999C9D"/>
			<stop  offset="0.2941" style="stop-color:#BBBDBD"/>
			<stop  offset="0.5" style="stop-color:#E6E7E7"/>
			<stop  offset="0.5915" style="stop-color:#DDDEDF"/>
			<stop  offset="0.7406" style="stop-color:#C5C7C7"/>
			<stop  offset="0.9279" style="stop-color:#9EA0A1"/>
			<stop  offset="1" style="stop-color:#8C9091"/>
		</linearGradient>
		
			<polygon style="clip-path:url(#SVGID_00000152969079946497564200000008964753971329346484_);fill:url(#SVGID_00000031199757882104451920000004964365541644181670_);" points="
			99.7,35.3 99.7,35.3 99.7,35.4 99.7,35.3 		"/>
	</g>
	<g>
		<defs>
			<path id="SVGID_00000128486385638173907680000006327346729583310260_" d="M84.3,15.5c0,0-0.1,0.1,0,0.3c0.1,0.2,0.3,0.6,0.6,0.9
				l0.1,0.2l6.8,8.4l0,0l6.6,8.1c1.2,1.5,1.2,1.8,1.1,1.9l2.4-4.1c0.1-0.2-0.2-0.6-0.6-1.1l-0.1-0.2l-6.9-8.4l0-0.1l-6.6-8.1
				c-1.3-1.5-1.2-1.8-1.1-2L84.3,15.5z"/>
		</defs>
		<clipPath id="SVGID_00000124131126560461034310000004551885075776630460_">
			<use xlink:href="#SVGID_00000128486385638173907680000006327346729583310260_"  style="overflow:visible;"/>
		</clipPath>
		
			<linearGradient id="SVGID_00000183206442646641736600000003455645925078885821_" gradientUnits="userSpaceOnUse" x1="-338.5779" y1="352.9187" x2="-336.5058" y2="352.9187" gradientTransform="matrix(9.7439 5.6906 3.8954 -6.6717 2007.3508 4298.7002)">
			<stop  offset="0" style="stop-color:#8C9091"/>
			<stop  offset="0.1035" style="stop-color:#999C9D"/>
			<stop  offset="0.2941" style="stop-color:#BBBDBD"/>
			<stop  offset="0.5" style="stop-color:#E6E7E7"/>
			<stop  offset="0.5915" style="stop-color:#DDDEDF"/>
			<stop  offset="0.7406" style="stop-color:#C5C7C7"/>
			<stop  offset="0.9279" style="stop-color:#9EA0A1"/>
			<stop  offset="1" style="stop-color:#8C9091"/>
		</linearGradient>
		
			<polygon style="clip-path:url(#SVGID_00000124131126560461034310000004551885075776630460_);fill:url(#SVGID_00000183206442646641736600000003455645925078885821_);" points="
			88.8,3.6 112.6,17.5 97.6,43.1 73.9,29.3 		"/>
	</g>
	<g>
		<defs>
			<path id="SVGID_00000170987699278939370280000008662864611915915159_" d="M87.7,9.7c0,0-0.1,0.1,0,0.3c0.1,0.2,0.3,0.6,0.6,0.9
				l0.1,0.2l6.8,8.4l0,0l6.6,8.1c1.2,1.5,1.2,1.8,1.1,1.9l2.4-4.1c0.1-0.2-0.2-0.6-0.6-1.1l-0.1-0.2l-6.8-8.4l0-0.1l-6.6-8.1
				c-1.3-1.5-1.2-1.8-1.1-2L87.7,9.7z"/>
		</defs>
		<clipPath id="SVGID_00000150793307806572299430000013144199990858693299_">
			<use xlink:href="#SVGID_00000170987699278939370280000008662864611915915159_"  style="overflow:visible;"/>
		</clipPath>
		
			<linearGradient id="SVGID_00000037687921303801456860000005013800539873665973_" gradientUnits="userSpaceOnUse" x1="-336.269" y1="350.9618" x2="-334.1973" y2="350.9618" gradientTransform="matrix(10.4399 6.0971 6.0971 -10.4399 1456.5936 5725.5791)">
			<stop  offset="0" style="stop-color:#8C9091"/>
			<stop  offset="0.1035" style="stop-color:#999C9D"/>
			<stop  offset="0.2941" style="stop-color:#BBBDBD"/>
			<stop  offset="0.5" style="stop-color:#E6E7E7"/>
			<stop  offset="0.5915" style="stop-color:#DDDEDF"/>
			<stop  offset="0.7406" style="stop-color:#C5C7C7"/>
			<stop  offset="0.9279" style="stop-color:#9EA0A1"/>
			<stop  offset="1" style="stop-color:#8C9091"/>
		</linearGradient>
		
			<polygon style="clip-path:url(#SVGID_00000150793307806572299430000013144199990858693299_);fill:url(#SVGID_00000037687921303801456860000005013800539873665973_);" points="
			92.3,-2.1 116,11.8 101.1,37.4 77.3,23.5 		"/>
	</g>
	<g>
		<defs>
			<path id="SVGID_00000053539477256842053660000001786976959447993262_" d="M103.1,29.6L103.1,29.6
				C103.1,29.6,103.1,29.6,103.1,29.6"/>
		</defs>
		<clipPath id="SVGID_00000160164582435162318080000009222667186870158757_">
			<use xlink:href="#SVGID_00000053539477256842053660000001786976959447993262_"  style="overflow:visible;"/>
		</clipPath>
		
			<linearGradient id="SVGID_00000175288524461920954920000009612914962263003270_" gradientUnits="userSpaceOnUse" x1="103.0668" y1="29.5848" x2="103.0992" y2="29.5848" gradientTransform="matrix(5.000000e-04 3.000000e-04 2.000000e-04 -4.000000e-04 414.7489 267.3922)">
			<stop  offset="0" style="stop-color:#8C9091"/>
			<stop  offset="0.1035" style="stop-color:#999C9D"/>
			<stop  offset="0.2941" style="stop-color:#BBBDBD"/>
			<stop  offset="0.5" style="stop-color:#E6E7E7"/>
			<stop  offset="0.5915" style="stop-color:#DDDEDF"/>
			<stop  offset="0.7406" style="stop-color:#C5C7C7"/>
			<stop  offset="0.9279" style="stop-color:#9EA0A1"/>
			<stop  offset="1" style="stop-color:#8C9091"/>
		</linearGradient>
		
			<polygon style="clip-path:url(#SVGID_00000160164582435162318080000009222667186870158757_);fill:url(#SVGID_00000175288524461920954920000009612914962263003270_);" points="
			103.1,29.6 103.1,29.6 103.1,29.6 103.1,29.6 		"/>
	</g>
	<g>
		<defs>
			<path id="SVGID_00000097500738330681311160000012983662777275084420_" d="M77.5,27c-0.1,0.2,0.2,0.6,0.6,1.1l0.1,0.2l6.8,8.4l0,0
				l6.6,8.1c1.2,1.5,1.2,1.8,1.1,1.9l2.4-4c0,0,0.1-0.1,0-0.3c-0.1-0.2-0.3-0.5-0.6-0.9l-0.1-0.2l-6.8-8.4l0-0.1L81,24.9
				c-1.3-1.5-1.2-1.8-1.1-2L77.5,27z"/>
		</defs>
		<clipPath id="SVGID_00000127756275412537576740000010690128835781829773_">
			<use xlink:href="#SVGID_00000097500738330681311160000012983662777275084420_"  style="overflow:visible;"/>
		</clipPath>
		
			<linearGradient id="SVGID_00000066485854427400263590000009821448299476884657_" gradientUnits="userSpaceOnUse" x1="-338.5857" y1="352.0236" x2="-336.5137" y2="352.0236" gradientTransform="matrix(9.744 5.6907 3.8954 -6.6718 2004.1373 4304.3965)">
			<stop  offset="0" style="stop-color:#8C9091"/>
			<stop  offset="0.1035" style="stop-color:#999C9D"/>
			<stop  offset="0.2941" style="stop-color:#BBBDBD"/>
			<stop  offset="0.5" style="stop-color:#E6E7E7"/>
			<stop  offset="0.5915" style="stop-color:#DDDEDF"/>
			<stop  offset="0.7406" style="stop-color:#C5C7C7"/>
			<stop  offset="0.9279" style="stop-color:#9EA0A1"/>
			<stop  offset="1" style="stop-color:#8C9091"/>
		</linearGradient>
		
			<polygon style="clip-path:url(#SVGID_00000127756275412537576740000010690128835781829773_);fill:url(#SVGID_00000066485854427400263590000009821448299476884657_);" points="
			82,15.1 105.7,29 90.8,54.6 67,40.8 		"/>
	</g>
	<g>
		<defs>
			<path id="SVGID_00000099622674369624074490000014021326712527233695_" d="M92.9,46.9L92.9,46.9C92.9,46.9,92.9,46.9,92.9,46.9
				 M92.9,46.8C92.9,46.8,92.9,46.8,92.9,46.8L92.9,46.8z"/>
		</defs>
		<clipPath id="SVGID_00000025402627867824017740000004924776521297604520_">
			<use xlink:href="#SVGID_00000099622674369624074490000014021326712527233695_"  style="overflow:visible;"/>
		</clipPath>
		
			<linearGradient id="SVGID_00000081641795944042597310000011552881516633646500_" gradientUnits="userSpaceOnUse" x1="92.8408" y1="46.8411" x2="92.8755" y2="46.8411" gradientTransform="matrix(2.000000e-04 1.000000e-04 1.000000e-04 -1.000000e-04 410.4719 276.1393)">
			<stop  offset="0" style="stop-color:#8C9091"/>
			<stop  offset="0.1035" style="stop-color:#999C9D"/>
			<stop  offset="0.2941" style="stop-color:#BBBDBD"/>
			<stop  offset="0.5" style="stop-color:#E6E7E7"/>
			<stop  offset="0.5915" style="stop-color:#DDDEDF"/>
			<stop  offset="0.7406" style="stop-color:#C5C7C7"/>
			<stop  offset="0.9279" style="stop-color:#9EA0A1"/>
			<stop  offset="1" style="stop-color:#8C9091"/>
		</linearGradient>
		
			<polygon style="clip-path:url(#SVGID_00000025402627867824017740000004924776521297604520_);fill:url(#SVGID_00000081641795944042597310000011552881516633646500_);" points="
			92.9,46.8 92.9,46.8 92.9,46.9 92.8,46.8 		"/>
	</g>
	<g>
		<defs>
			<path id="SVGID_00000093159695977214099950000013278084917535669378_" d="M89.4,52.6C89.4,52.6,89.5,52.6,89.4,52.6L89.4,52.6z"
				/>
		</defs>
		<clipPath id="SVGID_00000041287569863971344640000008608464519540260792_">
			<use xlink:href="#SVGID_00000093159695977214099950000013278084917535669378_"  style="overflow:visible;"/>
		</clipPath>
		
			<linearGradient id="SVGID_00000104695589115645570560000004792332261169143729_" gradientUnits="userSpaceOnUse" x1="89.4317" y1="52.5928" x2="89.4664" y2="52.5928" gradientTransform="matrix(2.000000e-04 1.000000e-04 1.000000e-04 -1.000000e-04 408.8264 278.9156)">
			<stop  offset="0" style="stop-color:#8C9091"/>
			<stop  offset="0.1035" style="stop-color:#999C9D"/>
			<stop  offset="0.2941" style="stop-color:#BBBDBD"/>
			<stop  offset="0.5" style="stop-color:#E6E7E7"/>
			<stop  offset="0.5915" style="stop-color:#DDDEDF"/>
			<stop  offset="0.7406" style="stop-color:#C5C7C7"/>
			<stop  offset="0.9279" style="stop-color:#9EA0A1"/>
			<stop  offset="1" style="stop-color:#8C9091"/>
		</linearGradient>
		
			<polygon style="clip-path:url(#SVGID_00000041287569863971344640000008608464519540260792_);fill:url(#SVGID_00000104695589115645570560000004792332261169143729_);" points="
			89.4,52.6 89.5,52.6 89.5,52.6 89.4,52.6 		"/>
	</g>
	<g>
		<defs>
			<path id="SVGID_00000147904090789760584550000005311754121709270408_" d="M74.1,32.8c-0.1,0.2,0.2,0.6,0.6,1.1l0.1,0.2l6.8,8.4
				l0,0.1l6.6,8.1c1.2,1.5,1.2,1.8,1.1,1.9l2.4-4c0,0,0.1-0.1,0-0.3c-0.1-0.2-0.3-0.5-0.6-0.9l-0.1-0.2l-6.8-8.4l0-0.1l-6.6-8.1
				c-1.3-1.5-1.2-1.8-1.1-2L74.1,32.8z"/>
		</defs>
		<clipPath id="SVGID_00000141454350175695901230000011417354613456169380_">
			<use xlink:href="#SVGID_00000147904090789760584550000005311754121709270408_"  style="overflow:visible;"/>
		</clipPath>
		
			<linearGradient id="SVGID_00000029748742657490935920000006788315243498178436_" gradientUnits="userSpaceOnUse" x1="-338.5365" y1="351.6089" x2="-336.4655" y2="351.6089" gradientTransform="matrix(9.7439 5.6906 3.8953 -6.6717 2001.8483 4307.0186)">
			<stop  offset="0" style="stop-color:#8C9091"/>
			<stop  offset="0.1035" style="stop-color:#999C9D"/>
			<stop  offset="0.2941" style="stop-color:#BBBDBD"/>
			<stop  offset="0.5" style="stop-color:#E6E7E7"/>
			<stop  offset="0.5915" style="stop-color:#DDDEDF"/>
			<stop  offset="0.7406" style="stop-color:#C5C7C7"/>
			<stop  offset="0.9279" style="stop-color:#9EA0A1"/>
			<stop  offset="1" style="stop-color:#8C9091"/>
		</linearGradient>
		
			<polygon style="clip-path:url(#SVGID_00000141454350175695901230000011417354613456169380_);fill:url(#SVGID_00000029748742657490935920000006788315243498178436_);" points="
			78.5,20.9 102.3,34.8 87.4,60.4 63.6,46.5 		"/>
	</g>
	<g>
		<defs>
			<path id="SVGID_00000043442715863213977180000006832099732111974570_" d="M96.3,41.1L96.3,41.1C96.3,41.1,96.3,41.1,96.3,41.1
				 M96.3,41.1L96.3,41.1C96.3,41.1,96.3,41.1,96.3,41.1 M80.9,21.3c-0.1,0.2,0.2,0.6,0.6,1.1l0.1,0.2l6.9,8.4l0,0.1l6.6,8.1
				c1.2,1.4,1.2,1.7,1.1,1.9l2.4-4.1c0.1-0.2-0.2-0.6-0.6-1.1L98,35.7l-6.9-8.4l0-0.1l-6.6-8.1c-1.3-1.5-1.2-1.8-1.1-2L80.9,21.3z"
				/>
		</defs>
		<clipPath id="SVGID_00000052084878767954547070000011530802722237861039_">
			<use xlink:href="#SVGID_00000043442715863213977180000006832099732111974570_"  style="overflow:visible;"/>
		</clipPath>
		
			<linearGradient id="SVGID_00000157299748444938747830000017429025346652046253_" gradientUnits="userSpaceOnUse" x1="-338.6273" y1="352.5458" x2="-336.5551" y2="352.5458" gradientTransform="matrix(9.744 5.6907 3.8954 -6.6717 2005.903 4302.313)">
			<stop  offset="0" style="stop-color:#8C9091"/>
			<stop  offset="0.1035" style="stop-color:#999C9D"/>
			<stop  offset="0.2941" style="stop-color:#BBBDBD"/>
			<stop  offset="0.5" style="stop-color:#E6E7E7"/>
			<stop  offset="0.5915" style="stop-color:#DDDEDF"/>
			<stop  offset="0.7406" style="stop-color:#C5C7C7"/>
			<stop  offset="0.9279" style="stop-color:#9EA0A1"/>
			<stop  offset="1" style="stop-color:#8C9091"/>
		</linearGradient>
		
			<polygon style="clip-path:url(#SVGID_00000052084878767954547070000011530802722237861039_);fill:url(#SVGID_00000157299748444938747830000017429025346652046253_);" points="
			85.4,9.4 109.2,23.3 94.2,48.9 70.4,35 		"/>
	</g>
	<g>
		<defs>
			<path id="SVGID_00000160888801239562080320000008738774275495392162_" d="M76.5,28.7C76.5,28.7,76.5,28.7,76.5,28.7l-2.5,4.1
				c0.1-0.1,0.4-0.4,2.1,0.4l9.2,3.8l0.1,0l9.4,3.9L95,41c0.3,0.1,0.9,0.3,1.2,0.2c0,0,0.1-0.1,0.1-0.1l2.3-4
				c-0.1,0.1-0.4,0.4-2.1-0.4l-9.2-3.8l-0.1,0l-9.5-3.9l-0.1-0.1c-0.2-0.1-0.6-0.2-0.9-0.2C76.7,28.6,76.6,28.6,76.5,28.7"/>
		</defs>
		<clipPath id="SVGID_00000181801700268269117790000014256416614867542170_">
			<use xlink:href="#SVGID_00000160888801239562080320000008738774275495392162_"  style="overflow:visible;"/>
		</clipPath>
		
			<linearGradient id="SVGID_00000182517884846300564590000010550932835696661653_" gradientUnits="userSpaceOnUse" x1="-336.1383" y1="350.0642" x2="-334.0673" y2="350.0642" gradientTransform="matrix(10.4753 6.1188 6.1188 -10.4753 1454.6991 5752.4038)">
			<stop  offset="0" style="stop-color:#002D74"/>
			<stop  offset="0.2022" style="stop-color:#002D74"/>
			<stop  offset="0.4407" style="stop-color:#6778A9"/>
			<stop  offset="0.5056" style="stop-color:#848DB7"/>
			<stop  offset="0.8034" style="stop-color:#002D74"/>
			<stop  offset="1" style="stop-color:#002D74"/>
		</linearGradient>
		
			<polygon style="clip-path:url(#SVGID_00000181801700268269117790000014256416614867542170_);fill:url(#SVGID_00000182517884846300564590000010550932835696661653_);" points="
			80.3,17.9 104.2,31.8 92.4,52 68.6,38.1 		"/>
	</g>
	<g>
		<defs>
			<path id="SVGID_00000070120748845239399500000014793705291727467136_" d="M80,22.9C79.9,22.9,79.9,23,80,22.9L77.5,27
				c0.1-0.1,0.4-0.4,2.1,0.4l9.2,3.8l0.1,0l9.5,3.9l0.1,0.1c0.3,0.1,0.9,0.3,1.2,0.2c0,0,0.1-0.1,0.1-0.1l2.3-4
				c-0.1,0.1-0.4,0.4-2.1-0.4l-9.2-3.8l-0.1,0l-9.5-3.9l-0.1-0.1c-0.2-0.1-0.6-0.2-0.9-0.2C80.1,22.9,80,22.9,80,22.9"/>
		</defs>
		<clipPath id="SVGID_00000009567375176721848380000006826646206346674065_">
			<use xlink:href="#SVGID_00000070120748845239399500000014793705291727467136_"  style="overflow:visible;"/>
		</clipPath>
		
			<linearGradient id="SVGID_00000074443387650397228360000016914791644991993505_" gradientUnits="userSpaceOnUse" x1="-336.1884" y1="350.3524" x2="-334.1174" y2="350.3524" gradientTransform="matrix(10.4754 6.1189 6.1189 -10.4754 1456.8787 5750.0513)">
			<stop  offset="0" style="stop-color:#002D74"/>
			<stop  offset="0.2022" style="stop-color:#002D74"/>
			<stop  offset="0.4407" style="stop-color:#6778A9"/>
			<stop  offset="0.5056" style="stop-color:#848DB7"/>
			<stop  offset="0.8034" style="stop-color:#002D74"/>
			<stop  offset="1" style="stop-color:#002D74"/>
		</linearGradient>
		
			<polygon style="clip-path:url(#SVGID_00000009567375176721848380000006826646206346674065_);fill:url(#SVGID_00000074443387650397228360000016914791644991993505_);" points="
			83.8,12.2 107.6,26.1 95.8,46.2 72,32.3 		"/>
	</g>
	<g>
		<defs>
			<path id="SVGID_00000075124592512351281260000003278671307375781775_" d="M83.4,17.2C83.3,17.2,83.3,17.2,83.4,17.2l-2.5,4.1
				c0.1-0.1,0.4-0.4,2.1,0.4l9.2,3.8l0.1,0l9.4,3.9l0.1,0.1c0.3,0.1,0.9,0.3,1.2,0.2c0,0,0.1-0.1,0.1-0.1l2.3-4
				c-0.1,0.1-0.4,0.4-2.1-0.4l-9.2-3.8l-0.1,0l-9.5-3.9l-0.1-0.1c-0.2-0.1-0.6-0.2-0.9-0.2C83.5,17.1,83.4,17.1,83.4,17.2"/>
		</defs>
		<clipPath id="SVGID_00000079476370968925072410000018131260535855959229_">
			<use xlink:href="#SVGID_00000075124592512351281260000003278671307375781775_"  style="overflow:visible;"/>
		</clipPath>
		
			<linearGradient id="SVGID_00000150095302941675622310000018080322724279151759_" gradientUnits="userSpaceOnUse" x1="-336.1357" y1="350.6346" x2="-334.0649" y2="350.6346" gradientTransform="matrix(10.4753 6.1188 6.1188 -10.4753 1457.9882 5746.853)">
			<stop  offset="0" style="stop-color:#002D74"/>
			<stop  offset="0.2022" style="stop-color:#002D74"/>
			<stop  offset="0.4407" style="stop-color:#6778A9"/>
			<stop  offset="0.5056" style="stop-color:#848DB7"/>
			<stop  offset="0.8034" style="stop-color:#002D74"/>
			<stop  offset="1" style="stop-color:#002D74"/>
		</linearGradient>
		
			<polygon style="clip-path:url(#SVGID_00000079476370968925072410000018131260535855959229_);fill:url(#SVGID_00000150095302941675622310000018080322724279151759_);" points="
			87.2,6.4 111,20.3 99.2,40.5 75.4,26.6 		"/>
	</g>
	<polygon class="st0" points="171.5,72.5 171.5,72.7 172.3,72.7 172.3,74.9 172.6,74.9 172.6,72.7 173.5,72.7 173.5,72.5 	"/>
	<polygon class="st0" points="176.2,74.9 176.2,72.7 175.4,74.9 175,74.9 174.2,72.7 174.2,74.9 173.9,74.9 173.9,72.5 174.4,72.5 
		175.2,74.5 176,72.5 176.5,72.5 176.5,74.9 	"/>
</g>
</svg>
