<?xml version="1.0" encoding="utf-8"?>
<!-- Generator: Adobe Illustrator 28.0.0, SVG Export Plug-In . SVG Version: 6.00 Build 0)  -->
<svg version="1.1" id="Capa_1" xmlns="http://www.w3.org/2000/svg" xmlns:xlink="http://www.w3.org/1999/xlink" x="0px" y="0px"
	 viewBox="0 0 114 26.9" style="enable-background:new 0 0 114 26.9;" xml:space="preserve">
<style type="text/css">
	.st0{fill:#575759;}
	.st1{fill:#016AAF;}
	.st2{fill:#505050;}
	.st3{fill:#4D4D4C;}
	.st4{fill:#4F4F4F;}
	.st5{fill:#464646;}
	.st6{fill:#49484A;}
	.st7{fill:#0460AA;}
	.st8{fill:#095AA5;}
	.st9{fill:#4B4A4C;}
	.st10{fill:#4E4D4E;}
	.st11{fill:#4F4F50;}
	.st12{fill:#848585;}
	.st13{fill:#525252;}
	.st14{fill:#055AA5;}
	.st15{fill:#055BA5;}
	.st16{fill:#505052;}
	.st17{fill:#424144;}
	.st18{fill:#424245;}
	.st19{fill:#4D4C4D;}
	.st20{fill:#474647;}
	.st21{fill:#434343;}
	.st22{fill:#4E4E4E;}
	.st23{fill:#4A4A4B;}
	.st24{fill:#FCFCFC;}
	.st25{fill:#474747;}
	.st26{fill:#464547;}
	.st27{fill:#FDFDFD;}
	.st28{fill:#016BAF;}
</style>
<g>
	<g>
		<path class="st0" d="M11.5,10.3c-1.2,0.4-2.3,0.7-3.1,1.8c-1.5,1.8-1,5.4,2.1,6.3c0.3,0.1,0.6,0.2,0.8,0.3c0.3,0.3,0.5,0.2,0.8,0
			c1.3-0.5,2.6-1,3.2-2.4c-0.6-0.4-1.3-0.1-1.9-0.2c-0.4-0.1-0.9,0.1-1.3-0.1c-0.2-1-0.3-2,0.1-3c2.3-0.1,4.5-0.1,6.8,0l0,0
			c0.2,0.5-0.1,1.1,0.2,1.6c-0.1,3.6-2.2,6.3-5.6,7.2c-1-0.1-2.1,0.1-3.1,0c-2.5-0.1-5.7-2.8-6-5.9c0.1-0.9,0.1-1.8,0-2.7
			c0.2-3,3.2-5.9,6.3-6.1c0.4,0.2,0.8,0.1,1.2,0.1c6.4,0,12.8,0,19.2,0c0.4,0,0.7-0.1,1.1,0.1c-0.1-0.4-0.4-0.1-0.5-0.1
			c-6.6,0-13.2,0-19.9,0c-0.3,0-0.5,0.1-0.7-0.1c0.3-0.2,0.7-0.1,1.1-0.1c6.6,0,13.1,0,19.7,0c0.8,0,1.3,0.2,1.1,1.1
			c-0.1,0.7,0.2,1.5-0.2,2.3c-0.2-0.2-0.5-0.1-0.8-0.1c-6.6,0-13.2,0-19.7,0C11.9,10.2,11.6,10.1,11.5,10.3z"/>
		<path class="st0" d="M79.8,18.2c-0.2,1.9-1.2,3.1-3.2,3.6c-2.8,0-5.6,0-8.4,0c-0.4,0-0.9,0.1-1.3-0.2c-0.2-3.1,0-6.3-0.1-9.4
			c0-1.6-0.1-3.2,0-4.8c0.4-0.4,0.8-0.2,1.3-0.2c2.7,0,5.3-0.1,8,0.1c2.7,0.6,4.2,4.3,1.7,6.8c0.8,0.8,1.9,1.3,1.9,2.7
			C79.8,17.1,79.8,17.7,79.8,18.2z"/>
		<path class="st0" d="M91,7.2c2,0.6,3.2,1.9,3.6,4c-0.1,0.6-0.1,1.2,0,1.8c-0.2,1.6-1.2,2.6-2.5,3.4c-0.5,0.3-0.6,0.5-0.2,1
			c0.9,1.3,2.1,2.5,2.7,4c0,0.2-0.1,0.4-0.3,0.4c-1.2,0-2.3,0.3-3.5-0.2c-0.8-1.2-1.6-2.3-2.4-3.5c-0.4-0.5-2.4-0.9-3-0.6
			c-0.3,0.2-0.2,0.5-0.2,0.7c0,1,0,1.9,0,2.9c0,0.7-0.2,1-0.9,0.9c-0.8-0.1-1.6,0.2-2.4-0.2c0.1-3.4,0-6.9,0.1-10.3
			c0-1.4-0.1-2.8,0.1-4.2c0.3-0.3,0.6-0.2,1-0.2c2.5,0,4.9-0.1,7.4,0.1C90.8,7.2,90.9,7.2,91,7.2z"/>
		<path class="st0" d="M108.2,13c0.3-0.2,0.3,0,0.3,0.3c0.2,2.6,0.2,2.6-2.4,2.6c-2,0-3.9,0-5.9,0c-0.2,1-0.2,2,0,2.9l0,0
			c0.6,0.3,1.2,0.1,1.8,0.1c2.1,0,4.1,0,6.2,0c0.5,0.9,0,1.9,0.3,2.8c-0.2,0.3-0.5,0.2-0.7,0.2c-3.3,0-6.6,0-10,0
			c-0.5,0-0.9,0-0.9-0.7c0-4.6,0-9.2,0-13.9c0-0.1,0.1-0.2,0.1-0.3c3.3,0,6.6,0,9.9,0c0.4,0,0.9-0.1,1.3,0.2c0.2,0.9,0.2,1.7,0,2.6
			c-2.4,0.2-4.7,0-7.1,0.1c-0.3,0-0.7-0.2-1,0.2l0-0.1c-0.3,0.9-0.3,1.8,0,2.7l0-0.1c0.3,0.3,0.7,0.2,1,0.2
			C103.6,12.9,105.9,12.8,108.2,13z"/>
		<path class="st0" d="M52.4,7.1c0.1-0.2,0.3-0.2,0.5-0.2c3.4,0,6.8,0,10.2,0c0.6,0,0.9,0.1,0.8,0.8c-0.1,0.8,0.3,1.6-0.2,2.4
			c-2.7-0.1-5.4-0.3-8.1,0.1l0-0.1c-0.3,0.9-0.3,1.8,0,2.7l0,0c0.4,0.3,0.9,0.2,1.3,0.1c2.3,0,4.5,0.1,6.8-0.1
			c0.5,0.9,0.2,1.9,0.2,2.8c0,0.5-0.5,0.3-0.8,0.3c-2.5,0-4.9,0-7.4,0c-0.2,1-0.2,2,0,2.9l0,0c0.7,0.3,1.5,0.1,2.2,0.1
			c2,0,3.9,0.1,5.9-0.1c0.5,0.9,0.1,1.9,0.2,2.8c0,0.3-0.3,0.3-0.5,0.3c-3.6,0-7.2,0-10.7,0c0,0-0.1-0.1-0.1-0.1
			c0.1-0.1,0.3-0.1,0.4-0.1c3.4,0,6.8,0,10.2,0c-3.1,0-6.2,0-9.3,0c-0.4,0-0.8,0.1-1.2-0.1c-0.1-4.7-0.1-9.5,0-14.2
			c0.4-0.3,0.8-0.1,1.2-0.1c3.1,0,6.2,0,9.3,0c0.1,0-0.1-0.2,0-0.1c-3.4,0.3-6.8,0-10.3,0.1C52.6,7.2,52.5,7.2,52.4,7.1z"/>
		<path class="st0" d="M49.2,21.6c-0.4,0.5-0.6-0.1-0.8-0.2c-3.1-2.5-6.2-5.1-9.3-7.6c0,0-0.1,0-0.2,0c-0.3,0.8-0.1,1.6-0.1,2.4
			c-0.1,1.8,0.1,3.7-0.1,5.5c-0.9,0.3-1.9,0.3-2.8,0c-0.2-4,0-7.9-0.1-11.9c0-0.6,0-1.3,0-1.9c0-0.2,0-0.5,0.3-0.5
			c1.3,0.9,2.4,2,3.6,3c1.1,1,2.4,1.8,3.5,2.8c0.6,0.5,1.2,1.2,1.9,1.6c0.3,0.2,0.5,0.5,0.9,0.5c0.3-1.5,0.1-3,0.1-4.5
			c0.1-1.2-0.1-2.3,0.1-3.5C47.2,7,48.1,7,49,7.3c0.2,3,0,6.1,0.1,9.1C49.1,18.1,49,19.9,49.2,21.6z"/>
		<path class="st1" d="M21.6,18.6c3.5,0,7,0,10.4-0.1c0.5,0,0.7,0.1,0.7,0.6c0,0.9,0,1.7-0.1,2.6c-1,0.2-1.9,0.1-2.9,0.1
			c-2.7,0-5.4,0.1-8.1,0C21.3,20.8,21.4,19.7,21.6,18.6z"/>
		<path class="st2" d="M108.4,7.3c-3.3,0-6.6,0-9.8,0c-0.5,0-1,0-1.4-0.2c0.2-0.3,0.5-0.2,0.7-0.2c3.3,0,6.7,0,10,0
			c0.2,0,0.5-0.1,0.7,0.2C108.5,7.2,108.5,7.3,108.4,7.3z"/>
		<path class="st2" d="M10.9,7.1c6.7,0,13.5,0,20.2,0c0.4,0,0.8-0.1,1.2,0.1c-0.3,0.2-0.6,0.1-0.9,0.1c-6.6,0-13.3,0-19.9,0
			c-0.4,0-0.8,0.1-1.1-0.2C10.7,7.1,10.8,7.1,10.9,7.1z"/>
		<path class="st3" d="M11.5,10.3c-0.1-0.4,0.2-0.3,0.4-0.3c6.7,0,13.3,0,20,0c0.3,0,0.5,0,0.7,0.2c-3.3,0-6.7,0.1-10,0.1
			C18.9,10.3,15.2,10.3,11.5,10.3z"/>
		<path class="st2" d="M67,21.6c2.8,0,5.7,0,8.5,0c0.4,0,0.8-0.1,1.2,0.2C75.8,22.1,75,22,74.1,22c-2.1,0-4.2,0-6.3,0
			c-0.3,0-0.7,0.2-1-0.2C66.8,21.7,66.9,21.6,67,21.6z"/>
		<path class="st2" d="M76.2,7.2c-0.7,0.3-1.5,0.1-2.2,0.2c-2.3,0-4.7,0-7,0c-0.1,0-0.2-0.1-0.2-0.2C67.2,6.8,67.6,7,68,7
			c2.3,0,4.7,0,7,0C75.4,7,75.8,7.1,76.2,7.2z"/>
		<path class="st4" d="M91,7.2c-1.1,0.3-2.2,0.1-3.3,0.1c-1.8,0-3.6,0-5.5,0c-0.1,0-0.1-0.1-0.2-0.2c0.5-0.4,1-0.2,1.5-0.2
			C86.1,7,88.6,6.7,91,7.2z"/>
		<path class="st5" d="M36.2,7.3C35.8,7.7,36,8.1,36,8.5c0,4.4,0,8.7,0,13.1c0.1,0.2,0,0.3-0.2,0.2c0-4.7,0-9.5-0.1-14.2
			C35.7,7.3,35.7,6.9,36.2,7.3z"/>
		<path class="st3" d="M52.4,7.1c0.1,0,0.1,0,0.2,0c0.1,0,0.1,0.1,0.1,0.1c0,0-0.1,0.1-0.1,0.1c0,4.8,0,9.5,0,14.3
			c0.1,0,0.1,0.1,0.1,0.1c0,0-0.1,0.1-0.1,0.1c-0.1,0-0.1,0-0.2,0c-0.2-2.4-0.1-4.9-0.1-7.3C52.3,12,52.4,9.6,52.4,7.1z"/>
		<path class="st5" d="M66.8,7.1c0.1,0.1,0.1,0.1,0.2,0.2c0,4.8,0,9.5,0,14.3c-0.1,0.1-0.1,0.1-0.2,0.2C66.7,16.9,66.7,12,66.8,7.1z
			"/>
		<path class="st6" d="M82.1,7.1c0.1,0.1,0.1,0.1,0.2,0.2c0,4.4,0,8.8,0,13.3c0,0.4,0.1,0.8-0.2,1.2C82,16.9,82,12,82.1,7.1z"/>
		<path class="st6" d="M49.2,21.6c-0.3-0.4-0.2-0.8-0.2-1.2c0-4.4,0-8.7,0-13.1c-0.1-0.2,0-0.3,0.2-0.2
			C49.3,11.9,49.3,16.8,49.2,21.6z"/>
		<path class="st7" d="M21.6,12.8c3.5,0,6.9,0,10.4-0.1c0.6,0,0.7,0.2,0.7,0.7c0,0.8,0,1.6-0.1,2.5c-0.1,0.1-0.3,0.1-0.4-0.1
			C32,15.5,32,15.1,32,14.8c-0.1-1.4-0.1-1.4-1.5-1.4c-2.4,0-4.7,0-7.1,0c-0.6,0-1.2,0.1-1.8-0.2C21.5,13.1,21.5,12.9,21.6,12.8z"/>
		<path class="st8" d="M21.6,21.8c3.7,0,7.4,0,11,0C32.5,22.1,32.2,22,32,22c-3.5,0-7,0-10.5,0C21.5,22,21.5,21.9,21.6,21.8
			C21.5,21.8,21.5,21.8,21.6,21.8z"/>
		<path class="st7" d="M32.3,15.9c0.1,0,0.2,0,0.2,0c-0.1,0.3-0.3,0.2-0.5,0.2c-3.5,0-7,0-10.5,0c-0.1-0.2,0-0.3,0.1-0.4
			c0.5-0.2,0.9-0.2,1.4-0.2c2.5,0,5.1,0,7.6,0C31.3,15.6,31.9,15.5,32.3,15.9z"/>
		<path class="st9" d="M100.3,10.1c0.3-0.5,0.7-0.3,1.1-0.3c2.3,0,4.6,0,7,0c0.1-0.1,0.1-0.1,0.2,0c-0.2,0.5-0.6,0.2-0.9,0.3
			C105.2,10.1,102.7,10.1,100.3,10.1z"/>
		<path class="st6" d="M63.6,12.8c-0.3,0.3-0.8,0.2-1.2,0.2c-1.9,0-3.9,0-5.8,0c-0.4,0-0.8,0.2-1.1-0.3
			C58.2,12.7,60.9,12.8,63.6,12.8z"/>
		<path class="st10" d="M108.4,19.1c-2.3,0-4.6,0-7,0c-0.4,0-0.8,0.2-1.1-0.3c2.7,0,5.4,0,8.1,0.1C108.4,19,108.5,19,108.4,19.1
			C108.4,19.1,108.4,19.1,108.4,19.1z"/>
		<path class="st9" d="M55.5,10.1c0.1-0.3,0.4-0.3,0.7-0.3c2.3,0,4.5,0,6.8,0c0.2,0,0.4,0,0.6,0.2C60.9,10.1,58.2,10.1,55.5,10.1z"
			/>
		<path class="st5" d="M46.3,7.3c0,2.3,0,4.5,0,6.8c0,0.4,0.2,0.8-0.2,1.2c0-2.7,0-5.4,0.1-8.1C46.3,7.1,46.4,7.2,46.3,7.3z"/>
		<path class="st10" d="M63.6,18.9c-0.7,0.4-1.4,0.2-2.1,0.2c-1.7,0-3.3,0-5,0c-0.4,0-0.8,0.1-1-0.3C58.2,18.9,60.9,18.9,63.6,18.9z
			"/>
		<path class="st6" d="M108.2,13c-2.3,0-4.7,0-7,0c-0.3,0-0.7,0.1-0.9-0.3c2.3,0,4.6,0,6.9,0C107.5,12.8,108,12.6,108.2,13z"/>
		<path class="st6" d="M38.6,21.6c0-2.3,0-4.5,0-6.8c0-0.4-0.2-0.8,0.2-1.1c0,2.6,0,5.3-0.1,7.9C38.8,21.7,38.7,21.7,38.6,21.6z"/>
		<path class="st10" d="M12.1,13c0,1,0,2,0,2.9c0.1,0,0.1,0.1,0.1,0.1c0,0-0.1,0.1-0.1,0.1c-0.3,0-0.4-0.1-0.4-0.4
			c0-0.9,0-1.7,0-2.6c0-0.3,0.1-0.4,0.4-0.4C12.2,12.8,12.2,12.9,12.1,13C12.2,13,12.1,13,12.1,13z"/>
		<path class="st6" d="M12.1,13c0-0.1,0-0.1,0-0.2c2.1,0,4.2,0,6.3,0c0.2,0,0.4,0,0.5,0.2C16.6,13,14.4,13,12.1,13z"/>
		<path class="st2" d="M38.6,21.6c0.1,0,0.1,0,0.2,0c0,0.1,0,0.4-0.2,0.4c-1,0-2,0.2-2.9-0.1c0.1-0.1,0.1-0.1,0.2-0.2
			C36.9,21.6,37.8,21.6,38.6,21.6z"/>
		<path class="st2" d="M46.3,7.3c-0.1-0.1-0.1-0.1-0.2-0.2c1-0.3,2-0.3,3.1,0c-0.1,0.1-0.1,0.1-0.2,0.2C48.1,7.3,47.2,7.3,46.3,7.3z
			"/>
		<path class="st11" d="M10.3,21.8c1-0.4,2.1-0.3,3.1,0C12.4,22,11.4,22.2,10.3,21.8z"/>
		<path class="st12" d="M94.9,21.6c0.2,0.1,0.2,0.4,0,0.4c-1.3,0-2.6,0.3-3.9-0.2c0.9-0.3,1.8-0.1,2.7-0.1
			C94.1,21.7,94.5,21.8,94.9,21.6z"/>
		<path class="st13" d="M94.9,21.6c-1.3,0.6-2.6,0.1-3.9,0.3c0-0.1-0.1-0.2-0.1-0.2c1.3-0.1,2.5,0.3,3.8-0.2
			C94.8,21.3,94.9,21.4,94.9,21.6z"/>
		<path class="st14" d="M21.6,15.9c0,0.1,0,0.1,0,0.2c-0.4-1.1-0.4-2.2,0-3.4c0,0.1,0,0.1,0,0.2C22.1,14,22.1,15,21.6,15.9z"/>
		<path class="st15" d="M21.6,21.8c0,0.1,0,0.1,0,0.2c-0.4-1.1-0.4-2.2,0-3.4C21.6,19.7,21.6,20.8,21.6,21.8z"/>
		<path class="st6" d="M12.1,16.1c0-0.1,0-0.1,0-0.2c1,0.2,2.1-0.3,3.1,0.3C14.2,16.2,13.1,16.2,12.1,16.1z"/>
		<path class="st5" d="M55.5,18.9c-0.4-1-0.4-2,0-2.9C55.5,16.9,55.5,17.9,55.5,18.9z"/>
		<path class="st16" d="M79.8,18.2c-0.4-0.5-0.4-1.1,0-1.6C80,17.1,80.1,17.7,79.8,18.2z"/>
		<path class="st5" d="M100.3,18.9c-0.4-1-0.4-2,0-2.9C100.3,16.9,100.3,17.9,100.3,18.9z"/>
		<path class="st17" d="M108.4,19.1c0-0.1,0-0.1,0-0.2c0.5,0.9,0.2,1.9,0.2,2.9C108.2,20.9,108.5,20,108.4,19.1z"/>
		<path class="st18" d="M108.6,9.8c-0.1,0-0.1,0-0.2,0c0-0.8,0-1.7,0-2.5c0.1-0.1,0.1-0.1,0.2-0.2C108.6,8,108.6,8.9,108.6,9.8z"/>
		<path class="st19" d="M4.3,13.2c0.3,0.9,0.3,1.8,0,2.7C4.1,15,4.1,14.1,4.3,13.2z"/>
		<path class="st20" d="M55.6,12.8c-0.4-0.9-0.4-1.8,0-2.7C55.6,11,55.6,11.9,55.6,12.8z"/>
		<path class="st5" d="M100.3,12.8c-0.4-0.9-0.4-1.8,0-2.7C100.3,11,100.3,11.9,100.3,12.8z"/>
		<path class="st21" d="M94.6,13c-0.3-0.6-0.3-1.2,0-1.8C94.6,11.8,94.6,12.4,94.6,13z"/>
		<path class="st22" d="M12,18.6c-0.3,0.5-0.7,0.3-1,0.1c0.1,0,0.2-0.1,0.3-0.1C11.5,18.6,11.8,18.6,12,18.6z"/>
		<path class="st23" d="M19.1,14.6c-0.4-0.5-0.1-1.1-0.2-1.6C19.3,13.4,19.1,14,19.1,14.6z"/>
		<path class="st16" d="M7.3,14.1c0.1,0.3,0.2,0.5,0,0.8C7.1,14.6,7.1,14.3,7.3,14.1z"/>
		<path class="st24" d="M69.9,15.9c1.7,0,3.4,0,5.1,0c0.8,0,1.3,0.4,1.7,1c0.2,0.4,0.2,0.8,0,1.1c-0.3,0.4-0.7,0.6-1.1,0.9
			c-1.9,0.2-3.7,0.2-5.6,0l0,0C69.7,17.9,69.7,16.9,69.9,15.9z"/>
		<path class="st24" d="M74.8,10.1c1.5,0.7,1.2,2.1,0,2.7c-1.6,0.2-3.3,0.3-4.9,0l0,0.1c-0.3-0.9-0.3-1.8,0-2.7l0,0.1
			C71.6,9.8,73.2,9.9,74.8,10.1z"/>
		<path class="st10" d="M69.9,18.8c1.9,0,3.7,0,5.6,0c0,0,0,0.1,0.1,0.1C73.7,19.1,71.8,19.3,69.9,18.8z"/>
		<path class="st9" d="M74.8,10.1c-1.6,0-3.3,0-4.9,0.1c0.3-0.5,0.8-0.3,1.2-0.3c1.2,0,2.5,0,3.7,0c0,0,0,0.1,0,0.1
			C74.9,10,74.9,10,74.8,10.1z"/>
		<path class="st2" d="M75,15.7c-1.6,0-3.1,0-4.7,0c0,0,0-0.1,0-0.1c1.5,0,3.1,0,4.6,0C75,15.6,75,15.6,75,15.7z"/>
		<path class="st6" d="M69.9,12.7c1.6,0,3.3,0,4.9,0C73.2,13.1,71.6,13.2,69.9,12.7z"/>
		<path class="st5" d="M69.9,15.9c0,1,0,2,0,2.9C69.5,17.9,69.5,16.9,69.9,15.9z"/>
		<path class="st25" d="M70,10.1c0,0.9,0,1.8,0,2.7C69.5,11.9,69.5,11,70,10.1z"/>
		<path class="st26" d="M76.6,18c0-0.4,0-0.7,0-1.1C77,17.2,77,17.6,76.6,18z"/>
		<path class="st27" d="M85.4,14.4c-0.1-1.4-0.2-2.9,0-4.3c1.4-0.2,2.8-0.2,4.2,0c1.7,0.8,2.2,2,1.4,3.4c-0.4,0.6-1.1,0.6-1.6,0.9
			C88.1,14.5,86.8,14.5,85.4,14.4z"/>
		<path class="st9" d="M89.7,10.1c-1.4,0-2.8,0-4.2,0c-0.1,0-0.2,0-0.3,0l0,0c1.5-0.5,3-0.2,4.5-0.2C89.7,9.9,89.7,9.9,89.7,10.1
			C89.7,10,89.7,10,89.7,10.1z"/>
		<path class="st16" d="M85.2,10.1c0,1.3,0,2.7,0,4C85.1,12.7,84.7,11.4,85.2,10.1C85.2,10,85.2,10.1,85.2,10.1z"/>
		<path class="st21" d="M85.4,14.4c1.4,0,2.7,0,4.1,0C88.1,14.7,86.8,14.7,85.4,14.4z"/>
		<path class="st10" d="M85.7,17.1c0.7,0,1.5,0,2.2,0c0,0,0,0.1,0,0.1c-0.7,0-1.4,0-2.1,0C85.7,17.2,85.7,17.1,85.7,17.1z"/>
		<path class="st2" d="M52.6,21.8c0-0.1,0-0.1,0-0.2c3.6,0,7.2,0,10.7,0c0,0.1,0,0.1,0,0.2C59.8,21.8,56.2,21.8,52.6,21.8z"/>
		<path class="st2" d="M52.6,7.3c0-0.1,0-0.1,0-0.2c3.6,0,7.2,0,10.7,0c0,0.1,0,0.1,0,0.2C59.8,7.3,56.2,7.3,52.6,7.3z"/>
		<path class="st2" d="M63.4,15.6c-2.5,0-5.1,0-7.6,0c0,0,0-0.1,0-0.1C58.3,15.6,60.9,15.6,63.4,15.6C63.4,15.6,63.4,15.6,63.4,15.6
			z"/>
		<path class="st28" d="M21.6,15.9c0-1,0-2,0-2.9c3.2,0,6.3,0,9.5,0c1.1,0,1.5,0.3,1.3,1.4c-0.1,0.5,0,1,0,1.6
			C28.8,15.9,25.2,15.9,21.6,15.9z"/>
	</g>
</g>
</svg>
