<?xml version="1.0" encoding="utf-8"?>
<!-- Generator: Adobe Illustrator 28.0.0, SVG Export Plug-In . SVG Version: 6.00 Build 0)  -->
<svg version="1.1" id="Capa_1" xmlns="http://www.w3.org/2000/svg" xmlns:xlink="http://www.w3.org/1999/xlink" x="0px" y="0px"
	 viewBox="0 0 162.6 87.9" style="enable-background:new 0 0 162.6 87.9;" xml:space="preserve">
<style type="text/css">
	.st0{fill:#FF8300;}
	.st1{fill:#002E6D;}
</style>
<g>
	<path class="st0" d="M84.3,45.2c1,1.2,1.5,2.8,1.5,4.5c0,0,0,0.1,0,0.1c1.7,0.9,2.8,2.7,2.8,4.8c0,3-2.5,5.5-5.5,5.5
		c-2.1,0-4-1.2-4.9-3c-1.7,0-3.3-0.6-4.5-1.6c0,0,0,0,0,0.1c0,5.7,4.6,10.3,10.3,10.3c5.7,0,10.3-4.6,10.3-10.3
		C94.4,49.9,89.9,45.3,84.3,45.2"/>
	<path class="st1" d="M8,34.9L8,34.9h6.8V6H8V34.9z M143.1,23.3L143.1,23.3c0.2-1.5,1.2-3.8,3.7-3.8c2.7,0,3.3,2.4,3.3,3.8H143.1z
		 M155.5,25L155.5,25c0-4.7-2.3-9.4-8.4-9.4c-6.5,0-9.5,5.3-9.5,10.1c0,5.9,3.7,9.6,10.1,9.6c2.5,0,4.9-0.4,6.8-1.2l-0.8-4
		c-1.6,0.5-3.2,0.8-5.2,0.8c-2.7,0-5.1-1.2-5.3-3.6l12.2,0C155.4,26.9,155.5,26,155.5,25z M131.6,16.1L131.6,16.1l-2.4,8.7
		c-0.4,1.6-0.7,3-1,4.6h-0.1c-0.3-1.5-0.6-3-1.1-4.6l-2.5-8.7H118l6.9,18.8h5.9l7-18.8H131.6z M110.6,34.9L110.6,34.9h5.9V16.1h-5.9
		V34.9z M104.2,10.9L104.2,10.9l-5.8,1.6v3.5H88.1v0c-0.2,0-0.4,0-0.6,0c-3.2,0-5.1,1.4-5.8,2.6h-0.1l-0.3-2.6h-5.1
		c0.1,1.7,0.2,3.7,0.2,6v12.8h5.9V24c0-0.5,0-1.1,0.2-1.5c0.4-1.1,1.4-2.2,3-2.2c2.1,0,3,1.7,3,4.1v10.4h5.9V23.8
		c0-1.3-0.2-2.4-0.5-3.4h4.6v7.7c0,2.7,0.5,4.5,1.6,5.6c1,1,2.5,1.6,4.4,1.6c1.6,0,3.1-0.2,3.8-0.5l0-4.4c-0.5,0.1-0.9,0.2-1.7,0.2
		c-1.7,0-2.3-1-2.3-3.3v-6.9h4.2v-4.3h-4.2V10.9z M61.6,23.3L61.6,23.3c0.2-1.5,1.2-3.8,3.7-3.8c2.7,0,3.3,2.4,3.3,3.8H61.6z
		 M65.6,15.6L65.6,15.6c-6.5,0-9.5,5.3-9.5,10.1c0,5.9,3.7,9.6,10.1,9.6c2.6,0,4.9-0.4,6.8-1.2l-0.8-4c-1.6,0.5-3.2,0.8-5.2,0.8
		c-2.7,0-5.1-1.2-5.3-3.6l12.2,0C73.9,26.9,74,26,74,25C74,20.3,71.7,15.6,65.6,15.6z M50.1,16.1l-2.4,8.7c-0.4,1.6-0.7,3-1,4.6
		h-0.1c-0.3-1.5-0.6-3-1.1-4.6l-2.6-8.7h-6.4l6.9,18.8h5.9l7-18.8H50.1z"/>
	<path class="st1" d="M35.7,23.8v11.1h-5.9V24.5c0-2.4-0.8-4.1-3-4.1c-1.6,0-2.6,1.1-3,2.2c-0.2,0.4-0.2,0.9-0.2,1.5v10.9h-5.9V22.1
		c0-2.3-0.1-4.3-0.2-6h5.1l0.3,2.6h0.1c0.8-1.2,2.7-3,5.8-3C32.8,15.6,35.7,18.2,35.7,23.8"/>
	<path class="st1" d="M100.1,46.2l1.5,7.7c0.3,1.9,0.7,4,1,6.2h0.1c0.3-2.1,0.9-4.3,1.4-6.1l2-7.8h4.6l1.9,7.5
		c0.5,2.2,1,4.2,1.4,6.4h0.1c0.3-2.1,0.7-4.3,1.1-6.4l1.6-7.5h5.8L116.9,65h-5.5l-1.8-6.6c-0.5-1.9-0.9-3.5-1.2-5.9h-0.1
		c-0.3,2.3-0.7,4.1-1.2,5.9l-1.9,6.6h-5.5l-5.5-18.8H100.1z"/>
	<path class="st1" d="M135.2,53.4L135.2,53.4c0-1.4-0.6-3.8-3.3-3.8c-2.5,0-3.5,2.3-3.7,3.8H135.2z M128.3,57.4
		c0.2,2.5,2.6,3.6,5.3,3.6c2,0,3.6-0.3,5.2-0.8l0.8,4c-1.9,0.8-4.3,1.2-6.8,1.2c-6.4,0-10.1-3.7-10.1-9.6c0-4.8,3-10.1,9.5-10.1
		c6.1,0,8.4,4.7,8.4,9.4c0,1-0.1,1.9-0.2,2.4L128.3,57.4z"/>
	<path class="st1" d="M143.1,52.4c0-2.8,0-4.6-0.2-6.2h5l0.2,3.5h0.2c1-2.8,3.2-3.9,5.1-3.9c0.5,0,0.8,0,1.2,0.1v5.5
		c-0.5-0.1-1-0.2-1.6-0.2c-2.2,0-3.6,1.1-4,3c-0.1,0.4-0.1,0.8-0.1,1.3V65H143L143.1,52.4z"/>
	<path class="st1" d="M64.1,48.8L64.1,48.8c0.5,0.1,1.1,0.2,2,0.2c3.1,0,5.1-1.6,5.1-4.2c0-2.4-1.6-3.8-4.6-3.8
		c-1.2,0-2,0.1-2.4,0.2V48.8z M58.3,37c1.8-0.3,4.4-0.5,8-0.5c3.6,0,6.3,0.7,8,2.1c1.7,1.3,2.7,3.4,2.7,6c0,2.6-0.8,4.5-2.4,5.9
		c-2,1.9-5,3-8.5,3c-0.8,0-1.5,0-2-0.2V65h-5.8V37z"/>
	<path class="st0" d="M10.1,79.2L10.1,79.2c0.2,0,0.3,0,0.6,0c0.7,0,1.4-0.3,1.4-1c0-0.7-0.6-1-1.4-1h-0.5V79.2z M10.1,76.1
		L10.1,76.1h0.5c0.9,0,1.3-0.3,1.3-0.9c0-0.5-0.4-0.8-1.1-0.8c-0.4,0-0.6,0-0.7,0.1V76.1z M8.5,73.3c0.4-0.1,1.3-0.2,2.1-0.2
		c1,0,1.6,0.1,2.1,0.4c0.5,0.3,0.8,0.7,0.8,1.4c0,0.6-0.4,1.2-1.2,1.5v0c0.8,0.2,1.4,0.8,1.4,1.8c0,0.7-0.3,1.2-0.7,1.5
		c-0.5,0.4-1.4,0.6-2.8,0.6c-0.8,0-1.4-0.1-1.7-0.1V73.3z"/>
	<path class="st0" d="M14.9,76.9c0-0.8,0-1.3,0-1.7h1.4l0.1,1h0c0.3-0.8,0.9-1.1,1.4-1.1c0.1,0,0.2,0,0.3,0v1.5c-0.1,0-0.3,0-0.4,0
		c-0.6,0-1,0.3-1.1,0.8c0,0.1,0,0.2,0,0.4v2.6h-1.6L14.9,76.9z"/>
	<path class="st0" d="M21.9,77.2L21.9,77.2c0-0.4-0.2-1-0.9-1c-0.7,0-1,0.6-1,1H21.9z M20,78.3c0.1,0.7,0.7,1,1.5,1
		c0.5,0,1-0.1,1.4-0.2l0.2,1.1c-0.5,0.2-1.2,0.3-1.9,0.3c-1.8,0-2.8-1-2.8-2.6c0-1.3,0.8-2.7,2.6-2.7c1.7,0,2.3,1.3,2.3,2.6
		c0,0.3,0,0.5-0.1,0.6L20,78.3z"/>
	<path class="st0" d="M27.1,77.9L27.1,77.9c-0.8,0-1.5,0.2-1.5,0.8c0,0.4,0.3,0.6,0.6,0.6c0.4,0,0.7-0.3,0.8-0.6c0-0.1,0-0.2,0-0.3
		V77.9z M28.7,79.1c0,0.5,0,1,0.1,1.2h-1.4l-0.1-0.5h0c-0.3,0.4-0.9,0.6-1.5,0.6c-1,0-1.7-0.8-1.7-1.6c0-1.3,1.2-2,3-2v-0.1
		c0-0.3-0.1-0.7-0.9-0.7c-0.5,0-1.1,0.2-1.4,0.4l-0.3-1c0.4-0.2,1.1-0.5,2-0.5c1.7,0,2.3,1,2.3,2.2V79.1z"/>
	<path class="st0" d="M31.6,77.4L31.6,77.4c0.1-0.2,0.3-0.4,0.4-0.6l1-1.6h1.9l-1.8,2.1l2.1,3.1h-2L32,78.2l-0.4,0.5v1.6H30v-7.5
		h1.6V77.4z"/>
	<path class="st0" d="M35.8,80.3L35.8,80.3v-5.2h1.6v5.2H35.8z M36.6,74.5c-0.5,0-0.9-0.4-0.9-0.9c0-0.5,0.4-0.9,0.9-0.9
		c0.5,0,0.9,0.4,0.9,0.9C37.5,74.1,37.2,74.5,36.6,74.5L36.6,74.5z"/>
	<path class="st0" d="M38.7,76.8c0-0.6,0-1.2,0-1.6H40l0.1,0.7h0c0.2-0.3,0.7-0.8,1.6-0.8c1.1,0,1.9,0.7,1.9,2.2v3H42v-2.9
		c0-0.7-0.2-1.1-0.8-1.1c-0.4,0-0.7,0.3-0.8,0.6c0,0.1-0.1,0.3-0.1,0.4v3h-1.6V76.8z"/>
	<path class="st0" d="M48.2,77.3L48.2,77.3c0-0.1,0-0.2,0-0.3c-0.1-0.4-0.4-0.7-0.9-0.7c-0.6,0-1.1,0.5-1.1,1.5c0,0.8,0.4,1.4,1,1.4
		c0.4,0,0.8-0.3,0.9-0.6c0-0.1,0.1-0.3,0.1-0.4V77.3z M49.8,79.6c0,1-0.2,1.8-0.8,2.3c-0.6,0.5-1.3,0.6-2.1,0.6
		c-0.7,0-1.4-0.1-1.9-0.4l0.3-1.2c0.3,0.2,0.9,0.4,1.5,0.4c0.8,0,1.3-0.4,1.3-1.4v-0.3h0c-0.3,0.4-0.8,0.7-1.4,0.7
		c-1.3,0-2.2-1-2.2-2.5c0-1.7,1.1-2.7,2.3-2.7c0.7,0,1.2,0.3,1.4,0.7h0l0.1-0.6h1.4c0,0.3,0,0.8,0,1.5V79.6z"/>
	<path class="st0" d="M53.2,76.8c0-0.6,0-1.2,0-1.6h1.4l0.1,0.7h0c0.2-0.3,0.7-0.8,1.6-0.8c1.1,0,1.9,0.7,1.9,2.2v3h-1.6v-2.9
		c0-0.7-0.2-1.1-0.8-1.1c-0.4,0-0.7,0.3-0.8,0.6c0,0.1-0.1,0.3-0.1,0.4v3h-1.6V76.8z"/>
	<path class="st0" d="M62.5,77.2L62.5,77.2c0-0.4-0.2-1-0.9-1c-0.7,0-1,0.6-1,1H62.5z M60.6,78.3c0.1,0.7,0.7,1,1.5,1
		c0.5,0,1-0.1,1.4-0.2l0.2,1.1c-0.5,0.2-1.2,0.3-1.9,0.3c-1.8,0-2.8-1-2.8-2.6c0-1.3,0.8-2.7,2.6-2.7c1.7,0,2.3,1.3,2.3,2.6
		c0,0.3,0,0.5-0.1,0.6L60.6,78.3z"/>
	<path class="st0" d="M66,75.2l0.4,2.1c0.1,0.5,0.2,1.1,0.3,1.7h0c0.1-0.6,0.3-1.2,0.4-1.7l0.6-2.1h1.3l0.5,2.1
		c0.1,0.6,0.3,1.2,0.4,1.8h0c0.1-0.6,0.2-1.2,0.3-1.8l0.4-2h1.6l-1.6,5.2h-1.5l-0.5-1.8c-0.1-0.5-0.2-1-0.3-1.6h0
		c-0.1,0.6-0.2,1.1-0.3,1.6l-0.5,1.8h-1.5l-1.5-5.2H66z"/>
	<path class="st0" d="M78.4,77.3L78.4,77.3c0-0.1,0-0.2,0-0.3c-0.1-0.4-0.4-0.7-0.9-0.7c-0.6,0-1.1,0.5-1.1,1.5c0,0.8,0.4,1.4,1,1.4
		c0.4,0,0.8-0.3,0.9-0.6c0-0.1,0.1-0.3,0.1-0.4V77.3z M80,79.6c0,1-0.2,1.8-0.8,2.3c-0.6,0.5-1.3,0.6-2.1,0.6
		c-0.7,0-1.4-0.1-1.9-0.4l0.3-1.2c0.3,0.2,0.9,0.4,1.5,0.4c0.8,0,1.3-0.4,1.3-1.4v-0.3h0c-0.3,0.4-0.8,0.7-1.4,0.7
		c-1.3,0-2.2-1-2.2-2.5c0-1.7,1.1-2.7,2.3-2.7c0.7,0,1.2,0.3,1.4,0.7h0l0.1-0.6H80c0,0.3,0,0.8,0,1.5V79.6z"/>
	<path class="st0" d="M81.3,76.9c0-0.8,0-1.3,0-1.7h1.4l0.1,1h0c0.3-0.8,0.9-1.1,1.4-1.1c0.1,0,0.2,0,0.3,0v1.5c-0.1,0-0.3,0-0.4,0
		c-0.6,0-1,0.3-1.1,0.8c0,0.1,0,0.2,0,0.4v2.6h-1.6L81.3,76.9z"/>
	<path class="st0" d="M87.6,79.3L87.6,79.3c0.6,0,1-0.6,1-1.5c0-0.8-0.3-1.5-1-1.5c-0.8,0-1.1,0.8-1.1,1.5
		C86.5,78.6,86.9,79.3,87.6,79.3L87.6,79.3z M87.6,80.5c-1.5,0-2.7-1-2.7-2.7c0-1.7,1.1-2.7,2.8-2.7c1.6,0,2.6,1.1,2.6,2.6
		C90.3,79.6,89,80.5,87.6,80.5L87.6,80.5z"/>
	<path class="st0" d="M96.2,78.7c0,0.7,0,1.2,0,1.7h-1.4l-0.1-0.7h0c-0.2,0.3-0.7,0.8-1.6,0.8c-1.1,0-1.8-0.7-1.8-2.2v-3h1.6V78
		c0,0.8,0.2,1.2,0.8,1.2c0.4,0,0.7-0.3,0.8-0.6c0-0.1,0.1-0.2,0.1-0.3v-3.1h1.6V78.7z"/>
	<path class="st0" d="M97.5,76.8c0-0.6,0-1.2,0-1.6h1.4l0.1,0.7h0c0.2-0.3,0.7-0.8,1.6-0.8c1.1,0,1.8,0.7,1.8,2.2v3h-1.6v-2.9
		c0-0.7-0.2-1.1-0.8-1.1c-0.4,0-0.7,0.3-0.8,0.6c0,0.1-0.1,0.3-0.1,0.4v3h-1.6V76.8z"/>
	<path class="st0" d="M107,77.4L107,77.4c0-0.1,0-0.2,0-0.3c-0.1-0.4-0.4-0.8-0.9-0.8c-0.7,0-1.1,0.7-1.1,1.5c0,0.9,0.4,1.4,1.1,1.4
		c0.5,0,0.8-0.3,0.9-0.8c0-0.1,0-0.2,0-0.4V77.4z M108.7,72.9v5.9c0,0.6,0,1.2,0,1.5h-1.4l-0.1-0.7h0c-0.3,0.6-1,0.9-1.6,0.9
		c-1.2,0-2.2-1-2.2-2.6c0-1.7,1.1-2.7,2.3-2.7c0.6,0,1.1,0.2,1.4,0.6h0v-2.8H108.7z"/>
	<path class="st0" d="M112.1,80.3L112.1,80.3v-5.2h1.6v5.2H112.1z M112.9,74.5c-0.5,0-0.9-0.4-0.9-0.9c0-0.5,0.4-0.9,0.9-0.9
		c0.5,0,0.9,0.4,0.9,0.9C113.8,74.1,113.4,74.5,112.9,74.5L112.9,74.5z"/>
	<path class="st0" d="M115,76.8c0-0.6,0-1.2,0-1.6h1.4l0.1,0.7h0c0.2-0.3,0.7-0.8,1.6-0.8c1.1,0,1.8,0.7,1.8,2.2v3h-1.6v-2.9
		c0-0.7-0.2-1.1-0.8-1.1c-0.4,0-0.7,0.3-0.8,0.6c0,0.1-0.1,0.3-0.1,0.4v3H115V76.8z"/>
	<polygon class="st0" points="127.6,77.3 125,77.3 125,79 127.9,79 127.9,80.3 123.4,80.3 123.4,73.2 127.7,73.2 127.7,74.6 
		125,74.6 125,76 127.6,76 	"/>
	<path class="st0" d="M129,76.8c0-0.6,0-1.2,0-1.6h1.4l0.1,0.7h0c0.2-0.3,0.7-0.8,1.6-0.8c1.1,0,1.8,0.7,1.8,2.2v3h-1.6v-2.9
		c0-0.7-0.2-1.1-0.8-1.1c-0.4,0-0.7,0.3-0.8,0.6c0,0.1-0.1,0.3-0.1,0.4v3H129V76.8z"/>
	<path class="st0" d="M138.3,77.2L138.3,77.2c0-0.4-0.2-1-0.9-1c-0.7,0-1,0.6-1,1H138.3z M136.4,78.3c0.1,0.7,0.7,1,1.5,1
		c0.5,0,1-0.1,1.4-0.2l0.2,1.1c-0.5,0.2-1.2,0.3-1.9,0.3c-1.8,0-2.8-1-2.8-2.6c0-1.3,0.8-2.7,2.6-2.7c1.7,0,2.3,1.3,2.3,2.6
		c0,0.3,0,0.5-0.1,0.6L136.4,78.3z"/>
	<path class="st0" d="M140.7,76.9c0-0.8,0-1.3,0-1.7h1.4l0.1,1h0c0.3-0.8,0.9-1.1,1.4-1.1c0.1,0,0.2,0,0.3,0v1.5c-0.1,0-0.3,0-0.4,0
		c-0.6,0-1,0.3-1.1,0.8c0,0.1,0,0.2,0,0.4v2.6h-1.6L140.7,76.9z"/>
	<path class="st0" d="M148,77.3L148,77.3c0-0.1,0-0.2,0-0.3c-0.1-0.4-0.4-0.7-0.9-0.7c-0.6,0-1.1,0.5-1.1,1.5c0,0.8,0.4,1.4,1,1.4
		c0.4,0,0.8-0.3,0.9-0.6c0-0.1,0.1-0.3,0.1-0.4V77.3z M149.6,79.6c0,1-0.2,1.8-0.8,2.3c-0.6,0.5-1.3,0.6-2.1,0.6
		c-0.7,0-1.4-0.1-1.9-0.4l0.3-1.2c0.3,0.2,0.9,0.4,1.5,0.4c0.8,0,1.3-0.4,1.3-1.4v-0.3h0c-0.3,0.4-0.8,0.7-1.4,0.7
		c-1.3,0-2.2-1-2.2-2.5c0-1.7,1.1-2.7,2.3-2.7c0.7,0,1.2,0.3,1.4,0.7h0l0.1-0.6h1.4c0,0.3,0,0.8,0,1.5V79.6z"/>
	<path class="st0" d="M152,75.2l0.8,2.5c0.1,0.3,0.2,0.7,0.3,1h0c0.1-0.3,0.2-0.7,0.2-1l0.6-2.5h1.7l-1.2,3.4
		c-0.7,2-1.2,2.9-1.8,3.4c-0.5,0.5-1.1,0.7-1.6,0.7l-0.3-1.3c0.2,0,0.5-0.1,0.7-0.3c0.2-0.1,0.5-0.4,0.7-0.6
		c0.1-0.1,0.1-0.2,0.1-0.2c0-0.1,0-0.1-0.1-0.3l-1.9-4.7H152z"/>
	<path class="st0" d="M72.9,49.7c0-3.1,2.5-5.5,5.5-5.5c3.1,0,5.5,2.5,5.5,5.5c0,3-2.5,5.5-5.5,5.5C75.4,55.2,72.9,52.7,72.9,49.7"
		/>
</g>
</svg>
