<?xml version="1.0" encoding="utf-8"?>
<!-- Generator: Adobe Illustrator 28.0.0, SVG Export Plug-In . SVG Version: 6.00 Build 0)  -->
<svg version="1.1" id="Capa_1" xmlns="http://www.w3.org/2000/svg" xmlns:xlink="http://www.w3.org/1999/xlink" x="0px" y="0px"
	 viewBox="0 0 114 35.3" style="enable-background:new 0 0 114 35.3;" xml:space="preserve">
<style type="text/css">
	.st0{fill:#325FA9;}
	.st1{clip-path:url(#SVGID_00000125587379120732531250000002637285068477361793_);fill:#325FA9;}
	.st2{clip-path:url(#SVGID_00000125587379120732531250000002637285068477361793_);}
</style>
<g>
	<polygon class="st0" points="16.3,6.9 11.9,12.3 11.9,12.3 12.9,6.9 7.5,6.9 5,20.8 10.4,20.8 11.5,14.9 11.5,14.9 13.9,20.8 
		20.3,20.8 16.5,13.4 22.4,6.9 	"/>
	<polygon class="st0" points="24.8,6.9 36.9,6.9 36.3,10.2 29.5,10.2 29.1,12.2 35.7,12.2 35.1,15.6 28.5,15.6 28.2,17.5 35.2,17.5 
		34.6,20.8 22.3,20.8 	"/>
	<polygon class="st0" points="59.2,6.9 71.2,6.9 70.6,10.2 64,10.2 63.6,12.5 70,12.5 69.4,15.8 63,15.8 62.1,20.8 56.8,20.8 	"/>
	<polygon class="st0" points="79.2,6.9 76.7,20.8 71.3,20.8 73.8,6.9 	"/>
	<polygon class="st0" points="97.3,11 90.7,11 89,20.8 83.6,20.8 85.4,11 80.6,11 81.4,6.9 98,6.9 	"/>
	<polygon class="st0" points="107.4,11 102.7,11 100.9,20.8 95.6,20.8 97.3,11 97.1,11 97.9,6.9 108.1,6.9 	"/>
	<g>
		<defs>
			<rect id="SVGID_1_" x="4.9" y="5.1" width="105.6" height="23.8"/>
		</defs>
		<clipPath id="SVGID_00000039132928455057392750000015948499204155220394_">
			<use xlink:href="#SVGID_1_"  style="overflow:visible;"/>
		</clipPath>
		<path style="clip-path:url(#SVGID_00000039132928455057392750000015948499204155220394_);fill:#325FA9;" d="M48.3,5.1
			c5.2,0,8,4.3,7.2,8.7c-0.8,4.5-5.2,8.7-10.3,8.7c-5.2,0-7.2-4-7.4-7h3l4.2,5.1l2.8-2.4l-2.2-2.7h5.9l0.6-3.4h-5.9l3.1-2.5
			l-1.9-2.5l-5.9,5h-3C39.5,9.3,43.1,5.1,48.3,5.1"/>
		<polygon style="clip-path:url(#SVGID_00000039132928455057392750000015948499204155220394_);" points="4.9,25.9 5.5,25.9 6,28.2 
			6,28.2 6.5,25.9 7.3,25.9 7.8,28.2 7.9,28.2 8.4,25.9 9,25.9 8.2,28.8 7.5,28.8 6.9,26.5 6.9,26.5 6.4,28.8 5.6,28.8 		"/>
		<path style="clip-path:url(#SVGID_00000039132928455057392750000015948499204155220394_);" d="M11.4,25.8c0.9,0,1.4,0.6,1.4,1.5
			c0,0.9-0.5,1.5-1.4,1.5c-0.9,0-1.4-0.6-1.4-1.5C10,26.5,10.5,25.8,11.4,25.8 M11.4,28.4c0.6,0,0.8-0.5,0.8-1.1c0-0.5-0.2-1-0.8-1
			c-0.6,0-0.8,0.5-0.8,1C10.6,27.9,10.8,28.4,11.4,28.4"/>
		<path style="clip-path:url(#SVGID_00000039132928455057392750000015948499204155220394_);" d="M14.1,25.9h0.6c0.6,0,1.4,0,1.4,0.8
			c0,0.3-0.2,0.6-0.6,0.7v0c0.2,0,0.3,0.2,0.3,0.3l0.5,1.1h-0.7l-0.4-0.9c-0.1-0.2-0.2-0.3-0.4-0.3h-0.2v1.2h-0.6V25.9z M14.7,27.2
			h0.2c0.3,0,0.6,0,0.6-0.4c0-0.4-0.3-0.4-0.6-0.4h-0.2V27.2z"/>
		<polygon style="clip-path:url(#SVGID_00000039132928455057392750000015948499204155220394_);" points="17.5,25.9 18.1,25.9 
			18.1,28.4 19.3,28.4 19.3,28.8 17.5,28.8 		"/>
		<path style="clip-path:url(#SVGID_00000039132928455057392750000015948499204155220394_);" d="M20.4,25.9h0.8
			c0.9,0,1.7,0.3,1.7,1.5c0,1.2-0.8,1.5-1.7,1.5h-0.8V25.9z M21,28.4h0.3c0.5,0,1-0.4,1-1c0-0.6-0.5-1-1-1H21V28.4z"/>
		<polygon style="clip-path:url(#SVGID_00000039132928455057392750000015948499204155220394_);" points="26.2,25.9 26.8,25.9 
			26.8,28.4 27.9,28.4 27.9,28.8 26.2,28.8 		"/>
		<polygon style="clip-path:url(#SVGID_00000039132928455057392750000015948499204155220394_);" points="29,25.9 30.8,25.9 
			30.8,26.4 29.6,26.4 29.6,27.1 30.7,27.1 30.7,27.5 29.6,27.5 29.6,28.4 30.8,28.4 30.8,28.8 29,28.8 		"/>
		<path style="clip-path:url(#SVGID_00000039132928455057392750000015948499204155220394_);" d="M33,25.9h0.7l1.2,2.9h-0.7l-0.3-0.7
			h-1.2l-0.3,0.7h-0.6L33,25.9z M33.3,26.5L33.3,26.5l-0.4,1.2h0.9L33.3,26.5z"/>
		<path style="clip-path:url(#SVGID_00000039132928455057392750000015948499204155220394_);" d="M36,25.9h0.8c0.9,0,1.7,0.3,1.7,1.5
			c0,1.2-0.8,1.5-1.7,1.5H36V25.9z M36.6,28.4h0.3c0.5,0,1-0.4,1-1c0-0.6-0.5-1-1-1h-0.3V28.4z"/>
		<polygon style="clip-path:url(#SVGID_00000039132928455057392750000015948499204155220394_);" points="39.8,25.9 41.5,25.9 
			41.5,26.4 40.4,26.4 40.4,27.1 41.4,27.1 41.4,27.5 40.4,27.5 40.4,28.4 41.5,28.4 41.5,28.8 39.8,28.8 		"/>
		<path style="clip-path:url(#SVGID_00000039132928455057392750000015948499204155220394_);" d="M42.8,25.9h0.6c0.6,0,1.4,0,1.4,0.8
			c0,0.3-0.2,0.6-0.6,0.7v0c0.2,0,0.3,0.2,0.3,0.3l0.5,1.1h-0.7L44,27.9c-0.1-0.2-0.2-0.3-0.4-0.3h-0.2v1.2h-0.6V25.9z M43.4,27.2
			h0.2c0.3,0,0.6,0,0.6-0.4c0-0.4-0.3-0.4-0.6-0.4h-0.2V27.2z"/>
		<path style="clip-path:url(#SVGID_00000039132928455057392750000015948499204155220394_);" d="M47.8,26.4
			c-0.2-0.1-0.4-0.1-0.6-0.1c-0.2,0-0.5,0.1-0.5,0.4c0,0.5,1.3,0.3,1.3,1.3c0,0.6-0.5,0.9-1.1,0.9c-0.3,0-0.5,0-0.8-0.1l0.1-0.5
			c0.2,0.1,0.4,0.2,0.7,0.2c0.2,0,0.5-0.1,0.5-0.4c0-0.6-1.3-0.3-1.3-1.3c0-0.7,0.5-0.9,1-0.9c0.3,0,0.5,0,0.7,0.1L47.8,26.4z"/>
		
			<rect x="51.2" y="25.9" style="clip-path:url(#SVGID_00000039132928455057392750000015948499204155220394_);" width="0.6" height="2.9"/>
		<polygon style="clip-path:url(#SVGID_00000039132928455057392750000015948499204155220394_);" points="53.2,25.9 53.9,25.9 
			55.1,28.1 55.1,28.1 55.1,25.9 55.6,25.9 55.6,28.8 54.9,28.8 53.8,26.6 53.8,26.6 53.8,28.8 53.2,28.8 		"/>
		<path style="clip-path:url(#SVGID_00000039132928455057392750000015948499204155220394_);" d="M60.6,26.4
			c-0.2-0.1-0.4-0.1-0.6-0.1c-0.2,0-0.5,0.1-0.5,0.4c0,0.5,1.3,0.3,1.3,1.3c0,0.6-0.5,0.9-1.1,0.9c-0.3,0-0.5,0-0.8-0.1l0.1-0.5
			c0.2,0.1,0.4,0.2,0.7,0.2c0.2,0,0.5-0.1,0.5-0.4c0-0.6-1.3-0.3-1.3-1.3c0-0.7,0.5-0.9,1-0.9c0.3,0,0.5,0,0.7,0.1L60.6,26.4z"/>
		<polygon style="clip-path:url(#SVGID_00000039132928455057392750000015948499204155220394_);" points="62.7,26.4 61.8,26.4 
			61.8,25.9 64.1,25.9 64.1,26.4 63.2,26.4 63.2,28.8 62.7,28.8 		"/>
		<polygon style="clip-path:url(#SVGID_00000039132928455057392750000015948499204155220394_);" points="65.2,25.9 67,25.9 67,26.4 
			65.8,26.4 65.8,27.1 66.9,27.1 66.9,27.5 65.8,27.5 65.8,28.4 67,28.4 67,28.8 65.2,28.8 		"/>
		<path style="clip-path:url(#SVGID_00000039132928455057392750000015948499204155220394_);" d="M68.3,25.9h0.6c0.6,0,1.4,0,1.4,0.8
			c0,0.3-0.2,0.6-0.6,0.7v0c0.2,0,0.3,0.2,0.3,0.3l0.5,1.1h-0.7l-0.4-0.9c-0.1-0.2-0.2-0.3-0.4-0.3h-0.2v1.2h-0.6V25.9z M68.9,27.2
			h0.2c0.3,0,0.6,0,0.6-0.4c0-0.4-0.3-0.4-0.6-0.4h-0.2V27.2z"/>
		
			<rect x="71.6" y="25.9" style="clip-path:url(#SVGID_00000039132928455057392750000015948499204155220394_);" width="0.6" height="2.9"/>
		<polygon style="clip-path:url(#SVGID_00000039132928455057392750000015948499204155220394_);" points="73.6,25.9 74.2,25.9 
			74.2,28.4 75.4,28.4 75.4,28.8 73.6,28.8 		"/>
		<polygon style="clip-path:url(#SVGID_00000039132928455057392750000015948499204155220394_);" points="76.5,25.9 78.2,25.9 
			78.2,26.4 77.1,26.4 77.1,27.1 78.1,27.1 78.1,27.5 77.1,27.5 77.1,28.4 78.3,28.4 78.3,28.8 76.5,28.8 		"/>
		<path style="clip-path:url(#SVGID_00000039132928455057392750000015948499204155220394_);" d="M83.2,26.4
			c-0.2-0.1-0.4-0.1-0.6-0.1c-0.2,0-0.5,0.1-0.5,0.4c0,0.5,1.3,0.3,1.3,1.3c0,0.6-0.5,0.9-1.1,0.9c-0.3,0-0.5,0-0.8-0.1l0.1-0.5
			c0.2,0.1,0.4,0.2,0.7,0.2c0.2,0,0.5-0.1,0.5-0.4c0-0.6-1.3-0.3-1.3-1.3c0-0.7,0.5-0.9,1-0.9c0.3,0,0.5,0,0.7,0.1L83.2,26.4z"/>
		<path style="clip-path:url(#SVGID_00000039132928455057392750000015948499204155220394_);" d="M85.5,25.9h0.7l1.2,2.9h-0.7
			l-0.3-0.7h-1.2L85,28.8h-0.6L85.5,25.9z M85.9,26.5L85.9,26.5l-0.4,1.2h0.9L85.9,26.5z"/>
		<polygon style="clip-path:url(#SVGID_00000039132928455057392750000015948499204155220394_);" points="88.5,25.9 89.4,25.9 
			90.1,28.1 90.1,28.1 90.8,25.9 91.8,25.9 91.8,28.8 91.2,28.8 91.2,26.4 91.2,26.4 90.4,28.8 89.9,28.8 89.1,26.4 89.1,26.4 
			89.1,28.8 88.5,28.8 		"/>
		<path style="clip-path:url(#SVGID_00000039132928455057392750000015948499204155220394_);" d="M93.2,25.9h0.7
			c0.6,0,1.2,0.2,1.2,0.9c0,0.7-0.5,0.9-1.1,0.9h-0.2v1.1h-0.6V25.9z M93.8,27.3H94c0.3,0,0.6-0.1,0.6-0.4c0-0.3-0.3-0.5-0.6-0.5
			h-0.2V27.3z"/>
		<polygon style="clip-path:url(#SVGID_00000039132928455057392750000015948499204155220394_);" points="96.4,25.9 96.9,25.9 
			96.9,28.4 98.1,28.4 98.1,28.8 96.4,28.8 		"/>
		
			<rect x="99.2" y="25.9" style="clip-path:url(#SVGID_00000039132928455057392750000015948499204155220394_);" width="0.6" height="2.9"/>
		<polygon style="clip-path:url(#SVGID_00000039132928455057392750000015948499204155220394_);" points="101.4,25.9 102.1,25.9 
			103.2,28.1 103.2,28.1 103.2,25.9 103.8,25.9 103.8,28.8 103.1,28.8 101.9,26.6 101.9,26.6 101.9,28.8 101.4,28.8 		"/>
		<path style="clip-path:url(#SVGID_00000039132928455057392750000015948499204155220394_);" d="M107.3,26.5
			c-0.2-0.1-0.5-0.2-0.8-0.2c-0.7,0-1.1,0.5-1.1,1.1c0,0.6,0.4,1,1,1c0.2,0,0.3,0,0.4,0v-0.8h-0.6v-0.5h1.2v1.6
			c-0.3,0.1-0.6,0.2-0.9,0.2c-1,0-1.6-0.5-1.6-1.5c0-1,0.6-1.6,1.6-1.6c0.3,0,0.6,0,0.9,0.1L107.3,26.5z"/>
		<path style="clip-path:url(#SVGID_00000039132928455057392750000015948499204155220394_);" d="M108.6,27.1h-0.1v-1.1h-0.3v-0.1
			h0.7v0.1h-0.3V27.1z M109.2,25.7l0.5,1.1l0.5-1.1l0.1,1.3h-0.1l-0.1-0.9l-0.5,1l-0.5-1l-0.1,0.9h-0.1L109.2,25.7z"/>
		<path style="clip-path:url(#SVGID_00000039132928455057392750000015948499204155220394_);" d="M105.6,19.6c0,0.8-0.7,1.5-1.5,1.5
			c-0.8,0-1.5-0.7-1.5-1.5c0-0.8,0.7-1.5,1.5-1.5C104.9,18.1,105.6,18.8,105.6,19.6 M104.1,18.3c-0.7,0-1.2,0.6-1.2,1.3
			c0,0.7,0.6,1.3,1.3,1.3c0.7,0,1.2-0.6,1.2-1.3S104.8,18.3,104.1,18.3L104.1,18.3z M104.8,20.5h-0.4l-0.5-0.7v0.7h-0.3v-1.7h0.3
			c0.5,0,0.7,0.2,0.7,0.5c0,0.2-0.1,0.4-0.3,0.5l0,0L104.8,20.5z M103.9,19.5c0.2,0,0.4-0.1,0.4-0.2c0-0.1-0.1-0.2-0.3-0.2h-0.1
			L103.9,19.5L103.9,19.5z"/>
	</g>
</g>
</svg>
