<?xml version="1.0" encoding="utf-8"?>
<!-- Generator: Adobe Illustrator 28.0.0, SVG Export Plug-In . SVG Version: 6.00 Build 0)  -->
<svg version="1.1" id="Capa_1" xmlns="http://www.w3.org/2000/svg" xmlns:xlink="http://www.w3.org/1999/xlink" x="0px" y="0px"
	 viewBox="0 0 131.6 36.2" style="enable-background:new 0 0 131.6 36.2;" xml:space="preserve">
<style type="text/css">
	.st0{fill:#014EA1;}
	.st1{fill:#FFFFFF;}
</style>
<rect class="st0" width="131.6" height="36.2"/>
<g>
	<path class="st1" d="M47.6,24.6L47.6,24.6c-1.5,0-2.7-1.2-2.7-2.7v-6.3c0-1.5,1.2-2.7,2.7-2.7h0c1.5,0,2.7,1.2,2.7,2.7v6.3
		C50.3,23.4,49.1,24.6,47.6,24.6z"/>
	<path class="st1" d="M122.1,23.5l-6.6-10c-0.3-0.4-0.8-0.7-1.2-0.7h-0.9h-3.3h-0.5c-0.4,0-0.9,0.3-1.2,0.7l-6.6,10
		c-0.4,0.5-0.1,1.1,0.6,1.1h3.2c0.6,0,1-0.3,1.2-0.7l1.1-1.7h7.6l1.1,1.7c0.3,0.4,0.6,0.7,1.2,0.7h3.5
		C122.2,24.6,122.4,24,122.1,23.5z M109.8,19.3l1.9-2.9l1.9,2.9H109.8z"/>
	<path class="st1" d="M37.8,12.8h-5.3c-1.4,0-1.8,0.5-2.1,1L25.8,20l-4.5-6.2c-0.3-0.5-0.7-1-2.1-1h-5.5c-0.4,0-0.7,0.3-0.7,0.7
		v10.3c0,0.4,0.3,0.7,0.7,0.7h3.7c0.4,0,0.7-0.3,0.7-0.7v-7.1l4.5,6.7c0.3,0.5,0.7,1.1,1.5,1.1h2.9c0.8,0,1.2-0.6,1.5-1.1l4.8-6.7
		v7.1c0,0.4,0.3,0.7,0.7,0.7h3.7c0.4,0,0.7-0.3,0.7-0.7V13.5C38.5,13.1,38.2,12.8,37.8,12.8z"/>
	<circle class="st1" cx="47.6" cy="7.6" r="2.7"/>
	<circle class="st1" cx="47.6" cy="29.9" r="2.7"/>
	<path class="st1" d="M74,12.8H70c-0.4,0-0.7,0.3-0.7,0.7v5.1v1.4c0,1-1.3,1.7-3.2,1.7h-1.3c-1.9,0-3.2-0.8-3.2-1.7v-1.4v-5.1
		c0-0.4-0.3-0.7-0.7-0.7h-3.9c-0.4,0-0.7,0.3-0.7,0.7v5.1h0v1.1c0,2.4,2.1,4.8,8.5,4.8h1.3c6.2,0,8.5-2.3,8.5-4.8v-1.1h0v-5.1
		C74.7,13.1,74.4,12.8,74,12.8z"/>
	<path class="st1" d="M98.6,23.5c-0.3-0.4-3-3.5-3-3.5c-0.3-0.3-1-0.8-1-0.8s2.8-0.7,2.8-3c0-2.8-4.4-3.4-7.7-3.4c-1,0-3,0-4.3,0
		h-1.5h-2.5c-0.4,0-0.7,0.3-0.7,0.7v10.3c0,0.4,0.3,0.7,0.7,0.7h4c0.4,0,0.7-0.3,0.7-0.7v-3.7h2.2c1.5,0,2.4,1.1,2.7,1.5
		c0.3,0.4,1.8,2.3,1.8,2.3c0.4,0.5,0.7,0.6,1,0.6c0.3,0,4.1,0,4.1,0C98.9,24.6,99,23.9,98.6,23.5z M88.8,17.5c-0.7,0-2,0-2.7,0v-1.9
		h3c1.8,0,2.7,0.3,2.7,0.9C91.9,17,91,17.5,88.8,17.5z"/>
</g>
</svg>
