<?xml version="1.0" encoding="utf-8"?>
<!-- Generator: Adobe Illustrator 28.0.0, SVG Export Plug-In . SVG Version: 6.00 Build 0)  -->
<svg version="1.1" id="Capa_1" xmlns="http://www.w3.org/2000/svg" xmlns:xlink="http://www.w3.org/1999/xlink" x="0px" y="0px"
	 viewBox="0 0 104.4 47.9" style="enable-background:new 0 0 104.4 47.9;" xml:space="preserve">
<style type="text/css">
	.st0{fill:url(#SVGID_1_);}
	.st1{fill:url(#SVGID_00000080893801192374640020000012797969340088285614_);}
	.st2{fill:url(#SVGID_00000178190612364083853380000012518263639626315669_);}
	.st3{fill:#5580B0;}
	.st4{fill:#4E80AD;}
	.st5{fill:#074780;}
	.st6{fill:#8082A5;}
	.st7{fill:url(#SVGID_00000156562904206804708090000017744332801970840749_);}
	.st8{fill:url(#SVGID_00000062883700601920363830000012117264106307641020_);}
	.st9{fill:url(#SVGID_00000054976721144996021990000008411742879644317370_);}
</style>
<g>
	<linearGradient id="SVGID_1_" gradientUnits="userSpaceOnUse" x1="79.4894" y1="8.0062" x2="103.5311" y2="8.0062">
		<stop  offset="0" style="stop-color:#5580B0"/>
		<stop  offset="2.316689e-02" style="stop-color:#5C85B3"/>
		<stop  offset="0.1996" style="stop-color:#8DAACA"/>
		<stop  offset="0.3745" style="stop-color:#B6C9DD"/>
		<stop  offset="0.5446" style="stop-color:#D6E0EC"/>
		<stop  offset="0.7084" style="stop-color:#EDF1F6"/>
		<stop  offset="0.8633" style="stop-color:#FAFCFD"/>
		<stop  offset="1" style="stop-color:#FFFFFF"/>
	</linearGradient>
	<path class="st0" d="M79.5,4.4c0.3,0.1,0.6,0.1,0.9,0.2c7.5,1.5,14.9,3.9,22.3,7.2c0.3,0.1,0.5,0.3,0.8,0.4v-0.6
		c-0.3-0.2-0.6-0.3-0.8-0.4c-7.4-3.3-14.8-5.7-22.3-7.2c-0.3-0.1-0.6-0.2-0.9-0.2V4.4"/>
	
		<linearGradient id="SVGID_00000137133372810764505430000010127575579497202587_" gradientUnits="userSpaceOnUse" x1="48.1265" y1="5.0559" x2="78.5547" y2="5.0559">
		<stop  offset="0" style="stop-color:#5580B0"/>
		<stop  offset="1" style="stop-color:#FFFFFF"/>
	</linearGradient>
	<path style="fill:url(#SVGID_00000137133372810764505430000010127575579497202587_);" d="M78.3,4.7c-0.1-0.1-0.1-0.2-0.1-0.2
		c0,0-0.1-0.1-0.2-0.1c-9.6-1.8-19.5-1.8-29.9-0.2v2.8c9.7-1.7,19.8-1.9,30.1-0.5c0.1,0,0.1,0,0.2,0c0.1-0.1,0.1-0.1,0.1-0.1
		c0.1-0.1,0.1-0.1,0.1-0.2L78.3,4.7"/>
	
		<linearGradient id="SVGID_00000170971324600182531070000002503743169792500918_" gradientUnits="userSpaceOnUse" x1="48.1265" y1="7.2859" x2="78.7627" y2="7.2859">
		<stop  offset="0" style="stop-color:#5580B0"/>
		<stop  offset="2.316689e-02" style="stop-color:#5C85B3"/>
		<stop  offset="0.1996" style="stop-color:#8DAACA"/>
		<stop  offset="0.3745" style="stop-color:#B6C9DD"/>
		<stop  offset="0.5446" style="stop-color:#D6E0EC"/>
		<stop  offset="0.7084" style="stop-color:#EDF1F6"/>
		<stop  offset="0.8633" style="stop-color:#FAFCFD"/>
		<stop  offset="1" style="stop-color:#FFFFFF"/>
	</linearGradient>
	<path style="fill:url(#SVGID_00000170971324600182531070000002503743169792500918_);" d="M78.8,7.2c0-0.1,0-0.2-0.1-0.2
		c-0.1-0.1-0.2-0.1-0.2-0.1C68.1,5.7,57.9,6,48.1,7.8v0.6c9.8-1.8,19.9-2.1,30.3-0.9c0.1,0,0.1,0,0.2-0.1
		C78.7,7.3,78.7,7.3,78.8,7.2"/>
	<path class="st3" d="M79.5,4.4V3.9C69,1.9,58.6,1.7,48.1,3.4c-0.3,0.1-0.5,0.1-0.8,0.2c-9,1.5-18,4.4-26.9,8.6
		c-0.2,0.1-0.5,0.2-0.6,0.3c-0.1,0-0.1,0-0.1,0c-0.4,0.2-0.7,0.5-0.9,0.8l0.1-0.1l0.4,0.3c0.1-0.3,0.4-0.5,0.6-0.5l0,0
		c0.2-0.1,0.4-0.2,0.6-0.1c0,0,0.1,0,0.1,0c0.1,0.1,0.3,0.1,0.4,0.2c0.3,0.2,0.5,0.4,0.7,0.7l-2.6,1c0-0.3,0-0.6,0.1-0.9
		c0.1-0.1,0.1-0.3,0.2-0.4l-0.4-0.3c-0.1,0.2-0.2,0.3-0.2,0.5c-0.1,0.4-0.2,0.9-0.1,1.4c0,0,0,0.1,0,0.1l0,0
		c0.1,0.2,0.1,0.3,0.2,0.4c0.3,0.6,0.6,1.1,1.1,1.4c0.6,0.4,1.1,0.4,1.7,0.2c0-0.1,0-0.1,0-0.1c0.3-0.1,0.4-0.2,0.7-0.3
		c0-0.1,0-0.1,0-0.1c0.1,0,0.2-0.1,0.3-0.1l0,0c8.3-3.9,16.9-6.7,25.7-8.3V7.8c-8.8,1.6-17.3,4.4-25.7,8.3c0-0.1,0-0.1,0.1-0.2
		c0.1-0.3,0.1-0.5,0.1-0.7c0-0.4-0.1-0.7-0.2-1.1V14c-0.1-0.1-0.1-0.2-0.2-0.3l0,0l-0.1-0.1c-0.2-0.5-0.5-0.8-0.9-1
		c0.1,0,0.1,0,0.1,0c0.1,0,0.2,0.1,0.3,0.1c0.4,0.2,0.6,0.5,0.8,0.9h0.1c0.1,0.1,0.1,0.2,0.2,0.3c0.1,0.3,0.2,0.6,0.2,0.9
		c0,0.1,0,0.1,0.1,0.2c0,0,0.1,0.1,0.1,0.1c0.1,0.1,0.1,0,0.2,0c8-3.8,16.4-6.4,24.9-7.9V4.3c-7.3,1.2-14.9,3.2-22.6,6.1
		c7.2-3,14.5-5.1,21.8-6.3c0.3,0,0.5-0.1,0.8-0.1C58.6,2.2,69,2.4,79.5,4.4"/>
	<path class="st4" d="M99.5,19.4c-0.6-0.5-1.4-0.8-2.4-0.8c-0.6,0-1,0.1-1.5,0.3c-0.5,0.3-0.8,0.7-1,1.5v-1.6h-3.1v10.1h3.3v-5.7
		c0-1.4,0.4-2.1,1.3-2.1c0.3,0,0.4,0.1,0.6,0.2c0.2,0.2,0.3,0.3,0.3,0.6c0,0.2,0.1,0.6,0.1,1.3v5.7h3.3v-6.4
		C100.4,20.9,100.1,19.9,99.5,19.4"/>
	<path class="st4" d="M78.3,19.2c-0.6-0.4-1.6-0.6-2.6-0.6c-1.3,0-2.4,0.3-3.2,0.9c-0.8,0.6-1.2,1.5-1.2,2.4c0,0.8,0.3,1.5,0.7,2
		c0.1,0.1,0.2,0.2,0.3,0.3c0.7,0.5,2,0.9,4.1,1.1c0.6,0.1,0.9,0.3,0.9,0.6c0,0.2-0.1,0.4-0.4,0.6c-0.3,0.1-0.7,0.2-1.1,0.2
		c-1.1,0-1.8-0.5-2-1.4L71,25.9c0.5,2.1,2.1,3.3,4.7,3.3c1.4,0,2.5-0.4,3.4-1c0.8-0.7,1.2-1.5,1.2-2.6c0-0.6-0.1-1.1-0.4-1.6
		c-0.1-0.1-0.1-0.2-0.2-0.3c-0.4-0.5-0.8-0.8-1.4-1c-0.6-0.2-1.4-0.4-2.5-0.5c-0.7-0.1-1.1-0.2-1.2-0.3c-0.2-0.1-0.2-0.2-0.2-0.4
		c0-0.5,0.4-0.7,1.2-0.7c0.9,0,1.5,0.5,1.7,1.4l2.5-0.6C79.5,20.4,79,19.6,78.3,19.2"/>
	<path class="st4" d="M85.4,18.6c-1,0-1.9,0.2-2.6,0.7c-0.7,0.5-1.2,1.1-1.7,1.9c-0.4,0.7-0.6,1.6-0.6,2.7c0,0.1,0,0.1,0,0.2
		c0.1,1.5,0.5,2.7,1.3,3.7c0.8,1,2,1.5,3.4,1.5c1.5,0,2.8-0.5,3.6-1.5c0.9-1,1.4-2.3,1.4-3.7c0-0.1,0-0.1,0-0.1
		c0-1.5-0.5-2.8-1.4-3.8C88.2,19.1,87,18.6,85.4,18.6l0.1,2.3c0.5,0,0.8,0.2,1,0.6c0.3,0.4,0.4,1.2,0.4,2.5c0,1.1-0.1,1.9-0.4,2.3
		c-0.3,0.4-0.6,0.6-1,0.6c-0.5,0-0.8-0.3-1-0.7C84.2,25.7,84.1,25,84,24c0-0.1,0-0.2,0-0.2c0-1.2,0.2-2,0.4-2.4
		c0.2-0.4,0.6-0.5,1.1-0.5"/>
	<path class="st5" d="M86.7,29.9C86.7,29.9,86.7,29.9,86.7,29.9c-8.3,4-16.9,6.7-25.6,8.3v0.5c8.8-1.6,17.3-4.3,25.6-8.2
		c0,0.1-0.1,0.1-0.1,0.2c-0.1,0.2-0.1,0.5-0.1,0.7c0,0.4,0.1,0.7,0.2,1.1l0.1,0.1c0.1,0.1,0.1,0.2,0.1,0.3l0,0
		c0.3,0.5,0.6,0.9,1,1.1c-0.1,0-0.1,0-0.1,0c-0.2-0.1-0.2-0.1-0.4-0.2c-0.3-0.2-0.6-0.5-0.8-0.9l0,0c0-0.1-0.1-0.2-0.1-0.3
		c-0.2-0.3-0.2-0.5-0.2-0.8c0-0.1,0-0.1-0.1-0.2c-0.1-0.1-0.1-0.1-0.2-0.1c-0.1-0.1-0.1,0-0.2,0c-8,3.8-16.4,6.4-24.8,7.9v2.8
		c7.3-1.2,14.9-3.2,22.6-6.1c-7.3,3-14.5,5.1-21.8,6.3c-0.3,0-0.5,0.1-0.8,0.1c-10.5,1.7-21,1.6-31.4-0.4v0.5
		c10.4,2,20.9,2.1,31.4,0.4c0.3,0,0.5-0.1,0.8-0.1c8.9-1.5,17.9-4.4,26.9-8.5c0.2-0.1,0.4-0.3,0.7-0.3c0,0,0,0,0-0.1
		c0.4-0.1,0.7-0.4,0.9-0.7l-0.1-0.1l-0.4-0.3c-0.2,0.3-0.4,0.5-0.6,0.6c0,0.1,0,0.1-0.1,0.1c-0.2,0.1-0.4,0.1-0.6,0h-0.1
		c-0.2,0-0.3-0.1-0.4-0.2c-0.3-0.2-0.5-0.3-0.6-0.6l2.5-1c0.1,0.3,0,0.6-0.1,0.9c0,0.2,0,0.2-0.1,0.3l0.4,0.3
		c0.1-0.1,0.2-0.3,0.2-0.4c0.2-0.5,0.2-0.9,0.1-1.3c0-0.1,0-0.1-0.1-0.2v-0.1c0-0.1-0.1-0.3-0.1-0.4c-0.3-0.6-0.7-1.1-1.2-1.5
		c-0.5-0.3-1-0.3-1.6-0.2c-0.1,0-0.1,0-0.1,0c-0.2,0.1-0.5,0.3-0.7,0.4c0,0,0,0-0.1,0C86.8,29.8,86.8,29.9,86.7,29.9"/>
	<polyline class="st6" points="86.9,32.8 86.9,32.8 86.9,32.8 86.9,32.8 	"/>
	<path class="st6" d="M90.3,33.3L90.3,33.3L90.3,33.3C90.3,33.3,90.3,33.3,90.3,33.3"/>
	
		<linearGradient id="SVGID_00000113337095775966787300000012823982812662350986_" gradientUnits="userSpaceOnUse" x1="5.8069" y1="38.5905" x2="29.6927" y2="38.5905">
		<stop  offset="0" style="stop-color:#FFFFFF"/>
		<stop  offset="7.407052e-02" style="stop-color:#F6F8FA"/>
		<stop  offset="0.1955" style="stop-color:#DDE6EE"/>
		<stop  offset="0.3493" style="stop-color:#B5C8D9"/>
		<stop  offset="0.5294" style="stop-color:#7D9FBD"/>
		<stop  offset="0.7292" style="stop-color:#376B99"/>
		<stop  offset="0.8547" style="stop-color:#074780"/>
	</linearGradient>
	<path style="fill:url(#SVGID_00000113337095775966787300000012823982812662350986_);" d="M5.8,34.5v0.6c7.6,3.4,15.2,5.9,22.9,7.4
		c0.3,0.1,0.6,0.2,1,0.2v-0.5c-0.4-0.1-0.7-0.1-1-0.2C21.1,40.5,13.4,38,5.8,34.5"/>
	
		<linearGradient id="SVGID_00000043440002828533149100000008098500866947694991_" gradientUnits="userSpaceOnUse" x1="30.3678" y1="39.2519" x2="61.056" y2="39.2519">
		<stop  offset="0" style="stop-color:#FFFFFF"/>
		<stop  offset="7.407052e-02" style="stop-color:#F6F8FA"/>
		<stop  offset="0.1955" style="stop-color:#DDE6EE"/>
		<stop  offset="0.3493" style="stop-color:#B5C8D9"/>
		<stop  offset="0.5294" style="stop-color:#7D9FBD"/>
		<stop  offset="0.7292" style="stop-color:#376B99"/>
		<stop  offset="0.8547" style="stop-color:#074780"/>
	</linearGradient>
	<path style="fill:url(#SVGID_00000043440002828533149100000008098500866947694991_);" d="M30.5,39.5c0.1,0.1,0.1,0.1,0.2,0.2
		c10.4,1.1,20.6,0.8,30.4-1v-0.5c-9.8,1.8-19.9,2.1-30.4,1c-0.1-0.1-0.2,0-0.2,0.1c-0.1,0-0.1,0.1-0.2,0.2
		C30.4,39.5,30.4,39.5,30.5,39.5"/>
	
		<linearGradient id="SVGID_00000093863272560658813370000003664358449715258276_" gradientUnits="userSpaceOnUse" x1="30.6272" y1="41.4795" x2="61.056" y2="41.4795">
		<stop  offset="0" style="stop-color:#FFFFFF"/>
		<stop  offset="7.407052e-02" style="stop-color:#F6F8FA"/>
		<stop  offset="0.1955" style="stop-color:#DDE6EE"/>
		<stop  offset="0.3493" style="stop-color:#B5C8D9"/>
		<stop  offset="0.5294" style="stop-color:#7D9FBD"/>
		<stop  offset="0.7292" style="stop-color:#376B99"/>
		<stop  offset="0.8547" style="stop-color:#074780"/>
	</linearGradient>
	<path style="fill:url(#SVGID_00000093863272560658813370000003664358449715258276_);" d="M30.9,42.1c0.1,0,0.1,0,0.1,0.1
		c9.6,1.8,19.6,1.8,30,0.2v-2.8c-9.8,1.7-19.8,1.8-30.2,0.5c-0.1,0-0.1,0-0.2,0c0,0-0.1,0.1-0.1,0.1c0,0.1,0,0.1,0,0.2l0.3,1.6
		C30.9,42,30.9,42,30.9,42.1"/>
	<path class="st5" d="M26.1,19.6c-0.3-0.4-0.8-0.6-1.4-0.8c-0.6-0.2-1.2-0.2-2-0.2c-1.1,0-2.1,0.2-3.1,0.7c-0.9,0.5-1.5,1.4-1.7,2.6
		l3.1,0.3c0.2-1,0.6-1.4,1.6-1.4c0.8,0,1.2,0.4,1.2,1.2v0.4c-1.8,0.1-3.1,0.3-3.9,0.6c-0.5,0.2-1,0.5-1.3,0.9
		c-0.2,0.1-0.3,0.3-0.4,0.4c-0.3,0.6-0.5,1.2-0.5,1.8c0,0.9,0.3,1.6,0.9,2.2c0.6,0.6,1.4,0.8,2.4,0.8c0.7,0,1.2-0.2,1.8-0.4
		c0.5-0.2,0.9-0.7,1.1-1.4l-0.6-1C23,26.8,22.6,27,22.2,27c-0.4,0-0.6-0.1-0.7-0.3c-0.2-0.2-0.3-0.5-0.3-0.8c0-0.9,0.9-1.5,2.6-1.6
		v0.7c0,0.6-0.2,1-0.5,1.5l0.6,1c0,0.5,0.1,1,0.2,1.5h3.2c-0.1-0.5-0.2-1.2-0.2-2v-4.4c0-0.9-0.1-1.5-0.2-1.9
		C26.7,20.2,26.5,19.9,26.1,19.6"/>
	<path class="st5" d="M29.3,15.7v3.1h-1.8v2.6h1.6v4.4c0,1.2,0.3,2.1,0.8,2.6c0.5,0.5,1.5,0.8,2.7,0.8c0.4,0,1-0.1,2-0.3v-2.5
		c-0.5,0-0.8,0-1.1,0c-0.5,0-0.8-0.1-0.9-0.2c-0.2-0.1-0.2-0.4-0.2-0.9v-3.9h2.1v-2.6h-2.1v-3.1H29.3"/>
	<path class="st5" d="M16,17.1c-0.4-0.7-1-1.1-1.7-1.4c-0.7-0.3-1.6-0.4-2.6-0.4h-6v13.6h3.5v-5.2V21v-3h1.6c0.3,0,0.5,0,0.7,0
		c0.3,0,0.6,0.1,0.7,0.1c0.3,0.1,0.5,0.3,0.6,0.5c0.2,0.3,0.3,0.5,0.3,0.8c0,0.4-0.1,0.7-0.3,0.9c-0.2,0.3-0.4,0.5-0.7,0.5
		C11.9,21,11.7,21,11.4,21c-0.2,0-0.4,0-0.6,0H9.1v2.7H11l2,5.2h3.8L14.3,23c1.6-0.7,2.3-1.8,2.3-3.5C16.7,18.7,16.4,17.9,16,17.1"
		/>
	<path class="st4" d="M67,18.6c-1.2,0-1.9,0.5-2.2,1.4l0.4,1.5c0.2-0.4,0.6-0.5,0.9-0.5c0.4,0,0.7,0.1,1,0.5
		c0.3,0.3,0.4,1.1,0.4,2.4c0,0.1,0,0.1,0,0.2c-0.1,1.1-0.2,1.9-0.4,2.2c-0.3,0.4-0.6,0.6-1,0.6c-0.4,0-0.6-0.2-0.9-0.4
		c-0.3-0.4-0.4-0.8-0.4-1.5V23c0-0.7,0.2-1.2,0.4-1.6L64.8,20v-4.7h-3.3v13.6h2.3v-1.5c0.4,0.7,0.7,1.1,1.2,1.4
		c0.5,0.3,1,0.4,1.7,0.4c1.4,0,2.4-0.5,3.1-1.5c0.7-1,1-2.2,1-3.7c0-0.1,0-0.1,0-0.2c0-1.6-0.4-2.9-1-3.8
		C69.2,19.1,68.2,18.6,67,18.6"/>
	<polyline class="st4" points="57.5,15.1 57.5,18.3 60.8,18.3 60.8,15.1 57.5,15.1 	"/>
	<path class="st4" d="M56.7,20c-0.3-1.5-0.8-2.7-1.8-3.6c-0.9-0.9-2.1-1.3-3.7-1.3c-1.8,0-3.2,0.7-4.3,2c-1,1.4-1.6,3.1-1.6,5.2
		c0,0.6,0.1,1.2,0.1,1.7c0.2,1.2,0.7,2.3,1.4,3.2c1,1.3,2.4,2,4.2,2c1.6,0,2.8-0.6,3.6-1.8v1.5h2.1v-7.5h-5.8v2.9h2.4
		c0,0.6-0.2,1-0.6,1.4c-0.4,0.4-0.8,0.5-1.4,0.5c-0.8,0-1.4-0.4-1.8-1c-0.2-0.4-0.4-0.8-0.5-1.2c-0.1-0.5-0.2-1.1-0.2-1.8
		c0-1.4,0.3-2.4,0.6-3.1c0.4-0.7,0.9-1,1.7-1c1.2,0,1.9,0.8,2.1,2.3L56.7,20"/>
	<polyline class="st4" points="60.8,18.8 57.5,18.8 57.5,28.9 60.8,28.9 60.8,18.8 	"/>
	<path class="st5" d="M42.8,19.1c-0.5-0.4-1.1-0.5-1.8-0.5c-1.3,0-2.1,0.5-2.4,1.5v-4.8h-3.2v13.6h3.2v-5.7c0-0.9,0.2-1.4,0.5-1.7
		c0.3-0.3,0.6-0.4,0.9-0.4c0.3,0,0.4,0.1,0.6,0.2c0.1,0.1,0.3,0.3,0.3,0.6c0.1,0.2,0.1,0.6,0.1,1.2v5.7h3.3v-6.6
		c0-0.9-0.1-1.6-0.3-2.1C43.7,19.7,43.3,19.4,42.8,19.1"/>
</g>
</svg>
