<?xml version="1.0" encoding="utf-8"?>
<!-- Generator: Adobe Illustrator 28.0.0, SVG Export Plug-In . SVG Version: 6.00 Build 0)  -->
<svg version="1.1" id="Capa_1" xmlns="http://www.w3.org/2000/svg" xmlns:xlink="http://www.w3.org/1999/xlink" x="0px" y="0px"
	 viewBox="0 0 87.3 34" style="enable-background:new 0 0 87.3 34;" xml:space="preserve">
<style type="text/css">
	.st0{fill:#F0822F;}
	.st1{fill:#FEFEFE;}
	.st2{fill:#E63141;}
	.st3{fill:#ED727F;}
	.st4{fill:#EF7E14;}
	.st5{fill:#E3151F;}
	.st6{fill:#E62F3D;}
	.st7{fill:#EF7D24;}
	.st8{fill:#E52535;}
	.st9{fill:#E52231;}
	.st10{fill:#EF7F14;}
	.st11{fill:#EF822D;}
	.st12{fill:#F08433;}
	.st13{fill:#E63446;}
	.st14{fill:#EF801E;}
	.st15{fill:#FDF4EF;}
	.st16{fill:#F08333;}
	.st17{fill:#FDF5F0;}
	.st18{fill:#FCEDE5;}
	.st19{fill:#FCEEE5;}
	.st20{fill:#FCEFE6;}
	.st21{fill:#FDF3EE;}
	.st22{fill:#FCF1EB;}
	.st23{fill:#FBE9DF;}
	.st24{fill:#FCE9DF;}
	.st25{fill:#F08328;}
	.st26{fill:#F08332;}
	.st27{fill:#EF8225;}
	.st28{fill:#EF8226;}
	.st29{fill:#FCECE4;}
	.st30{fill:#F08324;}
	.st31{fill:#FCEBE1;}
	.st32{fill:#FCEAE0;}
	.st33{fill:#F08426;}
	.st34{fill:#EF8121;}
	.st35{fill:#FCEEE7;}
	.st36{fill:#EE7B13;}
	.st37{fill:#EF7E13;}
	.st38{fill:#F08436;}
	.st39{fill:#FCE8DC;}
	.st40{fill:#EF7E23;}
	.st41{fill:#EE7814;}
	.st42{fill:#EF8321;}
	.st43{fill:#F08227;}
	.st44{fill:#EF8020;}
	.st45{fill:#F08526;}
	.st46{fill:#EF8224;}
	.st47{fill:#EF8222;}
	.st48{fill:#EE771B;}
	.st49{fill:#EF8025;}
	.st50{fill:#F18B37;}
	.st51{fill:#EF7D25;}
	.st52{fill:#EE7B26;}
	.st53{fill:#F08427;}
	.st54{fill:#F08935;}
	.st55{fill:#EF7C2A;}
	.st56{fill:#EF8125;}
	.st57{fill:#EF8227;}
	.st58{fill:#EF7E1B;}
	.st59{fill:#EF8120;}
	.st60{fill:#F08538;}
	.st61{fill:#F08537;}
	.st62{fill:#F0862B;}
	.st63{fill:#EE7611;}
	.st64{fill:#F0862D;}
	.st65{fill:#EF8326;}
	.st66{fill:#EF7E1C;}
	.st67{fill:#EE7A14;}
	.st68{fill:#EE7A1B;}
	.st69{fill:#F0842A;}
	.st70{fill:#ED751A;}
	.st71{fill:#F08839;}
	.st72{fill:#F08738;}
	.st73{fill:#EE7B1D;}
	.st74{fill:#ED7712;}
	.st75{fill:#F19042;}
	.st76{fill:#F0852C;}
	.st77{fill:#F08438;}
	.st78{fill:#FCECE3;}
	.st79{fill:#ED7511;}
	.st80{fill:#ED7211;}
	.st81{fill:#F0863B;}
	.st82{fill:#F0863C;}
	.st83{fill:#F0842C;}
	.st84{fill:#F08539;}
	.st85{fill:#F08A3A;}
	.st86{fill:#EE7612;}
	.st87{fill:#FBDFCC;}
	.st88{fill:#ED7115;}
	.st89{fill:#F08437;}
	.st90{fill:#EE7714;}
	.st91{fill:#EE7813;}
	.st92{fill:#EE7715;}
	.st93{fill:#EF7F21;}
	.st94{fill:#ED7711;}
	.st95{fill:#EE7C14;}
	.st96{fill:#E62E3F;}
	.st97{fill:#E52531;}
	.st98{fill:#E62E38;}
	.st99{fill:#E7374A;}
	.st100{fill:#E31D1F;}
	.st101{fill:#E52C35;}
	.st102{fill:#E31B1C;}
	.st103{fill:#E4222C;}
	.st104{fill:#E63443;}
	.st105{fill:#E52832;}
	.st106{fill:#E41E29;}
	.st107{fill:#E41E25;}
	.st108{fill:#E41C22;}
	.st109{fill:#E3191D;}
	.st110{fill:#E63037;}
	.st111{fill:#E41E28;}
	.st112{fill:#E42029;}
	.st113{fill:#E5242D;}
	.st114{fill:#E4212D;}
	.st115{fill:#E42122;}
	.st116{fill:#E62D3B;}
	.st117{fill:#E41C33;}
	.st118{fill:#E3171E;}
	.st119{fill:#E52D2E;}
	.st120{fill:#E41530;}
	.st121{fill:#E6333A;}
	.st122{fill:#E41F2C;}
	.st123{fill:#E31A1A;}
	.st124{fill:#E52933;}
	.st125{fill:#E3141B;}
	.st126{fill:#E52735;}
	.st127{fill:#E41E32;}
	.st128{fill:#E52E35;}
	.st129{fill:#E52A36;}
	.st130{fill:#E41C24;}
	.st131{fill:#E41E27;}
	.st132{fill:#E62E39;}
	.st133{fill:#E42325;}
	.st134{fill:#E52433;}
	.st135{fill:#E42025;}
	.st136{fill:#E52430;}
	.st137{fill:#E4242C;}
	.st138{fill:#E52B35;}
	.st139{fill:#E31A19;}
	.st140{fill:#E42027;}
	.st141{fill:#E52634;}
	.st142{fill:#E62F34;}
	.st143{fill:#E52D32;}
	.st144{fill:#E3181C;}
	.st145{fill:#E63135;}
	.st146{fill:#E52733;}
	.st147{fill:#E31718;}
	.st148{fill:#F2989E;}
	.st149{fill:#E31A1C;}
	.st150{fill:#E31419;}
	.st151{fill:#E52B2E;}
	.st152{fill:#EF8324;}
	.st153{fill:#E62F33;}
	.st154{fill:#E4212F;}
	.st155{fill:#E3151A;}
	.st156{fill:#E3171B;}
	.st157{fill:#E31714;}
	.st158{fill:#E31B18;}
	.st159{fill:#E52834;}
	.st160{fill:#E73745;}
	.st161{fill:#E31518;}
	.st162{fill:#E63439;}
	.st163{fill:#E31715;}
	.st164{fill:#E31519;}
	.st165{fill:#F08831;}
	.st166{fill:#E31619;}
	.st167{fill:#E3151C;}
	.st168{fill:#E3161A;}
	.st169{fill:#E31818;}
	.st170{fill:#E31615;}
	.st171{fill:#F0852A;}
	.st172{fill:#E52C3B;}
	.st173{fill:#E63041;}
	.st174{fill:#F18E47;}
	.st175{fill:#EF812D;}
	.st176{fill:#F9D4BE;}
	.st177{fill:#F2914A;}
	.st178{fill:#F0873A;}
	.st179{fill:#EF8126;}
	.st180{fill:#F18F52;}
	.st181{fill:#EE791E;}
	.st182{fill:#F18A3A;}
	.st183{fill:#ED7025;}
	.st184{fill:#F5AA83;}
	.st185{fill:#F0893D;}
	.st186{fill:#ED7112;}
	.st187{fill:#F29640;}
	.st188{fill:#F08340;}
	.st189{fill:#EF7F2B;}
	.st190{fill:#FBE0CF;}
	.st191{fill:#FDF5F1;}
	.st192{fill:#F0842F;}
	.st193{fill:#F08529;}
	.st194{fill:#F08536;}
	.st195{fill:#EC6D14;}
	.st196{fill:#FBE5D7;}
	.st197{fill:#ED7213;}
	.st198{fill:#EF812B;}
	.st199{fill:#EE7B11;}
	.st200{fill:#F18D3C;}
	.st201{fill:#EC6A15;}
	.st202{fill:#E41B32;}
	.st203{fill:#E63344;}
	.st204{fill:#E4142E;}
	.st205{fill:#E31A1D;}
	.st206{fill:#E7384B;}
	.st207{fill:#E63342;}
	.st208{fill:#E31B1D;}
	.st209{fill:#E63343;}
	.st210{fill:#E63140;}
	.st211{fill:#E41A30;}
	.st212{fill:#E7384C;}
	.st213{fill:#E52038;}
	.st214{fill:#E31425;}
	.st215{fill:#E63545;}
	.st216{fill:#E7394B;}
	.st217{fill:#E3151B;}
	.st218{fill:#E7384A;}
	.st219{fill:#E63244;}
	.st220{fill:#E73645;}
	.st221{fill:#E3161B;}
	.st222{fill:#E41B2B;}
	.st223{fill:#E73B4C;}
	.st224{fill:#E73849;}
	.st225{fill:#E73747;}
	.st226{fill:#E73748;}
	.st227{fill:#E73847;}
	.st228{fill:#E31616;}
	.st229{fill:#E63746;}
	.st230{fill:#E63748;}
	.st231{fill:#E31617;}
	.st232{fill:#E31520;}
	.st233{fill:#E63544;}
	.st234{fill:#E63647;}
	.st235{fill:#E3161D;}
	.st236{fill:#E73848;}
	.st237{fill:#E41922;}
	.st238{fill:#E73A4C;}
	.st239{fill:#E63444;}
	.st240{fill:#E31515;}
	.st241{fill:#E62E40;}
</style>
<g>
	<path class="st0" d="M84.3,30.2c-26.9,0-53.9,0-80.8,0c-0.6,0-0.7-0.1-0.7-0.7c0-3.7,0-7.3,0-11c0.3-0.3,0.6-0.2,1-0.2
		c2.2,0,4.5,0,6.7,0c0,0,0,0,0,0c-2.2,0-4.5,0-6.7,0c-0.3,0-0.7,0.1-1-0.2c0-0.1,0-0.1,0-0.2C3,17.4,3.5,17.4,4,17.4
		c2.2,0,4.4,0,6.6,0c0.4,0,0.7,0,1.1-0.1c0.2,0,0.4,0.1,0.5-0.2c0.2-0.2,0-0.5,0.1-0.7c0.2-0.6,0.1-1.3,0.7-1.8
		c0.2-0.1,0.4-0.2,0.6-0.2c0.9,0.4,1.5,1.2,2.2,1.9c0.4,0.4,0.8,0.9,1.5,0.9c0.5,0.2,1,0.1,1.5,0.1c4,0,8,0,12,0
		c0.5,0,1.1-0.1,1.3,0.5c-0.1,0.6-0.5,0.4-0.9,0.4c-2.2,0-4.3,0-6.5,0c-1.9,0-3.8,0-5.7,0c0,0,0,0,0,0c4,0,7.9,0,11.8,0
		c0.4,0,0.9-0.1,1,0.5c0,0.1,0,0.3,0,0.4c-0.1,0.4-0.4,0.7-0.6,1.1c-0.1,0.1-0.1,0.1-0.2,0.1c-0.1,0-0.3,0-0.4-0.1
		c-2,0.1-4,0-6.1,0.1c-0.3,0-0.5-0.1-0.8,0c2-0.1,3.9,0,5.9,0c0.4,0,0.9-0.2,1.3,0.1c-0.1,0.6-0.6,0.6-1.1,0.6c-1.8,0-3.6,0-5.4,0
		c-0.5,0-0.9,0-1.3,0.2c-0.3,0.1-0.6,0.2-0.7,0.6c0.2-0.1,0.3-0.1,0.4,0c0.3,0.3,0.7,0.4,1.1,0.4c2.2,0,4.4,0,6.6,0
		c0.8,0,1.4-0.4,2.1-0.7c0.7,0,1.1-0.6,1.2-1.1c0.2-0.6,0.4-1.1,0.6-1.7c0.2-0.9,0.6-1,1.5-0.6c0.2,0.6-0.1,1-0.3,1.5
		c-0.2,0.2-0.2,0.5-0.2,0.7c0.1,0.5-0.1,1-0.2,1.5c-0.1,0.3-0.1,0.5,0,0.8c0.1,0.1,0.1,0.2,0.3,0.3c0.5,0.2,1,0.2,1.4,0
		c0.1-0.1,0.2-0.2,0.3-0.3c0.4-0.7,0.5-1.5,0.8-2.2c0.1-0.3,0.2-0.5,0.2-0.8c0-0.1,0.1-0.2,0.1-0.2c0.2-1,0.9-1.2,1.8-1.2
		c4.4,0.1,8.8,0,13.2,0c0.4,0,0.8,0,1.2-0.1c0.1,0,0.3-0.1,0.3-0.2c0-0.1,0-0.2,0.1-0.3c0.1-0.2,0.2-0.4,0.4-0.5
		c0.5-0.3,0.3-0.8,0.5-1.2c0.1-0.2,0-0.4,0.1-0.6c0.4-0.4,0.7-0.2,1,0.1c0.8,0.7,1.5,1.5,2.2,2.2c0.1,0.1,0.2,0.1,0.3,0.2
		c0.1,0.1,0.2,0.1,0.4,0.2c0.4,0.1,0.9,0.1,1.4,0.1c7.3,0,14.6,0,21.9,0c0.4,0,0.8-0.1,1.1,0.2c0.1,0.4,0.1,0.8,0.1,1.3
		c0,3.2,0,6.4,0,9.6C84.3,29.7,84.4,30,84.3,30.2z"/>
	<path class="st1" d="M12,17.4c-0.1,0.4-0.5,0.4-0.8,0.4c-2.5,0-5,0-7.5,0c-0.3,0-0.6-0.1-0.9,0.1c0-0.7,0-1.5,0-2.2
		c0.3-0.3,0.6-0.2,1-0.2c1.7,0,3.5,0,5.2,0c0.4,0,1,0,1-0.6c0.3-0.8,0.4-1.7,0.7-2.5c0.2-0.7,0.3-1.4,0.5-2.1c0-0.4,0.2-0.8,0.2-1.2
		c0.1-0.2,0.2-0.4,0.2-0.7c0-0.2-0.1-0.3-0.2-0.4C10.6,7.8,10,7.9,9.3,7.9c-0.4,0-0.8,0-0.9-0.5c0-0.4,0.1-0.7,0.2-1
		C9,5.9,9.4,6,9.8,6c3.1,0,6.2,0,9.4,0c0.6,0,1.2-0.1,1.6,0.4c0.2,0.4,0.5,0.8,0.6,1.3c0,1,0.1,1.9-0.2,2.8c-0.5,0.6-1,1.2-1.7,1.6
		c-0.7,0.4-1.6,0.4-2.4,0.4c-0.5,0-1-0.1-1.5,0.1c0.1,0.3,0.3,0.4,0.6,0.6c0.1,0,0.1,0.1,0.2,0.1c0.1,0.3,0.3,0.5,0.6,0.6
		c0.1,0.1,0.1,0.1,0.1,0.2c0.1,0.3,0.3,0.4,0.6,0.6c0.2,0.2,0.4,0.5,0.7,0.6c0.4,0.1,0.9,0.3,1.3-0.1c0-0.1,0.1-0.2,0.1-0.3
		c0-0.5,0-1.1,0-1.6c0-0.1,0-0.2,0-0.2c0.2-0.4,0.5-0.8,0.7-1.2c0.2-0.2,0.4-0.3,0.5-0.6C21,11.1,21,11,21.1,11
		c0.3-0.2,0.5-0.4,0.9-0.4c0.3,0,0.5-0.2,0.8-0.2c1.5,0,2.9,0,4.4,0c0.3,0,0.7,0,0.9,0.3c0.1,0.6-0.2,1.1-0.2,1.7
		c-0.2,0.7-0.4,1.4-0.5,2.1c-0.1,0.3-0.1,0.5,0.1,0.7c0.2,0.1,0.4,0.1,0.6,0.1c0.1,0,0.1-0.1,0.2-0.2c0-0.1,0.1-0.1,0.1-0.2
		c0,0,0.1-0.1,0.1-0.1c0.2-0.3,0.3-0.6,0.3-1c0-0.2,0.1-0.4,0.1-0.6c0-0.2,0-0.4,0-0.6c0-0.1,0-0.2,0-0.2c0-0.1,0.1-0.1,0.1-0.2
		c0.3-0.4,0.2-1,0.5-1.4c0.7-0.5,1.9-0.5,2.5,0c0.1,0.3-0.1,0.6-0.1,0.9c-0.2,0.6-0.3,1.3-0.5,1.9c-0.1,0.2-0.2,0.4-0.2,0.7
		c-0.1,0.2-0.2,0.5-0.1,0.7c0.7,0.6,1.5,0.4,1.8-0.4c0.3-0.4,0.4-0.9,0.4-1.4c0.1-0.3,0.1-0.7,0.2-1.1c0.1-0.3,0.3-0.5,0.3-0.8
		c0.2-0.9,0.3-1,1.3-1c0.5,0,1-0.2,1.4,0.2c0,0.1,0.1,0.2,0.1,0.3c0,0.5-0.1,1-0.3,1.5c-0.2,0.6-0.3,1.3-0.5,2c0,0.3-0.2,0.6,0,0.9
		c0.6,0.3,0.9,0.1,1-0.6c0.1-0.3,0.2-0.5,0.2-0.8c0-0.1,0-0.1,0.1-0.2c0.3-0.3,0.2-0.6,0.3-1c0.1-0.3,0.2-0.5,0.3-0.8
		c0.2-0.5,0.1-1.2,0.7-1.5c0.1,0,0.2,0,0.3,0c1.4,0,2.8,0,4.2,0c0.1,0,0.2,0,0.3,0c0.9,0.2,1.4,0.7,1.7,1.5c0,0.1,0,0.3,0,0.4
		c0,0.5,0,0.9,0,1.4c0,0.2-0.1,0.4-0.1,0.6c0,0.3-0.3,0.5-0.2,0.9c0.2,0.2,0.4,0.2,0.6,0.1c0-0.3,0-0.6,0-0.9c0-0.5,0-1,0.2-1.6
		c0-0.1,0-0.2,0-0.2c0.2-0.5,0.5-0.9,0.9-1.3c0.2-0.2,0.4-0.3,0.6-0.4c0.4-0.2,0.8-0.4,1.3-0.5c0.1,0,0.3,0,0.4,0c1.3,0,2.6,0,4,0
		c1.2,0,1.3,0.2,1.1,1.3c-0.1,0.3-0.2,0.5-0.2,0.8c-0.1,0.2-0.1,0.5-0.2,0.7c-0.2,0.4-0.2,0.8-0.3,1.2c-0.2,0.5-0.3,0.9,0.5,0.9
		c0.1,0,0.2-0.1,0.3-0.2c0.1-0.2,0.1-0.4,0.2-0.6c0.1-0.3,0.1-0.7,0.2-1c0-0.1,0.1-0.1,0.1-0.2c0.4-0.5,0.3-1.2,0.5-1.8
		c0-0.4,0.1-0.7,0.2-1c0-0.1,0-0.2,0-0.3c0-0.1,0.1-0.1,0.1-0.2c0.3-0.3,0.3-0.7,0.4-1.1c0-0.2,0.1-0.4,0.1-0.6c0-0.2,0-0.4,0-0.7
		c0-0.1,0-0.2,0.1-0.2c0-0.1,0.1-0.1,0.1-0.2c0.3-0.4,0.2-0.9,0.5-1.4c0.8-0.6,1.6-0.4,2.5-0.1c0.3,0.5-0.1,0.9-0.1,1.3
		c0,0.3-0.1,0.5-0.2,0.7c-0.1,0.7-0.4,1.3-0.5,2c-0.2,0.8-0.5,1.6-0.6,2.4c0,0,0,0.1,0,0.1c0.1,0,0.1-0.1,0.2-0.1
		c0.1-0.1,0.2-0.1,0.2-0.2c0.1,0,0.1-0.1,0.2-0.1c0.2-0.1,0.3-0.2,0.4-0.3c0.2-0.1,0.4-0.2,0.5-0.4c0.1-0.2,0.3-0.2,0.5-0.3
		c0.4-0.4,0.8-0.4,1.3-0.4c0.6,0,1.1,0,1.7,0c0.6,0,0.7,0.3,0.3,0.8c-0.4,0.3-0.8,0.5-1.1,0.9c-0.3,0.1-0.5,0.3-0.7,0.5
		c-0.4,0.2-0.7,0.6-1,0.9c-0.5,0.3-0.6,0.6-0.1,1c0.3,0.3,0.5,0.8,1,0.8c0.5,0.1,0.9,0.1,1.4,0.1c7.1,0,14.2,0,21.4,0
		c0.4,0,0.9-0.1,1.2,0.2c0,0.7,0,1.5,0,2.2c-0.3,0.3-0.7,0.2-1.1,0.2c-7.9,0-15.7,0-23.6,0c-0.5,0-0.8-0.3-1.1-0.6
		c-0.6-0.8-1.4-1.4-2-2.1c-0.1-0.2-0.3-0.2-0.5-0.1c0,0.1-0.1,0.1-0.1,0.2c0,0.4-0.2,0.9-0.2,1.3c-0.1,0.2-0.1,0.5-0.3,0.6
		c-0.1,0.2-0.2,0.3-0.3,0.5c-0.3,0.4-0.7,0.3-1.1,0.3c-4.7,0-9.3,0-14,0c-1.4,0-1.4,0-1.7,1.3c-0.1,0.6-0.4,1.2-0.5,1.8
		c-0.1,0.2-0.1,0.3-0.2,0.5c-0.3,1.1-1.3,1.6-2.4,1c-0.1,0-0.1-0.1-0.2-0.2c0.2-1.5,0.5-2.9,0.9-4.3C36,18,35.8,18,35.6,18.1
		c-0.1,0-0.2,0-0.3,0C35.2,18,35,18,34.9,18.2c-0.3,0.7-0.5,1.4-0.7,2.1c-0.2,0.6-0.5,1.1-1.1,1.5c-0.7,0.7-1.6,1-2.7,1
		c-2.3,0-4.5,0-6.8,0c-0.7,0-0.9-0.2-0.8-0.8c-0.1-0.2-0.1-0.5,0.2-0.6c0.1-0.4,0.4-0.5,0.9-0.5c2,0,4,0,6.1,0c0.5,0,0.9,0,1.3-0.3
		c0-0.1,0.1-0.1,0.2-0.1l0,0c0.1-0.4,0.5-0.7,0.6-1.1c0-0.1,0-0.1,0-0.2c0.1-0.2,0.2-0.4,0.2-0.7c0-0.2,0.1-0.3-0.1-0.5
		c-0.3-0.2-0.6-0.1-0.9-0.1c-4.3,0-8.6,0-12.9,0c-0.5,0-1-0.1-1.4-0.5c-0.8-0.3-1.3-1.1-1.9-1.6c-0.5-0.4-0.9-1-1.5-1.3
		c-0.1,0-0.1-0.1-0.2-0.1c-0.1,0-0.1,0.1-0.2,0.1c-0.2,0.3-0.4,0.7-0.4,1.1c-0.1,0.2-0.1,0.5-0.2,0.8C12.3,16.7,12.5,17.2,12,17.4z"
		/>
	<path class="st2" d="M2.7,15c0-3.7,0-7.5,0-11.2c0-0.2-0.2-0.5,0.2-0.6c0.3,0.2,0.7,0.1,1,0.1c26.5,0,53,0,79.5,0
		c0.3,0,0.7-0.1,1,0.1c0,0.1,0,0.1,0,0.2c-0.1,0.1-0.2,0.1-0.3,0.2c-0.7,0.2-1.4,0.2-2.1,0.2c-25.6,0-51.2,0-76.8,0
		c-2,0-1.7,0.1-1.7,1.7c0,2.6,0,5.3,0,7.9c0,0.4,0,0.9-0.1,1.3c0,0.1-0.1,0.2-0.1,0.3C3.1,15.2,2.9,15.2,2.7,15z"/>
	<path class="st3" d="M84.4,3.3c-17,0-34,0-51,0c-9.8,0-19.6,0-29.4,0c-0.4,0-0.8,0.1-1.1-0.2c26.9,0,53.9,0,80.8,0
		C83.9,3.2,84.2,3,84.4,3.3z"/>
	<path class="st4" d="M59.4,17.9c0.2,0,0.4,0,0.6,0c7.9,0,15.9,0,23.8,0c0.2,0,0.4,0,0.6,0.1c0,0.1,0,0.2,0,0.3
		c-0.1,0.1-0.2,0.1-0.3,0.1c-3.7,0.1-7.4,0-11.1,0c-4.2,0-8.4,0-12.7,0c-0.4,0-0.8,0.1-1.1-0.2c-0.1-0.1-0.1-0.1-0.2-0.2
		C59.1,17.8,59.2,17.8,59.4,17.9z"/>
	<path class="st5" d="M84.4,15.7c-0.3,0-0.6,0-0.9,0c-7.5,0-15,0-22.5,0c-0.3,0-0.7,0.1-1-0.2c-0.1-0.2,0-0.3,0.2-0.4
		c0.2,0,0.4,0,0.6,0c7.5,0,15,0,22.4,0c0.4,0,0.9-0.1,1.2,0.2C84.4,15.4,84.4,15.5,84.4,15.7z"/>
	<path class="st6" d="M84.4,15.3c-8,0-15.9,0-23.9,0c0-0.3,0.2-0.3,0.4-0.4c0.2,0,0.5,0,0.7,0c7.4,0,14.9,0,22.3,0
		c0.1,0,0.1,0,0.2,0c0.1,0,0.2,0,0.3,0.1C84.4,15.1,84.4,15.2,84.4,15.3z"/>
	<path class="st7" d="M84.3,18.2c0.1,0,0.1,0,0.2,0c0,3.8,0,7.6,0,11.4c0,0.2,0.2,0.5-0.2,0.6c0-3.9,0-7.8,0-11.7
		c-0.1,0-0.1-0.1-0.1-0.2C84.2,18.3,84.2,18.3,84.3,18.2z"/>
	<path class="st8" d="M84.4,15c-0.1,0-0.1,0-0.2,0c-0.1-0.1-0.1-0.1-0.2-0.2C84,13,84,11.3,84,9.6c0-1.9,0-3.7,0-5.6
		c0-0.2,0.1-0.4,0.2-0.6c0.1,0,0.1,0,0.2,0C84.4,7.3,84.4,11.2,84.4,15z"/>
	<path class="st9" d="M10.1,14.7c0.1,0.8-0.2,1.1-1,1c-2.1-0.1-4.3-0.1-6.4-0.1c0-0.1,0-0.1,0-0.2c0.3-0.3,0.7-0.2,1.1-0.2
		c1.7,0,3.4,0.1,5.2-0.1c0.1,0,0.1-0.1,0.2-0.1c0.1-0.1,0.2-0.1,0.2-0.2c0.1-0.1,0.2-0.3,0.4-0.4C10,14.5,10.1,14.5,10.1,14.7z"/>
	<path class="st10" d="M2.7,18.1c2.8,0,5.5,0,8.3,0c0.2,0,0.5-0.2,0.7,0.2c-0.2,0.2-0.5,0.2-0.8,0.2c-2.5,0-5,0-7.5,0
		c-0.2,0-0.5,0-0.7-0.2C2.7,18.2,2.7,18.1,2.7,18.1z"/>
	<path class="st11" d="M2.7,18.2c3,0,6,0,9,0c-0.1,0.1-0.1,0.1-0.2,0.2c-0.4,0.2-0.7,0.1-1.1,0.1c-2.3,0-4.6,0-6.9,0
		c-0.3,0-0.5,0.1-0.8-0.1C2.7,18.3,2.7,18.3,2.7,18.2z"/>
	<path class="st12" d="M2.7,18.4c2.9,0,5.9,0,8.8,0c-0.3,0.2-0.6,0.2-0.9,0.2c-2.6,0-5.3,0-7.9,0C2.7,18.5,2.7,18.4,2.7,18.4z"/>
	<path class="st13" d="M9.6,15c-0.1,0.1-0.1,0.1-0.2,0.2c-0.2,0.2-0.4,0.2-0.6,0.2c-1.8,0-3.7,0-5.5,0c-0.2,0-0.4,0-0.6-0.2
		c0-0.1,0-0.1,0-0.2c0.2,0,0.3,0,0.5,0c0.2-0.2,0.4-0.2,0.6-0.2c1.9,0,3.7-0.1,5.6,0C9.5,14.9,9.6,14.9,9.6,15z"/>
	<path class="st6" d="M2.7,15.2c2.2,0,4.5,0,6.7,0c0,0.1,0,0.1,0,0.2c-0.8,0.2-1.6,0.1-2.4,0.1c-1.5,0-2.9,0.1-4.4-0.1
		C2.7,15.3,2.7,15.2,2.7,15.2z"/>
	<path class="st5" d="M2.7,15.3c2.2,0,4.5,0,6.7,0c-0.3,0.2-0.6,0.2-0.9,0.2c-1.9,0-3.9,0-5.8,0C2.7,15.4,2.7,15.4,2.7,15.3z"/>
	<path class="st14" d="M37.7,21.2c0.2-1,0.5-2,0.7-3c0.1-0.3,0.2-0.5,0.5-0.5c5.4,0,10.8,0,16.3,0c0.1,0.1,0.1,0.2,0.2,0.3
		c-0.1,0-0.2,0.1-0.3,0c-0.9,0.1-1.8,0-2.7,0c-4.3,0-8.6,0-12.9,0c-0.1,0-0.2,0-0.3,0c-0.6,0.3-0.4,1-0.6,1.5l0,0
		c-0.2,0.2,0,0.6-0.2,0.8c-0.2,0.6-0.5,1.1-0.6,1.7c0,0.2-0.1,0.5-0.4,0.5c0,0,0-0.1,0-0.1C37.5,22.3,37.6,21.7,37.7,21.2z"/>
	<path class="st15" d="M50.5,25.1c-0.3,0.3-0.6,0.3-0.7-0.1c0,0,0-0.1,0-0.1c-0.1-0.1-0.1-0.3-0.3-0.3c-0.1,0-0.1,0-0.2,0
		c-0.2,0.2,0,0.7-0.5,0.7c-0.3,0-0.2-0.3-0.3-0.5c-0.3-0.8,0.2-1.6,0.4-2.3c0.4-0.7,1.1-0.4,1.7-0.4c0.2,0.1,0.3,0.2,0.5,0.3
		c0.2,0.2,0.1,0.5,0.1,0.8c0,0.2-0.1,0.3-0.2,0.5c-0.2,0.4-0.1,0.9-0.2,1.3C50.7,25,50.6,25,50.5,25.1z"/>
	<path class="st11" d="M84.3,18.2c0,0.1,0,0.1,0,0.2c-0.2,0.1-0.5,0.1-0.7,0.1c-7.8,0-15.6,0-23.5,0c-0.2,0-0.5,0.1-0.7-0.1
		c-0.1-0.1-0.1-0.1-0.2-0.2C67.6,18.2,75.9,18.2,84.3,18.2z"/>
	<path class="st16" d="M59.4,18.4c8.3,0,16.6,0,24.9,0c0,0.1,0,0.1,0,0.2c-7.9,0-15.9,0-23.8,0C60.1,18.5,59.7,18.6,59.4,18.4z"/>
	<path class="st17" d="M46.1,22.6c0.3-0.4,0.6-0.5,1.1-0.2c0.5,0.9,0.2,1.8,0.2,2.7c0,0.2-0.3,0.3-0.5,0.3c-0.3,0-0.4-0.1-0.4-0.4
		c0-0.1,0-0.3-0.1-0.4c-0.3,0-0.6-0.1-0.7,0.4c0,0.2-0.2,0.3-0.4,0.3c-0.3,0-0.2-0.3-0.2-0.5C45,23.9,45.6,23.3,46.1,22.6z"/>
	<path class="st18" d="M71.2,25.1c-0.2,0.1-0.4,0.3-0.7,0.3C70,25.2,70,25.6,70,25.9c-0.6,0.2-0.2-0.5-0.5-0.6
		c-0.1-0.8,0.1-1.5,0.3-2.2c0.8-0.6,1.3-0.6,1.7-0.1l0,0c0.3,0.2,0.3,0.5,0.3,0.8c0,0.2-0.1,0.4-0.2,0.6
		C71.4,24.6,71.5,25,71.2,25.1z"/>
	<path class="st19" d="M53.7,25.4c-0.3-0.1-0.5-0.2-0.7-0.5c-0.1-0.1-0.2-0.2-0.2-0.3c0-0.3,0.1-0.6,0.1-0.9c0-0.2,0.1-0.4,0.4-0.4
		c0.2-0.1,0.4-0.3,0.5-0.4c0.2-0.3,0.5-0.2,0.7-0.1c0.2,0.2,0.5,0.3,0.6,0.7c0,0.3,0,0.6-0.2,0.8c-0.1,0.1-0.1,0.1-0.2,0.1
		c0,0.1-0.3-0.2-0.1,0.1c0.1,0.1,0.1,0.2,0,0.4c0,0-0.1,0-0.1,0.1C54.3,25.2,54,25.3,53.7,25.4L53.7,25.4z"/>
	<path class="st20" d="M56.8,23.1c0.2,0.8-0.1,1.5-0.5,2.2c-0.3,0.4-0.7,0.2-1,0.2c-0.1,0-0.3-0.1-0.3-0.2c-0.1-0.2-0.2-0.5-0.1-0.8
		c0-0.1,0-0.2,0.1-0.3c0.1-0.6,0.2-1.2,0.9-1.4C56.3,22.6,56.6,22.6,56.8,23.1z"/>
	<path class="st21" d="M66.3,23c0.3,0.5-0.1,1,0,1.4c0.1,0.2,0,0.4-0.1,0.6c-0.4,0.4-0.9,0.6-1.4,0.3c-0.3-0.1-0.4-0.3-0.4-0.6
		c0-0.4,0.1-0.9,0.1-1.3c0.1-0.3,0.4-0.5,0.7-0.5l0,0C65.6,22.6,66,22.5,66.3,23z"/>
	<path class="st16" d="M38.5,19.8c0-0.6-0.1-1.2,0.5-1.6c5,0,10.1,0,15.1,0c0.3,0,0.6-0.1,0.9,0.2c-0.3,0.2-0.7,0.2-1,0.2
		c-4.6,0-9.1,0-13.7,0c-0.8,0-1.5,0.1-1.6,1C38.7,19.7,38.6,19.7,38.5,19.8z"/>
	<path class="st18" d="M74.8,24.6c0-0.4,0.1-0.7,0.2-1.2c-0.6,0.4-0.5,1-0.6,1.5c-0.1,0.4-0.3,0.4-0.6,0.4c-0.4-0.4,0-0.8-0.1-1.2
		c0-0.2,0.2-0.4,0.2-0.6c0.1-0.6,0.7-0.6,1.1-0.8c0.3,0,0.5,0.1,0.7,0.3c0.2,0.3,0.1,0.6,0.1,0.9c0,0.1,0,0.2,0,0.3
		c-0.1,0.3-0.1,0.6-0.2,0.9c0,0.1-0.1,0.2-0.1,0.2c-0.2,0.2-0.4,0.3-0.6,0.1C74.6,25.2,74.7,24.9,74.8,24.6z"/>
	<path class="st22" d="M76.2,26c-0.2,0-0.4,0-0.6,0.1c-0.3-0.2,0-0.5,0-0.7c0.1-0.5,0.2-1,0.1-1.6c0-0.2,0-0.4,0-0.6
		c0.2-0.2,0.4-0.2,0.6-0.2c0.1,0,0.2,0.1,0.3,0.1c0.1,0,0.1,0,0.2-0.1c0.3,0,0.6-0.2,0.8,0.1c-0.2,0.9-0.7,1.7-1.1,2.6
		C76.6,25.9,76.5,26,76.2,26z"/>
	<path class="st10" d="M32.1,17.9c0.4-0.1,0.4,0.2,0.3,0.5c-0.1,0.3-0.2,0.5-0.3,0.8l0,0c-0.2-0.1,0,0.6-0.4,0.1c0-0.1,0-0.2,0-0.3
		c0.2-0.5,0-0.7-0.5-0.6c-4.3,0-8.5,0-12.8,0c-0.3,0-0.7,0.1-1-0.2c0.3-0.2,0.7-0.2,1-0.2c4.2,0,8.4,0,12.6,0
		C31.4,18.1,31.8,18.1,32.1,17.9z"/>
	<path class="st23" d="M73.3,25c-0.3,0.5-0.8,0.4-1.3,0.3c-0.3,0-0.3-0.4-0.3-0.7c-0.2-0.3-0.1-0.5,0.1-0.7c0.1-0.1,0-0.3-0.1-0.4
		c0-0.4,0.4-0.5,0.6-0.7c0.3-0.1,0.6-0.1,0.9,0.2c0.1,0.1,0.2,0.2,0.3,0.3C73.7,23.9,73.7,24.5,73.3,25z"/>
	<path class="st11" d="M55.1,18.4c-5,0-10,0-15,0c-0.3,0-0.7,0.1-1-0.2c0,0,0,0,0,0c0.2-0.1,0.4-0.1,0.6-0.1c5,0,10,0,15,0
		c0.2,0,0.4,0,0.6,0.1c0.1,0,0.1,0,0.2,0C55.4,18.5,55.2,18.3,55.1,18.4z"/>
	<path class="st24" d="M59.7,25.2c-0.3,0.1-0.6,0.1-0.6-0.3c-0.2-0.2-0.1-0.5-0.1-0.7c0,0,0,0,0,0c0,0.3-0.2,0.5-0.2,0.8
		c-0.1,0.2-0.3,0.4-0.5,0.3c-0.3-0.1-0.3-0.3-0.3-0.6c0-0.2,0-0.4,0.1-0.6c0.1-0.3,0.1-0.6,0.1-0.9c0-0.1,0.1-0.2,0.2-0.3
		c0.4-0.2,0.8-0.1,1.3-0.2c0.2-0.1,0.4,0.1,0.5,0.4l0,0C60.4,23.8,60.1,24.5,59.7,25.2z"/>
	<path class="st16" d="M31.8,18.2c0.4,0.3,0.1,0.5,0,0.8c0-0.6-0.5-0.5-0.9-0.5c-4.1,0-8.3,0-12.4,0c-0.3,0-0.7,0.1-1-0.2
		c0.3-0.2,0.6-0.1,0.9-0.1c4.2,0,8.4,0,12.6,0C31.2,18.3,31.5,18.4,31.8,18.2z"/>
	<path class="st25" d="M65.2,22.9c-0.6,0.5-0.5,1.2-0.6,1.9c0,0.2,0.1,0.4,0.3,0.5c0.3,0.1,0.5,0.3,0.8,0c0.1-0.1,0.3-0.2,0.4-0.4
		c0.2,0.1,0.2,0.2,0.2,0.4c-0.7,0.6-1.4,0.5-2.1,0c-0.2,0-0.3,0-0.4-0.2c-0.1-0.2,0-0.4,0.1-0.5c0.1-0.3,0.2-0.6,0-0.9
		c-0.2-0.3,0-0.5,0.2-0.7c0,0,0.1-0.1,0.1-0.2c0-0.1,0-0.2,0-0.3c-0.3-0.5-0.9,0.1-1.2-0.2c0-0.1,0-0.1,0-0.2
		c0.1-0.2,0.2-0.3,0.3-0.5c0.4-0.1,0.7-0.1,1.1,0C64.6,22.1,64.9,22.5,65.2,22.9z"/>
	<path class="st26" d="M23.9,20.5c-0.1-0.1-0.3-0.2-0.5-0.3c2.5,0,4.9,0,7.3,0c0.1,0,0.2,0.1,0.3,0.1c-0.3,0.1-0.6,0.3-0.9,0.3
		c-1.9,0-3.9,0-5.8,0C24.1,20.5,24,20.5,23.9,20.5z"/>
	<path class="st11" d="M31.8,18.2c-0.3,0.2-0.7,0.2-1,0.2c-4.4,0-8.9,0-13.3,0c0-0.1,0-0.1,0-0.2C22.3,18.2,27,18.2,31.8,18.2z"/>
	<path class="st27" d="M70,23.2c-0.1,0.7-0.2,1.4-0.3,2.1c0,0.1-0.1,0.1-0.1,0.2c-0.3,0.7-0.7,0.1-1,0c0.1-0.1,0.3-0.3,0.4-0.4
		c0.2-0.4,0.1-0.8,0.2-1.1c0.1-0.2,0.1-0.3,0-0.5c-0.1-0.2-0.3-0.1-0.5-0.1c-0.3,0-0.6-0.1-0.8-0.4c-0.3-0.2-0.8,0.3-1-0.3
		c0.9-0.1,1.7-0.1,2.6,0c0.1,0.2,0.3,0.3,0.5,0.3C70.1,23,70.1,23.1,70,23.2z"/>
	<path class="st28" d="M33.1,21.7c0.6-0.9,1.1-1.9,1.3-3c0.1-0.3,0.1-0.6,0.4-0.8c0.2-0.1,0.4,0.1,0.6,0c0.1,0,0.2,0,0.3,0
		c0.2-0.1,0.3,0,0.4,0.1c0,0.1,0,0.1,0,0.2c-1.4,0-1.2,1.3-1.5,2.1c-0.3,0.7-0.7,1.1-1.1,1.6C33.2,22,33.1,21.9,33.1,21.7z"/>
	<path class="st29" d="M51.4,22.6c0.2-0.3,0.4-0.6,0.8-0.2c0.1,0.1,0.1,0.2,0.1,0.3c-0.1,0.2,0,0.5,0,0.7c-0.1,0.3-0.2,0.6-0.3,0.9
		c-0.1,0.3-0.1,0.7-0.4,0.9c-0.2,0.1-0.4,0.1-0.6,0C50.6,24.5,50.8,23.2,51.4,22.6z"/>
	<path class="st30" d="M62.9,22.2c0,0.1,0,0.1,0,0.2c0.3,0.4,0,0.7,0,1c0,0.3-0.2,0.6-0.2,0.9c0,0.5,0.1,0.9,0.8,0.7
		c0.1,0,0.3,0,0.4,0.1c0.1,0.1,0.2,0.1,0.3,0.2c-1,0.7-1.1,0.7-2.2-0.2c-0.1-0.4-0.1-0.9,0-1.3c0.3-0.3,0.3-0.7,0.4-1
		C62.5,22.6,62.6,22.3,62.9,22.2z"/>
	<path class="st31" d="M67.9,22.9c0.3,0,0.6,0.2,0.9,0.1c0.2,0.2,0.2,0.3,0,0.5c-0.8,0.3-0.5,1-0.7,1.6c-0.1,0.3-0.3,0.4-0.6,0.2
		c0-0.1,0-0.2,0-0.3c-0.3-0.5,0.1-1.1,0-1.6c0-0.1,0.1-0.2,0.2-0.3C67.8,23,67.9,22.9,67.9,22.9z"/>
	<path class="st32" d="M67.7,23c0,0.1,0,0.3,0,0.4c-0.2,0.5-0.1,1.1-0.5,1.5c-0.1,0.2-0.2,0.4-0.5,0.4c-0.3-0.1-0.2-0.3-0.2-0.5
		c0.1-0.4,0.1-0.7,0.2-1.1C66.8,22.9,67.2,22.9,67.7,23z"/>
	<path class="st33" d="M51.4,22.6c-0.2,0.9-0.5,1.7-0.5,2.7c-0.1-0.1-0.3-0.1-0.4-0.2c0,0,0-0.1,0-0.1c0.3-0.5,0-1,0.2-1.5
		c0.1-0.1,0.1-0.2,0.2-0.3c0.1-0.3,0.2-0.6-0.1-0.8c-0.1,0-0.2,0-0.2-0.1c-0.5-0.3-1-0.1-1.5-0.1c0,0-0.1-0.1-0.1-0.1
		c0-0.2,0.1-0.3,0.3-0.3c0.4-0.1,0.7-0.1,1.1,0C50.8,22,51.2,22.1,51.4,22.6z"/>
	<path class="st34" d="M36,18.2c0-0.1,0-0.1,0-0.2c0-0.3,0.1-0.3,0.3-0.2c-0.3,1.5-0.5,3-1,4.5c-0.1,0.1,0,0.3-0.1,0.4
		c0,0-0.1,0.1-0.1,0.1c-0.4-0.2-0.2-0.5-0.1-0.8c0.2-0.5,0.3-1.1,0.3-1.6c0.2-0.2,0-0.6,0.2-0.8C35.8,19.3,35.9,18.7,36,18.2z"/>
	<path class="st27" d="M76.2,26c0.6-0.9,0.9-1.9,1.5-2.8c0.1-0.1,0-0.2,0.2-0.3c0.2,0.1,0.3,0.2,0.2,0.4c-0.4,0.9-0.7,1.8-1.2,2.6
		c-0.2,0.4-0.6,0.6-1.1,0.5C75.8,26.2,76.2,26.3,76.2,26z"/>
	<path class="st35" d="M68.9,23.5c0-0.2,0-0.3,0-0.5c0.2-0.2,0.4,0,0.7,0c0.1,0.3,0.2,0.6-0.1,0.9c-0.1,0.4-0.2,0.8-0.3,1.3
		c-0.8,0.3-0.5-0.2-0.5-0.6C68.7,24.3,68.8,23.9,68.9,23.5z"/>
	<path class="st36" d="M22.8,23c0.1-0.3,0.3-0.1,0.5-0.1c2.6,0,5.2,0,7.8,0c0.1,0,0.3-0.1,0.4,0.1c-0.2,0.2-0.4,0.2-0.7,0.2
		c-2.4,0-4.9,0-7.3,0C23.2,23.2,23,23.2,22.8,23z"/>
	<path class="st37" d="M13.3,13.9c0.1,0.1,0.1,0.2,0.2,0.3c0.1,0.1,0.1,0.2,0.1,0.3c-0.4-0.2-0.2,0.3-0.4,0.4
		c-0.5,0.5-0.3,1.2-0.6,1.8c0.1,0.2,0.1,0.4,0,0.6c-0.2,0.1-0.2,0.4-0.4,0.4c0,0-0.1-0.2-0.1-0.3c0.1-0.4,0.2-0.7,0.3-1.1
		c0.3-0.2,0-0.6,0.2-0.8c0-0.5,0.1-0.9,0.3-1.3C13,14.1,12.9,13.7,13.3,13.9z"/>
	<path class="st38" d="M31.5,23.2c-0.1,0.3-0.3,0.2-0.5,0.2c-2.5,0-5,0-7.5,0c-0.2,0-0.5,0-0.7-0.2c0.4-0.2,0.7-0.1,1.1-0.1
		c2.3,0,4.5,0,6.8,0C30.9,23.1,31.2,23,31.5,23.2z"/>
	<path class="st39" d="M58.3,23.1c0,0.1,0,0.2,0,0.3c0,0.1-0.1,0.3-0.2,0.4c-0.2,0.5-0.1,1.1-0.6,1.5c-0.3,0.1-0.6,0.3-0.6-0.3
		c0.1-0.5,0.3-1,0.3-1.5c0.1-0.3,0.2-0.5,0.5-0.5C58,22.9,58.1,22.9,58.3,23.1z"/>
	<path class="st40" d="M31.5,23.2c-2.9,0-5.8,0-8.7,0c0-0.1,0-0.1,0-0.2c2.9,0,5.8,0,8.7,0C31.5,23.1,31.5,23.1,31.5,23.2z"/>
	<path class="st41" d="M23.9,20.5c1.9,0,3.8,0,5.7,0c0.4,0,0.9-0.1,1.3-0.2c0.1,0,0.2,0,0.4,0c-0.1,0-0.1,0.1-0.2,0.1
		c-2.6,0.3-5.2,0-7.8,0.2C23.5,20.4,23.8,20.5,23.9,20.5z"/>
	<path class="st42" d="M59.4,17.9c-0.1,0.1-0.2,0.1-0.4,0.2c-0.7-0.7-1.4-1.5-2.2-2.2c-0.2-0.2-0.4-0.5-0.7-0.3
		c-0.1,0-0.2-0.1-0.2-0.2c0-0.2-0.1-0.5,0.1-0.6c0.3-0.1,0.4,0.2,0.5,0.4C57.5,16.1,58.4,17,59.4,17.9z"/>
	<path class="st43" d="M13.5,14.5c0-0.1,0-0.2,0-0.3c1.1,1.1,2.4,2,3.4,3.2c-0.4,0.3-0.5-0.1-0.7-0.2c-0.9-0.8-1.7-1.6-2.5-2.4
		C13.6,14.6,13.5,14.6,13.5,14.5z"/>
	<path class="st44" d="M49,22.6c-0.1,0.8-0.2,1.5-0.5,2.2c-0.2,0,0,0.5-0.3,0.3c-0.2-0.9,0.2-1.7,0.3-2.6c0.2-0.2,0.3-0.3,0.5-0.5
		c0,0,0,0,0,0C49.1,22.2,49.1,22.4,49,22.6z"/>
	<path class="st45" d="M46.1,22.6c-0.2,0.8-0.7,1.4-1,2.2c-0.1,0.1-0.2,0.3-0.3,0.4c0-0.9,0.9-2.9,1.5-3.2l0,0
		C46.2,22.3,46.1,22.4,46.1,22.6z"/>
	<path class="st46" d="M58.3,23.1c-0.2,0-0.3-0.1-0.5-0.1c-0.1-0.1-0.5-0.1-0.3-0.4c0.5-0.1,1-0.1,1.4,0c0.1,0,0.1,0,0.2,0
		c0.3-0.1,0.6-0.1,1,0c0,0.2,0,0.3,0,0.5C59.4,22.7,58.8,23.3,58.3,23.1z"/>
	<path class="st47" d="M56.8,23.1c-1-0.3-1.3-0.2-1.7,1.3c-0.3-0.2,0.1-0.6-0.2-0.8c0-0.3-0.2-0.4-0.4-0.6c0.1-0.1,0.1-0.1,0.2,0
		c0.4,0.1,0.7,0,1-0.3c0.4-0.1,0.7-0.1,1.1,0C56.9,22.7,57,22.9,56.8,23.1z"/>
	<path class="st48" d="M72.4,23c-0.3,0.1-0.5,0.3-0.5,0.6c0.1,0.1,0.3,0.2,0.2,0.4c-0.1,0.2-0.3,0.4-0.4,0.6c0,0-0.1,0-0.1,0
		c-0.1,0-0.1-0.1-0.1-0.2c0-0.2-0.1-0.3,0.1-0.5c0.4-0.2,0-0.7,0.2-0.9c0.2-0.1,0.5-0.2,0.6-0.5c0.3-0.1,0.6-0.1,1,0
		c0,0.1,0,0.2,0,0.4C73,23,72.7,22.9,72.4,23z"/>
	<path class="st49" d="M59.7,25.2c0-0.7,0.5-1.4,0.3-2.2c0.3,0,0.4,0.2,0.3,0.5c-0.1,0.6-0.2,1.2-0.3,1.7
		C60,25.5,59.8,25.6,59.7,25.2z"/>
	<path class="st50" d="M75.9,23.8c0.2,0.8,0.2,1.6-0.3,2.3c-0.3-0.2-0.3-0.5-0.8-0.6c-0.4-0.1-0.3-0.5-0.1-0.8
		c0,0.2-0.2,0.5,0.1,0.6c0.3,0.1,0.3-0.2,0.5-0.3C75.9,24.7,75.5,24.1,75.9,23.8z"/>
	<path class="st51" d="M59.4,23.8c-0.1,0.4-0.2,0.8-0.3,1.1c-0.1,0.2-0.2,0.3-0.3,0.5c0,0-0.1-0.1-0.1-0.1c-0.1-0.2,0-0.4,0-0.5
		c0.1-0.4,0-0.8,0.2-1.2c0.1-0.1,0.3-0.3,0.5-0.1C59.5,23.6,59.5,23.7,59.4,23.8z"/>
	<path class="st52" d="M73.3,25c0.1-0.5,0.2-1.1,0.3-1.6c0,0,0.1,0,0.1,0c0.2,0.2,0.3,0.4,0.2,0.7c0.1,0.4-0.2,0.8-0.2,1.2
		C73.3,25.5,73.4,25.1,73.3,25z"/>
	<path class="st51" d="M57.5,25.1c0.3-0.5,0.2-1.1,0.4-1.6c0.4,0.1,0.4,0.3,0.3,0.7c-0.1,0.2-0.1,0.3-0.2,0.5
		c-0.1,0.2,0,0.5-0.1,0.7c0,0,0,0-0.1,0.1c-0.1,0-0.2,0-0.3,0C57.5,25.4,57.5,25.2,57.5,25.1z"/>
	<path class="st53" d="M70,23.2c0-0.1,0-0.2,0-0.3c0.1-0.1,0.1-0.2,0.2-0.3c0.4-0.1,0.9-0.1,1.3,0c0.1,0.1,0.2,0.3,0.1,0.5
		C71,22.8,70.5,22.9,70,23.2z"/>
	<path class="st54" d="M46.4,24.6c0,0.1,0.1,0.1,0.1,0.2c0,0.2,0,0.5,0.4,0.5c0.3-0.1,0.3-0.3,0.3-0.6c0-0.8,0-1.5,0-2.3
		c0.1,0,0.1,0,0.2,0c0.4,1,0.4,2,0,3c-0.1,0-0.1,0-0.2,0c-0.3,0.1-0.5,0.1-0.8,0C46.4,25.2,46.4,24.9,46.4,24.6z"/>
	<path class="st55" d="M67.2,24.9c0.1-0.5,0-1.1,0.5-1.5c0.3,0.5-0.1,1-0.2,1.5c-0.1,0.1-0.2,0.2-0.3,0.3
		C67.3,25.1,67.3,25,67.2,24.9z"/>
	<path class="st44" d="M53.3,23.3c-0.2,0.1-0.1,0.3-0.2,0.5c-0.1,0.1-0.1,0.1-0.2,0.1c-0.1,0-0.1,0-0.2-0.1
		c-0.1-0.1-0.1-0.2-0.2-0.3c0-0.3-0.3-0.3-0.5-0.5C52,23,51.9,22.9,52,22.7c0.2-0.1,0.3-0.2,0.5-0.2C52.9,22.6,53.2,22.9,53.3,23.3z
		"/>
	<path class="st56" d="M47.3,25.4c0-1,0-2,0-3c0-0.2,0.2-0.2,0.3-0.2c0.1,0.1,0.1,0.2,0,0.2c-0.1,0.9-0.1,1.7,0,2.6
		c0,0.1,0,0.2,0,0.2C47.6,25.3,47.5,25.4,47.3,25.4z"/>
	<path class="st57" d="M75.6,23c-0.2,0-0.4-0.1-0.6-0.1c-0.3,0.1-0.6,0-0.9,0.1c0,0-0.1-0.1-0.1-0.1c0.1-0.1,0.1-0.2,0.2-0.3
		c0.5-0.1,1-0.1,1.4,0c0.1,0.1,0.2,0.2,0.3,0.3c0,0,0.1,0.1,0.1,0.1c0,0,0,0.1,0,0.1c-0.1,0-0.1,0.1-0.2,0.1
		C75.7,23.1,75.6,23.1,75.6,23z"/>
	<path class="st58" d="M23,21.3c0,0.2,0,0.4-0.2,0.6c-0.1,0.2-0.3,0.5-0.4,0.9c-0.1-0.7,0.2-1.2,0.3-1.7c0-0.1,0.1-0.2,0.2-0.1
		C22.9,21,22.9,21.2,23,21.3z"/>
	<path class="st59" d="M55.5,17.4c0-0.2,0-0.4,0.1-0.6c0.3-0.1,0-0.6,0.3-0.7c0.1,0,0.2,0,0.2,0.1c-0.1,0.4-0.2,0.9-0.3,1.3
		c0,0.1,0,0.4-0.2,0.3C55.6,17.7,55.5,17.5,55.5,17.4z"/>
	<path class="st12" d="M48.5,22.6c-0.1,0.9-0.2,1.7-0.3,2.6C47.9,24.2,48.1,23.4,48.5,22.6z"/>
	<path class="st60" d="M47.7,25.3c0-0.1,0-0.1,0-0.2c-0.1-0.9-0.1-1.8,0-2.7c0-0.1,0-0.1,0-0.2C47.9,23.2,47.9,24.3,47.7,25.3z"/>
	<path class="st27" d="M66.3,23c-0.4-0.2-0.7-0.1-1.1-0.1c0.2-0.4,0.6-0.4,0.9-0.3C66.3,22.6,66.5,22.8,66.3,23z"/>
	<path class="st61" d="M69.5,22.5c-0.9,0-1.7,0-2.6,0C67.8,22.3,68.6,22.3,69.5,22.5z"/>
	<path class="st40" d="M37.4,22.9c-0.1,0.1-0.1,0.2-0.2,0.3c-0.6,0.1-1.3,0.1-1.9,0c-0.1-0.1-0.1-0.2-0.2-0.3c0,0,0,0,0,0
		c0.1-0.1,0.1-0.1,0.2,0c0.6,0.1,1.2,0.1,1.8,0C37.3,22.8,37.3,22.8,37.4,22.9C37.4,22.9,37.4,22.9,37.4,22.9z"/>
	<path class="st62" d="M31.8,19.3c0.2,0.1,0.2-0.1,0.4-0.1c-0.1,0.5-0.4,0.9-0.8,1.1C31.3,19.9,31.4,19.6,31.8,19.3z"/>
	<path class="st63" d="M53,24.6c0,0.1,0,0.2,0,0.3c0,0.2-0.1,0.4-0.3,0.5c-0.1,0-0.3-0.1-0.3-0.2c-0.1-0.3-0.1-0.5,0.1-0.8
		c0.2-0.1,0.3-0.1,0.5,0C53,24.5,53,24.6,53,24.6z"/>
	<path class="st64" d="M51.5,25.2c0.1-0.4,0.1-0.7,0.2-1.1c0.2-0.1,0.4,0.1,0.5,0.3c0,0.1,0.1,0.2,0.1,0.3c0,0.2-0.1,0.4-0.3,0.6
		c0,0-0.1,0-0.1,0.1C51.7,25.4,51.6,25.3,51.5,25.2z"/>
	<path class="st65" d="M49.2,24.6c0,0,0-0.1,0-0.1c0.1-0.1,0.1-0.2,0.2-0.2c0.3,0,0.2,0.3,0.3,0.5c0,0.1,0,0.1,0,0.2c0,0,0,0,0,0
		c-0.1,0.1-0.3,0.3-0.3,0.3C49.2,25.1,49.3,24.8,49.2,24.6z"/>
	<path class="st66" d="M54.7,22.9c-0.1,0-0.1,0-0.2,0c-0.2,0-0.5,0-0.7,0C54,22.4,54.3,22.4,54.7,22.9z"/>
	<path class="st67" d="M55,25.1c0.1,0.1,0.1,0.1,0.2,0.2c0.4,0.2,0.8,0,1.1,0.1c-0.6,0.4-1.1,0.5-1.4-0.3
		C54.9,25.1,54.9,25.1,55,25.1C55,25.1,55,25.1,55,25.1z"/>
	<path class="st68" d="M73.8,24.1c-0.1-0.2-0.1-0.5-0.2-0.7c0-0.2,0-0.4,0.3-0.5c0,0,0,0,0,0c0.1,0.2,0.1,0.4,0,0.7
		C74,23.7,73.9,23.9,73.8,24.1z"/>
	<path class="st69" d="M46.2,22.1c0.2-0.4,0.5-0.3,0.9-0.2C46.8,22.2,46.5,22,46.2,22.1L46.2,22.1z"/>
	<path class="st38" d="M35.3,23.2c0.6,0,1.3,0,1.9,0C36.6,23.4,36,23.4,35.3,23.2z"/>
	<path class="st67" d="M53.7,25.4C53.7,25.4,53.7,25.4,53.7,25.4c0.2,0,0.4,0.1,0.6,0.1c-0.4,0.3-0.7,0.1-1.2,0
		C53.4,25.5,53.5,25.4,53.7,25.4z"/>
	<path class="st70" d="M66.3,25.3c-0.1-0.1-0.1-0.2-0.2-0.4c0.1-0.2,0.1-0.3,0.2-0.5C66.5,24.7,66.5,25,66.3,25.3z"/>
	<path class="st60" d="M58.9,22.5c-0.5,0-1,0-1.4,0C57.9,22.3,58.4,22.3,58.9,22.5z"/>
	<path class="st60" d="M75.6,22.5c-0.5,0-1,0-1.4,0C74.6,22.3,75.1,22.3,75.6,22.5z"/>
	<path class="st71" d="M57.5,25.1c0,0.1,0.1,0.2,0.1,0.3c-0.3-0.1-0.9,0.3-0.7-0.5C57,25.4,57.2,25.4,57.5,25.1z"/>
	<path class="st72" d="M67.6,25.3c0.2,0.1,0.5,0.1,0.6-0.2c0,0.2,0,0.4-0.3,0.5C67.7,25.6,67.6,25.4,67.6,25.3z"/>
	<path class="st73" d="M70.9,25.5c-0.2,0.2-0.5,0.2-0.6,0.5C70.3,25.5,70.5,25.4,70.9,25.5z"/>
	<path class="st74" d="M71.4,24.5c0,0.1,0.1,0.1,0.1,0.2c0,0.5,0,0.5-0.3,0.4C71.2,24.9,71.3,24.6,71.4,24.5z"/>
	<path class="st75" d="M77.8,22.9c-0.1,0.1-0.1,0.2-0.2,0.3c-0.3-0.4-0.5-0.1-0.8,0c-0.1-0.2,0-0.2,0.1-0.3
		C77.3,22.9,77.6,22.9,77.8,22.9z"/>
	<path class="st60" d="M71.4,22.5c-0.4,0-0.9,0-1.3,0C70.6,22.3,71,22.3,71.4,22.5z"/>
	<path class="st61" d="M73.4,22.6c-0.3,0-0.6,0-1,0C72.7,22.3,73,22.3,73.4,22.6z"/>
	<path class="st76" d="M52.1,21.9C52,22,51.9,22,51.9,22c-0.1,0-0.2,0-0.2-0.2c0,0,0.1-0.1,0.2-0.1C51.9,21.8,52,21.9,52.1,21.9z"/>
	<path class="st72" d="M68.7,24.6c0,0.3-0.2,0.8,0.5,0.6c-0.2,0.2-0.4,0.2-0.6,0.2C68.5,25.2,68.5,24.9,68.7,24.6z"/>
	<path class="st77" d="M62,23.8c0,0.4,0,0.9,0,1.3C61.7,24.7,61.7,24.3,62,23.8z"/>
	<path class="st78" d="M69.5,25.4c0-0.1,0.1-0.1,0.1-0.2c0,0.3,0,0.5,0.3,0.6C69.3,26.3,69.6,25.7,69.5,25.4z"/>
	<path class="st71" d="M56.3,25.4c-0.4,0-0.8,0.1-1.1-0.1c0.4,0,0.7,0.1,1.1-0.1C56.3,25.3,56.3,25.4,56.3,25.4z"/>
	<path class="st60" d="M56.8,22.5c-0.4,0-0.7,0-1.1,0C56.1,22.3,56.4,22.3,56.8,22.5z"/>
	<path class="st79" d="M54.9,25.1c-0.2,0.1-0.3,0.1-0.3-0.2l0,0c0.2-0.2,0-0.5,0.1-0.7l0,0c0.1-0.1,0.2,0,0.2,0
		C55,24.6,55,24.9,54.9,25.1L54.9,25.1z"/>
	<path class="st80" d="M52.5,22.5c-0.1,0.1-0.3,0.2-0.5,0.2c-0.1,0-0.1-0.1-0.1-0.1c0,0,0-0.1,0.1-0.1c0,0,0.1-0.1,0.1-0.1
		C52.3,22.2,52.4,22.3,52.5,22.5z"/>
	<path class="st81" d="M64.4,21.7c-0.4,0-0.7,0-1.1,0C63.6,21.5,64,21.5,64.4,21.7z"/>
	<path class="st82" d="M50.4,21.7c-0.4,0-0.7,0-1.1,0C49.7,21.5,50,21.5,50.4,21.7z"/>
	<path class="st83" d="M71.7,23c0,0.3,0.1,0.7-0.2,0.9c0.1-0.3,0.1-0.6,0-0.9C71.6,23.1,71.7,23,71.7,23z"/>
	<path class="st84" d="M13.5,14.5c0.1,0.1,0.1,0.1,0.2,0.2c-0.2,0.1-0.3,0.1-0.5,0.2C13.3,14.8,12.9,14.2,13.5,14.5z"/>
	<path class="st85" d="M75.9,23.1c0-0.1,0-0.1,0-0.2c0.3,0,0.5,0,0.8,0c0,0,0.1,0.1,0,0.1c0,0,0,0.1,0,0.1c-0.1,0-0.1,0-0.2,0
		c-0.2-0.1-0.5-0.1-0.6,0.2C75.9,23.2,75.9,23.1,75.9,23.1z"/>
	<path class="st86" d="M52.5,25.3c0.1,0,0.1,0.1,0.2,0.1c-0.3,0.2-0.5,0.2-0.8,0c0,0,0,0,0,0c0.1-0.2,0.3-0.3,0.5-0.2
		C52.4,25.3,52.5,25.3,52.5,25.3z"/>
	<path class="st60" d="M60,22.5c-0.3,0-0.6,0-1,0C59.4,22.3,59.7,22.3,60,22.5z"/>
	<path class="st87" d="M72.4,23c0.3-0.2,0.6-0.1,1-0.1c0,0,0,0.1,0,0.1C73,23,72.7,23,72.4,23z"/>
	<path class="st88" d="M76.7,23c0-0.1,0-0.1,0-0.2c0.1,0,0.2,0,0.3,0c0,0.1-0.1,0.2-0.1,0.3c0,0.1,0,0.2,0,0.3
		C76.5,23.5,76.7,23.2,76.7,23z"/>
	<path class="st60" d="M38.4,20.6c0-0.3,0-0.6,0.2-0.8C38.5,20.1,38.6,20.4,38.4,20.6z"/>
	<path class="st89" d="M35.5,19.7c0,0.3,0.1,0.6-0.2,0.8C35.3,20.2,35.3,19.9,35.5,19.7z"/>
	<path class="st90" d="M45.4,25.4c0.1,0,0.1,0,0.2,0.1c0,0-0.1,0.1-0.1,0.1c-0.1,0-0.1,0-0.2-0.1C45.2,25.5,45.3,25.5,45.4,25.4z"/>
	<path class="st91" d="M46.4,25.4c0.3,0,0.5,0,0.8,0C46.9,25.7,46.7,25.6,46.4,25.4z"/>
	<path class="st92" d="M50.1,25.6c-0.1,0-0.1-0.1-0.2-0.1c0,0,0.1,0,0.1,0c0.1,0,0.1,0,0.2,0.1C50.3,25.5,50.2,25.6,50.1,25.6z"/>
	<path class="st93" d="M58.7,25.4c-0.3,0.2-0.5,0.2-0.8,0c0,0,0,0,0,0C58.2,25.3,58.5,25.3,58.7,25.4L58.7,25.4z"/>
	<path class="st84" d="M12.5,17.3c0-0.2,0-0.4,0-0.6C12.7,16.8,12.8,17.1,12.5,17.3z"/>
	<path class="st94" d="M56.2,16.1c-0.1,0-0.1,0-0.2,0c-0.1-0.3-0.1-0.5,0-0.8c0,0,0,0,0,0c0.1,0.1,0.1,0.1,0.2,0.2
		C56.2,15.7,56.2,15.9,56.2,16.1z"/>
	<path class="st95" d="M69.8,26.2c0.1,0,0.1,0,0.2,0.1c-0.1,0-0.1,0.1-0.2,0.1c-0.1,0-0.1-0.1-0.2-0.1
		C69.6,26.3,69.7,26.3,69.8,26.2z"/>
	<path class="st96" d="M9.6,15c-0.1,0-0.1,0-0.2,0c-1.7-0.2-3.4,0-5.1-0.1c-0.4,0-0.8,0.1-1.2-0.1c0-3.2,0-6.5,0-9.7
		c0-1.7,0-1.7,1.7-1.7c26.4,0,52.9,0,79.3,0c0,0.2,0,0.3,0,0.5c-0.2,0.2-0.2,0.5-0.2,0.8c0,3.1,0,6.3,0,9.4c0,0.3,0,0.5,0.2,0.8
		c0,0.1,0,0.1,0,0.2c0,0,0,0,0,0c-0.4,0.2-0.8,0.1-1.2,0c-0.2-0.1-0.5,0-0.7,0c-7.1,0-14.2,0-21.4,0c-0.2,0-0.4,0-0.6,0
		c-0.1,0-0.2,0.1-0.3,0.1c-0.1,0.1-0.1,0.2-0.2,0.3c-0.4-0.4-0.9-0.8-1.3-1.2c-0.4-0.4-0.2-0.7,0.6-1.1c0.4-0.1,0.8-0.4,1.1-0.7
		c0.3-0.2,0.5-0.4,0.8-0.5c0.2-0.2,0.3-0.4,0.6-0.4c0.1-0.1,0.2-0.1,0.3-0.3c0-0.1,0-0.1,0.1-0.2c0.1-0.1,0.3-0.3,0.3-0.4
		c-0.1-0.2-0.3-0.1-0.5-0.1c-1,0-2-0.2-2.9,0.5c-0.3-0.1-0.3,0.1-0.4,0.3c-0.1,0.2-0.2,0.3-0.4,0.3c-0.2,0.1-0.4,0.1-0.5,0.3
		c0,0-0.1,0-0.1,0c-0.4-0.1-0.6-0.3-0.4-0.7c0-0.3,0.2-0.5,0.1-0.8c0.1-0.3,0-0.6,0.1-0.8c0.4-0.6,0.4-1.3,0.6-2
		c0.1-0.2,0-0.4,0.1-0.5c0.1-0.5,0.4-0.9,0.3-1.5c-0.8-0.2-1.6-0.5-2.3,0.2c-0.1,0-0.1,0-0.2,0.1c-0.1,0.2,0,0.3-0.1,0.5
		c0,0.1,0,0.1-0.1,0.2c-0.1,0.2,0,0.5-0.2,0.7l0,0c-0.4,0.2-0.2,0.6-0.3,0.8c-0.1,0.4-0.2,0.8-0.3,1.2c0,0.2,0,0.5-0.2,0.7
		c0,0.1,0,0.2,0,0.3c-0.2,0.4-0.3,0.8-0.3,1.3c0,0.1,0,0.1-0.1,0.2c-0.1,0.2-0.1,0.4-0.1,0.6c0,0.1,0,0.1-0.1,0.2
		c-0.1,0.2,0,0.4-0.2,0.6c-0.3,0.3-0.2,0.7-0.2,1c0,0.1-0.1,0.1-0.1,0.2c-0.2,0.2-0.2,0.4-0.2,0.7c-0.4,0.1-0.9,0.4-1.1-0.3
		c0-0.2,0-0.3,0-0.5c0-0.5,0.1-0.9,0.3-1.3c0.2,0,0.2-0.2,0.2-0.4c0.2-0.3,0.2-0.6,0-0.9c0.2-1.3,0.2-1.3-1.1-1.3
		c-1.3,0-2.5,0-3.8,0c0-0.3,0.3-0.3,0.5-0.4c1.3,0,2.5,0,3.8,0c-1.4,0.1-2.8-0.1-4.2,0.1c-0.1,0.1-0.4,0.1-0.4,0.3
		c-0.4,0.2-0.8,0.3-1.2,0.5c-0.3-0.1-0.4,0.3-0.6,0.4c-0.3,0.3-0.6,0.6-0.6,1.1c0,0,0,0.1,0,0.1c-0.1,0.1-0.2,0.1-0.3,0.1
		c-0.4-0.1-0.1-0.7-0.5-0.9c-0.4-0.6-0.8-1-1.4-1.3c-0.1-0.2-0.4-0.2-0.6-0.3c-1.3-0.2-2.5-0.2-3.8,0c-0.1,0.1-0.3,0.1-0.4,0.2
		c-0.2,0.5-0.3,1-0.5,1.5c-0.2,0-0.2,0.2-0.3,0.3c-0.1,0.2-0.2,0.4-0.1,0.6c-0.1,0.3,0.1,0.5,0,0.8l0,0.1l-0.1,0
		c-0.1,0-0.2,0.2-0.2,0.3c0,0.2-0.1,0.4-0.1,0.6c-0.1,0.5-0.3,0.8-0.9,0.7c-0.2,0-0.5-0.1-0.6,0.2c-0.4-0.5,0.1-0.9,0.1-1.3
		c0.3-0.2,0.3-0.6,0.4-0.8c0.1-0.2,0.2-0.5,0.1-0.7c0-0.1,0-0.3,0-0.4c0-0.5,0.1-1,0.3-1.5c0,0.1,0.1,0.1,0.1,0.1
		c-0.1,0-0.1,0-0.1,0c-0.4-0.7-1.1-0.3-1.7-0.3c-0.4-0.1-0.4,0.4-0.5,0.7c0,0.1-0.1,0.2-0.2,0.4c-0.2,0.1-0.3,0.3-0.3,0.5
		c-0.2,0.5-0.1,1-0.3,1.5c0,0.5-0.1,0.9-0.4,1.3c-0.3,0.7-1.5,0.8-2.2,0.2c0-0.3,0-0.6,0.2-0.8c0.3-0.1,0.2-0.4,0.3-0.6
		c0-0.3,0.2-0.6,0.2-0.9c0-0.1,0-0.1,0.1-0.2c0.2-0.2,0.1-0.5,0.2-0.7c0.1-0.3,0.3-0.5,0.1-0.8c-0.4-0.6-1.7-0.5-2.2,0.1
		c-0.1,0-0.2,0-0.2,0.1c-0.3,0.6-0.5,1.1-0.5,1.8c0,0.1,0,0.1,0,0.2c-0.1,0.2-0.1,0.5-0.1,0.7c0,0.1,0,0.3,0,0.4
		c0,0.1,0,0.1-0.1,0.2c-0.1,0.2,0,0.5-0.2,0.7c0,0,0,0.1,0,0.1c-0.4,0.1-0.9,0.5-1.2-0.2c0.3-0.2,0-0.5,0.2-0.8
		c0.3-0.5,0.5-1.1,0.4-1.7c0-0.5,0.4-1,0.2-1.6c0-0.4-0.4-0.4-0.7-0.4c-1.6,0-3.1,0-4.7,0c0-0.3,0.3-0.3,0.4-0.4
		c1.3-0.1,2.6,0,3.9,0c-1.3,0-2.5,0-3.8,0c-0.1,0-0.1,0-0.2,0.1c-0.4,0.1-0.7,0.2-1,0.5c-0.3,0.1-0.5,0.3-0.8,0.4
		c-0.1-0.1-0.2-0.2-0.3-0.3c-0.1-0.1,0.1-0.3,0-0.4c0.4-0.9,0.5-1.9,0.3-2.9c0.1-0.1,0.2-0.1,0.3-0.1c0.1,0.1,0.1,0.2,0.1,0.3
		c-0.1,0.4,0,0.8,0,1.1c0-0.7,0.1-1.3-0.5-1.8C21,7,20.9,6.8,20.7,6.7c-0.6-0.5-1.3-0.6-2-0.6c-3,0-5.9,0-8.9,0
		C9.4,6.1,9,6.1,8.8,6.5C8.5,6.2,8.7,6.8,8.5,6.7C8.2,6.9,8.5,7,8.5,7.1c0,0.1,0.1,0.2,0.2,0.2c0,0.5,0.3,0.4,0.6,0.4
		c0.8,0,1.6-0.1,2.5,0.1c0,0.1-0.1,0.1-0.1,0.2c-0.5,0.1-1-0.1-1.4,0c0.2,0,0.6-0.1,0.9,0.1c0.1,0.3-0.1,0.3-0.3,0.3
		c-0.3,0-0.7,0-1,0c0,0,0,0,0.1,0c1.7,0,1.5-0.3,1.3,1.6c0,0.1,0.1,0.2,0.2,0.2c0,0.7-0.2,1.4-0.5,2.1c-0.5,0.3-0.2,0.8-0.4,1.2
		c-0.1,0.2-0.1,0.3-0.1,0.5c0,0.3-0.2,0.4-0.5,0.5C9.8,14.7,9.8,14.9,9.6,15z"/>
	<path class="st96" d="M16.9,14.2L16.9,14.2L16.9,14.2c-0.2-0.4-0.4-0.6-0.7-0.8l0,0c-0.1-0.3-0.7-0.5-0.6-0.8
		c0.2-0.4,0.7-0.1,1.1-0.2c0.9,0,1.9,0.1,2.7-0.3c0.1,0,0.2-0.1,0.3,0c0.2,0.1,0.2,0.3,0.2,0.5c0,0.1-0.1,0.2-0.1,0.2
		c-0.3,0.5-0.3,1-0.3,1.6c0,0.8,0,0.9-0.9,0.9c-0.1,0-0.3,0-0.4,0c-0.3,0-0.4-0.2-0.6-0.4C17.4,14.6,17.2,14.3,16.9,14.2z"/>
	<path class="st96" d="M22,15c-0.3-0.5-0.3-1.1,0-1.6c0.4-0.4,0.9-0.6,1.3-1c0.6-0.3,1.2-0.1,1.8-0.1c0.5,0,0.4,0.3,0.1,0.6
		c-0.4-0.6-0.9-0.3-1.4-0.4c0.3-0.1,0.7,0,1,0c0.1,0.1,0.1,0.2,0.1,0.3c-0.2,0.2-0.1,0.5-0.1,0.7c0,0.1,0,0.2-0.1,0.3
		c-0.2,0.2-0.2,0.5-0.1,0.7c0,0.1,0,0.2-0.1,0.2c-0.1,0.1-0.1,0.3-0.3,0.4c-0.6,0-1.2,0.2-1.9,0.1c-0.3-0.1-0.3-0.3-0.4-0.5
		c0-0.3,0-0.7,0-0.9c0,0.3,0,0.6,0,0.9C22.1,14.9,22.1,15,22,15z"/>
	<path class="st96" d="M50.6,13.7c0,0.4-0.1,0.8-0.3,1.1c0,0-0.1,0-0.1,0c-0.1-0.2,0-0.4-0.1-0.5c0.1,0.2,0,0.4,0,0.6
		c-0.1,0.2-0.1,0.4-0.3,0.4c-0.6-0.1-1.2,0.1-1.8-0.1c-0.1-0.1-0.1-0.1-0.2-0.2c-0.1-0.5,0-0.9,0-1.4c0-0.4,0.4-0.6,0.6-0.9
		c0.7-0.6,1.6-0.3,2.4-0.3c0.4,0,0.1,0.4,0.1,0.6c0,0-0.1,0-0.1,0c-0.1-0.3-0.4-0.4-0.7-0.4c0.2,0,0.4,0,0.5,0.2
		C50.7,13,50.3,13.4,50.6,13.7z"/>
	<path class="st96" d="M39.8,12.7c0-0.1,0-0.2,0.1-0.3c0.4-0.3,1.9-0.2,2.3,0.3c0.2,0.2,0.1,0.4,0.1,0.6c0,0.4,0,0.8,0,1.2
		c0,0.1,0,0.2-0.1,0.2c-0.2,0.2-0.5,0.5-0.9,0.6c-0.4,0-0.7,0-1.1,0c-0.4,0-0.6-0.1-0.7-0.5c0-0.1,0-0.2,0-0.3
		c0-0.2,0.1-0.5,0.1-0.7c0-0.1,0-0.2,0.1-0.2c0.2-0.2,0-0.5,0.2-0.7c0.1-0.1,0.1-0.1,0.2-0.1c0.3,0.3,0.2-0.3,0.4-0.2c0,0,0,0,0.1,0
		c0.1,0,0.1,0,0.2,0c0.1,0,0.1,0,0,0c-0.1,0,0,0-0.1,0c-0.2,0-0.4,0.1-0.7,0.2C40,12.8,39.9,12.8,39.8,12.7
		C39.8,12.8,39.8,12.8,39.8,12.7z"/>
	<path class="st97" d="M48.3,12.6c0.1,0.4-0.1,0.6-0.3,0.8c-0.1,0.5-0.2,1.1,0,1.6l0,0c0.6,0.3,1.2,0.1,1.8,0.2
		c0.1-0.1,0.2-0.2,0.3-0.3c0-0.1,0.1-0.1,0.1,0c0,0,0.1,0,0.1,0c0,0.7-0.3,1-1,0.8c-0.2,0-0.3,0-0.5,0c-0.7,0-1.3-0.2-1.5-1
		C47.1,13.8,47.5,13,48.3,12.6z"/>
	<path class="st98" d="M19.6,12.1c-0.3,0.4-0.8,0.5-1.3,0.5c-0.8,0-1.6,0-2.5,0c0.1,0.3,0.5,0.5,0.4,0.9c-0.5-0.1-0.9-0.5-1.1-0.9
		c-0.2-0.3,0.1-0.3,0.3-0.3c0.7,0,1.4,0,2.1,0c0.7,0,1.4-0.1,2-0.4C19.6,11.9,19.6,12,19.6,12.1z"/>
	<path class="st99" d="M18,10.5c-1.3,0.2-2.7,0.1-4,0.1c-0.7,0-0.1-0.6-0.1-0.9c0.2,0,0.2-0.2,0.2-0.3C14.3,9.2,14.3,9,14.5,9
		c0.1,0,0.2,0,0.2,0.1c0.2,0.5,0.6,0.6,1.1,0.6c0.6,0,1.1,0,1.7,0c0.3,0,0.7,0,0.8,0.5c-0.9,0.3-1.9,0-2.7,0.2
		C16.3,10.5,17.2,10.1,18,10.5z"/>
	<path class="st100" d="M18,10.5c-1.3,0-2.5,0-3.8,0c0-0.1,0-0.2,0-0.2c1.4-0.2,2.7,0,4.1-0.1c0.1-0.3,0.1-0.8,0.6-0.8
		c0.1,0,0.2,0,0.2,0.1c0,0.2,0,0.3-0.1,0.5C18.7,10.2,18.5,10.6,18,10.5z"/>
	<path class="st101" d="M22,15c0-0.1,0-0.1,0-0.2c0.1,0,0.1,0,0.1,0c0.1,0.1,0.2,0.2,0.3,0.3c0.6-0.2,1.3,0.1,1.9-0.1
		c0.1-0.1,0.1-0.2,0.2-0.3c0.2-0.1-0.1-0.5,0.3-0.5c0,0,0.1,0,0.1,0.1c-0.2,1.4-1,1.9-2.4,1.4C22.3,15.5,22,15.4,22,15z"/>
	<path class="st102" d="M42.9,10.2c0.1,0.2,0.3,0.3,0.3,0.5c0,0-0.1,0-0.1,0l-0.1,0c-1.1-0.2-2.2,0-3.3-0.1c-0.4,0-0.8,0-1.2,0
		c-0.1,0-0.1,0-0.2,0.1c0-0.1,0-0.3,0-0.4C39.9,10.1,41.4,10.1,42.9,10.2z"/>
	<path class="st103" d="M27.4,15c0.1,0.3,0.1,0.3,1,0.3c0,0.1,0.1,0.3-0.2,0.3c-0.4-0.2-0.8-0.1-1.1,0c-0.4,0.1-0.4-0.2-0.3-0.4
		c0.2-0.9,0.5-1.8,0.8-2.7c0.1,0,0.2,0.1,0.3,0.2c0.2,0.5-0.1,0.9-0.2,1.4C27.4,14.4,27.6,14.8,27.4,15z"/>
	<path class="st104" d="M18.1,15c0.2,0,0.4,0,0.6,0c0.4,0,0.5-0.1,0.5-0.6c-0.1-0.7-0.1-1.3,0.5-1.8c0.2,0.1,0.2,0.2,0.2,0.3
		c0,0,0,0.1,0,0.1c-0.3,0.6-0.3,1.3,0,1.9c0,0.1,0,0.2,0,0.3c-0.5,0.4-1,0.1-1.5,0.2C18.2,15.4,18.1,15.3,18.1,15z"/>
	<path class="st105" d="M57.5,9.8c0,0.3,0.1,0.6,0,0.9c0.1,0.3,0.1,0.5,0,0.8c-0.2,0.3,0,0.5,0.2,0.7c-0.1,0-0.1,0.1-0.2,0.1
		c-0.2,0.1-0.5,0.2-0.7,0c0.1-0.9,0.4-1.7,0.6-2.6C57.5,9.7,57.5,9.8,57.5,9.8z"/>
	<path class="st106" d="M30.8,15.2c0.4,0,0.8,0.2,1.2,0.2c0.4,0,0.7-0.1,0.9-0.5c0.1-0.1,0.2-0.1,0.2,0c0,0.6-0.2,0.9-0.9,0.8
		c-0.4,0-0.8,0-1.2,0C30.5,15.7,30.6,15.5,30.8,15.2z"/>
	<path class="st107" d="M41.4,15.2c0.2-0.2,0.4-0.3,0.6-0.5c0.3,0,0.3,0.1,0.2,0.3c-0.2,0.2-0.5,0.3-0.7,0.5
		c-0.7,0.2-1.5-0.1-2.2,0.2c-0.5-0.3-0.1-0.7,0-1c0.1-0.1,0-0.4,0.3-0.4c0.1,0,0.1,0,0.2,0.1c0,0.1,0,0.1,0,0.2
		c-0.3,0.7,0.2,0.6,0.6,0.6c0.3,0,0.6,0,0.9,0C41.3,15.2,41.4,15.2,41.4,15.2z"/>
	<path class="st108" d="M45.3,14.5c0.1,0.3,0.1,0.6,0.3,0.8c0.2,0.1,0.2,0.4-0.2,0.3c-0.3-0.2-0.7,0-1.1-0.1c-0.2,0-0.4,0.1-0.4-0.3
		c0.2-0.3,0.3-0.6,0.5-0.9c0.1,0,0.2,0,0.2,0c0.1,0,0.1,0,0.2-0.1C45.1,14.3,45.2,14.4,45.3,14.5z"/>
	<path class="st109" d="M9.8,14.5c0.1-0.2,0.2-0.4,0.3-0.6c0-0.1,0-0.2,0.2-0.3c0.1-0.6,0-1.2,0.4-1.8c0,0.2,0.1,0.4,0.1,0.5
		c-0.2,0.8-0.3,1.6-0.7,2.4C10,14.6,9.9,14.6,9.8,14.5z"/>
	<path class="st110" d="M42.2,15c-0.1-0.1-0.1-0.2-0.2-0.3c0,0,0-0.1,0-0.1c0.1-0.5,0.1-1,0-1.4c0-0.1,0.1-0.3,0.1-0.4
		C42.9,13.3,42.9,14.2,42.2,15z"/>
	<path class="st111" d="M57.5,9.8c0,0,0-0.1,0-0.1c0-0.7,0.4-1.4,0.5-2c0.3-0.1,0.2,0.2,0.3,0.3C58.1,8.4,58,8.8,58,9.2
		C58,9.6,57.8,9.8,57.5,9.8z"/>
	<path class="st112" d="M44.6,14.5c0-0.1-0.1-0.1-0.1-0.2c0-0.2-0.1-0.4,0.1-0.5c0.2-0.5,0.1-1,0-1.6c0-0.1,0-0.2,0-0.3
		c0.4,0,0.4,0,0.5,0.8c0.1,0.1,0.1,0.2,0.1,0.3c-0.1,0.3-0.2,0.5-0.1,0.8c0,0.3-0.2,0.4-0.3,0.5C44.8,14.5,44.8,14.6,44.6,14.5z"/>
	<path class="st113" d="M35.5,15.7c0-0.2,0-0.4,0.3-0.4c0.9,0.2,1.1-0.3,1.2-1.1c0-0.1,0.1-0.1,0.1-0.2c0.1,0.2,0.1,0.5,0,0.7
		c0.1,0.7-0.1,1.1-0.9,1C35.9,15.7,35.7,15.7,35.5,15.7z"/>
	<path class="st114" d="M27.7,12.8c-0.1-0.1-0.1-0.1-0.2-0.2c0.1-0.5,0.1-1.1,0.4-1.5c0.2-0.2,0.3-0.2,0.3,0.1
		c-0.1,0.5-0.2,1-0.3,1.5C28,12.8,27.9,12.8,27.7,12.8z"/>
	<path class="st96" d="M38.5,10.6c1.5-0.1,3-0.2,4.5,0.1C41.5,10.6,40,10.6,38.5,10.6z"/>
	<path class="st115" d="M36.1,13.6c0,0.4-0.1,0.7-0.5,0.8c0.1-0.7,0.2-1.3,0.5-1.9c0.5-0.1,0.2,0.2,0.2,0.3
		C36.4,13.1,36.4,13.4,36.1,13.6z"/>
	<path class="st116" d="M19.6,12.1c-0.1-0.1-0.1-0.1-0.2-0.2c0.5-0.5,1-0.9,1.5-1.4c0.1,0.1,0.1,0.2,0.2,0.3c0,0.2-0.1,0.4-0.2,0.6
		c-0.1,0.2-0.3,0.2-0.4,0.3c-0.2,0.2-0.4,0.5-0.7,0.4C19.7,12.1,19.6,12.1,19.6,12.1z"/>
	<path class="st117" d="M18.5,7.8C18.7,7.9,19,7.9,19,8.2C19,8.3,19,8.4,19,8.4c-0.4,0.3-0.8-0.2-1.2-0.1c-0.1,0-0.2,0-0.3,0
		c-0.7-0.1-1.5,0.2-2.2-0.2c0.1-0.4,0.4-0.2,0.6-0.2C16.7,7.8,17.6,8,18.5,7.8z"/>
	<path class="st0" d="M37.4,22.9c-0.1,0-0.1,0-0.2,0c-0.6,0.1-1.2,0.1-1.9,0c-0.1,0-0.1,0-0.2,0c0-0.2,0-0.3,0.2-0.5
		c0.4,0.7,1.1,0.2,1.6,0.3c0.4,0.1,0.4-0.4,0.5-0.7c0.1-0.3,0.2-0.5,0.3-0.8C37.8,21.8,37.6,22.3,37.4,22.9z"/>
	<path class="st118" d="M14.5,9.1c-0.1,0.2-0.1,0.3-0.2,0.5c-0.2,0-0.2-0.2-0.3-0.3c0.1-0.4,0.2-0.8,0.3-1.1
		c0.1-0.4,0.3-0.5,0.6-0.2C15,7.9,15,8,15,8.1C14.9,8.4,14.9,8.9,14.5,9.1z"/>
	<path class="st5" d="M18.3,15.3c0.5,0,1.1,0,1.6,0c0.3,0.1,0.3,0.3,0.1,0.3c-0.6,0-1.3,0.3-1.9-0.1C18.1,15.3,18.2,15.3,18.3,15.3z
		"/>
	<path class="st119" d="M19.9,15c-0.5-0.5-0.5-1.4,0-1.9C19.9,13.7,19.9,14.4,19.9,15z"/>
	<path class="st120" d="M14.9,8.1c0-0.1,0-0.1,0-0.2c0.7-0.4,1.4-0.1,2.1-0.2c0.5,0,1,0,1.5,0C18,8.1,17.4,7.9,16.9,8
		c-0.5,0.1-1.1-0.1-1.6,0.2C15.2,8.2,15.1,8.2,14.9,8.1C15,8.2,15,8.1,14.9,8.1z"/>
	<path class="st121" d="M23.3,12.4c-0.2,0.6-0.7,0.8-1.3,1C22.2,12.8,22.6,12.5,23.3,12.4z"/>
	<path class="st122" d="M8.7,7.3C8.5,7.4,8.5,7.7,8.3,7.6c-0.2-0.1,0-0.3,0.1-0.5C8.2,7,8.2,6.8,8.4,6.7c0.2-0.1,0.2-0.4,0.4-0.4
		c0,0,0.1,0.2,0.1,0.3C8.8,6.8,8.7,7.1,8.7,7.3z"/>
	<path class="st123" d="M58.4,5.9c0.2,0,0.4,0,0.3,0.2c-0.1,0.4-0.1,0.9-0.4,1.2c-0.1-0.1-0.1-0.2-0.2-0.3C58,6.6,58.2,6.2,58.4,5.9
		z"/>
	<path class="st124" d="M29.2,10.7c0.4-0.1,0.3,0.2,0.4,0.4c0,0.5-0.1,0.9-0.4,1.4c-0.3-0.2-0.2-0.5-0.3-0.8
		C29.2,11.3,29.1,11,29.2,10.7z"/>
	<path class="st113" d="M33.1,14.9c-0.1,0-0.1,0-0.2,0c0.1-0.4,0.2-0.9,0.3-1.3c0.1-0.1,0.2-0.3,0.3-0.1
		C33.5,13.9,33.5,14.5,33.1,14.9z"/>
	<path class="st125" d="M52.7,14.7c0,0.8,0.4,0.7,1,0.5c-0.1-0.2-0.1-0.4,0-0.6c0.1,0,0.1,0,0.2,0c0.1,0.1,0.1,0.1,0.1,0.2
		c0,0.2,0.1,0.5-0.1,0.7c-0.1,0.1-0.1,0.3-0.3,0.2c-0.2-0.2-0.4-0.1-0.6-0.1c-0.2,0-0.5,0.1-0.5-0.1C52.4,15.2,52.2,14.8,52.7,14.7z
		"/>
	<path class="st126" d="M24.6,13.7c0.1-0.1,0.1-0.1,0.2-0.2c-0.1-0.3-0.1-0.5,0-0.8c0.1-0.1,0.1-0.1,0.2-0.2c0.3,0,0.3,0.2,0.2,0.4
		c0,0.4,0.1,0.8-0.2,1.2c0,0,0,0-0.1,0c-0.1-0.1-0.3-0.1-0.3-0.3C24.5,13.8,24.5,13.8,24.6,13.7z"/>
	<path class="st127" d="M44.8,14.4c0.1-0.2,0.2-0.4,0.3-0.5c-0.1-0.3-0.1-0.5,0-0.8c0-0.1,0-0.2,0-0.3c0.1,0,0.2,0,0.3,0
		c0,0.6-0.3,1.2-0.2,1.8c-0.1-0.1-0.2-0.1-0.3-0.2C44.9,14.5,44.8,14.5,44.8,14.4z"/>
	<path class="st128" d="M60.5,12.6c-0.2,0.6-0.6,0.7-1.1,0.6c0.3-0.3,0.7-0.6,1.1-0.9C60.6,12.5,60.6,12.5,60.5,12.6z"/>
	<path class="st98" d="M62.2,11.2c0,0,0.1,0.1,0.1,0.1c0.1,0.3-0.2,0.3-0.3,0.5c-0.2,0.1-0.4,0.2-0.6,0.3c-0.1,0-0.2-0.1-0.2-0.2
		C61.4,11.6,61.7,11.3,62.2,11.2z"/>
	<path class="st129" d="M52.7,14.7c-0.3,0.5-0.4,0.8,0.4,0.8c0.2,0,0.3,0,0.4,0.2c-0.1,0-0.1,0-0.2,0c-1.3,0.1-1.3,0.1-0.9-1.2
		C52.5,14.5,52.7,14.5,52.7,14.7z"/>
	<path class="st130" d="M11.3,10.2c-0.1,0.1-0.1,0.1-0.2,0.2c-0.4-0.4-0.1-1.3,0.4-1.6c0.1,0.1,0.1,0.2,0,0.3
		C11.5,9.4,11.4,9.8,11.3,10.2z"/>
	<path class="st131" d="M33.6,13.4c-0.1,0-0.2,0.1-0.3,0.1c0.1-0.5,0.2-1.1,0.3-1.6c0.3,0,0.2,0.2,0.2,0.4
		C33.8,12.7,33.8,13.1,33.6,13.4z"/>
	<path class="st132" d="M20.7,6.7c0.3,0,0.5,0.1,0.7,0.3c0.1,0.2,0.3,0.4,0.2,0.6c-0.1,0-0.2,0-0.3,0C21,7.3,20.9,7,20.7,6.7z"/>
	<path class="st133" d="M56.8,12.3c0.2,0,0.5,0,0.7,0c-0.3,0.2-0.4,0.5-0.8,0.7C56.6,12.7,56.7,12.5,56.8,12.3z"/>
	<path class="st134" d="M54.9,9.4C55,9,55,8.6,55.2,8.3c0.1-0.1,0.2-0.1,0.3,0c0,0.2-0.1,0.4-0.2,0.6c-0.2,0.1,0,0.5-0.3,0.6
		C55,9.5,55,9.5,54.9,9.4z"/>
	<path class="st135" d="M54.4,12c0.1-0.5-0.1-1.1,0.5-1.4c0.1,0.4-0.2,0.7-0.2,1.1C54.6,11.7,54.7,12.1,54.4,12z"/>
	<path class="st109" d="M48.6,10.5c-0.2,0-0.4,0-0.5,0.2c-0.1,0-0.2,0-0.3,0.1c-0.1,0-0.3-0.1-0.3-0.1c0-0.1,0.1-0.1,0.2-0.2
		c0.1-0.1,0.3-0.1,0.4-0.2c0.1-0.1,0.3-0.1,0.5-0.1C48.7,10.2,48.7,10.4,48.6,10.5z"/>
	<path class="st102" d="M31.4,13.7c0,0.3,0,0.6-0.2,0.8c-0.3,0.3-0.1-0.1-0.2-0.2c0-0.2-0.1-0.5,0.1-0.6c0.1,0,0.1-0.1,0.2-0.1
		C31.3,13.6,31.4,13.7,31.4,13.7z"/>
	<path class="st136" d="M23.1,10.5c-0.2,0.1-0.3,0.1-0.5,0.2c-0.2,0.1-0.4,0.1-0.6,0.2c0.1-0.6,0.6-0.5,1-0.6
		C23.1,10.3,23.1,10.4,23.1,10.5z"/>
	<path class="st126" d="M19.9,13c-0.1-0.1-0.1-0.2-0.2-0.3c0,0,0,0,0,0c0.1-0.4,0.3-0.6,0.7-0.9c0.1,0,0.1,0,0.2,0.1
		C20.4,12.2,20.4,12.7,19.9,13z"/>
	<path class="st112" d="M53.8,14.7c0-0.1,0-0.1,0-0.2c0-0.4,0-0.8,0.3-1.1c0.1,0.1,0.1,0.1,0,0.2c0,0.4,0.1,0.8-0.1,1.1
		C53.9,14.8,53.8,14.8,53.8,14.7z"/>
	<path class="st96" d="M39.7,14.4c-0.1,0.1-0.2,0.2-0.3,0.3c0.1-0.7,0.2-1.3,0.4-2c0,0,0.1,0,0.1,0.1c0,0.3,0.1,0.5-0.1,0.8l0,0
		C39.6,13.8,39.8,14.1,39.7,14.4z"/>
	<path class="st137" d="M50.6,13.7c-0.6-0.2-0.1-0.6-0.2-1c0-0.1,0-0.2,0.1-0.2c0.2,0,0.1,0.2,0.2,0.3c0,0,0,0.1,0.1,0.1
		C50.8,13.2,50.7,13.5,50.6,13.7z"/>
	<path class="st96" d="M31.3,13.7c-0.1,0-0.1,0-0.2,0c0.2-0.6,0.3-1.3,0.5-1.9c0,0,0.1,0.1,0.1,0.1c0,0.2,0.1,0.5-0.1,0.7l0,0
		C31.5,13,31.5,13.4,31.3,13.7z"/>
	<path class="st96" d="M54.4,12c0.1-0.1,0.2-0.2,0.3-0.3c-0.1,0.6-0.2,1.3-0.5,1.9c-0.1-0.3-0.1-0.5,0-0.8l0,0
		C54.4,12.5,54.2,12.2,54.4,12C54.4,12,54.4,12,54.4,12z"/>
	<path class="st138" d="M39.3,15.7c0.7-0.4,1.5-0.1,2.2-0.2C40.8,15.9,40.1,15.7,39.3,15.7z"/>
	<path class="st133" d="M53.1,11.9c0.5,0.3,0.2,0.7,0.1,1c-0.3,0-0.2-0.2-0.2-0.4C53,12.4,52.9,12.1,53.1,11.9z"/>
	<path class="st139" d="M31.8,11c0.4,0.1,0.4,0.2,0,0.8c0,0-0.1,0-0.1,0c0,0-0.1,0-0.1,0C31.6,11.5,31.6,11.2,31.8,11z"/>
	<path class="st140" d="M25.1,13c-0.1-0.1-0.1-0.3-0.2-0.4c-0.4,0-0.8,0-1.2,0c0.5,0.1,1.2-0.6,1.5,0.3C25.2,12.9,25.1,13,25.1,13z"
		/>
	<path class="st141" d="M53,12.6c0.1,0.1,0.1,0.2,0.2,0.4c0,0.2,0,0.4,0,0.7c-0.3,0-0.3-0.3-0.4-0.4C52.8,13,52.8,12.8,53,12.6z"/>
	<path class="st142" d="M61.1,11.9c0.1,0.1,0.1,0.1,0.2,0.2c-0.2,0.2-0.5,0.4-0.8,0.5c0-0.1,0-0.1,0-0.2
		C60.7,12.2,60.9,12.1,61.1,11.9z"/>
	<path class="st112" d="M45.5,12.6c-0.2-0.6,0.2-0.9,0.6-1.1c0.1-0.1,0.1-0.1,0.2,0C46,11.9,45.7,12.3,45.5,12.6z"/>
	<path class="st143" d="M16.9,14.2c0.5-0.2,0.6,0.2,0.8,0.5c0,0.2,0,0.2-0.2,0.2C17.2,14.7,17,14.5,16.9,14.2z"/>
	<path class="st144" d="M37.4,12.5c0.1-0.1,0.1-0.2,0.2-0.3c0-0.1,0-0.3,0.2-0.3c0.1,0,0.1,0.2,0.1,0.3c-0.2,0.2,0,0.5-0.3,0.7
		c-0.1,0-0.2-0.1-0.2-0.2C37.3,12.6,37.3,12.5,37.4,12.5z"/>
	<path class="st145" d="M17.5,14.9c0.1-0.1,0.1-0.1,0.2-0.2c0.2,0.1,0.3,0.2,0.5,0.3c0.1,0.1,0.1,0.2,0.2,0.3
		c-0.1,0.1-0.1,0.1-0.2,0.2C17.9,15.4,17.6,15.1,17.5,14.9z"/>
	<path class="st146" d="M44,15.3c0.4,0.4,1,0,1.5,0.3c-0.4,0-0.9,0-1.3,0C43.8,15.7,43.8,15.5,44,15.3z"/>
	<path class="st96" d="M19,9.9c0-0.2,0-0.4,0-0.5c-0.1-0.4-0.1-0.8,0.2-1.1C19.4,8.9,19.3,9.4,19,9.9z"/>
	<path class="st147" d="M33.7,12.3c-0.1-0.1-0.1-0.2-0.2-0.4c0.1-0.2,0.1-0.5,0.5-0.3C34,11.9,34.1,12.2,33.7,12.3z"/>
	<path class="st148" d="M44.6,12.3c0.3,0.5,0.3,1.1,0,1.6C44.6,13.3,44.6,12.8,44.6,12.3z"/>
	<path class="st149" d="M55.5,8.3c-0.1,0-0.2,0.1-0.3,0c0-0.3,0-0.7,0.4-0.8C55.6,7.8,55.6,8,55.5,8.3z"/>
	<path class="st150" d="M37.4,12.6c0.1,0.1,0.1,0.1,0.2,0.2c0,0.4,0.1,0.7-0.2,1.1c0-0.3-0.2-0.5,0-0.8
		C37.3,12.9,37.3,12.8,37.4,12.6z"/>
	<path class="st151" d="M16.2,13.4c0.4,0,0.6,0.2,0.7,0.7C16.5,14,16.2,13.8,16.2,13.4z"/>
	<path class="st152" d="M56,15.3c0,0.3,0,0.5,0,0.8c-0.2,0.2-0.1,0.5-0.4,0.6C55.7,16.3,55.9,15.8,56,15.3z"/>
	<path class="st96" d="M56.1,6.1c0,0.5-0.1,1-0.4,1.4c-0.1-0.3-0.1-0.5,0-0.8l0,0C55.9,6.5,55.6,6.1,56.1,6.1C56,6,56,6,56.1,6.1z"
		/>
	<path class="st153" d="M20.6,11.8c-0.1,0-0.1,0-0.2,0c-0.1,0-0.1-0.1-0.1-0.1c0,0,0-0.1,0.1-0.1c0.1-0.1,0.2-0.2,0.3-0.3
		c0.1-0.1,0.3-0.1,0.4,0C21,11.6,20.9,11.8,20.6,11.8z"/>
	<path class="st154" d="M29.1,13.2c0,0.2-0.1,0.4-0.2,0.6c-0.1,0.1-0.1,0.1-0.2,0c-0.1-0.1-0.2-0.3-0.2-0.4c0-0.1,0-0.2,0.1-0.3
		C28.8,13.1,28.9,13.1,29.1,13.2z"/>
	<path class="st96" d="M28.7,13.9c0.1,0,0.1,0,0.2,0c0,0.4-0.1,0.9-0.3,1.3c-0.1-0.3-0.1-0.5,0-0.8l0,0C28.7,14.3,28.6,14,28.7,13.9
		z"/>
	<path class="st155" d="M58.1,7c0.1,0.1,0.1,0.2,0.2,0.3c0,0.2,0,0.4,0,0.6c-0.1-0.1-0.2-0.2-0.3-0.3C57.9,7.4,57.9,7.2,58.1,7z"/>
	<path class="st156" d="M14,9.2c0.2,0,0.3,0.2,0.3,0.3c-0.1,0.1-0.1,0.2-0.2,0.3c-0.1-0.1-0.1-0.1-0.2-0.2C14,9.5,14,9.4,14,9.2z"/>
	<path class="st96" d="M55.1,9.4c0.1-0.2,0.2-0.3,0.3-0.5c0,0.4-0.1,0.9-0.3,1.2C54.9,9.9,54.9,9.7,55.1,9.4z"/>
	<path class="st157" d="M58.7,11.5c-0.3-0.3,0.1-0.4,0.2-0.5c0.2-0.1,0.1,0.1,0.1,0.2C58.9,11.3,58.8,11.4,58.7,11.5z"/>
	<path class="st155" d="M46.3,11.5c-0.1,0-0.1,0-0.2,0c0.2-0.2,0.3-0.4,0.5-0.5c0.2-0.1,0.2,0.1,0.1,0.2
		C46.6,11.3,46.4,11.4,46.3,11.5z"/>
	<path class="st158" d="M29.1,13.2c-0.2,0-0.3,0-0.5,0c-0.1,0-0.1-0.1-0.1-0.1c0,0,0-0.1,0.1-0.1l0,0c0.1-0.1,0.1-0.2,0.1-0.3
		c0.1-0.1,0.1-0.3,0.4-0.2C29.1,12.8,29.1,13,29.1,13.2z"/>
	<path class="st159" d="M27.1,15.7c0.4-0.3,0.8-0.3,1.1,0C27.9,15.7,27.5,15.7,27.1,15.7z"/>
	<path class="st160" d="M21.1,11.3c-0.1,0-0.3,0-0.4,0c0.1-0.2,0.2-0.3,0.3-0.5c0.1,0.1,0.1,0.3,0.2,0.4
		C21.2,11.3,21.2,11.4,21.1,11.3z"/>
	<path class="st161" d="M19.1,8.3c-0.1,0.4,0.1,0.8-0.2,1.1c0,0,0,0,0,0c-0.3-0.3-0.3-0.6,0-1c0-0.1,0-0.2,0-0.2
		C19,8.2,19.1,8.3,19.1,8.3z"/>
	<path class="st62" d="M32.1,19.2c0-0.3,0-0.6,0.3-0.8C32.4,18.7,32.3,19,32.1,19.2z"/>
	<path class="st162" d="M57.8,12.1c0-0.4,0.1-0.5,0.5-0.3C58.1,12,58,12.1,57.8,12.1z"/>
	<path class="st163" d="M11.6,7.9c0.1,0,0.1-0.1,0.2-0.1c0.3,0.2,0.1,0.3,0,0.5c0,0.1-0.1,0.1-0.2,0.1c-0.1,0-0.1-0.1-0.1-0.1
		C11.4,8.1,11.4,7.9,11.6,7.9z"/>
	<path class="st164" d="M55.1,9.4c0,0.3,0,0.5,0,0.8c0,0-0.1,0.1-0.1,0.1c0-0.3,0-0.6,0-0.9C55,9.4,55,9.4,55.1,9.4z"/>
	<path class="st96" d="M11.6,8.3c0.1,0,0.1,0,0.2,0c0,0.3,0,0.5-0.2,0.8c0-0.1,0-0.2,0-0.2C11.4,8.6,11.4,8.4,11.6,8.3z"/>
	<path class="st165" d="M12.5,15.5c0,0.3,0.1,0.6-0.2,0.8C12.4,16,12.4,15.7,12.5,15.5z"/>
	<path class="st166" d="M29.1,11.7c0.2,0.2,0.1,0.5,0.2,0.8c0,0-0.1,0.1-0.1,0.1c-0.1,0-0.1-0.1-0.2-0.2
		C28.9,12.1,28.9,11.8,29.1,11.7z"/>
	<path class="st154" d="M29,12.3c0,0.1,0,0.2,0,0.2c0,0,0,0.1,0,0.1c-0.1,0.1-0.2,0.2-0.3,0.3C28.6,12.6,28.6,12.3,29,12.3z"/>
	<path class="st167" d="M55.7,6.7c0,0.3,0,0.5,0,0.8c0,0-0.1,0.1-0.1,0.1C55.5,7.2,55.5,6.9,55.7,6.7z"/>
	<path class="st168" d="M54.3,12.8c0,0.3,0,0.5,0,0.8c0,0-0.1,0.1-0.1,0.1c0-0.1,0-0.1,0-0.2C54.1,13.2,54.1,12.9,54.3,12.8z"/>
	<path class="st0" d="M13.3,13.9c-0.1,0.1-0.3,0.2-0.4,0.3c0-0.2,0-0.4,0.2-0.5C13.1,13.7,13.2,13.8,13.3,13.9z"/>
	<path class="st169" d="M37.1,14.7c0-0.2,0-0.5,0-0.7c0.1,0,0.2-0.1,0.2-0.1C37.2,14.2,37.5,14.5,37.1,14.7z"/>
	<path class="st170" d="M28.6,14.4c0,0.3,0,0.5,0,0.8c0,0-0.1,0.1-0.1,0.1C28.4,14.9,28.4,14.6,28.6,14.4z"/>
	<path class="st129" d="M53.8,14.7c0.1,0,0.1,0,0.2,0c0,0.3,0,0.6-0.2,0.8C53.8,15.2,53.8,15,53.8,14.7z"/>
	<path class="st171" d="M36.3,17.9C36.2,18,36.1,18,36,18.1c-0.1-0.1-0.2-0.1-0.4-0.2C35.8,17.8,36,17.7,36.3,17.9z"/>
	<path class="st171" d="M35.3,17.9c-0.2,0.2-0.4,0.1-0.6,0C35,17.8,35.1,17.8,35.3,17.9z"/>
	<path class="st172" d="M3.2,14.9c1.8,0,3.6,0,5.3,0c0.3,0,0.6-0.1,0.9,0.2c-2.1,0-4.2,0-6.3,0C3.2,15,3.2,14.9,3.2,14.9z"/>
	<path class="st13" d="M83.1,15c0.4,0,0.7,0,1.1,0c-0.3,0.3-0.7,0.2-1.1,0.2c-7.2,0-14.4,0-21.6,0c-0.4,0-0.8-0.1-1.1,0.1
		c-0.1,0-0.2-0.1-0.3-0.1c0-0.1,0-0.1,0-0.2c0.4-0.2,0.8-0.1,1.3-0.1c6.9,0,13.9,0,20.8,0C82.6,14.9,82.9,14.9,83.1,15z"/>
	<path class="st173" d="M84.3,14.9C83.8,14.7,84,14.3,84,14c0-2.9,0-5.8,0-8.7c0-0.4,0-0.8-0.1-1.3c0-0.5,0.2-0.2,0.4-0.1
		C84.3,7.6,84.3,11.2,84.3,14.9z"/>
	<path class="st10" d="M55.2,18.2c-5.4,0-10.8,0-16.2,0c0.3-0.2,0.6-0.2,0.8-0.2c4.8,0,9.7,0,14.5,0C54.7,18.1,55,18,55.2,18.2z"/>
	<path class="st174" d="M49.7,23.5c-0.2,0-0.3-0.1-0.3-0.3c0.1-0.2,0.1-0.5,0.4-0.5c0.2,0,0.4,0.1,0.3,0.4
		C50.2,23.3,50,23.5,49.7,23.5z"/>
	<path class="st0" d="M49,22.6c0-0.2,0-0.3,0-0.5c0.5,0.1,1.1-0.2,1.6,0.2C50,22.3,49.4,21.9,49,22.6z"/>
	<path class="st0" d="M49.8,25c0-0.1,0-0.2,0-0.2c-0.1-0.1,0.1-0.5-0.3-0.4c-0.1,0.1-0.1,0.1-0.2,0.2c0-0.3,0.1-0.6,0.4-0.4
		C50.2,24.3,49.9,24.7,49.8,25z"/>
	<path class="st0" d="M50.7,23.5c0,0.5,0.2,1-0.2,1.5C50.7,24.5,50.4,24,50.7,23.5z"/>
	<path class="st175" d="M50.8,22.4c0.3,0.2,0.3,0.5,0.1,0.8C50.9,22.9,51,22.6,50.8,22.4z"/>
	<path class="st176" d="M46.3,23.5c0-0.3,0.1-0.4,0.4-0.7c0.1,0.5,0.1,0.8-0.1,1.1C46.4,23.9,46.4,23.7,46.3,23.5z"/>
	<path class="st177" d="M46.3,23.5c0.5-0.1,0.2,0.3,0.3,0.4C46.1,24.1,46.2,23.8,46.3,23.5z"/>
	<path class="st178" d="M70.7,24.7c-0.6-0.5-0.4-0.8-0.2-1.2c0-0.1,0.3-0.1,0.3-0.1C71.1,23.9,70.8,24.2,70.7,24.7z"/>
	<path class="st179" d="M54.7,24.3c0,0.2,0.1,0.5-0.1,0.7c0.1-0.5-0.1-0.6-0.5-0.3c-0.1,0.1-0.2,0.2-0.4,0.1c0,0-0.1-0.2,0-0.2
		c0-0.2,0.2-0.2,0.4-0.2C54.2,24.3,54.5,24.3,54.7,24.3z"/>
	<path class="st180" d="M54.3,23.6c-0.1,0.1-0.2,0.2-0.3,0.2c-0.1,0-0.1-0.1-0.1-0.2c0-0.1,0.1-0.2,0.3-0.2
		C54.2,23.4,54.3,23.5,54.3,23.6z"/>
	<path class="st181" d="M54.9,24.3c-0.1,0-0.1,0-0.2,0c0.1-0.3,0.1-0.5,0.2-0.8c0.2,0.2,0.1,0.5,0.2,0.8l0,0
		C55,24.4,54.9,24.4,54.9,24.3z"/>
	<path class="st182" d="M53,24.6c0-0.1,0-0.1-0.1-0.2c-0.2-0.2-0.1-0.4,0.1-0.6c0.1,0,0.1,0,0.2,0C53.1,24.1,53.1,24.4,53,24.6z"/>
	<path class="st183" d="M55.9,24.3c0.1,0,0.2,0,0.2,0.1c0,0.2-0.1,0.3-0.3,0.4c-0.1,0-0.2,0-0.2-0.2C55.7,24.5,55.7,24.3,55.9,24.3z
		"/>
	<path class="st184" d="M56.1,23.8c-0.1,0-0.2,0-0.2-0.2c0-0.1,0-0.3,0.2-0.3c0.1,0,0.2,0.1,0.2,0.2C56.3,23.7,56.3,23.8,56.1,23.8z
		"/>
	<path class="st0" d="M54.9,24.3c0.1,0,0.1,0,0.2,0c0,0.3,0,0.5,0,0.8c-0.1,0-0.1,0-0.2,0C54.9,24.8,54.9,24.6,54.9,24.3z"/>
	<path class="st185" d="M65.6,23.4c0.3,0.1,0.2,0.3,0.2,0.5c-0.2,0.3,0.1,0.9-0.5,1c-0.3,0-0.2-0.3-0.1-0.5
		C65.3,24,65.2,23.6,65.6,23.4z"/>
	<path class="st186" d="M75.9,23.1c0,0.1,0,0.1,0.1,0.2c0,0.2,0,0.4,0,0.6c0,0.4,0,0.7-0.1,1.1c0,0.2,0,0.4-0.1,0.4
		c-0.2,0-0.2-0.2-0.3-0.4c0,0,0,0,0,0c0.2-0.2,0-0.6,0.2-0.8c0,0,0-0.1,0-0.1c0.2-0.3-0.1-0.7,0.2-1C75.8,23,75.8,23,75.9,23.1z"/>
	<path class="st0" d="M74,23.5c0-0.2,0-0.4,0-0.7c0.3,0,0.7,0,1,0C74.7,23.1,74.1,22.9,74,23.5z"/>
	<path class="st50" d="M75.8,23c0,0.3,0.1,0.7-0.2,1c0-0.3,0-0.6,0-1C75.7,23,75.7,23,75.8,23z"/>
	<path class="st50" d="M75.6,24.1c0,0.3,0.1,0.6-0.2,0.8C75.4,24.7,75.4,24.4,75.6,24.1z"/>
	<path class="st187" d="M76.7,23c0,0.2,0,0.4,0.2,0.5c0,0.2,0,0.4-0.3,0.5c-0.2-0.3,0-0.7-0.1-1C76.6,23,76.7,23,76.7,23z"/>
	<path class="st83" d="M72.1,24c-0.1-0.1-0.1-0.2-0.2-0.4c0.3,0.2,0.5-0.2,0.8-0.1C72.7,23.9,72.4,24,72.1,24z"/>
	<path class="st188" d="M72.4,25c-0.2-0.3-0.1-0.5,0.2-0.6c0,0,0.2,0.1,0.2,0.1C72.8,24.7,72.6,24.8,72.4,25z"/>
	<path class="st189" d="M58.7,25.4c-0.3,0-0.5,0-0.8,0c0-0.3,0-0.5,0.1-0.8c0.1,0.2-0.2,0.5,0.2,0.6c0.3,0.1,0.4-0.2,0.4-0.4
		C58.7,25,58.7,25.2,58.7,25.4z"/>
	<path class="st190" d="M58.3,24.1c0-0.3,0.1-0.6-0.3-0.7c0.1-0.1,0.2-0.1,0.3-0.2C58.5,23.6,58.5,23.9,58.3,24.1z"/>
	<path class="st39" d="M59.4,23.8c0-0.5-0.2-0.4-0.5-0.2c0.1-0.2,0.3-0.3,0.5-0.2C59.6,23.5,59.5,23.7,59.4,23.8z"/>
	<path class="st191" d="M63.9,25.1c-0.4,0.3-0.9,0.4-1.2,0.2c-0.4-0.3-0.3-0.8-0.2-1.3c0.1-0.5,0.3-1.1,0.5-1.6c0.5-0.3,1-0.4,1.5,0
		c0.3,0.2,0.2,0.5,0,0.8l0,0c-0.2,0.2-0.4,0.1-0.6,0.1c-0.3,0-0.3,0.2-0.4,0.4C63.5,24,63.7,24,63.9,24c0.5,0.1,0.5,0.4,0.2,0.8
		C64.1,24.9,64,25,63.9,25.1z"/>
	<path class="st192" d="M64.1,24.8c0.1-0.2,0.2-0.4,0-0.6c-0.2-0.1-0.4,0.1-0.5,0.3c-0.1,0.2-0.2,0.4-0.4,0.3
		c-0.3-0.1-0.2-0.3-0.2-0.5c0-0.3,0.1-0.5,0.2-0.8c0.2-0.4,0.1-1.4,0.8-0.3c0.1,0.1,0.3,0,0.5,0c-0.1,0.2-0.6,0.1-0.2,0.6
		C64.5,23.9,64.5,24.5,64.1,24.8z"/>
	<path class="st193" d="M64.5,23.2c0.1-0.3,0.1-0.5,0-0.8C64.8,22.6,64.7,22.9,64.5,23.2z"/>
	<path class="st194" d="M69.4,24c0.1-0.3,0.2-0.6,0.1-0.9C69.7,23.4,69.8,23.7,69.4,24z"/>
	<path class="st195" d="M52,24.5c-0.1-0.1-0.2-0.2-0.3-0.3c0-0.3,0.1-0.5,0.3-0.8c0,0,0-0.1,0.1-0.1c0.1,0,0.1,0.1,0.2,0.1
		c0.2,0.3,0,0.5-0.1,0.8C52.2,24.3,52.1,24.4,52,24.5z"/>
	<path class="st196" d="M52.1,23.4L52.1,23.4L52.1,23.4c-0.2-0.3-0.4-0.5-0.1-0.8c0,0.1,0,0.1,0,0.2c0,0.1,0.1,0.2,0.1,0.3
		C52.3,23.2,52.3,23.3,52.1,23.4z"/>
	<path class="st29" d="M52.1,23.4c0-0.1,0-0.2,0.1-0.4c0.3,0,0.7-0.1,0.6,0.5c-0.2,0.2,0.1,0.5,0,0.7c0,0.1-0.1,0.2-0.2,0.2
		c0,0.3,0,0.5-0.1,0.8l0,0c-0.5,0.2-0.6,0-0.5-0.5c0-0.1,0-0.2,0-0.3c0-0.1,0-0.2,0.1-0.3C52.2,23.9,52.4,23.7,52.1,23.4L52.1,23.4z
		"/>
	<path class="st197" d="M52.6,24.5c0-0.1,0.1-0.1,0.1-0.2c0.2-0.1,0-0.4,0.2-0.4c0,0,0.1,0,0.1,0c0,0.2,0,0.4-0.1,0.6
		C52.8,24.5,52.7,24.5,52.6,24.5z"/>
	<path class="st196" d="M52.8,23.8c-0.1,0.2-0.1,0.3-0.2,0.5c0-0.3,0-0.5,0.2-0.8C52.8,23.6,52.8,23.7,52.8,23.8z"/>
	<path class="st198" d="M47.7,22.4c0,0.9,0,1.8,0,2.7C47.4,24.2,47.4,23.3,47.7,22.4z"/>
	<path class="st199" d="M35.4,22.9c0.6,0,1.2,0,1.9,0C36.6,23.1,36,23.1,35.4,22.9z"/>
	<path class="st200" d="M52,24.8c0,0.4,0.1,0.6,0.5,0.5c-0.2,0.2-0.4,0.2-0.6,0.2C51.8,25.2,51.8,25,52,24.8z"/>
	<path class="st201" d="M49.5,24.3c0.5-0.1,0.2,0.3,0.3,0.4C49.6,24.6,49.5,24.5,49.5,24.3z"/>
	<path class="st172" d="M83.1,15c-7.6,0-15.3,0-22.9,0c0.2-0.2,0.3-0.2,0.6-0.2c7.1,0,14.2,0,21.3,0.1C82.4,14.9,82.8,14.8,83.1,15z
		"/>
	<path class="st202" d="M19.4,6C16,6,12.6,6,9.2,6c0,0,0-0.1,0-0.1c3.4,0,6.8,0,10.2,0C19.4,5.9,19.4,5.9,19.4,6z"/>
	<path class="st203" d="M9.5,5.4c3.3,0,6.6,0,9.8,0c0,0,0,0.1,0,0.1C16,5.5,12.7,5.5,9.5,5.4C9.4,5.5,9.5,5.5,9.5,5.4z"/>
	<path class="st102" d="M23.1,10.5c-0.1-0.1-0.1-0.2-0.2-0.3c0,0,0,0,0,0c1.7-0.1,3.3-0.1,5,0c-0.2,0.3-0.5,0.3-0.8,0.3
		C25.8,10.5,24.5,10.5,23.1,10.5z"/>
	<path class="st102" d="M48.6,10.5c0-0.1,0-0.2,0-0.2c1.6-0.2,3.1-0.1,4.7,0c-0.1,0.3-0.3,0.3-0.6,0.3C51.3,10.5,50,10.5,48.6,10.5z
		"/>
	<path class="st104" d="M11.6,8.3c0,0.2,0,0.4,0,0.5c-0.5,0.4-0.6,0.9-0.5,1.6c-0.3-0.2-0.3-0.2-0.3-0.5C11,8.5,11,8.5,9.6,8.4
		c-0.2,0-0.3,0-0.5,0c0.6-0.3,1.3,0.1,2-0.3C11.3,7.9,11.4,8.1,11.6,8.3L11.6,8.3z"/>
	<path class="st204" d="M11.6,8.3c-0.2,0-0.3-0.1-0.5-0.1c-0.7,0-1.5,0-2.2,0c0-0.1,0-0.2,0-0.3c0.9,0,1.8,0,2.7,0
		C11.6,8,11.6,8.1,11.6,8.3z"/>
	<path class="st205" d="M62.4,10.2c0.1,0.2,0,0.3-0.2,0.3c-0.7,0-1.5,0-2.2,0c-0.2,0-0.2-0.1-0.2-0.3C60.7,10.1,61.6,10.1,62.4,10.2
		z"/>
	<path class="st206" d="M53.3,10.2c-1.6,0-3.1,0-4.7,0c-0.2,0-0.3,0-0.5,0c0.1-0.2,0.2-0.2,0.4-0.2c1.4,0,2.8,0,4.1,0
		C52.9,10,53.1,10.1,53.3,10.2z"/>
	<path class="st206" d="M27.9,10.2c-1.7,0-3.3,0-5,0c1.1-0.3,2.2-0.1,3.2-0.1C26.8,10,27.4,9.9,27.9,10.2z"/>
	<path class="st206" d="M42.9,10.2c-1.5,0-3,0-4.5,0c1.2-0.4,2.4-0.1,3.6-0.2C42.2,10,42.6,10,42.9,10.2z"/>
	<path class="st207" d="M21.5,7.6c-0.1-0.2-0.1-0.4-0.2-0.6c0.6,0.7,0.8,2,0.5,2.7c0,0.1-0.1,0.2-0.2,0.1c-0.1,0-0.1-0.2-0.1-0.3
		c-0.1-0.1,0-0.3,0-0.4c0.2-0.3,0.1-0.5,0-0.8c0-0.1,0-0.3,0-0.4C21.5,7.9,21.5,7.7,21.5,7.6z"/>
	<path class="st208" d="M36.3,10.2c0,0,0,0.1,0,0.1c-0.7,0.2-1.3,0.4-2-0.1C35,10.1,35.6,10.1,36.3,10.2z"/>
	<path class="st102" d="M31.6,10.2c0,0.1,0,0.2,0,0.2c-0.7,0.1-1.3,0.3-1.9-0.2C30.3,10.1,31,10.1,31.6,10.2z"/>
	<path class="st209" d="M29,12.3c-0.3,0.2-0.3,0.4-0.3,0.7c-0.1,0.1-0.1,0.1-0.2,0.2c0-0.9,0.3-1.7,0.6-2.4c0,0.3,0,0.7-0.2,1
		C29.1,11.9,29.1,12.1,29,12.3z"/>
	<path class="st210" d="M27.7,12.8c0.1-0.1,0.1-0.1,0.2-0.2c0.3,0.7,0.1,1.2-0.3,1.8c0,0-0.1-0.1,0-0.1c0,0,0-0.1,0-0.1
		C27.7,13.7,27.7,13.3,27.7,12.8z"/>
	<path class="st211" d="M21.5,8c0.1,0.1,0.1,0.2,0.2,0.3c0.1,0.3,0.1,0.6,0,1c-0.1,0.1-0.1,0.2-0.2,0.3C21.4,9,21.3,8.5,21.5,8z"/>
	<path class="st212" d="M62.4,10.2c-0.9,0-1.7,0-2.6,0C60.7,9.9,61.6,10,62.4,10.2z"/>
	<path class="st213" d="M58.3,5.2c0.1,0.1,0.1,0.2,0,0.3c-0.6-0.2-1.3,0.1-1.9-0.1c0-0.1,0-0.1,0-0.2C57,5.1,57.6,5.1,58.3,5.2z"/>
	<path class="st214" d="M56.3,5.4c0.6,0.1,1.3-0.1,1.9,0.1C57.6,5.5,56.9,5.7,56.3,5.4z"/>
	<path class="st215" d="M58.3,5.2c-0.6,0-1.3,0-1.9,0C57,5,57.6,5,58.3,5.2z"/>
	<path class="st216" d="M36.3,10.2c-0.6,0-1.3,0-1.9,0C35,10,35.6,10,36.3,10.2z"/>
	<path class="st206" d="M31.6,10.2c-0.6,0-1.3,0-1.9,0C30.3,9.9,31,10,31.6,10.2z"/>
	<path class="st217" d="M31.3,13.7c0.1-0.4,0.1-0.8,0.3-1.1c0,0.4-0.1,0.8-0.2,1.1C31.4,13.7,31.4,13.7,31.3,13.7L31.3,13.7z"/>
	<path class="st218" d="M53.6,14.5c0,0.2,0,0.4,0,0.6c-0.2,0-0.4,0-0.5,0C53.3,15,53.4,14.7,53.6,14.5z"/>
	<path class="st219" d="M62,11.8c0.1-0.2,0.2-0.3,0.3-0.5C62.6,11.6,62.5,11.6,62,11.8z"/>
	<path class="st220" d="M10.3,13.6c-0.1,0.1-0.1,0.2-0.2,0.3c-0.1,0-0.3-0.1-0.2-0.2C10,13.4,10.1,13.5,10.3,13.6z"/>
	<path class="st221" d="M56,6c-0.1,0.2-0.2,0.4-0.3,0.7c0.1-0.3-0.1-0.6,0.2-0.8C55.9,5.9,55.9,5.9,56,6C56,6,56,6,56,6z"/>
	<path class="st222" d="M36.4,11c0.1-0.1,0.3-0.2,0.3-0.2c0.2,0.1,0,0.2,0,0.3C36.5,11.3,36.5,11.1,36.4,11C36.4,11,36.4,11,36.4,11
		z"/>
	<path class="st99" d="M36.1,13.6c0.1-0.2,0.2-0.5,0.2-0.8C36.5,13.1,36.6,13.4,36.1,13.6z"/>
	<path class="st223" d="M27.6,14.2c0,0.1,0,0.1,0,0.2c-0.1,0.2,0.2,0.5-0.2,0.6C27.5,14.7,27.4,14.4,27.6,14.2z"/>
	<path class="st224" d="M57.5,11.5c0-0.3,0-0.5,0-0.8C57.7,11,57.7,11.2,57.5,11.5z"/>
	<path class="st161" d="M31.7,11.8C31.7,11.8,31.7,11.8,31.7,11.8c0.1,0.3,0.1,0.6-0.1,0.8C31.6,12.3,31.7,12.1,31.7,11.8z"/>
	<path class="st150" d="M54.4,12c0,0.3,0,0.6-0.2,0.8C54.3,12.5,54.2,12.2,54.4,12z"/>
	<path class="st225" d="M37.4,12.6c0,0.2,0,0.3,0,0.5c-0.1-0.2-0.3-0.4,0-0.6C37.4,12.5,37.4,12.6,37.4,12.6z"/>
	<path class="st226" d="M8.4,6.7c0,0.2,0,0.3,0,0.5C8.2,7,8.1,6.8,8.3,6.6C8.3,6.6,8.3,6.6,8.4,6.7z"/>
	<path class="st227" d="M28.6,13.1c0,0.1,0,0.1,0,0.2c0,0.1,0,0.2,0,0.3c0.1,0.1,0.1,0.2,0,0.3C28.4,13.6,28.4,13.4,28.6,13.1z"/>
	<path class="st228" d="M28.6,13.9c0-0.1,0-0.2,0-0.3c0.1,0.1,0.1,0.2,0.2,0.3c-0.1,0.2-0.1,0.3-0.2,0.5
		C28.6,14.2,28.6,14.1,28.6,13.9z"/>
	<path class="st229" d="M20.4,11.7c0,0.1,0,0.1,0,0.2c-0.2,0.3-0.4,0.5-0.6,0.8c0-0.2,0-0.3,0-0.5C20,12,20.2,11.8,20.4,11.7z"/>
	<path class="st230" d="M24.4,15c-0.6,0.4-1.3,0-1.9,0.1C23.1,14.9,23.8,15.1,24.4,15z"/>
	<path class="st231" d="M22.2,14.9c0,0-0.1,0-0.1,0c0-0.3,0-0.7,0-1c0,0,0.1,0,0.1,0C22.2,14.2,22.2,14.5,22.2,14.9z"/>
	<path class="st232" d="M24.6,13.9c0.2,0,0.3,0.1,0.3,0.3c-0.1,0.2-0.2,0.3-0.3,0.5c0-0.1,0-0.1,0-0.2
		C24.5,14.3,24.4,14.1,24.6,13.9z"/>
	<path class="st233" d="M24.7,12.8c0,0.3,0,0.5,0,0.8C24.5,13.3,24.5,13,24.7,12.8z"/>
	<path class="st230" d="M24.6,13.9c0,0.2,0,0.4,0,0.6c-0.2-0.3-0.2-0.5,0-0.8C24.6,13.8,24.6,13.8,24.6,13.9z"/>
	<path class="st234" d="M49.8,15.2c-0.6,0.2-1.2,0.4-1.8-0.2C48.6,15.1,49.2,14.8,49.8,15.2z"/>
	<path class="st235" d="M50.7,12.9c-0.1,0-0.1-0.2-0.3-0.1c-0.4-0.2-0.8-0.1-1.2-0.2C50.2,12.4,50.4,12.4,50.7,12.9z"/>
	<path class="st236" d="M48,15c-0.4-0.5-0.3-1.1,0-1.6C48,13.9,48,14.5,48,15z"/>
	<path class="st228" d="M50.2,14.8c0,0-0.1,0-0.1,0c0-0.2,0-0.4,0-0.6C50.3,14.5,50.2,14.7,50.2,14.8z"/>
	<path class="st234" d="M40.4,15.3c-1,0-1,0-0.6-0.8c0,0.4,0.3,0.5,0.6,0.5c0.3,0,0.7-0.1,1,0.2c0,0,0,0,0,0
		C41.1,15.4,40.7,15.1,40.4,15.3z"/>
	<path class="st237" d="M40,12.8c0.4-0.6,1-0.2,1.5-0.2c-0.3,0-0.7,0-1,0c-0.1,0.1-0.2,0.2-0.3,0.1C40.1,12.8,40,12.8,40,12.8
		L40,12.8z"/>
	<path class="st203" d="M40.1,12.8c0.1,0,0.2-0.1,0.3-0.1c0.4,0.4-0.3,0.4-0.3,0.7C40.1,13.1,40.1,13,40.1,12.8z"/>
	<path class="st238" d="M42.1,13.1c0.2,0.5,0.2,1,0,1.4C42.1,14.1,42.1,13.6,42.1,13.1z"/>
	<path class="st170" d="M39.8,13.6c0-0.3,0-0.5,0.1-0.8c0,0,0.1,0,0.1,0c0,0,0,0,0,0C40,13,40,13.3,39.8,13.6z"/>
	<path class="st164" d="M39.7,14.4c0-0.3,0-0.6,0.2-0.8c0,0.3,0,0.5,0,0.8C39.7,14.4,39.7,14.4,39.7,14.4z"/>
	<path class="st96" d="M18.9,8.4c0,0.3,0,0.6,0,1c-0.3,0.2-0.3,0.6-0.7,0.8c-0.9-0.3-1.8-0.1-2.7-0.1c-0.8,0-1.1-0.2-1-1
		c0-0.7,0.4-0.8,1-0.8c0.7,0,1.5,0.2,2.2-0.1C18.2,8.1,18.6,8.2,18.9,8.4z"/>
	<path class="st239" d="M17.8,8.1C17.9,8.2,18,8.3,18,8.3c0,0.2-0.1,0.1-0.2,0.1c-0.7,0-1.4,0-2.1,0c-0.5,0-0.9,0.1-1.1,0.7
		c0,0-0.1,0-0.1,0c0.2-0.3,0-0.8,0.5-1c0,0,0,0,0,0c0.9,0.1,1.8,0.1,2.7,0C17.7,8.1,17.8,8.1,17.8,8.1z"/>
	<path class="st138" d="M40.4,15.3c0.3-0.2,0.6-0.1,1-0.1C41.1,15.4,40.8,15.3,40.4,15.3z"/>
	<path class="st13" d="M44.8,14.4c0,0,0.1,0,0.1,0c0,0.1,0,0.1,0,0.2c-0.1,0.2,0.2,0.5,0,0.7c0,0-0.2,0-0.2,0c-0.3-0.2,0-0.5,0-0.7
		C44.7,14.5,44.7,14.4,44.8,14.4z"/>
	<path class="st240" d="M45.1,13.1c0,0.3,0,0.5,0,0.8C44.9,13.6,44.9,13.3,45.1,13.1z"/>
	<path class="st241" d="M17.7,8.1c-0.9,0.3-1.8,0.3-2.7,0c0.1,0,0.2,0,0.3,0C16.1,8.1,16.9,8.1,17.7,8.1z"/>
	<path class="st196" d="M52.1,23.4c0.3,0.3,0.3,0.6-0.1,0.8C52,23.9,52.3,23.7,52.1,23.4z"/>
	<path class="st96" d="M21.7,9.2c0-0.3,0-0.6,0-1C21.9,8.6,21.9,8.9,21.7,9.2z"/>
</g>
</svg>
