<?xml version="1.0" encoding="utf-8"?>
<!-- Generator: Adobe Illustrator 28.0.0, SVG Export Plug-In . SVG Version: 6.00 Build 0)  -->
<svg version="1.1" id="Capa_1" xmlns="http://www.w3.org/2000/svg" xmlns:xlink="http://www.w3.org/1999/xlink" x="0px" y="0px"
	 viewBox="0 0 185 53.1" style="enable-background:new 0 0 185 53.1;" xml:space="preserve">
<style type="text/css">
	.st0{fill:#012C71;}
</style>
<g>
	<g>
		<path class="st0" d="M64.3,42.5c8.2-8.5,16.3-16.8,24.4-25.2c-2.3-2.5-4.6-5-7-7.6c2.4,0,4.7,0,6.9,0c0.2,0,0.4,0.2,0.6,0.4
			c0.8,1.1,1.6,2.3,2.5,3.5c1-1.2,2-2.2,2.8-3.3c0.4-0.5,0.8-0.7,1.5-0.7c1.9,0,3.8,0,6,0c-2.3,2.5-4.5,4.9-6.8,7.3
			c2.3,2.6,4.5,5.2,6.9,7.9c-0.3,0-0.4,0.1-0.6,0.1c-2,0-3.9,0-5.9,0c-0.3,0-0.8-0.2-1-0.5c-0.9-1.2-1.8-2.4-2.7-3.7
			c-0.8,1-1.5,1.9-2.2,2.9c-4.7,6.1-9.3,12.3-14,18.4c-0.2,0.3-0.6,0.5-0.9,0.5c-3.3,0-6.6,0-9.9,0C64.8,42.5,64.7,42.5,64.3,42.5z"
			/>
		<path class="st0" d="M28.8,23.7c0,2.3,0,4.4,0,6.6c-2,0-3.9,0-5.8,0c0-0.2,0-0.5,0-0.8c0-6.4,0-12.7,0-19.1c0-0.7,0.2-0.9,0.9-0.9
			c1.6,0.1,3.2,0,4.9,0c0,0.5,0.1,0.9,0.1,1.3c0.2-0.1,0.3-0.1,0.4-0.2c4.4-3.4,10.6-0.9,11.6,4.6c0.3,1.9,0.3,3.8-0.4,5.6
			c-1.9,5.1-7.7,5.4-10.5,3.5C29.5,24.2,29.2,24,28.8,23.7z M35,17.2c0-1.9-1-3.3-2.7-3.5c-1.6-0.2-3,0.8-3.4,2.5
			c-0.3,1.2-0.1,2.4,0.7,3.4c0.8,1,2.1,1.3,3.3,0.9C34.2,20.1,35,18.9,35,17.2z"/>
		<path class="st0" d="M122,41.3c-1.5,0.5-2.9,1.1-4.3,1.5c-1.6,0.4-3.1,0.4-4.7-0.1c-2.1-0.6-3.4-2.4-3.4-4.6c0-2.3,1.2-4,3.4-4.4
			c2.2-0.5,4.5-0.6,6.8-0.8c0.7-0.1,1.4,0,2,0c0.2-1-0.1-1.6-1-1.9c-1.4-0.5-2.8-0.3-4.1,0.2c-0.1,0.1-0.3,0.1-0.4,0.3
			c-0.4,0.9-1.2,0.7-1.9,0.7c-1.4,0-2.8,0-4.2,0c0.1-2.3,1.2-3.8,3.2-4.5c2.6-0.9,5.3-0.9,7.9-0.7c1,0.1,2,0.2,2.9,0.5
			c2.3,0.6,3.4,2.1,3.5,4.5c0,2.6,0,5.2,0,7.9c0,1,0.2,1.9,0.3,2.9c-1.7,0-3.6,0-5.4,0c-0.1,0-0.3-0.2-0.4-0.4
			C122,41.9,122,41.5,122,41.3z M121.9,35.5c-1.4,0.1-2.8,0.2-4.2,0.3c-0.4,0-0.8,0.1-1.2,0.3c-0.6,0.2-0.9,0.6-0.9,1.3
			c0,0.7,0.3,1.1,0.9,1.4C118.2,39.5,121.9,38.1,121.9,35.5z"/>
		<path class="st0" d="M74.1,15.1c0-1.2-0.4-1.8-1.3-2c-1.3-0.4-2.6-0.2-3.8,0.2c-0.2,0.1-0.5,0.2-0.5,0.3c-0.4,0.9-1.1,0.7-1.7,0.7
			c-1.4,0-2.8,0-4.4,0c0.2-1.9,0.8-3.5,2.5-4.2c1.2-0.5,2.6-0.9,4-1c2.4-0.3,4.8-0.2,7.1,0.3c2.8,0.7,3.9,2.1,3.9,5
			c0,2.6,0,5.1,0,7.7c0,0.9,0.2,1.8,0.3,2.7c-1.8,0-3.7,0-5.8,0c-0.1-0.4-0.2-0.8-0.3-1.4c-0.3,0.1-0.5,0.2-0.8,0.3
			c-2.4,1.1-4.8,1.8-7.4,1.4c-3.3-0.6-5.1-3.6-3.9-6.7c0.6-1.5,1.7-2.3,3.2-2.6c2.2-0.4,4.5-0.5,6.7-0.7
			C72.6,15.1,73.3,15.1,74.1,15.1z M74.3,17.7c-1.9,0.2-3.7,0.4-5.4,0.6c-0.7,0.1-1.2,0.6-1.2,1.4c0,0.8,0.5,1.2,1.3,1.4
			c1.6,0.4,4-0.5,4.8-2C73.9,18.8,74,18.4,74.3,17.7z"/>
		<path class="st0" d="M171.4,42.9c-2.2,0-4.4-0.4-6.3-1.6c-2.7-1.7-3.7-4.2-3.5-7.3c0.3-3.1,1.9-5.3,4.8-6.4
			c3.4-1.3,6.8-1.3,10.2,0.1c3,1.2,4.5,3.5,4.6,6.7c0.1,3.4-1.3,5.9-4.4,7.4C175.1,42.7,173.3,42.9,171.4,42.9z M167.7,34.7
			c0,2.5,1.4,4,3.8,4.1c2.2,0,3.7-1.6,3.7-4c0-2.4-1.5-4-3.8-4C169.2,30.8,167.7,32.3,167.7,34.7z"/>
		<path class="st0" d="M108.3,31.7c-1.9,0.1-3.7,0.2-5.5,0.3c-0.1,0-0.3-0.2-0.4-0.3c-0.8-1.2-3.2-1.7-4.4-0.9
			c-0.3,0.2-0.5,0.6-0.5,0.9c0,0.3,0.4,0.7,0.7,0.7c1.3,0.3,2.6,0.5,4,0.8c1.1,0.2,2.3,0.3,3.3,0.6c2.8,0.8,3.8,3.5,2.2,6
			c-1.1,1.6-2.6,2.5-4.5,2.8c-3.2,0.6-6.3,0.5-9.4-0.7c-1.9-0.7-2.8-2.1-2.8-4.1c1.1-0.1,2.1-0.1,3.2-0.2c0.4,0,0.8,0,1.3,0
			c0.7,0,1.4-0.1,1.9,0.8c0.7,1.1,3.5,1.3,4.5,0.4c0.2-0.2,0.5-0.7,0.4-0.9c-0.1-0.3-0.5-0.7-0.8-0.8c-1.3-0.3-2.6-0.5-4-0.8
			c-1.1-0.3-2.3-0.6-3.4-0.9c-1.5-0.5-2.4-1.5-2.6-3.1c-0.2-1.8,0.3-3.2,1.9-4.3c1.4-0.9,3-1.2,4.6-1.3c2.1-0.1,4.3-0.1,6.4,0.6
			C106.5,28.1,107.8,29.5,108.3,31.7z"/>
		<path class="st0" d="M3.8,20.2c1.8-0.1,3.6-0.2,5.4-0.3c0.2,0,0.4,0.1,0.5,0.3c0.7,1.4,2,1.5,3.3,1.5c0.5,0,1-0.1,1.4-0.4
			c0.3-0.2,0.6-0.7,0.6-1c0-0.3-0.4-0.8-0.8-0.8c-1.3-0.3-2.6-0.5-4-0.8c-1.1-0.3-2.3-0.5-3.4-0.9c-1.5-0.5-2.4-1.5-2.6-3.2
			c-0.1-1.8,0.4-3.2,1.9-4.2c1.3-0.8,2.7-1.1,4.1-1.3c2.1-0.2,4.2-0.2,6.3,0.4c2.1,0.6,3.7,1.9,4.3,4.1c0,0.1,0,0.3,0.1,0.5
			c-1.9,0.1-3.7,0.2-5.5,0.3c-0.1,0-0.4-0.2-0.4-0.3c-0.5-1.4-3.6-1.6-4.5-0.9c-0.7,0.5-0.6,1.4,0.3,1.6c1.3,0.4,2.6,0.5,4,0.8
			c1.1,0.2,2.3,0.3,3.4,0.6c2.8,0.8,3.8,3.5,2.2,6c-0.9,1.4-2.2,2.3-3.8,2.7c-3.4,0.8-6.7,0.7-10-0.5c-1.7-0.6-2.8-1.9-2.9-3.8
			C3.8,20.5,3.8,20.4,3.8,20.2z"/>
		<path class="st0" d="M160.7,36.9c-0.7,2.6-2.2,4.4-4.6,5.3c-3.4,1.2-6.8,1.2-10.2,0c-3-1.1-4.6-3.5-4.8-6.7
			c-0.2-3,0.8-5.6,3.4-7.2c4.2-2.5,8.6-2.5,12.8-0.2c1.6,0.8,2.5,2.3,3,4.1c-1.9,0.2-3.7,0.4-5.5,0.6c-0.1,0-0.4-0.2-0.5-0.3
			c-0.9-1.4-2.2-2-3.8-1.8c-1.6,0.2-2.8,1.3-3.1,2.9c-0.2,0.9-0.1,2,0.1,2.9c0.4,1.6,1.6,2.4,3.3,2.5c1.6,0.1,2.9-0.4,3.7-1.9
			c0.1-0.2,0.4-0.4,0.6-0.4c1.7,0,3.4,0.1,5.1,0.2C160.5,36.8,160.6,36.9,160.7,36.9z"/>
		<path class="st0" d="M56.8,11.6c1.1-1.2,2.3-2,3.8-2.3c0.6-0.1,0.8,0.1,0.8,0.7c0,1.5,0,3,0,4.5c0,0.2,0,0.4-0.1,0.6
			c-0.9,0-1.7,0-2.5,0.1c-1.4,0.2-2.1,1-2.1,2.5c0,2.3,0,4.7,0,7c-2,0-3.9,0-5.9,0c0-0.2-0.1-0.4-0.1-0.6c0-4.6,0-9.2,0-13.8
			c0-0.6,0.1-0.8,0.8-0.8c1.5,0,3,0,4.4,0c0.6,0,0.8,0.2,0.7,0.7C56.8,10.7,56.8,11.1,56.8,11.6z"/>
		<path class="st0" d="M140.6,32.8c-0.6,0-1.3,0-1.9,0c-1.8,0.1-2.7,1-2.7,2.8c0,2,0,3.9,0,5.9c0,0.3,0,0.6,0,0.9
			c-1.9,0-3.8,0-5.8,0c0-0.3-0.1-0.6-0.1-0.9c0-4.5,0-9,0-13.4c0-0.8,0.2-1,1-1c1.6,0.1,3.2,0,4.9,0c0,0.7,0,1.4,0,2
			c0.1,0,0.1,0.1,0.2,0.1c1.1-1.4,2.5-2.4,4.4-2.4C140.6,28.9,140.6,30.9,140.6,32.8z"/>
		<path class="st0" d="M48.4,24.8c-1.9,0-3.8,0-5.8,0c0-0.3-0.1-0.6-0.1-0.9c0-4.5,0-8.9,0-13.4c0-0.8,0.3-1,1-1
			c1.6,0.1,3.2,0,4.8,0C48.4,14.7,48.4,19.7,48.4,24.8z"/>
		<path class="st0" d="M48.4,4.4c0,1.2,0,2.3,0,3.5c-0.6,0-1.2,0-1.8,0c-1.1,0-2.3,0-3.4,0c-0.5,0-0.7-0.2-0.7-0.7
			c0-0.8,0-1.5,0-2.3c0-0.2,0.2-0.5,0.4-0.5C44.7,4.4,46.5,4.4,48.4,4.4z"/>
	</g>
</g>
</svg>
