<?xml version="1.0" encoding="utf-8"?>
<!-- Generator: Adobe Illustrator 28.0.0, SVG Export Plug-In . SVG Version: 6.00 Build 0)  -->
<svg version="1.1" id="Capa_1" xmlns="http://www.w3.org/2000/svg" xmlns:xlink="http://www.w3.org/1999/xlink" x="0px" y="0px"
	 viewBox="0 0 104.4 42.8" style="enable-background:new 0 0 104.4 42.8;" xml:space="preserve">
<style type="text/css">
	.st0{fill-rule:evenodd;clip-rule:evenodd;fill:#CE1418;}
	.st1{fill-rule:evenodd;clip-rule:evenodd;fill:#FFFFFF;}
	.st2{fill:#1D1E1C;}
</style>
<g>
	<path class="st0" d="M27.4,28.6h-9.3V12.7c-3.5,1.7-5.8,5.2-5.8,9.3c0,0.2,0,0.3,0,0.5H4.5c0-0.2,0-0.3,0-0.5
		c0-10,8.1-18.2,18.2-18.2c10,0,18.2,8.1,18.2,18.2c0,0.2,0,0.3,0,0.5h-7.8c0-0.2,0-0.3,0-0.5c0-4-2.3-7.5-5.7-9.3V28.6L27.4,28.6z
		 M32.1,26.6c-1.7,3.5-5.2,5.9-9.4,5.9S15,30,13.3,26.6H5.1c2,7.8,9.1,13.6,17.6,13.6s15.6-5.8,17.6-13.6H32.1L32.1,26.6z"/>
	<path class="st1" d="M22.7,4.7c2.2,0,4,1.8,4,4s-1.8,4-4,4s-4-1.8-4-4S20.5,4.7,22.7,4.7L22.7,4.7z"/>
	<path class="st2" d="M51.4,10.4v4.3H49v17h-3.9v-17h-2.3v-4.3H51.4L51.4,10.4z M52.3,10.4h6.6v4.3h-2.6v4h2.5v4.1h-2.5v4.7h2.9v4.3
		h-6.8V10.4L52.3,10.4z M67,10.4l2.3,21.3h-4L65,27.8h-1.4l-0.2,3.8h-4.1l2-21.3H67L67,10.4z M64.9,24c-0.2-2.4-0.4-5.4-0.6-8.9
		c-0.4,4.1-0.6,7-0.7,8.9H64.9L64.9,24z M69.9,10.4h2.9c1.9,0,3.2,0.1,3.9,0.4c0.7,0.2,1.2,0.6,1.5,1.2c0.4,0.6,0.6,1.2,0.7,1.9
		c0.1,0.7,0.1,2,0.1,4.1v7.5c0,1.9-0.1,3.2-0.2,3.8c-0.1,0.6-0.3,1.1-0.7,1.5c-0.3,0.4-0.7,0.6-1.2,0.8c-0.5,0.1-1.2,0.2-2.1,0.2h-5
		V10.4L69.9,10.4z M73.9,14v14c0.6,0,0.9-0.2,1-0.5c0.1-0.3,0.2-1.2,0.2-2.6v-8.3c0-1,0-1.6-0.1-1.9c0-0.3-0.1-0.5-0.3-0.6
		C74.6,14.1,74.3,14,73.9,14L73.9,14z M84.5,10.4v21.3h-3.9V10.4H84.5L84.5,10.4z M94,10.4v4.3h-2.3v17h-3.9v-17h-2.3v-4.3H94
		L94,10.4z"/>
	<path class="st2" d="M100.9,13.1c0,0.5-0.1,1-0.4,1.4c-0.2,0.4-0.6,0.8-1,1c-0.4,0.2-0.9,0.4-1.4,0.4c-0.5,0-1-0.1-1.4-0.4
		c-0.4-0.2-0.8-0.6-1-1c-0.2-0.4-0.4-0.9-0.4-1.4c0-0.5,0.1-1,0.4-1.4c0.2-0.4,0.6-0.8,1-1c0.4-0.2,0.9-0.4,1.4-0.4
		c0.5,0,1,0.1,1.4,0.4c0.4,0.2,0.8,0.6,1,1C100.8,12.2,100.9,12.6,100.9,13.1L100.9,13.1z M100.4,13.1c0-0.6-0.2-1.1-0.7-1.6
		c-0.4-0.4-1-0.7-1.6-0.7c-0.6,0-1.1,0.2-1.6,0.7c-0.4,0.4-0.7,1-0.7,1.6c0,0.6,0.2,1.1,0.7,1.6c0.4,0.4,1,0.7,1.6,0.7
		c0.6,0,1.1-0.2,1.6-0.7C100.2,14.3,100.4,13.7,100.4,13.1L100.4,13.1z M96.9,11.6h1.3c0.4,0,0.6,0.1,0.8,0.2
		c0.2,0.2,0.3,0.4,0.3,0.6c0,0.2-0.1,0.4-0.2,0.5c-0.1,0.1-0.3,0.3-0.6,0.3c0.1,0,0.2,0.1,0.2,0.1c0.1,0.1,0.2,0.2,0.2,0.3
		c0,0,0.2,0.3,0.5,0.9h-0.9c-0.3-0.6-0.5-0.9-0.6-1c-0.1-0.1-0.2-0.2-0.3-0.2c0,0-0.1,0-0.1,0v1.2h-0.7V11.6L96.9,11.6z M97.6,12.9
		h0.3c0.2,0,0.4,0,0.4-0.1c0.1-0.1,0.1-0.2,0.1-0.3c0-0.1,0-0.2-0.1-0.3c-0.1-0.1-0.2-0.1-0.4-0.1h-0.3V12.9L97.6,12.9z"/>
</g>
</svg>
