<?xml version="1.0" encoding="utf-8"?>
<!-- Generator: Adobe Illustrator 28.0.0, SVG Export Plug-In . SVG Version: 6.00 Build 0)  -->
<svg version="1.1" id="Capa_1" xmlns="http://www.w3.org/2000/svg" xmlns:xlink="http://www.w3.org/1999/xlink" x="0px" y="0px"
	 viewBox="0 0 104.4 47.9" style="enable-background:new 0 0 104.4 47.9;" xml:space="preserve">
<style type="text/css">
	.st0{fill:#006793;}
	.st1{fill:#706F6E;}
	.st2{fill:#A7B5CD;}
</style>
<g>
	<polyline class="st0" points="46.5,26.9 51,12.8 55.4,12.8 48.6,32.2 44.3,32.2 37.5,12.8 42,12.8 	"/>
	<polyline class="st0" points="73.4,12.8 73.4,32.2 68.7,32.2 62.2,19.2 62.2,32.2 58.2,32.2 58.2,12.8 62.9,12.8 69.4,25.9 
		69.4,12.8 	"/>
	<path class="st0" d="M81.7,16.3v4h6.6v3.3h-6.6v2.8c0,1.5,0.6,2.2,2,2.2h5.7v3.6H83c-4.3,0-5.5-1.2-5.5-5.4v-14h11.9v3.6"/>
	<polyline class="st1" points="31.4,42 29.1,38.1 29.1,42 28.5,42 28.5,36.9 29.1,36.9 31.4,40.8 31.4,36.9 32,36.9 32,42 	"/>
	<polyline class="st1" points="35.9,41.4 35.9,42 33.5,42 33,42 33,36.9 33.6,36.9 35.8,36.9 35.8,37.5 33.6,37.5 33.6,39.1 
		35.5,39.1 35.5,39.6 33.6,39.6 33.6,41.4 	"/>
	<path class="st1" d="M39.7,40.3c0,0.4-0.1,0.7-0.2,0.9c-0.1,0.3-0.3,0.4-0.6,0.6C38.7,42,38.4,42,38.1,42c-0.3,0-0.6-0.1-0.8-0.2
		c-0.2-0.1-0.4-0.3-0.6-0.6c-0.1-0.3-0.2-0.6-0.2-0.9v-3.4h0.6v3.4c0,0.4,0.1,0.7,0.3,0.9c0.2,0.2,0.4,0.3,0.8,0.3
		c0.3,0,0.6-0.1,0.8-0.3c0.2-0.2,0.3-0.5,0.3-0.9v-3.4h0.6"/>
	<polyline class="st1" points="45.1,42 44.5,42 44.5,40 44.6,37.9 43.1,42 42.7,42 41.2,37.9 41.3,40 41.3,42 40.7,42 40.7,36.9 
		41.2,36.9 41.4,36.9 42.9,41.1 44.4,36.9 45.1,36.9 	"/>
	<path class="st1" d="M49.4,40.9c-0.1,0.4-0.4,0.6-0.6,0.8c-0.3,0.2-0.6,0.3-1,0.3c-0.4,0-0.7-0.1-0.9-0.3c-0.3-0.2-0.5-0.5-0.6-0.8
		c-0.2-0.4-0.2-0.8-0.2-1.3v-0.3c0-0.5,0.1-0.9,0.2-1.3c0.2-0.4,0.4-0.7,0.6-0.8c0.3-0.2,0.6-0.3,0.9-0.3c0.4,0,0.7,0.1,1,0.3
		c0.3,0.2,0.5,0.5,0.6,0.8c0.1,0.4,0.2,0.8,0.2,1.3v0.3C49.6,40.1,49.5,40.5,49.4,40.9 M48.9,38.3c-0.1-0.3-0.2-0.5-0.4-0.6
		c-0.2-0.1-0.4-0.2-0.7-0.2c-0.2,0-0.5,0.1-0.6,0.2c-0.2,0.1-0.3,0.4-0.4,0.6c-0.1,0.3-0.1,0.6-0.1,1v0.3c0,0.4,0,0.7,0.1,1
		c0.1,0.3,0.2,0.5,0.4,0.6c0.2,0.1,0.4,0.2,0.6,0.2c0.4,0,0.7-0.2,0.9-0.5c0.2-0.3,0.3-0.8,0.3-1.4v-0.3C49,38.9,49,38.5,48.9,38.3z
		"/>
	<polyline class="st1" points="54.9,41.4 54.9,42 52.5,42 52.1,42 52.1,36.9 52.7,36.9 54.9,36.9 54.9,37.5 52.7,37.5 52.7,39.1 
		54.6,39.1 54.6,39.6 52.7,39.6 52.7,41.4 	"/>
	<path class="st1" d="M58.2,39.5V42h-0.6v-2.5c0-0.3-0.1-0.5-0.2-0.6c-0.1-0.1-0.3-0.2-0.5-0.2c-0.2,0-0.3,0.1-0.5,0.2
		c-0.1,0.1-0.3,0.3-0.3,0.4V42h-0.6v-5.3h0.6v2c0.1-0.2,0.3-0.3,0.4-0.4c0.2-0.1,0.3-0.1,0.5-0.1C57.8,38.2,58.2,38.6,58.2,39.5"/>
	<path class="st1" d="M60.5,38.2c0.1,0,0.1,0,0.1,0v0.6c-0.1,0-0.2,0-0.3,0c-0.2,0-0.3,0-0.5,0.1c-0.1,0.1-0.2,0.2-0.3,0.4V42H59
		v-3.8h0.6l0,0.4c0.1-0.2,0.2-0.3,0.3-0.4c0.1-0.1,0.3-0.1,0.5-0.1C60.4,38.2,60.5,38.2,60.5,38.2"/>
	<path class="st1" d="M63.8,40.3h-2.3c0,0.2,0,0.4,0.1,0.6c0.1,0.2,0.2,0.3,0.3,0.4c0.1,0.1,0.3,0.2,0.5,0.2c0.2,0,0.4,0,0.5-0.1
		c0.1-0.1,0.3-0.2,0.4-0.4l0.3,0.3c-0.1,0.2-0.3,0.4-0.5,0.5C63.1,42,62.8,42,62.5,42c-0.3,0-0.6-0.1-0.8-0.2
		c-0.2-0.2-0.4-0.4-0.5-0.6c-0.1-0.3-0.2-0.6-0.2-0.9v-0.1c0-0.4,0.1-0.7,0.2-1c0.1-0.3,0.3-0.5,0.5-0.7c0.2-0.2,0.5-0.2,0.7-0.2
		c0.3,0,0.6,0.1,0.8,0.2c0.2,0.2,0.4,0.4,0.5,0.6c0.1,0.3,0.1,0.6,0.1,1 M63.3,39.7c0-0.3-0.1-0.5-0.2-0.7c-0.1-0.2-0.3-0.3-0.6-0.3
		c-0.2,0-0.4,0.1-0.6,0.3c-0.2,0.2-0.2,0.5-0.3,0.8L63.3,39.7L63.3,39.7z"/>
	<path class="st1" d="M67.1,39.5V42h-0.6v-2.5c0-0.3-0.1-0.5-0.2-0.6c-0.1-0.1-0.3-0.2-0.5-0.2c-0.2,0-0.3,0.1-0.5,0.2
		c-0.1,0.1-0.3,0.3-0.3,0.4V42h-0.6v-3.8H65l0,0.5c0.1-0.2,0.3-0.3,0.4-0.4c0.2-0.1,0.4-0.1,0.6-0.1C66.8,38.2,67.1,38.6,67.1,39.5"
		/>
	<path class="st1" d="M70.2,38.4c0.2,0.2,0.3,0.4,0.4,0.7c0.1,0.3,0.2,0.6,0.2,1v0.1c0,0.4-0.1,0.7-0.2,1c-0.1,0.3-0.2,0.5-0.4,0.7
		C70,42,69.8,42,69.5,42c-0.4,0-0.7-0.2-1-0.5l0,0.4H68v-5.3h0.6v2c0.2-0.3,0.5-0.5,0.9-0.5C69.8,38.2,70,38.2,70.2,38.4 M70.2,40.1
		c0-0.4-0.1-0.7-0.2-1c-0.1-0.3-0.4-0.4-0.7-0.4c-0.2,0-0.4,0.1-0.5,0.2c-0.1,0.1-0.2,0.2-0.3,0.4v1.6c0.1,0.2,0.2,0.3,0.3,0.4
		c0.1,0.1,0.3,0.2,0.5,0.2c0.3,0,0.5-0.1,0.6-0.4C70.2,40.9,70.2,40.5,70.2,40.1L70.2,40.1z"/>
	<path class="st1" d="M74.2,40.3h-2.3c0,0.2,0,0.4,0.1,0.6c0.1,0.2,0.2,0.3,0.3,0.4c0.1,0.1,0.3,0.2,0.5,0.2c0.2,0,0.4,0,0.5-0.1
		c0.1-0.1,0.3-0.2,0.4-0.4l0.3,0.3c-0.1,0.2-0.3,0.4-0.5,0.5C73.5,42,73.2,42,72.9,42c-0.3,0-0.6-0.1-0.8-0.2
		c-0.2-0.2-0.4-0.4-0.5-0.6c-0.1-0.3-0.2-0.6-0.2-0.9v-0.1c0-0.4,0.1-0.7,0.2-1c0.1-0.3,0.3-0.5,0.5-0.7c0.2-0.2,0.5-0.2,0.7-0.2
		c0.3,0,0.6,0.1,0.8,0.2c0.2,0.2,0.4,0.4,0.5,0.6c0.1,0.3,0.1,0.6,0.1,1 M73.6,39.7c0-0.3-0.1-0.5-0.2-0.7c-0.1-0.2-0.3-0.3-0.6-0.3
		c-0.2,0-0.4,0.1-0.6,0.3c-0.2,0.2-0.2,0.5-0.3,0.8L73.6,39.7L73.6,39.7z"/>
	<path class="st1" d="M76.4,38.2c0.1,0,0.1,0,0.1,0v0.6c-0.1,0-0.2,0-0.3,0c-0.2,0-0.3,0-0.5,0.1c-0.1,0.1-0.2,0.2-0.3,0.4V42h-0.6
		v-3.8h0.6l0,0.4c0.1-0.2,0.2-0.3,0.3-0.4c0.1-0.1,0.3-0.1,0.5-0.1C76.3,38.2,76.3,38.2,76.4,38.2"/>
	<path class="st1" d="M79.7,38.2v3.7c0,0.3-0.1,0.6-0.2,0.8c-0.1,0.2-0.3,0.4-0.5,0.5c-0.2,0.1-0.5,0.2-0.7,0.2
		c-0.1,0-0.3,0-0.4-0.1c-0.2,0-0.3-0.1-0.5-0.2c-0.1-0.1-0.3-0.2-0.4-0.4l0.3-0.4c0.2,0.3,0.5,0.5,0.9,0.5c0.3,0,0.5-0.1,0.6-0.3
		c0.2-0.2,0.2-0.4,0.2-0.7v-0.3c-0.2,0.3-0.5,0.4-0.9,0.4c-0.3,0-0.5-0.1-0.7-0.2c-0.2-0.2-0.4-0.4-0.5-0.7c-0.1-0.3-0.2-0.6-0.2-1
		v-0.1c0-0.4,0.1-0.7,0.2-1c0.1-0.3,0.3-0.5,0.5-0.7c0.2-0.2,0.4-0.2,0.7-0.2c0.4,0,0.7,0.2,1,0.5l0-0.4 M79.1,41v-1.7
		c-0.1-0.2-0.2-0.3-0.3-0.4c-0.1-0.1-0.3-0.1-0.5-0.1c-0.2,0-0.4,0.1-0.5,0.2c-0.1,0.1-0.2,0.3-0.3,0.5c-0.1,0.2-0.1,0.4-0.1,0.7
		v0.1c0,0.3,0,0.5,0.1,0.7c0.1,0.2,0.2,0.4,0.3,0.5c0.1,0.1,0.3,0.2,0.5,0.2C78.7,41.5,78.9,41.3,79.1,41z"/>
	<path class="st1" d="M84.9,41.8c-0.2,0.1-0.6,0.2-1,0.2c-0.4,0-0.7-0.1-1-0.3c-0.3-0.2-0.5-0.5-0.7-0.8c-0.2-0.4-0.2-0.8-0.2-1.3
		v-0.4c0-0.5,0.1-0.9,0.2-1.3c0.1-0.4,0.3-0.6,0.6-0.8c0.3-0.2,0.6-0.3,1-0.3c0.5,0,0.9,0.1,1.2,0.4c0.3,0.3,0.4,0.7,0.5,1.1h-0.6
		c0-0.3-0.2-0.5-0.3-0.7c-0.2-0.2-0.4-0.3-0.7-0.3c-0.4,0-0.7,0.2-0.9,0.5c-0.2,0.3-0.3,0.8-0.3,1.4v0.4c0,0.4,0.1,0.7,0.2,1
		c0.1,0.3,0.3,0.5,0.4,0.6c0.2,0.1,0.4,0.2,0.7,0.2c0.3,0,0.5,0,0.6-0.1c0.1-0.1,0.3-0.2,0.3-0.3V40h-1v-0.5h1.6v1.9
		C85.4,41.5,85.2,41.7,84.9,41.8"/>
	<path class="st1" d="M87.9,38.2c0.1,0,0.1,0,0.1,0v0.6c-0.1,0-0.2,0-0.3,0c-0.2,0-0.3,0-0.5,0.1C87.1,39,87,39.1,87,39.3V42h-0.6
		v-3.8h0.6l0,0.4c0.1-0.2,0.2-0.3,0.3-0.4c0.1-0.1,0.3-0.1,0.5-0.1C87.8,38.2,87.8,38.2,87.9,38.2"/>
	<path class="st1" d="M88.5,39.1c0.1-0.3,0.3-0.5,0.5-0.7c0.2-0.2,0.5-0.2,0.8-0.2c0.3,0,0.6,0.1,0.8,0.2c0.2,0.2,0.4,0.4,0.5,0.7
		c0.1,0.3,0.2,0.6,0.2,1v0.1c0,0.4-0.1,0.7-0.2,1c-0.1,0.3-0.3,0.5-0.5,0.7C90.5,42,90.2,42,89.9,42c-0.3,0-0.6-0.1-0.8-0.2
		c-0.2-0.2-0.4-0.4-0.5-0.7c-0.1-0.3-0.2-0.6-0.2-1v-0.1C88.4,39.7,88.4,39.4,88.5,39.1 M89,40.8c0.1,0.2,0.2,0.4,0.3,0.5
		c0.1,0.1,0.3,0.2,0.5,0.2c0.2,0,0.4-0.1,0.5-0.2c0.1-0.1,0.2-0.3,0.3-0.5c0.1-0.2,0.1-0.4,0.1-0.7v-0.1c0-0.3,0-0.5-0.1-0.7
		c-0.1-0.2-0.2-0.4-0.3-0.5c-0.1-0.1-0.3-0.2-0.5-0.2c-0.2,0-0.4,0.1-0.5,0.2c-0.1,0.1-0.2,0.3-0.3,0.5c-0.1,0.2-0.1,0.4-0.1,0.7
		v0.1C88.9,40.4,89,40.6,89,40.8z"/>
	<path class="st1" d="M94.7,38.2V42h-0.5l0-0.4c-0.2,0.3-0.5,0.4-1,0.4c-0.3,0-0.6-0.1-0.8-0.3c-0.2-0.2-0.3-0.6-0.3-1.1v-2.4h0.6
		v2.4c0,0.3,0.1,0.5,0.2,0.7c0.1,0.1,0.3,0.2,0.4,0.2c0.4,0,0.7-0.2,0.9-0.5v-2.7"/>
	<path class="st1" d="M97.8,38.4c0.2,0.2,0.3,0.4,0.4,0.7c0.1,0.3,0.2,0.6,0.2,1v0.1c0,0.4-0.1,0.7-0.2,1c-0.1,0.3-0.2,0.5-0.4,0.7
		C97.6,42,97.4,42,97.1,42c-0.4,0-0.7-0.1-0.9-0.4v1.8h-0.6v-5.2h0.5l0,0.4c0.2-0.3,0.6-0.5,1-0.5C97.4,38.2,97.6,38.2,97.8,38.4
		 M97.8,40.1c0-0.3,0-0.5-0.1-0.7c-0.1-0.2-0.2-0.4-0.3-0.5c-0.1-0.1-0.3-0.2-0.5-0.2c-0.2,0-0.3,0-0.5,0.1
		c-0.1,0.1-0.2,0.2-0.3,0.4V41c0.2,0.3,0.4,0.5,0.8,0.5c0.2,0,0.4-0.1,0.5-0.2c0.1-0.1,0.2-0.3,0.3-0.5
		C97.8,40.6,97.8,40.4,97.8,40.1L97.8,40.1z"/>
	<path class="st2" d="M18.6,32.6c-2.7-0.4-5-2-6.5-4.2c-1.1-1.6-1.4-3.6-1.4-5.7c0-2.1,1.7-5.2,1.7-4.9c0,4.2,3,7.6,7.1,7.6
		c0.2,0,0.3,0,0.5,0v6.3C20,31.8,19.1,32.7,18.6,32.6"/>
	<path class="st0" d="M33.1,10.1c0-2.1-0.6-4.1-1.7-5.7c0,0.3,0,0.5,0,0.8c0,4.2-3.3,7.6-7.5,7.6H20c-5.3,0.1-9.6,4.5-9.6,9.9
		c0,2.1,0.6,4.1,1.7,5.7c0,0,0,0,0,0c0-0.3,0-0.5,0-0.8c0-4.2,3.3-7.6,7.5-7.6c0.2,0,4.1,0,4.1,0C28.9,19.9,33.1,15.5,33.1,10.1"/>
	<path class="st0" d="M13.5,12.3c-3.4-0.5-5.8-3.6-5.5-7.1C8,4.9,8,4.7,8,4.5C7,5.8,6.2,7.4,6.1,9.2c-0.3,3.1,1,5.9,3.2,7.6
		C10.2,14.9,11.7,13.3,13.5,12.3"/>
	<path class="st0" d="M23.4,28.4c0-0.7-0.2-1.4-0.6-2c0,0,0,0,0-0.1c0,0-0.1-0.1-0.1-0.1c0-0.1-0.1-0.1-0.1-0.2c0,0-0.1-0.1-0.1-0.1
		c0,0-0.1-0.1-0.1-0.1c-0.1-0.1-0.1-0.1-0.2-0.2c0,0-0.1-0.1-0.1-0.1c-0.1-0.1-0.2-0.1-0.2-0.2c0,0,0,0,0,0
		c-0.1-0.1-0.2-0.1-0.3-0.2c0,0,0,0,0,0c-0.2-0.1-0.4-0.2-0.6-0.3c0,0,0,0,0,0c-0.1,0-0.2-0.1-0.3-0.1c0,0,0,0-0.1,0
		c-0.1,0-0.2,0-0.2,0c0,0-0.1,0-0.1,0c-0.1,0-0.1,0-0.2,0c-0.1,0-0.1,0-0.2,0c0,0-0.1,0-0.1,0c0,0,0,0-0.1,0c-0.1,0-0.1,0-0.2,0
		c0,0-0.1,0-0.1,0c-0.1,0-0.2,0-0.3,0c0,0,0,0-0.1,0c0,0-0.1,0-0.1,0c0,0,0,0-0.1,0c-0.1,0-0.2,0.1-0.4,0.1c-0.1,0-0.2,0.1-0.2,0.1
		c-4.6,1.9-7.1,7.2-5.6,12.1c0.6,2,1.8,3.7,3.3,4.9c-0.1-0.2-0.2-0.5-0.3-0.7c-1.2-4,1-8.3,4.9-9.5c0,0,0.1,0,0.2-0.1c0,0,0,0,0,0
		C22.3,31.4,23.4,30,23.4,28.4"/>
</g>
</svg>
