<?xml version="1.0" encoding="utf-8"?>
<!-- Generator: Adobe Illustrator 28.0.0, SVG Export Plug-In . SVG Version: 6.00 Build 0)  -->
<svg version="1.1" id="Capa_1" xmlns="http://www.w3.org/2000/svg" xmlns:xlink="http://www.w3.org/1999/xlink" x="0px" y="0px"
	 viewBox="0 0 246.3 57.7" style="enable-background:new 0 0 246.3 57.7;" xml:space="preserve">
<style type="text/css">
	.st0{fill:#E1251B;}
</style>
<g>
	<polygon class="st0" points="217.3,40.3 223.9,40.3 226.7,18.1 220.4,18.1 219.2,25.1 213.4,25.1 214.3,18.1 207.8,18.1 205,40.3 
		211.6,40.3 212.7,31.1 218.4,31.1 	"/>
	<polygon class="st0" points="191,40.3 197.6,40.3 199.7,23.7 205.2,23.7 205.9,18.1 188.3,18.1 187.7,23.7 193.1,23.7 	"/>
	<g>
		<path class="st0" d="M164,21.3c-1.8-2.4-4.4-3.6-7.3-3.8c-3-0.2-5.7,0.9-8.2,3c-2.5,2.3-3.8,5-4.3,8.1c-0.4,3.1,0.4,5.9,2.2,8.4
			c2,2.4,4.5,3.6,7.4,3.8c2.9,0.1,5.6-0.9,8.2-3.1c2.4-2.3,3.8-4.9,4.2-8.1C166.5,26.6,165.8,23.8,164,21.3z M158.9,30.3
			c-0.8,3.6-2.9,5.4-4.9,4.9c-2.3-0.7-3.1-3.4-2.4-6.8c0.9-3.6,2.5-5.2,4.9-5C158.4,23.8,159.6,26.7,158.9,30.3z"/>
	</g>
	<path class="st0" d="M78.2,18.1l-3.9,12.3V18.1h-5.1l-4.1,12.3V18.1h-6l1.2,22.2h6.3c0.1-0.3,3.5-11.3,3.6-11.4l0.3,11.4h6.4
		l7.7-22.2L78.2,18.1L78.2,18.1z"/>
	<path class="st0" d="M139.1,18.1l-3.9,12.3V18.1h-5l-4.1,12.3V18.1h-6l1.2,22.2h6.3C127.5,40,131,29,131,28.9l0.3,11.4h6.4
		l7.7-22.2L139.1,18.1L139.1,18.1z"/>
	<g>
		<path class="st0" d="M97.1,18.1h-6.5l-10,22.2h6.5l0.9-2.8h6.6l0.3,2.8h6.2L97.1,18.1z M89.8,33l2.9-7.6l1.2,7.6H89.8z"/>
	</g>
	<polygon class="st0" points="112.2,18.1 105.5,18.1 102.4,40.3 117.9,40.3 118.6,34 109.8,34 	"/>
	<g>
		<g>
			<path class="st0" d="M32.2,21.1c-12.2,0-12.8,7.4-12.8,9.9h-7.2v-1.3c7.3-12.9,18.3-11.6,18.3-11.6V9.4H17.1V6.9h30.2v2.5H34v8.6
				c4.4-0.2,8,1.3,10.9,3.3c4.6,3.1,7.4,8.3,7.4,8.3v1.3h-7.2C45,23,38.1,21,32.2,21.1z"/>
			<path class="st0" d="M32.2,50c-11,0-12.8-9.7-12.8-9.7h-7.2v1.2c6,11.6,20.1,11,20.1,11c7.4,0,12.9-2.8,16.3-5.9
				c2.4-2.2,3.8-5.1,3.8-5.1v-1.2h-7.2c-1.4,5.3-4.8,7.9-7.8,8.9C34.5,50.1,32.2,50,32.2,50z"/>
		</g>
		<polygon class="st0" points="28.5,32.6 15.7,32.6 15.7,34.7 19,34.7 23.2,40.3 29.4,40.3 32.2,36.7 35.1,40.3 42,40.3 45.5,34.7 
			48.8,34.7 48.8,32.6 40.8,32.6 40.8,34.4 42.2,34.4 40.5,37.2 38.5,34.4 40.1,34.4 40.1,32.6 29.2,32.6 29.2,34.4 30.7,34.4 
			28.8,37.2 27.1,34.4 28.5,34.4 		"/>
	</g>
	<g>
		<polygon class="st0" points="188.3,42.8 188.1,44.1 189.1,44.1 189.4,42.8 		"/>
		<g>
			<path class="st0" d="M184.9,43.4c-0.5-0.3-1.1-0.4-1.8-0.4c-0.6,0-1.1,0.1-1.6,0.3s-0.8,0.5-1.1,0.9c-0.2,0.4-0.4,0.8-0.4,1.3
				c0,0.4,0.1,0.8,0.3,1.1c0.2,0.3,0.5,0.6,0.9,0.9c0.3,0.2,0.7,0.4,1.4,0.7c0.9,0.4,1.4,0.7,1.6,1c0.2,0.2,0.3,0.5,0.3,0.8
				c0,0.4-0.2,0.8-0.5,1.1c-0.4,0.3-0.9,0.5-1.6,0.5c-0.5,0-0.9-0.1-1.3-0.2c-0.3-0.2-0.6-0.4-0.8-0.7c-0.1-0.3-0.2-0.6-0.2-1l0-0.3
				l-1.1,0.1c0,1.2,0.3,2,0.9,2.4c0.6,0.4,1.4,0.7,2.4,0.7c0.6,0,1.2-0.1,1.7-0.3c0.5-0.2,0.9-0.6,1.2-1c0.3-0.4,0.4-0.9,0.4-1.4
				c0-0.4-0.1-0.7-0.3-1.1c-0.2-0.3-0.4-0.6-0.7-0.8c-0.2-0.2-0.7-0.4-1.3-0.7c-0.8-0.4-1.3-0.6-1.5-0.7c-0.3-0.2-0.5-0.4-0.6-0.5
				c-0.1-0.2-0.2-0.4-0.2-0.6c0-0.4,0.1-0.7,0.4-0.9c0.4-0.3,0.8-0.4,1.5-0.4c0.4,0,0.7,0,1,0.1c0.3,0.1,0.5,0.2,0.7,0.4
				c0.2,0.2,0.3,0.4,0.4,0.6c0,0.2,0.1,0.4,0.1,0.6l1.1-0.1c0-0.1,0-0.2,0-0.2c0-0.4-0.1-0.8-0.3-1.2
				C185.7,44,185.3,43.6,184.9,43.4z"/>
			<polygon class="st0" points="186.5,52.3 187.6,52.3 188.9,45.7 187.8,45.7 			"/>
			<path class="st0" d="M193.6,45.5c-0.4,0-0.7,0.1-1.1,0.3c-0.4,0.2-0.8,0.5-1.2,1l0.2-1.2h-1l-1.3,6.6h1.1l0.6-3.1
				c0.2-1,0.5-1.7,0.9-2.1c0.4-0.4,0.9-0.6,1.5-0.6c0.3,0,0.5,0.1,0.6,0.2c0.1,0.1,0.2,0.3,0.2,0.5c0,0.2,0,0.5-0.1,0.9l-0.8,4.2
				h1.1l0.8-4c0.1-0.5,0.2-0.9,0.2-1.2c0-0.5-0.2-0.9-0.4-1.2C194.5,45.7,194.1,45.5,193.6,45.5z"/>
			<path class="st0" d="M198.3,46.9c0.3-0.3,0.7-0.4,1.1-0.4c0.4,0,0.7,0.1,0.9,0.3c0.2,0.2,0.3,0.6,0.3,1l1.1-0.1
				c0-0.7-0.2-1.2-0.6-1.6c-0.4-0.4-0.9-0.6-1.6-0.6c-0.7,0-1.2,0.2-1.7,0.6c-0.5,0.4-0.9,0.9-1.2,1.6c-0.3,0.7-0.4,1.4-0.4,2.1
				c0,0.9,0.2,1.5,0.6,1.9c0.4,0.5,1,0.7,1.6,0.7c0.6,0,1.2-0.2,1.7-0.6c0.5-0.4,0.9-1,1.2-1.8l-1.1-0.1c-0.2,0.6-0.4,1-0.7,1.3
				c-0.3,0.3-0.6,0.4-1,0.4c-0.3,0-0.6-0.2-0.9-0.4c-0.2-0.3-0.4-0.7-0.4-1.3c0-0.5,0.1-1.1,0.3-1.7C197.7,47.6,198,47.2,198.3,46.9
				z"/>
			<path class="st0" d="M205.5,45.5c-0.6,0-1.1,0.2-1.6,0.5s-0.9,0.8-1.2,1.5c-0.3,0.7-0.5,1.4-0.5,2.1c0,0.6,0.1,1.1,0.3,1.5
				c0.2,0.4,0.5,0.8,0.9,1c0.4,0.2,0.8,0.3,1.3,0.3c0.7,0,1.4-0.2,1.9-0.7c0.5-0.5,0.9-1,1-1.5l-1-0.1c-0.2,0.5-0.5,0.8-0.8,1.1
				c-0.4,0.3-0.7,0.4-1.1,0.4c-0.4,0-0.7-0.2-1-0.5c-0.3-0.3-0.4-0.8-0.4-1.4c0-0.1,0-0.2,0-0.4h4.6c0.1-0.3,0.1-0.7,0.1-1
				c0-0.9-0.2-1.5-0.7-2C206.9,45.8,206.3,45.5,205.5,45.5z M207,48.4h-3.5c0.2-0.7,0.5-1.2,0.8-1.5c0.4-0.3,0.8-0.5,1.3-0.5
				c0.4,0,0.8,0.1,1,0.4c0.3,0.3,0.4,0.7,0.4,1.3C207,48.2,207,48.3,207,48.4z"/>
			<path class="st0" d="M216.3,43.7c-0.3,0.3-0.6,0.6-1.2,1c-0.5,0.4-1.1,0.7-1.6,0.9l-0.2,1c1.1-0.3,1.9-0.7,2.5-1.2l-1.4,6.9h1.1
				l1.8-9.2h-0.6C216.6,43.4,216.5,43.6,216.3,43.7z"/>
			<path class="st0" d="M222.7,43.1c-0.9,0-1.5,0.3-2,0.9c-0.4,0.5-0.6,1-0.6,1.5c0,0.3,0.1,0.7,0.2,0.9c0.2,0.3,0.4,0.5,0.7,0.7
				c-0.6,0.2-1,0.5-1.3,1c-0.3,0.5-0.5,1.1-0.5,1.7c0,0.7,0.2,1.3,0.7,1.8c0.5,0.5,1.1,0.7,1.8,0.7c0.9,0,1.6-0.3,2.2-1
				c0.5-0.6,0.8-1.4,0.8-2.2c0-0.4-0.1-0.8-0.3-1.2c-0.1-0.3-0.4-0.5-0.7-0.7c0.5-0.2,0.9-0.5,1.1-0.9c0.2-0.4,0.4-0.7,0.4-1.2
				c0-0.6-0.2-1.2-0.7-1.6C224.1,43.3,223.5,43.1,222.7,43.1z M223.2,50.7c-0.4,0.6-0.8,0.9-1.4,0.9c-0.3,0-0.6-0.1-0.8-0.2
				c-0.2-0.1-0.4-0.3-0.5-0.6c-0.1-0.2-0.2-0.5-0.2-0.7c0-0.7,0.2-1.2,0.6-1.6c0.4-0.4,0.8-0.6,1.4-0.6c0.4,0,0.8,0.1,1,0.4
				c0.2,0.3,0.4,0.6,0.4,1C223.6,49.8,223.5,50.3,223.2,50.7z M223.7,46.5c-0.3,0.3-0.7,0.5-1.2,0.5c-0.4,0-0.8-0.1-1-0.4
				c-0.2-0.2-0.3-0.6-0.3-0.9c0-0.3,0.1-0.5,0.2-0.8c0.1-0.3,0.3-0.5,0.6-0.6c0.3-0.1,0.6-0.2,0.9-0.2c0.4,0,0.7,0.1,1,0.4
				c0.2,0.2,0.4,0.6,0.4,0.9C224.1,45.8,224,46.2,223.7,46.5z"/>
			<path class="st0" d="M231.5,43.2h-0.9l-4.8,5.7l-0.2,1.1h3.5l-0.5,2.3h1.1l0.5-2.3h1.2l0.2-1h-1.2L231.5,43.2z M229.3,49h-2.4
				l3.2-3.8L229.3,49z"/>
			<path class="st0" d="M237.3,43.5c-0.4-0.2-0.8-0.3-1.3-0.3c-0.7,0-1.3,0.2-1.8,0.7c-0.5,0.5-0.8,1.1-0.9,1.9l1,0.2
				c0.1-0.7,0.4-1.1,0.7-1.4c0.3-0.3,0.6-0.4,1.1-0.4c0.4,0,0.7,0.1,1,0.4c0.3,0.3,0.4,0.6,0.4,1.1c0,0.2,0,0.5-0.1,0.7
				c-0.1,0.3-0.3,0.6-0.7,1c-0.2,0.2-0.6,0.6-1.1,1c-0.9,0.8-1.5,1.3-1.8,1.6c-0.3,0.3-0.6,0.7-0.8,1c-0.2,0.4-0.4,0.8-0.5,1.4h5.1
				l0.2-1h-3.9c0.1-0.3,0.3-0.5,0.6-0.8c0.3-0.3,0.7-0.7,1.2-1.1c1.2-1,2-1.7,2.2-2.1c0.4-0.6,0.6-1.2,0.6-1.7
				c0-0.4-0.1-0.8-0.3-1.2C238,44,237.7,43.7,237.3,43.5z"/>
		</g>
	</g>
	<g>
		<path class="st0" d="M186.8,24.9c0.2-1.1,0.1-2.1-0.1-2.7c-0.2-0.7-0.4-1.3-0.8-1.8c-0.4-0.7-1-1.2-1.8-1.6
			c-0.8-0.4-1.9-0.6-3.4-0.7h-11l-2.8,22.2h6.2l1.1-7.9h2.1c1.4,0,2.2,0.2,2.6,0.7c0.4,0.5,0.4,0.8,0.2,2.2l-0.4,2.1
			c-0.1,0.7-0.2,1.3-0.2,1.9c0,0.3,0,0.5,0.1,1c0,0,5.9,0,6.5,0c0.8,0,0.9,0,0.9,0c0-0.6-0.4-0.8-0.7-1.1c-0.3-0.3-0.2-0.6-0.2-0.8
			c0-0.4,0.5-2.9,0.5-2.9c0.3-1.5,0-2.5-0.3-3.2s-0.9-1.4-1.8-1.8C184.8,29.6,186.4,26.9,186.8,24.9z M180.4,25.5
			c-0.2,0.5-0.6,0.9-1.1,1.2c-0.6,0.4-1.2,0.6-2.1,0.6h-2.6l0.6-4h3.1c0.4,0,0.9,0,1.2,0.1c0.4,0.1,0.7,0.4,0.8,0.6
			c0.1,0.2,0.2,0.4,0.2,0.7C180.6,24.9,180.5,25.3,180.4,25.5z"/>
	</g>
	<g>
		<path class="st0" d="M235.7,18.9c-0.1-0.1-0.2-0.2-0.2-0.3c-0.1-0.1-0.1-0.1-0.2-0.1c0.3,0,0.5-0.2,0.7-0.4
			c0.2-0.2,0.2-0.4,0.2-0.7c0-0.2,0-0.4-0.1-0.5c-0.1-0.2-0.2-0.3-0.3-0.4c-0.1-0.1-0.3-0.1-0.6-0.2c-0.1,0-0.4,0-1.1,0h-0.7v3.7
			h0.7v-1.5h0.2c0.2,0,0.4,0.1,0.5,0.2c0.1,0.1,0.3,0.4,0.5,0.8l0.3,0.6h0.9l-0.4-0.8C235.8,19.1,235.7,18.9,235.7,18.9z
			 M235.1,17.9c-0.1,0-0.4,0-0.9,0H234V17h0.2c0.5,0,0.7,0,0.9,0.1c0.1,0,0.2,0.1,0.3,0.2c0.1,0.1,0.1,0.3,0,0.4
			C235.3,17.8,235.2,17.8,235.1,17.9z"/>
		<path class="st0" d="M238,16.2c-0.3-0.6-0.8-1.1-1.4-1.5c-0.6-0.3-1.2-0.5-1.8-0.5c-0.6,0-1.3,0.2-1.9,0.5c-0.6,0.3-1,0.8-1.4,1.5
			c-0.3,0.6-0.5,1.3-0.5,2c0,0.7,0.2,1.4,0.5,2c0.3,0.6,0.8,1.1,1.4,1.5c0.6,0.4,1.2,0.5,1.9,0.5c0.6,0,1.3-0.2,1.9-0.5
			c0.6-0.4,1-0.8,1.4-1.5c0.3-0.6,0.5-1.3,0.5-2C238.5,17.5,238.3,16.8,238,16.2z M237.4,19.8c-0.3,0.5-0.6,0.9-1.1,1.2
			c-0.5,0.3-1,0.4-1.5,0.4s-1-0.1-1.5-0.4c-0.5-0.3-0.9-0.7-1.1-1.2c-0.3-0.5-0.4-1-0.4-1.6c0-0.6,0.1-1.1,0.4-1.6s0.7-0.9,1.1-1.2
			c0.5-0.3,1-0.4,1.5-0.4s1,0.1,1.5,0.4c0.5,0.3,0.9,0.7,1.1,1.2c0.3,0.5,0.4,1.1,0.4,1.6C237.8,18.7,237.6,19.3,237.4,19.8z"/>
	</g>
</g>
</svg>
