<?xml version="1.0" encoding="utf-8"?>
<!-- Generator: Adobe Illustrator 28.0.0, SVG Export Plug-In . SVG Version: 6.00 Build 0)  -->
<svg version="1.1" id="Capa_1" xmlns="http://www.w3.org/2000/svg" xmlns:xlink="http://www.w3.org/1999/xlink" x="0px" y="0px"
	 viewBox="0 0 185 59" style="enable-background:new 0 0 185 59;" xml:space="preserve">
<style type="text/css">
	.st0{fill:#40AB48;}
	.st1{fill:#38A740;}
	.st2{fill:#93CF98;}
	.st3{fill:#221E1F;}
	.st4{fill:#201C1C;}
	.st5{fill:#211D1C;}
	.st6{fill:#262223;}
	.st7{fill:#FBFBFB;}
	.st8{fill:#3BA943;}
	.st9{fill:#211A1C;}
	.st10{fill:#3CAA44;}
	.st11{fill:#FAFAFA;}
	.st12{fill:#1D0E18;}
	.st13{fill:#FBFAFA;}
	.st14{fill:#1D191C;}
	.st15{fill:#221E1E;}
	.st16{fill:#44AD4C;}
	.st17{fill:#1D1918;}
	.st18{fill:#F9FCF9;}
	.st19{fill:#F9F9F9;}
	.st20{fill:#1E1A1A;}
	.st21{fill:#EBF6EC;}
	.st22{fill:#75C57C;}
	.st23{fill:#41AB4A;}
	.st24{fill:#A9D9AC;}
	.st25{fill:#1E1A1B;}
	.st26{fill:#6FC276;}
	.st27{fill:#191514;}
	.st28{fill:#68BC6F;}
	.st29{fill:#E8E7E7;}
	.st30{fill:#41AC49;}
	.st31{fill:#120E0F;}
	.st32{fill:#45AC4D;}
	.st33{fill:#3BA843;}
	.st34{fill:#FDFDFD;}
	.st35{fill:#252122;}
	.st36{fill:#373334;}
	.st37{fill:#1A1618;}
	.st38{fill:#211C1E;}
	.st39{fill:#1E1A1C;}
	.st40{fill:#2A2627;}
	.st41{fill:#FDFEFD;}
	.st42{fill:#272324;}
	.st43{fill:#1C181A;}
	.st44{fill:#FEFEFE;}
	.st45{fill:#44AC4B;}
	.st46{fill:#3BA743;}
	.st47{fill:#EFEFEF;}
	.st48{fill:#252223;}
	.st49{fill:#1D1919;}
	.st50{fill:#1F1B1C;}
	.st51{fill:#1C181B;}
	.st52{fill:#262224;}
	.st53{fill:#44AC4C;}
	.st54{fill:#251C22;}
</style>
<g>
	<path class="st0" d="M50.4,23.2c-3.2-7.6-11.9-10.8-19.4-8.7c-3,0.9-6,1.8-8.4,4c-5.8,5.2-7.7,11.6-5.7,19.1
		c1.9,7,7.9,11.9,15.2,12.7c0.1,0.1,0.4,0.2,0.2,0.4c-10.8,0.7-20.1-6.4-22.2-16.9c-0.2-0.3-0.1-0.7-0.5-1c0-0.7,0-1.3,0-2
		c0.2-0.1,0.3-0.1,0.5-0.1c0.1,0.2,0.1,0.4,0.1,0.6c0-0.2,0-0.3,0-0.5c-0.4-0.9-0.1-1.9,0-2.7c0,0.1,0,0.3-0.1,0.5
		c-0.2,0.1-0.4,0.1-0.5-0.1c0-0.7,0-1.5,0-2.2c0.5-0.2,0.4-0.7,0.5-1.2C12.3,16,20.3,9.2,30.2,8.8c9.2-0.4,17.3,5.3,20.5,13.8
		c0,0.1,0.1,0.2,0.1,0.4C50.8,23.2,50.7,23.3,50.4,23.2z"/>
	<path class="st1" d="M9.7,28.6c0.2,0,0.3,0,0.5,0c0.2,0.7,0.2,1.5,0,2.2c-0.2,0-0.3,0-0.5,0C9.7,30.1,9.7,29.4,9.7,28.6z"/>
	<path class="st2" d="M9.7,32.8c0.7,0.1,0.5,0.6,0.5,1c-0.2-0.1-0.3-0.2-0.5-0.3C9.7,33.3,9.7,33.1,9.7,32.8z"/>
	<path class="st0" d="M83.2,9c-1.7,5.3-3.3,10.6-5,15.9c-0.2,0.5-0.4,1.1-0.5,1.6c-0.6,1.9-0.6,1.9-2.7,1.9c-1.1,0-2.4,0.4-3.1-0.2
		c-0.7-0.6-0.8-1.9-1.1-2.9c-0.8-2.6-1.6-5.2-2.4-7.9c-0.1-0.2,0-0.4-0.4-0.5c-1.2,3.4-2.4,6.8-3.5,10.3c-0.3,0.9-0.6,1.4-1.7,1.2
		c-1.3-0.1-2.9,0.4-3.9-0.2c-1-0.6-0.9-2.3-1.3-3.6c-1.6-5.1-3.1-10.3-4.7-15.4C52.8,8.3,52.9,8,54,8.1c1.3,0.1,3-0.4,4,0.2
		c1,0.6,0.9,2.4,1.3,3.7c0.8,2.7,1.5,5.4,2.2,8c0.1,0.4,0.1,0.8,0.5,1.1C63.2,17.1,64.6,13,66,9c1.2-0.5,2.5-0.2,3.7-0.4
		c0.2-0.1,0.3-0.1,0.5-0.1c1,2.2,1.5,4.7,2.2,7c0.6,1.9,1.2,3.8,1.8,5.9c1.3-4.4,2.6-8.5,3.8-12.7c0.1-0.1,0.2-0.1,0.3-0.1
		c1.5,0.1,3-0.1,4.5,0.3C83,8.9,83.1,8.9,83.2,9z"/>
	<path class="st3" d="M77.1,29.9c0.7,1.6,0.7,3.3,0.9,5c0.8,4.9,1.4,9.9,2.2,14.8c0.1,0.8-0.1,1-0.9,0.9c-1.1-0.1-2.2-0.1-3.3,0
		c-0.8,0-0.9-0.2-1-0.9c-0.4-3.6-0.9-7.2-1.4-11.2c-0.8,1.9-1.4,3.5-2.1,5.1c-0.8,2-1.7,4.1-2.4,6.2c-0.3,0.8-0.8,0.8-1.5,0.9
		c-0.8,0.1-1.1-0.3-1.3-0.9c-1.3-3.4-2.6-6.8-3.9-10.2c-0.1-0.2-0.1-0.5-0.4-0.7c-0.5,3.6-1.1,7.2-1.5,10.7
		c-0.1,0.8-0.4,1.1-1.2,1.1c-1-0.1-2.1-0.1-3.1,0c-0.8,0.1-1.1-0.2-0.9-1c1.1-6.3,2.1-12.6,3.1-18.9c0.1-0.7,0.3-1,1.1-0.9
		c1.4,0.1,3-0.5,4.1,0.2c1,0.7,1.1,2.4,1.6,3.6c0.9,2.3,1.7,4.7,2.6,7c0.5,0,0.4-0.4,0.5-0.6c1.2-3.1,2.4-6.2,3.7-9.4
		c0.1-0.2,0.1-0.6,0.4-0.7C73.8,30,75.4,30.1,77.1,29.9z"/>
	<path class="st3" d="M102.5,29.9c4.2,0,8.2,3.1,9.3,7.4c1.2,4.4-0.8,9-4.7,11.3c-1.6,0.9-3.2,1.4-5,1.4c-2.3,0-4.5,0-6.8,0
		c-0.6,0-0.9-0.1-0.9-0.8c0-6.3,0-12.6,0-18.9c0-0.2,0-0.3,0.2-0.4c0.2,0.1,0.4,0.3,0.4,0.5c0,5.9,0,11.8,0,17.6
		c0,1.3,0,1.3,1.4,1.3c1.3,0,2.7,0,4,0c-1.5,0-2.9,0-4.4,0c-0.6,0-0.9-0.1-0.9-0.8c0.1-6.2-0.1-12.3,0.1-18.5c2-0.3,4,0,6-0.1
		C101.6,30,102,30.1,102.5,29.9z"/>
	<path class="st3" d="M43.5,21.1c-2.3-1.4-4.7-2-7.4-1.4c-4.3,1.1-7,5.2-6.1,9.3c0.9,4.3,5.2,7.1,9.5,6.4c2.3-0.4,4.2-1.6,5.7-3.4
		c0.1,0,0.2,0.1,0.3,0.3c-1.5,4-6.2,6.8-11,6.6c-6.7-0.3-11.8-6.1-10.8-12.6c0.7-4.2,3.1-7.1,7.1-8.7c4.1-1.6,7.9-1,11.4,1.6
		c0.5,0.4,0.9,0.9,1.3,1.4C43.6,20.9,43.6,21,43.5,21.1z"/>
	<path class="st0" d="M92.5,15.9c-0.1-1.1,0.3-1.3,1.1-1.2c1.2,0.1,2.8-0.4,3.4,0.2c0.8,0.7,0.2,2.3,0.3,3.5c0,3,0,6,0,8.9
		c0,0.8-0.2,1.1-1,1c-0.8-0.1-1.6-0.1-2.5,0c-0.9,0.1-1.7,0-1.3-1.5c-1.5,1.5-3.1,2.1-4.9,2c-1.8-0.2-3.3-1-4.5-2.3
		c-2.4-2.7-2.4-7.1,0-9.9C84.9,14.5,88.8,13.1,92.5,15.9z"/>
	<path class="st0" d="M51.6,26.7c1,7.9-1.1,16.2-8.5,19.9c-5.4,2.7-10.9,2.5-15.9-0.9c-5-3.3-7.1-8.2-6.9-14.1
		c0.4,0.1,0.4,0.5,0.4,0.7c2.3,6.8,9.3,11.3,16.6,10.4c5.5-0.6,9.8-3.1,12.5-8c1.4-2.5,1.7-5.3,1.6-8.1
		C51.5,26.6,51.6,26.6,51.6,26.7z"/>
	<path class="st3" d="M128.9,49.8c-1.4,0.4-2.8,0.1-4.2,0.2c-0.9,0-0.3-0.9-0.6-1.3c-1.3,1.4-2.9,1.9-4.8,1.7
		c-1.9-0.2-3.4-1-4.6-2.5c-2.3-2.9-2.1-7.4,0.4-10c2.4-2.5,5.9-2.7,9-0.4c-0.3-1.4,0.6-1.2,1.4-1.2c1,0,2,0,3.1,0
		c-0.1,0.5-0.5,0.3-0.8,0.3c-1,0-2,0-3,0c1.2,0,2.4-0.2,3.6,0.1c0.3,0.5,0.2,1.1,0.2,1.7c0,3.5,0,7,0,10.5
		C128.8,49.2,128.8,49.5,128.9,49.8z"/>
	<path class="st0" d="M128.1,14.3c1.2,0,2.4,0.2,3.5,0.6c3.1,1.2,4.8,3.6,4.8,6.7c0,3.1-1.8,5.5-4.9,6.6c-2.2,0.8-4.4,0.8-6.5,0.1
		c-3.3-1.1-5.4-4.1-5.1-7.3c0.4-3.7,3-6.2,6.9-6.7C127.2,14.3,127.6,14.3,128.1,14.3z"/>
	<path class="st0" d="M147.2,20.3c-0.4-0.9-0.8-1.7-1.9-1.9c-1.9-0.4-3.2,0.5-3.3,2.6c-0.1,2.1,0,4.2,0,6.4c0,0.4,0.2,0.8-0.2,1.2
		c-0.4-2.3,0-4.5-0.2-6.7c0,1.8,0,3.7,0,5.5c0,0.4-0.2,0.8,0.2,1.2c-1.4,0.3-2.8,0.1-4.1,0.1c-0.5,0-0.5-0.4-0.5-0.8
		c0-4,0-8.1,0-12.1c0-0.7,0.3-0.8,0.9-0.8c0.7,0,1.5,0,2.2,0c1,0,2.4-0.4,1.6,1.8c2.7-2.4,5.5-2.8,7.9-1.4c1.5,0.9,2.3,2.4,2.4,4.1
		c0.1,3.8,0,7.6,0,11.7c-1.6-1.3-3.1-1.1-4.7-0.2c0-3.2,0-6.2,0-9.3C147.2,21.2,147.4,20.7,147.2,20.3z"/>
	<path class="st3" d="M167.9,46.6c-0.2,0.3-0.3,0.7-0.5,1c-1.8,2.7-6.3,3.7-9.9,2.2c-3.2-1.3-4.8-4.5-4.1-8.2
		c0.5-2.7,2.1-4.6,4.8-5.3c2.4-0.7,4.8-0.6,7,0.8c2.4,1.5,3.1,3.8,3.2,6.4c0,0.7-0.5,0.5-0.9,0.5c-2.6,0-5.3,0-7.9,0
		c-0.5,0-1.4-0.4-1.5,0.3c-0.1,0.8,0.2,1.7,1,2.2c1.4,0.9,2.9,0.8,4.3-0.4c1.2-0.1,2.4,0,3.6-0.1C167.5,45.9,167.8,46,167.9,46.6z"
		/>
	<path class="st3" d="M145.2,39.9c0.4,1.2,0.2,2.5,0.2,3.8c0,1.8,0,3.6,0,5.4c0,0.6-0.1,1-0.9,0.9c-1.3-0.1-2.6,0.2-3.9-0.2
		c0.3-1.8,0.1-3.6,0.1-5.5c0-0.7-0.1-1.3,0-2c0,2.1,0,4.2,0,6.3c0,0.4,0.1,0.8-0.1,1.2c-0.3-1.2-0.1-2.4-0.1-3.6
		c-0.1-1.5,0-2.9-0.1-4.4c0-1.1-0.5-2-1.8-2.1c-1.4-0.2-2.3,0.4-2.7,1.7c-0.2,0.6-0.2,1.3-0.2,1.9c0,1.1,0,2.1,0,3.2
		c0,1.1,0.5,2.9-0.2,3.2c-1.3,0.6-3,0.4-4.5,0.1c0-3.9,0-7.8,0-11.8c0-1.4,0-1.4,1.4-1.4c0.7,0,1.4,0,2.1,0c0.3,0,0.7-0.1,0.8,0.2
		c-0.4-0.4-1-0.1-1.5-0.2c-0.8-0.2-1.8,0.4-2.5-0.3c0.9,0,1.8,0,2.7,0c1.7,0,1.7,0,1.9,1.6c1.8-2.2,4.1-2.5,6.6-1.7
		C144.2,36.8,145.1,38.1,145.2,39.9c-0.4,0.3-0.4,0.6-0.4,1.1c0.1,2.6,0.2,5.1,0,7.6c0.2-2.6,0.1-5.2,0-7.8
		C144.7,40.3,144.9,40.1,145.2,39.9z"/>
	<path class="st0" d="M114.8,14.3c1.1,0,2.2,0.2,3.4,0.6c0.5,0.2,0.6,0.4,0.3,0.9c-0.2,0.3-0.3,0.6-0.5,0.9c-0.4,1.1-1,1.8-2.3,1.1
		c-0.6-0.3-1.3-0.2-1.9,0c-0.4,0.1-0.7,0.3-0.7,0.8c0,0.4,0.2,0.7,0.6,0.8c0.6,0.2,1.2,0.3,1.8,0.5c2.5,0.5,3.7,1.7,3.8,3.7
		c0.2,2.1-1,3.9-3.2,4.8c-2.8,1.1-5.5,0.7-8.1-0.5c-0.5-0.2-0.7-0.5-0.4-1c0.1-0.1,0.1-0.2,0.2-0.3c0.4-0.7,0.6-1.7,1.2-2.1
		c0.6-0.4,1.3,0.6,2.1,0.7c0.8,0.2,1.6,0.5,2.4,0.3c0.5-0.1,0.9-0.4,0.9-1c0-0.5-0.3-0.8-0.8-1c-0.7-0.2-1.4-0.4-2.1-0.6
		c-1.4-0.4-2.7-1-3.1-2.6c-0.3-1.8,0.1-3.3,1.6-4.5C111.4,14.5,113,14.3,114.8,14.3z"/>
	<path class="st3" d="M80.8,41.7c0.4-2.6,2.1-4.1,4.4-5.1c2.2-0.9,4.4-1.1,6.7-0.3c0.6,0.2,0.8,0.5,0.8,1.1c-0.1,1,0,2,0,3.1
		c-0.7-0.2-1.2-0.5-1.8-0.7c-2-0.6-4.2,0.6-4.6,2.4c-0.5,2,0.6,3.6,2.9,4.1c0.1,0,0.2,0.1,0.3,0.1c0.1,0.1-0.3,0.1,0,0.2
		c0.1,0,0.1,0,0.2,0c0.2,0.1,0.5,0.1,0.7,0.1c0-0.1,0-0.2-0.1-0.2c0.7-0.3,1.5-0.3,2.3-1c0,1.4,0,2.6,0,3.7c0,0.3-0.1,0.4-0.4,0.6
		c-4.4,1.7-10.8-0.2-11.7-5.7c-0.1-0.8-0.2-1.5,0.2-2.3c0.3,0.4,0.1,0.8,0.1,1C80.8,42.6,81,42.1,80.8,41.7z"/>
	<path class="st0" d="M104.7,28.2c-1.5,0.5-3,0.2-4.4,0.2c-0.5,0-0.3-0.6-0.3-0.9c0-2.6,0-5.2,0-7.7c0-0.7-0.1-1.1-0.9-1
		c-0.1,0-0.2,0-0.2,0c-0.9-0.9-0.2-2.1-0.4-3.2c-0.1-0.5,0-0.8,0.6-0.8c1,0.2,0.9-0.5,0.9-1.1c0-3,0-3,3-3c0.4,0,0.8,0,1.2,0.1
		c0.5,0.3,0.3,0.8,0.4,1.2c0.1,0.9-0.2,1.8,0.2,2.7c0.2,0,0.5,0.1,0.7,0.1c2.1,0.1,2.2,0.1,2.1,2.2c0,0.5,0.2,1.1-0.2,1.6
		c-0.4-0.6-0.2-1.2-0.2-1.9c-0.1-0.4,0.1-0.9-0.2-1.3c-0.3-0.2-0.6-0.1-0.8-0.1c0.6-0.1,1,0.2,0.9,0.9c0,0.3,0,0.6,0,0.9
		c0.1,0.9-0.3,1.4-1.3,1.3c-0.2,0-0.5,0-0.7,0c-0.2,0.1-0.4,0.1-0.4,0.3l0-0.1c-0.4,0.3-0.2,0.8-0.2,1.1c0,2.4,0,4.8,0,7.2
		c0,0.9-0.3,1.2-1.1,1.1c-0.7-0.1-1.4,0-2,0C102.5,28.1,103.6,27.9,104.7,28.2z"/>
	<path class="st3" d="M174.6,39.9c0,3,0,6,0,9c0,0.9-0.3,1.1-1.1,1.1c-1.2-0.1-2.8,0.5-3.5-0.3c-0.6-0.7-0.2-2.3-0.2-3.4
		c0-5.1,0-10.1,0-15.2c0-0.8,0.1-1.3,1.1-1.2c1.2,0.2,2.8-0.5,3.5,0.3c0.6,0.7,0.2,2.3,0.2,3.4C174.6,35.7,174.6,37.8,174.6,39.9z"
		/>
	<path class="st3" d="M147.9,35c0.3,0.2,0.7,0.3,1,0.5c0.1,0.1,0.2,0.2,0.3,0.3c0.1,0.1,0.3,0.1,0.4,0.1c0.2,0,0.4,0,0.6,0
		c1.7-0.1,1.7-0.1,1.7,1.5c0,3.6,0,7.2,0,10.8c0,0.5,0.1,1-0.2,1.4c-1.2,0.3-2.3,0.2-3.5,0.1c-0.5-0.3-0.5-0.7-0.5-1.2
		c0-4.3-0.1-8.7,0.1-13C147.7,35.3,147.8,35.1,147.9,35z"/>
	<path class="st4" d="M131.4,36.3c0.9,0.4,1.9,0.2,2.9,0.2c1.2-0.1,1.5,0.5,1.2,1.6c0.2-1.4-0.7-1.3-1.6-1.3c-2.4,0-2.4,0-2.4,2.4
		c0,3.1,0,6.3,0,9.4c0,0.4,0.2,0.9-0.3,1.3c-0.3-0.7-0.1-1.4-0.1-2.2c0-3.5,0-6.9,0-10.4C131,36.9,130.6,36.3,131.4,36.3z"/>
	<path class="st5" d="M128.9,49.8c-0.2,0-0.4,0-0.5-0.2c0.3-0.7,0.1-1.5,0.1-2.3c0-3.4,0-6.7,0-10.1c0-0.3,0.2-0.6,0.4-0.8
		c0.3,0.2,0.2,0.5,0.2,0.8c0,3.9,0,7.9,0,11.8C129.1,49.2,129.2,49.5,128.9,49.8z"/>
	<path class="st6" d="M148.9,35.8c0-0.1,0-0.2,0-0.2c0.9,0.1,1.9,0,2.7-0.5c0.5,0.2,0.4,0.7,0.4,1.1c0,4.4,0,8.8,0,13.2
		c-0.1,0.2-0.2,0.2-0.4,0.2c0-4.5,0-9,0-13.6c-0.9,0.1-1.8,0.7-2.7,0.1c0.5-0.2,1.1,0,1.5-0.1C150,35.8,149.4,36,148.9,35.8z"/>
	<path class="st7" d="M93.9,49.5c0-6.4,0-12.9,0-19.3c0,0,0.1,0,0.1,0C94,36.6,94,43.1,93.9,49.5C94,49.5,94,49.5,93.9,49.5z"/>
	<path class="st8" d="M83.2,9l-0.1,0L83,9c-1.5-0.3-3.1,0.1-4.7-0.2c-0.1,0-0.2,0-0.2,0c0-0.5,0.2-0.7,0.7-0.7c1.3,0,2.6,0,3.9,0
		C83.6,8,83.6,8.4,83.2,9z"/>
	<path class="st3" d="M151.8,49.5c0-4.3,0-8.6,0-12.9c0-0.5,0.1-1.1-0.2-1.5c0.1-0.1,0.3-0.4,0.4-0.4c0.3,0.1,0.2,0.4,0.2,0.6
		c0,2.8,0,5.7,0,8.5c0,1.9,0,3.8-0.1,5.7C152,49.6,151.9,49.6,151.8,49.5z"/>
	<path class="st9" d="M147.9,35c0,0.1,0,0.2,0,0.2c-0.3,1.4-0.1,2.9-0.1,4.3c0,3.3,0,6.5,0,9.8c-0.1,0.2-0.2,0.2-0.4,0.2
		c0-4.8,0-9.6-0.1-14.4c0-0.2-0.2-0.5,0.2-0.5C147.7,34.7,147.8,34.9,147.9,35z"/>
	<path class="st10" d="M104.7,28.2c-1.4,0-2.8,0-4.2,0c0-0.1,0-0.2,0-0.2c0.9,0,1.9-0.1,2.8,0c0.9,0.1,1.1-0.3,1.1-1.1
		c0-2.4,0-4.7,0-7.1c0-0.4-0.2-0.8,0.3-1.1C104.8,21.8,104.8,25,104.7,28.2z"/>
	<path class="st7" d="M130.6,36.5c0,4.3,0,8.6,0,12.9c0,0-0.1,0-0.1,0C130.5,45.1,130.5,40.8,130.6,36.5
		C130.5,36.5,130.5,36.5,130.6,36.5z"/>
	<path class="st8" d="M70.2,8.5c-0.1,0.1-0.2,0.2-0.2,0.3c-1.1,0.3-2.3,0.1-3.4,0.1c-0.2,0-0.4-0.2-0.3-0.4c0-0.2,0.1-0.4,0.4-0.4
		c1.1,0,2.1,0,3.2,0C70,8.1,70.2,8.2,70.2,8.5z"/>
	<path class="st7" d="M146.1,40.8c0,3,0,5.9,0,8.9c0,0-0.1,0-0.1,0c0-3,0-6,0-9C146.1,40.7,146.1,40.7,146.1,40.8z"/>
	<path class="st11" d="M103.4,29.3c-2.9,0-5.8,0-8.7,0c0,0,0-0.1,0-0.1c2.9,0,5.9,0,8.8,0C103.4,29.2,103.4,29.3,103.4,29.3z"/>
	<path class="st12" d="M147.4,49.5c0.1,0,0.2,0,0.3,0c0.2-0.1,0.3-0.1,0.5,0c1.2,0,2.3,0,3.5,0c0.1,0,0.2,0,0.2,0c0.1,0,0.2,0,0.3,0
		c0,0.2,0.1,0.5-0.2,0.5c-1.4,0-2.9,0-4.3,0C147.3,50,147.4,49.7,147.4,49.5z"/>
	<path class="st13" d="M103.2,50.4c-2.8,0-5.6,0-8.3,0c0,0,0-0.1,0-0.1c2.8,0,5.6,0,8.3,0C103.2,50.4,103.2,50.4,103.2,50.4z"/>
	<path class="st14" d="M94.8,30.1c-0.1-0.1-0.2-0.1-0.2-0.2c2.6-0.2,5.3-0.1,7.9,0c-0.4,0.4-0.8,0.2-1.3,0.3c-2,0-4.1,0-6.1,0
		C95,30.2,94.9,30.2,94.8,30.1z"/>
	<path class="st10" d="M107.2,15.1c0.5,1.1,0.1,2.3,0.2,3.4c-0.9,0-1.8,0.1-2.7,0.1c0.1-0.1,0.1-0.2,0.2-0.3c0.6-0.4,1.6,0.3,2-0.4
		c0.3-0.6,0.1-1.4,0.1-2.1C107.1,15.6,107,15.3,107.2,15.1z"/>
	<path class="st15" d="M167.9,46.6c-0.3-0.6-0.9-0.5-1.4-0.5c-1,0-2,0-3-0.1c1.5-0.6,3-0.2,4.5-0.2
		C168.3,45.8,167.9,46.3,167.9,46.6z"/>
	<path class="st11" d="M63.2,29.3c-1.5,0-3.1,0-4.6,0c0,0,0-0.1,0-0.1C60.2,29.2,61.7,29.2,63.2,29.3C63.2,29.2,63.2,29.3,63.2,29.3
		z"/>
	<path class="st14" d="M77.1,29.9c-1.6,0.4-3.3,0.4-4.9,0C73.8,29.7,75.4,29.7,77.1,29.9z"/>
	<path class="st11" d="M77,29.3c-1.5,0-3.1,0-4.6,0c0,0,0-0.1,0-0.1c1.5,0,3.1,0,4.6,0C77,29.2,77,29.3,77,29.3z"/>
	<path class="st13" d="M145.2,50.4c-1.4,0-2.8,0-4.1,0c0,0,0-0.1,0-0.1c1.4,0,2.8,0,4.1,0C145.2,50.4,145.2,50.4,145.2,50.4z"/>
	<path class="st13" d="M135.5,50.4c-1.4,0-2.8,0-4.1,0c0,0,0-0.1,0-0.1c1.4,0,2.8,0,4.1,0C135.5,50.4,135.5,50.4,135.5,50.4z"/>
	<path class="st13" d="M124.5,50.3c1.4,0,2.8,0,4.1,0c0,0,0,0.1,0,0.1c-1.4,0-2.7,0-4.1,0C124.5,50.4,124.5,50.3,124.5,50.3z"/>
	<path class="st13" d="M170.2,50.3c1.4,0,2.7,0,4.1,0c0,0,0,0.1,0,0.1c-1.4,0-2.8,0-4.1,0C170.2,50.4,170.2,50.4,170.2,50.3z"/>
	<path class="st16" d="M66.2,8.5c1.2,0.6,2.5,0.2,3.7,0.3c-1.3,0.4-2.6,0.3-4,0.2C66,8.8,66,8.6,66.2,8.5z"/>
	<path class="st17" d="M128.9,36.3c-0.1,0.1-0.2,0.3-0.2,0.4c-0.1,0.1-0.2,0.1-0.2,0c-1.2,0-2.4,0-3.7,0c1.3-0.5,2.6,0.1,3.9-0.4
		C128.7,36.3,128.8,36.3,128.9,36.3z"/>
	<path class="st10" d="M104.8,14.6c-0.6-0.4-0.3-0.9-0.3-1.4c-0.1-0.8,0.2-1.7-0.3-2.5c0.7-0.1,0.6,0.4,0.6,0.8
		C104.8,12.5,104.8,13.6,104.8,14.6z"/>
	<path class="st18" d="M97.9,18.3c0-1.1,0-2.2,0-3.3c0,0,0.1,0,0.1,0c0,1.1,0,2.2,0,3.4C98,18.3,97.9,18.3,97.9,18.3z"/>
	<path class="st11" d="M159.8,50.8c0.9,0,1.8,0,2.7,0c0,0,0,0.1,0,0.1c-0.9,0-1.8,0-2.6,0C159.8,50.9,159.8,50.8,159.8,50.8z"/>
	<path class="st11" d="M90.1,51c-0.9,0-1.7,0-2.6,0c0,0,0-0.1,0-0.1c0.9,0,1.7,0,2.6,0C90.1,50.9,90.1,50.9,90.1,51z"/>
	<path class="st19" d="M152.8,41.9c0,0.8,0,1.6,0,2.4c0,0-0.1,0-0.1,0C152.7,43.5,152.7,42.7,152.8,41.9
		C152.7,41.9,152.7,41.9,152.8,41.9z"/>
	<path class="st20" d="M89.7,46.8c-0.3,0-0.6,0-0.9,0c0.2-0.4,0.5-0.2,0.7-0.3c0.3,0,0.6,0,0.9,0c0.3,0.1,0.6,0,0.8,0.3
		C90.6,47,90.2,47,89.7,46.8z"/>
	<path class="st21" d="M34.1,50.2c0.5-0.3,1-0.2,1.6-0.1c-0.2,0.5-0.6,0.3-0.9,0.4C34.7,50.2,34.3,50.5,34.1,50.2z"/>
	<path class="st22" d="M51.1,25.3c-0.1-0.4-0.3-0.9-0.4-1.3c0.1-0.1,0.1-0.3,0.3-0.3c0.3,0.4,0.3,0.9,0.4,1.3
		C51.3,25.1,51.3,25.2,51.1,25.3z"/>
	<path class="st23" d="M51.1,25.3c0.1-0.1,0.2-0.2,0.3-0.3c0.1,0.6,0.4,1.1,0.3,1.7c-0.1,0-0.2,0-0.2,0
		C51.1,26.2,51.2,25.7,51.1,25.3z"/>
	<path class="st24" d="M34.1,50.2c0.3,0.1,0.6,0,0.7,0.3c-0.6,0.1-1.1,0.4-1.7,0.2c0-0.2,0-0.4,0.3-0.2
		C33.7,50.4,33.9,50.3,34.1,50.2z"/>
	<path class="st11" d="M119,50.8c0.7,0,1.3,0,2,0c0,0,0,0.1,0,0.1c-0.7,0-1.3,0-2,0C119,50.9,119,50.8,119,50.8z"/>
	<path class="st25" d="M80.8,41.7c0.4,0.5,0.2,1.1,0,1.7c0-0.5-0.1-1-0.1-1.5C80.7,41.8,80.7,41.7,80.8,41.7z"/>
	<path class="st26" d="M33.4,50.5c-0.1,0.1-0.2,0.1-0.3,0.2c-0.2,0-0.5,0-0.7,0c-0.1-0.1-0.2-0.3-0.2-0.4
		C32.6,50.3,33.1,50.1,33.4,50.5z"/>
	<path class="st27" d="M43.5,21.1c0-0.1,0-0.2,0-0.3c0.5,0.1,0.7,0.4,0.9,1C43.9,21.6,43.7,21.3,43.5,21.1z"/>
	<path class="st28" d="M51,23.6c-0.1,0.1-0.2,0.2-0.3,0.3c-0.1-0.2-0.2-0.5-0.2-0.7c0.1-0.1,0.2-0.2,0.3-0.3
		C50.9,23.1,51,23.4,51,23.6z"/>
	<path class="st29" d="M46.5,29.7c-0.2-0.1-0.2-0.2-0.2-0.4c0-0.1,0.2-0.2,0.2-0.2c0.2,0,0.2,0.2,0.2,0.4
		C46.7,29.6,46.7,29.7,46.5,29.7z"/>
	<path class="st30" d="M147.2,20.3c0.4,0.4,0.2,0.9,0.2,1.3C147.2,21.2,147.2,20.7,147.2,20.3z"/>
	<path class="st31" d="M45.5,32.3c-0.1-0.1-0.2-0.2-0.3-0.3c0.1-0.2,0.2-0.6,0.4-0.4C45.9,31.8,45.8,32.1,45.5,32.3z"/>
	<path class="st32" d="M10.2,30.9c0-0.7,0-1.5,0-2.2c0-0.2,0-0.5,0-0.7c0,0,0.1,0,0.1,0c0,1.2,0,2.4,0,3.6
		C10,31.4,10.3,31.1,10.2,30.9z"/>
	<path class="st33" d="M31.6,9.2c-0.5,0.1-1,0.2-1.5-0.1C30.7,9,31.2,8.9,31.6,9.2z"/>
	<path class="st16" d="M58.1,8.7c0,0.2,0,0.5,0,0.7C57.7,8.8,57.2,9,56.7,9c-1.1-0.1-2.2,0.3-3.3-0.2C54.9,8.6,56.5,8.6,58.1,8.7z"
		/>
	<path class="st16" d="M78.3,8.8C79.9,8.9,81.5,8.5,83,9c-0.3-0.2-0.1,1-0.6,0.2C82.1,8.8,81.5,9.1,81,9C80.1,8.9,79.2,9.3,78.3,8.8
		z"/>
	<path class="st8" d="M58.1,8.7c-1.6,0-3.1,0-4.7,0C54.9,8.3,56.5,8.4,58.1,8.7z"/>
	<path class="st34" d="M102.2,34.3c3,0.7,4.1,2.4,4.4,4.8c0.5,3.8-1.8,6.3-5.7,6.4c-0.4,0-0.7,0-1.1,0c-0.4-0.3-0.3-0.7-0.3-1.1
		c0-3.1,0-6.2,0-9.2c0-0.4-0.1-0.8,0.3-1.1l0.1,0c0.1,0.1,0.2,0.2,0.2,0.4c0,3.1,0,6.2,0,9.3c0,1,0.2,1.4,1.2,1.2
		c0.3,0,0-0.3,0.1-0.1c0,0.1,0,0.1-0.1,0.1c-0.7,0.1-1.2,0.1-1.2-0.8c0.1-3.3-0.1-6.5,0.1-9.8C100.9,34.1,101.6,34.1,102.2,34.3z"/>
	<path class="st35" d="M94.8,30.1c0.1,0,0.2,0,0.2,0c0,6,0,11.9,0,17.9c0,0.9,0.2,1.3,1.2,1.3c1.5-0.1,3.1,0,4.7,0.2
		c-1.8,0-3.7,0-5.5,0c-0.8,0-0.6-0.7-0.6-1.1c0-3.1,0-6.3,0-9.4C94.8,36,94.8,33.1,94.8,30.1z"/>
	<path class="st36" d="M99.9,34.1c-0.3,0.6-0.2,1.2-0.2,1.8c0.1,3.2-0.2,6.4,0.1,9.7c-0.1,0-0.2,0-0.3,0c-0.2-3.8-0.2-7.7,0-11.5
		C99.6,34.1,99.8,34.1,99.9,34.1z"/>
	<path class="st4" d="M99.5,34c0,3.8,0,7.7,0,11.5c-0.3-0.2-0.2-0.5-0.2-0.8c0-3.3,0-6.6,0-10C99.3,34.5,99.3,34.3,99.5,34z"/>
	<path class="st36" d="M100,34.2c0-0.1-0.1-0.1-0.1-0.2c0.8,0,1.6-0.2,2.3,0.2c-0.7,0-1.3,0-2,0C100.2,34.4,100.1,34.4,100,34.2z"/>
	<path class="st37" d="M107,40.3c-0.1-0.4-0.2-0.7,0-0.9C107.2,39.7,107.2,39.9,107,40.3z"/>
	<path class="st38" d="M39.8,19.3c-0.9,0-1.8,0-2.7,0C38,19,38.9,19,39.8,19.3z"/>
	<path class="st39" d="M35.8,38.7c-0.5,0-1.1,0-1.6,0c0,0,0-0.1,0-0.1c0.5,0,1.1,0,1.6,0C35.8,38.6,35.8,38.6,35.8,38.7z"/>
	<path class="st40" d="M24.2,27c0,0.5,0,1.1,0,1.6c0,0-0.1,0-0.1,0c0-0.5,0-1.1,0-1.6C24.1,27,24.2,27,24.2,27z"/>
	<path class="st41" d="M89.5,18.5c1.8,0,3.1,1.2,3.1,3c0,1.9-1.2,3.2-3.1,3.2c-1.9,0-3.2-1.2-3.2-3.1C86.3,19.8,87.6,18.5,89.5,18.5
		z"/>
	<path class="st34" d="M121.1,46.3c-2.5-0.6-3.5-2.1-2.9-4.1c0.4-1.5,1.8-2.4,3.4-2.2c1.6,0.2,2.8,1.4,2.8,3
		c0.1,1.6-0.8,2.7-2.4,3.1c-0.2,0-0.4,0.1-0.6,0.2C121.3,46.4,121.2,46.4,121.1,46.3z"/>
	<path class="st42" d="M128.4,36.7c0.1,0,0.2,0,0.2,0c0,3.8,0,7.7,0,11.5c0,0.4,0.2,0.9-0.2,1.3C128.4,45.3,128.4,41,128.4,36.7z"/>
	<path class="st6" d="M122.2,46.3c0.2,0,0.4,0,0.5,0.1c0.2,0.2-0.1,0.2-0.2,0.3c-0.7,0.2-1.4,0.1-2.2,0.1c0,0-0.1-0.1-0.1-0.1
		c0,0,0-0.1,0-0.1C120.9,46.2,121.6,46.7,122.2,46.3z"/>
	<path class="st43" d="M122.2,46.3c-0.6,0.5-1.3,0.1-2,0.2c0.2-0.3,0.5-0.2,0.8-0.3c0.1,0,0.2,0,0.4,0
		C121.7,46.3,122,46.3,122.2,46.3z"/>
	<path class="st44" d="M128.1,24.7c-1.9,0-3.2-1.3-3.2-3.1c0-1.8,1.3-3.1,3.1-3.1c1.9,0,3.2,1.3,3.3,3.1
		C131.3,23.4,130,24.7,128.1,24.7z"/>
	<path class="st45" d="M147.8,20.5c0,3.2,0,6.3,0,9.5c0,0-0.1,0-0.1,0c0-3.2,0-6.3,0-9.5C147.8,20.5,147.8,20.5,147.8,20.5z"/>
	<path class="st46" d="M141.8,28.4c-0.4-0.3-0.3-0.7-0.3-1.1c0-2,0-4,0.3-6C141.8,23.7,141.8,26.1,141.8,28.4
		C141.8,28.4,141.8,28.4,141.8,28.4z"/>
	<path class="st47" d="M163.9,41.1c-1.7,0-3.4,0-5,0c-0.7,0-0.7-0.3-0.4-0.8c0.5-1,1.7-1.6,3-1.4C162.7,39.1,163.6,39.8,163.9,41.1z
		"/>
	<path class="st39" d="M158.6,41.5c1.7,0,3.4,0,5.1,0c0,0,0,0.1,0,0.1c-1.7,0-3.4,0-5.1,0C158.6,41.6,158.6,41.5,158.6,41.5z"/>
	<path class="st48" d="M144.9,49.5c-0.2,0-0.3-0.1-0.3-0.3c0-2.8,0.1-5.6,0.1-8.4c0-0.4,0-0.8,0.5-0.9c0,0,0,0,0,0
		c-0.1,0.3-0.2,0.5-0.3,0.8C145.1,43.6,145.1,46.6,144.9,49.5z"/>
	<path class="st49" d="M144.9,49.5c0-2.9,0-5.9,0-8.8c0.1,0.1,0.2,0.3,0.2,0.4c0,2.8,0,5.6,0,8.4c0,0-0.1,0.1-0.1,0.1
		C145,49.6,145,49.5,144.9,49.5z"/>
	<path class="st39" d="M140.7,49.8c0-2.6,0-5.2,0-7.8C140.8,44.6,141.3,47.2,140.7,49.8C140.7,49.8,140.7,49.8,140.7,49.8z"/>
	<path class="st48" d="M135.3,49.5c-0.2,0-0.3,0-0.5-0.1c0.5-2.4,0-4.8,0.3-7.1c0-0.1,0.1-0.1,0.2-0.2
		C135.5,44.6,135.5,47.1,135.3,49.5z"/>
	<path class="st50" d="M135.3,49.5c0-2.5,0-4.9,0-7.4c0.1-0.1,0.2,0,0.2,0.1c0,2.4,0,4.7,0,7.1c0,0,0,0.1,0,0.1
		C135.5,49.5,135.4,49.5,135.3,49.5z"/>
	<path class="st51" d="M88.5,36.2c0.4-0.2,0.8-0.2,1.5,0C89.2,36.2,88.9,36.2,88.5,36.2z"/>
	<path class="st52" d="M89.7,46.8c0.5,0,1,0,1.5,0C90.7,47.2,90.2,47.2,89.7,46.8z"/>
	<path class="st53" d="M107.2,15.1c0,0.3,0,0.6,0,1c0,2.2,0,2.2-2.2,2.2c0.2-0.2,0.4-0.3,0.7-0.2c1.1,0.2,1.3-0.3,1.4-1.4
		c0.1-1.5-0.8-1.4-1.7-1.6C105.9,15.1,106.5,15.1,107.2,15.1z"/>
	<path class="st42" d="M170.4,30.4c0.9,0,1.9,0,2.8,0c0.9-0.1,1.1,0.3,1.1,1.1c0,3.2,0,6.4,0,9.7c0,2.7,0,5.4,0,8.3
		c-0.3-0.6-0.2-1-0.2-1.4c0-5.3,0-10.6,0-15.9c0-1.1-0.2-1.7-1.5-1.5c-0.7,0.1-1.5,0-2.2,0C170.4,30.5,170.4,30.4,170.4,30.4z"/>
	<path class="st54" d="M148.1,49.5c-0.2,0-0.3,0-0.5,0c0-4.3,0-8.6,0-13c0-0.4-0.2-0.9,0.2-1.3c0,4.2,0,8.5,0,12.7
		C147.9,48.5,147.8,49,148.1,49.5z"/>
	<path class="st14" d="M148.9,35.8c0.5,0,1,0,1.4,0c0,0.1,0,0.2,0,0.2c-0.5,0-1,0-1.4,0C148.9,35.9,148.9,35.8,148.9,35.8z"/>
	<path class="st11" d="M100,34.2c0.1-0.1,0.2,0,0.2,0c0,2.9,0,5.7,0,8.6c0,1.9,0,1.9,1.7,2.2c-2,0.3-2,0.3-2-1.6
		C100,40.4,100,37.3,100,34.2z"/>
</g>
</svg>
