<?xml version="1.0" encoding="utf-8"?>
<!-- Generator: Adobe Illustrator 28.0.0, SVG Export Plug-In . SVG Version: 6.00 Build 0)  -->
<svg version="1.1" id="Capa_1" xmlns="http://www.w3.org/2000/svg" xmlns:xlink="http://www.w3.org/1999/xlink" x="0px" y="0px"
	 viewBox="0 0 326 103" style="enable-background:new 0 0 326 103;" xml:space="preserve">
<style type="text/css">
	.st0{fill:#202A4C;}
	.st1{fill:#95A5AF;}
	.st2{fill:#36B4A3;}
</style>
<g>
	<path class="st0" d="M110.6,35H97.3l6.6-22.3L110.6,35z M124.5,54.2L111.2,9.8l-7.2,0l-7.2,0L83.4,54.2h8.2l3.7-12.4h17.3l3.7,12.4
		H124.5z M149.5,38.8c0,5.3-4.2,9.6-9.4,9.6c-5.2,0-9.4-4.3-9.4-9.6c0-5.3,4.2-9.6,9.4-9.6C145.3,29.3,149.5,33.6,149.5,38.8
		 M156.4,38.8c0-9.1-7.3-16.5-16.3-16.5c-9,0-16.3,7.4-16.3,16.5c0,8.1,5.8,14.9,13.4,16.2c0,0,0,0,0,0c0.2,0.7,0.5,1.4,0.9,2.1
		c0,0,0,0,0,0c0.1,0.3,0.3,0.5,0.4,0.8c0.1,0.1,0.1,0.2,0.2,0.3c0.2,0.2,0.3,0.5,0.5,0.7c0.1,0.1,0.2,0.2,0.2,0.3
		c0.2,0.2,0.3,0.4,0.5,0.7c0.1,0.1,0.1,0.2,0.2,0.2c0.3,0.4,0.7,0.7,1.1,1.1c0.1,0.1,0.2,0.2,0.4,0.3c0.2,0.1,0.3,0.3,0.5,0.4
		c0.2,0.1,0.3,0.3,0.5,0.4c0.2,0.1,0.3,0.2,0.5,0.4c0.2,0.1,0.4,0.2,0.6,0.4c0.2,0.1,0.3,0.2,0.5,0.3c0.3,0.2,0.6,0.3,0.9,0.5
		c0.1,0.1,0.2,0.1,0.4,0.2c0.3,0.1,0.7,0.3,1,0.4c0.1,0,0.3,0.1,0.4,0.1c0.3,0.1,0.6,0.2,0.8,0.2c0.2,0,0.3,0.1,0.5,0.1
		c0.3,0.1,0.6,0.1,0.9,0.1c0.1,0,0.3,0,0.4,0.1c0.4,0,0.9,0.1,1.3,0.1v-6.9c-0.3,0-0.6,0-0.9-0.1c-0.1,0-0.2,0-0.3,0
		c-0.2,0-0.4-0.1-0.6-0.1c-0.1,0-0.2,0-0.3-0.1c-0.2-0.1-0.4-0.1-0.6-0.2c-0.1,0-0.1,0-0.2-0.1c-0.3-0.1-0.5-0.2-0.8-0.4
		c0,0,0,0,0,0c-0.2-0.1-0.5-0.3-0.7-0.5c0,0-0.1-0.1-0.1-0.1c-0.2-0.1-0.4-0.3-0.6-0.5c0,0-0.1-0.1-0.1-0.1
		c-0.2-0.2-0.4-0.4-0.6-0.6c0,0,0,0,0,0c-0.2-0.2-0.4-0.5-0.6-0.8C151.4,52.8,156.4,46.4,156.4,38.8 M179.6,54.2h7V24h-7.5v20.1
		c0,0-2,3.7-5.9,3.7c-3.8,0-5.9-1.9-5.9-6.4V24h-7.5v19.6c0,7.3,5.2,11.4,10.9,11.4c6.1,0,8.9-5.2,8.9-5.2V54.2z M212,36.3h-14.8
		c0.3-2.7,2.4-6.1,7.3-6.1C209.5,30.1,211.9,33.6,212,36.3 M219.5,41.8c0.1-1.1,0.1-2.3,0.1-2.9c0-9.3-6.8-15.7-15-15.7
		c-8.6,0-14.9,7-14.9,15.9c0,8.9,7,15.9,16,15.9c7.2,0,11.9-4.3,11.9-4.3l-3.8-5.7c0,0-2.9,3.1-8.2,3.1c-4.7,0-7.8-3.4-8.3-6.1
		H219.5z M230,32.7c0-1.8,2.6-2.9,5.4-2.9c4,0,7.4,2.6,7.4,2.6l3.8-5.6c0,0-4.5-3.7-11.2-3.7c-8.2,0-12.8,4.7-12.8,9.4
		c0,5.7,5.1,8.3,11,9.6c4.5,1,5.9,1.3,5.9,3.3c0,1.8-2.6,2.7-5.6,2.7c-5,0-9-4.3-9-4.3l-4.2,5.5c0,0,4.7,5.5,13.4,5.5
		c7.6,0,13-4.1,13-9.3c0-6.2-4.2-8.2-10.1-9.5C232,35,230,34.6,230,32.7 M262.6,43V30.8h7.3c0.2,0,0.5,0,0.7,0v0h0.9V24h-1.7
		c-3.8-0.4-6.8-3.7-6.8-7.7h-6.8c0,2.8,0.8,5.5,2.2,7.7h-3.4h-5.8v6.9h5.8v13.4c0,6.4,4.4,10.7,10.2,10.7c4.3,0,7.2-2,7.2-2
		l-2.8-6.2c0,0-1.4,1.1-3.1,1.1C264.5,47.8,262.6,46.7,262.6,43 M276.4,54.2h7.5V24h-7.5V54.2z M307.5,45c0,0-2.4,3.5-6.9,3.5
		c-2.3,0-5.4-0.7-5.4-3.9c0-3.2,3.2-4.3,5.5-4.3c4.1,0,6.8,1.5,6.8,1.5V45z M315,54.2V34.5c0-6.9-5-11.3-13.6-11.3
		c-6.2,0-11.7,2.7-11.7,2.7l2.4,6.3c0,0,4.6-2.2,8.9-2.2c2.6,0,6.4,1.3,6.4,5.2V37c0,0-2.8-2.2-8.3-2.2c-6.5,0-11.7,4.2-11.7,10
		c0,6.4,5.1,10.1,10.7,10.1c6.7,0,9.8-4.6,9.8-4.6v3.8H315z"/>
	<path class="st1" d="M49.8,11.4h-8.9c0,0.3,0,0.5,0,0.8c0,17.1,11.2,31.6,26.7,36.5v-9.5c-10.4-4.5-17.8-14.8-17.8-26.9
		C49.8,11.9,49.8,11.7,49.8,11.4"/>
	<path class="st0" d="M40.2,11.9c0-0.3,0-0.5,0-0.8h-8.9c0,0.3,0,0.5,0,0.8c0,12.2-7.5,22.7-18.2,27.1v9.5
		C28.7,43.8,40.2,29.2,40.2,11.9"/>
	<rect x="13.4" y="48.1" class="st2" width="53.7" height="8.8"/>
	<path class="st0" d="M171.3,80.7l3.9,9.2l3.1-7.4l3.1,7.4l3.9-9.2h-1l-2.8,6.9l-2.8-6.9h-0.6l-2.8,6.9l-2.9-6.9H171.3z M164.8,88.7
		c-2.2,0-3.4-1.7-3.4-3.7c0-2,1.2-3.7,3.4-3.7c2.2,0,3.4,1.7,3.4,3.7C168.2,87.1,167,88.7,164.8,88.7 M164.8,80.4
		c-2.6,0-4.5,2.1-4.5,4.7c0,2.6,1.9,4.7,4.5,4.7c2.6,0,4.5-2.1,4.5-4.7C169.3,82.5,167.4,80.4,164.8,80.4 M155.5,89.5h1V74.8h-1
		L155.5,89.5z M145.1,76.9h6.4v-1h-7.4v13.6h1V83h6v-0.9h-6V76.9z M126.1,84.6c0-1,0.9-3.1,3.3-3.1c2.3,0,3.2,2.1,3.2,3.1H126.1z
		 M129.4,80.4c-2.6,0-4.4,2.2-4.4,4.7c0,2.5,1.9,4.7,4.5,4.7c1.5,0,2.8-0.8,3.7-1.8l-0.7-0.7c-0.6,0.8-1.7,1.5-3,1.5
		c-2.3,0-3.4-1.9-3.5-3.3h7.6c0-0.2,0-0.2,0-0.4C133.7,82.4,131.8,80.4,129.4,80.4 M115.4,82.1v-7.3h-1v14.7h1v-6.1c0,0,0.8-2,2.7-2
		c1.4,0,2.5,0.8,2.5,2.6v5.5h1v-5.6c0-2.4-1.7-3.4-3.3-3.4C116.2,80.4,115.4,82.1,115.4,82.1 M104.6,81.6h1.9v5.5
		c0,1.5,0.8,2.6,2.5,2.6c0.9,0,1.7-0.5,1.7-0.5l-0.4-0.9c0,0-0.6,0.4-1.3,0.4c-1.2,0-1.5-0.8-1.5-1.8v-5.3h3v-0.9h-3v-2.9h-1v2.9
		h-1.9V81.6z M93.6,86.7c0,0-0.9,2.1-3.2,2.1c-2,0-3.3-1.6-3.3-3.7c0-2.1,1.4-3.7,3.3-3.7c2.3,0,3.2,2.1,3.2,2.1V86.7z M93.7,80.7
		v1.6c0,0-1-1.9-3.3-1.9c-2.4,0-4.4,1.9-4.4,4.7c0,2.8,1.9,4.7,4.4,4.7c2,0,2.9-1.3,3.2-1.7v1.7c0,2-1,3.5-3.3,3.5
		c-2.2,0-3.4-1.5-3.4-1.5l-0.7,0.7c0,0,1.5,1.8,4,1.8c2.6,0,4.3-1.7,4.3-4.5v-9.1H93.7z M79.3,80.4c-2.2,0-3,1.8-3,1.8v-1.6h-0.9
		v8.8h1v-6.1c0,0,0.8-2,2.7-2c1.4,0,2.5,0.8,2.5,2.6v5.5h1v-5.6C82.6,81.4,81,80.4,79.3,80.4 M69.7,77.8c0,0.4,0.3,0.8,0.8,0.8
		c0.4,0,0.8-0.3,0.8-0.8c0-0.4-0.3-0.8-0.8-0.8C70,77,69.7,77.4,69.7,77.8 M70,89.5h1v-8.8h-1V89.5z M60.2,81.6h1.9v5.5
		c0,1.5,0.8,2.6,2.5,2.6c0.9,0,1.7-0.5,1.7-0.5L66,88.3c0,0-0.6,0.4-1.3,0.4c-1.2,0-1.5-0.8-1.5-1.8v-5.3h3v-0.9h-3v-2.9h-1v2.9
		h-1.9V81.6z M54.2,88.7c-2.1,0-3.5-1.7-3.5-3.7c0-2,1.4-3.7,3.5-3.7c1.9,0,2.8,1.3,2.8,1.3l0.7-0.6c0,0-1.2-1.7-3.5-1.7
		c-2.6,0-4.6,2.1-4.6,4.7c0,2.6,1.9,4.7,4.6,4.7c2.4,0,3.6-1.8,3.6-1.8l-0.7-0.7C57.2,87.3,56.2,88.7,54.2,88.7 M39.4,84.6
		c0-1,0.9-3.1,3.3-3.1c2.3,0,3.2,2.1,3.2,3.1H39.4z M42.7,80.4c-2.6,0-4.4,2.2-4.4,4.7c0,2.5,1.9,4.7,4.5,4.7c1.5,0,2.8-0.8,3.7-1.8
		l-0.7-0.7c-0.6,0.8-1.7,1.5-3,1.5c-2.3,0-3.4-1.9-3.5-3.3h7.6c0-0.2,0-0.2,0-0.4C47,82.4,45,80.4,42.7,80.4 M35,80.4
		c-1.8,0-2.6,1.7-2.6,1.7v-1.4h-0.9v8.8h1v-6.4c0,0,0.7-1.7,2.2-1.7c0.8,0,1.2,0.2,1.2,0.2l0.4-1C36.4,80.7,35.9,80.4,35,80.4
		 M25.9,77.8c0,0.4,0.3,0.8,0.8,0.8c0.4,0,0.8-0.3,0.8-0.8c0-0.4-0.3-0.8-0.8-0.8C26.2,77,25.9,77.4,25.9,77.8 M26.1,89.5h1v-8.8h-1
		V89.5z M12.9,88.6V76.9h2.5c3.6,0,5.8,2.3,5.8,5.9c0,3.5-2.3,5.9-5.8,5.9H12.9z M11.9,75.9v13.6h3.7c3.9,0,6.7-2.9,6.7-6.8
		c0-3.9-2.8-6.8-6.7-6.8H11.9z"/>
</g>
</svg>
