<?xml version="1.0" encoding="utf-8"?>
<!-- Generator: Adobe Illustrator 28.0.0, SVG Export Plug-In . SVG Version: 6.00 Build 0)  -->
<svg version="1.1" id="Capa_1" xmlns="http://www.w3.org/2000/svg" xmlns:xlink="http://www.w3.org/1999/xlink" x="0px" y="0px"
	 viewBox="0 0 243 115" style="enable-background:new 0 0 243 115;" xml:space="preserve">
<style type="text/css">
	.st0{fill:#002D74;}
	
		.st1{clip-path:url(#SVGID_00000147184007003140636830000003060275754164094134_);fill:url(#SVGID_00000077289252998661373940000007572525985982487220_);}
	
		.st2{clip-path:url(#SVGID_00000143591809310082014720000000939003284900269749_);fill:url(#SVGID_00000015331549719248682410000000423388767185860774_);}
	
		.st3{clip-path:url(#SVGID_00000046298822432877578890000006299144367254064779_);fill:url(#SVGID_00000024720881290094839500000008569953042065226927_);}
	
		.st4{clip-path:url(#SVGID_00000002346789991393056210000002572472059220355505_);fill:url(#SVGID_00000151542518682809079930000013783715868927324336_);}
	
		.st5{clip-path:url(#SVGID_00000165220937563956107210000012128349488563000456_);fill:url(#SVGID_00000005239892615414006640000009061911972401459605_);}
	
		.st6{clip-path:url(#SVGID_00000145051341833928638510000004830059146080798347_);fill:url(#SVGID_00000140707376863006298660000017490734416758767013_);}
	
		.st7{clip-path:url(#SVGID_00000078009187597444048580000011330061861150802581_);fill:url(#SVGID_00000070805679767370321480000011829407205721992123_);}
	
		.st8{clip-path:url(#SVGID_00000070814222932655969490000006689360752072391067_);fill:url(#SVGID_00000145779058345050257760000011261072774802130604_);}
	
		.st9{clip-path:url(#SVGID_00000129890589885453090980000006697966123775594148_);fill:url(#SVGID_00000180355988925706020600000017991328929150441397_);}
	
		.st10{clip-path:url(#SVGID_00000003805307392036325350000011453412970866988435_);fill:url(#SVGID_00000052805455447847223280000001131585862646505620_);}
	
		.st11{clip-path:url(#SVGID_00000083082040302520383060000011775339439313846152_);fill:url(#SVGID_00000122001879437305945110000017440984151911646600_);}
	
		.st12{clip-path:url(#SVGID_00000016069330074344397850000009131751909514388918_);fill:url(#SVGID_00000013905829657377200290000016017988773278025655_);}
</style>
<g>
	<g>
		<path class="st0" d="M111.8,89.8v-7.4h2.3c3.2,0,6.8,0.1,6.8,3.4c0,3.5-3.4,3.9-7.5,3.9H111.8 M111.8,93.8h3l9,10.8h9.4l-11-11.7
			c2.3-0.7,7.1-2.1,7.1-7.1c0-7.2-9.7-7.4-14.5-7.4h-10.1c-1.1,0-1.3,0.1-1.3,0.8v25.4c0,0,0.3,0,1.3,0h5.8l1.3,0V93.8z"/>
		<path class="st0" d="M176.9,101.3c-4.7,0-6.7-3.8-6.7-9.7c0-6,2-9.8,6.7-9.8c4.7,0,6.7,3.8,6.7,9.8
			C183.5,97.5,181.5,101.3,176.9,101.3 M192.4,91.6c0-9.3-5.9-13.8-15.5-13.8c-9.6,0-15.5,4.5-15.5,13.8c0,9.3,5.9,13.8,15.5,13.8
			C186.5,105.3,192.4,100.8,192.4,91.6"/>
		<path class="st0" d="M84.3,93h11.8v-4.1H84.3v-6.3h13.2l1.8-4.1H77.2h-0.1c-0.9,0-1.2,0.1-1.2,0.6v25.6l23.1,0v-0.8v-2.5l0-0.8
			H84.3V93z"/>
		<path class="st0" d="M224.1,78.4h-4.6l-1.3,0c0,0,0.2,15.8,0.2,17.1l-14.1-16.6c-0.4-0.4-0.5-0.5-1.4-0.5h-5.1l-0.1,0
			c-0.8,0-1.1,0.1-1.2,0.6v25.7c0,0,0.3,0,1.3,0h4.6c1.1,0,1.3,0,1.3,0V90.1c0-1.8-0.1-2.9-0.1-3.4c0,0,14.4,16.8,15,17.5
			c0.6,0.6,1.4,0.5,1.4,0.5h4.1l1.3,0V78.4L224.1,78.4z"/>
		<path class="st0" d="M15.9,93h11.8v-4.1H15.9v-6.3H29l1.8-4.1H8.8H8.7c-0.9,0-1.2,0.1-1.2,0.7v25.5l23.1,0v-0.8v-2.5l0-0.8H15.9
			V93z"/>
		<path class="st0" d="M52.9,94.7l-10-15.6c-0.4-0.4-0.5-0.5-1.4-0.5h-5.1l-1.3,0v26.2c0,0,0.3,0,1.3,0h4.6c1.1,0,1.3,0,1.3,0V90.3
			c0-1.8,0-2.4,0-2.9c0,0,9.9,15.8,10.9,16.9H53c1-1.1,10.4-16.9,10.4-16.9c0,0.5-0.1,1.2-0.1,2.9v14.6c0,0,0.2,0,1.3,0h4.6
			c1.1,0,1.3,0,1.3,0V78.6l-1.3,0h-5.1c-0.9,0-1.1,0.1-1.4,0.5l-9.5,15.6H52.9z"/>
		<path class="st0" d="M154.4,90.5c-5.2-2.5-12.3-2.7-12.3-5.6c0-2.3,2.3-3,5-3c4.2,0,7.9,1.7,8.3,1.7c0.2,0,0.5-0.2,0.6-0.4
			l0.4-0.5l2.1-2.7c0,0,0,0,0,0s0,0-0.1,0c-0.1-0.1-0.5-0.2-1-0.4c-0.4-0.2-0.7-0.3-0.8-0.3c-2.1-0.7-6-1.5-9.8-1.5
			c-6.9,0-13,2.3-13,7.8c0,3.2,1.5,5.2,4.6,6.4c6,2.4,12.1,2.2,12.1,5.6c0,2.4-1.5,3.5-4.8,3.5c-5.1,0-9.4-1.7-9.8-1.7
			c-0.2,0-0.5,0.2-0.6,0.4l-0.6,1.2l-1.1,2.1l0.9,0.3c1.9,0.7,6.8,1.8,11.5,1.8c7.4,0,12.9-2.4,12.7-8.1
			C158.7,94.3,157.4,92,154.4,90.5"/>
	</g>
	<g>
		<defs>
			<path id="SVGID_1_" d="M130,50.4C130,50.4,130,50.4,130,50.4L130,50.4z"/>
		</defs>
		<clipPath id="SVGID_00000073720826018850217680000013130973688818141589_">
			<use xlink:href="#SVGID_1_"  style="overflow:visible;"/>
		</clipPath>
		
			<linearGradient id="SVGID_00000150794148873152106320000009870527754263389325_" gradientUnits="userSpaceOnUse" x1="129.9785" y1="50.4104" x2="130.0229" y2="50.4104" gradientTransform="matrix(5.000000e-04 3.000000e-04 2.000000e-04 -3.000000e-04 446.9235 355.2725)">
			<stop  offset="0" style="stop-color:#8C9091"/>
			<stop  offset="0.1035" style="stop-color:#999C9D"/>
			<stop  offset="0.2941" style="stop-color:#BBBDBD"/>
			<stop  offset="0.5" style="stop-color:#E6E7E7"/>
			<stop  offset="0.5915" style="stop-color:#DDDEDF"/>
			<stop  offset="0.7406" style="stop-color:#C5C7C7"/>
			<stop  offset="0.9279" style="stop-color:#9EA0A1"/>
			<stop  offset="1" style="stop-color:#8C9091"/>
		</linearGradient>
		
			<polygon style="clip-path:url(#SVGID_00000073720826018850217680000013130973688818141589_);fill:url(#SVGID_00000150794148873152106320000009870527754263389325_);" points="
			130,50.4 130,50.4 130,50.4 130,50.4 		"/>
	</g>
	<g>
		<defs>
			<path id="SVGID_00000070811074724376880260000006642729526853504684_" d="M109,23.1c0,0.1-0.1,0.2,0,0.4c0.1,0.3,0.4,0.8,0.8,1.3
				l0.2,0.2l9.4,11.5l0.1,0.1l9.1,11.2c1.7,2,1.7,2.4,1.5,2.7l3.3-5.6c0.1-0.3-0.3-0.8-0.8-1.5l-0.2-0.2l-9.4-11.5l-0.1-0.1
				l-9.1-11.2c-1.7-2.1-1.6-2.5-1.5-2.7L109,23.1z"/>
		</defs>
		<clipPath id="SVGID_00000163074461855538886590000001163529097183972747_">
			<use xlink:href="#SVGID_00000070811074724376880260000006642729526853504684_"  style="overflow:visible;"/>
		</clipPath>
		
			<linearGradient id="SVGID_00000150088055655192677480000010129059085410848671_" gradientUnits="userSpaceOnUse" x1="-309.6499" y1="445.1414" x2="-306.8047" y2="445.1414" gradientTransform="matrix(9.7439 5.6906 3.8954 -6.6717 1390.3594 4757.7539)">
			<stop  offset="0" style="stop-color:#8C9091"/>
			<stop  offset="0.1035" style="stop-color:#999C9D"/>
			<stop  offset="0.2941" style="stop-color:#BBBDBD"/>
			<stop  offset="0.5" style="stop-color:#E6E7E7"/>
			<stop  offset="0.5915" style="stop-color:#DDDEDF"/>
			<stop  offset="0.7406" style="stop-color:#C5C7C7"/>
			<stop  offset="0.9279" style="stop-color:#9EA0A1"/>
			<stop  offset="1" style="stop-color:#8C9091"/>
		</linearGradient>
		
			<polygon style="clip-path:url(#SVGID_00000163074461855538886590000001163529097183972747_);fill:url(#SVGID_00000150088055655192677480000010129059085410848671_);" points="
			115.1,6.9 147.8,25.9 127.2,61.1 94.6,42.1 		"/>
	</g>
	<g>
		<defs>
			<path id="SVGID_00000008135502924660876950000009495071104351192749_" d="M113.6,15.2c0,0.1-0.1,0.2,0,0.4
				c0.1,0.3,0.4,0.8,0.8,1.3l0.2,0.2l9.4,11.5l0.1,0.1l9.1,11.2c1.7,2,1.7,2.4,1.5,2.7l3.3-5.6c0.1-0.3-0.3-0.8-0.8-1.5l-0.2-0.2
				l-9.4-11.5l0-0.1l-9.1-11.2c-1.8-2.1-1.6-2.5-1.5-2.7L113.6,15.2z"/>
		</defs>
		<clipPath id="SVGID_00000098941404982782331830000003008658017101410488_">
			<use xlink:href="#SVGID_00000008135502924660876950000009495071104351192749_"  style="overflow:visible;"/>
		</clipPath>
		
			<linearGradient id="SVGID_00000155144017086086060750000001281760265131575946_" gradientUnits="userSpaceOnUse" x1="-307.091" y1="440.5365" x2="-304.2464" y2="440.5365" gradientTransform="matrix(10.4399 6.0971 6.0971 -10.4399 630.9967 6488.936)">
			<stop  offset="0" style="stop-color:#8C9091"/>
			<stop  offset="0.1035" style="stop-color:#999C9D"/>
			<stop  offset="0.2941" style="stop-color:#BBBDBD"/>
			<stop  offset="0.5" style="stop-color:#E6E7E7"/>
			<stop  offset="0.5915" style="stop-color:#DDDEDF"/>
			<stop  offset="0.7406" style="stop-color:#C5C7C7"/>
			<stop  offset="0.9279" style="stop-color:#9EA0A1"/>
			<stop  offset="1" style="stop-color:#8C9091"/>
		</linearGradient>
		
			<polygon style="clip-path:url(#SVGID_00000098941404982782331830000003008658017101410488_);fill:url(#SVGID_00000155144017086086060750000001281760265131575946_);" points="
			119.8,-1 152.4,18 131.9,53.2 99.3,34.2 		"/>
	</g>
	<g>
		<defs>
			<path id="SVGID_00000076566365131048850930000000314681298707943840_" d="M134.7,42.5L134.7,42.5
				C134.7,42.5,134.7,42.5,134.7,42.5"/>
		</defs>
		<clipPath id="SVGID_00000074443572181459735300000010637795197841998754_">
			<use xlink:href="#SVGID_00000076566365131048850930000000314681298707943840_"  style="overflow:visible;"/>
		</clipPath>
		
			<linearGradient id="SVGID_00000018943178804640760270000015598899458031733640_" gradientUnits="userSpaceOnUse" x1="134.6625" y1="42.5113" x2="134.707" y2="42.5113" gradientTransform="matrix(5.000000e-04 3.000000e-04 2.000000e-04 -4.000000e-04 447.7155 351.7315)">
			<stop  offset="0" style="stop-color:#8C9091"/>
			<stop  offset="0.1035" style="stop-color:#999C9D"/>
			<stop  offset="0.2941" style="stop-color:#BBBDBD"/>
			<stop  offset="0.5" style="stop-color:#E6E7E7"/>
			<stop  offset="0.5915" style="stop-color:#DDDEDF"/>
			<stop  offset="0.7406" style="stop-color:#C5C7C7"/>
			<stop  offset="0.9279" style="stop-color:#9EA0A1"/>
			<stop  offset="1" style="stop-color:#8C9091"/>
		</linearGradient>
		
			<polygon style="clip-path:url(#SVGID_00000074443572181459735300000010637795197841998754_);fill:url(#SVGID_00000018943178804640760270000015598899458031733640_);" points="
			134.7,42.5 134.7,42.5 134.7,42.5 134.7,42.5 		"/>
	</g>
	<g>
		<defs>
			<path id="SVGID_00000072961321154048689310000000820018964158358432_" d="M99.6,39c-0.2,0.3,0.2,0.9,0.8,1.6l0.2,0.2l9.4,11.5
				l0.1,0.1l9.1,11.2c1.7,2,1.7,2.4,1.5,2.7l3.3-5.5c0-0.1,0.1-0.2,0-0.4c-0.1-0.3-0.4-0.7-0.8-1.2l-0.2-0.2l-9.4-11.5l-0.1-0.1
				l-9.1-11.2c-1.8-2.1-1.6-2.5-1.5-2.7L99.6,39z"/>
		</defs>
		<clipPath id="SVGID_00000023249692534833388460000009509567118516981913_">
			<use xlink:href="#SVGID_00000072961321154048689310000000820018964158358432_"  style="overflow:visible;"/>
		</clipPath>
		
			<linearGradient id="SVGID_00000145780160056375244640000009783547599161834410_" gradientUnits="userSpaceOnUse" x1="-309.6594" y1="443.5986" x2="-306.8144" y2="443.5986" gradientTransform="matrix(9.744 5.6907 3.8954 -6.6718 1387.1426 4763.4551)">
			<stop  offset="0" style="stop-color:#8C9091"/>
			<stop  offset="0.1035" style="stop-color:#999C9D"/>
			<stop  offset="0.2941" style="stop-color:#BBBDBD"/>
			<stop  offset="0.5" style="stop-color:#E6E7E7"/>
			<stop  offset="0.5915" style="stop-color:#DDDEDF"/>
			<stop  offset="0.7406" style="stop-color:#C5C7C7"/>
			<stop  offset="0.9279" style="stop-color:#9EA0A1"/>
			<stop  offset="1" style="stop-color:#8C9091"/>
		</linearGradient>
		
			<polygon style="clip-path:url(#SVGID_00000023249692534833388460000009509567118516981913_);fill:url(#SVGID_00000145780160056375244640000009783547599161834410_);" points="
			105.7,22.7 138.3,41.7 117.8,76.9 85.1,57.9 		"/>
	</g>
	<g>
		<defs>
			<path id="SVGID_00000054229231702958758850000012212875062406700203_" d="M120.6,66.2L120.6,66.2
				C120.6,66.2,120.6,66.2,120.6,66.2 M120.6,66.2C120.6,66.2,120.7,66.2,120.6,66.2L120.6,66.2z"/>
		</defs>
		<clipPath id="SVGID_00000111906428592596232840000017830017212499157141_">
			<use xlink:href="#SVGID_00000054229231702958758850000012212875062406700203_"  style="overflow:visible;"/>
		</clipPath>
		
			<linearGradient id="SVGID_00000139256799912907596400000016357844241026709391_" gradientUnits="userSpaceOnUse" x1="120.6215" y1="66.2054" x2="120.669" y2="66.2054" gradientTransform="matrix(2.000000e-04 1.000000e-04 1.000000e-04 -1.000000e-04 443.4569 360.46)">
			<stop  offset="0" style="stop-color:#8C9091"/>
			<stop  offset="0.1035" style="stop-color:#999C9D"/>
			<stop  offset="0.2941" style="stop-color:#BBBDBD"/>
			<stop  offset="0.5" style="stop-color:#E6E7E7"/>
			<stop  offset="0.5915" style="stop-color:#DDDEDF"/>
			<stop  offset="0.7406" style="stop-color:#C5C7C7"/>
			<stop  offset="0.9279" style="stop-color:#9EA0A1"/>
			<stop  offset="1" style="stop-color:#8C9091"/>
		</linearGradient>
		
			<polygon style="clip-path:url(#SVGID_00000111906428592596232840000017830017212499157141_);fill:url(#SVGID_00000139256799912907596400000016357844241026709391_);" points="
			120.6,66.2 120.7,66.2 120.7,66.2 120.6,66.2 		"/>
	</g>
	<g>
		<defs>
			<path id="SVGID_00000097491425916649093280000011696576805861804441_" d="M116,74.1C116,74.1,116,74.1,116,74.1L116,74.1z"/>
		</defs>
		<clipPath id="SVGID_00000170253180533276576840000011895988656745027464_">
			<use xlink:href="#SVGID_00000097491425916649093280000011696576805861804441_"  style="overflow:visible;"/>
		</clipPath>
		
			<linearGradient id="SVGID_00000063633450058918860360000012724090586493195674_" gradientUnits="userSpaceOnUse" x1="115.9405" y1="74.1029" x2="115.9882" y2="74.1029" gradientTransform="matrix(2.000000e-04 1.000000e-04 1.000000e-04 -1.000000e-04 441.8114 363.2363)">
			<stop  offset="0" style="stop-color:#8C9091"/>
			<stop  offset="0.1035" style="stop-color:#999C9D"/>
			<stop  offset="0.2941" style="stop-color:#BBBDBD"/>
			<stop  offset="0.5" style="stop-color:#E6E7E7"/>
			<stop  offset="0.5915" style="stop-color:#DDDEDF"/>
			<stop  offset="0.7406" style="stop-color:#C5C7C7"/>
			<stop  offset="0.9279" style="stop-color:#9EA0A1"/>
			<stop  offset="1" style="stop-color:#8C9091"/>
		</linearGradient>
		
			<polygon style="clip-path:url(#SVGID_00000170253180533276576840000011895988656745027464_);fill:url(#SVGID_00000063633450058918860360000012724090586493195674_);" points="
			116,74.1 116,74.1 116,74.1 115.9,74.1 		"/>
	</g>
	<g>
		<defs>
			<path id="SVGID_00000093171107760596516190000002194895093079057563_" d="M94.9,46.9c-0.1,0.3,0.2,0.9,0.8,1.6l0.2,0.2l9.4,11.5
				l0.1,0.1l9.1,11.2c1.7,2,1.7,2.4,1.5,2.7l3.3-5.5c0,0,0.1-0.2,0-0.4c-0.1-0.3-0.4-0.7-0.8-1.2l-0.2-0.2l-9.4-11.5l-0.1-0.1
				L99.7,44c-1.8-2.1-1.6-2.5-1.5-2.7L94.9,46.9z"/>
		</defs>
		<clipPath id="SVGID_00000004528215551553473470000007005529909844592544_">
			<use xlink:href="#SVGID_00000093171107760596516190000002194895093079057563_"  style="overflow:visible;"/>
		</clipPath>
		
			<linearGradient id="SVGID_00000035492112887248985230000016520896592267300247_" gradientUnits="userSpaceOnUse" x1="-309.6125" y1="442.8614" x2="-306.7688" y2="442.8614" gradientTransform="matrix(9.7439 5.6906 3.8953 -6.6717 1384.8654 4766.0723)">
			<stop  offset="0" style="stop-color:#8C9091"/>
			<stop  offset="0.1035" style="stop-color:#999C9D"/>
			<stop  offset="0.2941" style="stop-color:#BBBDBD"/>
			<stop  offset="0.5" style="stop-color:#E6E7E7"/>
			<stop  offset="0.5915" style="stop-color:#DDDEDF"/>
			<stop  offset="0.7406" style="stop-color:#C5C7C7"/>
			<stop  offset="0.9279" style="stop-color:#9EA0A1"/>
			<stop  offset="1" style="stop-color:#8C9091"/>
		</linearGradient>
		
			<polygon style="clip-path:url(#SVGID_00000004528215551553473470000007005529909844592544_);fill:url(#SVGID_00000035492112887248985230000016520896592267300247_);" points="
			101,30.6 133.6,49.6 113.1,84.8 80.5,65.7 		"/>
	</g>
	<g>
		<defs>
			<path id="SVGID_00000099621130303666239460000000162237152831674263_" d="M125.3,58.3L125.3,58.3
				C125.3,58.3,125.3,58.3,125.3,58.3 M125.3,58.3L125.3,58.3C125.3,58.3,125.3,58.3,125.3,58.3 M104.3,31.1
				c-0.2,0.3,0.2,0.9,0.8,1.6l0.2,0.2l9.4,11.5l0.1,0.1l9.1,11.2c1.7,2,1.7,2.4,1.6,2.7l3.3-5.6c0.1-0.3-0.2-0.8-0.8-1.5l-0.2-0.2
				l-9.4-11.5l-0.1-0.1l-9.1-11.2c-1.7-2.1-1.6-2.5-1.5-2.7L104.3,31.1z"/>
		</defs>
		<clipPath id="SVGID_00000170275408002569427380000009150230870759378856_">
			<use xlink:href="#SVGID_00000099621130303666239460000000162237152831674263_"  style="overflow:visible;"/>
		</clipPath>
		
			<linearGradient id="SVGID_00000086660548308431231250000015930742360883539077_" gradientUnits="userSpaceOnUse" x1="-309.7003" y1="444.4441" x2="-306.855" y2="444.4441" gradientTransform="matrix(9.744 5.6907 3.8954 -6.6717 1388.9082 4761.3633)">
			<stop  offset="0" style="stop-color:#8C9091"/>
			<stop  offset="0.1035" style="stop-color:#999C9D"/>
			<stop  offset="0.2941" style="stop-color:#BBBDBD"/>
			<stop  offset="0.5" style="stop-color:#E6E7E7"/>
			<stop  offset="0.5915" style="stop-color:#DDDEDF"/>
			<stop  offset="0.7406" style="stop-color:#C5C7C7"/>
			<stop  offset="0.9279" style="stop-color:#9EA0A1"/>
			<stop  offset="1" style="stop-color:#8C9091"/>
		</linearGradient>
		
			<polygon style="clip-path:url(#SVGID_00000170275408002569427380000009150230870759378856_);fill:url(#SVGID_00000086660548308431231250000015930742360883539077_);" points="
			110.4,14.7 143.1,33.8 122.5,69.1 89.8,50 		"/>
	</g>
	<g>
		<defs>
			<path id="SVGID_00000042709425301279600680000000505077263308773515_" d="M98.2,41.3c0,0-0.1,0.1-0.1,0.1l-3.3,5.5
				c0.1-0.2,0.5-0.5,2.9,0.5l12.6,5.2l0.1,0l13,5.4l0.2,0.1c0.4,0.1,1.3,0.4,1.7,0.2c0,0,0.1-0.1,0.2-0.2l3.2-5.4
				c-0.1,0.2-0.5,0.5-2.9-0.5L113.1,47l-0.1,0l-13-5.4l-0.2-0.1c-0.3-0.1-0.9-0.3-1.3-0.3C98.5,41.2,98.3,41.2,98.2,41.3"/>
		</defs>
		<clipPath id="SVGID_00000026124115019954457300000018161641504705581470_">
			<use xlink:href="#SVGID_00000042709425301279600680000000505077263308773515_"  style="overflow:visible;"/>
		</clipPath>
		
			<linearGradient id="SVGID_00000146484326849896974950000000638310100412062615_" gradientUnits="userSpaceOnUse" x1="-306.9528" y1="439.0012" x2="-304.1092" y2="439.0012" gradientTransform="matrix(10.4753 6.1188 6.1188 -10.4753 626.1043 6518.0298)">
			<stop  offset="0" style="stop-color:#002D74"/>
			<stop  offset="0.2022" style="stop-color:#002D74"/>
			<stop  offset="0.4407" style="stop-color:#6778A9"/>
			<stop  offset="0.5056" style="stop-color:#848DB7"/>
			<stop  offset="0.8034" style="stop-color:#002D74"/>
			<stop  offset="1" style="stop-color:#002D74"/>
		</linearGradient>
		
			<polygon style="clip-path:url(#SVGID_00000026124115019954457300000018161641504705581470_);fill:url(#SVGID_00000146484326849896974950000000638310100412062615_);" points="
			103.5,26.5 136.2,45.6 120.1,73.3 87.3,54.2 		"/>
	</g>
	<g>
		<defs>
			<path id="SVGID_00000150085803988676216370000011668311395392427176_" d="M102.9,33.4c0,0-0.1,0.1-0.1,0.1L99.6,39
				c0.1-0.2,0.5-0.5,2.9,0.5l12.6,5.2l0.1,0l13,5.4l0.2,0.1c0.4,0.1,1.3,0.4,1.6,0.2c0,0,0.1-0.1,0.2-0.2l3.2-5.4
				c-0.1,0.2-0.5,0.5-2.9-0.5l-12.6-5.2l-0.1,0l-13-5.4l-0.2-0.1c-0.3-0.1-0.8-0.3-1.3-0.3C103.2,33.3,103,33.3,102.9,33.4"/>
		</defs>
		<clipPath id="SVGID_00000087387787124834903360000000089566795026947473_">
			<use xlink:href="#SVGID_00000150085803988676216370000011668311395392427176_"  style="overflow:visible;"/>
		</clipPath>
		
			<linearGradient id="SVGID_00000151535220302336450580000004501963837539774357_" gradientUnits="userSpaceOnUse" x1="-307.0013" y1="439.495" x2="-304.1575" y2="439.495" gradientTransform="matrix(10.4754 6.1189 6.1189 -10.4754 628.2722 6515.6821)">
			<stop  offset="0" style="stop-color:#002D74"/>
			<stop  offset="0.2022" style="stop-color:#002D74"/>
			<stop  offset="0.4407" style="stop-color:#6778A9"/>
			<stop  offset="0.5056" style="stop-color:#848DB7"/>
			<stop  offset="0.8034" style="stop-color:#002D74"/>
			<stop  offset="1" style="stop-color:#002D74"/>
		</linearGradient>
		
			<polygon style="clip-path:url(#SVGID_00000087387787124834903360000000089566795026947473_);fill:url(#SVGID_00000151535220302336450580000004501963837539774357_);" points="
			108.1,18.6 140.9,37.7 124.7,65.4 92,46.3 		"/>
	</g>
	<g>
		<defs>
			<path id="SVGID_00000121262593414536963980000018022475428468877495_" d="M107.6,25.5c0,0-0.1,0.1-0.1,0.1l-3.3,5.5
				c0.1-0.2,0.5-0.5,2.9,0.5l12.6,5.2l0.1,0l13,5.4l0.2,0.1c0.4,0.1,1.3,0.4,1.7,0.2c0,0,0.1-0.1,0.2-0.2L138,37
				c-0.1,0.2-0.6,0.5-2.9-0.5l-12.6-5.2l-0.1,0l-13-5.4l-0.2-0.1c-0.3-0.1-0.9-0.3-1.3-0.3C107.8,25.4,107.7,25.4,107.6,25.5"/>
		</defs>
		<clipPath id="SVGID_00000129899651123367925870000017060276509198195390_">
			<use xlink:href="#SVGID_00000121262593414536963980000018022475428468877495_"  style="overflow:visible;"/>
		</clipPath>
		
			<linearGradient id="SVGID_00000039131453874323147240000008380034202261043366_" gradientUnits="userSpaceOnUse" x1="-306.948" y1="439.9828" x2="-304.1046" y2="439.9828" gradientTransform="matrix(10.4753 6.1188 6.1188 -10.4753 629.3934 6512.479)">
			<stop  offset="0" style="stop-color:#002D74"/>
			<stop  offset="0.2022" style="stop-color:#002D74"/>
			<stop  offset="0.4407" style="stop-color:#6778A9"/>
			<stop  offset="0.5056" style="stop-color:#848DB7"/>
			<stop  offset="0.8034" style="stop-color:#002D74"/>
			<stop  offset="1" style="stop-color:#002D74"/>
		</linearGradient>
		
			<polygon style="clip-path:url(#SVGID_00000129899651123367925870000017060276509198195390_);fill:url(#SVGID_00000039131453874323147240000008380034202261043366_);" points="
			112.8,10.7 145.6,29.8 129.4,57.5 96.7,38.4 		"/>
	</g>
	<polygon class="st0" points="228.6,101.4 228.6,101.7 229.7,101.7 229.7,104.7 230.2,104.7 230.2,101.7 231.4,101.7 231.4,101.4 	
		"/>
	<polygon class="st0" points="235.1,104.7 235.1,101.7 233.9,104.7 233.5,104.7 232.3,101.7 232.3,104.7 231.9,104.7 231.9,101.4 
		232.6,101.4 233.8,104.2 234.9,101.4 235.6,101.4 235.6,104.7 	"/>
</g>
</svg>
