<?xml version="1.0" encoding="utf-8"?>
<!-- Generator: Adobe Illustrator 28.0.0, SVG Export Plug-In . SVG Version: 6.00 Build 0)  -->
<svg version="1.1" id="Capa_1" xmlns="http://www.w3.org/2000/svg" xmlns:xlink="http://www.w3.org/1999/xlink" x="0px" y="0px"
	 viewBox="0 0 199.2 47.9" style="enable-background:new 0 0 199.2 47.9;" xml:space="preserve">
<style type="text/css">
	.st0{fill:#5A5459;}
	.st1{fill:#0071B9;}
</style>
<g id="Grupo_50" transform="translate(357.951 -13.121)">
	<g id="Grupo_6" transform="translate(104.725 78.121)">
		<g id="Grupo_5" transform="translate(0 0)">
			<path id="Trazado_9" class="st0" d="M-401.9-53.8v26.5h5.9v-15.5c1.5,1.4,19,15.6,19,15.6v-27.4h-5.9v15.5
				c-1.5-1.4-19-15.8-19-15.8L-401.9-53.8z"/>
			<path id="Trazado_10" class="st0" d="M-350.5-54.6h-21.1v27.3h21.1v-5.6h-15.2v-5.6h15.2v-5.6h-15.2V-49h15.2L-350.5-54.6
				L-350.5-54.6z"/>
			<path id="Trazado_11" class="st0" d="M-268.7-54.6h-21.1v27.3h21.1v-5.6h-15.2v-5.6h15.1v-5.6h-15.1V-49h15.2V-54.6L-268.7-54.6z
				"/>
			<path id="Trazado_12" class="st0" d="M-344.6-54.6h-0.5v27.3h15.5c5.1,0,8.6-3.3,8.6-8.1c0.1-2.8-1.6-5.4-4.2-6.5
				c1.7-1.1,2.8-3.1,2.7-5.2c0-5.2-4.1-7.5-8.1-7.5L-344.6-54.6z M-331.1-49c1.4-0.2,2.6,0.8,2.7,2.2c0.2,1.4-0.8,2.6-2.2,2.7
				c-0.2,0-0.4,0-0.6,0h-8.1V-49L-331.1-49z M-330.2-38.5c1.9,0,3.3,1.2,3.3,2.8c0,1.6-1.4,2.8-3.3,2.8h-9.1v-5.6L-330.2-38.5z"/>
			<path id="Trazado_13" class="st0" d="M-316.6-54.6h-0.5v27.3h5.9v-8.3h5.2c0.3,0.4,5.5,8.3,5.5,8.3h7.3c0,0-6.2-8.8-6.8-9.7
				c3.5-1.2,5.9-4.4,5.9-8.1c0-5.7-4-9.5-10-9.5H-316.6z M-304.4-49c3.3,0,4.5,2,4.5,3.9s-1.2,3.9-4.5,3.9h-6.8V-49H-304.4z"/>
		</g>
	</g>
	<g id="Grupo_7" transform="translate(47.049 78.431)">
		<path id="Trazado_14" class="st0" d="M-401.9-41.3c0-7.7,6.2-13.6,14.4-13.6h37.9v6.1h-38c-4.6,0-8.1,3.4-8.1,7.5
			c0,4.1,3.4,7.5,7.5,7.5c3.2,0,6.1-2.4,6.8-4.4h-6.5v-6.1c0.5,0,12.8,0,13.4,0c1.1,10.8-6.1,16.7-13.6,16.7
			C-395.8-27.6-401.9-33.7-401.9-41.3z"/>
		<path id="Trazado_15" class="st1" d="M-349.8-44.3v6.1c-0.5,0-20.2,0-20.7,0v-6.1L-349.8-44.3z"/>
		<path id="Trazado_16" class="st1" d="M-349.8-33.7v6.1h-20.7v-6.1C-370-33.7-350.3-33.7-349.8-33.7z"/>
	</g>
</g>
</svg>
