<?xml version="1.0" encoding="utf-8"?>
<!-- Generator: Adobe Illustrator 28.0.0, SVG Export Plug-In . SVG Version: 6.00 Build 0)  -->
<svg version="1.1" id="Capa_1" xmlns="http://www.w3.org/2000/svg" xmlns:xlink="http://www.w3.org/1999/xlink" x="0px" y="0px"
	 viewBox="0 0 267 128" style="enable-background:new 0 0 267 128;" xml:space="preserve">
<style type="text/css">
	.st0{fill:#232A57;}
	.st1{fill:#FFFFFF;}
	.st2{fill:#727272;}
</style>
<g>
	<path class="st0" d="M245.5,109.1h-86c-1,0-1.8-0.8-1.8-1.8v-86c0-1,0.8-1.8,1.8-1.8h86c1,0,1.8,0.8,1.8,1.8v86
		C247.3,108.3,246.5,109.1,245.5,109.1z"/>
	<g>
		<g>
			<path class="st0" d="M16.2,66.8h10.3v3.3h-3.4v14.2h-3.6V70.1h-3.3L16.2,66.8L16.2,66.8z"/>
			<path class="st0" d="M27.8,66.8h10v3h-6.4v4.1h5v3h-5v4.3h6.4v3.1h-10V66.8z"/>
			<path class="st0" d="M47.6,77.9l3.3,0.2c-0.1,1.9-0.7,3.4-1.7,4.6c-1,1.2-2.3,1.8-4,1.8c-2.1,0-3.6-0.8-4.6-2.4
				c-1-1.6-1.6-3.8-1.6-6.6c0-2.8,0.5-5.1,1.6-6.6c1-1.6,2.6-2.4,4.7-2.4c3.4,0,5.3,2.2,5.6,6.8l-3.3,0.2c-0.1-2.6-0.9-3.9-2.3-3.9
				c-0.8,0-1.3,0.4-1.8,1.2c-0.4,0.9-0.7,2.5-0.7,4.9c0,2.1,0.2,3.6,0.6,4.4c0.4,0.8,1,1.2,1.9,1.2C46.6,81.5,47.4,80.3,47.6,77.9z"
				/>
			<path class="st0" d="M52.9,66.8h4l4.2,10.9V66.8H64v17.5h-3.2l-5-12.6v12.6h-2.8L52.9,66.8L52.9,66.8z"/>
			<path class="st0" d="M78.3,75.5c0,6-2,9-6,9c-2,0-3.5-0.8-4.5-2.3c-1-1.5-1.5-3.8-1.5-6.7c0-6,2-9,6-9c2,0,3.4,0.8,4.4,2.2
				C77.8,70.3,78.3,72.5,78.3,75.5z M74.6,75.5c0-2.3-0.2-3.9-0.5-4.7c-0.3-0.8-0.9-1.2-1.7-1.2c-0.8,0-1.3,0.4-1.6,1.2
				c-0.3,0.8-0.5,2.3-0.5,4.7c0,2.3,0.2,3.9,0.5,4.7c0.3,0.8,0.9,1.2,1.7,1.2s1.3-0.4,1.7-1.1C74.4,79.5,74.6,77.9,74.6,75.5z"/>
			<path class="st0" d="M80.8,66.8h3.6V81h5.3v3.3h-8.9L80.8,66.8L80.8,66.8z"/>
			<path class="st0" d="M102.8,75.5c0,6-2,9-6,9c-2,0-3.5-0.8-4.5-2.3c-1-1.5-1.5-3.8-1.5-6.7c0-6,2-9,6-9c2,0,3.4,0.8,4.4,2.2
				C102.3,70.3,102.8,72.5,102.8,75.5z M99,75.5c0-2.3-0.2-3.9-0.5-4.7c-0.3-0.8-0.9-1.2-1.7-1.2c-0.8,0-1.3,0.4-1.6,1.2
				c-0.3,0.8-0.5,2.3-0.5,4.7c0,2.3,0.2,3.9,0.5,4.7c0.3,0.8,0.9,1.2,1.7,1.2c0.8,0,1.3-0.4,1.7-1.1C98.8,79.5,99,77.9,99,75.5z"/>
			<path class="st0" d="M111.1,75h5.7v9.4h-1.5l-0.5-2c-0.9,1.5-2.2,2.3-4,2.3c-1.9,0-3.3-0.8-4.4-2.3c-1.1-1.6-1.7-3.7-1.7-6.3
				c0-2.9,0.5-5.2,1.6-6.8c1.1-1.7,2.7-2.5,4.8-2.5c3.4,0,5.2,2,5.7,6l-3.2,0.6c-0.2-2.3-1-3.4-2.3-3.4c-0.8,0-1.5,0.4-2,1.3
				c-0.5,0.9-0.7,2.4-0.7,4.8c0,2.1,0.2,3.6,0.7,4.4c0.5,0.9,1.2,1.3,2.1,1.3c1.5,0,2.2-1.1,2.2-3.5h-2.5L111.1,75L111.1,75z"/>
			<path class="st0" d="M119.3,64.6l4.1-4l1.3,2.1l-4.4,3L119.3,64.6z M119.7,66.8h3.6v17.5h-3.6V66.8z"/>
			<path class="st0" d="M129.3,66.8h3.6l4.7,17.5H134l-0.8-3.6h-4.6l-0.8,3.6h-3.3L129.3,66.8z M132.5,77.7l-1.7-7.2l-1.6,7.2H132.5
				z"/>
			<path class="st0" d="M149.2,70.6l-3,1.2c-0.4-1.4-1.2-2.1-2.3-2.1c-0.5,0-1,0.1-1.2,0.5c-0.3,0.3-0.5,0.7-0.5,1.1
				c0,0.5,0.2,0.9,0.6,1.2s1.1,0.7,2.3,1.1c1,0.4,1.9,0.8,2.5,1.2s1.1,1,1.5,1.7s0.6,1.5,0.6,2.4c0,1.6-0.5,3-1.6,4
				c-1,1-2.5,1.6-4.2,1.6c-3,0-4.9-1.6-5.7-4.8l3.1-1c0.4,1.8,1.3,2.6,2.6,2.6c0.6,0,1.1-0.2,1.5-0.5c0.4-0.3,0.6-0.8,0.6-1.4
				c0-0.4-0.1-0.8-0.4-1.1c-0.3-0.3-0.9-0.7-1.9-1c-1.2-0.5-2.2-0.9-2.8-1.3c-0.6-0.4-1.1-1-1.5-1.7s-0.6-1.5-0.6-2.5
				c0-1.6,0.5-2.9,1.4-3.9c1-1,2.2-1.5,3.8-1.5C146.6,66.5,148.5,67.9,149.2,70.6z"/>
		</g>
	</g>
	<path class="st1" d="M183.4,49.5h9.4v15.1c0,3.3-0.3,5.9-0.8,7.6c-0.6,1.7-1.7,3.2-3.3,4.4c-1.7,1.2-4.2,2.5-6.7,2.5
		c-2.7,0-4.9-0.4-6.3-1.2c-1.5-0.8-2.7-2-3.5-3.5c-0.8-1.5-1.8-3.9-1.8-8.8h8.2c-0.2,3.9,0.2,5.2,0.8,5.6c0.3,0.2,0.8,0.4,1.4,0.4
		c1,0,1.6-0.4,2.1-1.1c0.4-0.8,0.7-2,0.7-3.8L183.4,49.5L183.4,49.5z"/>
	<path class="st1" d="M196.2,49.5h8.9l2.9,18l3.2-18h7.9l3.5,17.5l2.9-17.5h8.6l-6,28.5h-9.6l-3.4-17l-3.1,17h-9.9L196.2,49.5z"/>
	<path class="st0" d="M238.6,121.6H28.3c-11.3,0-20.6-9.2-20.6-20.6V27C7.7,15.7,17,6.4,28.3,6.4h210.4c11.3,0,20.6,9.2,20.6,20.6
		v74.1C259.2,112.4,250,121.6,238.6,121.6z M28.3,8.5C18.1,8.5,9.8,16.8,9.8,27v74.1c0,10.2,8.3,18.5,18.5,18.5h210.4
		c10.2,0,18.5-8.3,18.5-18.5V27c0-10.2-8.3-18.5-18.5-18.5H28.3z"/>
	<g>
		<g>
			<path class="st2" d="M120.8,50.9c-4.7,0-8.5,3.8-8.5,8.5c0,3.7,2.4,6.9,5.8,8.1v-2.2c-2.2-1-3.7-3.3-3.7-5.9
				c0-3.6,2.9-6.5,6.5-6.5s6.5,2.9,6.5,6.5c0,2.2-1.1,4.2-2.9,5.4v2.3c2.9-1.4,4.9-4.3,4.9-7.7C129.3,54.8,125.5,50.9,120.8,50.9z"
				/>
			<path class="st2" d="M118.7,44.7c-6.3,0.7-11.5,5.4-12.9,11.6h2.1c1.3-5,5.5-8.8,10.8-9.5V44.7z"/>
			<path class="st2" d="M118.7,39.7v-2.1c-10.3,0.8-18.7,8.6-20.3,18.6h2.1C102.1,47.3,109.6,40.5,118.7,39.7z"/>
			<path class="st2" d="M118.7,32.9v-2c-13.8,1-24.9,11.7-26.4,25.4h2C95.8,43.7,106,33.8,118.7,32.9z"/>
		</g>
	</g>
</g>
</svg>
