<?xml version="1.0" encoding="utf-8"?>
<!-- Generator: Adobe Illustrator 24.1.0, SVG Export Plug-In . SVG Version: 6.00 Build 0)  -->
<svg version="1.1" id="Capa_1" xmlns="http://www.w3.org/2000/svg" xmlns:xlink="http://www.w3.org/1999/xlink" x="0px" y="0px"
	 viewBox="0 0 1139.2 229.3" style="enable-background:new 0 0 1139.2 229.3;" xml:space="preserve">
<style type="text/css">
	.st0{fill:#E1251B;}
</style>
<g>
	<polygon class="st0" points="1032.2,167.9 1065.5,167.9 1079.8,56.3 1048,56.3 1041.9,91.7 1013,91.7 1017.1,56.4 984.4,56.4 
		970.4,167.9 1003.8,167.9 1009.3,121.8 1038,121.8 	"/>
	<polygon class="st0" points="900.2,167.9 933.4,167.9 943.8,84.2 971.7,84.2 974.9,56.3 886.5,56.3 883.4,84.2 910.7,84.2 	"/>
	<g>
		<path class="st0" d="M764,72.4c-8.9-12-22.3-18.1-36.8-19c-15-0.9-28.7,4.3-41.1,15.2c-12.4,11.5-19.3,25.2-21.4,40.8
			c-1.8,15.4,1.9,29.7,11.1,42.2c10.1,12,22.4,18.3,37.1,19.3c14.6,0.7,28.3-4.3,41.1-15.5c12.2-11.5,19.3-24.9,21-40.8
			C776.8,99.1,773.2,85.1,764,72.4z M738.3,117.5c-3.8,17.9-14.7,27.4-24.6,24.9c-11.7-3.3-15.6-17.3-12.2-34.4
			c4.7-17.9,12.8-26.3,24.6-25C736.1,84.8,741.9,99.3,738.3,117.5z"/>
	</g>
	<path class="st0" d="M332.2,56.3l-19.4,62v-62h-25.5l-20.6,62v-62h-30.4l5.8,111.5h31.5c0.5-1.4,17.7-56.7,18-57.4l1.3,57.4H325
		l38.9-111.5L332.2,56.3L332.2,56.3z"/>
	<path class="st0" d="M638.6,56.3l-19.4,62v-62h-25.4l-20.6,62v-62h-30.4l5.8,111.5h31.5c0.5-1.4,17.8-56.7,18-57.4l1.4,57.4h32.1
		l38.9-111.5L638.6,56.3L638.6,56.3z"/>
	<g>
		<path class="st0" d="M427.5,56.3h-32.9l-50.1,111.5h32.8l4.7-14.3h33.4l1.5,14.3H448L427.5,56.3z M390.7,131.1l14.8-38.3l6,38.3
			H390.7z"/>
	</g>
	<polygon class="st0" points="503.4,56.3 469.6,56.3 454.1,167.9 532.3,167.9 535.6,136.1 491.1,136.1 	"/>
	<g>
		<g>
			<path class="st0" d="M100.9,71.1c-61.6,0.2-64.6,37.1-64.6,49.8H0v-6.3c36.7-64.9,92-58.5,92-58.5V12.6H24.8V0h152.1v12.5h-67.1
				V56c22-0.9,40.3,6.6,54.7,16.5c23.3,15.5,37.3,42,37.3,42v6.3h-36.2C165.2,80.7,130.2,71,100.9,71.1z"/>
			<path class="st0" d="M101,216.8c-55.2,0-64.6-49-64.6-49H0v6.1c30.2,58.5,101,55.3,101,55.3c37.2,0,64.9-14,81.8-29.8
				c12.1-11.3,19-25.5,19-25.5v-6.1h-36.2c-6.8,26.9-24.4,39.6-39.5,44.9C112.5,217.5,101,216.8,101,216.8z"/>
		</g>
		<polygon class="st0" points="82,129.2 17.7,129.2 17.7,139.6 34.4,139.6 55.7,167.8 86.7,167.8 101,150.1 115.4,167.8 
			150.2,167.8 167.6,139.6 184.1,139.6 184.1,129.2 144.1,129.2 144.1,138.3 150.9,138.3 142.4,152.3 132.7,138.3 140.4,138.3 
			140.4,129.2 85.6,129.2 85.6,138.3 93.4,138.3 83.7,152.3 74.9,138.3 82,138.3 		"/>
	</g>
	<g>
		<polygon class="st0" points="886.7,180.6 885.3,187 890.7,187 892,180.6 		"/>
		<g>
			<path class="st0" d="M869.1,183.5c-2.4-1.3-5.4-1.9-8.9-1.9c-3,0-5.7,0.5-8,1.5s-4.1,2.4-5.3,4.4c-1.2,1.9-1.9,4.1-1.9,6.4
				c0,2.1,0.4,3.9,1.4,5.5c0.9,1.6,2.3,3.1,4.3,4.5c1.3,0.8,3.6,2,7,3.6c4.4,2,7.1,3.6,8.1,4.8c0.9,1.2,1.5,2.5,1.5,3.9
				c0,2.1-0.9,3.9-2.7,5.5c-1.9,1.6-4.5,2.4-8,2.4c-2.4,0-4.5-0.4-6.3-1.2c-1.7-0.8-3-2-3.8-3.5c-0.7-1.5-1.2-3.1-1.2-4.9l0.1-1.6
				l-5.7,0.6c0,5.9,1.5,10,4.7,12.3c3.1,2.2,7.1,3.4,12,3.4c3.2,0,6.1-0.6,8.7-1.7c2.6-1.2,4.5-2.8,5.9-4.9c1.5-2.2,2.2-4.4,2.2-6.9
				c0-2-0.4-3.7-1.3-5.3c-0.8-1.6-2.1-2.9-3.7-4c-1.2-0.8-3.3-2-6.4-3.5c-3.8-1.8-6.3-3-7.4-3.6c-1.5-0.9-2.4-1.8-3-2.7
				c-0.5-0.9-0.8-1.9-0.8-3c0-1.9,0.7-3.5,2-4.6c1.8-1.5,4.2-2.2,7.4-2.2c1.9,0,3.5,0.2,4.9,0.7s2.5,1.2,3.4,2.2
				c0.8,0.8,1.5,1.9,1.9,3.2c0.2,0.8,0.4,1.8,0.4,3l5.5-0.5c0-0.4,0-0.8,0-0.9c0-1.9-0.5-3.9-1.6-6
				C873.3,186.4,871.5,184.7,869.1,183.5z"/>
			<polygon class="st0" points="877.5,228.4 883,228.4 889.5,195.1 884.1,195.1 			"/>
			<path class="st0" d="M913.1,194.3c-1.9,0-3.7,0.6-5.7,1.6c-1.8,1.1-3.8,2.7-6,5l1.2-5.8h-4.8l-6.6,33.3h5.3l3-15.5
				c1.1-5.1,2.6-8.7,4.7-10.7c2.2-2.1,4.5-3.1,7.3-3.1c1.4,0,2.4,0.3,3.1,1c0.7,0.7,1.1,1.6,1.1,2.7c0,1-0.2,2.5-0.7,4.6l-4.1,21
				h5.3l4-20.2c0.5-2.7,0.8-4.6,0.8-5.8c0-2.5-0.8-4.4-2.2-5.9C917.6,195.1,915.6,194.3,913.1,194.3z"/>
			<path class="st0" d="M936.8,201.1c1.5-1.4,3.5-2.1,5.6-2.1c1.8,0,3.3,0.6,4.5,1.7c1.1,1.2,1.6,2.9,1.7,5l5.3-0.4c0-3.3-1-6-3-8
				c-2-2.1-4.6-3.1-8-3.1c-3.3,0-6.2,1-8.7,2.8c-2.6,1.8-4.5,4.5-5.8,8c-1.5,3.6-2.1,7.1-2.1,10.7c0,4.3,1,7.5,3.2,9.8
				c2.1,2.3,4.9,3.5,8.3,3.5c3.1,0,6-1,8.4-3c2.5-2,4.4-5.1,5.8-9.2l-5.4-0.6c-0.8,2.9-2.1,5-3.7,6.4c-1.6,1.4-3.2,2.1-5,2.1
				c-1.7,0-3.1-0.8-4.3-2.2c-1.2-1.4-1.8-3.6-1.8-6.4c0-2.7,0.5-5.5,1.4-8.5C934,204.8,935.3,202.6,936.8,201.1z"/>
			<path class="st0" d="M973.2,194.3c-3,0-5.7,0.8-8.2,2.5s-4.6,4.2-6.2,7.6c-1.5,3.4-2.3,6.9-2.3,10.5c0,2.8,0.5,5.3,1.5,7.5
				c1,2.1,2.4,3.8,4.4,5c1.9,1.1,4.1,1.7,6.4,1.7c3.7,0,6.9-1.2,9.6-3.7c2.7-2.5,4.5-5.1,5.2-7.8l-5.2-0.6c-1,2.4-2.3,4.2-4.1,5.5
				s-3.6,1.9-5.4,1.9c-2,0-3.6-0.8-5-2.4c-1.3-1.6-2-4-2-7.1c0-0.5,0-1.1,0-1.8h23.2c0.3-1.7,0.4-3.4,0.4-5c0-4.3-1.1-7.6-3.3-10.1
				C980,195.6,976.9,194.3,973.2,194.3z M980.5,208.8h-17.7c1-3.4,2.3-5.9,4.2-7.6c1.9-1.7,4-2.5,6.3-2.5c2.1,0,3.9,0.7,5.2,2.2
				c1.4,1.5,2,3.7,2,6.6C980.5,207.8,980.5,208.2,980.5,208.8z"/>
			<path class="st0" d="M1027.6,185.3c-1.3,1.3-3.2,3-5.8,4.8c-2.6,1.8-5.3,3.3-7.9,4.4l-0.9,5.1c5.3-1.5,9.5-3.4,12.5-5.9
				l-6.9,34.7h5.5l9-46.1h-3.1C1029.1,183.4,1028.4,184.5,1027.6,185.3z"/>
			<path class="st0" d="M1059.6,182.3c-4.3,0-7.8,1.6-10.3,4.7c-1.9,2.4-2.8,5-2.8,7.8c0,1.6,0.4,3.3,1.2,4.7c0.8,1.5,2,2.7,3.7,3.7
				c-2.9,0.9-5.1,2.5-6.7,4.9c-1.7,2.4-2.5,5.3-2.5,8.7c0,3.6,1.1,6.6,3.5,8.9c2.3,2.4,5.3,3.6,8.9,3.6c4.6,0,8.3-1.6,11.1-4.8
				c2.7-3.2,4.1-6.9,4.1-11c0-2.2-0.5-4.2-1.5-6c-0.7-1.3-2-2.5-3.7-3.6c2.6-1.1,4.5-2.5,5.6-4.4c1.2-1.8,1.8-3.7,1.8-6
				c0-3.1-1.1-5.8-3.3-8C1066.4,183.3,1063.4,182.3,1059.6,182.3z M1062.2,220.4c-1.8,2.9-4.1,4.3-7,4.3c-1.5,0-2.9-0.4-4.1-1.1
				s-2-1.6-2.6-2.8c-0.6-1.2-0.9-2.4-0.9-3.7c0-3.4,1-6.1,2.8-8.3c1.9-2.1,4.2-3.2,6.8-3.2c2.2,0,3.8,0.7,5.2,2.1
				c1.2,1.4,1.9,3.1,1.9,5.2C1064.3,215.7,1063.6,218.1,1062.2,220.4z M1064.4,199.2c-1.5,1.6-3.5,2.4-5.9,2.4c-2.1,0-3.8-0.6-5-1.8
				s-1.7-2.8-1.7-4.7c0-1.3,0.3-2.6,0.9-3.9c0.7-1.4,1.7-2.4,3-3.2c1.3-0.7,2.8-1.1,4.4-1.1c2,0,3.7,0.6,4.9,1.8
				c1.2,1.2,1.8,2.8,1.8,4.7C1066.7,195.7,1065.9,197.6,1064.4,199.2z"/>
			<path class="st0" d="M1104,182.4h-4.4l-24.4,28.6l-1.1,5.6h17.7l-2.3,11.7h5.4l2.3-11.7h6l1-5.1h-6.2L1104,182.4z M1092.8,211.6
				h-12.3l16.1-19.2L1092.8,211.6z"/>
			<path class="st0" d="M1133.2,183.9c-2-1.1-4.2-1.6-6.7-1.6c-3.7,0-6.7,1.2-9.2,3.5s-4,5.6-4.5,9.7l5.2,0.8
				c0.6-3.3,1.8-5.6,3.3-7.1s3.2-2.2,5.3-2.2c2,0,3.7,0.7,5.2,2.2c1.4,1.5,2.1,3.2,2.1,5.4c0,1.2-0.2,2.4-0.7,3.5
				c-0.7,1.6-1.7,3.2-3.3,4.8c-0.9,1.2-2.9,2.9-5.7,5.2c-4.6,3.9-7.7,6.7-9.3,8.3c-1.7,1.7-3,3.4-3.9,5.2c-1,1.9-1.8,4.2-2.3,6.9
				h25.9l1-5.2h-19.4c0.6-1.3,1.5-2.6,2.9-4c1.3-1.5,3.3-3.3,5.9-5.5c6.1-5.2,9.9-8.6,11.2-10.4c2-2.8,3-5.8,3-8.8
				c0-2.1-0.5-4.1-1.5-6C1136.6,186.5,1135.1,184.9,1133.2,183.9z"/>
		</g>
	</g>
	<g>
		<path class="st0" d="M878.8,90.4c1-5.3,0.4-10.4-0.5-13.7c-0.8-3.4-2.1-6.4-3.8-9.2c-2.2-3.5-5.2-6.1-9-7.9s-9.6-3.1-17.3-3.3
			h-55.4l-13.9,111.5H810l5.4-39.8h10.5c6.8,0,11.2,1.2,13.2,3.6c2,2.4,2.2,4.1,0.9,11.3l-2.1,10.4c-0.7,3.3-1,6.5-1.1,9.7
			c0,1.5,0.1,2.4,0.4,4.9c0,0,29.9,0,32.9,0c4,0,4.4,0,4.4,0c0-3.1-2.2-4.2-3.4-5.6c-1.3-1.4-1.2-2.8-1.2-4.2
			c0-1.8,2.7-14.5,2.7-14.5c1.6-7.8,0-12.5-1.5-16.2s-4.3-7.2-9-9.3C868.7,114.1,876.8,100.7,878.8,90.4z M846.9,93.4
			c-1,2.7-2.8,4.7-5.3,6.2c-3.2,2.1-6,3.1-10.6,3.1h-13.2l3-20.1h15.8c1.9,0,4.7,0.1,5.9,0.3c2,0.5,3.3,1.8,4.1,3.1
			c0.7,1.1,0.9,2.2,0.9,3.3C847.5,90.5,847.3,92.4,846.9,93.4z"/>
	</g>
	<g>
		<path class="st0" d="M1124.8,60.1c-0.5-0.7-0.9-1.1-1.2-1.4c-0.3-0.3-0.7-0.5-1.2-0.7c1.5-0.2,2.7-0.8,3.5-1.8s1.2-2.1,1.2-3.5
			c0-1-0.2-1.9-0.6-2.7c-0.5-0.8-1-1.4-1.7-1.8c-0.6-0.4-1.6-0.7-2.8-0.8c-0.4,0-2.2,0-5.6,0h-3.6v18.7h3.6v-7.7h0.9
			c1,0,1.9,0.3,2.5,0.8c0.6,0.6,1.5,1.9,2.5,3.9l1.5,3h4.5l-2.1-3.8C1125.4,61.1,1125,60.3,1124.8,60.1z M1121.9,55.1
			c-0.7,0.2-2.1,0.2-4.4,0.2h-1.1v-4.7h1.1c2.3,0,3.7,0.1,4.4,0.3c0.6,0.2,1,0.5,1.4,1c0.3,0.5,0.3,1.7,0,2.2
			C1122.8,54.6,1122.4,54.9,1121.9,55.1z"/>
		<path class="st0" d="M1136.6,46.7c-1.7-3.2-4-5.7-7-7.4c-2.9-1.7-6.1-2.5-9.3-2.5c-3.2,0-6.3,0.8-9.4,2.5c-2.9,1.7-5.2,4.2-7,7.4
			c-1.6,3.2-2.5,6.6-2.5,10c0,3.5,0.8,6.8,2.4,10c1.7,3.1,4,5.6,7,7.4c2.9,1.8,6.1,2.6,9.4,2.6c3.2,0,6.4-0.9,9.4-2.6
			c2.9-1.8,5.2-4.2,6.9-7.4c1.7-3.2,2.5-6.5,2.5-10C1139.2,53.2,1138.3,49.9,1136.6,46.7z M1133.4,64.7c-1.3,2.5-3.2,4.5-5.6,5.9
			c-2.3,1.4-4.9,2.1-7.5,2.1s-5.1-0.7-7.5-2.1c-2.4-1.5-4.3-3.4-5.6-5.9c-1.3-2.6-2-5.2-2-8s0.7-5.5,2.1-8.1s3.3-4.5,5.7-5.9
			c2.3-1.4,4.8-2.1,7.4-2.1s5.1,0.7,7.5,2.1s4.3,3.3,5.6,5.9c1.5,2.6,2.1,5.3,2.1,8.1C1135.5,59.5,1134.8,62.2,1133.4,64.7z"/>
	</g>
</g>
</svg>
