<?xml version="1.0" encoding="utf-8"?>
<!-- Generator: Adobe Illustrator 28.0.0, SVG Export Plug-In . SVG Version: 6.00 Build 0)  -->
<svg version="1.1" id="Capa_1" xmlns="http://www.w3.org/2000/svg" xmlns:xlink="http://www.w3.org/1999/xlink" x="0px" y="0px"
	 viewBox="0 0 270 83" style="enable-background:new 0 0 270 83;" xml:space="preserve">
<style type="text/css">
	.st0{fill:#2F408F;}
</style>
<g>
	<path class="st0" d="M95.5,52.9h-9.2c-0.8,0-1.5-0.7-1.5-1.5V27.8c0-0.8,0.7-1.5,1.5-1.5h9.2c0.8,0,1.5,0.7,1.5,1.5v23.6
		C97,52.3,96.3,52.9,95.5,52.9z"/>
	<path class="st0" d="M260.6,50.5l-15.1-22.7c-0.6-0.9-1.8-1.6-2.7-1.6h-2h-7.6h-1.2c-0.9,0-2.1,0.7-2.7,1.6l-15.1,22.7
		c-0.8,1.2-0.3,2.4,1.4,2.4h7.2c1.4,0,2.2-0.7,2.8-1.6l2.6-3.9h17.4l2.6,3.9c0.6,0.9,1.4,1.6,2.8,1.6h8
		C260.9,52.9,261.4,51.7,260.6,50.5z M232.8,40.9l4.4-6.6l4.4,6.6H232.8z"/>
	<path class="st0" d="M68.5,26.1H56.4c-3.2,0-4,1.1-4.8,2.3L41.1,42.5L30.8,28.4c-0.8-1.2-1.6-2.3-4.8-2.3H13.5
		c-0.9,0-1.6,0.7-1.6,1.6v23.6c0,0.9,0.7,1.6,1.6,1.6h8.4c0.9,0,1.6-0.7,1.6-1.6V35.1l10.4,15.2c0.8,1.2,1.6,2.4,3.5,2.4H44
		c1.9,0,2.8-1.3,3.5-2.4L58.5,35v16.3c0,0.9,0.7,1.6,1.6,1.6h8.4c0.9,0,1.6-0.7,1.6-1.6V27.7C70.1,26.8,69.4,26.1,68.5,26.1z"/>
	<circle class="st0" cx="90.8" cy="14.1" r="6.2"/>
	<circle class="st0" cx="90.8" cy="65.1" r="6.2"/>
	<path class="st0" d="M151,26.1h-9c-0.9,0-1.6,0.7-1.6,1.6v11.7v3.2c0,2.2-3,3.9-7.2,3.9h-2.9c-4.4,0-7.2-1.8-7.2-3.9v-3.2V27.7
		c0-0.9-0.7-1.6-1.6-1.6h-9c-0.9,0-1.6,0.7-1.6,1.6v11.7h0V42c0,5.5,4.9,10.9,19.5,10.9h2.9c14.1,0,19.5-5.3,19.5-10.9v-2.6h0V27.7
		C152.6,26.8,151.9,26.1,151,26.1z"/>
	<path class="st0" d="M207.2,50.4c-0.8-1-6.8-8-6.8-8c-0.7-0.7-2.4-1.8-2.4-1.8s6.4-1.6,6.4-6.8c0-6.4-10.1-7.7-17.5-7.7
		c-2.3,0-6.8,0-9.9,0h-3.4h-5.6c-0.9,0-1.6,0.7-1.6,1.6v23.5c0,0.9,0.7,1.6,1.6,1.6h9c0.9,0,1.6-0.7,1.6-1.6v-8.4h5.1
		c3.3,0,5.5,2.5,6.2,3.5c0.7,1,4.2,5.3,4.2,5.3c0.9,1.1,1.6,1.3,2.3,1.3s9.4,0,9.4,0C207.8,52.9,208,51.4,207.2,50.4z M184.9,36.7
		c-1.7,0-4.6,0-6.1,0v-4.2h6.9c4.1,0,6.2,0.6,6.2,2C191.9,35.7,189.8,36.7,184.9,36.7z"/>
</g>
</svg>
