<?xml version="1.0" encoding="utf-8"?>
<!-- Generator: Adobe Illustrator 28.0.0, SVG Export Plug-In . SVG Version: 6.00 Build 0)  -->
<svg version="1.1" id="Capa_1" xmlns="http://www.w3.org/2000/svg" xmlns:xlink="http://www.w3.org/1999/xlink" x="0px" y="0px"
	 viewBox="0 0 326 103" style="enable-background:new 0 0 326 103;" xml:space="preserve">
<style type="text/css">
	.st0{fill:#F7941F;}
</style>
<path class="st0" d="M67,76c-10.3,10.7-27,10.7-37.3,0c-10.3-10.7-10.3-28.1,0-38.8l17.5-18.2c0.8-0.8,2-0.9,2.8-0.2l1.5,1.5
	L32.2,40.3c-8.8,9.2-8.8,24,0,33.2c4.4,4.6,10.2,6.9,15.9,6.9c5.8,0,11.6-2.3,15.9-6.9c8.8-9.2,9.3-23,0.5-32.2l-3-3.3l1.2-1.3
	c0.8-1,2.3-1,3.1-0.1l1.2,1.2c5,5.2,7.5,11.2,7.5,18.6C74.7,63.9,71.9,70.8,67,76 M72.4,31.5l-7.8-8.2L45.8,43.2l3.1,3.3
	c1.3,1.4,3.4,1.4,4.7,0.1l2.7-2.8l2.4,2.3c5.7,6,5.7,15.7-0.1,21.7c-5.8,6-15.1,6-20.9,0c-5.8-6-5.8-15.8,0-21.8l24.5-25.5l-5.5-5.7
	l0,0l-3.3-3.5l0,0c-2.7-2.8-7.1-2.8-9.9,0L24.2,31.5c-13.3,13.8-13.3,36.4,0,50.2C30.8,88.6,39.6,92,48.3,92
	c8.7,0,17.5-3.5,24.1-10.4C85.7,67.8,85.7,45.3,72.4,31.5"/>
<path class="st0" d="M102.8,51.1h13.1c2.2,0,3.9-0.6,5.2-1.9c1.3-1.3,2-2.9,2-4.9c0-2.1-0.7-3.8-2-5.1c-1.3-1.3-3-1.9-5.2-1.9h-13.1
	V51.1z M92.8,78.7V28.4H117c3.2,0,6,0.7,8.4,2c2.4,1.4,4.3,3.2,5.7,5.6c1.4,2.4,2,5.1,2,8.1c0,3-0.7,5.6-2,8
	c-1.4,2.3-3.3,4.2-5.7,5.5c-2.5,1.3-5.2,2-8.4,2h-14.2v18.9H92.8z"/>
<path class="st0" d="M145,56.3h17.5c-0.4-1.5-1-2.8-1.8-3.9c-0.8-1.1-1.9-2-3.1-2.6c-1.2-0.6-2.5-0.9-3.9-0.9c-1.5,0-2.8,0.3-4,0.9
	c-1.2,0.6-2.2,1.5-3,2.6C145.9,53.4,145.3,54.7,145,56.3 M154.7,79.4c-3.6,0-6.8-0.9-9.8-2.6c-2.9-1.7-5.2-4.1-6.9-7
	c-1.7-2.9-2.6-6.2-2.6-9.8c0-3.6,0.8-6.8,2.4-9.8c1.6-2.9,3.8-5.3,6.7-7c2.8-1.7,5.9-2.6,9.3-2.6c3.4,0,6.5,0.9,9.2,2.6
	c2.7,1.7,4.8,4.1,6.3,7.1c1.5,3,2.3,6.5,2.3,10.3v2.6h-26.6c0.4,1.5,1.1,2.8,2.1,4c1,1.2,2.1,2.1,3.5,2.8c1.4,0.6,2.9,1,4.5,1
	c1.6,0,3-0.3,4.4-0.8c1.4-0.5,2.6-1.2,3.5-2.2l6.2,5.9c-2.2,1.9-4.5,3.2-6.8,4.1C160.2,78.9,157.6,79.4,154.7,79.4"/>
<polygon class="st0" points="172.9,78.7 186.7,59.6 173.3,41.3 184.2,41.3 192.2,52.4 200,41.3 210.6,41.3 197.4,59.5 211.4,78.7 
	200.4,78.7 192,66.7 183.6,78.7 "/>
<path class="st0" d="M240.8,41.3v2.4c-1.4-1-2.9-1.7-4.5-2.2c-1.7-0.5-3.3-0.8-5-0.8c-3.5,0-6.6,0.8-9.4,2.5c-2.8,1.7-5,3.9-6.7,6.8
	c-1.6,2.9-2.4,6.1-2.4,9.6c0,3.5,0.8,6.8,2.4,9.6c1.6,2.9,3.8,5.2,6.6,6.9c2.8,1.7,5.8,2.5,9.2,2.5c3.6,0,6.9-1.1,9.9-3.3v2.9
	c0,2.5-0.7,4.4-2.2,5.6c-1.4,1.3-3.5,1.9-6.3,1.9c-1.9,0-3.8-0.3-5.7-0.8c-1.9-0.5-3.8-1.3-5.9-2.3l-3.3,7.6c2.1,1.1,4.5,1.9,7,2.5
	l8.1,0.9c5.7,0,10.1-1.3,13.1-4c3.1-2.7,4.6-6.5,4.6-11.4V41.3H240.8z M240.8,67.1c-1,1.1-2.2,1.9-3.7,2.5c-1.4,0.6-3,0.9-4.7,0.9
	c-2,0-3.8-0.5-5.3-1.4c-1.6-1-2.8-2.2-3.7-3.9c-0.9-1.6-1.3-3.5-1.3-5.5c0-2,0.5-3.7,1.4-5.3c0.9-1.6,2.2-2.9,3.7-3.8
	c1.6-0.9,3.3-1.4,5.3-1.4c1.7,0,3.2,0.3,4.6,0.9c1.4,0.6,2.7,1.4,3.7,2.5V67.1z"/>
<path class="st0" d="M274.4,70.8c1.9,0,3.6-0.5,5.1-1.5c1.5-1,2.7-2.3,3.6-3.9c0.9-1.6,1.3-3.5,1.3-5.5c0-2-0.4-3.8-1.3-5.5
	c-0.9-1.6-2.1-2.9-3.6-3.9c-1.5-1-3.2-1.4-5-1.4c-1.9,0-3.6,0.5-5.1,1.4c-1.5,1-2.7,2.2-3.6,3.9c-0.9,1.6-1.3,3.4-1.3,5.5
	c0,2.1,0.4,3.9,1.3,5.5c0.9,1.6,2.1,2.9,3.5,3.9C270.8,70.3,272.5,70.8,274.4,70.8 M274.4,79.4c-3.6,0-6.8-0.9-9.7-2.6
	c-2.9-1.7-5.2-4.1-6.9-7c-1.7-2.9-2.6-6.2-2.6-9.8c0-3.6,0.8-6.9,2.6-9.9c1.7-2.9,4-5.3,6.9-7c2.9-1.7,6.1-2.5,9.7-2.5
	c3.6,0,6.8,0.8,9.7,2.5c2.9,1.7,5.2,4,6.9,7c1.7,2.9,2.6,6.2,2.6,9.9c0,3.6-0.8,6.8-2.5,9.8c-1.7,2.9-4,5.3-6.9,7
	C281.3,78.5,278,79.4,274.4,79.4"/>
<polyline class="st0" points="308.1,78.7 298.6,78.7 298.6,28.4 308.1,26.8 "/>
<path class="st0" d="M224.4,93.1c-0.2,0.3,8.1,0.9,8.1,0.9"/>
</svg>
