<?xml version="1.0" encoding="utf-8"?>
<!-- Generator: Adobe Illustrator 28.0.0, SVG Export Plug-In . SVG Version: 6.00 Build 0)  -->
<svg version="1.1" id="Capa_1" xmlns="http://www.w3.org/2000/svg" xmlns:xlink="http://www.w3.org/1999/xlink" x="0px" y="0px"
	 viewBox="0 0 199.2 47.9" style="enable-background:new 0 0 199.2 47.9;" xml:space="preserve">
<style type="text/css">
	.st0{fill:#E20613;}
</style>
<g>
	<g>
		<rect x="68" y="15.6" class="st0" width="5.5" height="20.4"/>
		<polygon class="st0" points="136.4,20.8 143,20.8 143,36.1 148.9,36.1 148.9,20.8 155.4,20.8 155.4,15.5 136.4,15.5 		"/>
		<polygon class="st0" points="156.6,20.8 163.3,20.8 163.3,36.1 169.1,36.1 169.1,20.8 175.7,20.8 175.7,15.5 156.6,15.5 		"/>
		<polygon class="st0" points="76.9,15.6 76.8,20.7 85.3,20.7 76,36.1 94.6,36.1 94.6,31.1 85.4,31.1 94.6,15.6 		"/>
		<polygon class="st0" points="96.3,15.6 96.3,20.7 104.8,20.7 95.5,36.1 114,36.1 114,31.1 104.8,31.1 114,15.6 		"/>
		<path class="st0" d="M125.8,15c-5.7,0-10.4,4.7-10.4,10.5S120.1,36,125.8,36c5.7,0,10.4-4.7,10.4-10.5S131.6,15,125.8,15z
			 M125.8,30.6c-2.6,0-4.8-2.3-4.8-5.1s2.1-5.1,4.8-5.1c2.6,0,4.8,2.3,4.8,5.1S128.5,30.6,125.8,30.6z"/>
		<path class="st0" d="M186.4,15c-5.7,0-10.4,4.7-10.4,10.5S180.7,36,186.4,36s10.4-4.7,10.4-10.5S192.1,15,186.4,15z M186.4,30.6
			c-2.6,0-4.8-2.3-4.8-5.1s2.1-5.1,4.8-5.1c2.6,0,4.8,2.3,4.8,5.1S189.1,30.6,186.4,30.6z"/>
		<path class="st0" d="M60.1,27c4.1-1.2,3.4-5.7,3.4-5.7s0.1-3.5-3.6-5.1c-0.9-0.3-2.3-0.5-4-0.5h-8V36h5.7v-7.9h0.5
			c0.5,0,1.4,0.1,1.8,0.4c0.3,0.2,0.6,0.8,1,1.6l2.6,5.9h5.9L63,30.1C62.8,29.8,62,27.3,60.1,27z M56,24.4h-2.4v-4.6h2.5
			c1.2,0,2,1,2,2.4C58.1,24.2,56.2,24.4,56,24.4z"/>
	</g>
	<g>
		<path class="st0" d="M36.8,19.5c0.1-0.1,0.2-0.2,0.3-0.3C37,19.1,37,19.1,36.9,19c-2.9-2.9-5.8-5.8-8.7-8.7
			c-0.2-0.2-0.3-0.2-0.5-0.2c-8.3,0-16.6,0-25,0c-0.1,0-0.2,0-0.3,0c0,0.1,0,0.2,0.1,0.3C2.8,11.3,3,12.2,3.2,13
			c0.1,0.3,0.2,0.4,0.5,0.4c7.5,0,15,0,22.6,0c0.3,0,0.5,0.1,0.7,0.3c1.7,1.7,3.3,3.3,5,5c0.2,0.2,0.4,0.3,0.5,0.4
			c0,0.1,0,0.1,0,0.2c-0.1,0.1-0.3,0.1-0.4,0.3c-1.4,1.4-2.8,2.8-4.3,4.3c-0.2,0.2-0.2,0.3-0.1,0.5c0.6,2,1.1,4,1.7,6
			c0.1,0.3,0.2,0.7,0.3,1.1c-0.1-0.1-0.2-0.1-0.2-0.1c-0.8-0.6-1.6-1.2-2.5-1.7c-2.1-1.5-4.2-2.9-6.2-4.4c-0.1-0.1-0.2-0.1-0.4,0
			c-2.5,1.8-5.1,3.6-7.6,5.4c-0.4,0.3-0.8,0.6-1.2,0.9c0,0,0,0-0.1,0c0.9-3.2,1.8-6.4,2.7-9.6c-2.9,0-5.7,0-8.5,0
			c0,0.1,0,0.2,0.1,0.3c0.3,0.9,0.5,1.8,0.8,2.7C6.6,24.9,6.7,25,6.9,25c0.9,0,1.7,0,2.6,0c0.1,0,0.2,0,0.4,0
			c-1.4,4.8-2.7,9.6-4.1,14.5c0.1-0.1,0.2-0.1,0.3-0.2c4.7-3.3,9.5-6.7,14.2-10c0.2-0.2,0.4-0.2,0.6,0c1.6,1.2,3.2,2.3,4.8,3.4
			c2.7,1.9,5.4,3.8,8.1,5.7c0.5,0.4,1,0.7,1.6,1.1c0-0.1,0-0.1-0.1-0.2c-1.3-4.6-2.6-9.3-3.9-13.9c-0.1-0.3,0-0.4,0.2-0.6
			C33.3,23,35.1,21.2,36.8,19.5z"/>
		<path class="st0" d="M28.7,19.2c-0.1-0.1-0.2-0.2-0.3-0.3c-0.9-0.9-1.8-1.8-2.7-2.7c-0.2-0.2-0.4-0.3-0.7-0.3
			c-6.9,0-13.8,0-20.7,0c-0.1,0-0.2,0-0.4,0c0,0.1,0,0.2,0.1,0.3c0.2,0.9,0.5,1.8,0.7,2.6c0.1,0.2,0.2,0.3,0.4,0.3
			c7.7,0,15.4,0,23,0C28.5,19.2,28.6,19.2,28.7,19.2z"/>
	</g>
</g>
</svg>
