<?xml version="1.0" encoding="utf-8"?>
<!-- Generator: Adobe Illustrator 28.0.0, SVG Export Plug-In . SVG Version: 6.00 Build 0)  -->
<svg version="1.1" id="Capa_1" xmlns="http://www.w3.org/2000/svg" xmlns:xlink="http://www.w3.org/1999/xlink" x="0px" y="0px"
	 viewBox="0 0 199.2 47.9" style="enable-background:new 0 0 199.2 47.9;" xml:space="preserve">
<style type="text/css">
	.st0{fill:#3153A0;}
	.st1{fill:#6880B9;}
</style>
<g>
	<path class="st0" d="M10.6,15.4c0.2-0.1,0.2-0.4,0.2-0.6c0.9-3.2,3.4-5.4,6.7-5.8c0.7-0.1,1.4-0.1,2.1-0.1c5.6,0,11.3,0,16.9,0
		c0.6,0,0.8,0.1,0.7,0.7c0,2,0,4,0,6c0,0.5-0.2,0.6-0.7,0.6c-4.9,0-9.8,0-14.7,0c-1.5,0-2,0.6-1.7,2c0.1,0.7,0.7,0.9,1.3,0.9
		c2.5,0,5,0,7.5,0c0.7,0,1.4,0,2.2,0.1c3.5,0.3,6.6,2.9,7.2,6c0.4,2,0.2,4,0.1,6.1c0,0.6-0.2,1.2-0.4,1.8c-1.3,3.4-4.2,5.5-7.8,5.5
		c-6.2,0-12.3,0-18.5,0c-0.6,0-0.7-0.2-0.7-0.7c0-2.1,0-4.2,0-6.2c0-0.7,0.1-0.9,0.9-0.9c4.9,0,9.7,0,14.6,0c1.5,0,2.3-1.3,1.5-2.7
		c-0.3-0.5-0.7-0.6-1.3-0.6c-2.9,0-5.7,0-8.6,0c-0.6,0-1.3,0-1.9-0.2c-2.8-0.7-4.6-2.5-5.5-5.2c-0.1-0.2,0-0.4-0.2-0.5
		C10.6,19.6,10.6,17.5,10.6,15.4z"/>
	<path class="st0" d="M51.8,39c-0.6-0.3-1.2-0.3-1.9-0.4c-3.9-0.9-6.6-3.1-7.5-7.1c-0.2-0.8-0.2-1.5-0.2-2.3c0-6.5,0-13.1,0-19.6
		c0-0.6,0.2-0.7,0.7-0.7c2.8,0,5.7,0,8.5,0c0.6,0,0.8,0.1,0.8,0.8c0,6,0,12,0,18c0,0.2,0,0.4,0,0.6c0,2.1,0.7,2.8,2.8,2.8
		c1.2,0,2.5,0,3.7,0c2.1,0,2.9-0.8,2.9-2.8c0-6.2,0-12.4,0-18.5c0-0.6,0.2-0.7,0.8-0.7c2.9,0,5.7,0,8.6,0c0.5,0,0.7,0.1,0.7,0.6
		c0,6.7,0,13.3,0,20c0,1.3-0.2,2.6-0.6,3.8c-1.1,3.1-3.5,4.6-6.6,5.4c-0.7,0.2-1.4,0.1-2.1,0.4c-0.5,0-0.9,0-1.4,0
		c-0.2-0.1-0.5-0.1-0.7-0.1c-2.1,0-4.3,0-6.4,0c-0.2,0-0.5-0.1-0.7,0.1C52.6,39,52.2,39,51.8,39z"/>
	<path class="st1" d="M53,39c0.1-0.2,0.3-0.1,0.5-0.1c2.3,0,4.5,0,6.8,0c0.2,0,0.4,0,0.5,0.1C58.2,39,55.6,39,53,39z"/>
	<path class="st0" d="M130,23.8c0-4.7,0-9.4,0-14.1c0-0.5,0.1-0.7,0.7-0.7c7.4,0,14.7,0,22.1,0c0.6,0,0.7,0.1,0.7,0.7c0,2,0,4,0,6
		c0,0.5-0.2,0.6-0.7,0.6c-4.1,0-8.3,0-12.4,0c-0.7,0-0.9,0.2-0.8,0.9c0.1,0.7,0,1.3,0,2c0,0.5,0.2,0.6,0.7,0.6c3.4,0,6.8,0,10.2,0
		c0.6,0,0.8,0.2,0.8,0.8c0,2,0,3.9,0,5.9c0,0.6-0.1,0.7-0.7,0.7c-3.4,0-6.8,0-10.2,0c-0.5,0-0.7,0.1-0.7,0.7c0,0.8,0.1,1.6,0,2.4
		c-0.1,0.7,0.2,0.7,0.8,0.7c4.4,0,8.8,0,13.1,0c0.6,0,0.8,0.2,0.8,0.8c0,2.1,0,4.2,0,6.4c0,0.5-0.2,0.7-0.7,0.6
		c-7.6,0-15.3,0-22.9,0c-0.6,0-0.7-0.2-0.7-0.8C130,33.2,130,28.5,130,23.8z"/>
	<path class="st0" d="M113.4,16.3c-2,0-3.9,0-5.8,0c-2.2,0-4.5,0-6.7,0c-0.4,0-0.6-0.1-0.6-0.6c0-2.1,0-4.2,0-6.2
		c0-0.5,0.1-0.6,0.6-0.6c8.1,0,16.1,0,24.2,0c0.6,0,0.7,0.2,0.7,0.7c0,2,0,4,0,6c0,0.4-0.1,0.7-0.4,1c-4.1,4.5-8.1,9.1-12.2,13.6
		c-0.1,0.1-0.3,0.3-0.5,0.6c0.4,0,0.6,0,0.9,0c4,0,8,0,12,0c0.5,0,0.7,0.1,0.7,0.6c0,2.2,0,4.4,0,6.6c0,0.4-0.1,0.6-0.6,0.6
		c-8.3,0-16.6,0-25,0c-0.5,0-0.6-0.2-0.6-0.6c0-2.2,0-4.4,0-6.6c0-0.4,0.1-0.6,0.4-0.9c4.2-4.5,8.4-9.1,12.5-13.6
		C113.1,16.7,113.2,16.6,113.4,16.3z"/>
	<path class="st0" d="M75.9,23.7c0-4.7,0-9.4,0-14.1c0-0.6,0.1-0.7,0.7-0.7c2.8,0,5.7,0,8.6,0c0.6,0,0.7,0.2,0.7,0.7
		c0,6.8,0,13.6,0,20.4c0,1.1-0.1,1,1,1c3.4,0,6.8,0,10.1,0c0.6,0,0.7,0.2,0.7,0.7c0,2.1,0,4.3,0,6.4c0,0.4-0.1,0.6-0.6,0.6
		c-6.9,0-13.8,0-20.6,0c-0.6,0-0.6-0.2-0.6-0.7C75.9,33.3,75.9,28.5,75.9,23.7z"/>
	<path class="st0" d="M179.1,27.5c3.3-0.9,5.4-3,6.2-6.2c0.4-1.4,0.2-2.8,0.2-4.3c-0.1-2.4-1-4.5-2.9-6c-1.9-1.6-4.3-2-6.7-2
		c-5.8,0-11.5,0-17.3,0c-0.6,0-0.7,0.2-0.7,0.7c0,9.4,0,18.9,0,28.3c0,0.5,0.1,0.7,0.7,0.7c2.7,0,5.3,0,8,0c0.5,0,0.6-0.2,0.6-0.7
		c0-3.3,0-6.5,0-9.8c0-0.2-0.2-0.5,0.2-0.6c0.3-0.1,0.7-0.1,0.9,0.2c0.1,0.1,0.2,0.2,0.3,0.4c2.4,2.9,4.9,5.7,7.2,8.7
		c1,1.3,2,1.8,3.7,1.7c3-0.2,6,0,9.2,0C185.4,34.9,182.3,31.2,179.1,27.5z M174.3,20.7c-0.1,0-0.1,0-0.2,0c-1.1,0-2.1,0-3.2,0
		c-1.2,0-2.3,0-3.5,0c-0.3,0-0.5-0.1-0.5-0.5c0-1.2,0-2.4,0-3.6c0-0.4,0.1-0.5,0.5-0.5c2.3,0,4.5,0,6.8,0c1.3,0,1.8,0.6,1.9,1.9
		c0,0.3,0,0.5,0,0.8C176.1,20.1,175.6,20.6,174.3,20.7z"/>
</g>
</svg>
