<?xml version="1.0" encoding="utf-8"?>
<!-- Generator: Adobe Illustrator 28.0.0, SVG Export Plug-In . SVG Version: 6.00 Build 0)  -->
<svg version="1.1" id="Capa_1" xmlns="http://www.w3.org/2000/svg" xmlns:xlink="http://www.w3.org/1999/xlink" x="0px" y="0px"
	 viewBox="0 0 379 158" style="enable-background:new 0 0 379 158;" xml:space="preserve">
<style type="text/css">
	.st0{fill-rule:evenodd;clip-rule:evenodd;fill:#CE1418;}
	.st1{fill-rule:evenodd;clip-rule:evenodd;fill:#FFFFFF;}
	.st2{fill:#1D1E1C;}
</style>
<g>
	<path class="st0" d="M93.3,102.7H58.8V43.6C46,49.8,37.1,63,37.1,78.2c0,0.6,0,1.1,0,1.7H8.3c0-0.6,0-1.1,0-1.7
		c0-37.3,30.2-67.5,67.5-67.5c37.3,0,67.5,30.2,67.5,67.5c0,0.6,0,1.1,0,1.7h-28.9c0-0.6,0-1.1,0-1.7c0-15-8.6-28-21.1-34.4V102.7
		L93.3,102.7z M110.5,95.1c-6.3,12.9-19.5,21.7-34.7,21.7S47.3,108,41,95.1H10.4c7.5,29.1,33.9,50.6,65.4,50.6s57.9-21.5,65.4-50.6
		H110.5L110.5,95.1z"/>
	<path class="st1" d="M75.7,13.8c8.3,0,15,6.7,15,15s-6.7,15-15,15s-15-6.7-15-15S67.4,13.8,75.7,13.8L75.7,13.8z"/>
	<path class="st2" d="M182.2,35v15.8h-8.7v63.2h-14.6V50.8h-8.6V35H182.2L182.2,35z M185.5,35h24.3v15.8h-9.7v15h9.1v15h-9.1v17.4
		h10.7v15.8h-25.3V35L185.5,35z M240.2,35l8.4,79h-14.9l-0.7-14.2h-5.2l-0.9,14.2h-15.1l7.4-79H240.2L240.2,35z M232.5,85.8
		c-0.7-8.9-1.5-20-2.2-33.1c-1.5,15.1-2.4,26.1-2.8,33.1H232.5L232.5,85.8z M251.1,35H262c7.1,0,11.8,0.4,14.3,1.4
		c2.5,0.9,4.4,2.4,5.7,4.5c1.3,2.1,2.1,4.4,2.4,7c0.3,2.5,0.5,7.6,0.5,15v27.7c0,7.1-0.2,11.8-0.7,14.2c-0.5,2.4-1.3,4.3-2.5,5.6
		c-1.2,1.4-2.6,2.3-4.4,2.8c-1.7,0.5-4.3,0.8-7.8,0.8h-18.4V35L251.1,35z M265.7,48.5v51.9c2.1,0,3.4-0.6,3.9-1.8
		c0.5-1.2,0.7-4.4,0.7-9.7V58.3c0-3.6-0.1-5.9-0.2-6.9c-0.2-1-0.5-1.7-1.1-2.2C268.4,48.7,267.3,48.5,265.7,48.5L265.7,48.5z
		 M304.9,35v79h-14.6V35H304.9L304.9,35z M340.2,35v15.8h-8.7v63.2h-14.6V50.8h-8.6V35H340.2L340.2,35z"/>
	<path class="st2" d="M366,45.2c0,1.8-0.5,3.6-1.4,5.1c-0.9,1.6-2.2,2.8-3.8,3.8c-1.6,0.9-3.3,1.4-5.1,1.4c-1.8,0-3.5-0.5-5.1-1.4
		c-1.6-0.9-2.8-2.2-3.8-3.8c-0.9-1.6-1.4-3.3-1.4-5.1c0-1.8,0.5-3.5,1.4-5.1c0.9-1.6,2.2-2.9,3.8-3.8c1.6-0.9,3.3-1.4,5.1-1.4
		c1.8,0,3.6,0.5,5.1,1.4c1.6,0.9,2.8,2.2,3.8,3.8C365.5,41.7,366,43.4,366,45.2L366,45.2z M364,45.2c0-2.3-0.8-4.2-2.4-5.9
		c-1.6-1.6-3.6-2.4-5.9-2.4c-2.3,0-4.2,0.8-5.9,2.4c-1.6,1.6-2.4,3.6-2.4,5.9c0,2.3,0.8,4.2,2.4,5.9c1.6,1.6,3.6,2.4,5.9,2.4
		c2.3,0,4.2-0.8,5.9-2.4C363.2,49.5,364,47.5,364,45.2L364,45.2z M351.1,39.8h4.9c1.4,0,2.4,0.3,3,0.8c0.6,0.6,0.9,1.3,0.9,2.3
		c0,0.7-0.2,1.4-0.7,1.9c-0.5,0.5-1.2,0.9-2.2,1.2c0.4,0.2,0.7,0.3,0.9,0.5c0.3,0.3,0.6,0.6,0.9,1.1c0,0,0.6,1.1,1.8,3.2h-3.2
		c-1.1-2.1-1.8-3.3-2.1-3.7c-0.4-0.4-0.7-0.6-1.1-0.6c-0.1,0-0.2,0-0.3,0v4.3h-2.7V39.8L351.1,39.8z M353.8,44.4h1.2
		c0.8,0,1.3-0.1,1.7-0.4c0.3-0.3,0.5-0.6,0.5-1c0-0.4-0.2-0.7-0.5-1c-0.3-0.3-0.8-0.4-1.6-0.4h-1.3V44.4L353.8,44.4z"/>
</g>
</svg>
