<?xml version="1.0" encoding="utf-8"?>
<!-- Generator: Adobe Illustrator 28.0.0, SVG Export Plug-In . SVG Version: 6.00 Build 0)  -->
<svg version="1.1" id="Capa_1" xmlns="http://www.w3.org/2000/svg" xmlns:xlink="http://www.w3.org/1999/xlink" x="0px" y="0px"
	 viewBox="0 0 326 103" style="enable-background:new 0 0 326 103;" xml:space="preserve">
<style type="text/css">
	.st0{fill:#6C6C6C;}
	.st1{fill:#6B6B6B;}
	.st2{fill:#009D58;}
	.st3{fill:#6D6D6D;}
	.st4{fill:#A1378D;}
	.st5{fill:#0169BA;}
	.st6{fill:#1972B0;}
	.st7{fill:#199B62;}
	.st8{fill:#34A673;}
	.st9{fill:#AA509A;}
	.st10{fill:#1A69A2;}
	.st11{fill:#259564;}
	.st12{fill:#974185;}
</style>
<path class="st0" d="M188.6,45.3c0.3,0.2,0.6,0.4,0.9,0.7c3.5,2.9,3.8,6.8,3.8,11c0,1,0,1.9,0,2.9c0,0.7,0,1.3,0,2
	c0,1.8,0,3.5,0,5.3c0,1.8,0,3.6,0,5.4c0,3.5,0,7,0,10.6c-3.7,0-7.4,0-11.3,0c0-1.8,0-3.7,0-5.5c0-1.5,0-2.9,0-4.4
	c0-4,0-8.1-0.2-12.1c-0.1-2.7-0.1-7-3.5-7.8c-1.1-0.3-2.3-0.4-3.5-0.2c-1.8,0.3-3.5,1.6-4,3.5c-0.2,0.6-0.2,1.3-0.2,1.9
	c-0.1,3.5-0.1,7-0.1,10.5c0,1.9,0,3.8-0.1,5.6c0,2.9-0.1,5.7-0.1,8.6c-3.9,0-7.7,0-11.7,0c0-12.7,0-25.3,0-38.4c3.9,0,7.7,0,11.7,0
	c0.1,0.8,0.3,1.7,0.4,2.5c0.3-0.3,0.6-0.6,1-0.9c2.2-2.2,5.6-2.9,8.6-2.9C183.3,43.4,186.1,43.7,188.6,45.3z"/>
<path class="st1" d="M81.6,31c13.3,0,26.7,0,40.4,0c0,3.6,0,7.2,0,10.8c-4.7,0-9.4,0-14.2,0c0,13.6,0,27.2,0,41.3c-4,0-8,0-12.1,0
	c0-13.6,0-27.2,0-41.3c-4.7,0-9.4,0-14.2,0C81.6,38.3,81.6,34.7,81.6,31z"/>
<path class="st0" d="M314.1,48.1c2.2,2.4-4.2,7.6-6.6,7.3c-1.1-0.1-2.2-1.1-3.1-1.7c-2.4-1.4-5.4-1.9-8.2-1.5
	c-1.4,0.2-4.1,1.3-2.8,3.2c0.5,0.8,1.5,1.2,2.4,1.5c6.1,1.9,15,1.9,18.8,8.1c1.6,2.7,1.6,5.6,1.1,8.7c-1,3.7-3.6,6.1-6.8,8.1
	c-5.4,2.9-12.7,3.1-18.6,1.9c-1.3-0.4-2.4-0.8-3.6-1.4c-0.3-0.2-0.7-0.3-1-0.5c-2.6-1.3-5.3-2.9-6.9-5.3c2.4-2.2,4.8-4.4,7.5-6.3
	c0.6,0.6,0.6,0.6,1.2,1.1c3.4,2.9,6.8,4,11.3,3.9c1.7-0.2,3-0.6,4.4-1.6c0.7-1.1,0.8-1.7,0.6-3c-2.4-1.3-4.4-1.9-7.1-2.2
	c-4.8-0.6-9.3-1.9-12.9-5.3c-2.1-2.8-2.6-5.8-2.1-9.2c1.2-8,10.5-11,17.4-10.8c2.7,0.1,5.3,0.6,7.9,1.4
	C309.5,45.3,312.1,46.1,314.1,48.1C314.1,48.1,314.1,48.1,314.1,48.1z"/>
<path class="st2" d="M9,31c19.3,0,38.5,0,58.4,0c0,3.6,0,7.2,0,10.8c-19.3,0-38.5,0-58.4,0C9,38.3,9,34.7,9,31z"/>
<path class="st3" d="M238.3,44.3c3.7,0,7.4,0,11.3,0c-0.2,1.3-0.3,2.5,0.2,3.7c0.7-0.5,11.1-5.1,11.1-3.7c0,3.3,0,6.6,0,10
	c-0.8,0.1-1.7,0.2-2.5,0.3c-2.8,0.4-5.2,1-7.4,3c-0.2,0.2-0.5,0.5-0.6,0.8c-0.1,0.3-0.1,0.7-0.2,1c0,3.5-0.1,6.9-0.1,10.4
	c0,1.5,0,3,0,4.5c0,2.9,0,5.9-0.1,8.8c-3.9,0-7.7,0-11.7,0C238.3,70.3,238.3,57.5,238.3,44.3z"/>
<path class="st0" d="M265,44.3c3.7,0,7.4,0,11.3,0c0,12.8,0,25.6,0,38.8c-3.7,0-7.4,0-11.3,0C265,70.3,265,57.5,265,44.3z"/>
<path class="st4" d="M9,46.8c19.3,0,38.5,0,58.4,0c0,1.8,0,3.6,0,5.4c-19.3,0-38.5,0-58.4,0C9,50.5,9,48.7,9,46.8z"/>
<path class="st5" d="M9,20.6c19.3,0,38.5,0,58.4,0c0,1.8,0,3.6,0,5.4C48.1,26,28.9,26,9,26C9,24.2,9,22.4,9,20.6z"/>
<path class="st6" d="M9,55.6c19.3,0,38.5,0,58.4,0c0,1,0,1.9,0,2.9c-19.3,0-38.5,0-58.4,0C9,57.5,9,56.6,9,55.6z"/>
<path class="st7" d="M9,14.3c19.3,0,38.5,0,58.4,0c0,1,0,1.9,0,2.9c-19.3,0-38.5,0-58.4,0C9,16.3,9,15.3,9,14.3z"/>
<path class="st8" d="M9,60.6c19.3,0,38.5,0,58.4,0c0,0.7,0,1.4,0,2.1c-19.3,0-38.5,0-58.4,0C9,62,9,61.3,9,60.6z"/>
<path class="st3" d="M265,31c3.7,0,7.4,0,11.3,0c0,2.9,0,5.8,0,8.8c-3.7,0-7.4,0-11.3,0C265,36.9,265,34,265,31z"/>
<path class="st9" d="M9,10.6c19.3,0,38.5,0,58.4,0c0,0.6,0,1.1,0,1.7c-19.3,0-38.5,0-58.4,0C9,11.7,9,11.1,9,10.6z"/>
<path class="st0" d="M152.3,54.6c-1.4-3.3-3.7-6.1-6.6-8.2c-5.8-3.6-13.6-4.1-20-1.7c-4.6,2.2-8,6-9.9,10.7
	c-1.7,5.1-1.9,11.1-0.3,16.2c1.6,5.2,5.6,9.4,10.5,11.7c9.3,4.3,23.8,0.2,27.3-10.2c-2.8-1.4-5.6-2.8-8.3-4.2
	c0.3,0.2-3.2,4.2-3.6,4.5c-1.8,1.5-3.9,2-6.3,2.1c-1.6,0-3.2-0.3-4.5-1.2c-2.8-1.9-3.6-5.2-4.4-8.3c9.4,0,18.4,0,27.5,0
	C153.7,62,153.8,58.3,152.3,54.6z M141.1,58.9c-1.6,0.2-3.3,0-4.9,0c-3.2,0-6.4,0-9.7,0c0.5-3,2.2-6,5-7.2c1.9-0.8,3.7-0.8,5.4-0.2
	c1.3,0.5,2.5,1.4,3.6,2.6c0.5,0.5,0.9,1.1,1.2,1.7c0.3,0.6,0.4,1.2,0.4,1.8C142.1,58.7,142.1,58.8,141.1,58.9z"/>
<path class="st0" d="M232.9,83.1c-0.5-0.9-0.5-0.9-0.5-2c0-0.5,0-1.1,0-1.6c0-0.6,0-1.2,0-1.8c0-1,0-1.9,0-2.9c0-2.1,0-4.1-0.1-6.2
	c0-2.4,0-4.9-0.1-7.3c0-1,0-2,0-3c0-0.6,0-1.2,0-1.9c0-0.4,0-0.4,0-0.9c0-3.6-0.7-5.4-3.1-8.2c-3.5-3.1-8-4-12.6-4
	c-0.4,0-0.7,0-1.1,0c-4.8,0-10.4,1.1-13.8,4.8c-2.3,2.5-2.4,4.1-2.4,7.5c3.8,0,7.5,0,11.3,0c1-2.5,2.3-4.4,5.3-4.4
	c2.3,0,4.7,0.7,4.9,3.4c0,0.4,0,0.8,0.1,1.2c0,0.7,0.1,1.5,0.1,2.2c0-0.6-7,0.8-7.7,1c-2.7,0.5-5.5,1.2-8,2.3
	c-4.7,2.2-8.3,6.6-7.9,12.1c0.4,5.4,5.2,10.4,10.7,10.9c5.3,0.4,9.2-1.1,13.5-4.1c0.3-0.2,0.3-0.2,0.7-0.5c0,1.1,0,2.2,0,3.3
	C225.7,83.1,229.3,83.1,232.9,83.1z M215.8,75.4c-1.6,0.8-3.5,1-5.1,0.1c-3-1.5-2.7-5.2-0.3-7.1c1.8-1.4,4.1-2.1,6.2-2.7
	c0.3-0.1,4.1-1.1,4.1-0.9C221,68.9,219.8,73.4,215.8,75.4z"/>
<path class="st10" d="M9,20.6c19.3,0,38.5,0,58.4,0c0,1.8,0,3.6,0,5.4C48.1,26,28.9,26,9,26C9,24.2,9,22.4,9,20.6z M10.3,21
	c-0.1,1.4-0.3,2.8-0.4,4.2c18.7,0,37.4,0,56.7,0c0-1.4,0-2.8,0-4.2C48,21,29.4,21,10.3,21z"/>
<path class="st11" d="M9,31c19.3,0,38.5,0,58.4,0c0,3.6,0,7.2,0,10.8c-19.3,0-38.5,0-58.4,0C9,38.3,9,34.7,9,31z M9.9,31.8
	c0,3.2,0,6.3,0,9.6c18.7,0,37.4,0,56.7,0c0-3.2,0-6.3,0-9.6c-1.3-0.4-2.1-0.5-3.5-0.5c-0.5,0-0.9,0-1.4,0c-0.5,0-1,0-1.5,0
	c-0.5,0-1.1,0-1.6,0c-1.5,0-2.9,0-4.4,0c-1.5,0-3,0-4.6,0c-2.6,0-5.1,0-7.7,0c-3,0-5.9,0-8.9,0c-2.5,0-5.1,0-7.6,0c-1.5,0-3,0-4.6,0
	c-1.7,0-3.4,0-5.1,0c-0.5,0-1,0-1.5,0c-0.5,0-0.9,0-1.4,0c-0.4,0-0.8,0-1.2,0C10.7,31.4,10.7,31.4,9.9,31.8z"/>
<path class="st12" d="M9,10.6c19.3,0,38.5,0,58.4,0c0,0.4,0,0.8,0,1.3c-0.4,0-0.8,0-1.3,0c0-0.3,0-0.6,0-0.8c-18.4,0-36.9,0-55.9,0
	c0,0.3,0,0.6,0,0.8c-0.4,0-0.8,0-1.3,0C9,11.4,9,11,9,10.6z"/>
</svg>
