<?xml version="1.0" encoding="utf-8"?>
<!-- Generator: Adobe Illustrator 28.0.0, SVG Export Plug-In . SVG Version: 6.00 Build 0)  -->
<svg version="1.1" id="Capa_1" xmlns="http://www.w3.org/2000/svg" xmlns:xlink="http://www.w3.org/1999/xlink" x="0px" y="0px"
	 viewBox="0 0 183 178" style="enable-background:new 0 0 183 178;" xml:space="preserve">
<style type="text/css">
	.st0{fill:#E20613;}
	.st1{fill:#FFFFFF;}
</style>
<g>
	<path class="st0" d="M167,171H16.9c-4.5,0-8.2-3.7-8.2-8.2V12.7c0-4.5,3.7-8.2,8.2-8.2H167c4.5,0,8.2,3.7,8.2,8.2v150.1
		C175.2,167.3,171.5,171,167,171z"/>
	<g>
		<path class="st1" d="M91.9,110c-24.5,0-44.5-20-44.5-44.5S67.4,21,91.9,21s44.5,20,44.5,44.5S116.4,110,91.9,110z M91.9,29.2
			c-20,0-36.3,16.3-36.3,36.3s16.3,36.3,36.3,36.3s36.3-16.3,36.3-36.3S111.9,29.2,91.9,29.2z"/>
		<path class="st1" d="M91.7,41.8v23.5c0,2.7-0.1,4.5-0.3,5.6s-0.7,2.2-1.6,3.3c-0.9,1.1-2,2-3.4,2.6c-1.4,0.6-3.1,0.9-5,0.9
			c-2.1,0-4-0.3-5.6-1c-1.6-0.7-2.8-1.6-3.7-2.7c-0.8-1.1-1.3-2.3-1.4-3.5c-0.1-1.2-0.2-3.8-0.2-7.8V41.8h7.8v25.6
			c0,1.5,0.1,2.3,0.2,2.7c0.2,0.4,0.6,1.1,1.1,1.2c0.6,0.1,3,0.4,3.5-0.5c0.1-0.1,0.6-0.1,0.7-3.1V41.8H91.7z"/>
		<path class="st1" d="M103.7,54.2v28.2h10.3v7.1H96V54.2H103.7z"/>
	</g>
	<g>
		<path class="st1" d="M41,152.7c-1,0.5-3.1,1-5.8,1c-6.2,0-10.8-3.9-10.8-11.1c0-6.8,4.6-11.5,11.4-11.5c2.7,0,4.4,0.6,5.2,1
			l-0.7,2.3c-1.1-0.5-2.6-0.9-4.4-0.9c-5.1,0-8.5,3.3-8.5,9c0,5.3,3.1,8.8,8.4,8.8c1.7,0,3.5-0.4,4.6-0.9L41,152.7z"/>
		<path class="st1" d="M55.9,143.2h-8.5v7.9h9.5v2.4H44.6v-21.9h11.8v2.4h-9v6.9h8.5V143.2z"/>
		<path class="st1" d="M60.5,131.9c1.4-0.3,3.5-0.5,5.4-0.5c3,0,5,0.5,6.3,1.8c1.1,1,1.7,2.5,1.7,4.2c0,2.9-1.8,4.8-4.1,5.6v0.1
			c1.7,0.6,2.7,2.1,3.2,4.4c0.7,3,1.2,5.2,1.7,6h-2.9c-0.4-0.6-0.8-2.5-1.5-5.2c-0.6-3-1.8-4.2-4.4-4.2h-2.7v9.5h-2.8V131.9z
			 M63.3,141.8h2.9c3,0,4.9-1.7,4.9-4.2c0-2.8-2-4.1-5-4.1c-1.4,0-2.3,0.1-2.8,0.3V141.8z"/>
		<path class="st1" d="M82.1,134h-6.6v-2.4h16.2v2.4H85v19.5h-2.9V134z"/>
		<path class="st1" d="M96.9,131.6v21.9h-2.8v-21.9H96.9z"/>
		<path class="st1" d="M101.8,131.6h11.8v2.4h-9v7.3h8.3v2.3h-8.3v9.9h-2.8V131.6z"/>
		<path class="st1" d="M120.5,131.6v21.9h-2.8v-21.9H120.5z"/>
		<path class="st1" d="M136.7,143.2h-8.5v7.9h9.5v2.4h-12.3v-21.9h11.8v2.4h-9v6.9h8.5V143.2z"/>
		<path class="st1" d="M141.4,131.9c1.7-0.3,3.8-0.5,6-0.5c4.1,0,6.9,0.9,8.9,2.7c1.9,1.8,3.1,4.3,3.1,7.8c0,3.6-1.1,6.5-3.1,8.5
			c-2,2-5.4,3.1-9.7,3.1c-2,0-3.7-0.1-5.1-0.3V131.9z M144.2,151.2c0.7,0.1,1.8,0.2,2.9,0.2c6,0,9.3-3.4,9.3-9.3
			c0-5.2-2.9-8.4-8.9-8.4c-1.5,0-2.6,0.1-3.3,0.3V151.2z"/>
	</g>
</g>
</svg>
