<?xml version="1.0" encoding="utf-8"?>
<!-- Generator: Adobe Illustrator 28.0.0, SVG Export Plug-In . SVG Version: 6.00 Build 0)  -->
<svg version="1.1" id="Capa_1" xmlns="http://www.w3.org/2000/svg" xmlns:xlink="http://www.w3.org/1999/xlink" x="0px" y="0px"
	 viewBox="0 0 250 72" style="enable-background:new 0 0 250 72;" xml:space="preserve">
<style type="text/css">
	.st0{fill:#2E2528;}
	.st1{fill:#F2902A;}
	.st2{fill:#F2922F;}
	.st3{fill:#F2912C;}
</style>
<g>
	<g>
		<path class="st0" d="M4.1,39.2c0.4-0.4,0.9-0.4,1.4-0.4c2.6,0,5.3,0,7.9,0c1.1,0,1.9,0.4,2.6,1.3C22,48,28.1,55.8,34.2,63.6
			c2.7,3.5,5.8,3.5,8.5,0c4.4-5.7,8.5-11.6,12.7-17.4C65.4,31.9,75.5,17.5,85.6,3c1-1.4,2.1-2.2,4-2.1c2.2,0.2,4.5,0,6.7,0.1
			c0.5,0,1.2-0.3,1.5,0.4c0.3,0.6-0.2,1-0.5,1.5c-4.2,5.8-8.3,11.7-12.5,17.5c-11.7,16.4-23.4,32.8-35,49.2c-0.4,0.5-0.8,1-1.2,1.5
			c-6.6,0-13.2,0-19.8,0c-1.1-0.5-1.7-1.6-2.4-2.5c-7.1-9-14.2-18.1-21.2-27.1c-0.4-0.5-0.7-1.1-1-1.7C4.1,39.6,4.1,39.4,4.1,39.2z"
			/>
		<path class="st1" d="M56.7,71.1c1.2-1.4,2.4-2.8,3.6-4.3c0.3-0.4,0.7-0.6,1.2-0.6c0.4,0,0.7,0,1.1,0c58.9,0,117.8,0,176.7,0
			c2.2,0,1.9-0.3,2,1.9c0,1,0,1.9,0,2.9C179.7,71.1,118.2,71.1,56.7,71.1z"/>
		<path class="st0" d="M217.9,49.3c0-1.7,0.1-3.3,0-5c-0.1-1.3,0.5-1.9,1.5-2.5c3.8-2.2,8-2.5,12.2-2.2c3.2,0.3,6.3,1,9.3,2
			c0.9,0.3,1.3,0.7,1.3,1.7c0,3.9,0.1,3.9-3.9,4c-1.7,0-3-0.2-4-1.8c-1.5-2.3-3.9-2.8-6.5-1.8c-2.7,1-4.1,3.1-4.1,5.8
			c0,3.1,3.7,5.8,6.9,5.1c2-0.4,3.6-1.4,4.7-3.1c0.3-0.5,0.5-0.8,1.2-0.7c1.6,0,3.1,0,4.7,0c0.8,0,1.1,0.3,1,1.1c0,0.1,0,0.1,0,0.2
			c-0.1,4.5,1,3.7-3.8,5.2c-5.6,1.6-11.2,2.3-16.9,0.7c-0.4-0.1-0.9-0.3-1.3-0.4c-1.7-0.5-2.5-1.5-2.3-3.3
			C218,52.5,217.9,50.9,217.9,49.3z"/>
		<path class="st0" d="M85,49.1c0-1.8,0.1-3.5,0-5.3c0-1,0.4-1.6,1.2-2.1c3.1-1.9,6.6-2.5,10.2-2.5c3.9,0.1,7.7,0.9,11.5,2.1
			c1,0.3,1.4,0.9,1.4,2c0,3.8,0,3.7-3.8,3.8c-1.7,0-2.9-0.2-4-1.8c-1.6-2.5-4.2-2.9-7-1.6c-2.5,1.1-3.9,3.7-3.5,6.4
			c0.4,2.7,4.2,5,7.1,4.2c1.8-0.5,3.4-1.4,4.4-3c0.4-0.7,0.8-0.9,1.6-0.9c1.4,0,2.8,0,4.3,0c0.8,0,1.1,0.3,1.1,1.1
			c0,1.1,0,2.1,0,3.2c0,0.6-0.2,1-0.9,1.3c-7,2.5-14.1,3.7-21.4,1.1c-1.5-0.5-2.2-1.3-2.1-3C85.1,52.5,85,50.8,85,49.1z"/>
		<path class="st0" d="M189.8,49c0,2.6,0,5.2,0,7.7c0,0.9-0.3,1.3-1.2,1.2c-1.2-0.1-2.3,0-3.5,0c-0.8,0-1.4-0.3-1.7-1
			c-0.3-0.7-0.6-0.7-1.2-0.4c-5.6,2.7-11.3,2.1-16.9-0.1c-0.9-0.3-1.3-1-1.3-2c0-4.3,0-8.7,0-13c0-1.1,0.4-1.4,1.4-1.4
			c1.4,0.1,2.7,0,4.1,0c0.8,0,1.2,0.2,1.2,1.1c0,3.2,0.1,6.4,0.1,9.5c0,1.3,0.4,2.3,1.6,2.8c3.1,1.5,6.1,1.7,9.1-0.2
			c1.2-0.8,1.9-1.9,1.8-3.4c-0.1-2.8,0-5.7-0.1-8.5c0-1.1,0.3-1.4,1.4-1.4c1.3,0.1,2.6,0.1,4,0c1-0.1,1.4,0.2,1.4,1.3
			C189.7,44,189.8,46.5,189.8,49z"/>
		<path class="st0" d="M114.8,50.4c0-1.4-0.1-2.8,0-4.2c0.1-1.2-0.3-1.7-1.5-1.6c-0.6,0-1.4,0.3-1.7-0.3c-0.4-0.9-0.3-1.9,0-2.8
			c0.2-0.7,1.1-0.4,1.6-0.4c1.2,0.1,1.6-0.3,1.5-1.5c0-4,0-4,4-4c3.1,0,2.7-0.3,2.7,2.8c0,3.1-0.4,2.8,2.7,2.8c0.2,0,0.4,0,0.6,0
			c2.1,0,2.7,0.8,2.1,2.9c-0.2,0.6-0.5,0.6-1,0.6c-1.1,0-2.2,0-3.3,0c-0.8,0-1.1,0.2-1.1,1c0,2.4,0,4.8,0,7.3c0,0.9,0.4,1.5,1.3,1.5
			c0.9,0,1.1-0.7,1.1-1.4c-0.1-1.7,0.7-2,2.2-1.9c1,0.1,1.9,0.1,2.9,0c1.3-0.2,1.5,0.4,1.6,1.5c0,2.6-0.5,3.7-2.9,4.7
			c-3.7,1.6-7.4,1.3-11.1-0.1c-1.1-0.4-1.7-1.3-1.6-2.6C114.9,53.4,114.8,51.9,114.8,50.4z"/>
		<path class="st0" d="M202.1,45.3c0,3.8,0,7.6,0,11.4c0,1.1-0.3,1.5-1.4,1.5c-1.8-0.1-3.5,0-5.3,0c-0.8,0-1.1-0.3-1.1-1.1
			c0-7.8,0-15.5,0-23.3c0-1,0.4-1.2,1.3-1.2c1.7,0,3.4,0.1,5.2,0c1.1,0,1.4,0.3,1.4,1.4C202.1,37.7,202.1,41.5,202.1,45.3z"/>
		<path class="st0" d="M80.8,51.7c0,1.7,0,3.4,0,5.1c0,1-0.4,1.4-1.3,1.4c-1.3,0-2.6,0-3.9,0c-1,0-1.4-0.4-1.4-1.4
			c0-3.6,0-7.2,0-10.7c0-0.9,0.4-1.1,1.2-1.1c1.4,0,2.7,0,4.1,0c0.9,0,1.4,0.4,1.3,1.4C80.8,48.1,80.8,49.9,80.8,51.7z"/>
		<path class="st0" d="M206.8,51.3c0-1.7,0-3.3,0-5c0-1,0.3-1.5,1.4-1.4c1.3,0.1,2.5,0,3.8,0c1,0,1.5,0.4,1.5,1.4c0,3.5,0,7,0,10.5
			c0,0.9-0.4,1.3-1.3,1.3c-1.4,0-2.7,0-4.1,0c-1,0-1.3-0.5-1.2-1.3C206.8,55,206.8,53.2,206.8,51.3z"/>
		<path class="st2" d="M77.3,42.7c-0.5,0-1,0-1.5,0c-1.3,0.1-1.8-0.3-1.8-1.7c0-1.4,0.5-1.9,1.9-1.8c1.1,0.1,2.2,0.1,3.3,0
			c1.4-0.1,1.5,0.7,1.5,1.8c0,1.1-0.2,1.8-1.5,1.7C78.6,42.7,77.9,42.7,77.3,42.7z"/>
		<path class="st3" d="M210,42.6c-0.5,0-1,0-1.5,0c-1.8,0-1.9-0.2-1.9-2c0-0.9,0.3-1.4,1.3-1.4c1.4,0,2.8,0,4.2,0
			c1.4,0,1.3,0.9,1.3,1.9c0,0.9-0.2,1.6-1.3,1.5C211.4,42.6,210.7,42.6,210,42.6z"/>
		<path class="st0" d="M159.6,51.4c0.2-2.3,0.2-4.4,0.1-6.5c0-0.5-0.1-0.9-0.7-1.2c-7.5-4.2-15.2-5.4-23.3-2.1
			c-3,1.2-2.9,1.2-2.9,4.4c0,1,0.3,1.4,1.3,1.3c1.5-0.1,3-0.1,4.6,0c1.1,0,1.9-0.2,2.5-1.4c1.1-2.1,3.2-2.8,5.6-2.5
			c1.9,0.3,3.4,1.1,3.9,3.1c0.2,0.9,0.7,1.9,0.1,2.6c-0.5,0.5-1.4-0.2-2.1-0.4c-5.2-1.3-10.2-0.9-14.7,2.2c-1.6,1.1-1.6,3.9,0,4.9
			c2.6,1.7,5.5,2.4,8.6,2.5c3.5,0.1,6.9-0.4,10.2-1.3c0.4-0.1,0.9-0.7,1.1,0.1c0.4,1.2,1.2,1.5,2.3,1.4c1-0.1,2,0,3-0.1
			c0.6-0.1,0.4-0.7,0.4-1.2C159.7,55.3,159.6,53.3,159.6,51.4z M148.8,53.9c-2.7,1.2-5.5,1.2-8.2,0c-1.1-0.5-1-1.1,0-1.8
			c0.8-0.5,2.4-0.8,4.1-0.8c1.4,0,2.8,0.1,4.1,0.8C149.9,52.6,149.9,53.5,148.8,53.9z"/>
	</g>
	<g>
		<path d="M245.9,35.6c0,1.6-1.3,2.9-3,2.9c-1.7,0-3-1.3-3-2.9c0-1.6,1.3-2.9,3-2.9C244.7,32.7,245.9,34,245.9,35.6z M240.8,35.6
			c0,1.3,0.9,2.3,2.2,2.3c1.3,0,2.2-1,2.2-2.3c0-1.3-0.9-2.3-2.2-2.3C241.7,33.3,240.8,34.3,240.8,35.6z M242.5,37.1h-0.7v-2.9
			c0.3-0.1,0.6-0.1,1.1-0.1c0.5,0,0.8,0.1,1,0.2c0.2,0.1,0.3,0.4,0.3,0.6c0,0.3-0.2,0.6-0.6,0.7v0c0.3,0.1,0.4,0.3,0.5,0.7
			c0.1,0.4,0.1,0.6,0.2,0.7h-0.7c-0.1-0.1-0.1-0.4-0.2-0.7c-0.1-0.3-0.2-0.5-0.6-0.5h-0.3V37.1z M242.6,35.5h0.3
			c0.4,0,0.7-0.1,0.7-0.4c0-0.3-0.2-0.4-0.6-0.4c-0.2,0-0.3,0-0.4,0V35.5z"/>
	</g>
</g>
</svg>
