<?xml version="1.0" encoding="utf-8"?>
<!-- Generator: Adobe Illustrator 28.0.0, SVG Export Plug-In . SVG Version: 6.00 Build 0)  -->
<svg version="1.1" id="Capa_1" xmlns="http://www.w3.org/2000/svg" xmlns:xlink="http://www.w3.org/1999/xlink" x="0px" y="0px"
	 viewBox="0 0 363.2 273.9" style="enable-background:new 0 0 363.2 273.9;" xml:space="preserve">
<style type="text/css">
	.st0{fill:#FFFFFF;}
	.st1{fill:#30AA53;}
	.st2{opacity:0.72;}
	.st3{clip-path:url(#SVGID_00000139277120844258042620000013178618980084263315_);fill:#29A845;}
	.st4{fill:#4CB377;}
	.st5{clip-path:url(#SVGID_00000040563180676357604150000001928596740748897961_);fill:#29A845;}
	.st6{clip-path:url(#SVGID_00000028325390108825106160000003604452526954932413_);fill:#29A845;}
	.st7{clip-path:url(#SVGID_00000043452787954673861960000018328277808609359273_);fill:#29A845;}
	.st8{clip-path:url(#SVGID_00000067918605334132924470000012391255740956296120_);fill:#29A845;}
	.st9{clip-path:url(#SVGID_00000104687490426182754810000014444520099698870454_);fill:#29A845;}
	.st10{fill:#86C6A1;}
	.st11{clip-path:url(#SVGID_00000016072953541631028790000007955718491592469688_);fill:#29A845;}
	.st12{clip-path:url(#SVGID_00000037694725035103261540000014073852714805280946_);fill:#29A845;}
</style>
<g>
	<g>
		<g>
			<polygon class="st0" points="23.9,245.5 23.9,215.7 13.2,215.7 13.2,207 44.6,207 44.6,215.7 33.9,215.7 33.9,245.5 			"/>
		</g>
		<path class="st0" d="M52.2,229.9V207h10.1v22.6c0,4.6,2.8,7.9,8.1,7.9s8.1-3.3,8.1-7.9V207h10v22.8c0,9.6-5.8,16.3-18.1,16.3
			C58.1,246.2,52.2,239.4,52.2,229.9"/>
		<g>
			<polygon class="st0" points="108.8,245.5 94.3,207 105.6,207 115.1,234.8 124.5,207 135.8,207 121.3,245.5 			"/>
		</g>
		<g>
			<path class="st0" d="M165.1,245.5l-1.9-5.5H148l-1.9,5.5h-11.2l14.5-38.5h12.5l14.5,38.5H165.1z M155.7,216.8l-4.9,14.5h9.8
				L155.7,216.8z"/>
		</g>
		<g>
			<polygon class="st0" points="208.3,245.5 192,223.2 192,245.5 182.1,245.5 182.1,207 192.3,207 207.9,228.2 207.9,207 217.9,207 
				217.9,245.5 			"/>
		</g>
		<path class="st0" d="M225.7,226.3c0-11.7,8.8-19.9,20.6-19.9c11.8,0,20.5,8.2,20.5,19.9c0,11.7-8.8,19.9-20.5,19.9
			S225.7,238,225.7,226.3 M256.8,226.3c0-6.3-4.1-11.1-10.4-11.1s-10.5,4.8-10.5,11.1c0,6.2,4.2,11.1,10.5,11.1
			S256.8,232.5,256.8,226.3"/>
		<path class="st0" d="M272,240.1l5.2-7.7c2.8,2.8,7,5.1,12.3,5.1c3.3,0,5.4-1.2,5.4-3.1c0-5.1-21.8-0.9-21.8-15.7
			c0-6.5,5.4-12.2,15.3-12.2c6.2,0,11.5,1.8,15.6,5.4l-5.4,7.4c-3.2-2.7-7.4-4-11.2-4c-2.9,0-4.2,1-4.2,2.7
			c0,4.7,21.7,1.2,21.7,15.5c0,7.7-5.7,12.9-16,12.9C281.3,246.2,275.9,243.7,272,240.1"/>
		<g>
			<path class="st0" d="M338.2,245.5l-1.9-5.5h-15.2l-1.9,5.5H308l14.5-38.5H335l14.5,38.5H338.2z M328.7,216.8l-4.9,14.5h9.8
				L328.7,216.8z"/>
		</g>
	</g>
	<g>
		<g>
			<polygon class="st0" points="13.1,195.8 13.1,170.6 29.1,170.6 29.1,172.5 15.3,172.5 15.3,181.9 28.9,181.9 28.9,183.8 
				15.3,183.8 15.3,195.8 			"/>
		</g>
		<path class="st0" d="M50.3,186.1v-15.5h2.2v15.5c0,5.1,2.7,8.2,7.6,8.2c5,0,7.6-3.1,7.6-8.2v-15.5h2.2v15.5
			c0,6.2-3.3,10.1-9.8,10.1S50.3,192.3,50.3,186.1"/>
		<g>
			<polygon class="st0" points="110.9,195.8 95,174.1 95,195.8 92.9,195.8 92.9,170.6 95.1,170.6 110.9,191.9 110.9,170.6 
				113,170.6 113,195.8 			"/>
		</g>
		<path class="st0" d="M135.9,195.8v-25.2h8.1c7.8,0,12.7,5.7,12.7,12.6c0,7-4.9,12.6-12.7,12.6H135.9z M154.5,183.2
			c0-5.9-3.8-10.7-10.5-10.7h-5.9v21.3h5.9C150.6,193.8,154.5,189.1,154.5,183.2"/>
		<g>
			<path class="st0" d="M195.5,195.8l-2.5-6.2h-13.3l-2.5,6.2h-2.5l10.3-25.2h2.7l10.3,25.2H195.5z M186.4,172.9l-6,14.7h11.9
				L186.4,172.9z"/>
		</g>
		<path class="st0" d="M215.9,183.2c0-7.7,5.6-13,12.8-13c4,0,7.1,1.8,9.2,4.5l-1.8,1.2c-1.6-2.2-4.3-3.7-7.4-3.7
			c-5.9,0-10.5,4.5-10.5,11.1c0,6.5,4.6,11.1,10.5,11.1c3,0,5.8-1.5,7.4-3.7l1.9,1.1c-2.3,2.8-5.2,4.5-9.2,4.5
			C221.6,196.2,215.9,191,215.9,183.2"/>
		<g>
			<rect x="258.9" y="170.6" class="st0" width="2.2" height="25.2"/>
		</g>
		<path class="st0" d="M283,183.2c0-7.4,4.8-13,12.3-13c7.4,0,12.3,5.7,12.3,13c0,7.4-4.9,13-12.3,13S283,190.6,283,183.2
			 M305.3,183.2c0-6.4-3.9-11.1-10-11.1s-10,4.7-10,11.1c0,6.4,3.9,11.1,10,11.1C301.3,194.3,305.3,189.6,305.3,183.2 M294.8,168.3
			h-1.7l5.8-5.4h2.3L294.8,168.3z"/>
		<g>
			<polygon class="st0" points="347.5,195.8 331.7,174.1 331.7,195.8 329.5,195.8 329.5,170.6 331.7,170.6 347.5,191.9 347.5,170.6 
				349.7,170.6 349.7,195.8 			"/>
		</g>
	</g>
</g>
<g>
	<path class="st1" d="M163.6,67.9c-2.4-5.4-3.9-11.3-3.9-17.6c0-4.3,0.7-8.4,1.8-12.2c-9.7-5.3-21-6.5-31.5-3.7
		c-2.8,10.5-1.5,21.8,3.7,31.5c3.9-1.1,7.9-1.8,12.2-1.8C152.3,64.2,158.3,65.5,163.6,67.9"/>
	<path class="st1" d="M163.6,103.3c-5.4,2.4-11.3,3.9-17.6,3.9c-4.3,0-8.4-0.7-12.2-1.8c-5.3,9.7-6.5,21-3.7,31.5
		c10.5,2.8,21.8,1.5,31.5-3.7c-1.1-3.9-1.8-7.9-1.8-12.2C159.8,114.6,161.2,108.7,163.6,103.3"/>
	<path class="st1" d="M156.4,85.7c-5.5-2.1-10.7-5.3-15.1-9.7c-3-3-5.4-6.4-7.4-9.9c-10.6,3.2-19.5,10.2-24.9,19.6
		c5.4,9.4,14.3,16.5,24.9,19.6c1.9-3.5,4.3-6.9,7.4-9.9C145.6,90.9,150.8,87.7,156.4,85.7"/>
	<path class="st1" d="M198.9,103.3c2.4,5.4,3.9,11.3,3.9,17.6c0,4.3-0.7,8.4-1.8,12.2c9.7,5.3,21,6.5,31.5,3.7
		c2.8-10.5,1.5-21.8-3.7-31.5c-3.9,1.1-7.9,1.8-12.2,1.8C210.2,107.1,204.3,105.7,198.9,103.3"/>
	<path class="st1" d="M198.9,67.9c5.4-2.4,11.3-3.9,17.6-3.9c4.3,0,8.4,0.7,12.2,1.8c5.3-9.7,6.5-21,3.7-31.5
		c-10.5-2.8-21.8-1.5-31.5,3.7c1.1,3.9,1.8,7.9,1.8,12.2C202.7,56.7,201.4,62.6,198.9,67.9"/>
	<g class="st2">
		<g>
			<g>
				<defs>
					<rect id="SVGID_1_" x="133.8" y="64.2" width="41.5" height="21.5"/>
				</defs>
				<clipPath id="SVGID_00000058589328003233279990000000473818376941324215_">
					<use xlink:href="#SVGID_1_"  style="overflow:visible;"/>
				</clipPath>
				<path style="clip-path:url(#SVGID_00000058589328003233279990000000473818376941324215_);fill:#29A845;" d="M156.4,85.7
					c6.1-2.3,12.6-3.1,18.9-2.5c-5-4.1-9-9.2-11.7-15.2c-5.4-2.4-11.3-3.9-17.6-3.9c-4.3,0-8.4,0.7-12.2,1.8
					c1.9,3.5,4.3,6.9,7.4,9.9C145.6,80.4,150.8,83.6,156.4,85.7"/>
			</g>
		</g>
	</g>
	<path class="st4" d="M156.4,85.7c6.1-2.3,12.6-3.1,18.9-2.5c-5-4.1-9-9.2-11.7-15.2c-5.4-2.4-11.3-3.9-17.6-3.9
		c-4.3,0-8.4,0.7-12.2,1.8c1.9,3.5,4.3,6.9,7.4,9.9C145.6,80.4,150.8,83.6,156.4,85.7"/>
	<g class="st2">
		<g>
			<g>
				<defs>
					<rect id="SVGID_00000048499405775766288280000003401500880717368199_" x="133.8" y="85.7" width="41.5" height="21.5"/>
				</defs>
				<clipPath id="SVGID_00000098918992001045236840000001513110142545570236_">
					<use xlink:href="#SVGID_00000048499405775766288280000003401500880717368199_"  style="overflow:visible;"/>
				</clipPath>
				<path style="clip-path:url(#SVGID_00000098918992001045236840000001513110142545570236_);fill:#29A845;" d="M163.6,103.3
					c2.6-5.9,6.7-11,11.7-15.2c-6.4,0.6-12.9-0.2-18.9-2.5c-5.5,2.1-10.7,5.3-15.1,9.7c-3,3-5.4,6.4-7.4,9.9
					c3.9,1.1,7.9,1.8,12.2,1.8C152.3,107.1,158.3,105.7,163.6,103.3"/>
			</g>
		</g>
	</g>
	<path class="st4" d="M163.6,103.3c2.6-5.9,6.7-11,11.7-15.2c-6.4,0.6-12.9-0.2-18.9-2.5c-5.5,2.1-10.7,5.3-15.1,9.7
		c-3,3-5.4,6.4-7.4,9.9c3.9,1.1,7.9,1.8,12.2,1.8C152.3,107.1,158.3,105.7,163.6,103.3"/>
	<path class="st1" d="M253.7,85.7c-5.4-9.4-14.3-16.5-24.9-19.6c-1.9,3.5-4.3,6.9-7.4,9.9c-4.4,4.4-9.6,7.6-15.1,9.7
		c5.5,2.1,10.7,5.3,15.1,9.7c3,3,5.4,6.4,7.4,9.9C239.3,102.2,248.2,95,253.7,85.7"/>
	<g class="st2">
		<g>
			<g>
				<defs>
					<rect id="SVGID_00000013156401898308097230000014952794721492238216_" x="187.3" y="85.7" width="41.5" height="21.5"/>
				</defs>
				<clipPath id="SVGID_00000076600140569284237480000010362164615357465741_">
					<use xlink:href="#SVGID_00000013156401898308097230000014952794721492238216_"  style="overflow:visible;"/>
				</clipPath>
				<path style="clip-path:url(#SVGID_00000076600140569284237480000010362164615357465741_);fill:#29A845;" d="M206.3,85.7
					c-6.1,2.3-12.6,3.1-18.9,2.5c5,4.1,9,9.2,11.7,15.2c5.4,2.4,11.3,3.9,17.6,3.9c4.3,0,8.4-0.7,12.2-1.8c-1.9-3.5-4.3-6.9-7.4-9.9
					C216.9,90.9,211.8,87.7,206.3,85.7"/>
			</g>
		</g>
	</g>
	<path class="st4" d="M206.3,85.7c-6.1,2.3-12.6,3.1-18.9,2.5c5,4.1,9,9.2,11.7,15.2c5.4,2.4,11.3,3.9,17.6,3.9
		c4.3,0,8.4-0.7,12.2-1.8c-1.9-3.5-4.3-6.9-7.4-9.9C216.9,90.9,211.8,87.7,206.3,85.7"/>
	<g class="st2">
		<g>
			<g>
				<defs>
					<rect id="SVGID_00000013877218223603997670000011322975548451447436_" x="187.3" y="64.2" width="41.5" height="21.5"/>
				</defs>
				<clipPath id="SVGID_00000011007468171741494630000011424665732883614394_">
					<use xlink:href="#SVGID_00000013877218223603997670000011322975548451447436_"  style="overflow:visible;"/>
				</clipPath>
				<path style="clip-path:url(#SVGID_00000011007468171741494630000011424665732883614394_);fill:#29A845;" d="M198.9,67.9
					c-2.6,5.9-6.7,11-11.7,15.2c6.4-0.6,12.9,0.2,18.9,2.5c5.5-2.1,10.7-5.3,15.1-9.7c3-3,5.4-6.4,7.4-9.9
					c-3.9-1.1-7.9-1.8-12.2-1.8C210.2,64.2,204.3,65.5,198.9,67.9"/>
			</g>
		</g>
	</g>
	<path class="st4" d="M198.9,67.9c-2.6,5.9-6.7,11-11.7,15.2c6.4-0.6,12.9,0.2,18.9,2.5c5.5-2.1,10.7-5.3,15.1-9.7
		c3-3,5.4-6.4,7.4-9.9c-3.9-1.1-7.9-1.8-12.2-1.8C210.2,64.2,204.3,65.5,198.9,67.9"/>
	<path class="st1" d="M181.3,60.7c2.1-5.5,5.3-10.7,9.7-15.1c3-3,6.4-5.4,9.9-7.4c-3.2-10.6-10.2-19.5-19.6-24.9
		c-9.4,5.4-16.5,14.3-19.6,24.9c3.5,1.9,6.9,4.3,9.9,7.4C176,50,179.2,55.2,181.3,60.7"/>
	<g class="st2">
		<g>
			<g>
				<defs>
					<rect id="SVGID_00000124882797138919526780000009994630692499716790_" x="159.8" y="38.2" width="21.5" height="41.5"/>
				</defs>
				<clipPath id="SVGID_00000057843514027555306970000004129969004817141128_">
					<use xlink:href="#SVGID_00000124882797138919526780000009994630692499716790_"  style="overflow:visible;"/>
				</clipPath>
				<path style="clip-path:url(#SVGID_00000057843514027555306970000004129969004817141128_);fill:#29A845;" d="M163.6,67.9
					c5.9,2.6,11,6.7,15.2,11.7c-0.6-6.4,0.2-12.9,2.5-18.9c-2.1-5.5-5.3-10.7-9.7-15.1c-3-3-6.4-5.4-9.9-7.4
					c-1.1,3.9-1.8,7.9-1.8,12.2C159.8,56.7,161.2,62.6,163.6,67.9"/>
			</g>
		</g>
	</g>
	<path class="st4" d="M163.6,67.9c5.9,2.6,11,6.7,15.2,11.7c-0.6-6.4,0.2-12.9,2.5-18.9c-2.1-5.5-5.3-10.7-9.7-15.1
		c-3-3-6.4-5.4-9.9-7.4c-1.1,3.9-1.8,7.9-1.8,12.2C159.8,56.7,161.2,62.6,163.6,67.9"/>
	<g class="st2">
		<g>
			<g>
				<defs>
					<rect id="SVGID_00000159469627676663802280000017134880892334050456_" x="181.3" y="38.2" width="21.5" height="41.4"/>
				</defs>
				<clipPath id="SVGID_00000029048031672017914240000016422897820470746508_">
					<use xlink:href="#SVGID_00000159469627676663802280000017134880892334050456_"  style="overflow:visible;"/>
				</clipPath>
				<path style="clip-path:url(#SVGID_00000029048031672017914240000016422897820470746508_);fill:#29A845;" d="M181.3,60.7
					c2.3,6.1,3.1,12.6,2.5,18.9c4.1-5,9.2-9,15.2-11.7c2.4-5.4,3.9-11.3,3.9-17.6c0-4.3-0.7-8.4-1.8-12.2c-3.5,1.9-6.9,4.3-9.9,7.4
					C186.5,50,183.4,55.2,181.3,60.7"/>
			</g>
		</g>
	</g>
	<path class="st4" d="M181.3,60.7c2.3,6.1,3.1,12.6,2.5,18.9c4.1-5,9.2-9,15.2-11.7c2.4-5.4,3.9-11.3,3.9-17.6
		c0-4.3-0.7-8.4-1.8-12.2c-3.5,1.9-6.9,4.3-9.9,7.4C186.5,50,183.4,55.2,181.3,60.7"/>
	<path class="st10" d="M178.8,79.6c-4.2-4.8-9.2-8.9-15.2-11.7c2.6,5.9,6.7,11,11.7,15.2c1.3,0.1,2.6,0.2,4,0.4
		C179.1,82.2,179,80.9,178.8,79.6"/>
	<path class="st10" d="M183.8,91.6c4.1,5,9.2,9,15.2,11.7c-2.6-5.9-6.7-11-11.7-15.2c-1.3-0.1-2.6-0.2-4-0.4
		C183.6,89,183.7,90.3,183.8,91.6"/>
	<path class="st10" d="M187.3,83.1c5-4.1,9-9.2,11.7-15.2c-5.9,2.6-11,6.7-15.2,11.7c-0.1,1.3-0.2,2.6-0.4,4
		C184.7,83.3,186,83.2,187.3,83.1"/>
	<path class="st10" d="M175.3,88.1c-5,4.1-9,9.2-11.7,15.2c5.9-2.6,11-6.7,15.2-11.7c0.1-1.3,0.2-2.6,0.4-4
		C178,87.9,176.6,88,175.3,88.1"/>
	<path class="st10" d="M175.3,83.1c-6.4-0.6-12.9,0.2-18.9,2.5c6.1,2.3,12.6,3.1,18.9,2.5c1-0.9,2-1.8,3.1-2.5
		C177.3,84.9,176.3,84,175.3,83.1"/>
	<path class="st10" d="M187.3,83.1c-1,0.9-2,1.8-3.1,2.5c1.1,0.8,2.1,1.7,3.1,2.5c6.4,0.6,12.9-0.2,18.9-2.5
		C200.2,83.3,193.7,82.6,187.3,83.1"/>
	<path class="st10" d="M183.8,79.6c0.6-6.4-0.2-12.9-2.5-18.9c-2.3,6.1-3.1,12.6-2.5,18.9c0.9,1,1.8,2,2.5,3.1
		C182,81.7,182.9,80.7,183.8,79.6"/>
	<path class="st10" d="M178.8,91.6c-0.6,6.4,0.2,12.9,2.5,18.9c2.3-6.1,3.1-12.6,2.5-18.9c-0.9-1-1.8-2-2.5-3.1
		C180.5,89.6,179.6,90.6,178.8,91.6"/>
	<path class="st1" d="M181.3,110.5c-2.1,5.5-5.3,10.7-9.7,15.1c-3,3-6.4,5.4-9.9,7.4c3.2,10.6,10.2,19.5,19.6,24.9
		c9.4-5.4,16.5-14.3,19.6-24.9c-3.5-1.9-6.9-4.3-9.9-7.4C186.5,121.2,183.4,116,181.3,110.5"/>
	<g class="st2">
		<g>
			<g>
				<defs>
					<rect id="SVGID_00000031927856082254681720000014115407775212173496_" x="181.3" y="91.6" width="21.5" height="41.5"/>
				</defs>
				<clipPath id="SVGID_00000115508385374541481980000002865163989979632022_">
					<use xlink:href="#SVGID_00000031927856082254681720000014115407775212173496_"  style="overflow:visible;"/>
				</clipPath>
				<path style="clip-path:url(#SVGID_00000115508385374541481980000002865163989979632022_);fill:#29A845;" d="M198.9,103.3
					c-5.9-2.6-11-6.7-15.2-11.7c0.6,6.4-0.2,12.9-2.5,18.9c2.1,5.5,5.3,10.7,9.7,15.1c3,3,6.4,5.4,9.9,7.4c1.1-3.9,1.8-7.9,1.8-12.2
					C202.7,114.6,201.4,108.7,198.9,103.3"/>
			</g>
		</g>
	</g>
	<path class="st4" d="M198.9,103.3c-5.9-2.6-11-6.7-15.2-11.7c0.6,6.4-0.2,12.9-2.5,18.9c2.1,5.5,5.3,10.7,9.7,15.1
		c3,3,6.4,5.4,9.9,7.4c1.1-3.9,1.8-7.9,1.8-12.2C202.7,114.6,201.4,108.7,198.9,103.3"/>
	<g class="st2">
		<g>
			<g>
				<defs>
					<rect id="SVGID_00000111170735068772172720000015461369271220686732_" x="159.8" y="91.6" width="21.5" height="41.5"/>
				</defs>
				<clipPath id="SVGID_00000148662323598777837970000009602422461790611870_">
					<use xlink:href="#SVGID_00000111170735068772172720000015461369271220686732_"  style="overflow:visible;"/>
				</clipPath>
				<path style="clip-path:url(#SVGID_00000148662323598777837970000009602422461790611870_);fill:#29A845;" d="M181.3,110.5
					c-2.3-6.1-3.1-12.6-2.5-18.9c-4.1,5-9.1,9-15.1,11.7c-2.4,5.4-3.9,11.3-3.9,17.6c0,4.3,0.7,8.4,1.8,12.2
					c3.5-1.9,6.9-4.3,9.9-7.4C176,121.2,179.2,116,181.3,110.5"/>
			</g>
		</g>
	</g>
	<path class="st4" d="M181.3,110.5c-2.3-6.1-3.1-12.6-2.5-18.9c-4.1,5-9.1,9-15.1,11.7c-2.4,5.4-3.9,11.3-3.9,17.6
		c0,4.3,0.7,8.4,1.8,12.2c3.5-1.9,6.9-4.3,9.9-7.4C176,121.2,179.2,116,181.3,110.5"/>
	<path class="st0" d="M184.1,85.7c1.1-0.8,2.1-1.7,3.1-2.5c-1.3,0.1-2.6,0.2-4,0.4c0.2-1.3,0.3-2.6,0.4-4c-0.9,1-1.8,2-2.5,3.1
		c-0.8-1.1-1.7-2.1-2.5-3.1c0.1,1.3,0.2,2.6,0.4,4c-1.3-0.2-2.6-0.3-4-0.4c1,0.9,2,1.8,3.1,2.5c-1.1,0.8-2.1,1.7-3.1,2.5
		c1.3-0.1,2.6-0.2,4-0.4c-0.2,1.3-0.3,2.6-0.4,4c0.9-1,1.8-2,2.5-3.1c0.8,1.1,1.7,2.1,2.4,3.1l0,0l0,0c-0.1-1.3-0.2-2.6-0.4-4
		c1.3,0.2,2.6,0.3,4,0.4C186.2,87.2,185.2,86.4,184.1,85.7"/>
	<path class="st0" d="M178.8,91.6L178.8,91.6L178.8,91.6L178.8,91.6"/>
</g>
</svg>
