<?xml version="1.0" encoding="utf-8"?>
<!-- Generator: Adobe Illustrator 28.0.0, SVG Export Plug-In . SVG Version: 6.00 Build 0)  -->
<svg version="1.1" id="Capa_1" xmlns="http://www.w3.org/2000/svg" xmlns:xlink="http://www.w3.org/1999/xlink" x="0px" y="0px"
	 viewBox="0 0 269 92" style="enable-background:new 0 0 269 92;" xml:space="preserve">
<style type="text/css">
	.st0{fill:#939598;}
	.st1{fill:#183254;}
	.st2{fill:#F16622;}
</style>
<g id="Layer_2">
	<g id="Layer_1-2">
		<path class="st0" d="M153.4,44.6c0-4.1-3.1-6.6-7.8-6.6h-7.8v20.8h2.4v-7.4h5C149.6,51.5,153.4,49.2,153.4,44.6L153.4,44.6z
			 M151,44.7c0,2.8-2.2,4.6-5.7,4.6h-5.1v-9.2h5.3C148.8,40.2,151,41.7,151,44.7L151,44.7z M166.3,52.3c0,2.9-2,4.8-4.6,4.8
			c-2.7,0-4.3-1.8-4.3-4.6v-9h-2.3V53c0,3.7,2.2,6.2,5.9,6.2c2.2,0.1,4.2-1.1,5.3-3v2.7h2.3V43.4h-2.2L166.3,52.3L166.3,52.3z
			 M183.8,46.2c-0.9-1.9-2.8-3.1-4.9-3.1c-2.6,0-4,1.4-5,2.9v-2.6h-2.3v15.4h2.3v-8.8c0-2.8,1.8-4.9,4.3-4.9s4,1.7,4,4.6v9.1h2.2V50
			c0-3,1.9-4.8,4.3-4.8c2.5,0,4,1.7,4,4.6v9h2.3v-9.5c0-3.8-2.2-6.2-5.7-6.2C187,43.1,184.9,44.3,183.8,46.2L183.8,46.2z
			 M213.4,51.1c0-5.1-3.7-8-7.4-8c-2.8,0-4.6,1.6-5.9,3.4v-3.1h-2.3v20.2h2.3v-7.7c1.2,1.7,3,3.3,5.9,3.3
			C209.7,59.2,213.4,56.2,213.4,51.1L213.4,51.1z M211,51.2c0,3.8-2.4,6-5.4,6c-2.9,0-5.6-2.4-5.6-6s2.7-6,5.6-6
			C208.5,45.2,211.1,47.5,211,51.2L211,51.2z M226.1,54.5L226.1,54.5c0-2.8-2.6-3.8-4.9-4.5c-2.1-0.6-4-1.2-4-2.6v-0.1
			c0-1.3,1.2-2.2,3-2.2c1.6,0.1,3.2,0.6,4.6,1.5l1-1.7c-1.7-1.1-3.6-1.6-5.5-1.7c-3,0-5.2,1.8-5.2,4.4v0.1c0,2.8,2.7,3.7,5.1,4.3
			c2,0.6,3.8,1.2,3.8,2.7v0.1c0,1.5-1.3,2.4-3.2,2.4c-1.9-0.1-3.8-0.7-5.3-2l-1.2,1.6c1.8,1.4,4.1,2.2,6.4,2.2
			C223.7,59.1,226.1,57.5,226.1,54.5L226.1,54.5z"/>
		<path class="st1" d="M97.2,53.1L97.2,53.1c0-2.9-1.5-4.2-3.9-5.2c1.7-0.8,2.8-2.6,2.7-4.5v-0.1c0-3.3-2.6-5.4-6.9-5.4h-9.7v20.8
			h9.9C94.1,58.8,97.2,56.9,97.2,53.1z M91.5,44.2c0,1.5-1.3,2.2-3.3,2.2h-4.2V42h4.5C90.4,42,91.5,42.8,91.5,44.2L91.5,44.2z
			 M92.6,52.6c0,1.5-1.2,2.2-3.2,2.2h-5.4v-4.6h5.3C91.6,50.2,92.6,51.1,92.6,52.6L92.6,52.6z M111,51.7V38h-4.7v13.5
			c0,2.4-1.1,3.5-2.8,3.5c-1.5,0-2.6-0.8-3.8-2.1L96.8,56c1.7,2,4.2,3.2,6.8,3.1C108,59.2,111,56.7,111,51.7L111,51.7z M134.4,58.9
			V38h-4.9l-5.5,8.8l-5.5-8.8h-4.9v20.8h4.5V45.3l5.8,8.8h0.1l5.9-8.9v13.6L134.4,58.9z"/>
		<path class="st0" d="M231.7,43.9c0,1.4-1.1,2.6-2.5,2.6c-1.4,0-2.6-1.1-2.6-2.5c0-1.4,1.1-2.6,2.5-2.6h0.1
			C230.6,41.5,231.7,42.5,231.7,43.9L231.7,43.9z M227.3,43.9c0,1,0.8,1.9,1.8,2h0.1c1,0,1.9-0.8,1.9-1.9c0,0,0,0,0,0v-0.1
			c0-1-0.8-1.9-1.9-1.9c-1,0-1.8,0.8-1.9,1.7V43.9z M228.8,45.2h-0.6v-2.4c0.3-0.1,0.6-0.1,0.9-0.1c0.3,0,0.6,0,0.9,0.2
			c0.2,0.1,0.3,0.3,0.2,0.6c0,0.3-0.2,0.5-0.5,0.6v0c0.3,0.1,0.4,0.3,0.4,0.6c0,0.2,0.1,0.4,0.2,0.6h-0.6c-0.1-0.2-0.2-0.4-0.2-0.6
			c0-0.3-0.2-0.4-0.5-0.4h-0.3L228.8,45.2z M228.8,43.8h0.3c0.3,0,0.6-0.1,0.6-0.4s-0.2-0.4-0.5-0.4c-0.1,0-0.2,0-0.3,0L228.8,43.8z
			"/>
	</g>
</g>
<g>
	<path class="st2" d="M48.8,22c0.9,1.5,1.7,2.9,2.6,4.5c-0.2,0-0.3,0-0.5,0c-4.1,0-8.2,0-12.3,0c-0.3,0-0.5,0.1-0.6,0.3
		c-3.8,6.6-7.6,13.2-11.4,19.8c0,0.1-0.1,0.2-0.2,0.3c-0.6-1-1.1-2-1.7-2.9c-0.3-0.5-0.6-1-0.9-1.5c0,0,0-0.1,0-0.1
		c0.5-1,1-1.9,1.6-2.8c2.2-3.8,4.4-7.6,6.6-11.4c1.1-1.9,2.2-3.9,3.3-5.8c0.1-0.2,0.2-0.4,0.4-0.3c4.2,0,8.5,0,12.7,0
		C48.6,22,48.7,21.9,48.8,22z"/>
	<path class="st2" d="M54.1,22c1.7,0,3.5,0,5.2,0c3.3,5.7,6.5,11.3,9.8,17c0.6,1,1.2,2.1,1.8,3.1c0.1,0.2,0.1,0.3,0,0.5
		c-2.1,3.7-4.2,7.3-6.3,11c-0.1,0.1-0.2,0.2-0.4,0.2c-1.6,0-3.2,0-4.9,0c0,0,0,0-0.1,0c0.3-0.5,0.5-1,0.8-1.4
		c1.9-3.2,3.7-6.4,5.6-9.7c0.1-0.2,0.1-0.4,0-0.6c-3.8-6.6-7.6-13.2-11.4-19.8C54.2,22.2,54.1,22.1,54.1,22z"/>
	<path class="st2" d="M61.9,58.3c-0.6,1-1.1,2-1.7,2.9c-0.2,0.4-0.5,0.8-0.7,1.2c-0.1,0.2-0.3,0.3-0.5,0.3c-4.5,0-8.9,0-13.4,0
		c-3.2,0-6.3,0-9.5,0c-0.3,0-0.4-0.1-0.5-0.3c-2.1-3.6-4.2-7.2-6.2-10.8c-0.1-0.2-0.1-0.3,0-0.6c0.8-1.3,1.5-2.7,2.3-4
		c0-0.1,0.1-0.1,0.1-0.2c0.2,0.4,0.5,0.8,0.7,1.2c1.9,3.3,3.8,6.5,5.7,9.8c0.2,0.3,0.4,0.4,0.7,0.4c7.6,0,15.1,0,22.7,0
		C61.5,58.3,61.6,58.3,61.9,58.3z"/>
	<path class="st2" d="M38.3,35.5c0.9-1.5,1.7-2.9,2.5-4.4c0.1-0.2,0.3-0.1,0.4-0.1c2.6,0,5.2,0,7.8,0c1.6,0,3.2,0,4.8,0
		c0.1,0,0.3,0,0.4,0.1c0.8,1.4,1.7,2.9,2.5,4.4C50.5,35.5,44.4,35.5,38.3,35.5z"/>
	<path class="st2" d="M48.8,53.8c3.1-5.3,6.1-10.6,9.2-15.9c0.1,0,0.2,0.1,0.2,0.2c0.8,1.3,1.5,2.7,2.3,4c0.1,0.2,0.1,0.3,0,0.5
		c-2.1,3.6-4.2,7.3-6.3,10.9c-0.1,0.1-0.1,0.3-0.4,0.3C52.2,53.8,50.5,53.8,48.8,53.8z"/>
	<path class="st2" d="M46.1,53.8c-1.7,0-3.4,0-5,0c-0.2,0-0.3-0.1-0.4-0.3c-1.5-2.7-3.1-5.3-4.6-8c-0.6-1-1.1-1.9-1.7-2.9
		c-0.1-0.1-0.2-0.2-0.1-0.4c0.8-1.4,1.7-2.9,2.5-4.4C39.9,43.2,43,48.5,46.1,53.8z"/>
</g>
</svg>
