<?xml version="1.0" encoding="utf-8"?>
<!-- Generator: Adobe Illustrator 28.0.0, SVG Export Plug-In . SVG Version: 6.00 Build 0)  -->
<svg version="1.1" id="Capa_1" xmlns="http://www.w3.org/2000/svg" xmlns:xlink="http://www.w3.org/1999/xlink" x="0px" y="0px"
	 viewBox="0 0 254 92" style="enable-background:new 0 0 254 92;" xml:space="preserve">
<style type="text/css">
	.st0{fill:#085DA9;}
	.st1{fill:#010101;}
	.st2{fill:#010000;}
	.st3{fill:#FFFFFF;}
	.st4{fill:#FEFFFF;}
</style>
<g>
	<path class="st0" d="M35.7,55.1c0.7-0.4,1.3-0.9,1.8-1.4c2.1-2,3.3-4.5,3.8-7.4c0-0.1,0-0.2,0.1-0.3c0.1-0.2,0-0.5,0.1-0.6
		c0.2-0.2,0.5-0.1,0.7-0.1c2.9,0,5.8,0,8.7,0c0.1,0,0.2,0,0.3,0c0.2,0,0.3,0.1,0.3,0.3c0,0.7-0.2,1.3-0.7,1.8c-0.5,0.5-1,1-1.5,1.5
		c-6.6,6.7-13.2,13.4-19.8,20.1c-0.5,0.5-0.4,0.5-0.8,0c-7-7.1-14-14.2-21.1-21.2c-0.2-0.2-0.5-0.5-0.6-0.7
		c-0.3-0.5-0.2-1.1-0.2-1.6c0-0.1,0.1-0.2,0.2-0.2c0.1,0,0.2,0,0.3,0c2.9,0,5.9,0,8.8,0c0.1,0,0.2,0,0.3,0c0.2,0,0.2,0.1,0.3,0.3
		c0.2,4.1,2.3,7.1,5.5,9.4c0,0,0.1,0.1,0.1,0.1c0,0,0.1,0,0.1,0c0.1-0.2,0-0.3,0-0.5c0-5.5,0-11,0-16.4c0-0.4,0.1-0.6,0.4-0.8
		c1.7-1.4,3.5-2.8,5.2-4.2c0.3-0.2,0.5-0.3,0.9-0.3c0.6,0,1,0.2,1.4,0.6c1.6,1.7,3.3,3.3,5,4.9c0.2,0.2,0.3,0.4,0.3,0.8
		c0,1.2,0,2.3,0,3.5c0,0.1,0,0.3,0,0.5c-1-0.9-1.9-1.7-2.9-2.4c-0.2,0.1-0.1,0.2-0.1,0.3c0,0.5,0,0.9,0,1.4c0,0.3,0.1,0.4,0.3,0.6
		c0.8,0.7,1.6,1.4,2.5,2.1c0.2,0.1,0.2,0.3,0.2,0.5c0,1,0,2.1,0,3.1c0,0.1,0,0.1-0.1,0.2c-0.9-0.8-1.9-1.6-2.8-2.5
		c-0.1,0.2-0.1,0.4-0.1,0.6c0,0.5-0.2,1,0.1,1.4c0.2,0.4,0.6,0.6,1,0.9c0.5,0.5,1.1,1,1.6,1.4c0.2,0.2,0.3,0.4,0.3,0.7
		C35.7,52.6,35.7,53.8,35.7,55.1c-0.2,0.1-0.3-0.1-0.4-0.2c-1.2-1-2.3-2.2-3.4-3.2c-0.8-0.8-1.6-1.6-2.5-2.4
		c-0.4-0.3-0.5-0.7-0.5-1.2c0-3.4,0-6.9,0-10.3c0-0.2,0-0.4,0-0.6c-0.4,0.2-0.6,0.5-0.9,0.7c-0.5,0.4-1,0.9-1.6,1.3
		c-0.4,0.3-0.6,0.7-0.6,1.2c0,0.2,0,0.4,0.1,0.6c0.3-0.1,0.5-0.4,0.8-0.6c0.4-0.3,0.9-0.7,1.3-1c0.1-0.1,0.3-0.3,0.5-0.2
		c0.2,0.1,0.2,0.3,0.2,0.5c0,0.6,0,1.2,0,1.8c0,1.9,0.2,1.5-1.2,2.6c-0.4,0.3-0.8,0.6-1.2,0.9c-0.3,0.2-0.4,0.5-0.4,0.9
		c0,2.1,0,4.1,0,6.2c0,0.6-0.2,0.9-0.7,1.2c-0.7,0.4-1.3,0.8-1.9,1.2c-0.4,0.3-0.4,0.3,0,0.6c1.5,0.9,3.1,1.3,4.8,1.4
		c1,0,2,0.1,3.1-0.1c1.5-0.2,2.8-0.6,4.1-1.4C35.4,55.2,35.5,55.1,35.7,55.1z"/>
	<path class="st0" d="M46.5,43.9c-1.5,0-3,0-4.6,0c-0.4,0-0.4,0-0.5-0.4c-0.6-4.4-2.7-7.7-6.6-9.9c-1.3-0.7-2.7-1.1-4.2-1.2
		c-1.6-0.2-3.2,0-4.7,0.3c-1,0.2-2,0.7-2.9,1.2c-2.3,1.4-4.1,3.3-5.3,5.8c-0.6,1.2-0.9,2.5-1,3.8c0,0,0,0.1,0,0.1
		c0,0.5,0,0.5-0.5,0.5c-3,0-6,0-8.9,0c-0.1,0-0.1,0-0.2,0c-0.2,0-0.3,0-0.3-0.2c0-0.8,0.2-1.5,0.8-2.1c2.5-2.5,5-5,7.5-7.6
		c4.5-4.6,9.1-9.2,13.6-13.7c0.1-0.1,0.2-0.2,0.2-0.2c0.2-0.2,0.2-0.3,0.5,0c1.3,1.3,2.7,2.7,4,4c5.7,5.8,11.4,11.5,17.1,17.3
		c0.5,0.5,0.8,1,0.9,1.6c0,0.1,0,0.2,0,0.2c0.1,0.6,0.1,0.6-0.5,0.6C49.5,43.9,48,43.9,46.5,43.9z"/>
	<path d="M167,50.5c-2.2,0-4.3,0-6.5,0c-0.5,0-0.5,0-0.5-0.4c0-3.8,0-7.7,0-11.5c0-0.4,0-0.4,0.4-0.4c4.3,0,8.5,0,12.8,0
		c0.4,0,0.4,0,0.4,0.4c0,0.7,0,1.5,0,2.2c0,0.3-0.1,0.3-0.3,0.3c-1.7,0-3.4,0-5.1,0c-1.3,0-2.7,0-4,0c-0.4,0-0.4,0-0.4,0.4
		c0,0.4,0,0.8,0,1.2c0,0.4,0,0.4,0.4,0.4c0.8,0,1.7,0,2.5,0c2,0,4,0,5.9,0c0.4,0,0.4-0.1,0.4,0.4c0,0.6,0,1.2,0,1.8
		c0,0.3-0.1,0.3-0.3,0.3c-2.1,0-4.2,0-6.3,0c-0.8,0-1.6,0-2.3,0c-0.3,0-0.3,0.1-0.3,0.3c0,0.5,0,0.9,0,1.4c0,0.2,0.1,0.3,0.3,0.3
		c0.1,0,0.2,0,0.3,0c3,0,5.9,0,8.9,0c0.6,0,0.5,0,0.5,0.5c0,0.7,0,1.4,0,2.1c0,0.4,0,0.4-0.4,0.4C171.4,50.5,169.2,50.5,167,50.5z"
		/>
	<path d="M65,38.1c2,0,4,0,6.1,0c0.4,0,0.4,0,0.4,0.4c0,0.7,0,1.5,0,2.2c0,0.4,0,0.4-0.4,0.4c-2.7,0-5.4,0-8.1,0
		c-0.6,0-0.6,0-0.6,0.6c0,0.5,0,1,0,1.5c0,0.2,0.1,0.3,0.3,0.2c0.1,0,0.3,0,0.4,0c2.5,0,5,0,7.5,0c0.1,0,0.2,0,0.3,0
		c0.2,0,0.2,0.1,0.2,0.2c0,0.8,0,1.6,0,2.5c0,0.2-0.1,0.2-0.2,0.2c-0.1,0-0.2,0-0.3,0c-2.5,0-5.1,0-7.6,0c-0.1,0-0.2,0-0.3,0
		c-0.2,0-0.2,0.1-0.2,0.3c0,0.5,0,1.1,0,1.6c0,0.7,0,1.4,0,2.1c0,0.3-0.1,0.3-0.3,0.3c-1,0-2.1,0-3.1,0c-0.4,0-0.4,0-0.4-0.4
		c0-2.3,0-4.6,0-6.9c0-1.6,0-3.2,0-4.8c0-0.4,0-0.4,0.4-0.4C61,38.1,63,38.1,65,38.1z"/>
	<path d="M93.1,49.7c-0.1,0-0.1,0-0.1,0c-0.7,0.8-1.7,1-2.7,1c-1.1,0-2.2,0-3.3-0.1c-0.3,0-0.6-0.1-0.9-0.2
		c-0.9-0.3-1.4-0.9-1.5-1.9c-0.1-0.6,0-1.3,0.1-1.9c0.1-0.7,0.5-1.2,1.2-1.4c0.5-0.2,1-0.3,1.5-0.3c1.1-0.1,2.2-0.1,3.3,0
		c0.8,0,1.5,0.1,2.2,0.6c0-0.4,0-0.7,0-1.1c0-0.4-0.3-0.6-0.6-0.7c-0.2-0.1-0.4-0.1-0.7-0.1c-0.8,0-1.7,0-2.5,0
		c-0.2,0-0.3,0-0.5,0.1c-0.2,0.1-0.4,0.1-0.4,0.4c0,0.3-0.2,0.3-0.4,0.3c-0.9,0-1.7,0-2.6,0c-0.2,0-0.3,0-0.3-0.3
		c0-0.2,0-0.4,0.1-0.6c0.1-0.9,0.7-1.5,1.5-1.7c0.5-0.1,1-0.2,1.4-0.2c1.7,0,3.4,0,5.1,0c0.5,0,0.9,0.1,1.4,0.3
		c1,0.4,1.6,1.1,1.7,2.2c0,0.3,0.1,0.5,0.1,0.8c0,1.7,0,3.5,0,5.2c0,0.4,0,0.4-0.4,0.4c-0.8,0-1.6,0-2.4,0c-0.2,0-0.4-0.1-0.3-0.3
		C93.1,50,93.1,49.9,93.1,49.7z"/>
	<path d="M119.2,45.9c1.6,1.5,3.3,3.1,5,4.7c-0.3,0-0.5,0-0.6,0c-1,0-2.1,0-3.1,0c-0.3,0-0.5-0.1-0.8-0.3c-1-1-2-2-3-2.9
		c-0.1-0.1-0.2-0.2-0.4-0.3c-0.4-0.1-0.5,0-0.5,0.4c0,0.9,0,1.8,0,2.7c0,0.4,0,0.4-0.4,0.4c-0.8,0-1.7,0-2.5,0c-0.5,0-0.4,0-0.4-0.4
		c0-2.8,0-5.7,0-8.5c0-1.1,0-2.1,0-3.2c0-0.4,0-0.4,0.4-0.4c0.8,0,1.7,0,2.5,0c0.4,0,0.4,0,0.4,0.4c0,1.9,0,3.8,0,5.7
		c0,0.2,0,0.3,0,0.5c0.4,0.1,0.7,0,1-0.3c0.7-0.8,1.5-1.5,2.3-2.3c0.1-0.1,0.2-0.2,0.4-0.2c1.3,0,2.6,0,4,0
		c-0.3,0.5-0.7,0.7-1.1,1.1c-0.3,0.3-0.7,0.7-1.1,1c-0.4,0.3-0.7,0.7-1.1,1C119.9,45.3,119.5,45.6,119.2,45.9z"/>
	<path d="M188.9,46.9c-1.2,0-2.4,0-3.6,0c-0.4,0-0.4,0-0.4,0.4c0,0.8,0.2,1.2,1.1,1.3c1,0.2,1.9,0.1,2.9,0c0.1,0,0.1,0,0.2,0
		c0.4-0.1,0.7-0.2,0.7-0.7c0-0.2,0.1-0.2,0.3-0.2c0.9,0,1.7,0,2.6,0c0.2,0,0.3,0,0.3,0.2c0.1,1.1-0.4,1.9-1.4,2.3
		c-0.6,0.3-1.3,0.4-1.9,0.4c-1.5,0.1-2.9,0.1-4.4,0c-0.5,0-1-0.1-1.5-0.3c-0.9-0.3-1.5-0.9-1.8-1.8c-0.2-0.5-0.3-1-0.3-1.5
		c-0.1-1-0.1-1.9,0.1-2.9c0.3-1.4,1.1-2.2,2.5-2.4c0.4-0.1,0.7-0.1,1.1-0.1c1.1,0,2.3,0,3.4,0c0.6,0,1.3,0.1,1.9,0.3
		c1.3,0.4,2,1.2,2.1,2.5c0.1,0.7,0.1,1.4,0.1,2.1c0,0.2-0.1,0.3-0.3,0.3C191.3,46.9,190.1,46.9,188.9,46.9z"/>
	<path d="M245,46.9c1,0,1.9,0,2.9,0c0.2,0,0.3,0.1,0.3,0.3c0,0.1,0,0.2,0,0.3c0,2-1.1,2.8-2.6,3.1c-0.3,0.1-0.7,0.1-1,0.1
		c-1.5,0-2.9,0-4.4,0c-0.3,0-0.7-0.1-1-0.1c-1.5-0.3-2.3-1.3-2.5-2.7c-0.1-0.3-0.1-0.7-0.1-1.1c0-0.7-0.2-1.4,0-2.1
		c0-0.2,0.1-0.4,0.1-0.6c0.3-1.3,1.1-2,2.3-2.3c0.3-0.1,0.7-0.1,1-0.1c1.6,0,3.1,0,4.7,0c0.6,0,1.2,0.1,1.8,0.4
		c1.1,0.4,1.6,1.3,1.7,2.4c0,0.3,0.1,0.6-0.1,0.8c-0.2,0.2-0.6,0.1-0.8,0.1c-0.7,0-1.5,0-2.2,0c0,0-0.1-0.1-0.1-0.1
		c-0.1-0.7-0.4-1-1.1-1.1c-0.9-0.1-1.8-0.1-2.7,0c-0.2,0-0.4,0.1-0.6,0.1c-0.5,0.2-0.7,0.5-0.7,1c0,0.5,0,0.9,0,1.4
		c0,0.7,0.4,1.2,1.2,1.3c1,0.1,2,0.1,3,0C244.7,48,244.9,47.7,245,46.9z"/>
	<path d="M202.9,45.4c0-0.1,0-0.2,0-0.2c-0.1-0.6-0.4-0.9-1-0.9c-1-0.1-2.1-0.1-3.1,0c-0.8,0.1-1.2,0.5-1.2,1.4c0,0.4,0,0.7,0,1.1
		c0,0.8,0.4,1.3,1.2,1.3c1,0.1,2,0.1,3,0c0.2,0,0.4-0.1,0.6-0.2c0.3-0.1,0.5-0.4,0.5-0.7c0-0.3,0.1-0.3,0.4-0.3c0.8,0,1.7,0,2.5,0
		c0.2,0,0.4,0,0.3,0.3c0,0.1,0,0.2,0,0.3c0,1.8-1,2.7-2.5,3c-0.3,0.1-0.7,0.1-1.1,0.1c-1.5,0-3,0-4.5,0c-0.4,0-0.8-0.1-1.2-0.2
		c-1.1-0.3-1.9-1.1-2.2-2.2c-0.4-1.4-0.3-2.9,0-4.3c0.3-1.1,1-1.8,2.1-2.1c0.4-0.1,0.9-0.2,1.3-0.2c1.5,0,3,0,4.5,0
		c0.6,0,1.1,0.1,1.7,0.3c1.2,0.4,1.8,1.2,1.9,2.5c0.1,0.9,0.1,0.9-0.9,0.9C204.4,45.4,203.6,45.4,202.9,45.4z"/>
	<path d="M101.7,43c0.6-0.8,1.3-1.2,2.2-1.3c1.1-0.1,2.2-0.1,3.3,0c1.8,0.3,2.8,1.5,2.8,3.4c0,1.5,0,3,0,4.5c0,0.2,0,0.5,0,0.7
		c0,0.2-0.1,0.2-0.2,0.2c-1,0-1.9,0-2.9,0c-0.3,0-0.2-0.2-0.2-0.3c0-1.4,0-2.9,0-4.3c0-1.1-0.3-1.5-1.4-1.6c-0.8-0.1-1.5-0.1-2.3,0
		c-1,0.2-1.5,0.8-1.6,1.8c0,0.8,0,1.6,0,2.4c0,0.6,0,1.1,0,1.7c0,0.2-0.1,0.3-0.3,0.3c-0.9,0-1.8,0-2.7,0c-0.3,0-0.3-0.1-0.3-0.3
		c0-1.7,0-3.4,0-5.1c0-1,0-2,0-3c0-0.4,0-0.4,0.4-0.4c0.9,0,1.8,0,2.8,0c0.3,0,0.3,0,0.3,0.4C101.7,42.5,101.7,42.8,101.7,43z"/>
	<path d="M140.7,43c0.6-0.8,1.4-1.1,2.3-1.2c1.2-0.1,2.4-0.2,3.5,0.1c1.5,0.3,2.3,1.3,2.5,2.8c0.1,0.4,0.1,0.8,0.1,1.2
		c0,1.5,0,2.9,0,4.4c0,0.5,0,0.4-0.5,0.4c-0.8,0-1.6,0-2.4,0c-0.5,0-0.5,0.1-0.5-0.4c0-1.4,0-2.8,0-4.2c0-1.1-0.3-1.5-1.4-1.6
		c-0.8-0.1-1.5-0.1-2.3,0c-1,0.2-1.5,0.8-1.5,1.9c0,1.2,0,2.4,0,3.6c0,0.7,0,0.7-0.7,0.7c-0.8,0-1.5,0-2.3,0c-0.2,0-0.3,0-0.3-0.3
		c0-2.7,0-5.5,0-8.2c0-0.2,0.1-0.3,0.3-0.3c1,0,1.9,0,2.9,0c0.3,0,0.3,0.1,0.3,0.3C140.7,42.4,140.7,42.7,140.7,43z"/>
	<path d="M214.7,44.2c-0.7,0-1.5,0-2.2,0c-0.3,0-0.4,0-0.4,0.3c0,1,0,1.9,0,2.9c0,0.6,0.2,0.8,0.7,0.8c0.4,0.1,0.8,0,1.2,0
		c0.4-0.1,0.6-0.2,0.7-0.7c0-0.2,0-0.5,0-0.7c0-0.2,0.1-0.2,0.2-0.2c0.8,0,1.6,0,2.4,0c0.2,0,0.3,0.1,0.3,0.3c0,0.4,0,0.8,0,1.3
		c-0.1,0.9-0.6,1.6-1.4,2c-0.6,0.3-1.3,0.4-1.9,0.4c-1.1,0-2.1,0.1-3.1-0.1c-1.5-0.3-2.2-1.2-2.3-2.7c0-1,0-2,0-3.1
		c0-0.6,0.1-0.5-0.6-0.5c-0.3,0-0.6,0-0.9,0c-0.2,0-0.3,0-0.3-0.3c0-0.6,0-1.2,0-1.8c0-0.2,0.1-0.3,0.3-0.3c0.4,0,0.7,0,1.1,0
		c0.2,0,0.3-0.1,0.3-0.3c0-0.5,0-1,0-1.5c0-0.2,0.1-0.3,0.3-0.3c0.9,0,1.8,0,2.8,0c0.2,0,0.3,0.1,0.3,0.3c0,0.5,0,0.9,0,1.4
		c0,0.4,0,0.4,0.4,0.4c1.4,0,2.7,0,4.1,0c0.1,0,0.2,0,0.3,0c0.4,0,0.4,0,0.4,0.4c0,0.6,0,1.1,0,1.7c0,0.2-0.1,0.3-0.3,0.3
		C216.2,44.2,215.4,44.2,214.7,44.2z"/>
	<path d="M76.8,43.2c0.5-1,1.4-1.3,2.5-1.4c0.6-0.1,1.3-0.1,1.9,0.1c1.1,0.2,1.8,0.9,2,2c0.1,0.6,0.1,1.3,0.1,1.9
		c0,0.2-0.1,0.2-0.2,0.2c-0.8,0-1.6,0-2.4,0c-0.2,0-0.2,0-0.2-0.2c0-0.1,0-0.3,0-0.4c-0.1-0.6-0.4-0.9-1.1-1c-0.5,0-0.9,0-1.3,0.1
		c-0.6,0.2-0.9,0.6-1,1.2c0,0.2,0,0.3,0,0.5c0,1.4,0,2.7,0,4.1c0,0.4,0,0.4-0.4,0.4c-0.9,0-1.7,0-2.6,0c-0.4,0-0.4,0-0.4-0.3
		c0-2.7,0-5.5,0-8.2c0-0.2,0.1-0.3,0.3-0.3c0.8,0,1.7,0,2.5,0c0.2,0,0.3,0.1,0.3,0.3C76.8,42.5,76.8,42.9,76.8,43.2z"/>
	<path d="M222.6,43.2c0.5-0.9,1.3-1.3,2.2-1.4c0.7-0.1,1.4-0.1,2.2,0c1.1,0.2,1.8,0.9,2,1.9c0.2,0.7,0.1,1.3,0.1,2
		c0,0.2-0.1,0.2-0.2,0.2c-0.8,0-1.6,0-2.3,0c-0.2,0-0.3-0.1-0.3-0.3c0-0.1,0-0.3-0.1-0.4c-0.1-0.5-0.4-0.8-0.9-0.9
		c-0.4-0.1-0.9-0.1-1.3,0c-0.8,0.2-1.2,0.7-1.2,1.5c0,1.4,0,2.8,0,4.2c0,0.7,0.1,0.6-0.6,0.6c-0.8,0-1.6,0-2.3,0
		c-0.4,0-0.4,0-0.4-0.4c0-2.7,0-5.4,0-8.1c0-0.4,0-0.4,0.4-0.4c0.8,0,1.6,0,2.3,0c0.4,0,0.4,0,0.4,0.4
		C222.6,42.6,222.6,42.9,222.6,43.2z"/>
	<path d="M129,44.4c0,1.9,0,3.8,0,5.7c0,0.5,0.1,0.5-0.4,0.5c-0.9,0-1.7,0-2.6,0c-0.2,0-0.3,0-0.3-0.3c0-0.3,0-0.6,0-0.9
		c0-3.5,0-7,0-10.6c0-0.1,0-0.2,0-0.3c0-0.4,0-0.4,0.4-0.4c0.9,0,1.7,0,2.6,0c0.4,0,0.4,0,0.4,0.4C129,40.5,129,42.4,129,44.4z"/>
	<path d="M176.3,44.4c0-1.9,0-3.8,0-5.7c0-0.1,0-0.2,0-0.3c0-0.2,0.1-0.2,0.2-0.2c0.4,0,0.7,0,1.1,0c0.6,0,1.1,0,1.7,0
		c0.2,0,0.3,0.1,0.3,0.3c0,0.1,0,0.2,0,0.3c0,3.8,0,7.5,0,11.3c0,0.1,0,0.2,0,0.3c0,0.2,0,0.3-0.2,0.3c-1,0-1.9,0-2.9,0
		c-0.2,0-0.2-0.1-0.2-0.3c0-0.5,0-1,0-1.5C176.3,47.3,176.3,45.9,176.3,44.4z"/>
	<path d="M231.2,46.3c0-1.4,0-2.7,0-4.1c0-0.4,0-0.4,0.4-0.4c0.8,0,1.7,0,2.5,0c0.5,0,0.5,0,0.5,0.4c0,1.1,0,2.2,0,3.2
		c0,1.6,0,3.2,0,4.7c0,0.4,0,0.4-0.4,0.4c-0.9,0-1.7,0-2.6,0c-0.4,0-0.4,0-0.4-0.4C231.2,48.9,231.2,47.6,231.2,46.3z"/>
	<path d="M131.6,46.2c0-1.3,0-2.6,0-3.9c0-0.4,0-0.4,0.4-0.4c0.9,0,1.7,0,2.6,0c0.3,0,0.4,0,0.4,0.3c0,2.7,0,5.4,0,8.1
		c0,0.4,0,0.4-0.4,0.4c-0.8,0-1.7,0-2.5,0c-0.4,0-0.4,0-0.4-0.4C131.6,48.9,131.6,47.5,131.6,46.2z"/>
	<path class="st1" d="M232.8,40.8c-0.5,0-0.9,0-1.4,0c-0.2,0-0.3,0-0.3-0.3c0-0.7,0-1.4,0-2c0-0.2,0.1-0.3,0.3-0.3
		c0.9,0,1.8,0,2.8,0c0.2,0,0.3,0.1,0.3,0.3c0,0.7,0,1.4,0,2.1c0,0.2-0.1,0.3-0.3,0.3C233.8,40.7,233.3,40.8,232.8,40.8z"/>
	<path class="st2" d="M133.3,40.8c-0.5,0-0.9,0-1.4,0c-0.2,0-0.3-0.1-0.3-0.3c0-0.7,0-1.4,0-2.1c0-0.2,0.1-0.3,0.2-0.3
		c0.9,0,1.9,0,2.8,0c0.2,0,0.3,0.1,0.3,0.3c0,0.7,0,1.4,0,2.1c0,0.2-0.1,0.3-0.3,0.3C134.3,40.7,133.8,40.8,133.3,40.8z"/>
	<path class="st3" d="M35.7,55.1c-0.7,0.6-1.6,1-2.4,1.3c-1.9,0.6-3.8,0.7-5.8,0.5c-1.5-0.1-3-0.6-4.3-1.4c-0.2-0.1-0.4-0.2-0.5-0.4
		c0-0.2,0.2-0.2,0.3-0.3c0.8-0.5,1.6-1.1,2.4-1.6c0.2-0.2,0.3-0.3,0.3-0.6c0-2.2,0-4.4,0-6.6c0-0.3,0.1-0.6,0.4-0.8
		c0.7-0.5,1.4-1.1,2.1-1.6c0.2-0.1,0.3-0.3,0.3-0.6c0-1.1,0-2.2,0-3.3c0-0.1,0-0.1-0.1-0.2c-0.9,0.7-1.7,1.3-2.7,2.1
		c0-0.6,0-1.2,0-1.7c0-0.1,0.1-0.2,0.2-0.3c1-0.9,2-1.7,3-2.6c0,0,0.1,0,0.1,0c0.1,0.2,0,0.3,0,0.5c0,3.6,0,7.2,0,10.9
		c0,0.3,0.1,0.6,0.3,0.8c2,1.9,4,3.7,5.9,5.6C35.5,54.9,35.6,55,35.7,55.1C35.7,55.1,35.7,55.1,35.7,55.1z"/>
	<path class="st3" d="M90.2,48.7c-0.4,0-0.8,0-1.2,0c-0.2,0-0.4,0-0.6-0.1c-0.5-0.1-0.7-0.3-0.7-0.8c0-0.5,0.2-0.8,0.7-0.9
		c0.2,0,0.3-0.1,0.5-0.1c1,0,2-0.1,3.1,0c0.1,0,0.2,0,0.3,0c0.4,0.1,0.6,0.3,0.6,0.7c0,0.5-0.1,0.7-0.6,0.8c-0.3,0.1-0.6,0.1-1,0.2
		c-0.1,0-0.2,0-0.3,0C90.8,48.7,90.5,48.7,90.2,48.7C90.2,48.7,90.2,48.7,90.2,48.7z"/>
	<path class="st4" d="M185,45c0-0.7,0.1-1,0.8-1.1c1-0.2,2.1-0.2,3.1,0c0.7,0.1,0.8,0.3,0.8,1.1C188.2,45,186.6,45,185,45z"/>
</g>
</svg>
