<?xml version="1.0" encoding="utf-8"?>
<!-- Generator: Adobe Illustrator 28.0.0, SVG Export Plug-In . SVG Version: 6.00 Build 0)  -->
<svg version="1.1" id="Capa_1" xmlns="http://www.w3.org/2000/svg" xmlns:xlink="http://www.w3.org/1999/xlink" x="0px" y="0px"
	 viewBox="0 0 300.4 79.8" style="enable-background:new 0 0 300.4 79.8;" xml:space="preserve">
<style type="text/css">
	.st0{fill:#231F20;}
	.st1{fill:#FEFEFE;}
	.st2{fill:#242021;}
	.st3{fill:#262223;}
	.st4{fill:#282425;}
	.st5{fill:#CE1628;}
</style>
<g>
	<path class="st0" d="M6,41.1c0-18.5,14.6-33.2,33-33.2C57.3,7.9,72,22.7,72,41.1c0,18.5-14.6,33.2-33,33.2
		C20.6,74.2,6.1,59.6,6,41.1z"/>
	<path class="st1" d="M7.6,41c0-17.5,14-31.5,31.4-31.5c17.3,0,31.4,14.2,31.4,31.6c0,17.6-14.1,31.7-31.5,31.6
		C21.5,72.6,7.6,58.5,7.6,41z"/>
	<path class="st0" d="M67.8,45.3c0-1.6,0.1-3.3-0.4-4.9c-0.3-0.9-0.6-1.8-1.3-2.5c-1-1-2.2-1.4-3.4-0.6c-1.2,0.9-1.1,2.1-0.3,3.2
		c2,2.7,2.8,5.6,2.3,8.9c-1.4,10.7-9,18.6-19.7,20.7c-3.6,0.7-7.2,0.8-10.8,0.3c-0.1-0.4,0-0.5,0.4-0.4c2.1,0.1,4.2,0.2,6.2-0.7
		c1.3-0.6,2.3-1.4,2.3-3c0-1.7-1.2-2.6-2.8-2.1c-0.5,0.2-1.1,0.4-1.5,0.8c-2.8,2.4-6,2.4-9.3,1.8C13.8,63.9,8.8,49.5,9.7,39
		c0.1-0.6,0.1-1.1,0.2-1.7c0.1-0.2,0.2-0.2,0.3,0c0.1,1.6-0.1,3.3,0.4,4.9c0.3,1.1,0.7,2.1,1.7,2.6c1.1,0.6,2.2,0.8,3.2-0.1
		c0.9-0.8,0.9-2,0.2-2.9c-2.8-3.6-2.9-7.5-1.9-11.7c1.4-5.5,4-10.1,8.6-13.4c6.3-4.6,13.3-5.8,20.9-4.9c0.1,0.7-0.4,0.5-0.7,0.4
		c-1.7-0.1-3.4,0-5.1,0.6c-0.9,0.3-1.7,0.8-2.3,1.6c-0.6,1-0.7,2.1,0,3c0.7,0.9,1.8,0.9,2.8,0.4c0.1,0,0.1,0,0.2-0.1
		c2.6-2.1,5.6-3.1,9-2.5c4.8,0.8,9.2,2.4,12.8,5.8c6.5,6.2,8.8,13.9,8.2,22.7c0,0.5-0.1,1-0.1,1.5C68,45.4,67.9,45.4,67.8,45.3z"/>
	<path class="st1" d="M36.7,39.1c2.3-1.5,4.3-2.9,6.4-4.2c0.8-0.5,0.6-1.1,0.6-1.8c-0.2-2.6,0.5-5,2-7.2c0.5-0.7,1.1-1.4,1.9-1.9
		c1.6-0.9,3.3-1.4,4.8-0.2c1.6,1.2,1.2,3,0.6,4.5c-1,2.4-2.9,4.1-4.9,5.8c-0.4,0.4-1.3,0.6-0.7,1.5c0.4,0.6,0.8,1.1,1.7,1
		c1-0.1,2-0.1,3,0c0.6,0,1.3,0.4,1.3,1.1c0.1,0.9-0.6,1.3-1.3,1.4c-0.7,0.2-1.4,0.2-2.1,0.2c-3.8,0-6.3,1.7-7.1,5.4
		c-0.7,3.1-0.6,6.1,1.5,8.7c2,2.3,5.2,2.8,7.5,1.2c2.2-1.5,3-5.4,1.7-7.7c-0.7-1.3-2.4-1.9-3.6-1.2c-1.4,0.8-1.2,2.1-0.6,3.3
		c0.2,0.3,0.4,0.6,0.6,1c0.6,1.2,0,2-1.4,1.8c-1.4-0.2-2.1-1.1-2.5-2.3c-0.9-2.4,0.1-4.9,2.4-6.1c2.6-1.4,5.8-0.7,7.4,1.8
		c1.7,2.6,1.9,5.4,0.6,8.1c-1.4,2.9-3.7,4.7-6.9,5c-4.3,0.4-7.6-1.5-9.5-5.3c-1.9-3.9-1.1-9.3,1.8-12.5c0.8-0.9,1.8-1.6,2.8-2.3
		c0.3-0.2,0.9-0.3,0.5-1c-0.4-0.6-0.7-0.5-1.2-0.2c-2.3,1.5-4.7,3-7.1,4.5c-0.8,0.5-0.6,1.1-0.7,1.8c-0.3,3.7-0.7,7.3-2.7,10.6
		c-1.5,2.5-3.6,4.2-6.7,4.4c-4.2,0.2-6.7-3-5.6-7.1c0.6-2.2,2-3.8,3.7-5.2c2.3-2,5.1-3.4,7.7-4.8c0.8-0.4,1.6-0.8,1.2-2.1
		c-1.2,0.8-2.5,1-3.9,0.9c-1.1-0.1-2.1-0.5-2.5-1.5c-0.6-1.3-1.4-1.9-2.8-2.4c-2.5-0.8-3.6-5.5-2-7.6c0.4-0.5,1-0.9,1.6-0.7
		c0.9,0.3,0.5,1.1,0.4,1.6c-0.2,1.1-0.5,2.2,0,3.4c0.2,0.7,0.7,1.2,1.3,1.2c0.8-0.1,0.5-0.9,0.6-1.4c0.3-2.7,1.5-5.1,3.2-7.2
		c0.5-0.6,1.2-1.2,1.9-1.6c1.4-0.8,2.9-1.1,4.3-0.2c1.4,0.9,1.2,2.3,0.9,3.6c-0.8,3.9-3.2,6.5-6.4,8.5c-0.4,0.2-1.2,0.2-1,0.9
		c0.2,0.7,0.7,0.9,1.5,1c1.6,0,3.5-1.4,4-3.2c0.4-1.2,0.7-2.5,1.8-3.2c0.6-0.4,1.4-0.8,2.1-0.2c0.7,0.5,0.5,1.3,0.2,1.9
		c-0.4,0.8-0.8,1.6-1.4,2.2C36.8,36.3,36.4,37.4,36.7,39.1z"/>
	<path class="st2" d="M33.3,43.8c-0.5,3.6-1.4,7-3.7,9.8c-1.4,1.7-3.4,2.4-4.6,1.6c-1.2-0.8-1.3-2.8-0.2-4.9
		C26,48,29.8,45.1,33.3,43.8z"/>
	<path class="st3" d="M29.1,33.9c0.3-3.2,1.5-5.6,3.4-7.6c0.4-0.4,1-0.7,1.5-0.4c0.6,0.3,0.3,0.9,0.2,1.4
		C33.6,30,31.9,32.1,29.1,33.9z"/>
	<path class="st4" d="M46.5,32.4c0-2.6,0.7-4.5,2.2-6c0.4-0.5,1-0.9,1.6-0.4c0.5,0.4,0.4,1,0.1,1.6C49.7,29.5,48.2,30.8,46.5,32.4z"
		/>
	<path class="st0" d="M92.5,30.7c0.9-0.3,1.9-0.6,2.8-0.9c-0.7-1.6-2.2-2.9-3.9-3.4c-3.1-0.9-6.4,0.8-7.7,3.7
		c-1.1,2.6-0.5,6,1.6,7.9c1.2,1,2.8,1.6,4.4,1.7c1.3,0.1,2.7-0.2,3.9-0.7c0.6-0.3,1.2-0.6,1.4-1.2c0.2-0.5,0.2-1,0.2-1.5
		c0-1.3,0-2.5-0.1-3.8c-1.9,0-3.8,0.1-5.6,0.1c0,0.8,0,1.6,0,2.4c0.9,0,1.9,0,2.8,0c0,0.4,0.1,0.8,0,1.1c-0.1,0.7-0.7,1-1.3,1.2
		c-2.3,0.9-4.7-0.7-5.2-3c-0.4-1.6,0-3.9,1.3-5c1.2-1,3-1.1,4.3-0.2C92,29.5,92.4,30.1,92.5,30.7z"/>
	<polygon class="st0" points="106.7,28.8 106.7,26.5 99.9,26.5 97.3,26.5 97.3,28.8 97.3,31.4 97.3,33.7 97.3,36.9 97.3,39.2 
		99.9,39.2 106.7,39.2 106.7,36.9 99.9,36.9 99.9,33.7 105.9,33.7 105.9,31.4 99.9,31.4 99.9,28.8 	"/>
	<rect x="113.6" y="26.5" class="st0" width="2.6" height="12.6"/>
	<rect x="189.5" y="26.5" class="st0" width="2.6" height="12.6"/>
	<rect x="231.4" y="26.5" class="st0" width="2.6" height="12.6"/>
	<polygon class="st0" points="215.6,36.9 209.2,36.9 209.2,26.5 206.6,26.5 206.6,36.9 206.6,39.2 206.6,39.2 209.2,39.2 
		209.2,39.2 215.6,39.2 	"/>
	<polygon class="st0" points="127.1,52.3 122,52.3 122,44.3 119.8,44.3 119.8,52.3 119.8,54 119.8,54 122,54 122,54 127.1,54 	"/>
	<polygon class="st0" points="175.7,26.5 172,26.5 169.3,26.5 165.8,26.5 165.8,28.8 169.3,28.8 169.3,39.2 172,39.2 172,28.8 
		175.7,28.8 	"/>
	<polygon class="st0" points="258,26.5 254.2,26.5 251.6,26.5 248,26.5 248,28.8 251.6,28.8 251.6,39.2 254.2,39.2 254.2,28.8 
		258,28.8 	"/>
	<polygon class="st0" points="125.8,26.5 125.8,33.9 121.1,26.5 118.5,26.5 118.5,39.2 121.1,39.2 121.1,31.4 126.3,39.2 
		128.5,39.2 128.5,26.5 	"/>
	<path class="st0" d="M141,29.7c-0.5-1.3-1.6-2.4-2.9-2.9c-1.5-0.6-3.2-0.4-4.7-0.4c0,0,0,0.1,0,0.1c0,0,0,0.1,0,0.1
		c0,0.1,0,0.2,0,0.4c0-0.2,0-0.3,0-0.4c0,0,0-0.1,0-0.1v-0.1h-2.6v12.6h2.6c0,0,2.3,0,2.5,0c1,0,2.1,0,3-0.6
		C141.5,37,142.1,32.3,141,29.7z M137.6,36.5c-0.5,0.3-1,0.4-1.6,0.4c-0.1,0-1.3,0-1.3,0h-1.4v-8.2h1.4c0.8,0,1.7-0.1,2.5,0.3
		c0.7,0.3,1.3,1,1.6,1.9C139.4,32.5,139,35.5,137.6,36.5z"/>
	<path class="st0" d="M150.5,26.5v8.8c0,0-0.3,1.6-2.4,1.7c0,0-2.2,0-2.4-1.7v-8.8h-2.6v8.8c0,0,0.3,3.8,4.9,3.8c0,0,5,0.1,5-3.8
		v-8.8H150.5z"/>
	<path class="st0" d="M202.9,39.2h2.7l-4.8-12.6h-2.9L193,39.2h2.9l1-2.9h5L202.9,39.2z M197.7,34l1.5-4.4l0.3,0l1.6,4.4H197.7z"/>
	<path class="st0" d="M184,33.6c0.1,0.1,0.9-0.5,1-0.5c0.4-0.2,0.7-0.5,0.9-0.8c0.5-0.6,0.9-1.4,0.9-2.3c0.1-0.8-0.1-1.5-0.6-2.1
		c-1.2-1.5-3.1-1.3-4.8-1.3c-0.7,0-1.4,0-2.1,0h-2.6v12.6h2.6v-5.3l2,0l3.8,5.4l3-0.1C188.3,39.2,184,33.6,184,33.6z M179.5,32v-3.5
		h3.8c0,0,1.4,0.5,1.3,1.7c0,0-0.1,1.4-1.2,1.7H179.5z"/>
	<path class="st0" d="M278.8,33.6c0.1,0.1,0.9-0.5,1-0.5c0.4-0.2,0.7-0.5,0.9-0.8c0.5-0.6,0.9-1.4,0.9-2.3c0.1-0.8-0.1-1.5-0.6-2.1
		c-1.2-1.5-3.1-1.3-4.8-1.3c-0.7,0-1.4,0-2.1,0h-2.6v12.6h2.6v-5.3l2,0l3.8,5.4l3-0.1C283.1,39.2,278.8,33.6,278.8,33.6z M274.3,32
		v-3.5h3.8c0,0,1.4,0.5,1.3,1.7c0,0-0.1,1.4-1.2,1.7H274.3z"/>
	<polygon class="st0" points="230.3,26.5 228.2,35 226.1,26.5 224.4,26.5 221.8,26.5 221.8,39.2 224.4,39.2 224.4,30.3 227,39.2 
		229.1,39.2 231.4,30.5 231.4,26.5 	"/>
	<g>
		<path class="st0" d="M242,26.2c-3.3,0-6,2.9-6,6.5c0,3.6,2.7,6.5,6,6.5c3.3,0,6-2.9,6-6.5C248,29.1,245.3,26.2,242,26.2z
			 M242.1,37c-2.1,0-3.8-2-3.8-4.4s1.7-4.4,3.8-4.4c2.1,0,3.8,2,3.8,4.4S244.2,37,242.1,37z"/>
	</g>
	<g>
		<path class="st0" d="M113.4,44.2c-2.6,0-4.7,2.3-4.7,5.2c0,2.9,2.1,5.2,4.7,5.2s4.7-2.3,4.7-5.2C118.1,46.5,116,44.2,113.4,44.2z
			 M113.4,52.7c-1.7,0-3-1.6-3-3.5s1.4-3.5,3-3.5c1.7,0,3,1.6,3,3.5S115.1,52.7,113.4,52.7z"/>
	</g>
	<g>
		<path class="st0" d="M131.9,44.2c-2.6,0-4.7,2.3-4.7,5.2c0,2.9,2.1,5.2,4.7,5.2s4.7-2.3,4.7-5.2C136.6,46.5,134.5,44.2,131.9,44.2
			z M131.9,52.7c-1.7,0-3-1.6-3-3.5s1.4-3.5,3-3.5s3,1.6,3,3.5S133.6,52.7,131.9,52.7z"/>
	</g>
	<g>
		<path class="st0" d="M263.7,26.2c-3.3,0-6,2.9-6,6.5c0,3.6,2.7,6.5,6,6.5c3.3,0,6-2.9,6-6.5C269.7,29.1,267,26.2,263.7,26.2z
			 M263.8,37c-2.1,0-3.8-2-3.8-4.4s1.7-4.4,3.8-4.4s3.8,2,3.8,4.4S265.9,37,263.8,37z"/>
	</g>
	<path class="st0" d="M290.3,30.2c0,0,0.2-1.9-2.2-1.7c-0.8,0.1-1.7,0.3-2,1.1c-0.1,0.1-0.1,0.3-0.1,0.4c0,0.2,0.1,0.3,0.2,0.4
		c0.6,0.7,1.7,0.7,2.5,0.9c0.8,0.1,1.7,0.4,2.4,0.8c0.7,0.4,1.3,0.9,1.7,1.6c1.1,1.8,0.3,4.3-1.7,5.2c-1.8,0.8-4.1,0.8-5.9-0.1
		c-0.8-0.5-1.4-1.1-1.7-2c-0.1-0.1-0.7-1.9-0.5-1.9c0,0,2.5,0,2.5,0s0.6,2.1,2.6,2.3c0,0,2.3,0.2,2.4-1.5c0.1-1.5-1.8-1.9-2.9-2.1
		c-1.7-0.4-3.4-0.9-4-2.7c-0.8-2.2,0.9-3.8,2.9-4.2c1.7-0.3,3.8-0.2,5.2,0.9c0.4,0.3,0.7,0.7,0.9,1.1c0.1,0.2,0.4,1.8,0.2,1.8
		C292.8,30.2,290.3,30.2,290.3,30.2z"/>
	<path class="st0" d="M161.6,30.2c0,0,0.2-1.9-2.2-1.7c-0.8,0.1-1.7,0.3-2,1.1c-0.1,0.1-0.1,0.3-0.1,0.4c0,0.2,0.1,0.3,0.2,0.4
		c0.6,0.7,1.7,0.7,2.5,0.9c0.8,0.1,1.7,0.4,2.4,0.8c0.7,0.4,1.3,0.9,1.7,1.6c1.1,1.8,0.3,4.3-1.7,5.2c-1.8,0.8-4.1,0.8-5.9-0.1
		c-0.8-0.5-1.4-1.1-1.7-2c-0.1-0.1-0.7-1.9-0.5-1.9c0,0,2.5,0,2.5,0s0.6,2.1,2.6,2.3c0,0,2.3,0.2,2.4-1.5c0.1-1.5-1.8-1.9-2.9-2.1
		c-1.7-0.4-3.4-0.9-4-2.7c-0.8-2.2,0.9-3.8,2.9-4.2c1.7-0.3,3.8-0.2,5.2,0.9c0.4,0.3,0.7,0.7,0.9,1.1c0.1,0.2,0.4,1.8,0.2,1.8
		C164.1,30.2,161.6,30.2,161.6,30.2z"/>
	<polygon class="st0" points="94.9,44.3 97.3,44.3 98.8,50.9 100.5,44.3 102.5,44.3 104.1,50.9 105.9,44.3 108.2,44.3 105.9,54 
		102.9,54 101.6,48.6 101.3,48.6 100.2,54 97,54 	"/>
	<polygon class="st0" points="138.5,44.4 138.5,54 140.7,54 140.7,48 144.9,54 147.6,54 141.1,44.4 	"/>
	<polygon class="st5" points="143.2,44.4 147.6,44.4 147.6,51 	"/>
	<path class="st0" d="M156.2,47.3c0.8-0.2,1.5-0.5,2.3-0.7c-0.3-0.7-1-1.4-1.7-1.8c-0.7-0.4-1.5-0.6-2.3-0.7c-0.8-0.1-1.7,0-2.5,0.3
		c-1.1,0.5-2,1.4-2.5,2.6c-0.5,1.2-0.7,2.5-0.4,3.8c0.5,2,2.4,3.6,4.5,3.6c1.7,0,4,0,5.1-1.6v-4H154l0.1,1.9h2.2c0,0,0,1.1,0,1.1
		c0,0.3-0.7,0.6-0.9,0.7c-0.7,0.2-1.7,0.3-2.4,0c-1.5-0.6-1.6-2.5-1.5-3.9c0-0.4,0.1-0.8,0.2-1.2c0.5-1.3,2.1-1.5,3.3-1.2
		C155.6,46.3,156.1,46.7,156.2,47.3z"/>
	<g>
		<path class="st0" d="M89.2,52.5c0.3-0.7,0.6-1.5,0.9-2.2c0.3-0.7,0.5-1.5,0.7-2.3l-0.7,0l-0.6,0.7c0,0-0.6-2.2-3.1,0.3
			c0,0-2.5,2.6-1.3,4.9c0,0,0.8,1.6,3.5-1.3c0,0-1.1,3.9,2.2,0c-0.3,0.3-0.7,0.6-1.1,0.8C88.8,53.9,89,53,89.2,52.5z M88.3,51.8
			c-0.7,1.3-1.8,2-2.5,1.6c-0.6-0.4-0.6-1.7,0.2-2.9s1.8-2,2.5-1.6C89.1,49.2,89.1,50.5,88.3,51.8z"/>
	</g>
	<g>
		<path class="st0" d="M195.3,52.5c0.3-0.7,0.6-1.5,0.9-2.2c0.3-0.7,0.5-1.5,0.7-2.3l-0.7,0l-0.6,0.7c0,0-0.6-2.2-3.1,0.3
			c0,0-2.5,2.6-1.3,4.9c0,0,0.8,1.6,3.5-1.3c0,0-1.1,3.9,2.2,0c-0.3,0.3-0.7,0.6-1.1,0.8C194.9,53.9,195.1,53,195.3,52.5z
			 M194.5,51.8c-0.7,1.3-1.8,2-2.5,1.6c-0.6-0.4-0.6-1.7,0.2-2.9c0.7-1.3,1.8-2,2.5-1.6C195.3,49.2,195.2,50.5,194.5,51.8z"/>
	</g>
	<path class="st0" d="M167.7,49c-0.1,0.1-1.2,0.9,0,1.4c0,0,1.1-0.2,0.8-1.4c-0.2-0.5-0.6-0.9-1.1-1c-1.7-0.4-3.1,1.5-3.8,2.7
		c-0.3,0.4-0.5,0.9-0.7,1.4c-0.1,0.4-0.1,0.9,0.1,1.3c0.2,0.5,0.7,0.8,1.2,0.9c0.7,0.2,1.5,0.1,2.1-0.3c0.3-0.2,0.6-0.4,0.9-0.6
		c0.2-0.2,0.4-0.6,0.7-0.7c-0.8,0.4-1.6,0.9-2.5,1c-0.4,0-0.8,0-1-0.3c-0.2-0.2-0.3-0.5-0.3-0.8c-0.1-1.5,0.7-2.9,2-3.8
		c0.4-0.2,0.8-0.5,1.2-0.5C167.5,48.3,168,48.5,167.7,49z"/>
	<g>
		<path class="st0" d="M173,48.1c-1.3-0.5-2.8,0.5-3.5,2.1c-0.6,1.7-0.1,3.4,1.2,3.9c1.3,0.5,2.8-0.5,3.5-2.1
			C174.8,50.4,174.2,48.6,173,48.1z M173.3,51.7c-0.6,1.5-1.8,2.4-2.7,2.1c-0.9-0.3-1.1-1.8-0.6-3.3c0.6-1.5,1.8-2.4,2.7-2.1
			C173.6,48.7,173.8,50.2,173.3,51.7z"/>
	</g>
	<path class="st0" d="M175.5,48.3c-0.2,0,2.7-0.5,2.2,0.5l-0.8,1.6c0,0,1.8-2.9,3-2.6c0,0,1.4,0.5,0.2,2.6c0.3-0.5,0.7-1.1,1.2-1.5
		c0.4-0.4,0.9-0.8,1.4-0.8c0.7-0.1,0.9,0.7,0.9,1.3c0,0.6-0.2,1.1-0.4,1.7c-0.3,0.7-0.8,1.3-0.8,2.1c0,0.1,0,0.2,0.1,0.2
		c0.1,0.1,0.3,0.1,0.5,0c0.3-0.2,0.7-0.5,0.9-0.8c-0.4,0.5-0.7,1-1.2,1.4c-0.3,0.3-0.9,0.7-1.2,0.2c-0.1-0.2-0.1-0.4-0.1-0.6
		c0.1-0.9,2.3-4.1,0.9-4.7c-0.6-0.2-1.4,1.2-1.7,1.5c-0.8,1.1-1.1,2.4-1.6,3.7l-1-0.1c0,0,2.7-4.9,1.1-5c0,0-1-0.5-2.6,3.1l-0.5,1.9
		c0,0-1.2-0.1-1.2-0.1c0.6-1.5,1.1-3.1,1.7-4.5c0.1-0.2,0.2-0.4,0.1-0.6C176.5,48.3,175.8,48.3,175.5,48.3z"/>
	<path class="st0" d="M190.4,49.2c-0.9-2.5-3.4-0.2-3.4-0.2c0.3-0.3,0-0.7,0-0.7s-1.8,0.1-2,0l-0.1,0.4l1.2,0l-2.4,8.1h-1.1v0.3h3.3
		l0-0.4h-1.1l0.5-2.3h1.1C191,53.8,190.4,49.2,190.4,49.2z M189.7,50.4c-0.6,1.9-2,3.9-4.3,3.2c-0.2-0.1,0.8-2.4,0.9-2.6
		c0.3-0.7,0.7-1.6,1.4-2.1c0.7-0.5,1.9-0.5,2.1,0.5C189.9,49.8,189.8,50.1,189.7,50.4z"/>
	<path class="st0" d="M197.8,48.3c0,0,2.1,0,2.1,0c-0.2,0.6-0.4,1.3-0.6,1.9c0.7-0.8,1.7-2,2.9-2.2c0.7-0.1,1.2,0.7,1,1.3
		c0,0.1-0.1,0.2-0.1,0.3c-0.2,0.4-0.3,0.9-0.5,1.3c-0.1,0.4-0.3,0.8-0.4,1.2c-0.2,0.4-0.4,0.9-0.4,1.4c0,0.9,1.2-0.4,1.4-0.5
		c0,0-2.8,3.2-2.3,0.4c0.2-0.6,0.4-1.1,0.6-1.7c0.1-0.4,1.3-3,0.5-3.1c-0.1,0-0.2,0-0.2,0.1c-0.8,0.4-1.2,1.5-1.6,2.3
		c-0.5,0.8-0.9,1.7-1.4,2.5c-0.1,0.3-0.3,0.5-0.4,0.8h-0.9l1.7-5.6h-1.3L197.8,48.3z"/>
	<path class="st0" d="M203.9,48.3c0.5,0,1-0.1,1.5,0c0.4,0.1,0.8,0.3,0.8,0.8c0.1,1.3,0.1,2.7,0.2,4c0,0,2.5-3.2,2.6-3.2
		c0.3-0.4-0.1-0.5-0.4-0.6c-0.7-0.2-0.4-0.9,0.2-1.1c0.4-0.1,1-0.1,1.1,0.4c0.3,0.8-0.6,1.7-1,2.2c-0.9,1.2-1.8,2.4-2.7,3.5
		c-0.6,0.8-1.2,1.7-1.9,2.4c-0.6,0.6-1.9,0.7-1.9-0.4c0-0.2,0.1-0.5,0.3-0.5c0.1,0,0.3,0.1,0.4,0.1c0.4,0.3,0.6,0.5,1,0.2
		c1.2-0.7,1.5-2.2,1.5-3.5c0-0.7-0.1-1.4-0.1-2.1c0-0.7,0-1.5-0.6-2C204.5,48.3,204.2,48.3,203.9,48.3z"/>
</g>
</svg>
