<?xml version="1.0" encoding="utf-8"?>
<!-- Generator: Adobe Illustrator 28.0.0, SVG Export Plug-In . SVG Version: 6.00 Build 0)  -->
<svg version="1.1" id="Capa_1" xmlns="http://www.w3.org/2000/svg" xmlns:xlink="http://www.w3.org/1999/xlink" x="0px" y="0px"
	 viewBox="0 0 185 92" style="enable-background:new 0 0 185 92;" xml:space="preserve">
<style type="text/css">
	.st0{fill:#FEFEFE;}
	.st1{fill:#2DB6EA;}
	.st2{fill:#004E76;}
	.st3{fill:#888C8F;}
	.st4{fill:#0088B7;}
	.st5{fill:#0088B8;}
	.st6{fill:#0188B8;}
	.st7{fill:#FDFEFE;}
	.st8{fill:#FAFCFD;}
</style>
<g>
	<path class="st0" d="M89.4,93.3c-26.2,0-52.3,0-78.5,0c-0.7,0-0.9-0.1-0.9-0.9c0-28.8,0-57.7,0-86.5C10,5.2,10.1,5,10.9,5
		c52.4,0,104.8,0,157.2,0c0.7,0,0.9,0.1,0.9,0.9c0,28.8,0,57.7,0,86.5c0,0.7-0.1,0.9-0.9,0.9C141.9,93.3,115.7,93.3,89.4,93.3z"/>
	<path class="st1" d="M38.5,33.3c0.2,0.5,0,1.1,0,1.6c0,5,0.1,9.9,0,14.9c-0.1,5-3.8,9.7-8.6,11.2c-7.4,2.3-14.7-1.9-16.4-9.4
		c-0.9-4.4,0.3-8.2,3.4-11.4c0.5,0.1,0.8,0.5,1.1,0.8c6.5,5.7,16.6,3.1,19.5-5.1c0.2-0.6,0.3-1.3,0.5-2C38.1,33.7,38,33.2,38.5,33.3
		z"/>
	<path class="st2" d="M38.5,33.3c-0.4,1.2-0.6,2.5-1.1,3.6c-2.5,5.4-8.2,8.1-13.5,7.1c-2.8-0.5-5.1-1.8-7-3.9c0-0.1,0-0.1,0-0.2
		c2.8-2.9,5.7-5.6,8.7-8.4c1.7-1.6,3.3-3.2,5-4.8c2.3-2.2,4.6-4.3,6.8-6.5c0.3-0.3,0.6-0.6,1.1-0.6c0,4.1,0,8.2,0,12.2
		C38.5,32.4,38.5,32.8,38.5,33.3z"/>
	<path class="st3" d="M38.5,19.6c-0.3,0.2-0.6,0.4-0.9,0.7c-3.8,3.7-7.7,7.5-11.5,11.2c-2.8,2.7-5.6,5.3-8.4,8.1
		c-0.2,0.2-0.4,0.5-0.7,0.4c-1.7-1.6-2.6-3.7-3-5.9c-0.8-4.4,0.6-8.2,3.7-11.3c2.1-2,4.7-3.2,7.7-3.3c4.2-0.1,8.3,0,12.5,0
		C38,19.5,38.3,19.4,38.5,19.6z"/>
	<path class="st2" d="M80.9,28c0.1,5.1-3.6,8.7-8.9,8.8c-5.6,0.1-9.3-3.3-9.4-8.7c-0.1-5.4,3.5-9,9-9.2C77.1,18.9,80.8,22.5,80.9,28
		z"/>
	<path class="st2" d="M115.7,27.9c0-2.6,0-5.2,0-7.8c0-0.3-0.1-0.7,0.5-0.7c2.9,0.1,5.9-0.2,8.8,0.4c3.7,0.8,6.2,3.6,6.4,7.5
		c0.2,3.9-1.8,7.1-5.3,8.4c-1.7,0.6-3.4,0.8-5.2,0.8c-1.4,0-2.8-0.1-4.2,0c-0.8,0.1-0.9-0.3-0.9-1C115.7,33,115.7,30.4,115.7,27.9
		C115.7,27.9,115.7,27.9,115.7,27.9z"/>
	<path class="st2" d="M60.2,30.9c0,1.3,0,2.5,0,3.8c0,0.3,0,0.6-0.3,0.7c-3.9,1.6-7.8,2.2-11.7,0.2c-3.3-1.8-4.8-5.6-4-9.8
		c0.7-3.6,3.6-6.2,7.4-6.7c2.8-0.3,5.4,0,7.8,1.6c0.5,0.4,0.5,0.6,0.1,1c-0.3,0.3-0.5,0.6-0.8,0.8c-0.4,0.5-0.8,1.1-1.3,1.3
		c-0.5,0.2-0.9-0.5-1.4-0.8c-2.2-1-5.7-1-7.3,1.7c-1.6,2.7-0.9,6.4,1.6,7.9c2,1.2,4,0.8,6,0.1c0.3-0.1,0.4-0.3,0.4-0.6
		c0.2-2.4,0.2-2.4-2.1-2.4c-0.7,0-1-0.1-0.9-0.9c0.1-0.8-0.3-2,0.2-2.4c0.5-0.4,1.6-0.1,2.4-0.1c1.1,0,2.2,0,3.4,0
		c0.6,0,0.7,0.2,0.7,0.7C60.2,28.4,60.2,29.7,60.2,30.9z"/>
	<path class="st2" d="M98.5,25.3c0,1.6,0,3.2,0,4.8c-0.1,3.2-1.9,5.5-5,6.3c-2.6,0.7-5.2,0.5-7.5-1.2c-1.7-1.2-2.5-3-2.6-5.1
		c-0.1-3.4,0-6.8,0-10.2c0-0.5,0.1-0.7,0.6-0.6c0.8,0.1,1.7,0.1,2.5,0c0.6,0,0.6,0.2,0.6,0.6c0,3.2,0,6.4,0,9.5c0,2,1.2,3.4,3.1,3.8
		c1.7,0.3,3.4-0.6,4.2-2.2c0.2-0.5,0.3-0.9,0.3-1.5c0-3.2,0-6.4,0-9.5c0-0.6,0.2-0.8,0.8-0.8c0.8,0.1,1.5,0,2.3,0
		c0.6,0,0.8,0.1,0.8,0.7C98.5,21.9,98.6,23.6,98.5,25.3C98.6,25.3,98.6,25.3,98.5,25.3z"/>
	<path class="st2" d="M135.3,31.8c1.2,1.3,2.6,1.9,4.3,1.4c0.8-0.2,1.5-0.6,1.5-1.5c0.1-0.9-0.5-1.4-1.2-1.8c-1-0.5-2.2-0.7-3.2-1.1
		c-0.8-0.3-1.5-0.6-2.1-1.2c-2.3-2.1-1.6-6.3,1.4-7.8c2.7-1.3,5.5-1.3,8.2,0.3c0.6,0.3,0.8,0.7,0.2,1.2c-0.6,0.6-1.1,1.2-1.7,1.8
		c-0.2,0.3-0.4,0.3-0.7,0.1c-1.2-1-2.6-1.1-4-0.4c-1.1,0.5-1.2,1.9-0.2,2.6c0.5,0.4,1.1,0.6,1.8,0.8c0.9,0.3,1.7,0.5,2.6,0.9
		c1.8,0.7,2.8,2.1,2.8,4.1c0,1.8-0.6,3.4-2.1,4.5c-2.6,1.8-7.1,1.6-9.6-0.5c-0.4-0.3-0.5-0.5-0.1-1
		C133.9,33.5,134.6,32.7,135.3,31.8z"/>
	<path class="st2" d="M102.2,27.9c0-2.6,0-5.2,0-7.8c0-0.5,0.1-0.8,0.7-0.7c0.8,0.1,1.6,0.1,2.4,0c0.6,0,0.7,0.2,0.7,0.7
		c0,4,0,8,0,12c0,0.7,0.2,0.9,0.9,0.8c2,0,4,0,6,0c0.6,0,0.9,0.1,0.8,0.8c-0.1,0.9,0.4,2-0.2,2.6c-0.5,0.6-1.7,0.2-2.5,0.2
		c-2.7,0-5.4,0-8,0c-0.6,0-0.7-0.1-0.7-0.7C102.2,33.1,102.2,30.5,102.2,27.9z"/>
	<path class="st4" d="M78.3,74.7c-0.1,0.1-0.2,0.1-0.2,0.1c-1.4,0.3-2.5-0.2-3.2-1.5c-0.3-0.5-0.6-1.4-1.1-1.4
		c-0.5,0-0.8,0.8-1.1,1.3c-0.7,1-1.6,1.6-2.9,1.6c-0.4,0-0.6-0.2-0.5-0.5c0.1-0.4-0.3-1.1,0.3-1.1c1-0.1,1.4-0.8,1.9-1.4
		c1.2-1.5,1.1-1.5,0-3c-0.7-0.9-1.3-1.8-2-2.7c0,0,0-0.1,0-0.2c0.6,0,1.2,0,1.7,0c0.4,0,0.6,0.2,0.8,0.5c0.5,0.6,0.9,1.2,1.4,1.8
		c0.3,0.5,0.5,0.5,0.9,0c0.3-0.5,0.7-1,1.2-1.4c1.7-1.7,4-1.4,5,0.8c0.6,1.4,1.1,2.8,1.7,4.2c0,0.1,0,0.2,0.1,0.2
		c0.2,0.4,0.3,0.9,0.7,0.9c0.4,0,0.4-0.6,0.5-0.9c0.7-1.9,1.3-3.8,2-5.6c0.1-0.4,1.8-0.8,2.1-0.5c0.1,0.2,0,0.3,0,0.5
		c-1.3,3.6-2.6,7.2-3.9,10.8c-0.6,1.5-1.8,2.1-3.2,2.1c-0.5,0-0.7-0.2-0.6-0.6c0.1-0.4-0.3-1,0.5-1.1c1-0.1,2.2-1.6,2.2-2.6
		c0-0.1,0-0.2-0.2-0.2c-1.2-0.3-1.5-1.4-1.9-2.4c-0.5-1.3-1-2.6-1.6-3.9c-0.6-1.3-1.4-1.4-2.3-0.3c-1.5,1.8-1.5,1.8-0.1,3.7
		C76.9,72.8,77.6,73.7,78.3,74.7z"/>
	<path class="st4" d="M103.3,71.4c0-0.8,0-1.6,0-2.4c0-1.3,0.5-2.3,1.7-2.9c1.3-0.7,2.6-0.6,3.8,0.2c0.4,0.3,0.6,0.3,1,0
		c1.1-0.8,2.4-0.9,3.7-0.2c1.1,0.6,1.6,1.6,1.6,2.8c0,1,0,2.1,0,3.1c0,0.6,0.2,1,0.9,1.1c0.8,0.1,0.3,0.7,0.4,1.1
		c0.1,0.4-0.2,0.5-0.6,0.5c-1.7,0-2.5-0.6-2.6-2.3c-0.1-1.1,0-2.2-0.1-3.4c0-1.1-0.5-1.6-1.3-1.7c-0.9,0-1.5,0.5-1.5,1.6
		c-0.1,1.6-0.1,3.3,0,4.9c0,0.9-0.5,0.8-1,0.8c-0.5,0-1,0.2-1-0.7c0.1-1.6,0-3.1,0-4.7c0-1.2-0.6-1.9-1.5-1.9c-1,0-1.5,0.7-1.5,1.9
		c0,1.6,0,3.1,0,4.7c0,0.9-0.5,0.7-1,0.7c-0.5,0-1,0.1-0.9-0.7C103.3,73.1,103.2,72.2,103.3,71.4C103.3,71.4,103.3,71.4,103.3,71.4z
		"/>
	<path class="st4" d="M94.7,71.1c0.2,2.2,2.9,2.6,4.2,1.6c0.8-0.6,1.3-0.3,1.9,0.3c0.3,0.3,0.2,0.4,0,0.6c-2.5,2-7,1.6-7.9-1.9
		c-0.6-2.1,0.2-4.4,2-5.4c1.7-1,4-0.7,5.4,0.7c1,1,1.3,2.3,1.3,3.6c0,0.5-0.3,0.5-0.7,0.5c-1.7,0-3.5,0-5.2,0
		C95.3,71.1,95,71.1,94.7,71.1z"/>
	<path class="st1" d="M52.4,45.4c0.4-1.6,0.8-3,1.1-4.4c0.2-0.8,0.9-1.2,1.7-0.9c0.3,0.1,0.2,0.3,0.2,0.5c-0.7,2.3-1.4,4.7-2,7
		c-0.2,0.6-0.6,0.5-1.1,0.5c-0.4,0-0.7,0-0.8-0.5c-0.5-1.6-1-3.2-1.6-5c-0.5,1.7-1,3.3-1.5,4.8c-0.2,0.5-0.4,0.8-1,0.8
		c-0.6,0-0.9-0.2-1-0.8c-0.6-2.2-1.3-4.4-1.9-6.6c-0.2-0.6,0-0.6,0.5-0.7c1.2,0,1.2,0,1.5,1.2c0.3,1.3,0.6,2.5,1,4
		c0.5-1.7,1.1-3.1,1.5-4.6c0.2-0.7,0.6-0.6,1.1-0.7c0.5,0,0.8,0.1,1,0.7C51.3,42.3,51.8,43.7,52.4,45.4z"/>
	<path class="st4" d="M164.2,67.4c0-2.1,0-4.1,0-6c0-0.4-0.1-0.8,0.6-0.8c0.7,0,0.7,0.3,0.7,0.8c0,4.1,0,8.3,0,12.4
		c0,0.4,0.2,0.9-0.6,0.9c-0.8,0-0.6-0.5-0.6-0.9c0-0.1,0-0.2,0-0.4c-2.5,2-5,2-6.7,0.1c-1.6-1.9-1.5-4.9,0.3-6.6
		C159.5,65.2,162.1,65.4,164.2,67.4z"/>
	<path class="st5" d="M123.5,73.4c-0.3,0.5,0.3,1.4-0.8,1.3c-0.4,0-0.6-0.1-0.6-0.5c0-4.3,0-8.7,0-13c0-0.5,0.2-0.5,0.6-0.6
		c0.4,0,0.6,0.1,0.6,0.6c0,1.7,0,3.5,0,5.2c0,0.3-0.1,0.6,0.1,0.8c2.4-2,4.9-2,6.6-0.1c1.6,1.8,1.5,4.8-0.2,6.5
		C128.2,75.4,125.5,75.3,123.5,73.4z"/>
	<path class="st1" d="M122.7,45.5c0-1.5,0-3,0-4.5c0-0.7,0.3-0.8,0.9-0.8c0.6,0,0.8,0.1,0.8,0.8c0,2.2,0,4.4,0,6.5
		c0,0.6-0.2,0.7-0.8,0.7c-1.1,0.1-1.8-0.2-2.3-1.3c-0.7-1.4-1.7-2.8-2.7-4.1c0,1.5,0,3,0,4.4c0,0.8-0.8,1.3-1.5,0.9
		c-0.2-0.1-0.2-0.3-0.2-0.5c0-2.3,0-4.6,0-6.9c0-0.2,0-0.4,0.1-0.5c0.5-0.3,2.3,0.1,2.6,0.6c0.9,1.4,1.8,2.9,2.7,4.3
		C122.3,45.2,122.3,45.5,122.7,45.5z"/>
	<path class="st1" d="M129.8,48.3c-2.6,0-4.4-1.6-4.4-4.1c0-2.6,1.7-4.2,4.2-4.3c2.6,0,4.4,1.6,4.5,4
		C134.1,46.6,132.4,48.3,129.8,48.3z"/>
	<path class="st1" d="M144.8,48.3c-2.6,0-4.3-1.7-4.3-4.3c0-2.5,1.8-4.1,4.4-4.1c2.5,0,4.3,1.7,4.2,4.2
		C149.1,46.7,147.4,48.4,144.8,48.3z"/>
	<path class="st1" d="M157.4,45.6c0,0.1,0,0.1,0,0.2c0,2.1,0,2.1-2.1,2.5c-2.2,0.4-4.1-0.3-5-1.9c-1.6-2.8,0.2-6.2,3.4-6.4
		c1-0.1,2,0,2.9,0.5c0.4,0.2,0.6,0.4,0.2,0.9c-0.5,0.5-0.8,0.9-1.6,0.4c-1-0.7-2.5-0.2-3.2,0.7c-0.7,0.9-0.7,2.4,0,3.3
		c0.7,0.9,2.1,1.2,3.2,0.7c0.6-0.3,0.4-0.7,0.4-1.1c0-0.5-0.4-0.4-0.6-0.4c-0.7,0.1-0.8-0.3-0.8-0.9c0-0.7,0.3-0.7,0.9-0.7
		C157.4,43.4,157.4,43.3,157.4,45.6z"/>
	<path class="st1" d="M82.6,48.1c-0.7,0-1.2,0-1.7,0c-0.4,0-0.5-0.2-0.6-0.5c-0.4-0.7-0.7-1.4-1.1-2.1c-0.2-0.4-0.4-0.7-0.9-0.6
		c-0.5,0.1-0.2,0.5-0.3,0.8c0,0.6,0,1.2,0,1.8c0.1,0.7-0.4,0.6-0.9,0.6c-0.4,0-0.9,0.2-0.9-0.6c0-2.3,0-4.6,0-6.9
		c0-0.3,0-0.5,0.4-0.5c1.3,0.1,2.6-0.2,4,0.2c1,0.3,1.6,0.8,1.7,1.8c0.1,1.2-0.2,2-1.1,2.4c-0.4,0.2-0.5,0.3-0.2,0.8
		C81.5,46.2,82,47.1,82.6,48.1z"/>
	<path class="st1" d="M108.2,44.2c0-1.1,0-2.3,0-3.4c0-0.8,0.5-0.6,0.9-0.6c0.4,0,0.9-0.2,0.9,0.6c0,0.6,0,1.2,0,1.8
		c0,0.5,0.2,0.6,0.6,0.6c0.7,0,1.5,0,2.2,0c0.5,0,0.6-0.2,0.6-0.6c0-0.6,0-1.2,0-1.8c0-0.8,0.6-0.5,0.9-0.5c0.4,0,0.8-0.2,0.8,0.5
		c0,2.3,0,4.6,0,6.9c0,0.8-0.5,0.5-0.9,0.6c-0.4,0-0.9,0.2-0.9-0.6c0-0.8,0-1.5,0-2.3c0-0.5-0.1-0.6-0.6-0.6c-0.7,0-1.5,0-2.2,0
		c-0.5,0-0.6,0.2-0.6,0.6c0,0.8,0,1.5,0,2.3c0.1,0.8-0.5,0.6-1,0.6c-0.4,0-0.9,0.1-0.8-0.6C108.3,46.4,108.2,45.3,108.2,44.2z"/>
	<path class="st6" d="M62.8,73.4c-1.1,1.4-2.5,1.8-4.1,1.4c-1.2-0.3-1.9-1.2-2-2.3c-0.1-1.2,0.4-2.1,1.6-2.6
		c1.2-0.5,2.6-0.6,3.9-0.6c0.6,0,0.7-0.2,0.6-0.7c-0.2-1.1-0.7-1.7-1.9-1.9c-1-0.1-1.9,0.1-2.7,0.7c-0.5,0.4-0.6,0-0.8-0.2
		c-0.4-0.4,0-0.5,0.2-0.7c1.5-1,3.1-1.2,4.7-0.5c1,0.4,1.5,1.2,1.6,2.3c0.2,2,0,3.9,0.2,5.9c0,0.3-0.1,0.4-0.4,0.4
		c-0.3,0-0.6,0.1-0.7-0.3C62.9,74.1,62.8,73.8,62.8,73.4z"/>
	<path class="st6" d="M144.1,73.4c-1.2,1.3-2.5,1.8-4.1,1.3c-1.3-0.3-2-1.3-2-2.5c0-1.2,0.7-2,2-2.5c1.1-0.4,2.3-0.4,3.5-0.4
		c0.7,0,0.7-0.3,0.6-0.8c-0.2-1.5-1.6-2.2-3.4-1.7c-0.4,0.1-0.8,0.3-1.1,0.5c-0.4,0.4-0.6,0.1-0.9-0.2c-0.4-0.4,0-0.6,0.3-0.7
		c1.3-0.8,2.7-1,4.2-0.6c1.3,0.4,2,1.3,2,2.6c0.1,1.9,0.1,3.8,0.1,5.7c0,0.3-0.1,0.4-0.4,0.4c-0.3,0-0.6,0.1-0.7-0.3
		C144.2,74.1,144.1,73.8,144.1,73.4z"/>
	<path class="st1" d="M69.2,44.2c0-1.1,0-2.2,0-3.3c0-0.5,0.1-0.7,0.6-0.7c1.4,0,2.8,0,4.1,0c0.7,0,0.6,0.5,0.6,0.9
		c0,0.5,0,0.8-0.6,0.8c-0.8-0.1-1.6,0-2.5,0c-0.6,0-0.6,0.3-0.5,0.7c0,0.4-0.2,0.9,0.5,0.9c0.8,0,1.5,0,2.3,0c0.7,0,0.6,0.4,0.6,0.9
		c0,0.4,0,0.8-0.6,0.8c-0.7,0-1.5,0-2.2,0c-0.7,0-0.6,0.4-0.6,0.9c0,0.4-0.1,0.8,0.6,0.8c0.9,0,1.8,0,2.6,0c0.7,0,0.6,0.4,0.7,0.8
		c0,0.5,0,0.8-0.7,0.8c-1.4,0-2.9,0-4.3,0c-0.6,0-0.7-0.2-0.7-0.7C69.2,46.3,69.2,45.2,69.2,44.2z"/>
	<path class="st1" d="M93.5,44c0-1.1,0-2.2,0-3.3c0-0.5,0.1-0.7,0.7-0.7c1.4,0,2.8,0,4.1,0c0.8,0,0.6,0.5,0.6,0.9
		c0,0.5,0,0.8-0.6,0.8c-0.8-0.1-1.6,0-2.5,0c-0.5,0-0.7,0.2-0.6,0.7c0,0.4-0.1,0.9,0.6,0.9c0.8,0,1.5,0,2.3,0c0.7,0,0.6,0.5,0.6,0.9
		c0,0.5,0,0.8-0.6,0.8c-0.8-0.1-1.5,0-2.3,0c-0.7,0-0.6,0.5-0.6,0.9c0,0.4,0,0.8,0.6,0.8c0.8,0,1.7,0,2.6,0c0.6,0,0.8,0.2,0.7,0.7
		c0,0.5,0.1,0.9-0.7,0.9c-1.4-0.1-2.8,0-4.2,0c-0.5,0-0.7-0.2-0.7-0.7C93.5,46.3,93.5,45.2,93.5,44z"/>
	<path class="st1" d="M62.7,48.1c-0.3,0-0.6,0-0.9,0c-0.7,0.1-1.2-0.1-1.3-0.9c-0.1-0.7-0.6-1-1.3-0.8c-0.3,0-0.5,0-0.8,0
		c-1-0.2-1.6,0.2-1.8,1.2c-0.1,0.4-0.3,0.6-0.8,0.5c-0.4-0.1-0.9,0.1-1.4-0.1c1.1-2.5,2.2-5,3.2-7.5c0.2-0.6,1.5-0.6,1.7,0
		c1.1,2.5,2.1,4.9,3.2,7.4C62.7,47.9,62.7,48,62.7,48.1z"/>
	<path class="st6" d="M88.5,66.9c0-1.6,0-3.3,0-4.9c0-0.8,0.2-1,1-1c0.8,0,1,0.2,1,1c0,3.2,0,6.4,0,9.6c0,0.8,0.1,1.4,1.1,1.5
		c0.6,0.1,0.2,0.8,0.3,1.2c0.1,0.4-0.2,0.5-0.6,0.5c-1.8,0.1-2.7-0.8-2.7-2.6C88.4,70.4,88.5,68.7,88.5,66.9z"/>
	<path class="st6" d="M148.7,67.3c0.8-1,1.8-1.5,3-1.5c1.8,0,3.1,1.1,3.2,2.9c0.2,1.8,0,3.6,0.1,5.5c0,0.5-0.2,0.6-0.6,0.6
		c-0.5,0-0.7-0.1-0.7-0.6c0-1.7,0-3.4,0-5c-0.1-1.3-0.7-2-1.8-2.2c-1.1-0.2-2.2,0.4-2.8,1.4c-0.3,0.6-0.4,1.3-0.4,2
		c0,1.3,0,2.5,0,3.8c0,0.5-0.1,0.7-0.6,0.7c-0.5,0-0.6-0.2-0.7-0.7c0-2.5,0.1-5-0.1-7.6c0-0.3,0-0.6,0.5-0.5c0.3,0,0.7-0.1,0.8,0.4
		C148.6,66.6,148.6,66.9,148.7,67.3z"/>
	<path class="st1" d="M104.3,48.3c-1.9,0-3.3-1-3.9-2.6c-0.6-1.7-0.2-3.6,1-4.7c1.3-1.1,3.4-1.4,4.8-0.7c0.3,0.2,0.9,0.3,0.7,0.9
		c-0.2,0.6-1.1,0.9-1.6,0.6c-1-0.5-2.2-0.3-2.8,0.6c-0.8,1.1-0.7,2.7,0.2,3.6c0.8,0.8,1.8,0.9,2.9,0.2c0.8-0.6,1.1,0.3,1.5,0.6
		c0.5,0.4-0.1,0.6-0.4,0.8C105.9,48.2,105.3,48.3,104.3,48.3z"/>
	<path class="st1" d="M157.9,40.3c1.6-0.5,2.5,0.1,3,1.5c0.2,0.4,0.5,0.8,0.8,1.3c0.4-0.6,0.8-1.1,1-1.6c0.5-1.4,1.5-1.5,2.8-1.2
		c-0.6,0.8-1,1.7-1.6,2.5c-1.1,1.3-1.5,2.7-1.3,4.4c0.1,0.9-0.6,1.3-1.4,1c-0.1,0-0.2-0.1-0.2-0.2c0-0.1,0-0.1,0-0.2
		c0.6-2.9-1.3-4.8-2.7-7C158.1,40.6,158,40.4,157.9,40.3z"/>
	<path class="st1" d="M88.4,44.9c0-0.9,0-1.7,0-2.6c0-0.5-0.1-0.7-0.6-0.7c-0.2,0-0.5,0-0.7,0c-1,0-1.1-0.1-1-1.1
		c0-0.3,0.1-0.5,0.5-0.5c1.8,0,3.6,0,5.4,0c0.7,0,0.5,0.5,0.5,0.9c0,0.4,0,0.7-0.6,0.7c-1.7,0.1-1.7,0.1-1.7,1.8c0,1.2,0,2.5,0,3.7
		c0,0.7-0.2,0.9-0.9,0.9c-0.6,0-1-0.1-0.9-0.8C88.5,46.5,88.4,45.7,88.4,44.9z"/>
	<path class="st1" d="M64.2,44.9c0-0.9,0-1.7,0-2.6c0-0.5-0.1-0.7-0.6-0.7c-0.2,0-0.5,0-0.7,0c-0.9,0.2-1-0.3-1-1.1
		c0-0.4,0.1-0.5,0.5-0.5c1.8,0,3.5,0,5.3,0c0.6,0,0.5,0.5,0.5,0.8c0,0.4,0.1,0.8-0.5,0.8c-0.6,0-1.3-0.3-1.6,0.1
		c-0.4,0.5-0.1,1.2-0.1,1.9c0,1.3,0,2.5,0,3.8c0,0.7-0.4,0.6-0.9,0.6c-0.4,0-0.9,0.1-0.9-0.6C64.2,46.7,64.2,45.8,64.2,44.9z"/>
	<path class="st1" d="M135.2,44c0-1.1,0-2.2,0-3.3c0-0.9,0.6-0.5,1-0.6c0.4-0.1,0.8-0.1,0.8,0.6c0,1.7,0,3.3,0,5
		c0,0.6,0.1,0.9,0.8,0.8c0.5-0.1,1.1,0,1.6,0c0.8,0,1.2,0.5,0.9,1.3c-0.1,0.3-0.4,0.3-0.6,0.3c-1.3,0-2.6,0-3.9,0
		c-0.4,0-0.6-0.2-0.5-0.6C135.3,46.4,135.2,45.2,135.2,44z"/>
	<path class="st6" d="M134,67.3c0.9-1.1,1.8-1.6,3-1.5c0.4,0,0.6,0.1,0.5,0.6c-0.1,0.3,0,0.7-0.6,0.7c-2.1,0.1-3,1-3,3.1
		c0,1.3,0,2.6,0,3.9c0,0.4,0,0.7-0.6,0.7c-0.5,0-0.7-0.2-0.7-0.7c0-2.5,0.1-5.1-0.1-7.6c0-0.3,0.1-0.5,0.4-0.4
		c0.3,0,0.8-0.2,0.9,0.3C134,66.5,134,66.8,134,67.3z"/>
	<path class="st0" d="M66.5,27.9c-0.1-3.1,2-5.4,5.2-5.4c3.1-0.1,5.3,2.1,5.4,5.5c0.1,3-2.1,5.4-5,5.5
		C68.7,33.5,66.6,31.4,66.5,27.9z"/>
	<path class="st0" d="M119.5,27.9c0-1.5,0-2.9,0-4.4c0-0.2-0.1-0.6,0.3-0.6c1.9,0,3.8-0.1,5.5,0.9c1.9,1.1,2.4,2.8,2.2,4.8
		c-0.2,1.9-1.2,3.3-3.1,3.9c-1.4,0.5-2.9,0.6-4.4,0.6c-0.6,0-0.5-0.3-0.5-0.7C119.5,30.9,119.5,29.4,119.5,27.9z"/>
	<path class="st7" d="M94.7,69.5c0.2-1.3,1-2.1,2.1-2.2c1.2-0.1,2.1,0.5,2.5,1.6c0.1,0.4,0.2,0.6-0.3,0.6
		C97.5,69.5,96.1,69.5,94.7,69.5z"/>
	<path class="st0" d="M161,66.8c1.9,0,3.4,1.5,3.3,3.5c0,2-1.4,3.5-3.4,3.4c-1.9,0-3.2-1.4-3.2-3.4C157.8,68.2,159,66.8,161,66.8z"
		/>
	<path class="st0" d="M126.7,66.8c1.9,0,3.2,1.5,3.2,3.5c0,2-1.4,3.5-3.3,3.4c-2,0-3.4-1.5-3.3-3.6
		C123.3,68.2,124.7,66.8,126.7,66.8z"/>
	<path class="st0" d="M129.7,41.6c1.5,0,2.5,1.1,2.5,2.6c0,1.5-1.1,2.5-2.5,2.5c-1.5,0-2.5-1-2.5-2.6
		C127.3,42.6,128.3,41.6,129.7,41.6z"/>
	<path class="st0" d="M147.3,44.2c0,1.5-1,2.5-2.4,2.5c-1.5,0-2.5-1.1-2.5-2.6c0-1.5,1.1-2.6,2.6-2.5
		C146.3,41.6,147.3,42.6,147.3,44.2z"/>
	<path class="st8" d="M78.6,43.5c-0.5,0.1-0.7-0.2-0.7-1c0-0.8,0.2-1.1,1-1c0.2,0,0.5,0,0.7,0.1c0.5,0.1,0.9,0.4,0.9,0.9
		c0,0.6-0.4,0.7-0.9,0.8C79.4,43.5,79.1,43.5,78.6,43.5z"/>
	<path class="st7" d="M61.6,70.3c0.3,0,0.5,0,0.8,0c0.3,0,0.4,0.1,0.4,0.4c0.1,2.1-1.8,3.6-3.7,3c-0.7-0.2-1.1-0.7-1.2-1.4
		c-0.1-0.7,0.3-1.2,0.9-1.4C59.7,70.4,60.7,70.4,61.6,70.3z"/>
	<path class="st0" d="M142.5,70.3c1.7-0.1,1.9,0.1,1.5,1.4c-0.4,1.7-2.1,2.5-3.7,1.8c-0.6-0.2-0.9-0.6-1-1.2
		c-0.1-0.7,0.2-1.1,0.7-1.5C140.9,70.4,141.9,70.4,142.5,70.3z"/>
	<path class="st8" d="M58.6,42.5c0.2,0.6,0.4,1,0.6,1.4c0.4,1.1,0.4,1-0.7,1.1c-0.7,0-0.8-0.2-0.5-0.8
		C58.1,43.7,58.3,43.2,58.6,42.5z"/>
</g>
</svg>
