<?xml version="1.0" encoding="utf-8"?>
<!-- Generator: Adobe Illustrator 28.0.0, SVG Export Plug-In . SVG Version: 6.00 Build 0)  -->
<svg version="1.1" id="Capa_1" xmlns="http://www.w3.org/2000/svg" xmlns:xlink="http://www.w3.org/1999/xlink" x="0px" y="0px"
	 viewBox="0 0 152 133" style="enable-background:new 0 0 152 133;" xml:space="preserve">
<style type="text/css">
	.st0{fill:#060608;}
	.st1{fill:#254B9A;}
</style>
<g>
	<path class="st0" d="M75.7,15c0,0.2-0.1,0.3-0.2,0.5c-1.6,2.7-3.2,5.4-4.7,8.2c-6,10.8-12.3,21.4-18.5,32.2c-0.2,0.3-0.2,0.6,0,0.9
		C60,69.9,67.7,83.2,75.3,96.4c0.1,0.1,0.2,0.3,0.2,0.4c-0.3,0.2-0.6,0.3-1,0.3c-5.1,0-10.1,0-15.2,0c-2.3,0-4.6,0-6.8,0
		c-0.4,0-0.5-0.1-0.7-0.4c-6-10.4-12-20.7-17.9-31.1c-1.7-3-3.5-6.1-5.2-9.1c-0.2-0.3-0.2-0.6,0-0.9c0.9-1.6,1.8-3.1,2.7-4.7
		C38.3,39.2,45.2,27.3,52,15.4c0.2-0.3,0.4-0.4,0.8-0.4c7.5,0,14.9,0,22.4,0C75.4,15,75.5,15,75.7,15z"/>
	<path class="st1" d="M123.4,56.3c-0.2,0.4-0.4,0.7-0.6,1.1C115,70.4,107.6,83.6,100,96.8c-0.2,0.3-0.4,0.5-0.8,0.5
		c-7.5,0-15,0-22.5,0c-0.2,0-0.3,0-0.6-0.1c5.6-9.8,11.2-19.5,16.8-29.3c-0.2-0.1-0.4-0.1-0.5-0.1c-2.3,0-4.7,0-7,0
		c-0.1,0-0.2,0-0.3,0c-0.2,0-0.3-0.1-0.3-0.3c0-0.1,0-0.2,0-0.3c0-3.5,0-6.9,0-10.4c0-0.6-0.1-0.6,0.6-0.6c10,0,20,0,30,0
		c2.5,0,4.9,0,7.4,0C123,56.2,123.2,56.2,123.4,56.3z"/>
	<path class="st1" d="M120.9,48.9c-0.3,0-0.4,0-0.6,0c-7.5,0-15,0-22.5,0c-0.4,0-0.6-0.1-0.9-0.5c-5.3-8.5-10.6-17-16-25.6
		c-1.5-2.5-3.1-4.9-4.7-7.4c-0.1-0.1-0.2-0.3-0.2-0.5c0.2-0.1,0.3,0,0.5,0c6.8,0,13.5,0,20.3,0c0.8,0,1.7,0,2.5,0
		c0.3,0,0.5,0.1,0.7,0.4c1.9,3.1,3.8,6.2,5.8,9.3c4.9,7.9,9.9,15.8,14.8,23.7C120.7,48.6,120.8,48.7,120.9,48.9z"/>
	<path class="st0" d="M55.8,105.8c1.9,0,3.8,0,5.7,0c0.5,0,1,0.1,1.4,0.3c0.4,0.2,0.7,0.3,1,0.5c0.8,0.5,1.2,1.1,1.2,2
		c0,0.7,0.1,1.4,0,2.1c-0.1,0.9-0.6,1.5-1.4,1.8c-0.2,0-0.3,0.1-0.5,0.1c-0.3,0.1-0.4,0.3-0.5,0.5c-0.1,0.5,0,0.6,0.5,0.7
		c1.1,0.1,1.9,0.9,1.8,1.9c0,0.7,0,1.3,0,2c0,0.2,0,0.3-0.3,0.3c-1.4,0-2.9,0-4.3,0c-0.3,0-0.3-0.1-0.3-0.3c0-0.5,0-1.1,0-1.6
		c0-0.5-0.2-0.8-0.5-1c-0.5-0.3-1-0.6-1.6-0.5c-1.1,0-2.3,0-3.4,0c-0.6,0-0.7,0.2-0.7,0.7c0,0.8,0,1.6,0,2.4c0,0.4,0,0.4-0.4,0.4
		c-1.3,0-2.6,0-3.9,0c-0.3,0-0.3,0-0.3-0.3c0-3.8,0-7.7,0-11.5c0-0.4,0-0.4,0.4-0.4C51.7,105.8,53.7,105.8,55.8,105.8z M56.9,112
		c0.8,0,1.7,0,2.5,0c0.5,0,0.8-0.3,0.8-0.8c0-0.5,0-1,0-1.4c0-0.7-0.5-1.1-1.1-1.1c-1.5,0-2.9,0-4.4,0c-0.1,0-0.2,0-0.2,0
		c-0.4,0-0.6,0.2-0.6,0.6c0,0.8,0,1.6,0,2.3c0,0.4,0,0.4,0.4,0.4C55.1,112,56,112,56.9,112z"/>
	<path class="st0" d="M113.2,105.8c1.1,0,2.3,0,3.6,0c1.4,0,2.6,0.5,3.5,1.5c0.4,0.4,0.8,0.8,1,1.3c0.1,0.2,0.2,0.4,0.2,0.6
		c0,1.7,0,3.3,0,5c0,0.2,0,0.4,0,0.6c0,1.2-0.7,2-1.7,2.4c-1.1,0.5-2.3,0.7-3.5,0.8c-2,0.2-4,0.1-6,0.1c-1.2,0-2.4-0.2-3.6-0.5
		c-1.3-0.4-2.1-1.2-2.2-2.5c-0.1-0.6-0.1-1.2-0.1-1.9c0-1.2,0-2.5,0-3.7c0-0.9,0.4-1.6,1-2.1c1-1,2.3-1.5,3.7-1.5
		C110.4,105.8,111.7,105.8,113.2,105.8z M112.7,115.4C112.7,115.4,112.7,115.4,112.7,115.4c0.6,0,1.3,0,1.9,0c0.7,0,1.3-0.2,1.8-0.7
		c0.2-0.2,0.3-0.4,0.3-0.7c0-1.3,0-2.7,0-4c0-0.3-0.1-0.5-0.3-0.7c-0.5-0.4-1-0.6-1.6-0.7c-1.2-0.1-2.4-0.1-3.6,0.1
		c-0.5,0.1-1,0.3-1.4,0.7c-0.2,0.2-0.4,0.5-0.4,0.8c0,0.6,0,1.1,0,1.7c0,0.7,0,1.4,0,2.2c0,0.9,0.6,1.4,1.4,1.4
		C111.4,115.4,112,115.4,112.7,115.4z"/>
	<path class="st0" d="M38.2,105.7c1.4,0,2.7,0,4.1,0c1.6,0,3,0.5,4.1,1.7c0.3,0.3,0.6,0.7,0.5,1.2c0,0.2,0,0.4,0,0.6
		c0,0.5,0,0.4-0.4,0.4c-0.2,0-0.5,0-0.7,0c-1,0-2,0-3.1,0c-0.2,0-0.4,0-0.5-0.3c-0.5-0.7-1.2-1-2-1.1c-1.1,0-2.1-0.1-3.2,0
		c-1.4,0.1-2.6,0.9-2.6,2.6c0,0.8,0,1.7,0,2.5c0,1.6,1.1,2.4,2.5,2.5c1,0.1,1.9,0,2.9,0c0.8,0,1.4-0.4,1.9-1
		c0.2-0.2,0.2-0.4,0.3-0.6c0-0.3,0-0.7,0-1c0-0.1-0.1-0.2-0.2-0.2c-0.7,0-1.5,0-2.2,0c-1,0.1-1,0.1-1-0.9c0-0.7,0-0.7,0.6-0.7
		c2.4,0,4.8,0,7.2,0c0.1,0,0.2,0,0.3,0c0.1,0,0.2,0.1,0.2,0.2c0,1.1,0.1,2.1-0.1,3.2c-0.2,1.4-1.1,2.3-2.4,2.7
		c-0.4,0.1-0.9,0.2-1.3,0.2c-0.6,0.1-1.2,0.1-1.9,0.1c-1.8,0-3.7,0-5.5,0c-0.9,0-1.8-0.1-2.8-0.2c-0.9-0.1-1.6-0.5-2.3-1.1
		c-0.5-0.5-1-1.1-1.2-1.9c-0.1-0.3-0.1-0.6-0.1-0.9c0-1.2,0-2.5,0-3.7c0-0.9,0.3-1.7,0.8-2.5c0.7-1.1,1.7-1.6,2.9-1.9
		c0.7-0.2,1.4-0.2,2-0.2C36.2,105.7,37.2,105.7,38.2,105.7C38.2,105.7,38.2,105.7,38.2,105.7z"/>
	<path class="st0" d="M85.5,118c-0.1,0.1-0.2,0-0.3,0c-1.5,0-2.9,0-4.4,0c-0.2,0-0.4-0.1-0.5-0.3c-0.2-0.6-0.5-1.1-0.7-1.7
		c-0.1-0.2-0.2-0.3-0.4-0.3c-2.1,0-4.2,0-6.3,0c-0.3,0-0.4,0.1-0.5,0.3c-0.2,0.6-0.5,1.1-0.7,1.7c-0.1,0.2-0.1,0.3-0.3,0.3
		c-1.6,0-3.2,0-4.8,0c0-0.1,0-0.2,0-0.2c1.4-3.2,2.9-6.4,4.3-9.6c0.3-0.7,0.7-1.4,1-2.1c0.1-0.2,0.2-0.3,0.4-0.3c2.4,0,4.9,0,7.3,0
		c0.3,0,0.4,0.1,0.5,0.4c1.1,2.2,2,4.4,3,6.6c0.8,1.7,1.4,3.4,2.2,5C85.5,117.8,85.5,117.9,85.5,118z M76,113.8c0.5,0,1,0,1.5,0
		c0.7,0,0.9-0.3,0.6-1c-0.6-1.3-1.2-2.7-1.8-4c0-0.1-0.1-0.2-0.1-0.3c-0.1-0.2-0.4-0.2-0.5,0c0,0.1-0.1,0.1-0.1,0.2
		c-0.6,1.4-1.2,2.7-1.8,4.1c-0.3,0.6,0,0.9,0.6,0.9C75,113.8,75.5,113.8,76,113.8z"/>
	<path class="st0" d="M94.4,117.8c-1.5,0-2.9,0-4.4,0c-1,0-1.9-0.2-2.8-0.8c-0.8-0.5-1.2-1.3-1.2-2.2c0-1.9,0-3.7,0-5.6
		c0-0.6,0.2-1,0.5-1.4c1.1-1.4,2.6-2,4.3-2c2.5,0,5,0,7.6,0c1.3,0,2.4,0.4,3.4,1.3c0.6,0.5,0.9,1.1,0.8,1.8c0,0.3,0,0.7,0,1
		c0,0.2-0.1,0.3-0.3,0.3c-0.9,0-1.7,0-2.6,0c-0.7,0-1.3,0-2,0c-0.3,0-0.3,0-0.4-0.3c0-0.7-0.3-1-1-1.1c-1.3-0.2-2.7-0.3-4,0
		c-0.3,0.1-0.6,0.2-0.8,0.3c-0.4,0.3-0.6,0.6-0.6,1.1c0,1.2,0,2.5,0,3.7c0,0.5,0.2,0.8,0.5,1.1c0.2,0.2,0.4,0.3,0.7,0.3
		c1.3,0,2.6,0,4,0c0.8,0,1.5-0.8,1.5-1.5c0-0.1,0-0.1,0-0.2c0-0.3,0.1-0.3,0.3-0.3c1.4,0,2.9,0,4.3,0c0.2,0,0.3,0.1,0.3,0.3
		c0,0.4,0,0.8,0,1.2c0,1.1-0.7,1.8-1.5,2.3c-0.8,0.4-1.6,0.6-2.5,0.6C97.2,117.8,95.8,117.8,94.4,117.8
		C94.4,117.8,94.4,117.8,94.4,117.8z"/>
	<path class="st1" d="M113.2,14.9c2.9,0,5.2,2.3,5.2,5.1c0,2.8-2.3,5.2-5.2,5.2c-2.9,0-5.2-2.3-5.2-5.1
		C108,17.3,110.3,14.9,113.2,14.9z M117.7,20c0-2.4-2-4.4-4.4-4.4c-2.5,0-4.4,2-4.4,4.4c0,2.4,2,4.4,4.5,4.4
		C115.7,24.4,117.7,22.4,117.7,20z"/>
	<path class="st1" d="M111.6,19.8c0-0.7,0-1.3,0-2c0-0.2,0.1-0.3,0.3-0.3c0.8,0,1.5,0,2.3,0c0.1,0,0.2,0,0.3,0.1
		c0.7,0.6,1,1.5,0.3,2.2c-0.3,0.3-0.2,0.3,0.1,0.5c0.2,0.2,0.3,0.4,0.4,0.6c0,0.3,0,0.6,0,1c0,0.2-0.1,0.3-0.2,0.3
		c-0.2,0-0.3-0.1-0.3-0.3c0-0.4,0-0.8-0.2-1.2c-0.1-0.2-0.2-0.3-0.5-0.3c-0.5,0-1.1,0-1.6,0c-0.2,0-0.3,0.1-0.3,0.3
		c0,0.3,0,0.7,0,1.1c0,0.4,0,0.5-0.3,0.5c-0.3,0-0.3,0-0.3-0.5C111.6,21.1,111.6,20.5,111.6,19.8z M113.3,19.8c0.3,0,0.5,0,0.8,0
		c0.1,0,0.2,0,0.3,0c0.3-0.1,0.5-0.6,0.4-0.9c-0.1-0.4-0.5-0.7-0.8-0.7c-0.5,0-1,0-1.5,0c-0.2,0-0.3,0.1-0.3,0.3c0,0.4,0,0.7,0,1.1
		c0,0.2,0.1,0.3,0.3,0.3C112.7,19.8,113,19.8,113.3,19.8z"/>
</g>
</svg>
