<?xml version="1.0" encoding="utf-8"?>
<!-- Generator: Adobe Illustrator 28.0.0, SVG Export Plug-In . SVG Version: 6.00 Build 0)  -->
<svg version="1.1" id="Capa_1" xmlns="http://www.w3.org/2000/svg" xmlns:xlink="http://www.w3.org/1999/xlink" x="0px" y="0px"
	 viewBox="0 0 303 92" style="enable-background:new 0 0 303 92;" xml:space="preserve">
<style type="text/css">
	.st0{fill:#1A3A66;}
	.st1{fill:#133E6C;}
	.st2{fill:#FEFEFE;}
</style>
<g>
	<g>
		<path class="st0" d="M288.1,20.6c-4.2,4.3-8.2,8.2-12.1,12.2c-1,1-2.2,2-3.1,3.1c-0.9,1.1-1.5,0.9-2.4,0c-3.3-3.1-7-5.9-11-8.1
			c-2.4-1.3-4.8-2.4-7.5-3c-4.4-0.9-6.7,1.2-6.3,5.7c0.2,2.3,1.1,4.3,2.1,6.3c1.7,3.5,4,6.8,6.4,9.8c0.3,0.3,0.6,1.4,1.2,0.5
			c0.5-0.7,2.2-0.9,1-2.4c-1.6-2-3.1-4.2-4.3-6.5c-0.6-1.2-1.2-2.5-1.3-3.8c-0.3-1.9,0.8-3,2.8-2.7c1.9,0.3,3.5,1.1,5.1,2
			c5.1,2.9,9.4,6.7,13.4,10.8c0.8,0.9,1.3,1.1,2.2,0.1c4.2-4.4,8.6-8.7,12.9-13c0.7-0.7,1-1.3,1-2.3
			C288.1,26.7,288.1,23.9,288.1,20.6z"/>
		<path class="st0" d="M192.4,44.7c-3.5,0-6.4,0.2-9.2,1.3c-3.2,1.2-4.7,3.3-4.6,6.4c0.1,3.1,1.6,5.2,4.8,6.2c5.6,1.7,11.4,1.7,17,0
			c3.3-1,4.8-3.2,4.8-6.4c0-3-1.5-5-4.8-6.3c-1-0.4-2-0.7-3-0.8C195.7,44.8,193.8,44.6,192.4,44.7z"/>
		<path class="st0" d="M136.1,45.1c-2.2,0-4.3,0-6.5,0c-0.9,0-1.3,0.2-1.2,1.1c0,4,0,8.1,0,12.1c0,0.6-0.1,1.1,0.8,1.1
			c5.9-0.2,11.9,0.5,17.7-0.6c4.6-0.9,6.5-4,5.5-8.5c-0.5-2.3-2.1-3.6-4.3-4.3c-3.4-1-6.9-0.9-10.3-0.9
			C137.2,45.1,136.6,45.1,136.1,45.1z"/>
		<path class="st0" d="M57.8,52.6c1.4,2.1,2.8,4.1,4.1,6.1c0.2,0.4,0.5,0.7,1,0.7c2.4,0,4.8,0,7.7,0c-1.7-2.2-3.1-4.1-4.7-6.1
			c2.2-0.5,3.7-1.5,3.7-3.8c0.1-1.9-0.7-3.1-2.5-3.8c-1.4-0.5-2.9-0.6-4.3-0.6c-4.6,0-9.1,0-13.7,0c-1,0-1.4,0.2-1.4,1.3
			c0.1,3.9,0,7.8,0,11.8c0,0.9,0.1,1.3,1.1,1.2c1.7-0.1,3.5-0.1,5.2,0c1,0,1.2-0.4,1.2-1.2c0-2.9,0-5.9,0-8.8c0-1,0.2-1.4,1.2-1.3
			c1.3,0.1,2.6-0.1,3.9,0.2c1.1,0.3,1.5,0.9,1.5,2c0,1.1-0.5,1.8-1.6,1.9C59.5,52.4,58.7,52.5,57.8,52.6z"/>
		<path class="st0" d="M42.5,45.4c-5.8-0.6-11.5-1.1-17.2-0.1c-1.3,0.2-2.6,0.7-3.8,1.3c-2.4,1.4-3.4,3.6-3.2,6.3
			c0.2,2.6,1.5,4.2,3.8,5.2c2.4,1.1,4.9,1.3,7.5,1.4c4,0.2,7.9-0.1,11.9-0.6c0.9-0.1,1.2-0.4,1.2-1.3c-0.1-1.5-0.1-2.9,0-4.4
			c0-0.8-0.2-1.2-1.1-1.1c-1.7,0.1-3.5,0.1-5.2,0c-0.9,0-1.2,0.2-1.2,1.2c-0.1,3.2-0.2,3.2-3.4,3c-0.8-0.1-1.5-0.1-2.3-0.3
			c-2.1-0.5-3.1-1.7-3.2-3.6c-0.1-1.9,0.9-3.3,2.9-3.8c2.9-0.8,5.8-0.5,8.8-0.3C41,48.8,41.3,48.7,42.5,45.4z"/>
		<path class="st0" d="M230.8,45.1c-6-0.4-11.8-0.9-17.7,0.3c-1,0.2-1.9,0.5-2.7,1c-2.2,1.4-2.2,4,0.1,5.2c2,1.2,4.4,1.3,6.6,1.6
			c1.1,0.2,2.3,0.3,3.4,0.5c0.7,0.1,1.5,0.2,1.5,1.2c0,1-0.8,1.1-1.6,1.3c-2.8,0.5-5.7,0.4-8.4-0.1c-1.3-0.2-2,0.1-2.5,1.3
			c-0.3,0.6-0.7,1.2-1.2,2c6.6,0.4,13,0.9,19.3-0.3c0.6-0.1,1.2-0.4,1.8-0.7c1.3-0.7,2.1-1.7,2.1-3.3c0-1.5-0.9-2.4-2.2-3
			c-2.7-1.3-5.6-1.3-8.4-1.8c-1-0.2-2.6,0.1-2.5-1.4c0.1-1.4,1.7-1.2,2.6-1.2c1.8-0.1,3.7-0.1,5.5,0.1
			C229.4,48.1,229.4,48.1,230.8,45.1z"/>
		<path class="st0" d="M74,50.2c0,1.3,0,2.5,0,3.8c0.1,2.2,1.1,3.8,3.1,4.5c5.2,1.9,10.5,1.9,15.8,0c2-0.7,3.1-2.4,3.1-4.6
			c0-2.6,0-5.1,0-7.7c0-0.8-0.3-1.2-1.1-1.1c-1.7,0.1-3.5,0.1-5.2,0c-0.9,0-1.2,0.3-1.2,1.2c0.1,2.2,0,4.4,0,6.5
			c0,3.5-1.9,4.1-4.9,3.5c-1.3-0.2-1.9-1.2-2-2.5c-0.1-2.4-0.1-4.9-0.1-7.3c0-1.2-0.3-1.5-1.5-1.5c-1.6,0.1-3.2,0.1-4.7,0
			c-1-0.1-1.5,0.2-1.4,1.4C74,47.7,73.9,48.9,74,50.2C73.9,50.2,74,50.2,74,50.2z"/>
		<path class="st0" d="M105.6,52.2c3.4,2.3,6.5,4.4,9.7,6.5c2.2,1.5,4.7,0.5,7,0.7c0.5,0,0.4-0.5,0.4-0.9c0-4.1,0-8.2,0-12.3
			c0-0.9-0.4-1.1-1.2-1.1c-3.2-0.1-3.2-0.1-3.2,3c0,1.3,0,2.6,0,3.9c-0.5,0.2-0.8-0.2-1.1-0.4c-1.9-1.3-4-2.5-5.8-4
			c-2.7-2.3-5.7-2.9-9.1-2.6c-0.8,0.1-1.2,0.2-1.1,1.1c0,4,0,8.1,0,12.1c0,0.8,0.3,1.1,1.1,1.1c3.3,0.1,3.3,0.1,3.3-3.1
			C105.6,55,105.6,53.8,105.6,52.2z"/>
		<path class="st0" d="M164.6,59.1c0-0.2,0.1-0.3,0.1-0.5c0.2-3.4,0.2-3.4,3.7-3.4c0.5,0,1.1-0.1,1.6,0c2.7,0.5,4.1-0.8,4.9-3.4
			c-3,0-5.9-0.1-8.8,0c-1.5,0.1-1.4-0.7-1.5-1.8c-0.1-1.2,0.2-1.7,1.5-1.6c2,0.1,4,0,6,0c3.1,0,3.3-0.1,4.5-3.2
			c-0.4-0.3-0.8-0.2-1.3-0.2c-5.5,0-11.1,0-16.6,0c-1.2,0-1.6,0.3-1.5,1.6c0.1,3.7,0.1,7.4,0,11.1c0,1.2,0.4,1.5,1.5,1.4
			C160.7,59.2,162.7,59.5,164.6,59.1z"/>
		<path class="st0" d="M249.8,59.4c3,0,5.9,0,8.8,0c0.7,0,1.1-0.2,1.6-0.7c2.6-2.7,5.3-5.3,8-8c0.7-0.6,0.7-1.1,0-1.7
			c-1.2-1.1-2.3-2.3-3.5-3.4c-0.5-0.5-0.9-0.6-1.5,0c-4.4,4.5-8.8,8.9-13.3,13.3C249.9,59,249.9,59.1,249.8,59.4z"/>
		<path class="st0" d="M288,59.4c0.1-0.9-0.3-1.5-0.6-2.1c-1.8-3.9-4.2-7.5-6.8-10.9c-0.6-0.8-1-0.9-1.7-0.1
			c-0.8,0.9-2.2,1.7-2.5,2.7c-0.2,1.1,1.3,1.9,2,2.9c1.4,2,2.8,4.1,3.8,6.4c0.3,0.8,0.8,1,1.6,1C285.2,59.4,286.6,59.4,288,59.4z"/>
		<path class="st1" d="M164.6,59.1c-1.8,0-3.7-0.1-5.5,0c-1.2,0.1-1.7-0.2-1.6-1.5c0.1-3.6,0.1-7.2,0-10.8c0-1.2,0.4-1.5,1.5-1.5
			c5.9,0,11.9,0,17.8,0c-0.1-0.5-0.6-0.2-0.8-0.2c-5.8,0-11.6,0-17.4,0c-1,0-1.4,0.2-1.4,1.3c0.1,3.9,0.1,7.8,0,11.7
			c0,1,0.3,1.3,1.3,1.2C160.5,59.2,162.6,59.8,164.6,59.1z"/>
		<path class="st2" d="M191.9,48c-3.7,0-5.2,1.4-5.1,4.7c0.1,1.9,0.9,2.9,2.7,3.5c1.4,0.5,2.9,0.4,4.4,0.2c2.4-0.4,3.3-1.7,3.2-4.4
			c-0.1-2.3-1.2-3.6-3.6-3.9C193,48,192.4,48,191.9,48z"/>
		<path class="st2" d="M138.6,56.2c0.9-0.1,1.8-0.1,2.7-0.3c2.3-0.5,3.3-1.6,3.3-3.8c0-2.2-1-3.3-3.3-3.7c-1.5-0.2-3-0.1-4.5-0.2
			c-0.6,0-0.9,0.2-0.9,0.8c0,2,0,4,0,6c0,0.7,0.3,1,1,0.9C137.4,56.1,138,56.2,138.6,56.2C138.6,56.2,138.6,56.2,138.6,56.2z"/>
	</g>
</g>
<g>
	<path class="st0" d="M238,43.6c0,1.3-1,2.4-2.4,2.4c-1.3,0-2.4-1-2.4-2.4c0-1.3,1.1-2.3,2.4-2.3C237,41.3,238,42.3,238,43.6z
		 M233.8,43.6c0,1,0.8,1.9,1.8,1.9c1,0,1.8-0.8,1.8-1.8c0-1-0.8-1.9-1.8-1.9C234.6,41.8,233.8,42.6,233.8,43.6z M235.2,44.9h-0.5
		v-2.3c0.2,0,0.5-0.1,0.9-0.1c0.4,0,0.6,0.1,0.8,0.2c0.1,0.1,0.2,0.3,0.2,0.5c0,0.3-0.2,0.5-0.5,0.5v0c0.2,0.1,0.4,0.3,0.4,0.6
		c0.1,0.4,0.1,0.5,0.2,0.6h-0.6c-0.1-0.1-0.1-0.3-0.2-0.6c0-0.3-0.2-0.4-0.5-0.4h-0.3V44.9z M235.3,43.5h0.3c0.3,0,0.5-0.1,0.5-0.3
		c0-0.2-0.2-0.4-0.5-0.4c-0.1,0-0.2,0-0.3,0V43.5z"/>
</g>
</svg>
