<?xml version="1.0" encoding="utf-8"?>
<!-- Generator: Adobe Illustrator 28.0.0, SVG Export Plug-In . SVG Version: 6.00 Build 0)  -->
<svg version="1.1" id="Capa_1" xmlns="http://www.w3.org/2000/svg" xmlns:xlink="http://www.w3.org/1999/xlink" x="0px" y="0px"
	 viewBox="0 0 254 92" style="enable-background:new 0 0 254 92;" xml:space="preserve">
<style type="text/css">
	.st0{fill:#FEFEFE;}
	.st1{fill:#010102;}
	.st2{fill:#242729;}
	.st3{fill:#FDFDFD;}
	.st4{fill:#E42330;}
	.st5{fill:#888C8D;}
	.st6{fill:#232629;}
	.st7{fill:#1D1421;}
	.st8{fill:#1D1521;}
	.st9{fill:#101521;}
	.st10{fill:#131926;}
	.st11{fill:#121724;}
	.st12{fill:#1B1723;}
	.st13{fill:#221522;}
	.st14{fill:#141A27;}
	.st15{fill:#211321;}
	.st16{fill:#19111F;}
	.st17{fill:#181420;}
	.st18{fill:#26222F;}
	.st19{fill:#191421;}
	.st20{fill:#181421;}
	.st21{fill:#0E1420;}
	.st22{fill:#121A25;}
	.st23{fill:#2C1E2B;}
	.st24{fill:#171D28;}
	.st25{fill:#221421;}
	.st26{fill:#0D1320;}
	.st27{fill:#1C1622;}
	.st28{fill:#231421;}
	.st29{fill:#1E1521;}
	.st30{fill:#1C1421;}
	.st31{fill:#0B111E;}
	.st32{fill:#201521;}
	.st33{fill:#0E101E;}
	.st34{fill:#1B1421;}
	.st35{fill:#251421;}
	.st36{fill:#1C1E2B;}
	.st37{fill:#131220;}
	.st38{fill:#311725;}
	.st39{fill:#0C121F;}
	.st40{fill:#111321;}
	.st41{fill:#1F1421;}
	.st42{fill:#512130;}
	.st43{fill:#231321;}
	.st44{fill:#1E1321;}
	.st45{fill:#10111F;}
	.st46{fill:#111320;}
	.st47{fill:#191320;}
	.st48{fill:#0C131F;}
	.st49{fill:#1E1A28;}
	.st50{fill:#181320;}
	.st51{fill:#131422;}
	.st52{fill:#1C1D2A;}
	.st53{fill:#1D1321;}
	.st54{fill:#302733;}
	.st55{fill:#221723;}
	.st56{fill:#A21829;}
	.st57{fill:#7D1627;}
	.st58{fill:#0B121F;}
	.st59{fill:#242632;}
	.st60{fill:#14111F;}
	.st61{fill:#1C1321;}
	.st62{fill:#0D1220;}
	.st63{fill:#271522;}
	.st64{fill:#151D29;}
	.st65{fill:#0F1622;}
	.st66{fill:#171E28;}
	.st67{fill:#151C26;}
	.st68{fill:#28303B;}
	.st69{fill:#121924;}
	.st70{fill:#2A323E;}
	.st71{fill:#0C1422;}
	.st72{fill:#7E8284;}
	.st73{fill:#161E29;}
	.st74{fill:#19202D;}
	.st75{fill:#151D28;}
	.st76{fill:#181F29;}
	.st77{fill:#141B26;}
	.st78{fill:#2E3641;}
	.st79{fill:#181F2A;}
	.st80{fill:#121A26;}
	.st81{fill:#29313D;}
	.st82{fill:#121B26;}
	.st83{fill:#19202A;}
	.st84{fill:#121A27;}
	.st85{fill:#7C8183;}
	.st86{fill:#0F1521;}
	.st87{fill:#161D28;}
	.st88{fill:#111A25;}
	.st89{fill:#171E29;}
	.st90{fill:#1B222D;}
	.st91{fill:#141A26;}
	.st92{fill:#151D27;}
	.st93{fill:#7E8385;}
	.st94{fill:#808486;}
	.st95{fill:#84888A;}
	.st96{fill:#141C28;}
	.st97{fill:#1E2734;}
	.st98{fill:#16202D;}
	.st99{fill:#0C1320;}
	.st100{fill:#151D2A;}
	.st101{fill:#131B26;}
	.st102{fill:#19212B;}
	.st103{fill:#111824;}
	.st104{fill:#161E28;}
	.st105{fill:#3F4750;}
</style>
<g>
	<path class="st0" d="M236.5,35.9c0,13.4,0,26.8,0,40.2c0,0.8-0.2,1-1,1c-72.3,0-144.7,0-217,0c-0.8,0-1-0.2-1-1
		c0-20.1,0-40.1,0-60.2c0-0.8,0.2-1,1-1c8.9,0,17.8,0,26.7,0c-0.1,0.8-0.8,0.6-1.3,0.7c-5.5,1-10.4,3.2-14.7,6.8
		c-5.8,4.9-9.5,11.1-10.6,18.6c-1.3,8.7,0.6,16.6,6,23.6c5.2,6.7,12.2,10.8,20.7,11.7c13.7,1.4,24.9-5.1,31-16.3c2-3.7,3-7.7,3.3-12
		c0.5-7.9-1.7-15-6.6-21.2c-5-6.2-11.5-10-19.4-11.2c-0.5-0.1-1.1,0.1-1.3-0.7c61,0,122,0,183,0c1,0,1.3,0.2,1.3,1.3
		c-0.1,6.2,0,12.4,0,18.7c-0.6,0.5-1.4,0.3-2.1,0.4c-1.1,0.1-2.2-0.2-3.5,0.2c1.6,1.3,1.5,3,1.6,4.7c0.1,2.9,0,5.8,0,8.7
		c0,0.1,0,0.3,0,0.4c0,0.4,0,0.9-0.5,1.1c-0.5,0.1-0.7-0.4-0.9-0.7c-0.8-1.5-1.5-3-2.4-4.4c-1.6-2.7-3.2-5.4-4.7-8.2
		c-0.7-1.3-1.5-1.9-3-1.8c-1.2,0.1-2.4-0.1-3.9,0.2c2,1.6,1.3,3.7,1.4,5.6c0.1,3.8,0,7.5,0,11.3c0,1.5,0.3,3.1-1.5,4.2
		c1.7,0.4,3.3,0.3,5.3,0.2c-2.3-1.7-1.6-3.9-1.7-5.9c-0.1-2.2,0.1-4.4-0.2-6.7c-0.1-0.6-0.1-1.3,0-1.9c0-0.6-0.2-1.4,0.5-1.6
		c0.6-0.2,0.8,0.7,1.1,1.2c2.6,4.6,5.3,9.1,7.9,13.7c0.7,1.2,2.7,1.8,3.9,1.2c0.7-0.3,0.5-1,0.5-1.6c0-5.4,0-10.7,0-16.1
		c0-0.6-0.1-1.3,0.2-1.9C234.9,36.3,235.3,35.5,236.5,35.9z"/>
	<path class="st1" d="M52.2,15c1.2,0.5,2.4,0.5,3.6,0.8c13.4,3,23.4,14.8,24,28.5c0.8,16.5-10.7,30.5-27.2,32.5
		C33.5,78.9,19.8,64.9,18,49.8c-2-17,9.6-32.2,26.6-34.6c0.2,0,0.5,0,0.5-0.3C47.5,15,49.9,15,52.2,15z"/>
	<path class="st1" d="M236.5,35.9c-1.3,0.3-1.7,1.1-1.7,2.4c0,5.9,0,11.7,0,17.6c0,1-0.2,1.2-1.2,1.3c-2.3,0.3-3.5-0.6-4.6-2.6
		c-2.5-4.7-5.2-9.2-8-14c0,1.1,0,2.1,0,3c0,3.2,0.1,6.4,0.1,9.7c0,1.1,0,2.2,1.4,2.6c0.5,0.1,0.3,0.6,0.3,0.9c0,0.4-0.3,0.3-0.6,0.3
		c-1.7,0-3.4,0-5.1,0c-0.3,0-0.6,0.1-0.6-0.4c0-0.3-0.2-0.8,0.3-0.9c1.4-0.3,1.4-1.4,1.4-2.5c0-5,0-10,0-15c0-1.1-0.1-2.1-1.4-2.4
		c-0.5-0.1-0.3-0.5-0.3-0.8c0-0.5,0.4-0.4,0.7-0.4c1.8,0,3.6,0,5.5,0c0.8,0,0.9,0.5,1.1,1c2.7,4.8,5.7,9.5,8.2,14.6
		c0.3-0.6,0.1-1.2,0.1-1.6c0-3.5-0.1-7.1-0.1-10.6c0-0.9-0.2-1.7-1.2-2c-0.4-0.1-0.5-0.4-0.5-0.8c0-0.6,0.5-0.5,0.8-0.5
		c1.8,0,3.6,0,5.5,0C236.5,35.2,236.5,35.6,236.5,35.9z"/>
	<path class="st1" d="M96.5,46c0-2.6,0-5.3,0-7.9c0-0.9-0.2-1.7-1.2-2c-0.4-0.1-0.5-0.4-0.5-0.8c0-0.6,0.5-0.5,0.8-0.5
		c2.4,0,4.7,0,7.1,0c0.3,0,0.7-0.1,0.8,0.3c0.1,0.4,0,0.8-0.5,0.9c-1,0.3-1.2,1.1-1.2,2c0,2,0,3.9,0,5.9c0,0.7,0.2,0.7,0.8,0.7
		c0.7-0.1,1.2-0.3,1.7-0.8c1.5-1.6,3-3.2,4.1-5.1c0.9-1.4,0.8-1.9-0.6-2.9c-0.3-0.2-0.2-0.4-0.2-0.7c0-0.4,0.2-0.4,0.5-0.4
		c2.5,0,4.9,0,7.4,0c0.3,0,0.6,0,0.6,0.4c0,0.3,0.1,0.6-0.3,0.8c-3.4,1.7-5.2,5.1-7.8,7.6c-0.4,0.4-0.1,0.6,0.1,0.9
		c2.1,3.2,4.2,6.4,6.4,9.6c0.5,0.7,1,1.3,1.8,1.6c0.5,0.1,0.5,0.5,0.5,0.9c0,0.6-0.5,0.5-0.8,0.5c-2.5,0-4.9,0-7.4,0
		c-0.3,0-0.7,0.2-0.8-0.3c-0.1-0.3-0.2-0.8,0.3-0.9c0.9-0.3,0.7-1,0.4-1.5c-1.4-2.4-2.9-4.8-4.6-7.1c-0.3-0.4-0.6-0.7-1.1-0.7
		c-0.4-0.1-0.8,0-0.8,0.6c0,2.3,0,4.6,0.1,6.9c0,0.8,0.3,1.4,1.1,1.7c0.5,0.1,0.6,0.4,0.6,0.9c-0.1,0.7-0.6,0.4-0.9,0.4
		c-2.3,0-4.6,0-6.8,0c-0.3,0-0.8,0.2-0.9-0.4c0-0.4-0.1-0.8,0.5-1c1-0.3,1.2-1.1,1.2-2C96.5,51.2,96.5,48.6,96.5,46z"/>
	<path class="st1" d="M204.5,34.8c2.4,0,4.7,0,7.1,0c0.9,0,1.2,0.3,1.1,1.1c-0.1,1,0,2.1,0,3.1c0,0.4,0.3,1.1-0.5,1
		c-0.7-0.1-1.5,0.5-2-0.5c-1.2-2.5-3.8-3.5-6.5-2.7c-0.5,0.1-0.4,0.4-0.4,0.7c0,2.1,0,4.2,0,6.3c0,0.5,0.1,0.7,0.6,0.8
		c2,0.3,2.8-0.1,3.6-1.9c0.4-0.8,1.1-0.4,1.7-0.4c0.7,0,0.4,0.6,0.5,0.9c0,1.6,0,3.2,0,4.8c0,0.4,0.2,1-0.5,1
		c-0.6,0-1.2,0.4-1.6-0.5c-0.7-1.7-2.1-2.3-3.8-1.8c-0.5,0.1-0.4,0.4-0.4,0.7c0,2.4,0,4.8,0,7.2c0,0.5,0.2,0.8,0.7,0.7
		c0.5,0,1,0,1.5,0c3.3,0,3.6-0.2,4.8-3.3c0.4-1.2,1.3-0.7,2-0.7c0.9,0,0.5,0.7,0.4,1.1c0,1.4-0.1,2.7-0.2,4.1c0,0.7-0.3,0.8-0.9,0.8
		c-4.8,0-9.7,0-14.5,0c-0.3,0-0.8,0.2-0.8-0.4c0-0.4,0-0.8,0.5-0.9c1-0.3,1.2-1.1,1.2-1.9c0-5.3,0-10.6,0-15.9
		c0-0.9-0.3-1.6-1.2-1.9c-0.4-0.1-0.5-0.4-0.5-0.8c0-0.6,0.5-0.4,0.8-0.4C199.6,34.8,202.1,34.8,204.5,34.8z"/>
	<path class="st1" d="M153.2,57.1c-1.1,0-2.3,0-3.4,0c-0.4,0-0.9,0.3-1-0.3c-0.1-0.5,0.1-0.8,0.7-1c0.8-0.2,1-0.8,1-1.6
		c0-1.2-0.5-2.3-0.7-3.4c-0.1-0.4-0.3-0.6-0.8-0.6c-1.9,0-3.8,0-5.7,0c-0.3,0-0.6,0-0.7,0.4c-0.3,1.1-0.8,2.1-0.9,3.3
		c0,0.9,0.1,1.7,1.2,1.9c0.5,0.1,0.5,0.4,0.5,0.8c0,0.5-0.4,0.4-0.7,0.4c-1.9,0-3.8,0-5.7,0c-0.3,0-0.7,0.1-0.7-0.4
		c0-0.3-0.1-0.7,0.3-0.8c1.5-0.5,1.9-1.9,2.4-3.2c2.1-5.5,4.2-11.1,6.2-16.6c0.4-1.1,0.9-1.5,2.1-1.5c2.9,0.1,2.9,0,3.7,2.8
		c1.6,5.4,3.2,10.8,4.8,16.2c0.3,0.9,0.6,1.8,1.6,2.2c0.5,0.1,0.5,0.5,0.4,0.9c0,0.6-0.5,0.4-0.8,0.4
		C155.8,57.1,154.5,57.1,153.2,57.1z"/>
	<path class="st1" d="M187,34.5c1.7,0,3.3,0.2,4.8,0.5c0.6,0.1,0.7,0.4,0.7,0.9c0,0.8,0.1,1.6,0,2.3c-0.1,0.6,0.6,1.6-0.5,1.8
		c-1,0.2-1.8,0.1-2.2-1.2c-0.5-1.7-1.9-2.4-3.7-2.3c-1.6,0.1-2.5,0.9-2.8,2.3c-0.2,1.4,0.3,2.5,1.4,3.3c1.5,1.2,3.3,1.8,4.9,2.9
		c1.9,1.3,3.2,3,3.2,5.5c0,3.6-1.9,5.9-5.4,6.6c-2.9,0.6-5.7,0.1-8.5-0.3c-0.5-0.1-0.8-0.3-0.7-0.9c0.1-1.1,0-2.2,0-3.3
		c0-0.4-0.3-1.2,0.5-1.1c0.7,0,1.6-0.5,2,0.8c0.5,1.9,1.7,3.1,3.8,3.1c1.6,0,2.8-0.5,3.3-1.7c0.6-1.4,0.4-2.7-0.6-3.9
		c-0.9-1.1-2.2-1.6-3.4-2.3c-1.1-0.6-2.1-1.2-3.1-2c-3.3-2.8-3-8.9,2.1-10.4C184.2,34.6,185.6,34.5,187,34.5z"/>
	<path class="st1" d="M169.1,34.6c0.4,0,0.8,0,1.2,0c4.2,0.2,4.2,0.2,4.2,4.3c0,0.4,0.4,1.2-0.4,1.2c-0.7,0-1.7,0.5-2.1-0.8
		c-0.6-2-1.7-2.7-3.6-2.7c-1.3,0-2.4,0.5-3,1.8c-0.5,1.3-0.1,2.5,0.8,3.5c0.9,0.9,2.1,1.5,3.2,2.1c1.1,0.6,2.2,1.2,3.2,2.1
		c2.1,1.9,2.6,4.3,1.9,6.9c-0.7,2.6-2.7,3.8-5.1,4.3c-2.9,0.6-5.7,0.1-8.5-0.3c-0.6-0.1-0.8-0.4-0.8-1c0.1-1.1,0-2.3,0-3.4
		c0-0.4-0.1-1,0.5-0.9c0.6,0.1,1.5-0.5,1.9,0.4c0.2,0.5,0.4,1,0.6,1.5c0.8,1.5,2.2,2,3.8,1.9c1.4-0.1,2.5-0.6,2.9-2
		c0.4-1.5,0.1-3-1.2-4.1c-1.2-1-2.7-1.6-4.1-2.4c-1.9-1.1-3.5-2.5-3.9-4.8c-0.8-4.1,1.8-7.1,6.4-7.5
		C167.6,34.5,168.3,34.6,169.1,34.6C169.1,34.6,169.1,34.6,169.1,34.6z"/>
	<path class="st1" d="M126.3,57.1c-2.3,0-4.6,0-6.8,0c-0.4,0-0.9,0.2-0.9-0.4c-0.1-0.5,0.1-0.8,0.6-0.9c1-0.3,1.2-1.1,1.2-1.9
		c0-5.3,0-10.6,0-15.9c0-0.8-0.3-1.5-1.1-1.8c-0.4-0.1-0.7-0.4-0.6-0.9c0.1-0.6,0.5-0.4,0.8-0.4c2.4,0,4.7,0,7.1,0
		c0.3,0,0.7-0.1,0.7,0.4c0,0.4,0.1,0.7-0.4,0.9c-1.1,0.3-1.3,1.3-1.3,2.3c0,5.3,0,10.6,0,15.9c0,0.7,0.2,1,0.9,0.9
		c0.3,0,0.5,0,0.8,0c3.3,0,4.1-0.5,4.8-3.7c0.3-1.3,1.1-1,1.9-1c1.1,0,0.6,0.8,0.6,1.3c0,1.5-0.2,3-0.2,4.5c0,0.8-0.2,1-1,1
		C130.9,57.1,128.6,57.1,126.3,57.1z"/>
	<path class="st2" d="M49.1,16.6c16-0.2,29.4,13,29.3,29.4c-0.1,16.4-13,29.4-29.9,29.3c-16-0.1-29.2-13.4-29.2-29.6
		C19.4,29.9,32.7,16.2,49.1,16.6z"/>
	<path class="st3" d="M149,48.2c-2,0-3.8,0-5.8,0c1-2.9,2.1-5.8,3.2-9C147.3,42.4,148.2,45.2,149,48.2z"/>
	<path class="st1" d="M48.8,20.4c14.4-0.1,25.7,11.3,25.8,25.1c0.1,15.1-11.3,25.8-25.3,26c-14.8,0.3-25.8-11.7-26.1-25.1
		C22.9,32.3,34.7,20.2,48.8,20.4z"/>
	<path class="st4" d="M48.9,21.8c12.5-0.1,24.1,9.8,24.2,24.1c0.1,13.4-10.9,24.3-24.4,24.2C34.6,70,24.3,58.3,24.6,45.4
		C24.8,32.5,35.6,21.8,48.9,21.8z"/>
	<path class="st5" d="M52.1,26.4c0.2-0.6,0.4-1.1,1-1.4c0.4-0.6,0.9-0.4,1.4-0.2c3.8,1.6,5.9,4.6,7.2,8.3c0.3,0.7,0.6,1.4,0.9,2.1
		c0.2,0.4,0.3,0.7,0.4,1.1c0.1,0.6,0.3,1.1,0.5,1.7c0.3,1,0.6,1.9,0.8,2.9c0.1,0.4,0.2,0.8,0.3,1.2c0.2,0.7,0.4,1.4,0.4,2.1
		c-0.1,0.5-0.6,0.6-1,0.7c-0.7,0.2-1.4,0.2-2.1,0.2c-2,0-2,0-2.5-1.9c-0.3-1.1-0.8-2-1.1-3.1c-0.1-0.7-0.1-1.5-0.1-2.3
		c0-0.4-0.1-0.7-0.2-1c-0.1-0.3-0.1-0.7,0-1c0.1-0.4,0.3-0.7,0.6-1c0.4-0.6,1.2-1,1-1.9c-1.6-1.1-3.3-2.1-5-3.1
		c-0.8-0.5-1.3-1.4-2.4-1.4c-0.1-0.1-0.2-0.1-0.3-0.3c-0.1-0.1-0.1-0.3-0.1-0.4C51.7,27.3,51.6,26.8,52.1,26.4z"/>
	<path class="st5" d="M28.7,42.5c-0.3-0.2-0.5-0.4-0.8-0.6c-0.5-0.5-0.5-1-0.2-1.6c0.4-0.9,0.8-1.7,1.4-2.5c0.7-0.8,1.5-1.6,2.3-2.3
		c1.9-1.3,4.1-2.1,6.3-3c0.7-0.3,1.5-0.5,2.3-0.8c0.9-0.2,1.8-0.5,2.8-0.8c1-0.2,1.9-0.5,2.9-0.7c0.7-0.1,1.4-0.4,2,0.1
		c0.7,1.3,0.6,2.6,0.5,4c0,0.6-0.4,1-1,1.2c-1.5,0.4-2.8,1-4.3,1.4c-0.7-0.1-1.5,0-2.2,0.1c-0.3,0-0.5,0.1-0.8,0.1
		c-0.5-0.1-1,0.1-1.5,0c-0.6-0.3-1-0.8-1.4-1.2c-0.6-0.6-1.2-0.6-1.6,0.2c-0.9,1.4-1.7,2.9-2.6,4.3c-0.7,0.9-1.5,1.6-1.9,2.7
		c-0.3,0.2-0.7,0.3-1.1,0.3C29.5,42.9,29.1,42.7,28.7,42.5z"/>
	<path class="st5" d="M45.2,66.2c0,0.4-0.3,0.5-0.5,0.7c-0.5,0.4-1.1,0.3-1.6,0c-2.2-1.1-4.2-2.4-5.4-4.6c-0.3-0.8-0.7-1.5-1-2.3
		c-0.1-0.4-0.3-0.7-0.5-1c-0.2-0.3-0.3-0.7-0.5-1.1c-0.6-1.5-1.1-3-1.6-4.6c-0.2-0.7-0.4-1.4-0.6-2.1c-0.3-0.9-0.5-1.9-0.7-2.9
		c-0.1-0.5-0.1-1.1,0.2-1.5c1.4-0.5,2.8-0.3,4.2-0.2c0.6,0,0.9,0.5,1,1c0.4,1.4,0.9,2.6,1.4,4c-0.1,0.8-0.2,1.5,0.1,2.3
		c0.1,0.5,0.1,0.9,0.2,1.4c0,0.6-0.4,1.1-0.8,1.5c-0.3,0.6-1.3,1-0.8,1.9c1.7,1.1,3.3,2.1,5,3.1c0.9,0.7,1.8,1.4,2.6,2.2l0,0
		C46.2,65.1,45.6,65.6,45.2,66.2z"/>
	<path class="st5" d="M60,61c0.1,0,0.1,0.1,0.2,0.2c0.4,0.9,0.7,1.9,0.5,2.9c-0.2,0.6-0.7,0.7-1.2,0.9c-0.5,0.1-0.9,0.3-1.4,0.4
		c-0.3,0.1-0.5,0.1-0.8,0.2c-0.4,0.1-0.8,0.1-1.3,0.1c-0.4,0-0.8,0-1.3,0c-0.3,0-0.7,0-1-0.1c-5.5-1.4-10.5-3.9-15.1-7.1
		c-0.5-0.6-0.1-1,0.3-1.4c0.2-0.2,0.3-0.4,0.5-0.6c1.8-2.3,1.8-2.3,4.4-1c1.1,0.6,2.3,0.7,3.3,1.6c0.6,0.8,1.5,1.2,2.1,2
		c0.4,0.7,0.6,1.6,0.6,2.4c0,0.6,0.2,1.2,1,1.1c1.8-0.3,3.5-0.8,5.2-1.2c1-0.1,2-0.1,3-0.4C59.4,60.9,59.7,61,60,61z"/>
	<path class="st6" d="M59.3,64.8c0.4-0.2,0.7-0.3,1.1-0.5c0.6,0,0.4,0.3,0.3,0.6c0,0.1,0,0.2-0.1,0.2c-0.7,0.7-1.6,0.9-2.6,1
		c-2.3,0.7-4.5,0.4-6.7-0.3c-0.8-0.3-1.5-0.7-2.3-0.9c-0.4-0.3-0.9-0.4-1.4-0.6c-1.5-0.7-2.9-1.3-4.4-2.1c-1.8-0.9-3.5-2-5.2-3.2
		c-0.2-0.8,0.3-0.7,0.8-0.8c3.6,2.4,7.3,4.3,11.3,5.9c1.1,0.4,2.3,0.8,3.5,1.1c0.3,0.3,0.7,0.1,1,0.1c0.5,0,0.9,0,1.4,0
		c0.4,0.1,0.9,0.3,1.3-0.1c0.2-0.2,0.4-0.2,0.6-0.2C58.5,65.2,58.9,65.2,59.3,64.8z"/>
	<path class="st6" d="M32.6,40c0.8-1.5,1.6-3,2.7-4.3c0.5-0.4,1-0.9,1.4,0.1c-1.7,2.9-3.2,6-5,8.9c-0.8,0.2-0.2,0.9-0.4,1.3
		c-0.5,1.5-1,2.9-1.6,4.3c-0.7,1.8-0.3,3.6,0,5.4c0.1,0.4,0.3,0.8,0.4,1.2c0,0.1,0,0.3,0,0.4c-0.4,0.6-0.7,0.2-1-0.1
		c-0.2-0.6-0.4-1.2-0.6-1.8c-0.1-0.6-0.1-1.1-0.3-1.7c0-0.9,0-1.8,0-2.6c0.1-1,0.6-1.9,0.4-2.9c0.2-0.3,0.3-0.6,0.5-0.9
		c0.4-0.2,0.3-0.7,0.5-1c0.2-0.4,0.5-0.9,0.4-1.4c0.1-0.3,0.3-0.6,0.4-0.9C31.3,42.7,31.9,41.4,32.6,40z"/>
	<path class="st6" d="M62.3,35.4c-0.5-1-1-2-1.3-3.1c-1.2-3.4-3.4-5.7-6.6-7.3c-0.3-0.5-0.5-0.9,0.3-0.9c0.8,0.3,1.4,0.7,2.1,1.1
		c0.4,0.4,0.9,0.6,1.3,0.9c0.4,0.4,0.8,0.9,1.2,1.3c0.5,0.6,0.9,1.3,1.4,1.9c0.3,0.4,0.3,1,0.8,1.3c0.2,0.3,0.3,0.6,0.5,0.9
		c-0.1,0.4,0.2,0.7,0.2,1.1c0.4,1.3,1.3,2.5,1.6,3.8c0.1,0.5,0.2,0.9,0.2,1.4c0.2-0.4-0.4-1.1,0.3-1.4c0.9,0.8,0.4,1.9,0.7,2.8
		c-0.2,1.2,0.2,2.2,0.6,3.3c0.3,0.5,0.6,1,0.4,1.6c-0.3,0.5-0.6,1.1-1.1,0.1c-0.3-0.7-0.1-1.5-0.6-2.1c-0.1-0.4-0.2-0.7-0.3-1.1
		c0-1.1-0.2-2.1-0.8-3c-0.2-0.6-0.4-1.1-0.6-1.7C62.9,36,62.6,35.7,62.3,35.4z"/>
	<path class="st6" d="M33.2,47.1c-0.2,1.5,0.5,2.9,0.7,4.3c-0.1,0.7,0,1.3,0.5,1.9c0.5,1.6,1.1,3.1,1.6,4.7c-0.2,0.4,0,0.8,0.4,1
		c0.1,0.3,0.3,0.6,0.4,0.9c0,0.9,0.6,1.6,1,2.4c1.3,1.9,3.1,3.2,5.1,4.3c0,0.4,0.7,0.4,0.5,0.8c-0.1,0.4-0.5,0.2-0.8,0.2
		c-0.4-0.2-0.7-0.4-1.1-0.6c-0.6-0.4-1.2-0.8-1.9-1.2l0,0c-0.4-0.7-1-1.2-1.6-1.6l0,0c-0.4-0.7-0.7-1.4-1.3-1.9c0-0.1-0.1-0.1,0-0.2
		c-0.4-1.5-1.2-2.7-1.7-4.1c-0.2-0.9-0.6-1.6-1-2.4c-0.4-0.6-0.4-1.2-0.5-1.9c0-0.2-0.3,0-0.1,0c0.1,0,0.1,0,0.1,0.1
		c0,0.3,0.1,0.5-0.2,0.7c-0.6-0.3-0.5-0.8-0.4-1.3c0.2-1.7-0.4-3.2-1.1-4.6c-0.2-0.4-0.4-0.7-0.2-1.2C32.1,47.1,32.6,47.2,33.2,47.1
		z"/>
	<path class="st6" d="M56.1,61.5c-1.7,0.7-3.5,1-5.2,1.3c-1.4-0.4-0.2-0.8,0-1.3c0.2-0.2,0.4-0.2,0.7-0.2c1.5,0.1,2.8-0.5,4.2-0.9
		c1.4-0.3,2.7-0.8,3.9-1.3c0.3-0.4,1.1,0.1,1.2-0.6c1.7-1.1,3.5-1.9,5.3-2.7c1.1-0.3,1.6-1.2,1.9-2.2c0.6-0.9,0.8-2.2,1.9-2.8
		c0.7,0,0.8,0.5,0.6,1c-0.3,0.9-0.8,1.6-1.3,2.3c-0.7,1-1.7,1.7-2.5,2.6c-0.5,0.3-1,0.6-1.4,1.1c-0.3,0.2-0.6,0.3-0.9,0.5
		c-0.9,0.1-1.6,0.6-2.4,0.9l0,0c-0.3,0.3-0.9,0.1-1.1,0.6c-0.4,0.2-0.8,0.3-1.1,0.5c-0.1,0-0.1,0-0.2,0
		C58.5,60.8,57.3,61.2,56.1,61.5z"/>
	<path class="st6" d="M29.3,38c-0.4,0.8-0.9,1.6-1.3,2.4c-0.3,0-0.4,0.5-0.8,0.2c-0.2-0.2-0.1-0.5,0-0.8c0.2-0.9,0.8-1.6,1.3-2.3
		c0.3-0.4,0.6-0.7,0.8-1.2c0.2-0.2,0.4-0.4,0.6-0.6c0.8-0.3,1.4-1.1,2.1-1.5c0.7-0.4,1.5-0.7,2.2-1.1c1.2-0.5,2.5-1,3.7-1.5
		c1.1-0.6,2.3-0.9,3.5-1.2c0.8-0.2,1.5-0.4,2.3-0.7c0.7-0.5,1.6-0.8,2.5-0.7c0.6,0.3,1.9-0.2,1.5,1.3c-0.6,0.1-1.3,0.2-1.9,0.2
		c-1.2-0.1-2.2,0.4-3.3,0.7c-0.9,0.2-1.8,0.5-2.6,0.8c-0.6,0.4-1.5,0.2-1.9,0.8c-2.1,1-4.3,1.8-6.2,3C30.6,36.2,29.8,37,29.3,38z"/>
	<path class="st7" d="M67.3,34c0.9-0.1,1.3,0.5,1.6,1.3c1.3,3.6,0.8,7.1-0.8,10.4c-0.1,0.1-0.3,0.1-0.4-0.1
		c-0.3-0.8,0.2-1.4,0.4-2.1c0.9-2.4,1-4.8,0.3-7.3c-0.1-0.5-0.2-1.1-0.9-1.3c-0.4-0.2-0.7-0.4-0.9-0.8C66.8,33.8,67,33.8,67.3,34z"
		/>
	<path class="st8" d="M51.1,65.6c2.3,0.5,4.7,0.9,7.1,0.3c0.1,0.1,0.1,0.2,0,0.3c-2.6,0.9-5.2,0.5-7.7-0.6
		C50.8,65.5,51,65.5,51.1,65.6z"/>
	<path class="st9" d="M43.2,62.3c1.7,0.1,3,1.2,4.4,2c-0.1,0.1-0.2,0.1-0.3,0c-0.4,0.1-0.9-0.7-1.3,0C44.8,63.9,44,63.1,43.2,62.3z"
		/>
	<path class="st10" d="M64.3,36.4c0,0.5,0,1.1,0,1.6c-0.1,0-0.2,0-0.2,0.1c-0.7-1.9-1.3-3.8-2-5.7c0.1-0.1,0.2-0.1,0.3,0
		c0.3,0.6,0.5,1.3,0.8,1.9c0.3,0.4,0.5,0.8,0.9,1c0.2,0.1,0.3,0.2,0.4,0.4C64.5,36,64.5,36.2,64.3,36.4z"/>
	<path class="st11" d="M32.6,40c-0.3,1.5-0.9,2.9-2,4c0-0.2,0-0.5,0-0.7c0-0.2,0.1-0.4,0.3-0.6C31,41.5,32,40.9,32.6,40z"/>
	<path class="st12" d="M28.7,37.6c-0.4,0.7-0.9,1.4-1.3,2.2c-0.3,0.6,0.1,0.7,0.6,0.6c-0.1,0.5-0.3,1,0,1.6
		c-1.3-0.7-1.4-1.6-0.7-2.8c0.4-0.6,0.6-1.4,1.2-1.9C28.6,37.3,28.6,37.4,28.7,37.6z"/>
	<path class="st13" d="M36.9,29.2c-0.5-2.2-0.1-2.8,1.9-3.4c0.6-0.2,1.3-0.2,2-0.4c0.2,0.1,0.4,0.2,0.3,0.4
		c-0.3,0.5-0.9,0.3-1.4,0.5c-0.8,0.3-1.8,0.2-2.1,1.3c-0.2,0.4-0.4,0.9-0.5,1.4C37.1,29,37,29.1,36.9,29.2z"/>
	<path class="st14" d="M67,48.2c0,0.2,0,0.3,0,0.5c0.1,0.1,0.1,0.2,0.1,0.4c-0.3,1.1-0.5,2.2-1.8,2.5c-0.2-0.1-0.4-0.2-0.3-0.4
		c0.4-1.4,0.7-2.8,2.1-3.6C67.1,47.8,67.2,48,67,48.2z"/>
	<path class="st15" d="M69.2,54.4c0.4-0.7,0.8-1.5,1.1-2.2c0.2-0.5,0.4-1-0.4-1c-0.2-0.2-0.2-0.5-0.1-0.8c0-0.1,0.1-0.2,0.2-0.3
		c1.1,0.8,1.2,1.8,0.4,2.9c-0.4,0.6-0.9,1.2-1.3,1.9c-0.1-0.1-0.1-0.1-0.1-0.2C69.1,54.5,69.2,54.4,69.2,54.4z"/>
	<path class="st16" d="M33.3,54.5c0-0.3,0.1-0.6,0.1-1c0.3,0.8,0.5,1.4,0.7,2c0.1,0.5,0.3,0.9,0,1.4c-0.2,0.1-0.4,0.3-0.6,0.4
		c-0.1-0.1-0.2-0.2-0.3-0.3C33.1,56.2,32.8,55.4,33.3,54.5z"/>
	<path class="st17" d="M35,58c0.6,1.4,1.6,2.6,1.6,4.2c-0.8-1.2-1.3-2.6-1.9-3.9C34.8,58.1,34.9,58,35,58z"/>
	<path class="st18" d="M60.7,64.8c0-0.2-0.1-0.5-0.3-0.6c0.3-1.1-0.1-2.1-0.3-3.1C61.2,62.3,61.1,63.5,60.7,64.8z"/>
	<path class="st19" d="M38,31.8c-1.3,0.3-2.4,1.2-3.8,1.4c-0.1-0.1-0.1-0.1-0.1-0.2c0-0.1,0.1-0.1,0.1-0.1c1.1-0.6,2.3-1,3.5-1.5
		c0.1-0.1,0.2-0.1,0.4,0C38.1,31.6,38.1,31.7,38,31.8z"/>
	<path class="st20" d="M46.6,26.1c1.1,0.3,2.2,0.6,3.2,1.2c0.1,0.1,0.1,0.3-0.1,0.4c-1.3-0.1-2.7-0.2-3.5-1.5
		C46.3,26,46.5,26,46.6,26.1z"/>
	<path class="st21" d="M69.2,54.4c0,0.1,0,0.2,0,0.3c-0.6,0.9-1.3,1.6-2.2,2.2c-0.1,0.1-0.2,0.1-0.3,0C67.4,56,68.3,55.2,69.2,54.4z
		"/>
	<path class="st22" d="M42.7,67.5c1.3,0.2-0.1-0.7,0.3-0.9c0.5,0.1,1,0.4,1.6,0.3c-0.5,0.7-1.2,0.9-2,0.8
		C42.6,67.7,42.6,67.7,42.7,67.5C42.6,67.5,42.6,67.5,42.7,67.5z"/>
	<path class="st23" d="M32.6,57.7c-0.9,0.4-1.9,0.4-2.8,0c0.2-0.2,0.4-0.2,0.6-0.4c0.6-0.1,1.2-0.2,1.9,0
		C32.4,57.4,32.6,57.5,32.6,57.7z"/>
	<path class="st24" d="M35,58c-0.1,0.1-0.2,0.2-0.2,0.3c-0.2-0.4-0.4-0.9-0.6-1.3c-0.1-0.5-0.2-1,0-1.4C34.7,56.3,34.9,57.1,35,58z"
		/>
	<path class="st7" d="M58.3,66.2c0-0.1,0-0.2,0-0.3c0.8-0.3,1.6-0.5,2.4-0.8C60.2,66.2,59.2,66,58.3,66.2z"/>
	<path class="st25" d="M56.9,25.3c-0.8-0.2-1.5-0.6-2.2-1.1c-0.1-0.1-0.1-0.1-0.1-0.2c0-0.1,0.1-0.1,0.1-0.1
		c0.8,0.2,1.5,0.6,2.2,1.1C57,25.1,57,25.2,56.9,25.3C56.9,25.3,56.9,25.3,56.9,25.3z"/>
	<path class="st26" d="M28.8,48.2c0.5,1,0,1.8-0.3,2.7c-0.1-0.1-0.2-0.1-0.2-0.3C28.4,49.8,28.6,49,28.8,48.2z"/>
	<path class="st7" d="M34.2,33c0,0.1,0,0.2,0,0.3c-0.6,0.5-1.4,0.9-2.2,1.1c-0.1,0.1-0.2,0.1-0.3,0C32.4,33.6,33.3,33.3,34.2,33z"/>
	<path class="st7" d="M62.1,59.4c0.7-0.5,1.4-1.3,2.4-0.9C63.8,58.9,63,59.4,62.1,59.4z"/>
	<path class="st25" d="M49.8,27.5c0-0.1,0-0.2,0-0.2c0.6,0.2,1.1,0.3,1.7,0.5c0.3-0.2,0.4,0.1,0.5,0.3c0,0.1,0.1,0.1,0.1,0.2
		C50.9,28.8,50.4,28.6,49.8,27.5z"/>
	<path class="st27" d="M54.7,24c0,0.1,0,0.2,0,0.3c-0.7,0.1,0,0.6-0.3,0.8c-0.4,0-0.9-0.3-1.3,0C53.3,24.3,53.8,23.8,54.7,24z"/>
	<path class="st28" d="M36.7,62.3c0.9,0.3,1.3,1,1.3,1.9C37.4,63.7,37,63.1,36.7,62.3z"/>
	<path class="st29" d="M39.7,65.9c0.9,0,1.4,0.5,1.9,1.1c0.1,0.1,0.1,0.1,0.1,0.2c0,0.1-0.1,0.1-0.1,0.1
		C40.8,66.9,40.2,66.5,39.7,65.9z"/>
	<path class="st30" d="M60.7,29.4c-0.6-0.6-1.2-1.1-1.3-1.9c0.9,0.3,1.1,1.3,1.6,2C60.9,29.5,60.8,29.5,60.7,29.4z"/>
	<path class="st17" d="M31.7,34.3c0.1,0,0.2,0,0.3,0c-0.6,0.6-1.2,1.3-2.1,1.4C30.4,35.1,30.9,34.5,31.7,34.3z"/>
	<path class="st31" d="M28.2,50.6c0.1,0.1,0.1,0.2,0.2,0.3c0,1,0,2,0,3c0.2,0.3,0,0.3-0.2,0.3C28.1,53,28.1,51.8,28.2,50.6z"/>
	<path class="st32" d="M66.7,56.9c0.1,0,0.2,0,0.3,0c-0.5,0.5-1,0.9-1.6,1.1C65.5,57.2,66.1,57.1,66.7,56.9z"/>
	<path class="st33" d="M67,48.9c0-0.1,0-0.2,0-0.2c0.8-0.4,1.4,0,1.9,0.5c0.1,0.1,0.1,0.3,0,0.4C68.2,49.7,67.5,49.5,67,48.9z"/>
	<path class="st34" d="M51.1,65.6c-0.2,0-0.4,0-0.6,0C50,65.4,49.5,65.2,49,65c-0.1-0.1-0.1-0.1-0.1-0.2c0-0.1,0.1-0.1,0.1-0.1
		C49.8,64.9,50.5,65,51.1,65.6z"/>
	<path class="st31" d="M41,25.6c-0.1-0.1-0.2-0.1-0.3-0.2c1,0,2-0.4,3,0.2c-0.1,0.1-0.2,0.2-0.4,0.3C42.6,25.9,41.8,26.1,41,25.6z"
		/>
	<path class="st35" d="M28.7,55.5c0.4,0.5,0.5,1,0.5,1.6c0.1,0.1,0.1,0.2,0,0.3c-0.4-0.6-0.6-1.3-0.7-2
		C28.6,55.4,28.7,55.4,28.7,55.5z"/>
	<path class="st36" d="M45.2,66.2c0.3-0.7,0.5-1.3,0.8-2C46.4,65.2,46,65.8,45.2,66.2z"/>
	<path class="st37" d="M38,64.2c0.9,0.2,1.4,0.8,1.6,1.6C39,65.5,38.4,64.9,38,64.2z"/>
	<path class="st38" d="M37.5,31c-0.1-0.2-0.2-0.4-0.2-0.6c0.1-0.1,0.2-0.1,0.3-0.2c0.6,0.1,1.2-0.2,1.7,0.2c0.4,0.7-0.1,0.7-0.5,0.8
		C38.3,31.3,37.9,31.3,37.5,31z"/>
	<path class="st28" d="M56.9,25.3c0-0.1,0-0.2,0-0.2c0.5,0.3,1,0.5,1.3,1.1C57.5,26.2,57.2,25.8,56.9,25.3z"/>
	<path class="st39" d="M28.7,55.5c-0.1,0-0.2,0-0.2,0c-0.1-0.5-0.2-0.9-0.3-1.4c0.1-0.1,0.1-0.2,0.2-0.3
		C28.9,54.4,28.6,55,28.7,55.5z"/>
	<path class="st40" d="M52,28c-0.2-0.1-0.4-0.2-0.5-0.3c0-0.6,0-1.1,0.6-1.4C51.8,26.9,52,27.5,52,28z"/>
	<path class="st41" d="M49,64.8c0,0.1,0,0.2,0,0.2c-0.6-0.2-1.2-0.3-1.7-0.8c0.1,0,0.2,0,0.3,0C48.1,64.2,48.6,64.4,49,64.8z"/>
	<path class="st42" d="M60,61c-0.2,0.2-0.4,0.3-0.7,0.2c-0.2-0.2-0.6,0.1-0.8-0.4c0.4-0.2,0.8-0.5,1.4-0.4c0,0,0.1,0.1,0.1,0.1
		C59.9,60.6,60,60.8,60,61z"/>
	<path class="st43" d="M67.8,45.7c0.1,0,0.2,0,0.3,0c-0.2,0.5-0.4,0.9-0.6,1.4c-0.1,0.1-0.3,0.1-0.4-0.1
		C67.1,46.4,67,45.9,67.8,45.7z"/>
	<path class="st44" d="M30.1,44.9c0.5,0.6,0,1-0.3,1.4c-0.1,0.1-0.2,0.1-0.2,0C29.8,45.8,30,45.4,30.1,44.9z"/>
	<path class="st45" d="M37.6,30.5c-0.1,0-0.2,0-0.3,0c-0.2-0.4-0.4-0.8-0.3-1.3c0-0.1,0-0.2,0-0.3C37.8,29.2,37.8,29.8,37.6,30.5z"
		/>
	<path class="st46" d="M60.7,29.4c0.1,0,0.2,0,0.2,0c0.3,0.4,0.6,0.8,0.6,1.3C60.8,30.6,60.9,29.9,60.7,29.4z"/>
	<path class="st47" d="M29.6,46.3c0.1,0,0.2,0,0.2,0c0,0.4,0.1,1-0.6,1C29.4,47,29.5,46.6,29.6,46.3z"/>
	<path class="st48" d="M43.5,25.6c0.1,0,0.2,0,0.3,0c0.5,0,1.1-0.1,1.6,0.1c0,0.3-0.2,0.4-0.4,0.5C44.4,26.1,43.7,26.5,43.5,25.6z"
		/>
	<path class="st49" d="M68.9,49.4c0-0.1,0-0.2,0-0.3c0.5,0.1,0.8,0.4,1.1,0.8c0,0.1,0,0.3,0,0.4C69.3,50.4,69,50.1,68.9,49.4z"/>
	<path class="st50" d="M28.7,37.6c-0.1-0.1-0.2-0.2-0.3-0.3c0.3-0.3,0.6-0.6,0.8-1C29.4,36.8,28.9,37.1,28.7,37.6z"/>
	<path class="st51" d="M32.6,57.7c-0.1-0.1-0.2-0.2-0.3-0.2c0.3-0.5,0.7-0.7,1.3-0.4c0,0.1,0,0.2,0,0.3C33.3,57.6,33,57.8,32.6,57.7
		z"/>
	<path class="st52" d="M64.2,35.7c-0.2,0-0.3,0-0.5,0c-0.1-0.4-0.2-0.7,0.1-1c0.2-0.1,0.3-0.1,0.5-0.2c0.1,0.1,0.1,0.2,0.2,0.3
		C64.4,35,64.6,35.4,64.2,35.7z"/>
	<path class="st53" d="M61,59.9c0.1-0.7,0.6-0.6,1.1-0.6C61.9,59.8,61.5,59.9,61,59.9z"/>
	<path class="st54" d="M64.3,34.8c0-0.1,0-0.2,0-0.4c0.3-0.1,0.6-0.2,0.9-0.4c0.2,0.1,0.4,0.1,0.3,0.4C65.1,34.9,64.8,35,64.3,34.8z
		"/>
	<path class="st55" d="M67.3,34c-0.2,0.1-0.4,0.2-0.6,0.2c-0.1,0.1-0.2,0.2-0.3,0.2c-0.2-0.1-0.4-0.2-0.6-0.4
		C66.4,33.7,66.8,33.7,67.3,34z"/>
	<path class="st56" d="M63.8,34.6c0,0.3,0,0.7-0.1,1c-0.3-0.4-0.3-0.9-0.5-1.3C63.4,34.4,63.6,34.5,63.8,34.6z"/>
	<path class="st57" d="M37.5,31c0.4,0,0.9,0,1.3,0c0.1,0.7-0.6,0.3-0.8,0.5c-0.1,0-0.2,0-0.3,0C37.6,31.3,37.5,31.2,37.5,31z"/>
	<path class="st58" d="M29.2,57.5c0-0.1,0-0.2,0-0.3c0.3,0.1,0.6,0.4,0.9,0c0.1,0,0.2,0.1,0.3,0.3c-0.1,0.3-0.4,0.3-0.6,0.4
		C29.6,57.7,29.4,57.7,29.2,57.5z"/>
	<path class="st59" d="M28.7,42.5c0.4,0,0.8,0.2,1.1,0.4c0.1,0.1,0.1,0.2,0,0.3C29.4,43.1,28.9,43,28.7,42.5z"/>
	<path class="st47" d="M45.1,25.9c0.1-0.1,0.2-0.1,0.3-0.2c0.4,0.1,0.9,0.1,1.2,0.4c-0.1,0-0.3,0-0.4,0
		C45.8,26.4,45.3,26.6,45.1,25.9z"/>
	<path class="st60" d="M29.8,43.2c0-0.1,0-0.2,0-0.3c0.4,0.2,0.7-0.3,1.1-0.3c0,0.3,0,0.5-0.3,0.6C30.4,43.3,30.1,43.3,29.8,43.2z"
		/>
	<path class="st19" d="M41.6,67.2c0-0.1,0-0.2,0-0.3c0.4,0,0.8,0.2,1.1,0.5c0,0.1,0,0.2,0,0.3C42.3,67.6,41.9,67.4,41.6,67.2z"/>
	<path class="st61" d="M62.3,32.4l-0.1,0c0,0-0.1,0-0.1,0c-0.3-0.3-0.3-0.5,0-0.8C62.1,31.8,62.2,32.1,62.3,32.4z"/>
	<path class="st62" d="M65.9,34c0.2,0.1,0.4,0.2,0.6,0.2c-0.3,0.4-0.7,0.4-1.1,0.1c-0.1-0.1-0.2-0.2-0.3-0.2
		C65.4,34.1,65.6,34,65.9,34z"/>
	<path class="st63" d="M67.3,47.1c0.1,0,0.2,0,0.3,0c-0.2,0.4-0.3,0.7-0.5,1.1c0-0.2,0-0.4,0-0.6C66.8,47.3,66.8,47.1,67.3,47.1z"/>
	<path class="st31" d="M47.6,30.2c0.1-1.1-1-0.6-1.4-1c1.2-0.9,1.9-0.7,2.2,0.7c0.3,1,0.3,1.9,0.6,2.9c-0.4,1.7-0.4,1.7,1.7,1.8
		c1.5,0.3,2.9,1,4.2,1.8c0.9,0.6,1.5,0.4,2.1-0.3c0.4-0.5,0.7-1.2,1.5-1.3c0.2,0.1,0.4,0.2,0.3,0.4c-0.2,0.3-0.4,0.5-0.6,0.8
		c-0.1,0.2-0.2,0.5-0.3,0.7c-1.6,1-0.3,1.8,0.2,2.6c0.2,0.3,0.2,0.7,0.4,1c0.7,1.2,1.2,2.4,1.4,3.8c0.1,0.7,0.4,0.9,1,0.9
		c1.1-0.1,2.2,0.1,3.2-0.2c0.4-0.1,0.7-0.2,0.7-0.6c0.1-0.1,0.2-0.1,0.3,0c0.3,1,0.5,0.1,0.8,0c0.6,0.9-0.1,1.2-0.7,1.4
		c-0.9,0.3-1.8,0.4-2.8,0.4c-0.4,0-0.9-0.1-1.3-0.1c-0.9,0-0.9,0.7-0.8,1.3c0,0.3,0.4-0.2,0.7-0.1c0.4,0.3,0.2,0.7-0.1,0.9
		c-1.4,1.2-1.5,3.1-2.6,4.6c-0.4,0.5,0,0.8,0.3,1.2c0.5,0.5,1.2,0.9,1.1,1.7c-0.1,0.1-0.1,0.2-0.3,0.2c-0.2,0-0.4,0-0.5-0.1
		c-0.2-0.1-0.4-0.3-0.6-0.4c-1.2-1.1-1.2-1.1-3,0.2c-0.3,0.2-0.7,0.4-1,0.6c-1,0.7-2,1-3.1,1.3c-0.7,0.2-1.2,0.6-1.1,1.3
		c0.2,1.1,0,2.3,0.6,3.3c0,0.4-0.8,0.7,0,1.1c-0.8,0.3-1.1-0.1-1.2-0.8c-0.2-1,0-2.1-0.7-2.9c0.2-0.2,0-0.4,0-0.6
		c0.2-1.1-0.3-1.3-1.2-1.2c-0.2,0-0.4,0-0.7-0.1c-1.6-0.7-3.2-1.1-4.6-2.2c-0.5-0.4-0.9-0.4-1.4,0.1c-0.6,0.7-1.3,1.4-2,2.1
		c-0.3,0-0.4,0-0.3-0.3c0.3-0.4,0.6-0.9,0.9-1.3c0.1-0.2,0.2-0.4,0.4-0.6c1.2-1,0.1-1.5-0.4-2.2c-0.1-0.2-0.5-0.4-0.3-0.8
		c-0.6-1.4-1.3-2.8-1.5-4.3c-0.1-0.6-0.5-0.7-1-0.6c-1.2,0-2.5,0.1-3.7,0.1c-0.4,0.5-0.9,0.2-1.4,0.2c-0.4-0.7,0.3-0.8,0.7-0.9
		c0.9-0.3,1.9-0.4,2.8-0.4c0.7,0,1.3,0.4,2-0.1c0.2-0.4,0.1-0.8,0.3-1.2c0.2-0.4,0.1-0.8,0-1.3c0.3-1.3,0.9-2.6,1.6-3.7
		c0.3-0.5,0.5-1.1,0.6-1.6c0.8-0.4,1.6-0.8,2.3-1.3c0.2-0.1,0.4-0.2,0.6-0.4c1.5-0.5,2.9-1.3,4.6-1.5c0.6-0.1,0.6-0.5,0.6-1
		C47.9,32.7,47.8,31.4,47.6,30.2z"/>
	<path class="st6" d="M45.1,25.9c0.3,0.4,0.7,0.2,1.1,0.3c1.1,0.7,2.3,1.1,3.6,1.4c0.7,0.6,1.4,0.9,2.3,0.8c0.1,0,0.1,0,0.2,0
		c0.9,0.4,1.5,1.1,2.4,1.4c1.8,0.9,3.6,2,5.2,3.2c-0.2,0.6-0.6,0.8-1.1,0.8c-1.9-1-3.8-2.1-5.7-3.3c-0.6-0.9-1.6-1.2-2.6-1.2
		c-0.9-0.3-1.8-0.4-2.4-1.1c-0.2-0.9-0.8-0.3-1.2-0.4c-0.6-0.1-1.2-0.3-1.7-0.6c-2.5-1-5-0.8-7.3,0.5c-0.1,0.1-0.3,0-0.4-0.1
		c-0.3-0.8,0.3-0.9,0.8-1.1c0.9-0.3,1.9-0.5,2.8-0.8c0.8,0,1.6,0,2.5,0C44,26.1,44.6,25.8,45.1,25.9z"/>
	<path class="st64" d="M58.8,33.5c0.5,0,0.7-0.4,1.1-0.5c0.4,1.1-0.6,1.5-1.1,2.2c-0.1-0.1-0.2-0.2-0.3-0.3
		C58.4,34.3,58.6,33.9,58.8,33.5z"/>
	<path class="st65" d="M54.7,29.7c-1-0.1-1.9-0.5-2.4-1.4C53.5,28,53.9,29.2,54.7,29.7z"/>
	<path class="st66" d="M63.2,38.1c0.9,0.8,1.1,1.8,0.8,3C63.8,40.1,63.5,39.1,63.2,38.1z"/>
	<path class="st67" d="M65.1,44.1c-0.1,0-0.2,0-0.3,0c-0.3-0.6-0.4-1.2-0.5-1.9C65.2,42.6,64.7,43.5,65.1,44.1z"/>
	<path class="st68" d="M58.5,40.3c-0.2-0.3-0.3-0.5-0.5-0.8c0.1-0.4-0.1-0.9,0.1-1.4c0.1-0.2,0.2-0.3,0.4-0.3
		C58.5,38.7,58.5,39.5,58.5,40.3z"/>
	<path class="st69" d="M62.3,35.4c0.6,0.2,0.7,0.5,0.3,1C62.5,36.1,62.4,35.8,62.3,35.4z"/>
	<path class="st70" d="M58.5,37.9c-0.1,0.1-0.2,0.2-0.2,0.3c-0.6-0.2-0.5-0.6-0.4-1c0.1-0.1,0.2-0.2,0.4-0.1
		C58.3,37.3,58.5,37.5,58.5,37.9z"/>
	<path class="st71" d="M58.2,37L58.2,37L58,37c-0.3-0.1-0.2-0.4-0.3-0.6c0.2-0.2,0.3-0.3,0.5-0.5C58.2,36.3,58.2,36.6,58.2,37z"/>
	<path class="st72" d="M42.3,37c-0.8,0.3-1.2,1.6-2.4,1.1c-0.1,0.1-0.3,0.1-0.4,0c-0.5-1-0.5-1.1,0.3-1.4c0.2-0.1,0.4-0.2,0.5-0.3
		c0.4,0.3,0.8,0.1,1.2,0.1C42,36.5,42.4,36.4,42.3,37z"/>
	<path class="st73" d="M36.7,35.7c-0.5-0.5-0.9,0.1-1.4,0c0.3-1.1,0.9-1.3,1.8-0.5c0.5,0.5,1.1,0.9,1.5,1.5c0.1,0.1,0.1,0.1,0.1,0.2
		c0,0.1,0,0.1,0,0.1C37.7,37,37.1,36.4,36.7,35.7z"/>
	<path class="st74" d="M38.6,37.1c0-0.1,0-0.3,0-0.4c0.4,0.2,0.9-0.5,1.3,0.1c-0.9,0.3,0,0.9-0.3,1.4C38.9,38.1,38.6,37.8,38.6,37.1
		z"/>
	<path class="st75" d="M29.3,38c0.3-1.2,1.1-1.9,2.3-2.3C30.8,36.4,30.1,37.2,29.3,38z"/>
	<path class="st76" d="M39.7,31.8c0.8-0.5,1.7-0.8,2.7-0.8c0.1-0.1,0.2-0.1,0.3,0c-0.9,0.5-1.7,0.8-2.7,0.8
		C39.9,31.9,39.8,31.9,39.7,31.8z"/>
	<path class="st77" d="M42.7,31c-0.1,0-0.2,0-0.3,0c1.1-0.3,2.1-1,3.3-0.6C44.7,30.6,43.7,31.1,42.7,31z"/>
	<path class="st78" d="M42.3,37c-0.5-0.6-1.4,0.1-1.9-0.5c0.7,0,1.5-0.5,2.2,0C42.6,36.7,42.6,36.9,42.3,37z"/>
	<path class="st79" d="M39.7,31.8c0.1,0,0.2,0,0.3,0c-0.6,0.6-1.5,0.5-2.2,0.8C38.1,31.8,39,32.1,39.7,31.8z"/>
	<path class="st80" d="M38.8,56.9c0.1,0.1,0.2,0.2,0.3,0.3c0,0.4-0.8,0.6-0.3,1.2c-0.3,0.2-0.7,0.3-0.8,0.8
		c-0.5-0.2-0.6-0.5-0.3-0.9C38.1,57.7,38.5,57.3,38.8,56.9z"/>
	<path class="st81" d="M39.4,52c0.2,0.2,0.4,0.4,0.6,0.5c-0.2,0.5,0.2,1.1-0.2,1.6c-0.1,0.1-0.2,0.1-0.4,0
		C39.1,53.4,39,52.7,39.4,52z"/>
	<path class="st82" d="M37.9,62.3c-0.6-0.7-1.3-1.4-1-2.4C37.2,60.7,37.8,61.4,37.9,62.3z"/>
	<path class="st83" d="M34.4,53.3c-0.7-0.5-0.9-1.1-0.5-1.9C34.1,52.1,34.2,52.7,34.4,53.3z"/>
	<path class="st84" d="M39.4,54.2c0.1,0,0.2,0,0.2,0c0.5,0.2,0.3,0.8,0.6,1.1c-0.1,0.2-0.3,0.2-0.5,0.2
		C39.2,55.2,39.4,54.6,39.4,54.2z"/>
	<path class="st22" d="M36.4,59c-0.6-0.2-0.7-0.5-0.4-1C36.2,58.3,36.3,58.7,36.4,59z"/>
	<path class="st85" d="M47,57.2c0.7-0.5,1.6-0.4,2.1,0c0.4,0.4,0.4,1.3-0.2,1.9C48.3,58.4,47.3,58.2,47,57.2z"/>
	<path class="st86" d="M59.9,60.4c-0.2,0.1-0.4,0.1-0.5,0.2c-0.2,0.2-0.6,0-0.6,0.3c0,0.1,0.3,0.2,0.5,0.3c-1.1,0.3-2.2,0.4-3.3,0.3
		C57.2,60.8,58.4,60.3,59.9,60.4z"/>
	<path class="st87" d="M59.3,64.8c-0.3,0.6-0.4,0.7-1.3,0.3C58.4,65,58.9,64.9,59.3,64.8z"/>
	<path class="st58" d="M54.7,65.4c-0.4,0.4-0.9,0.3-1.3,0.2c-0.2-0.1,0.1-0.1,0.2-0.2C54,65.3,54.3,65.4,54.7,65.4z"/>
	<path class="st58" d="M57.4,65.3c-0.4,0.6-0.8,0.3-1.3,0.1C56.5,65.4,57,65.3,57.4,65.3z"/>
	<path class="st5" d="M38.6,37.1c0.3,0.4,0.6,0.8,1.1,1c0.1,0,0.2,0,0.3,0c0.1,0.6,0.1,1.1-0.3,1.6c-0.9,1.1-1.2,2.6-1.9,3.9
		c-0.2,0.7-0.9,1-1.2,1.6c-0.1,0.2-0.2,0.3-0.4,0.4c-0.2,0.2-0.4,0.5-0.7,0.6c-1,0.2-2,0.4-3.1,0.6c-0.3,0.1-0.8,0-0.7,0.6
		c-0.1,0.4,0.1,0.8,0.3,1.1c0.5,1.5,1,3,1.1,4.6c0.1,0.5-0.1,1,0.2,1.4c0.1,0.9,0.2,1.7,0.3,2.6c-0.4,0.1-0.9,0.3-1.3,0.4
		c-0.6,0-1.3,0.3-1.9-0.1c-0.1-0.1-0.2-0.2-0.3-0.3c0,0,0,0,0,0c-0.9-2.3-1.4-4.6-0.6-7.1c0.5-1.5,1.1-2.9,1.6-4.4
		c-0.2-0.4,0.1-0.7,0.4-1c1.6-3.1,3.1-6.2,5.2-9C37.3,36.1,37.9,36.6,38.6,37.1z"/>
	<path class="st79" d="M29.5,50.1c-0.4,2.4,0.1,4.7,0.6,7.1c-1.1-1.3-1.1-2.9-1.1-4.4C29,51.9,28.6,50.8,29.5,50.1z"/>
	<path class="st88" d="M31.5,44.7c-0.1,0.3-0.3,0.7-0.4,1C30.8,45.2,30.8,44.8,31.5,44.7z"/>
	<path class="st5" d="M59.7,55.5c-0.2-0.8-0.9-1.1-1.4-1.6c-0.6-0.6-0.9-1-0.2-1.8c0.4-0.4,0.7-1,0.9-1.5c0.4-1.4,1.2-2.4,2-3.5
		c0.1-0.7,0.4-1.1,1.1-1.3c0.9-0.5,2-0.4,3-0.6c0.7-0.1,1-0.4,0.8-1.1c0-0.5,0-1-0.5-1.4c-0.2-1.1-0.6-2.1-0.6-3.3
		c-0.4-1,0-2.1-0.5-3c0-0.3-0.1-0.5-0.1-0.8c0.1-0.3-0.2-0.6,0.1-0.8c0.4-0.2,0.8-0.3,1.1-0.5c0.4,0,0.7-0.1,1.1-0.1
		c0.1,0,0.2,0,0.3,0c0.5,0,0.5,0.5,0.8,0.7c0.9,0.8,0.8,2,1.1,3.1c0.1,1,0.1,1.9,0,2.9c-0.1,0.3-0.2,0.7-0.2,1
		c-0.1,0.5-0.2,0.9-0.4,1.4c-1.6,4.4-3.7,8.5-6.3,12.4C61,56.6,60.3,56.4,59.7,55.5z"/>
	<path class="st87" d="M64.8,39.5c0.3,1.1,0.7,2.1,0.6,3.3C65,41.7,64.3,40.7,64.8,39.5z"/>
	<path class="st89" d="M33.1,53.1c-0.4-1.5-0.9-3-1.1-4.6C32.9,49.9,33.4,51.4,33.1,53.1z"/>
	<path class="st5" d="M59.1,55.3c0.1,0.1,0.2,0.2,0.3,0.2c0.5,0.2,1,0.6,1.5,0.9c0.6,0.3,1,0.3,1.4-0.3c0.8-1.2,1.5-2.5,2.3-3.7
		c0.3-0.4,0.4-0.8,0.9-1c0.9-0.6,1.3-1.5,1.6-2.5c0.7-0.1,1.3,0.3,1.9,0.5c0.4,0.3,0.7,0.6,1.1,1c0,0.3,0,0.5-0.1,0.8
		c-0.5,0.9-1,1.9-1.5,2.8c-0.5,0.9-1,1.6-2,2c-1.7,1.1-3.6,1.9-5.5,2.8c-0.3,0.3-0.7,0.4-1.1,0.5c-1.5,0.7-3.1,1.1-4.7,1.6
		c-1.2,0.2-2.4,0.9-3.7,0.7c-0.2,0-0.4,0-0.6,0.2c-0.3,0-0.7,0.1-0.7-0.4c0-1.2-0.4-2.4-0.2-3.6c0.1-0.6,0.3-0.8,0.9-0.9
		c1.3-0.2,2.5-0.6,3.6-1.4c0.6-0.2,1.1-0.3,1.7-0.3c0.2,0,0.4,0,0.6,0c0.3,0,0.6,0,0.8,0C58.1,55,58.6,55,59.1,55.3z"/>
	<path class="st90" d="M55.2,60.7c1.6-0.5,3.1-1.1,4.7-1.6c0.1,0.1,0.1,0.1,0.1,0.2c0,0.1-0.1,0.1-0.1,0.1c-1.2,0.8-2.6,1.2-4.1,1.4
		C55.6,60.9,55.4,60.9,55.2,60.7z"/>
	<path class="st87" d="M55.2,60.7c0.2,0,0.4,0,0.6,0c-1.4,0.6-2.8,1.2-4.4,0.9C52.7,61.3,54,61,55.2,60.7z"/>
	<path class="st87" d="M66.4,56c0.7-0.7,1.3-1.4,2-2C68.1,55,67.6,55.8,66.4,56z"/>
	<path class="st69" d="M59.9,59.4c0-0.1,0-0.2,0-0.2c0.3-0.1,0.7-0.2,1-0.3C60.9,59.5,60.3,59.2,59.9,59.4z"/>
	<path class="st5" d="M58.8,33.5c0.5,0.6-0.2,0.9-0.3,1.4c-0.1,0.1-0.2,0.1-0.2,0.2c-0.7,0.7-1.3,1.7-2.1,2.1
		c-0.9,0.4-1.6-0.8-2.4-1.1c-1-0.3-1.9-0.8-2.9-1.2C50,34.4,49.3,33.9,49,33c-1-0.5-0.6-1.6-0.8-2.4c-0.4-1.7-0.3-1.8-2-1.4
		c-0.9,0.1-1.7,0.3-2.5,0.8c-1,0.2-2,0.4-3.1,0.7c-0.5,0.2-1.1,0.2-1.6-0.1c-0.5-0.1-1.1,0.5-1.6-0.1c-0.2-0.5-0.2-1.2-0.6-1.6
		c-0.1-0.6-0.1-1.1,0.5-1.4c0.1,0,0.2,0,0.3,0c2.5-1.4,5-1.5,7.6-0.5c0.6,0.2,1.1,0.4,1.7,0.6c0.4,0,0.7,0,1,0.4
		c0.8,0.4,1.7,0.7,2.5,1.1c1,0.3,2,0.5,2.8,1.3C55.2,31.3,57,32.4,58.8,33.5z"/>
	<path class="st91" d="M39.1,30.5c0.5,0,1-0.1,1.5-0.1c0.3,0,0.8-0.4,0.9,0.3c-1.2,0.2-2.4,0.7-3.6,1.1c0-0.1,0-0.2,0-0.3
		c0.3-0.2,0.5-0.3,0.8-0.5C39.2,31,39.4,30.9,39.1,30.5z"/>
	<path class="st92" d="M41.6,30.7c-0.2-0.3-0.6-0.2-0.9-0.3c1-0.2,2-0.7,3.1-0.5C43,30.2,42.3,30.5,41.6,30.7z"/>
	<path class="st6" d="M65.4,51.5c-1,1.7-1.8,3.4-3.1,4.9c-0.2,0.2-0.4,0.4-0.7,0.3c-0.6-0.3,0.1-0.7,0-1.1c2.5-3.9,4.5-8,6.2-12.3
		c0.4-0.4,0.5-0.8,0.3-1.3c0-0.3,0-0.6,0.2-0.9c0.4-1,0.1-2.1,0.2-3.1c0-0.2,0.1,0,0-0.1c-0.1-0.2-0.1,0.1-0.2,0.1
		c-0.3-1-0.6-2-0.8-3c0.7-0.7,0.8-0.1,1,0.4c1.2,3.1,1,6.1-0.3,9.2c-0.2,0.4-0.4,0.8-0.4,1.3c-0.4,0.4-0.4,0.9-0.5,1.4
		c-0.2,0.1-0.3,0.3-0.3,0.5C66.4,48.9,65.2,49.9,65.4,51.5z"/>
	<path class="st0" d="M52.7,40.9c-0.7,1-1.3,1.9-2,2.7c-0.9,1-0.9,1.7-0.1,2.8c1,1.4,1.8,3,2.7,4.5c-3.5,1.4-3.9-1.9-5.2-3.6
		c-0.9,0.8-1.2,1.7-1,2.7c0.2,1.1-0.5,1.2-1.3,1.1c-0.7-0.1-1.6,0.4-1.5-1c0.1-2.8,0.1-5.6,0-8.4c0-1.3,0.8-0.9,1.4-0.9
		c0.6,0,1.5-0.3,1.4,0.9c-0.1,0.8,0,1.6,0.2,2.5c0.4-0.6,0.9-1.1,1.1-1.7C49.3,40.6,50.8,40.5,52.7,40.9z"/>
	<path class="st93" d="M62.1,45.8c-0.4,0.4-0.7,0.9-1.1,1.3c-0.3,0.2-0.6,0.5-1.1,0.9c0.1-0.9-0.3-1.9,0.4-2.4
		C60.6,45.3,61.5,45.2,62.1,45.8z"/>
	<path class="st94" d="M56.9,55.5c-0.2,0-0.4,0-0.6,0c-0.2-0.4-1,0.2-1.1-0.5c0.2-0.1,0.4-0.3,0.5-0.4c1.4-1.2,1.4-1.2,2.7,0.4
		c-0.2,0.2-0.4,0.2-0.6,0.2C57.5,55.3,57.1,55.2,56.9,55.5z"/>
	<path class="st93" d="M49,33c0.7,0.5,1.3,1.1,1.8,1.8c-0.6,0-1.2,0-1.7,0.1c-0.4,0-0.8,0-0.7-0.5C48.5,33.9,47.9,33,49,33z"/>
	<path class="st85" d="M57.7,36.4C58,36.5,58,36.8,58,37c0,0.4-0.1,0.8,0.2,1.2c-0.1,0.5,0.2,1-0.3,1.4c-0.1-0.1-0.2-0.3-0.3-0.4
		C56.4,38.2,56.3,37.3,57.7,36.4z"/>
	<path class="st95" d="M40.2,55.3c-0.8-0.1-0.4-0.7-0.6-1.1c0.2-0.5-0.2-1.2,0.3-1.7c0.1,0.1,0.1,0.3,0.2,0.3
		C41.2,53.6,41.4,54.5,40.2,55.3z"/>
	<path class="st85" d="M36.1,45.4c0-0.1,0.1-0.1,0.1-0.2c0.4-0.3,0.6-0.8,1-1c0.5-0.3,0.6,0,0.5,0.4c0,0.5,0,1.1-0.1,1.6
		c-0.4,0.2-0.8,0.1-1.2,0.1C35.5,46.5,35.7,46,36.1,45.4z"/>
	<path class="st96" d="M61.6,55.5c0.4,0.1-0.3,1.3,0.8,0.8c-0.3,1-0.9,1-1.6,0.4c-0.5-0.4-1.1-0.6-1.4-1.2c0.1,0,0.2,0,0.3,0
		C60.3,55.4,60.9,56.8,61.6,55.5z"/>
	<path class="st97" d="M37.8,44.6c-0.1-0.3-0.1-0.6-0.5-0.2c-0.3,0.3-0.5,0.7-1,0.8c0.3-0.7,0.9-1.2,1.5-1.6
		C37.9,43.9,38.2,44.3,37.8,44.6z"/>
	<path class="st98" d="M36.1,45.4c-0.4,1.9,1.1,0.6,1.6,0.9c-0.8,0.4-1.5,0.5-2.2-0.1C35.6,45.8,35.6,45.4,36.1,45.4z"/>
	<path class="st99" d="M55.3,55c0.2,0.5,0.9,0,1.1,0.5c-0.6,0-1.3,0-1.9,0C54.7,55.3,55,55.2,55.3,55z"/>
	<path class="st100" d="M57.7,55c0.2,0,0.5-0.1,0.7-0.1c0.3,0,0.5,0.1,0.6,0.3c-0.4,0-0.9,0-1.3,0c-0.1-0.1-0.1-0.1-0.1-0.2
		C57.7,55.1,57.7,55,57.7,55z"/>
	<path class="st83" d="M45.4,26.9c-2.6-0.6-5.2-0.5-7.6,0.5c0-0.4,0.3-0.5,0.6-0.6c2.1-0.8,4.3-0.9,6.5-0.4
		C45.2,26.5,45.4,26.6,45.4,26.9z"/>
	<path class="st101" d="M53.3,30.2c-0.9-0.5-1.9-0.7-2.8-1.3C51.7,28.9,52.7,29.1,53.3,30.2z"/>
	<path class="st102" d="M48.1,27.8c-0.3-0.1-0.7-0.2-1-0.4C47.6,27.1,47.9,27.1,48.1,27.8z"/>
	<path class="st103" d="M68.3,37.9c0-0.2,0-0.4,0.1-0.5c0.1,0,0.1,0,0.2,0c0,1.3,0,2.6,0,4c0,0-0.1,0.1-0.1,0.1
		c-0.1-0.1-0.1-0.2-0.2-0.3C68.3,40,68.3,38.9,68.3,37.9z"/>
	<path class="st104" d="M68.1,41.9c0.4,0.6,0.5,1-0.3,1.3C67.9,42.8,68,42.4,68.1,41.9z"/>
	<path class="st105" d="M57.7,55c0,0.1,0,0.2,0,0.3c-0.3,0.2-0.6,0.2-0.9,0.2C56.9,54.9,57.3,55,57.7,55z"/>
</g>
</svg>
