<?xml version="1.0" encoding="utf-8"?>
<!-- Generator: Adobe Illustrator 28.0.0, SVG Export Plug-In . SVG Version: 6.00 Build 0)  -->
<svg version="1.1" id="Capa_1" xmlns="http://www.w3.org/2000/svg" xmlns:xlink="http://www.w3.org/1999/xlink" x="0px" y="0px"
	 viewBox="0 0 185 92" style="enable-background:new 0 0 185 92;" xml:space="preserve">
<style type="text/css">
	.st0{fill:#FEFEFE;}
	.st1{fill:#327570;}
	.st2{fill:#327670;}
</style>
<g>
	<path class="st0" d="M92,65c-27.1,0-54.3,0-81.4,0c-0.5,0-0.6-0.1-0.6-0.6c0-11.9,0-23.9,0-35.8c0-0.4,0.1-0.5,0.5-0.5
		c54.3,0,108.6,0,163,0c0.4,0,0.5,0.1,0.5,0.5c0,12,0,23.9,0,35.9c0,0.4-0.1,0.5-0.5,0.5C146.3,65,119.2,65,92,65z"/>
	<path class="st1" d="M23.4,49.1c-0.2,0.3-0.1,0.5-0.1,0.7c0,4,0,8,0,12.1c0,0.5-0.1,0.6-0.6,0.6c-2.7,0-5.4,0-8.1,0
		c-0.5,0-0.6-0.2-0.6-0.6c0-10.2,0-20.5,0-30.7c0-0.5,0.2-0.6,0.6-0.6c2.7,0,5.3,0,8,0c0.5,0,0.7,0.2,0.8,0.6c1.6,4,3.2,8,4.9,12
		c0.1,0.2,0.2,0.4,0.3,0.6c0-0.2,0-0.3,0-0.5c0-4,0-7.9,0-11.9c0-0.6,0.2-0.8,0.8-0.8c2.6,0,5.2,0,7.8,0c0.5,0,0.7,0.1,0.7,0.6
		c0,10.2,0,20.5,0,30.7c0,0.5-0.2,0.6-0.6,0.6c-2.7,0-5.3,0-8,0c-0.5,0-0.7-0.1-0.8-0.6c-1.6-4-3.2-8-4.9-12
		C23.6,49.6,23.5,49.3,23.4,49.1z"/>
	<path class="st2" d="M169.8,46.5c0,5.1,0,10.2,0,15.3c0,0.5-0.1,0.6-0.6,0.6c-2.6,0-5.3,0-7.9,0c-0.5,0-0.7-0.1-0.7-0.7
		c0-3.8,0-7.5,0-11.3c0-0.5-0.1-0.7-0.7-0.7c-1,0-2,0-3,0c-0.5,0-0.7,0.1-0.7,0.7c0,3.7,0,7.5,0,11.2c0,0.6-0.2,0.7-0.7,0.7
		c-2.6,0-5.2,0-7.8,0c-0.5,0-0.6-0.1-0.6-0.6c0-10.2,0-20.5,0-30.7c0-0.5,0.1-0.6,0.6-0.6c2.6,0,5.2,0,7.9,0c0.6,0,0.7,0.2,0.7,0.7
		c0,3.7,0,7.3,0,11c0,0.5,0.1,0.7,0.6,0.6c1,0,2.1,0,3.1,0c0.5,0,0.6-0.1,0.6-0.6c0-3.7,0-7.3,0-11c0-0.6,0.2-0.8,0.8-0.7
		c2.6,0,5.2,0,7.9,0c0.5,0,0.6,0.1,0.6,0.6C169.8,36.2,169.8,41.3,169.8,46.5z"/>
	<path class="st2" d="M111.1,62.4c-2.5,0-5,0-7.6,0c-0.4,0-0.6-0.1-0.6-0.6c0-1.9,0-3.8,0-5.7c0-0.5,0.2-0.6,0.6-0.6
		c3.3,0,6.6,0,9.9,0c0.5,0,0.7-0.1,0.7-0.7c0-1.5,0-3,0-4.5c0-0.6-0.2-0.7-0.7-0.7c-1.6,0-3.3,0-4.9,0c-2.8,0-4.8-1.9-4.8-4.8
		c0-3.3,0-6.5,0-9.8c0-2.8,1.8-4.7,4.6-4.8c4.3-0.1,8.7,0,13,0c0.4,0,0.5,0.1,0.5,0.5c0,2,0,4,0,6c0,0.5-0.2,0.5-0.6,0.5
		c-2.6,0-5.2,0-7.9,0c-0.6,0-0.7,0.2-0.7,0.7c0,1.3,0,2.6,0,4c0,0.5,0.1,0.7,0.6,0.6c1.8,0,3.6-0.1,5.4,0c2.5,0.1,4.2,2,4.2,4.5
		c0,3.5,0,7.1,0,10.6c0,2.7-1.9,4.5-4.5,4.6C116.1,62.4,113.6,62.4,111.1,62.4z"/>
	<path class="st2" d="M42.8,46.4c0-5.1,0-10.2,0-15.2c0-0.6,0.1-0.7,0.7-0.7c5.5,0,11,0,16.5,0c0.5,0,0.7,0.1,0.6,0.6
		c0,1.9,0,3.8,0,5.7c0,0.5-0.1,0.7-0.7,0.7c-2.5,0-4.9,0-7.4,0c-0.6,0-0.7,0.2-0.7,0.7c0,1.3,0,2.7,0,4c0,0.5,0.1,0.6,0.6,0.6
		c2.5,0,5,0,7.5,0c0.5,0,0.6,0.1,0.6,0.6c0,2,0,4,0,5.9c0,0.5-0.1,0.6-0.6,0.6c-2.5,0-5,0-7.5,0c-0.5,0-0.6,0.2-0.6,0.6
		c0,1.5,0,3,0,4.5c0,0.6,0.1,0.8,0.7,0.8c2.5,0,4.9,0,7.4,0c0.5,0,0.6,0.2,0.6,0.6c0,1.8,0,3.7,0,5.5c0,0.5-0.2,0.6-0.6,0.6
		c-5.5,0-11.1,0-16.6,0c-0.5,0-0.6-0.1-0.6-0.6C42.8,56.6,42.8,51.5,42.8,46.4z"/>
	<path class="st2" d="M89.9,55.6c3.4,0,6.7,0,10,0c0.6,0,0.7,0.2,0.7,0.7c0,1.9,0,3.7,0,5.6c0,0.4-0.1,0.6-0.6,0.6
		c-6.5,0-13.1,0-19.6,0c-0.4,0-0.6-0.1-0.6-0.6c0-1.9,0-3.9-0.1-5.8c0-0.4,0.1-0.7,0.3-1.1c3.5-5.7,7.1-11.4,10.6-17.1
		c0.1-0.2,0.2-0.3,0.3-0.6c-0.3,0-0.5,0-0.7,0c-2.6,0-5.2,0-7.8,0c-0.5,0-0.6-0.1-0.6-0.6c0-1.9,0-3.9,0-5.8c0-0.5,0.1-0.6,0.6-0.6
		c6,0,12,0,18,0c0.5,0,0.6,0.1,0.6,0.6c0,2,0,4,0,6.1c0,0.4-0.1,0.6-0.3,0.9c-3.5,5.7-7.1,11.3-10.6,17C90.1,55.2,90,55.3,89.9,55.6
		z"/>
	<path class="st2" d="M126.6,46.3c0-3.7,0.1-7.3,0-11c-0.1-2.5,1.7-4.8,4.7-4.8c4.2,0,8.4,0,12.5,0c0.4,0,0.4,0.2,0.4,0.5
		c0,2,0,4,0,6c0,0.4-0.1,0.5-0.5,0.5c-2.5,0-4.9,0-7.4,0c-0.5,0-0.7,0.1-0.7,0.6c0,5.7,0,11.3,0,17c0,0.5,0.1,0.6,0.6,0.6
		c2.4,0,4.9,0,7.3,0c0.5,0,0.7,0.2,0.7,0.7c0,1.8,0,3.7,0,5.5c0,0.5-0.1,0.6-0.6,0.6c-4.1,0-8.2,0-12.4,0c-2.8,0-4.7-1.9-4.7-4.6
		C126.7,53.9,126.7,50.1,126.6,46.3C126.7,46.3,126.6,46.3,126.6,46.3z"/>
	<path class="st2" d="M67,49.9c0-3.9,0-7.9,0-11.8c0-0.5-0.1-0.7-0.7-0.7c-1.2,0-2.3,0-3.5,0c-0.3,0-0.4-0.1-0.4-0.4
		c0-2,0-4.1,0-6.1c0-0.4,0.1-0.5,0.5-0.5c5.7,0,11.4,0,17.1,0c0.3,0,0.5,0.1,0.5,0.5c0,2,0,4.1,0,6.1c0,0.4-0.1,0.4-0.5,0.4
		c-1.2,0-2.3,0-3.5,0c-0.5,0-0.7,0.2-0.7,0.7c0,7.8,0,15.6,0,23.5c0,0.9,0.1,0.8-0.9,0.8c-2.5,0-4.9,0-7.4,0c-0.5,0-0.6-0.1-0.6-0.6
		C67,57.8,67,53.8,67,49.9z"/>
</g>
</svg>
