<?xml version="1.0" encoding="utf-8"?>
<!-- Generator: Adobe Illustrator 28.0.0, SVG Export Plug-In . SVG Version: 6.00 Build 0)  -->
<svg version="1.1" id="Capa_1" xmlns="http://www.w3.org/2000/svg" xmlns:xlink="http://www.w3.org/1999/xlink" x="0px" y="0px"
	 viewBox="0 0 303 133" style="enable-background:new 0 0 303 133;" xml:space="preserve">
<style type="text/css">
	.st0{fill:#FEFEFE;}
	.st1{fill:#124E8F;}
	.st2{fill:#6D6F71;}
	.st3{fill:#54A545;}
	.st4{fill:#FDFDFD;}
	.st5{fill:#F2F2F2;}
</style>
<g>
	<path class="st0" d="M148,117.8c-44.1,0-88.3,0-132.4,0c-0.5,0-0.6-0.1-0.6-0.6c0-35.8,0-71.7,0-107.5C15,9.1,15.1,9,15.6,9
		c88.2,0,176.5,0,264.7,0c0.6,0,0.7,0.1,0.7,0.7c0,35.8,0,71.7,0,107.5c0,0.5-0.1,0.6-0.6,0.6C236.3,117.8,192.1,117.8,148,117.8z"
		/>
	<path class="st1" d="M33.7,36.9c0-2.8,0-5.5,0-8.3c0-5,0-10,0-14.9c0-0.2-0.1-0.5,0.2-0.9c0.2,0.3,0.2,0.5,0.4,0.6
		c4.1,4.1,8.1,8.1,12.2,12.2c6.2,6.2,12.5,12.5,18.7,18.7c0.8,0.8,0.8,0.8,0,1.7C54.8,56.4,44.5,66.7,34.2,76.9
		c-0.1,0.1-0.2,0.3-0.4,0.5c-0.1,0-0.1-0.1-0.2-0.1c0-7.9,0-15.8,0-23.7c0,0,0.1,0,0.1,0c0.3,0.1,0.5,0.3,0.8,0.6
		c2.2,2.2,4.5,4.5,6.7,6.7c0.1,0.1,0.3,0.3,0.5,0.4c0-5.3,0-10.6,0-15.8c0-0.1,0-0.2,0-0.3c0-5.2,0-10.5,0-15.8
		c-0.3,0-0.4,0.3-0.5,0.4c-2.2,2.2-4.4,4.4-6.6,6.6c-0.2,0.2-0.4,0.5-0.8,0.6C33.7,36.9,33.7,36.9,33.7,36.9z"/>
	<path class="st1" d="M159.4,47.6c0-5.3,0-10.4,0-15.5c0-0.6,0.1-0.8,0.8-0.8c1.8,0.1,3.6,0,5.3,0c0.4,0,0.6,0.1,0.6,0.5
		c0,8.9,0,17.9,0,26.8c0,0.5-0.2,0.5-0.6,0.5c-1.6,0-3.2,0-4.8,0c-0.3,0-0.6-0.1-0.8-0.4c-4.9-5.2-9.8-10.5-14.7-15.7
		c0,0-0.1-0.1-0.2-0.1c-0.2,0.2-0.1,0.5-0.1,0.7c0,4.9,0,9.9,0,14.8c0,0.6-0.1,0.7-0.7,0.7c-1.8,0-3.6,0-5.4,0
		c-0.4,0-0.6-0.1-0.6-0.6c0-8.9,0-17.8,0-26.7c0-0.4,0.1-0.6,0.5-0.6c1.6,0,3.1,0,4.7,0c0.4,0,0.6,0.1,0.9,0.4
		c4.3,4.6,8.6,9.1,12.9,13.7C157.9,46.1,158.6,46.8,159.4,47.6z"/>
	<path class="st1" d="M271.8,59.1c-2.5,0-4.9,0-7.2,0c-0.4,0-0.5-0.2-0.7-0.5c-1.4-2.4-2.8-4.7-4.2-7.1c-0.3-0.4-0.5-0.6-1-0.6
		c-1.8,0-3.6,0-5.3,0c-0.6,0-0.7,0.2-0.7,0.7c0,2.3,0,4.5,0,6.8c0,0.5-0.1,0.6-0.6,0.6c-1.8,0-3.7,0-5.5,0c-0.4,0-0.5-0.1-0.5-0.5
		c0-9,0-17.9,0-26.9c0-0.4,0.1-0.5,0.5-0.5c5.1,0,10.2-0.1,15.3,0.1c3.3,0.1,6.3,1.1,8.3,3.9c3.4,4.5,2.6,11.2-3.4,14.4
		c-0.7,0.4-0.7,0.4-0.3,1.1c1.6,2.6,3.3,5.2,4.9,7.8C271.5,58.6,271.6,58.8,271.8,59.1z"/>
	<path class="st1" d="M108.7,45.2c0-4.4,0-8.8,0-13.2c0-0.5,0.1-0.7,0.6-0.6c7.5,0,14.9,0,22.4,0c0.5,0,0.6,0.1,0.6,0.6
		c0,1.5,0,3,0,4.6c0,0.5-0.1,0.6-0.6,0.6c-5.2,0-10.4,0-15.7,0c-0.6,0-0.7,0.2-0.7,0.8c0,1.3,0,2.7,0,4c0,0.4,0.1,0.5,0.5,0.5
		c3.3,0,6.6,0,9.9,0c0.6,0,0.7,0.1,0.7,0.7c0,1.5,0,2.9,0,4.4c0,0.6-0.2,0.7-0.7,0.7c-3.3,0-6.6,0-9.9,0c-0.5,0-0.7,0.1-0.6,0.6
		c0,1.4,0.1,2.7,0,4.1c0,0.6,0.2,0.7,0.7,0.7c5.2,0,10.4,0,15.5,0c0.6,0,0.8,0.2,0.7,0.8c0,1.5,0,3,0,4.5c0,0.4-0.1,0.5-0.5,0.5
		c-7.5,0-15.1,0-22.6,0c-0.5,0-0.5-0.2-0.5-0.6C108.7,54.1,108.7,49.6,108.7,45.2z"/>
	<path class="st1" d="M77.8,45.1c0-4.4,0-8.9,0-13.3c0-0.4,0-0.6,0.5-0.6c5,0,10.1,0,15.1,0.1c3,0.1,5.9,0.9,8,3.3
		c4.6,5.1,2.7,14.2-5.1,16C95,50.9,93.8,51,92.6,51c-2.5,0-5,0-7.6,0c-0.5,0-0.6,0.1-0.6,0.6c0,2.3,0,4.6,0,7c0,0.5-0.1,0.6-0.6,0.6
		c-1.8,0-3.7,0-5.5,0c-0.5,0-0.6-0.1-0.6-0.6C77.8,54.1,77.8,49.6,77.8,45.1z"/>
	<path class="st1" d="M223.9,59.1c-1,0-2,0-3,0c-0.5,0-0.7-0.2-0.8-0.6c-0.3-1-0.7-2-1.1-3c-0.1-0.4-0.4-0.5-0.7-0.5
		c-4.3,0-8.6,0-12.9,0c-0.4,0-0.5,0.1-0.7,0.4c-0.4,1.1-0.9,2.1-1.3,3.2c-0.1,0.3-0.3,0.4-0.7,0.4c-2,0-4,0-5.9,0
		c-0.5,0-0.6-0.1-0.4-0.6c3.5-7.5,7-15,10.5-22.5c0.7-1.4,1.3-2.9,2-4.3c0.1-0.3,0.3-0.4,0.7-0.4c1.6,0,3.2,0,4.8,0
		c0.3,0,0.5,0.1,0.6,0.4c4.1,9,8.2,18,12.3,27c0.2,0.4,0.1,0.5-0.3,0.5C226,59.1,224.9,59.1,223.9,59.1z"/>
	<path class="st1" d="M200.5,31.3c-0.9,1.9-1.7,3.7-2.5,5.5c-0.2,0.4-0.4,0.3-0.7,0.3c-2.8,0-5.7,0-8.5,0c-0.5,0-0.6,0.1-0.6,0.6
		c0,6.9,0,13.8,0,20.7c0,0.6-0.1,0.8-0.7,0.8c-1.7-0.1-3.5,0-5.2,0c-0.6,0-0.7-0.1-0.7-0.7c0-6.8,0-13.6,0-20.5c0-0.9,0-0.9-0.9-0.9
		c-3.1,0-6.3,0-9.4,0c-0.5,0-0.7-0.1-0.6-0.6c0-1.5,0-3,0-4.4c0-0.6,0.1-0.7,0.7-0.7c9,0,18.1,0,27.1,0
		C199.1,31.3,199.7,31.3,200.5,31.3z"/>
	<path class="st1" d="M238.7,45.2c0,4.4,0,8.8,0,13.2c0,0.5-0.1,0.7-0.7,0.7c-1.8,0-3.6,0-5.4,0c-0.5,0-0.6-0.1-0.6-0.6
		c0-8.9,0-17.8,0-26.7c0-0.4,0.1-0.6,0.5-0.5c1.8,0,3.7,0,5.5,0c0.5,0,0.6,0.1,0.6,0.6C238.7,36.4,238.7,40.8,238.7,45.2z"/>
	<path class="st2" d="M99.2,105.9c1.1,0.6,1.9,1.4,2.2,2.6c0.8,3.4-0.8,6.5-5,6.7c-2.5,0.1-5.1,0-7.6,0c-0.4,0-0.5-0.2-0.5-0.5
		c0-5.8,0-11.5,0-17.3c0-0.4,0.1-0.5,0.5-0.5c2.6,0,5.2-0.1,7.8,0.1c3.3,0.2,5.5,3.2,4.6,6.3C100.9,104.3,100.5,104.7,99.2,105.9z"
		/>
	<path class="st2" d="M181.4,104.3c0,0.2,0,0.4,0,0.7c0,3.2,0,6.5,0,9.7c0,0.5-0.2,0.7-0.7,0.6c-0.8,0-1.7,0-2.5,0
		c-0.4,0-0.5-0.1-0.5-0.5c0-5.8,0-11.6,0-17.3c0-0.4,0.1-0.6,0.5-0.5c0,0,0,0,0.1,0c0.9,0,1.8-0.2,2.6,0.1c0.7,0.3,1,1.3,1.4,2
		c1.8,2.7,3.5,5.5,5.3,8.2c0.1,0.2,0.3,0.4,0.4,0.6c0.2-0.2,0.1-0.4,0.1-0.6c0-3.2,0-6.5,0-9.7c0-0.5,0.1-0.7,0.6-0.7
		c0.7,0,1.5,0,2.2,0c0.6,0,0.8,0.1,0.8,0.7c0,5.5,0,10.9,0,16.4c0,1.2,0,1.1-1.2,1.3c-1.5,0.2-2.4-0.4-3.1-1.7
		c-1.8-3-3.8-5.9-5.7-8.8C181.8,104.6,181.7,104.4,181.4,104.3z"/>
	<path class="st2" d="M131.8,107.9c0-0.3,0-0.6,0-0.9c0-3.1,0-6.3,0-9.4c0-0.5,0.1-0.7,0.6-0.7c0.8,0,1.5,0,2.3,0
		c0.5,0,0.7,0.1,0.7,0.6c0,2.5,0,5,0,7.5c0,3.2,0,6.4,0,9.6c0,0.5-0.1,0.6-0.6,0.6c-0.7,0-1.3,0-2,0c-0.5,0-0.7-0.2-0.9-0.5
		c-2.1-3.3-4.3-6.6-6.4-10c-0.1-0.2-0.2-0.3-0.5-0.7c0,0.4,0,0.6,0,0.8c0,3.2,0,6.5,0,9.7c0,0.6-0.2,0.7-0.7,0.7c-0.8,0-1.6,0-2.3,0
		c-0.4,0-0.6-0.1-0.6-0.5c0-1.5,0-3.1,0-4.6c0-4.2,0-8.3,0-12.5c0-0.5,0.1-0.7,0.7-0.7c0.8,0.1,1.8-0.2,2.5,0.1c0.6,0.3,1,1.3,1.4,2
		c1.8,2.7,3.6,5.5,5.3,8.3c0.1,0.2,0.3,0.4,0.4,0.6C131.7,107.9,131.8,107.9,131.8,107.9z"/>
	<path class="st2" d="M85.3,115.3c-1.3,0-2.5,0-3.8,0c-0.4,0-0.4-0.2-0.5-0.5c-1-2.1-2.1-4.2-3.1-6.3c-0.2-0.4-0.4-0.6-0.9-0.5
		c-0.6,0.1-1.4-0.3-1.8,0.1c-0.4,0.4-0.1,1.2-0.1,1.8c0,1.6,0,3.1,0,4.7c0,0.6-0.2,0.8-0.8,0.7c-0.7,0-1.5,0-2.2,0
		c-0.5,0-0.6-0.1-0.6-0.6c0-5.7,0-11.3,0-17c0-0.1,0-0.2,0-0.3c0-0.3,0.1-0.4,0.4-0.4c2.6,0,5.1,0,7.7,0.1c2.2,0.1,4.2,1.7,4.7,3.8
		c0.6,2.1,0.3,4.1-1.4,5.6c-0.3,0.3-0.7,0.6-1.1,0.7c-0.5,0.2-0.4,0.4-0.2,0.7c1.1,2.2,2.3,4.4,3.4,6.6
		C85.1,114.7,85.3,114.9,85.3,115.3z"/>
	<path class="st2" d="M230.5,106.1c0,2.8,0,5.7,0,8.5c0,0.5-0.2,0.7-0.7,0.6c-0.8,0-1.6,0-2.3,0c-0.5,0-0.7-0.1-0.7-0.6
		c0-2.1,0-4.3,0-6.4c0-0.5-0.1-0.6-0.6-0.6c-1.7,0-3.3,0-5,0c-0.5,0-0.6,0.2-0.6,0.6c0,2.1,0,4.3,0,6.4c0,0.5-0.1,0.6-0.6,0.6
		c-0.8,0-1.7,0-2.5,0c-0.4,0-0.6-0.1-0.5-0.5c0-1.8,0-3.6,0-5.4c0-3.9,0-7.8,0-11.7c0-0.6,0.2-0.8,0.7-0.7c0.8,0,1.5,0,2.3,0
		c0.5,0,0.6,0.1,0.6,0.6c0,2.1,0,4.2,0,6.3c0,0.5,0.1,0.6,0.6,0.6c1.7,0,3.3,0,5,0c0.5,0,0.6-0.2,0.6-0.6c0-2.1,0-4.2,0-6.3
		c0-0.5,0.1-0.6,0.6-0.6c0.8,0,1.6,0,2.4,0c0.5,0,0.6,0.1,0.6,0.6C230.4,100.4,230.5,103.3,230.5,106.1z"/>
	<path class="st2" d="M143.2,104.9c1.9-2.3,3.7-4.4,5.3-6.6c0.8-1,1.5-1.5,2.8-1.3c0.8,0.1,1.7,0,2.7,0c-0.8,1-1.5,1.8-2.2,2.7
		c-1.2,1.4-2.3,2.8-3.5,4.1c-0.3,0.4-0.3,0.6-0.1,1c2,3.3,3.9,6.6,5.9,9.9c0.1,0.2,0.2,0.3,0.3,0.6c-1.4,0-2.6,0-3.9,0
		c-0.4,0-0.4-0.3-0.5-0.5c-1.4-2.4-2.7-4.8-4.1-7.3c-0.3-0.5-0.4-0.6-0.8-0.1c-0.2,0.3-0.4,0.5-0.6,0.7c-1.1,1-1.5,2.2-1.3,3.7
		c0.1,1,0,2,0,2.9c0,0.4-0.1,0.5-0.5,0.5c-0.9,0-1.7,0-2.6,0c-0.4,0-0.5-0.1-0.5-0.5c0-5.8,0-11.6,0-17.3c0-0.4,0.1-0.5,0.5-0.5
		c0.8,0,1.7,0,2.5,0c0.5,0,0.6,0.1,0.6,0.6c0,2.2,0,4.3,0,6.5C143.2,104.3,143.2,104.5,143.2,104.9z"/>
	<path class="st2" d="M247.9,103.6c0,1.8,0,3.6,0,5.4c0,3.5-2.5,6.2-6,6.4c-2.6,0.2-4.8-0.5-6.3-2.7c-0.7-1-1.1-2.2-1.1-3.5
		c0-3.9,0-7.7,0-11.6c0-0.5,0.1-0.7,0.6-0.7c0.8,0,1.5,0,2.3,0c0.6,0,0.7,0.2,0.7,0.7c0,3.6,0,7.1,0,10.7c0,0.3,0,0.7,0.1,1
		c0.2,1.8,1.4,2.9,3.1,2.9c1.8,0,3-1.2,3.1-3c0.1-0.9,0-1.8,0-2.7c0-3,0-6,0-9c0-0.4,0.1-0.6,0.6-0.6c0.8,0,1.6,0,2.4,0
		c0.5,0,0.6,0.1,0.6,0.6C247.8,99.6,247.9,101.6,247.9,103.6z"/>
	<path class="st2" d="M45.2,115.3c0.5-1.3,0.9-2.5,1.3-3.7c1.7-4.7,3.4-9.4,5.1-14.1c0.1-0.4,0.3-0.6,0.7-0.5c0.6,0,1.2,0,1.8,0
		c0.4,0,0.6,0.1,0.7,0.5c1.9,5.2,3.8,10.5,5.7,15.7c0.2,0.5,0.4,1.1,0.6,1.6c0.1,0.3,0.1,0.5-0.3,0.5c-1,0-2,0-2.9,0
		c-0.3,0-0.4-0.1-0.5-0.4c-0.2-0.8-0.5-1.6-0.8-2.3c-0.1-0.3-0.2-0.5-0.6-0.5c-1.8,0-3.7,0-5.5,0c-0.4,0-0.5,0.1-0.6,0.5
		c-0.2,0.8-0.5,1.6-0.8,2.4c-0.1,0.2-0.1,0.4-0.4,0.4C47.6,115.3,46.5,115.3,45.2,115.3z"/>
	<path class="st2" d="M119,115.3c-1.1,0-2.3,0-3.4,0c-0.3,0-0.4-0.2-0.4-0.4c-0.3-0.8-0.5-1.6-0.8-2.4c-0.1-0.3-0.3-0.5-0.6-0.5
		c-1.8,0-3.7,0-5.5,0c-0.4,0-0.6,0.1-0.7,0.5c-0.2,0.7-0.5,1.4-0.7,2.2c-0.1,0.4-0.3,0.6-0.8,0.6c-0.8-0.1-1.7,0-2.5,0
		c-0.6,0-0.7-0.1-0.5-0.6c1.2-3.1,2.3-6.3,3.4-9.4c0.9-2.5,1.9-5.1,2.8-7.6c0.2-0.5,0.4-0.7,0.9-0.6c0.7,0.1,1.6-0.3,2.2,0.1
		c0.5,0.4,0.6,1.3,0.8,1.9c1.9,5.1,3.8,10.3,5.6,15.4C118.9,114.7,119.1,115,119,115.3z"/>
	<path class="st2" d="M264.7,115.4c-2.5,0-4.5-0.5-6.3-2c-0.4-0.3-0.5-0.5-0.1-0.9c0.6-0.5,1.1-1,1.6-1.6c0.3-0.3,0.4-0.3,0.7,0
		c1.7,1.3,3.6,1.5,5.6,1c1.3-0.3,1.8-1.3,1.6-2.5c-0.1-0.8-0.6-1.3-1.4-1.5c-1-0.2-2.1-0.4-3.1-0.5c-0.6-0.1-1.2-0.2-1.8-0.5
		c-2-0.8-3-2.5-2.9-4.8c0.1-2.6,1.5-4.4,4-5.1c2.8-0.7,5.5-0.5,7.8,1.4c0.4,0.3,0.4,0.5,0,0.9c-0.6,0.5-1.1,1-1.6,1.5
		c-0.2,0.2-0.3,0.2-0.6,0c-1.3-1-2.8-1.1-4.3-0.9c-0.3,0-0.6,0.2-0.9,0.4c-0.7,0.5-1.1,1.2-1,2.1c0.1,0.9,0.6,1.4,1.4,1.6
		c1,0.3,2.1,0.4,3.1,0.5c2.5,0.3,4.1,1.6,4.5,3.6c0.8,3.6-1.1,6.5-4.9,7.1C265.8,115.4,265.2,115.4,264.7,115.4z"/>
	<path class="st2" d="M162.4,115.4c-3.1,0-5.2-0.5-7-2c-0.4-0.3-0.4-0.5,0-0.8c0.6-0.5,1.1-1.1,1.6-1.6c0.3-0.3,0.4-0.2,0.7,0
		c1.7,1.3,3.7,1.5,5.7,1c1.3-0.3,1.8-1.4,1.5-2.6c-0.2-0.7-0.6-1.2-1.4-1.4c-1-0.2-2.1-0.4-3.1-0.5c-2.9-0.4-4.5-2-4.6-4.7
		c-0.1-2.9,1.5-5.1,4.2-5.7c2.7-0.6,5.4-0.4,7.7,1.5c0.3,0.3,0.4,0.5,0.1,0.8c-0.6,0.5-1.1,1-1.6,1.6c-0.2,0.2-0.3,0.3-0.6,0
		c-1.3-1-2.8-1.2-4.3-0.9c-1.4,0.2-2.2,1.5-1.9,2.8c0.3,0.9,1,1.2,1.9,1.4c1,0.2,2.1,0.3,3.1,0.5c2.4,0.5,3.8,1.8,4.1,4
		c0.4,2.6-0.6,4.7-2.7,5.8C164.5,115.2,163.3,115.4,162.4,115.4z"/>
	<path class="st2" d="M33.7,106.1c0-2.8,0-5.7,0-8.5c0-0.5,0.1-0.6,0.6-0.6c3.6,0,7.2,0,10.8,0c0.5,0,0.7,0.1,0.6,0.6
		c0,0.6,0,1.3,0,2c0,0.5-0.1,0.7-0.7,0.7c-2.4,0-4.7,0-7.1,0c-0.5,0-0.7,0.1-0.7,0.6c0,1.1,0,2.2,0,3.3c0,0.5,0.1,0.6,0.6,0.6
		c2,0,4,0,6,0c0.5,0,0.7,0.1,0.6,0.6c0,0.7,0,1.3,0,2c0,0.5-0.2,0.6-0.6,0.6c-2,0-3.9,0-5.9,0c-0.6,0-0.7,0.2-0.7,0.8c0,2,0,4,0,6
		c0,0.6-0.2,0.7-0.7,0.7c-0.8,0-1.6,0-2.3,0c-0.5,0-0.6-0.1-0.6-0.6C33.7,111.8,33.7,109,33.7,106.1z"/>
	<path class="st2" d="M213.1,104c0,1.8,0.1,3.9-0.1,6.1c-0.3,3.1-2.7,5.2-5.7,5.4c-1.9,0.1-3.6-0.2-5-1.5c-0.3-0.3-0.3-0.4,0-0.7
		c0.6-0.5,1.2-1.1,1.7-1.7c0.3-0.3,0.4-0.3,0.7,0c0.6,0.6,1.3,0.7,2.1,0.7c1.8-0.1,2.8-1.1,2.8-3.1c0-3.5,0-7.1,0-10.6
		c0-1.6,0-1.6,1.5-1.5c0.7,0,1.5-0.3,1.9,0.1c0.4,0.4,0.1,1.2,0.1,1.9C213.1,100.5,213.1,102,213.1,104z"/>
	<path class="st3" d="M25.3,45.1c0-2.2,0-4.3,0-6.5c0-3.3,0-6.5,0-9.9c2.8,2.8,5.6,5.5,8.3,8.3c0,0,0,0,0,0c0,0,0,0.1,0.1,0.1
		c0,0,0,0.1,0,0.1c-0.1,0.3-0.4,0.4-0.6,0.6c-2.3,2.3-4.7,4.7-7,7c-0.3,0.3-0.6,0.5-0.5,1c0,5.1,0,10.2,0,15.3c0,0.2,0,0.4-0.1,0.6
		c-0.1,0.1-0.2,0.2-0.2,0.1c-0.1-0.2,0-0.4,0-0.6c0-5,0-9.9,0-14.9c0-0.2,0.1-0.5-0.1-0.7C25.1,45.3,25.2,45.2,25.3,45.1z"/>
	<path class="st3" d="M25.3,45.1c0,0.1-0.1,0.2-0.1,0.3c-2.3,2.3-4.7,4.7-7,7.1c-0.3,0.3-0.6,0.7-1,1.1c0-5.6,0-11,0-16.5
		C19.9,39.7,22.6,42.4,25.3,45.1z"/>
	<path class="st3" d="M25.6,61.6c-0.2-0.1-0.1-0.3-0.1-0.5c0-5.2,0-10.5,0-15.7c0.4,0,0.5,0.3,0.7,0.5c2.3,2.2,4.5,4.5,6.8,6.8
		c0.2,0.2,0.4,0.4,0.7,0.6c0.1,0,0.1,0.1,0.1,0.1c0.1,0.1,0,0.2-0.1,0.3c0,0,0,0,0,0c-1,1-2,2-3.1,3C28.9,58.3,27.3,59.9,25.6,61.6z
		"/>
	<path class="st2" d="M199.7,106.2c0,2.8,0,5.7,0,8.5c0,0.5-0.1,0.6-0.6,0.6c-0.8,0-1.7,0-2.5,0c-0.4,0-0.6-0.1-0.6-0.5
		c0-1.4,0-2.8,0-4.2c0-4.3,0-8.6,0-12.9c0-0.5,0.1-0.7,0.7-0.7c0.8,0,1.6,0,2.3,0c0.5,0,0.6,0.2,0.6,0.6
		C199.7,100.4,199.7,103.3,199.7,106.2z"/>
	<path class="st2" d="M255.4,106.2c0,2.8,0,5.7,0,8.5c0,0.5-0.1,0.6-0.6,0.6c-0.8,0-1.7,0-2.5,0c-0.4,0-0.6-0.1-0.6-0.5
		c0-1.2,0-2.4,0-3.6c0-4.5,0-9,0-13.5c0-0.5,0.1-0.7,0.7-0.7c0.8,0,1.6,0,2.3,0c0.5,0,0.6,0.1,0.6,0.6
		C255.4,100.4,255.4,103.3,255.4,106.2z"/>
	<path class="st2" d="M67.2,106.2c0,2.8,0,5.7,0,8.5c0,0.5-0.1,0.6-0.6,0.6c-0.8,0-1.6,0-2.4,0c-0.4,0-0.6-0.1-0.6-0.6
		c0-5.7,0-11.5,0-17.2c0-0.4,0.1-0.6,0.5-0.6c0.8,0,1.6,0,2.4,0c0.6,0,0.6,0.2,0.6,0.7C67.2,100.5,67.2,103.3,67.2,106.2z"/>
	<path class="st2" d="M276.1,94.9c1.7,0,3,1.3,3,3c0,1.6-1.3,2.9-3,2.9c-1.7,0-3-1.3-3-2.9C273,96.2,274.4,94.9,276.1,94.9z"/>
	<path class="st3" d="M33.8,53.3c0,0-0.1,0-0.1,0c-0.2-0.3-0.2-0.6-0.2-0.9c0-4.8,0-9.7,0-14.5c0-0.3,0-0.7,0.2-0.9l0,0
		c0.3-0.1,0.4,0.1,0.6,0.3c2.4,2.4,4.8,4.8,7.2,7.2c0.2,0.2,0.3,0.4,0.4,0.6c0,0.1,0,0.2,0,0.3c-0.1,0.3-0.3,0.5-0.5,0.7
		c-2.3,2.3-4.6,4.6-6.9,6.9C34.3,53.1,34.2,53.4,33.8,53.3z"/>
	<path class="st0" d="M33.8,53.3c2.2-2.2,4.5-4.4,6.7-6.7c0.4-0.4,0.9-0.9,1.4-1.3c0,5.4,0,10.8,0,16.2c-0.1,0.1-0.1,0.1-0.2,0.2
		c-0.1-0.2-0.2-0.4-0.3-0.5c-2.4-2.4-4.8-4.8-7.2-7.2c-0.2-0.2-0.3-0.3-0.5-0.4C33.7,53.5,33.8,53.4,33.8,53.3z"/>
	<path class="st0" d="M41.9,45.1c-2.5-2.5-5.1-5.1-7.6-7.6c-0.2-0.2-0.3-0.4-0.6-0.5c0,0,0-0.1,0-0.1c0.6-0.6,1.2-1.1,1.8-1.7
		c2-2,4-4,6-6c0.1-0.1,0.2-0.3,0.4-0.3C41.9,34.3,41.9,39.7,41.9,45.1z"/>
	<path class="st0" d="M50.2,37.2c0,5.4,0,10.8,0,16.1c-0.2,0.1-0.3-0.1-0.4-0.2c-2.5-2.5-4.9-4.9-7.4-7.4c-0.2-0.2-0.5-0.4-0.1-0.7
		c2.6-2.5,5.1-5.1,7.7-7.6C50,37.3,50,37.2,50.2,37.2z"/>
	<path class="st0" d="M257.6,36.9c1.3,0.1,2.8-0.1,4.4,0.1c2.3,0.3,3.4,2.1,3.4,4.2c-0.1,2.3-1.9,4.1-4,4.2c-2.8,0-5.5,0-8.3,0
		c-0.4,0-0.4-0.1-0.4-0.4c0-2.5,0-5.1,0-7.6c0-0.4,0.2-0.4,0.5-0.4C254.5,36.9,255.9,36.9,257.6,36.9z"/>
	<path class="st0" d="M89.1,36.9c1.3,0,2.6,0,3.9,0c2.6,0.1,4.1,1.6,4.2,4.1c0.1,2.4-1.4,4.2-3.9,4.3c-2.8,0.1-5.7,0-8.5,0.1
		c-0.3,0-0.3-0.1-0.3-0.3c0-2.6,0-5.2,0-7.8c0-0.4,0.2-0.3,0.5-0.3C86.3,36.9,87.7,36.9,89.1,36.9C89.1,36.9,89.1,36.9,89.1,36.9z"
		/>
	<path class="st0" d="M216.5,49.8c-3.1,0-6.2,0-9.2,0c-0.1-0.2,0-0.3,0.1-0.5c1.4-3.2,2.7-6.4,4.1-9.6c0.1-0.2,0.1-0.4,0.3-0.5
		c0.3,0,0.3,0.3,0.3,0.4c1.4,3.3,2.8,6.5,4.2,9.8C216.4,49.6,216.4,49.7,216.5,49.8z"/>
	<path class="st0" d="M94.1,112c-0.6,0-1.2,0-1.8,0c-0.3,0-0.5-0.1-0.4-0.4c0-1.2,0-2.4,0-3.6c0-0.4,0.1-0.4,0.5-0.4
		c1.1,0,2.3,0,3.4,0c1.4,0.1,2.3,0.9,2.3,2.3c0,1.3-0.9,2.2-2.3,2.2C95.1,112.1,94.6,112,94.1,112z"/>
	<path class="st0" d="M94,104.3c-0.6,0-1.1,0-1.7,0c-0.3,0-0.4-0.1-0.4-0.4c0-1.1,0-2.2,0-3.3c0-0.3,0.1-0.5,0.4-0.5
		c1.1,0,2.2,0,3.3,0c1.3,0.1,2.2,0.9,2.1,2.1c0,1.2-0.9,2-2.2,2C95,104.4,94.5,104.3,94,104.3z"/>
	<path class="st0" d="M75.1,102.6c0-0.7,0-1.3,0-2c0-0.3,0.1-0.5,0.5-0.4c1,0,2,0,3.1,0c1.4,0.1,2.4,1.1,2.4,2.4
		c0,1.3-1,2.3-2.4,2.4c-1,0-2.1,0-3.1,0c-0.4,0-0.4-0.2-0.4-0.5C75.1,103.9,75.1,103.2,75.1,102.6z"/>
	<path class="st0" d="M53.4,102.4c0.8,2.3,1.5,4.4,2.2,6.6c-1.4,0-2.8,0-4.1,0c-0.2,0-0.4,0-0.3-0.3C52,106.7,52.7,104.6,53.4,102.4
		z"/>
	<path class="st0" d="M113.3,109c-1.5,0-3,0-4.5,0c0.8-2.2,1.5-4.3,2.3-6.5C111.9,104.7,112.6,106.8,113.3,109z"/>
	<path class="st0" d="M33.7,37c0,2.4,0,4.9,0,7.3c0,3,0,6,0,9c-0.3,0-0.4-0.2-0.6-0.4c-2.4-2.4-4.7-4.7-7.1-7.1
		c-0.2-0.2-0.4-0.3-0.5-0.5c0-0.2,0.1-0.3,0.2-0.4c2.6-2.6,5.1-5.1,7.7-7.7C33.5,37.2,33.6,37.1,33.7,37z"/>
	<path class="st4" d="M276,100c-1.3,0-2.2-0.9-2.2-2.2c0-1.3,1-2.3,2.3-2.2c1.3,0,2.2,1,2.2,2.2C278.3,99.1,277.3,100.1,276,100z"/>
	<path class="st2" d="M275,97.8c0-0.1,0-0.3,0-0.4c0-0.4-0.2-1,0.1-1.1c0.5-0.2,1.1-0.2,1.7,0c0.6,0.2,0.8,0.9,0.4,1.3
		c-0.4,0.4-0.2,0.7-0.1,1.1c0.1,0.2,0.4,0.4,0.1,0.6c-0.3,0.1-0.6,0.1-0.8-0.3c-0.1-0.2-0.2-0.5-0.3-0.7c-0.1-0.1-0.1-0.2-0.3-0.1
		c-0.1,0-0.1,0.1-0.1,0.3c0,0.2,0,0.4,0,0.7c0,0.2-0.2,0.3-0.3,0.3c-0.2,0-0.3,0-0.3-0.3C275,98.7,275,98.3,275,97.8
		C275,97.8,275,97.8,275,97.8z"/>
	<path class="st5" d="M276.6,97.3c0,0.3-0.3,0.4-0.6,0.4c-0.3,0-0.4-0.1-0.4-0.4c0-0.3,0.1-0.4,0.4-0.4
		C276.3,96.9,276.5,97,276.6,97.3z"/>
</g>
</svg>
