<?xml version="1.0" encoding="utf-8"?>
<!-- Generator: Adobe Illustrator 28.0.0, SVG Export Plug-In . SVG Version: 6.00 Build 0)  -->
<svg version="1.1" id="Capa_1" xmlns="http://www.w3.org/2000/svg" xmlns:xlink="http://www.w3.org/1999/xlink" x="0px" y="0px"
	 viewBox="0 0 185 92" style="enable-background:new 0 0 185 92;" xml:space="preserve">
<style type="text/css">
	.st0{fill:#FDFDFD;}
	.st1{fill:#0A5FA2;}
	.st2{fill:#0A4573;}
	.st3{fill:#D4D2D2;}
	.st4{fill:#6DA1C8;}
	.st5{fill:#0F62A4;}
	.st6{fill:#6B757A;}
	.st7{fill:#3B6AAC;}
	.st8{fill:#697478;}
	.st9{fill:#C4CED7;}
	.st10{fill:#6CA1C8;}
	.st11{fill:#6A7479;}
	.st12{fill:#717A7F;}
	.st13{fill:#4270B0;}
	.st14{fill:#BFCDD8;}
	.st15{fill:#6F787D;}
	.st16{fill:#AEC9DD;}
	.st17{fill:#3D6CAD;}
	.st18{fill:#4672B2;}
	.st19{fill:#4874B3;}
	.st20{fill:#3F6DAF;}
	.st21{fill:#70797E;}
	.st22{fill:#747C81;}
	.st23{fill:#D3D2D3;}
	.st24{fill:#6DA2C8;}
	.st25{fill:#426FB0;}
	.st26{fill:#4370B0;}
	.st27{fill:#5F87C0;}
	.st28{fill:#A5C6DF;}
	.st29{fill:#C6CFD6;}
	.st30{fill:#0A5FA3;}
	.st31{fill:#A6C7DF;}
	.st32{fill:#D1D1D3;}
	.st33{fill:#3E6CAE;}
	.st34{fill:#778085;}
	.st35{fill:#7093AF;}
	.st36{fill:#6C767A;}
	.st37{fill:#7091AC;}
	.st38{fill:#0B60A3;}
	.st39{fill:#3C6BAD;}
	.st40{fill:#0B4673;}
	.st41{fill:#0B5FA3;}
	.st42{fill:#3B6AAD;}
	.st43{fill:#6F93B0;}
	.st44{fill:#6D777C;}
	.st45{fill:#A3C5DD;}
	.st46{fill:#9BBFDA;}
	.st47{fill:#A7C8DF;}
	.st48{fill:#D3D2D2;}
	.st49{fill:#3F6DAE;}
	.st50{fill:#D1D1D1;}
	.st51{fill:#A3C5DE;}
	.st52{fill:#0D61A4;}
	.st53{fill:#4773B2;}
	.st54{fill:#4572B1;}
	.st55{fill:#A4C6DE;}
	.st56{fill:#D1D0D1;}
	.st57{fill:#DAE3E8;}
	.st58{fill:#D5DCE1;}
	.st59{fill:#1464A3;}
	.st60{fill:#FEFEFE;}
	.st61{fill:#CCD1D5;}
	.st62{fill:#80878C;}
	.st63{fill:#F3F7FA;}
	.st64{fill:#0D5C9B;}
	.st65{fill:#A5C6DE;}
	.st66{fill:#0A60A3;}
	.st67{fill:#7F868C;}
	.st68{fill:#547CB9;}
	.st69{fill:#7F868B;}
	.st70{fill:#759BCD;}
	.st71{fill:#577FBB;}
	.st72{fill:#4773B3;}
	.st73{fill:#7E858A;}
	.st74{fill:#767E83;}
	.st75{fill:#727B80;}
	.st76{fill:#82888E;}
	.st77{fill:#8C9298;}
	.st78{fill:#557DB9;}
	.st79{fill:#0B4674;}
	.st80{fill:#668DC4;}
	.st81{fill:#0B4573;}
	.st82{fill:#CAD9EF;}
	.st83{fill:#1163A4;}
	.st84{fill:#4572B2;}
	.st85{fill:#A4A8AD;}
	.st86{fill:#858C91;}
	.st87{fill:#0B5FA2;}
	.st88{fill:#6189C1;}
	.st89{fill:#90959B;}
	.st90{fill:#798086;}
	.st91{fill:#798085;}
	.st92{fill:#8A9096;}
	.st93{fill:#628AC2;}
	.st94{fill:#788085;}
	.st95{fill:#557DBA;}
	.st96{fill:#E1E9F6;}
	.st97{fill:#93B7E0;}
	.st98{fill:#537BB8;}
	.st99{fill:#8A9095;}
	.st100{fill:#5E85BF;}
	.st101{fill:#A3A6AB;}
	.st102{fill:#9EA2A7;}
	.st103{fill:#648CC3;}
	.st104{fill:#C9D8EF;}
	.st105{fill:#E8E7E8;}
	.st106{fill:#9CA0A6;}
	.st107{fill:#8CB3DE;}
	.st108{fill:#A0A4A9;}
	.st109{fill:#5E85BE;}
	.st110{fill:#80868C;}
	.st111{fill:#858B91;}
	.st112{fill:#A1A5AA;}
	.st113{fill:#6B92C7;}
	.st114{fill:#B1B3B8;}
	.st115{fill:#80878D;}
	.st116{fill:#688FC5;}
	.st117{fill:#5F86BF;}
	.st118{fill:#979BA1;}
	.st119{fill:#8B9197;}
	.st120{fill:#78A1D2;}
	.st121{fill:#CBCBCF;}
	.st122{fill:#B4B6BB;}
	.st123{fill:#759DCF;}
	.st124{fill:#E7EDF8;}
	.st125{fill:#6087BF;}
	.st126{fill:#BBBDC1;}
	.st127{fill:#B0C9E8;}
	.st128{fill:#C6C7CA;}
	.st129{fill:#6990C6;}
	.st130{fill:#83898F;}
	.st131{fill:#E6E5E6;}
	.st132{fill:#8AB0DC;}
	.st133{fill:#DCDCDE;}
	.st134{fill:#989CA2;}
	.st135{fill:#7097CB;}
	.st136{fill:#6991C6;}
	.st137{fill:#9A9EA4;}
	.st138{fill:#A1C0E5;}
	.st139{fill:#E5E4E6;}
	.st140{fill:#C9C9CD;}
	.st141{fill:#87AEDC;}
	.st142{fill:#E0E0E1;}
	.st143{fill:#D5E1F2;}
	.st144{fill:#D6D7D9;}
	.st145{fill:#749CCE;}
	.st146{fill:#92979D;}
	.st147{fill:#9CA0A5;}
	.st148{fill:#92B7E1;}
	.st149{fill:#EEEDEE;}
	.st150{fill:#B5B7BC;}
	.st151{fill:#7AA2D3;}
	.st152{fill:#A7AAAF;}
	.st153{fill:#B4CBE9;}
	.st154{fill:#7299CD;}
	.st155{fill:#7CA5D5;}
	.st156{fill:#BACFEB;}
	.st157{fill:#DADBDC;}
	.st158{fill:#86AFDC;}
	.st159{fill:#7EA7D6;}
	.st160{fill:#B5B8BC;}
	.st161{fill:#E3EAF6;}
	.st162{fill:#7DA6D5;}
	.st163{fill:#82ACDA;}
	.st164{fill:#A4A7AC;}
	.st165{fill:#C7C8CB;}
	.st166{fill:#CDDBF0;}
	.st167{fill:#EBEAEB;}
	.st168{fill:#AFC8E8;}
	.st169{fill:#8EB5E0;}
	.st170{fill:#C5C6CA;}
	.st171{fill:#8CB4E0;}
	.st172{fill:#8FB5E0;}
	.st173{fill:#B0B3B8;}
	.st174{fill:#D1D2D4;}
	.st175{fill:#E2EAF6;}
	.st176{fill:#E8EDF8;}
	.st177{fill:#9BBCE3;}
	.st178{fill:#D5D6D8;}
	.st179{fill:#9DBDE3;}
	.st180{fill:#9CBDE3;}
	.st181{fill:#B9BBBF;}
	.st182{fill:#A7C3E6;}
	.st183{fill:#E7E6E7;}
	.st184{fill:#AFC9E8;}
	.st185{fill:#A8C4E7;}
	.st186{fill:#C4C5C9;}
	.st187{fill:#B2CAE9;}
	.st188{fill:#BFD2EC;}
	.st189{fill:#B1CAE9;}
	.st190{fill:#CECED1;}
	.st191{fill:#CCDBF0;}
	.st192{fill:#D8D9DB;}
	.st193{fill:#DDE6F5;}
	.st194{fill:#CBDAF0;}
	.st195{fill:#E4E4E4;}
	.st196{fill:#D5E0F2;}
	.st197{fill:#EFF2FA;}
	.st198{fill:#D7E2F3;}
	.st199{fill:#F0EFEF;}
	.st200{fill:#E7EDF7;}
	.st201{fill:#E4EBF7;}
	.st202{fill:#F1F4FB;}
</style>
<g>
	<path class="st0" d="M9,70c0-17.2,0-34.4,0-51.6C9,18.1,9.1,18,9.4,18c56.1,0,112.1,0,168.2,0c0.3,0,0.4,0.1,0.4,0.4
		c0,17.1,0,34.1,0,51.2c0,0.3-0.1,0.4-0.4,0.4C121.4,70,65.2,70,9,70z"/>
	<path class="st1" d="M53.3,32.2c0.4,0.1,0.7,0.4,1.1,0.5c1.8,2,2.9,4.4,3.1,7.1c0.1,1.3,0.1,2.6-0.2,3.9c-0.6,2.4-1.9,4.3-4.1,5.5
		c-0.3,0.2-0.6,0.3-0.8,0.5c-0.1,0.1-0.3,0.2-0.4,0.1c0-0.2,0.2-0.3,0.3-0.4c1.3-0.8,2-2,2.4-3.4c0.5-1.8,0.6-3.6,0.6-5.4
		c-0.1-1.5-0.3-3-1.1-4.3c-0.3-0.5-0.7-1-1.2-1.5c-0.2-0.1-0.3-0.3-0.4-0.5c-0.5-0.9-1.3-1.4-2.2-1.8c-0.1,0-0.3,0-0.3-0.2
		c0.2-0.2,0.4-0.1,0.6,0c1.4,0.3,2.8,1,4.1,1.6c0.1,0,0.1,0.1,0.2,0.1c-0.3-0.6-0.8-1-1.3-1.4C53.5,32.5,53.3,32.5,53.3,32.2z"/>
	<path class="st2" d="M53.3,32.2c0.4,0.4,0.9,0.7,1.3,1.1c0.2,0.2,0.4,0.5,0.5,0.8c-0.1,0-0.2-0.1-0.3-0.1c-1.4-0.8-2.8-1.4-4.3-1.8
		c-0.1,0-0.2,0-0.3,0c-0.2,0.2-0.5,0-0.7,0c-1.5-0.1-2.9-0.1-4.3,0.5c-0.3,0.1-0.5,0.3-0.8,0.4c-1.1,0.4-1.9,1.1-2.7,1.9
		c-1.4,1.6-2.3,3.4-2.5,5.5c-0.1,1.7,0,3.3,0.4,4.9c0.2,0.6,0.4,1.2,0.7,1.8c0.1,0.2,0.2,0.3,0.1,0.5c-0.2,0.1-0.3,0-0.4-0.1
		c-0.4-0.3-0.8-0.6-1.1-0.9c0,0-0.1-0.1-0.1-0.1c-0.3-0.9-0.6-1.8-0.7-2.7c-0.1-1.2-0.2-2.4-0.1-3.6c0.1-1.4,0.6-2.7,1.2-4
		c0.9-1.8,2.2-3.1,4.1-4c1.2-0.6,2.5-0.9,3.8-1c0.7-0.1,1.5-0.1,2.2-0.1C50.6,31.4,52,31.6,53.3,32.2z"/>
	<path class="st1" d="M133.7,39.9c0,0.1,0,0.2,0.1,0.3c0.1,0.2,0,0.3-0.1,0.4c-0.8,0.4-1,1.1-1,2c0,1.7,0,3.3,0,5
		c0,1.1,0.3,1.4,1.3,1.6c0.2,0,0.4,0.1,0.6,0c0.3,0,0.6,0.1,0.8,0.4c0,0.2-0.1,0.3-0.3,0.3c-0.3,0.1-0.5,0.3-0.7,0.5
		c-0.2,0-0.4-0.1-0.7-0.1c-0.6,0-1,0.2-1.1,0.8c0,0.1,0,0.3,0,0.4c0,1.6,0,3.1,0,4.7c0,0.1,0,0.3,0,0.4c0.1,0.4,0.3,0.6,0.7,0.6
		c0.1,0,0.3,0,0.4,0c0.1,0.1,0.1,0.2,0,0.4c-0.6,0-1.3-0.1-1.9-0.1c-0.3,0-0.7,0.1-1-0.1c0-0.1,0-0.2,0-0.3c0.2-0.6,0.2-1.3,0.2-1.9
		c0-3.3,0-6.6,0-9.9c0-1.5-0.1-2.9-0.1-4.4c0-0.5-0.1-0.5-0.5-0.3c-0.1,0.1-0.2,0.1-0.4,0.1c-0.1,0-0.2,0-0.1-0.1
		c0.1-0.3,0-0.6,0.1-0.9c0.8-0.2,1.5-0.2,2.3-0.2c0,0,0.1,0,0.1,0.1c0,0,0,0,0.1,0.1c0.2,0.5,0.2,0.5,0.7,0.3
		C133.4,39.9,133.5,39.8,133.7,39.9z"/>
	<path class="st2" d="M130,40.6c0.3,0,0.4-0.1,0.6-0.3c0.1-0.1,0.2-0.2,0.4-0.1c0.1,0.1,0.1,0.2,0.1,0.3c0,0,0,0,0,0
		c0.1,5.2,0.1,10.4,0.1,15.6c0,0.4-0.1,0.8-0.3,1.2c0,0,0,0,0,0.1c-0.2,0.2-0.5,0.2-0.8,0.3c-0.7,0.2-1.3,0.4-2,0.5
		c0-0.8,0-0.9,0.8-0.8c1.1,0.1,1.2-0.5,1.2-1.3c0.1-1.4-0.1-2.9-0.1-4.3c0-1.1-0.1-2.1-0.1-3.2c0-1.8-0.2-3.5-0.2-5.3
		c0-0.6,0-1.3-0.1-1.9c0-0.2,0-0.3-0.1-0.4c0,0-0.1-0.1-0.1-0.1c0-0.4-0.2-0.5-0.6-0.5c-0.1,0-0.3,0-0.4-0.1c0-0.3,0.2-0.4,0.4-0.4
		c0.2-0.1,0.5-0.1,0.7,0C129.9,39.9,129.9,40.3,130,40.6z"/>
	<path class="st1" d="M122.5,38.1c0.3,0,0.4,0.2,0.7,0.3c0.3,1.1,0.8,2.2,0.8,3.4c0,2.3,0,4.6,0,6.9c0,0.5,0,0.9,0.4,1.2
		c0.1,0.1,0.1,0.2,0,0.2c-0.7,0.1-1.4,0.2-2.1-0.1c-0.1-0.2-0.1-0.5-0.1-0.7c0-2.4,0-4.8,0-7.1c0-0.2,0-0.4-0.1-0.7
		c0-0.1-0.1-0.3-0.3-0.3c-0.2,0-0.2,0.1-0.3,0.3c-0.1,0.1-0.1,0.3-0.2,0.4c-0.4,0-0.3-0.3-0.4-0.5c0.4-1,0-1.7-1.1-1.9
		c-0.2,0-0.4,0-0.5-0.1c0-0.2,0.2-0.2,0.4-0.3c0.8-0.4,1.6-0.2,2.4-0.1c0.1,0,0.2,0.1,0.3,0.1c0.3,0,0.4-0.1,0.3-0.3
		C122.6,38.4,122.4,38.3,122.5,38.1z"/>
	<path class="st1" d="M88.8,49.6c0-0.1-0.1-0.3-0.1-0.4c0.1-0.2,0.3-0.3,0.5-0.2c0.3,0.1,0.3-0.1,0.3-0.3c-0.2-2.5-0.1-5-0.1-7.5
		c0-0.1,0-0.2,0-0.3c-0.1-0.5-0.2-0.6-0.7-0.4c-0.1-0.1-0.3-0.6-0.3-0.8c0,0,0.1-0.1,0.1-0.1c0.8-0.1,1.7-0.2,2.5-0.5
		c0.1,0,0.2,0,0.2,0.1c0.2,0.7,0.1,1.4,0.1,2.1c-0.1,0.9,0,1.8-0.1,2.7c0,0.9,0,1.8,0,2.8c0,0.2,0,0.4,0.1,0.7
		c0.1,0.5,0.3,1,0.9,1.2c0.1,0,0.1,0.1,0.2,0.2c0.2,0.6,0.7,0.8,1.3,0.9c0.1,0,0.3,0.1,0.4,0.2c0,0.1-0.1,0.2-0.2,0.2
		c-1.1,0.3-2.1,0.4-3.2-0.1c-0.5-0.2-0.9-0.6-1.5-0.4C88.9,49.7,88.9,49.7,88.8,49.6z"/>
	<path class="st1" d="M114.9,38.1c0.1,0,0.2,0.1,0.2,0.1c0.1,0.1,0.1,0.3,0.1,0.4c0,0.4,0.1,0.7,0.3,1c0.2,0.3,0.3,0.4,0.6,0.2
		c0.1-0.1,0.2-0.2,0.4-0.2c0.1,0.1,0.2,0.2,0.2,0.3c0.1,0.1,0.1,0.2,0.1,0.3c-0.6,0.5-0.7,1.1-0.7,1.8c-0.1,2.1-0.1,4.2-0.1,6.3
		c0,0.5,0.1,0.9,0.4,1.3c0.2,0.2,0.1,0.3-0.2,0.4c-0.5,0-0.9,0-1.4,0c-0.3,0-0.6,0.1-0.8,0c0,0-0.1-0.1,0-0.1
		c0.4-0.6,0.3-1.4,0.3-2.1c0-1.9,0-3.9,0-5.8c0-0.3,0-0.5-0.1-0.7c0-0.1-0.1-0.2-0.2-0.2c-0.1,0-0.2,0.1-0.2,0.2
		c-0.1,0.1-0.2,0.3-0.3,0.4c-0.3,0-0.3-0.2-0.3-0.4c0.4-1-0.2-1.8-1.3-1.9c-0.2,0-0.5,0.1-0.6-0.1c0.1-0.3,0.4-0.3,0.6-0.4
		c0.8-0.2,1.6-0.2,2.4-0.1c0.4,0.1,0.5,0.1,0.6-0.4C114.9,38.3,114.8,38.2,114.9,38.1z"/>
	<path class="st1" d="M149.3,42.2c0.1,0.1,0.3,0.1,0.4,0.2c0,0.2-0.1,0.2-0.2,0.3c-0.1,0.1-0.3,0-0.5,0.1c0,0.2,0.2,0.2,0.3,0.3
		c1.2,0.5,2.5,0.7,3.8,1c0.1,0,0.3,0.1,0.4-0.1c0.1-0.2,0-0.3-0.1-0.4c0-0.1-0.1-0.2-0.1-0.3c0.3,0,0.6,0.1,0.9,0.3
		c0.2,1,0.7,2,0.8,3c0,0.5,0,1-0.3,1.4c-0.3,0.6-0.8,1.1-1.3,1.6c-0.1,0.1-0.2,0.2-0.3,0.2c-0.1-0.2,0-0.3,0.1-0.4
		c0.4-0.6,0.4-1.3,0.4-2c0-0.1,0-0.2-0.1-0.3c-0.1-0.1-0.2,0.1-0.3,0.1c-0.1,0.1-0.2,0.2-0.4,0.2c-0.1-0.1-0.2-0.2-0.1-0.4
		c0.3-0.7,0.2-1.2-0.6-1.5c-0.4-0.2-0.9-0.3-1.3-0.4c-1.1-0.3-2.3-0.5-3.4-1c-0.3-0.1-0.7-0.2-1.1-0.2c-0.1,0-0.2-0.1-0.2-0.1
		c-0.1-0.2-0.1-0.4-0.2-0.6c0.2-0.1,0.3,0,0.5,0.1c0.2,0.1,0.3,0,0.3-0.2c0-0.2,0-0.4,0-0.5c-0.1-1,0.2-1.8,0.8-2.6
		c0.1-0.1,0.2-0.2,0.3-0.2c0.1,0.1,0,0.3,0,0.4c-0.1,0.3-0.1,0.7-0.1,1c0.1,0.8,0.6,1.2,1.4,1C149.1,42.2,149.2,42.2,149.3,42.2z"/>
	<path class="st2" d="M69.7,50.8c0-0.9,0-0.9,0.8-0.9c1,0,1.4-0.4,1.4-1.4c0-4.6,0-9.2,0-13.8c0-0.2,0-0.4-0.1-0.5
		c-0.1-0.2-0.2-0.3-0.1-0.5c0.1-0.1,0.1-0.1,0.2-0.1c0.1-0.1,0.3-0.2,0.4-0.3c0.3-0.2,0.5-0.1,0.7,0.3c0.1,0.1,0.1,0.3,0.1,0.5
		c0,4.9,0,9.9,0,14.8c0,0.5-0.2,0.9-0.5,1.3c-0.3,0.2-0.7,0.3-1,0.4c-0.5,0.1-1,0.2-1.5,0.4C70,50.9,69.9,50.9,69.7,50.8z"/>
	<path class="st1" d="M140,38.1c0.3,0,0.5,0.1,0.7,0.3c0.2,0.7,0.6,1.2,0.9,1.8c0.7,1.3,0.9,2.6,0.6,4.1c-0.2,1.3-0.8,2.5-1.7,3.5
		c-0.1,0.1-0.2,0.3-0.4,0.2c-0.1-0.1,0-0.2,0-0.4c0.9-2.2,0.3-4.3-0.5-6.4c0.1,0.5,0.1,1-0.2,1.4c-0.4-0.1-0.4-0.5-0.4-0.8
		c0.3-0.9,0.1-1.5-0.9-2c-0.5-0.3-1.1-0.5-1.8-0.4c-0.1,0-0.2,0-0.3-0.1c0-0.2,0.2-0.2,0.4-0.3c0.9-0.4,1.8-0.5,2.8-0.4
		c0.2,0,0.5,0.1,0.7,0.1c0.2,0,0.3-0.1,0.2-0.3C140,38.3,139.9,38.2,140,38.1z"/>
	<path class="st1" d="M108.9,39.8C108.9,39.9,108.9,39.9,108.9,39.8c0.1,0.2,0.1,0.3,0,0.4c-0.8,0.4-0.9,1.1-0.9,1.9
		c0,1.7,0,3.5,0,5.2c0,0.5-0.1,1,0,1.5c0.1,0.3,0.2,0.6,0.3,0.9c0.1,0.1,0.1,0.3-0.1,0.3c-0.7,0-1.4,0.2-2,0
		c0.3-1.7,0.1-3.5,0.1-5.2c0-1.3-0.1-2.6-0.1-3.9c0-0.1,0-0.3-0.1-0.3c-0.1,0-0.2,0.1-0.2,0.2c-0.1,0.1-0.2,0.3-0.4,0.3
		c-0.2,0-0.2-0.2-0.2-0.3c0-0.1,0-0.2,0.1-0.2c0.2-0.4,0.1-0.5-0.3-0.7c-0.1,0-0.2,0-0.2-0.2c0.1-0.1,0.3-0.1,0.4-0.1
		c0.8,0,1.5-0.1,2.2-0.3c0.1,0,0.2,0,0.3,0c0.1,0.1,0.1,0.2,0.2,0.4c0.1,0.5,0.1,0.5,0.6,0.4C108.7,39.8,108.8,39.8,108.9,39.8z"/>
	<path class="st2" d="M142.2,39.8c0.6,0.8,0.9,1.7,0.9,2.7c0,0.1,0,0.2,0.1,0.3c0.2,2.3-0.4,4.4-2.3,5.9c-0.8,0.6-1.6,1.3-2.3,1.9
		c-0.8,0.7-1.8,0.9-2.9,0.8c-0.5,0-1-0.1-1.5-0.2c-0.3-0.1-0.4,0-0.4,0.3c0,1.7-0.1,3.4,0,5.1c0,0,0,0.1,0,0.1
		c-0.4,0.1-0.7,0-0.8-0.4c-0.1-0.2-0.1-0.4-0.1-0.7c0-1.3,0-2.6,0-3.9c0-1.1,0.5-1.6,1.7-1.4c0.5,0.1,0.9,0.2,1.4,0.2
		c1,0.1,1.8-0.4,2.6-1c0.7-0.5,1.3-1.1,1.9-1.7c1.1-1.1,1.7-2.4,1.9-3.9c0.2-1.2,0.1-2.4-0.3-3.5C142,40.2,141.9,40,142.2,39.8z"/>
	<path class="st2" d="M56.8,35c0.6,0.7,0.9,1.4,1.2,2.3c0.3,0.8,0.4,1.6,0.5,2.5c0.1,0.7,0.1,1.4,0.1,2c0,1.3-0.2,2.6-0.7,3.9
		c-1.1,2.7-3,4.3-5.7,5.2c-1.2,0.4-2.5,0.6-3.8,0.8c-0.2,0-0.4,0-0.6-0.1c-0.2-0.3-0.1-0.4,0.2-0.6c0.5-0.2,1.1-0.3,1.6-0.4
		c2.2-0.4,4.2-1.2,5.7-2.9c1.3-1.5,2.1-3.3,2.2-5.3c0.1-1.8,0-3.5-0.3-5.3c-0.1-0.6-0.3-1.1-0.5-1.7C56.8,35.4,56.7,35.2,56.8,35z"
		/>
	<path class="st2" d="M69.7,32.8c0-0.1,0-0.1,0-0.2c0-1,0.1-1.1,1.1-0.9c0.2,0,0.4,0.1,0.6,0.1c1,0,2,0,3,0c2.1,0,4.3-0.2,6.4-0.1
		c0.8,0,1.7,0.1,2.4,0.6c0,0.3,0.2,0.7,0,1c-0.1,0-0.1,0-0.2,0c-1-0.5-2.1-0.4-3.2-0.5c-1.2-0.3-2.4-0.3-3.6-0.2
		c-0.4,0-0.6,0.3-1,0.3c-1,0.1-2.1-0.1-3.1-0.1c-0.2,0-0.3-0.1-0.5-0.2c-0.5-0.2-1.1-0.2-1.6,0C69.9,32.8,69.8,32.9,69.7,32.8z"/>
	<path class="st3" d="M58.3,54.4c0.2,0.2,0.2,0.8,0,1c-0.8,0.5-1.5,1-2.3,1.4c-0.7,0.4-1.4,0.2-2.1,0c-2.1-0.5-4.2-1.2-6.3-1.7
		c-0.5-0.1-1-0.3-1.6-0.3c-1.1-0.1-1.9,0.4-2.7,0.9c-0.6,0.3-0.5,0.4-0.7-0.2c0-0.1-0.1-0.1-0.1-0.2c1.3-1,2.7-1.7,4.5-1.2
		c2.1,0.6,4.1,1.2,6.2,1.7c0.6,0.1,1.3,0.3,2,0.3c0.3,0,0.7-0.1,0.9-0.3C56.7,55.4,57.5,54.9,58.3,54.4z"/>
	<path class="st2" d="M93.9,50c-0.2-0.1-0.5-0.1-0.7-0.2c-0.5-0.2-0.9-0.4-1.1-1c0.2-0.2,0.5-0.2,0.8-0.2c1.1,0.5,2.1,0.3,3-0.5
		c0.4-0.3,0.7-0.8,0.7-1.4c0-1.9,0-3.8,0-5.6c-0.1-0.1-0.1-0.2,0-0.4c0.1-0.2,0.2-0.4,0.3-0.5c0.2-0.3,0.5-0.2,0.7,0.1
		c0.1,0.2,0.1,0.4,0.1,0.6c0.1,1.5,0.1,2.9,0.1,4.4c0,0.7,0.1,1.3,0,2c-0.1,0.6-0.3,1-0.9,1.3c-0.9,0.2-1.6,0.7-2.3,1.2
		C94.4,49.9,94.2,50.1,93.9,50z"/>
	<path class="st2" d="M147.8,39.9c-0.8,0.7-1.2,1.6-1,2.7c0,0,0,0,0,0c0,0.3,0.2,0.7-0.1,0.9c-0.2,0.2-0.4-0.2-0.7-0.2
		c0,0-0.1,0-0.1,0c-0.4-1.2-0.2-2.3,0.4-3.3c0.8-1.3,2.1-1.9,3.6-2.2c1.5-0.2,3.1-0.2,4.5,0.4c-0.1,0.4-0.3,0.7-0.6,0.9
		c-0.2,0-0.5-0.1-0.7-0.1c-0.7-0.3-1.4-0.5-2.2-0.5c-1,0.1-2,0.3-2.8,1.1C148.1,39.8,148,39.9,147.8,39.9z"/>
	<path class="st2" d="M105.5,41c0.2-0.1,0.3-0.3,0.4-0.5c0.1-0.1,0.2-0.3,0.4-0.2c0.2,0,0.1,0.2,0.1,0.3c0,2.5,0.1,5,0.1,7.5
		c0,0.4,0,0.7,0,1.1c0,0.3-0.1,0.6-0.3,0.8c-0.2,0.3-0.6,0.4-0.9,0.5c-0.5,0.1-1,0.2-1.5,0.4c-0.1,0-0.1,0-0.2,0c0,0,0-0.1,0-0.1
		c0-0.7,0-0.7,0.7-0.8c0.7-0.1,1.1-0.2,1.1-1.1c0-2.5,0-5.1,0-7.6C105.4,41.1,105.4,41.1,105.5,41z"/>
	<path class="st4" d="M56.8,35c0.5,1.3,0.8,2.7,0.9,4.1c0.1,1,0.2,2.1,0.1,3.1c-0.1,1-0.2,2-0.6,2.9c-1,2.4-2.6,4.1-5.1,5
		c-1.1,0.4-2.2,0.6-3.3,0.8c-0.3,0-0.5,0.1-0.8,0.2c-0.2,0.1-0.3,0.2-0.1,0.3c0.1,0.1,0.3,0.1,0.4,0.2c0.1,0.1,0.3,0.1,0.3,0.3
		c-0.4,0.3-1.1,0.2-1.4-0.1c-0.4-0.4-0.3-0.9,0.2-1.1c0.3-0.1,0.6-0.1,0.9-0.1c0.2,0,0.3,0,0.5,0c1-0.1,2-0.3,3-0.8
		c0.1,0,0.2-0.1,0.3-0.1c2.3-1,4-2.6,4.9-4.9c0.6-1.6,0.6-3.2,0.5-4.8c-0.1-2.2-0.9-4.2-2.1-6c-0.3-0.4-0.6-0.8-0.9-1.3
		C55.4,33.4,56.2,34.1,56.8,35z"/>
	<path class="st2" d="M113.4,41.6c0.1-0.2,0.3-0.4,0.4-0.6c0-0.1,0.1-0.2,0.2-0.2c0.1,0,0.2,0.1,0.2,0.2c0.1,0.3,0.2,0.5,0.2,0.8
		c0,2.3,0,4.6,0,7c0,0.4,0,0.9-0.4,1.2c-0.2,0.2-0.4,0.2-0.6,0.3c-0.4,0.2-0.9,0.3-1.3,0.5c-0.1,0.1-0.3,0.1-0.4,0c0,0,0-0.1,0-0.1
		c0-0.7,0-0.7,0.6-0.7c0.8,0,1.1-0.4,1.1-1.3c0-2.3,0-4.5,0-6.8C113.3,41.8,113.3,41.7,113.4,41.6z"/>
	<path class="st3" d="M48.5,51.9c-0.2-0.1-0.4-0.1-0.5-0.2c-0.1,0-0.2,0-0.2-0.2c1.4,0,2.8-0.3,4.2-0.7c1.4-0.4,2.7-1.2,3.8-2.2
		c1.4-1.3,2.1-2.9,2.5-4.7c0.2-1.4,0.3-2.8,0.2-4.2c0.2,0.3,0.2,0.7,0.2,1c0,1.4,0,2.9-0.3,4.3c-0.4,1.9-1.4,3.5-2.9,4.8
		c-1.5,1.3-3.3,1.9-5.2,2.2c-0.2,0-0.5,0.1-0.7,0.2c0,0.1-0.1,0.1-0.2,0.1C49.1,52.2,48.8,52.2,48.5,51.9z"/>
	<path class="st3" d="M133.7,56.7c-0.1-0.2-0.1-0.5-0.1-0.7c0-1.5,0-3,0-4.6c0-0.2,0-0.3,0-0.5c0.7,0.3,1.4,0.4,2.1,0.4
		c1,0,1.9-0.1,2.7-0.8c0.9-0.8,1.9-1.5,2.8-2.4c1-0.9,1.5-2.1,1.7-3.5c0.1-0.6,0.2-1.3,0.2-2c0.2,0.5,0.2,0.9,0.2,1.4
		c-0.1,0.9-0.1,1.7-0.4,2.5c-0.4,1.2-1.2,2.2-2.2,3c-0.7,0.6-1.4,1.2-2.2,1.8c-0.8,0.7-1.8,0.8-2.9,0.6c-0.5-0.1-1-0.2-1.4-0.3
		c-0.3-0.1-0.4,0-0.4,0.3C133.8,53.7,133.8,55.3,133.7,56.7C133.7,56.8,133.7,56.8,133.7,56.7z"/>
	<path class="st2" d="M58.3,54.4c-0.2,0.4-0.6,0.5-0.9,0.7c-0.5,0.3-1,0.7-1.5,1c-0.5,0.3-1.1,0.3-1.7,0.2c-2.6-0.5-5.1-1.4-7.7-2
		c-1.1-0.3-2-0.1-3,0.5c-0.4,0.2-0.7,0.5-1.2,0.7c0-0.1,0-0.1,0-0.2c0.1-0.2,0.1-0.3,0.3-0.4c0.7-0.5,1.4-1,2.3-1.3
		c0.4-0.1,0.8-0.1,1.2,0c1.7,0.4,3.3,0.9,5,1.3c0.7,0.2,1.3,0.3,2,0.5c1.1,0.3,2.1,0.1,3.1-0.3c0.6-0.3,1.2-0.5,1.7-0.9
		c0.1-0.1,0.2-0.1,0.3-0.1C58.2,54.1,58.2,54.3,58.3,54.4z"/>
	<path class="st4" d="M133.7,56.7C133.8,56.7,133.8,56.8,133.7,56.7c0.2,0.2,0.2,0.3,0.3,0.3c0,0.1-0.1,0.1-0.2,0.1
		c-0.9,0.2-1.3-0.1-1.3-1c0-1.5,0-3.1,0-4.6c0-1.3,0.5-1.7,1.8-1.4c0.1,0,0.2,0,0.2,0.1c0.4-0.1,0.7,0.1,1,0.2
		c0.7,0.1,1.3,0,1.9-0.3c0.9-0.4,1.6-1.1,2.3-1.8c0.1-0.1,0.2-0.2,0.3-0.3c1-0.9,1.7-2.1,1.9-3.5c0.4-1.8,0-3.5-1-5
		c-0.2-0.3-0.4-0.7-0.4-1.2c0.6,0.3,1.1,0.9,1.5,1.4c-0.1,0.2-0.1,0.3,0,0.5c0.6,2.3,0.5,4.6-0.8,6.6c-0.4,0.6-0.9,1-1.4,1.5
		c-0.7,0.6-1.4,1.3-2.2,1.8c-0.9,0.6-1.8,0.6-2.8,0.4c-0.4-0.1-0.7-0.2-1.1-0.1c-0.5,0-0.9,0.4-1,0.9c0,1.6,0,3.1,0,4.7
		C133,56.6,133.2,56.7,133.7,56.7z"/>
	<path class="st2" d="M77.1,41.5c-0.2-0.2-0.3-0.5-0.2-0.7c0-0.1,0.2-0.3,0.4-0.2c0.2,0.1,0.5,0,0.7,0.1c1,0.2,1.9-0.2,2.4-1
		c0.7-1.2,0.8-2.6,0.5-3.9c-0.1-0.2-0.3-0.4-0.2-0.7c0.2-0.1,0.3-0.2,0.4-0.4c0.3-0.3,0.5-0.3,0.6,0.1c0.2,0.5,0.3,1,0.4,1.6
		c0,0.6,0.1,1.2,0,1.8c-0.1,1-0.4,1.9-1.2,2.6c-0.1,0.1-0.2,0.2-0.3,0.3c-0.3,0.3-0.8,0.3-1.2,0.4c-0.7,0.2-1.4,0.2-2.2,0.3
		C77.3,41.6,77.2,41.6,77.1,41.5z"/>
	<path class="st2" d="M121.2,41.8c0.1-0.2,0.1-0.4,0.2-0.5c0.1-0.1,0.1-0.3,0.4-0.3c0.2,0,0.3,0.1,0.4,0.3c0.1,0.2,0.1,0.4,0.1,0.7
		c0,2.7,0,5.4,0,8.1c-0.3,0.3-0.6,0.6-1,0.7c-0.1-0.1-0.1-0.2-0.1-0.3c0-1.8,0.1-3.7,0.1-5.5c0-0.6,0-1.3,0.1-1.9
		c0-0.3,0-0.6-0.1-0.9C121.2,42,121.2,41.9,121.2,41.8z"/>
	<path class="st2" d="M88.6,40.5c0.2-0.1,0.3-0.4,0.6-0.3c0.3,0.2,0.3,0.5,0.3,0.8c0,0.9,0,1.7,0,2.6c0,1.1,0,2.2,0,3.3
		c0,0.8,0.2,1.5,0.1,2.3c-0.3-0.2-0.6-0.3-0.8,0c-0.2-0.4-0.2-0.9-0.2-1.3c0-2.3,0-4.5,0-6.8c-0.1-0.1-0.2-0.3-0.1-0.5
		C88.4,40.5,88.4,40.5,88.6,40.5z"/>
	<path class="st2" d="M49.4,52.2c0.1,0,0.1,0,0.2,0c1.9,0.7,3.8,1.4,5.8,1.9c0.6,0.2,1.3,0,2-0.2c0.3-0.1,0.6-0.2,0.9-0.3
		c0,0.2-0.1,0.3-0.3,0.4c-0.7,0.5-1.4,0.9-2.3,1c-1.1,0.1-2.1-0.4-3.1-0.7c-1.5-0.5-3-1-4.5-1.4c-0.2,0-0.3-0.1-0.5-0.2
		c-0.1,0-0.2-0.1-0.2-0.2c0-0.1,0.1-0.2,0.2-0.2C48.1,52.3,48.7,52.1,49.4,52.2z"/>
	<path class="st2" d="M84.3,33.5c0.4,0.7,0.6,1.5,0.8,2.3c0.2,1.8-0.4,3.2-1.6,4.5c-1.4,1.7-3.3,2-5.4,1.8c-0.3,0-0.6,0.1-0.8-0.3
		c0-0.2,0.2-0.2,0.4-0.3c0.5-0.1,1-0.1,1.5-0.2c2.6-0.4,4.4-2,4.9-4.7c0.1-0.7,0.2-1.5,0-2.2c-0.1-0.2-0.1-0.4-0.1-0.7
		C84.1,33.7,84.1,33.5,84.3,33.5z"/>
	<path class="st2" d="M155.3,44.7c0.4,0.5,0.5,1.1,0.6,1.7c0.2,1.5-0.4,2.8-1.5,3.8c-1.1,1-2.3,1.4-3.8,1.4c-1.2,0-2.5-0.1-3.7-0.4
		c-0.3-0.1-0.6-0.1-0.8-0.3c0.2-0.5,0.6-0.6,1.2-0.5c0.6,0.1,1.2,0.3,1.9,0.4c1.3,0.1,2.6,0.1,3.8-0.7c1.6-1.1,2.4-2.5,2.1-4.5
		c0-0.2-0.1-0.4,0-0.6C155,44.9,155,44.7,155.3,44.7z"/>
	<path class="st3" d="M146.1,50.9c1,0.3,2,0.6,3.1,0.6c1,0,1.9,0.1,2.9-0.2c1.6-0.4,3.4-1.9,3.7-3.8c0.1-0.4,0-0.7,0.1-1.1
		c0.4,1.4,0.1,2.8-0.8,3.9c-1,1.2-2.3,1.8-4,2c-1.4,0.1-2.7-0.1-4-0.4c-0.1,0-0.2-0.1-0.4-0.1c-0.6-0.1-0.8-0.4-0.8-1
		C146,50.8,146.1,50.8,146.1,50.9z"/>
	<path class="st2" d="M60.1,45.5c0.3-0.9,0.7-1.8,0.9-2.8c0-0.2,0.2-0.2,0.3-0.2c2.2,0,4.5,0,6.7,0c0,0,0,0.1,0,0.1
		c-0.3,0.4-0.7,0.8-1.2,1c-1.5-0.1-3,0-4.5,0c-0.3,0-0.5,0.1-0.6,0.4c0,0.1-0.1,0.3-0.1,0.4c0,0,0,0.1-0.1,0.1
		c-0.4,0.4-0.9,0.6-1.3,0.9C60.3,45.5,60.2,45.5,60.1,45.5z"/>
	<path class="st2" d="M117,49.4C117,49.4,117,49.4,117,49.4c-0.3,0.3-0.5,0.1-0.7-0.1c-0.2-0.2-0.3-0.5-0.3-0.8c0-2.2,0-4.4,0-6.5
		c0-0.8,0.4-1.3,1.1-1.6c0.4-0.1,0.8-0.4,1.2-0.6c0.4-0.2,0.9-0.3,1.4-0.2c0.4,0.1,0.6,0.3,0.8,0.6c0.1,0.2,0.1,0.4-0.1,0.5
		c-0.3,0-0.5-0.1-0.7-0.2c-1.1-0.4-2.1,0.1-2.6,1.1c-0.2,0.4-0.2,0.9-0.2,1.3c0,2,0,4,0,6.1C116.9,49.1,116.9,49.2,117,49.4z"/>
	<path class="st4" d="M75.3,32.9c0.5-0.3,1.1-0.4,1.6-0.4c0.9,0,1.8-0.1,2.6,0.2c0.1,0,0.2,0.1,0.3,0.1c0.9,0.3,1.3,1.3,0.8,2
		c-0.5-0.2-0.7-0.6-0.9-1c-0.1-0.4-0.4-0.7-0.8-0.8c-0.8-0.1-1.6-0.3-2.3-0.1c-0.8,0.1-1.1,0.5-1.1,1.3c0,0.1,0,0.3,0,0.4
		c0,4.4,0,8.8,0,13.2c0,0.2,0,0.3,0,0.5c0,0.4,0.2,0.8,0.7,0.9c0,0,0.1,0.1,0.1,0.1c0,0.2,0.2,0.2,0.3,0.3c-0.1,0.4-0.5,0.3-0.7,0.3
		c-0.4,0-0.6-0.2-0.7-0.5c-0.1-0.2-0.1-0.5-0.1-0.8c0-0.6,0-1.3,0-1.9c0.1-4.2-0.1-8.3-0.1-12.5c0-0.2,0-0.4,0-0.7
		C74.9,33.3,75,33.1,75.3,32.9z"/>
	<path class="st4" d="M120.5,40.7c0.1-0.4-0.2-0.9-0.7-1c-0.5-0.1-0.9,0-1.3,0.2c-0.5,0.2-0.9,0.4-1.4,0.7c-0.6,0.3-0.8,0.7-0.8,1.3
		c0,2.2,0,4.5,0,6.7c0,0.6,0.3,0.9,0.8,0.9c0.1,0.1,0.2,0.2,0.3,0.2c-0.2,0.2-0.2,0.2-0.4,0.3c0.5,0.1,1.1,0.4,1.6,0
		c0.1,0,0.3-0.1,0.3,0.2c-0.3,0.4-0.8,0.6-1.3,0.5c-1.1-0.3-2.3-0.3-3.4-0.2c-0.8,0.1-1.4,0.4-2.1,0.6c0,0-0.1,0-0.1,0
		c-0.1,0-0.3,0-0.2-0.2c0.8-0.2,1.5-0.6,2.4-0.8c0.8-0.1,1.6,0,2.5-0.1c-0.6-0.4-0.7-0.9-0.7-1.4c0-1.3,0-2.7,0-4c0-1,0.1-2,0.1-3
		c0-0.6,0.3-1,0.8-1.2c0.1-0.1,0.1-0.1,0.2-0.1c0.5,0,0.9-0.3,1.4-0.5c0.3-0.2,0.6-0.4,0.9-0.3c0.7-0.1,1.4,0.1,1.8,0.8
		c0.2,0.4,0.2,0.9-0.1,1.2C120.7,41.2,120.6,41,120.5,40.7z"/>
	<path class="st4" d="M103.6,50.8c0.5-0.2,1-0.4,1.5-0.4c0.4,0,0.7-0.3,1.1-0.4c0.7,0,1.4-0.1,2.2-0.1c-0.6-0.7-0.5-1.5-0.5-2.3
		c0-1.9,0-3.7,0-5.6c0-0.3,0.1-0.6,0.1-0.9c0.1-0.5,0.4-0.8,0.9-0.9c0.7-0.2,1.4-0.6,2.1-0.9c0.1,0,0.2-0.1,0.3,0
		c0.7-0.1,1.4,0,1.9,0.6c0.4,0.4,0.4,0.9,0,1.3c-0.3-0.1-0.5-0.4-0.6-0.6c-0.2-0.5-0.5-0.8-1-0.8c-0.4,0-0.8,0.1-1.2,0.3
		c-0.4,0.2-0.8,0.4-1.2,0.6c-0.6,0.2-0.8,0.6-0.8,1.2c0,0.5,0,1,0,1.6c0,1.5-0.1,3-0.1,4.5c0,0.2,0,0.4,0,0.7
		c0.1,0.4,0.2,0.7,0.6,0.9c0,0,0.1,0.1,0.1,0.1c0.1,0.2,0.2,0.2,0.4,0.3c-0.1,0.1-0.2,0.2-0.3,0.2c0.4,0.2,0.8,0.3,1.2,0
		c0.1,0,0.3-0.1,0.3,0.2c-0.4,0.5-0.9,0.6-1.4,0.4c-0.7-0.2-1.4-0.3-2.2-0.3c-0.4,0-0.8,0.1-1.2,0.2c-0.6,0.2-1.3,0.3-1.8,0.6
		c-0.1,0-0.1,0-0.2,0C103.6,51,103.6,50.9,103.6,50.8z"/>
	<path class="st2" d="M100.2,38.2c0,0.2,0,0.3,0,0.5c0.1,0.2,0.1,0.4,0.1,0.5c0,2,0,4-0.1,6c0,1.4,0,2.8,0,4.2
		c-0.3,0.2-0.4,0.1-0.6-0.1c-0.2-0.3-0.3-0.6-0.3-0.9c0-2.1,0-4.3,0-6.4c0-0.8,0-1.7,0.1-2.5C99.4,38.9,99.7,38.5,100.2,38.2z"/>
	<path class="st3" d="M77.4,41.8c0.3,0.3,0.8,0.2,1.1,0.2c1.2,0.1,2.4,0,3.5-0.6c1.4-0.8,2.4-2.1,2.9-3.6c0.2-0.7,0.3-1.4,0.3-2
		c0.3,1.2,0.2,2.3-0.3,3.4c-0.6,1.5-1.6,2.7-3.2,3.3c-1.1,0.4-2.2,0.5-3.4,0.3c-0.9-0.2-1.1-0.4-1.2-1.1
		C77.2,41.6,77.3,41.7,77.4,41.8z"/>
	<path class="st3" d="M78.6,50.6c0.1,0.2,0.2,1,0.1,1.1c-0.1,0.1-0.3,0.1-0.4,0.1c-2.2,0-4.4,0-6.6,0c-0.4,0-0.9,0.1-1.3,0.1
		c-0.4,0-0.5-0.1-0.5-0.5c0-0.1,0-0.2,0-0.3c0.4-0.2,0.8-0.2,1.2-0.2c1.4,0,2.8-0.1,4.2-0.1c0.8,0,1.6,0.1,2.4,0.1
		C78.2,50.9,78.4,50.9,78.6,50.6z"/>
	<path class="st2" d="M124.2,39.4c0.5,0.8,0.7,1.7,0.7,2.6c0,2,0,4,0,6.1c0,0.5,0.2,0.9,0.1,1.4c-0.2,0.2-0.4,0-0.6-0.1
		c-0.3-0.3-0.3-0.6-0.3-0.9c0-2.3-0.1-4.6-0.1-6.9c0-0.6-0.1-1.1-0.1-1.7C123.9,39.6,123.9,39.4,124.2,39.4z"/>
	<path class="st3" d="M68.3,43.3c0.3,0,0.5,0,0.3,0.4c-0.3,0.7-0.6,1.5-0.8,2.3c-0.1,0.3-0.2,0.4-0.5,0.4c-2.3,0-4.5,0-6.8,0
		c-0.1,0-0.1,0-0.2,0c0-0.3,0.2-0.5,0.2-0.7c0.2-0.2,0.4-0.1,0.6-0.1c1.9,0,3.8,0,5.6,0c0.6,0,0.6,0,0.8-0.6
		c0.1-0.4,0.2-0.8,0.4-1.2C68,43.5,68.1,43.3,68.3,43.3z"/>
	<path class="st2" d="M68.3,43.3c-0.3,0.6-0.5,1.2-0.7,1.9c-0.1,0.3-0.2,0.4-0.5,0.4c-2.2,0-4.4,0-6.6,0l0,0
		c0.3-0.5,0.7-0.8,1.3-0.9c1.4,0,2.8,0,4.1,0c0.3,0,0.6,0,0.8-0.1c0.2-0.1,0.3-0.3,0.4-0.6c0.2-0.7,0.8-1.1,1.3-1.4
		C68.6,42.8,68.3,43,68.3,43.3z"/>
	<path class="st2" d="M92.1,38C92,40.9,92,43.8,92,46.6c0,0.5,0.1,0.9,0.3,1.4c-0.2,0.2-0.4,0-0.6-0.1c-0.4-0.3-0.6-0.7-0.6-1.2
		c0-2.5,0-4.9,0-7.4C91.3,38.8,91.6,38.3,92.1,38z"/>
	<path class="st2" d="M140,38.1c0,0.1,0.1,0.3,0.1,0.4c0.2,0.4,0.1,0.5-0.4,0.5c-0.6,0-1.2-0.1-1.7-0.1c-0.8,0-1.4,0.2-2.1,0.6
		c-0.1,0.3-0.3,0.3-0.5,0.4c-0.4,0.3-0.9,0.5-1.4,0.6c-0.1,0-0.2,0.1-0.4,0c0-0.1,0-0.2,0.1-0.3c0.6-0.5,1.2-1,1.8-1.6
		c0.6-0.5,1.3-0.7,2-0.8C138.4,37.7,139.2,37.7,140,38.1z"/>
	<path class="st4" d="M124.2,39.4c-0.3,0.3-0.2,0.7-0.1,1c0.1,0.5,0.1,0.9,0.1,1.4c0,0.9,0,1.8,0,2.7c0,1.4,0.1,2.8,0.1,4.2
		c0,0.5,0.3,0.8,0.8,0.9c0.1,0.1,0.1,0.2,0.3,0.3c0,0.4,0.2,0.5,0.6,0.5c0.2,0,0.4-0.2,0.6-0.2c0.2,0,0.4,0,0.3,0.3
		c-0.4,0.5-1,0.6-1.6,0.4c-0.9-0.3-1.8-0.1-2.6-0.2c-0.4,0-0.6,0.4-1,0.6c0,0-0.1,0-0.1,0c-0.1-0.1-0.2-0.2-0.2-0.3
		c0.3-0.2,0.7-0.4,1-0.7c0.7,0.1,1.4,0,2.1,0.1c-0.4-0.3-0.5-0.6-0.5-1.1c0-2.1,0-4.1,0-6.2c0-1.2-0.1-2.4-0.5-3.5
		c-0.1-0.3-0.2-0.6-0.1-0.9C123.6,38.6,123.9,38.9,124.2,39.4z"/>
	<path class="st3" d="M136,58.1c0.1,0.2,0.2,0.9,0.1,1c-0.1,0.1-0.3,0.1-0.4,0.1c-1.9-0.1-3.8-0.1-5.7-0.1c-0.4,0-0.9,0.1-1.3,0.1
		c-0.4,0-0.5-0.1-0.5-0.5c0-0.1,0-0.2,0-0.3c0.4-0.2,0.9-0.2,1.3-0.2c2,0,3.9-0.1,5.9,0C135.7,58.3,135.9,58.2,136,58.1z"/>
	<path class="st4" d="M100.2,38.2c-0.5,0.6-0.7,1.2-0.7,1.9c-0.1,2.8-0.1,5.5-0.1,8.3c0,0.2,0,0.5,0.1,0.7c0.1,0.2,0.3,0.5,0.6,0.4
		c0.1,0,0.1,0.1,0.1,0.1c0,0.1,0.2,0.1,0.3,0.2c0,0.2,0,0.3,0.2,0.3c0.3,0.1,0.6,0,0.9-0.2c0.3-0.1,0.5,0,0.4,0.4c0,0.1,0,0.2,0,0.4
		c0.1,0.1,0.1,0.3-0.1,0.4c-0.2-0.1-0.1-0.4-0.2-0.6c-0.2,0-0.3,0.1-0.5,0.2c-0.2,0.1-0.5,0.1-0.7,0c-0.5-0.2-0.9-0.2-1.4-0.2
		c-0.3,0-0.5,0-0.8,0c-0.5,0-0.9,0.1-1.2,0.5c-0.1,0.2-0.3,0.3-0.5,0.2c0,0,0-0.1,0-0.1c0.2-0.5,0.6-0.8,1.1-1c0.5-0.1,1,0,1.6,0
		C99,49.5,99,49.1,99,48.7c0-1.5-0.1-3,0-4.6c0.1-1.5,0-3,0.1-4.5c0-0.2,0-0.3,0.1-0.5c0.3-0.5,0.5-0.9,0.9-1.3
		C100.2,37.9,100.2,38,100.2,38.2z"/>
	<path class="st2" d="M119.3,39.3c-0.4,0.2-0.8,0.3-1.2,0.6c-0.4,0.3-0.9,0.4-1.3,0.3c-0.1,0-0.1-0.1-0.1-0.2
		c0.5-0.2,0.8-0.6,1.2-0.9c0.4-0.3,0.8-0.6,1.2-0.9c0.7-0.6,1.5-0.5,2.3-0.4c0.4,0,0.8,0.1,1.2,0.3c0.1,0.2,0.2,0.4,0.3,0.6
		c0.1,0.3-0.1,0.5-0.4,0.4c-0.8-0.2-1.5-0.3-2.3-0.2C119.8,39,119.5,39.1,119.3,39.3z"/>
	<path class="st3" d="M88.8,49.6C88.8,49.6,88.9,49.6,88.8,49.6c0.4,0.4,0.7,0.8,1.1,1.1c1.2,0.9,3.7,0.8,4.6,0.1
		c0.3-0.2,0.5-0.5,0.8-0.7c0.3-0.4,0.7-0.8,1.2-1.2c0.2-0.1,0.3,0,0.3,0.2c0,0.1,0,0.3,0,0.4c0,0.1,0,0.1,0,0.2c0,0.1,0,0.2-0.1,0.2
		c-0.4,0.4-0.8,0.7-1.1,1.2c-0.7,0.8-1.5,1.1-2.5,1.2c-1.3,0.1-2.6-0.2-3.5-1.3C89.1,50.6,88.9,50.1,88.8,49.6z"/>
	<path class="st2" d="M152.8,47.4c0.1-0.1,0.3-0.1,0.3-0.3c0.1-0.1,0.1-0.2,0.3-0.2c0.2,0,0.2,0.2,0.2,0.3c0.1,0.8,0.1,1.6-0.4,2.3
		c-0.1,0.1-0.1,0.1-0.1,0.3c0,0.2-0.2,0.4-0.4,0.5c-1.4,0.8-2.9,0.8-4.4,0.3c-0.1-0.1-0.3-0.2-0.3-0.4c-0.1-0.3,0-0.5,0.3-0.5
		c0.9,0.4,1.8,0.6,2.8,0.4c1.1-0.2,1.7-1,1.7-2.4C152.7,47.6,152.7,47.5,152.8,47.4z"/>
	<path class="st3" d="M76.2,49.3C76.2,49.3,76.2,49.3,76.2,49.3c-0.2-0.1-0.3-0.3-0.3-0.4c0-0.5-0.1-1.1-0.1-1.6c0-4.3,0-8.7,0-13
		c0-0.1,0-0.3,0-0.4c0-0.4,0.1-0.6,0.6-0.7c1-0.2,1.9-0.2,2.8,0.2c0.3,0.1,0.5,0.2,0.6,0.5c0.3,0.3,0.5,0.6,0.8,0.9
		c0.1,0,0.1,0.1,0.1,0.2c0,0.2,0.2,0.4,0.2,0.7c-0.2-0.2-0.4-0.6-0.7-0.8c-0.4-0.5-1-0.7-1.6-0.8c-0.7-0.1-1.4-0.1-2.1,0
		c-0.4,0.1-0.4,0.2-0.4,0.5c0,3.4,0,6.8,0,10.2c0,1.1,0,2.1,0,3.2C76.1,48.4,76.3,48.9,76.2,49.3z"/>
	<path class="st2" d="M111.3,39.3c-0.5,0.2-1,0.5-1.5,0.7c-0.3,0.1-0.6,0.2-0.9,0.2c0-0.1,0-0.2,0-0.3c0.6-0.3,1.1-0.7,1.5-1.1
		c1-1,2.2-1.2,3.6-1c0.3,0.1,0.7,0,0.9,0.3c0,0.1,0.1,0.2,0.1,0.3c0,0.2-0.1,0.4-0.1,0.6c-0.1,0.3-0.3,0-0.5,0
		C113.3,38.8,112.2,38.7,111.3,39.3z"/>
	<path class="st4" d="M55.6,55c0.9-0.3,1.8-0.6,2.5-1.4c0.1,0,0.1,0,0.1,0.3c-0.9,0.9-2.2,1.2-3.4,1.6c-0.6,0.2-1.2-0.1-1.8-0.2
		c-2.4-0.5-4.6-1.2-7-1.8c-0.9-0.2-1.5,0.1-2.2,0.5c-0.5,0.3-1.1,0.7-1.5,1.1c0-0.1-0.1-0.2-0.1-0.3c0.2-0.4,0.6-0.6,1-0.8
		c0.8-0.5,1.5-1,2.4-1.1c0.6,0,1.1,0.2,1.7,0.3c2.1,0.6,4.2,1.2,6.4,1.6C54.4,55.1,55,55.2,55.6,55z"/>
	<path class="st3" d="M111.9,51C111.9,51,111.9,51,111.9,51c0.4-0.1,0.7-0.1,1-0.1c1.3,0,2.6,0,3.9,0c0.3,0,0.6,0,0.9,0.1
		c0.4,0.1,0.8,0.1,1.2-0.1c0.3,0.2,0.1,0.6,0.1,0.9c0,0.2-0.3,0.1-0.5,0.1c-1.1,0-2.2,0.1-3.3,0c-1-0.1-2-0.1-2.9-0.1
		c-0.4,0-0.5-0.1-0.5-0.5C111.9,51.2,111.9,51.1,111.9,51z"/>
	<path class="st2" d="M132.5,39.6c-0.8,0.1-1.6,0.1-2.4,0.2c-0.1,0-0.1,0.1-0.2,0c-0.5-0.2-1-0.2-1.5,0c-0.1,0-0.2,0.1-0.3,0
		c0-0.8,0-0.8,0.8-0.9c1.3-0.2,2.5-0.5,3.7-0.9c0.2-0.1,0.4-0.1,0.6-0.2c0.1-0.1,0.2,0,0.3,0.1c-0.2,0.4-0.5,0.7-0.7,1.1
		C132.8,39.2,132.8,39.5,132.5,39.6z"/>
	<path class="st3" d="M103.8,51c0.1,0,0.1,0,0.2,0c0.3-0.1,0.6-0.1,1-0.1c1.7,0,3.3,0,5,0c0.3,0,0.6,0,0.8-0.1
		c0.3,0.2,0.1,0.6,0.1,0.9c0,0.2-0.3,0.1-0.5,0.1c-2,0-4,0-6,0c-0.7,0-0.6,0.1-0.6-0.6C103.8,51.1,103.8,51.1,103.8,51z"/>
	<path class="st1" d="M139.3,54.6c0.5,0.3,1,0.3,1.5,0.4c0.2,0.1,0.4,0,0.5,0.2c0.5,0.8,0.4,1.3-0.2,1.9c-0.1,0.1-0.1,0.1-0.2,0.2
		c-0.2,0.2-0.3,0.4-0.6,0.4c0,0-0.1,0-0.1-0.1c-0.6-0.1-1.2-0.3-1.8-0.3c0-0.3,0-0.7,0-1c0-0.1,0.1-0.1,0.2-0.1
		c0.1,0,0.2,0.1,0.2,0.2c-0.2,0.5,0.2,0.7,0.6,0.8c0.6,0.2,1.1,0.1,1.4-0.3c0.2-0.2,0.3-0.4,0.1-0.7c-0.1-0.1-0.1-0.2-0.2-0.3
		c-0.2-0.2-0.4-0.3-0.7-0.3c-0.5-0.1-1-0.2-1.4-0.5c-0.5-0.8,0-1.8,0.8-2c0.6-0.2,1.3-0.2,1.9,0.1c0,0.2-0.2,0.3-0.1,0.5
		c0,0.1,0.1,0,0,0c0,0,0,0,0,0c0-0.1,0-0.3,0.2-0.3c0,0.1,0,0.2,0,0.2c0.1,0.3,0.1,0.5-0.2,0.7c-0.1-0.1-0.2-0.2-0.2-0.4
		c-0.1-0.1-0.1-0.2-0.2-0.3c-0.5-0.3-0.9-0.2-1.4,0c-0.1,0-0.1,0.1-0.2,0.1C139,54.1,139.1,54.3,139.3,54.6z"/>
	<path class="st2" d="M91.1,39.2c-0.9,0.4-1.8,0.4-2.8,0.6c-0.1,0.1-0.2,0.1-0.3,0c-0.5-0.2-0.9-0.1-1.4,0.1c-0.1,0-0.1,0-0.2,0
		c0-0.3-0.1-0.7,0-0.9c0.1-0.2,0.6,0,0.9-0.1c0.8-0.1,1.7-0.3,2.5-0.6c0.6-0.2,1.1-0.4,1.7-0.6c0.2-0.1,0.3-0.1,0.5,0
		c-0.3,0.4-0.5,0.8-0.7,1.2C91.2,39.1,91.2,39.2,91.1,39.2z"/>
	<path class="st4" d="M148.3,50.5c1.2,0.4,2.5,0.6,3.7,0c0.4-0.2,0.8-0.4,1.1-0.7c0.7-0.5,1.2-1.2,1.6-1.9c0.4-0.9,0.2-1.7-0.1-2.6
		c-0.2-0.5-0.4-1-0.3-1.6c0.5,0.2,0.9,0.6,1.1,1.1c-0.3,0.2-0.2,0.5-0.2,0.8c0.5,2.6-1.3,4.9-3.8,5.4c-1.4,0.3-2.7,0-4-0.4
		c-0.5-0.1-0.9,0-1.2,0.4c-0.1,0-0.2-0.1-0.2-0.1c0-0.1-0.1-0.1-0.1-0.2c0.1-0.5,0.5-0.5,0.9-0.6C147.3,50,147.8,50.2,148.3,50.5z"
		/>
	<path class="st2" d="M100,37.8c-0.3,0.4-0.5,0.8-0.8,1.2c-0.2,0.3-0.4,0.5-0.8,0.5c-0.8,0.2-1.6,0.4-2.4,0.2
		c-0.4,0-0.9-0.1-1.3,0.2c-0.1,0-0.2,0-0.2,0c0-0.3-0.2-0.7,0.1-0.9c0.2-0.2,0.6-0.1,0.9-0.1c1.4-0.2,2.9-0.4,4.2-1
		C99.9,37.8,100,37.8,100,37.8z"/>
	<path class="st2" d="M78.6,50.6c0,0.3-0.1,0.4-0.4,0.4c-0.9,0-1.7,0-2.6-0.1c-1.5-0.1-3,0.1-4.5,0.1c-0.4,0-0.7,0.1-1.1,0.1
		c-0.1,0-0.1,0-0.2,0c0.2-0.4,0.6-0.5,1-0.5c1.2-0.2,2.4-0.5,3.6-0.4c0.8,0,1.6,0.1,2.5,0.3c0.5,0.1,1,0,1.4-0.2
		c0.1-0.1,0.2-0.1,0.3-0.1C78.6,50.3,78.6,50.5,78.6,50.6z"/>
	<path class="st2" d="M107.9,39.2c-0.9,0.3-1.8,0.5-2.7,0.4c-0.1,0-0.2,0-0.2,0.1c-0.4,0.2-0.9,0.2-1.3,0.3c0-0.1,0-0.2,0-0.3
		c0-0.7,0-0.7,0.7-0.8c1.4-0.1,2.7-0.5,4-1c0.1-0.1,0.3-0.2,0.4,0c0,0.1,0,0.2-0.1,0.3C108.3,38.4,108.3,38.9,107.9,39.2z"/>
	<path class="st4" d="M77.4,41.8c-0.1,0-0.2-0.1-0.3-0.2c0,0,0-0.1,0-0.1c0.7-0.1,1.3-0.1,2-0.2c0.6-0.1,1.1-0.2,1.6-0.5
		c0.3-0.2,0.6-0.4,0.9-0.6c1.4-1,2.2-2.3,2.3-4.1c0-0.7-0.1-1.4-0.4-2c-0.1-0.2-0.3-0.5-0.3-0.7c-0.1-0.3-0.2-0.7,0-1
		c0.5,0.3,0.8,0.6,1.1,1.1c-0.2,0.3-0.2,0.6-0.1,0.9c0.5,1.9,0,3.6-1.2,5.2c-0.9,1.2-2.2,1.7-3.7,1.9c-0.5,0.1-1.1,0.1-1.6,0.2
		C77.6,41.6,77.5,41.7,77.4,41.8z"/>
	<path class="st5" d="M144.2,57.6c-0.1,0-0.3,0.1-0.3-0.1c-0.1-0.2,0.1-0.2,0.2-0.2c0.2-0.1,0.3-0.2,0.3-0.4c0.5-1.2,1-2.4,1.4-3.5
		c0.1-0.2,0.1-0.4,0.4-0.4c0.3,0,0.3,0.2,0.3,0.4c0.5,1.2,1,2.4,1.5,3.5c0.1,0.1,0.1,0.3,0.3,0.4c0.1,0,0.3,0,0.3,0.2
		c-0.1,0.2-0.3,0.1-0.4,0.1c-0.4-0.2-0.8-0.1-1.1,0c-0.1,0-0.1,0-0.2,0c-0.1,0-0.3,0.1-0.4-0.1c0-0.2,0.2-0.1,0.3-0.2
		c0.2-0.1,0.2-0.2,0.2-0.4c0-0.1-0.1-0.3-0.2-0.4c-0.4-0.7-1-0.4-1.6-0.4c-0.2,0-0.3,0.2-0.4,0.3c-0.1,0.2-0.1,0.3-0.2,0.5
		C144.8,57.4,144.6,57.6,144.2,57.6z"/>
	<path class="st6" d="M64.1,61.5c0,1.3-1,2.4-2.3,2.4c-1.4,0-2.3-1-2.3-2.3c0-1.3,0.9-2.3,2.3-2.4C63,59.1,64.1,60.2,64.1,61.5z"/>
	<path class="st3" d="M112.7,40.6c0.2,0.2,0.3,0.4,0.5,0.6c0,0.1,0.1,0.3,0.1,0.4c0,0.1,0,0.2,0,0.2c-1.1-1.5-3-1-3.9-0.1
		c-0.3,0.3-0.4,0.6-0.4,0.9c0,2.2,0,4.5,0,6.7c0,0-0.1,0-0.1,0c-0.2-0.1-0.2-0.4-0.2-0.6c0-2.3,0-4.6,0-7c0-0.4,0.1-0.7,0.4-0.9
		c0.7-0.8,2.1-1.2,3.1-0.8C112.4,40.3,112.6,40.4,112.7,40.6z"/>
	<path class="st3" d="M120.5,40.7c0.2,0.2,0.3,0.4,0.5,0.6c0.1,0.2,0.2,0.3,0.2,0.5c0,0.1,0,0.2,0,0.3c-0.7-0.9-1.6-1.2-2.7-0.9
		c-0.8,0.2-1.5,1.1-1.5,1.9c0,2.1,0,4.2,0,6.4c-0.1-0.1-0.2-0.2-0.2-0.4c0-2.3,0-4.6,0-6.9c0-0.9,1-1.8,1.9-1.9
		C119.4,40.2,119.9,40.4,120.5,40.7z"/>
	<path class="st2" d="M153.3,43.3C153.3,43.3,153.4,43.4,153.3,43.3c0.2,0.3,0.5,0.6,0.4,0.8c-0.1,0.2-0.5,0.1-0.8,0.1
		c-1.2-0.3-2.4-0.4-3.5-0.9c-0.1,0-0.1,0-0.2-0.1c-0.2-0.1-0.5-0.2-0.5-0.4c0-0.2,0.3-0.1,0.5-0.2c0.1-0.1,0.3,0,0.4-0.2
		C150.9,42.8,152.1,42.9,153.3,43.3z"/>
	<path class="st1" d="M153,57.3c-0.4-0.6-0.5-1.5-0.1-2c0.3-0.5,1.2-0.9,1.8-0.7c0.2,0,0.3,0,0.3-0.2c0-0.2,0-0.4,0-0.6
		c-0.1-0.1-0.1-0.1-0.1-0.3c0-0.2-0.4-0.1-0.4-0.3c0.1-0.3,0.4-0.1,0.5-0.2c0.2-0.1,0.4-0.3,0.7-0.1c-0.2,0.3-0.2,0.7-0.2,1.1
		c0,0.9,0,1.8,0,2.7c0,0.4,0,0.8-0.5,1c-0.1,0-0.1,0-0.2,0c-0.1-0.1-0.1-0.1-0.1-0.2c0-0.1,0-0.1,0.1-0.2c-0.1,0-0.2,0.1-0.3,0.1
		c-0.4,0.1-0.8,0.2-1.2,0.2C153.3,57.5,153.1,57.5,153,57.3z"/>
	<path class="st3" d="M38.7,46.7C38.7,46.7,38.7,46.7,38.7,46.7c0.4,0.4,0.6,0.8,0.9,1.2c0.4,0.5,0.9,1,1.4,1.4
		c0.1,0.1,0.2,0.2,0.4,0.3c1.1,0.8,2.3,1.4,3.6,1.7c0.2,0,0.3,0.1,0.5,0.1c0.2,0,0.4,0.1,0.6,0.1c0.1,0,0.3,0,0.4,0.1
		c0,0,0.1,0.1,0,0.1c-0.4,0.3-0.7,0.6-1.2,0.6c-1.2-0.3-2.3-0.8-3.3-1.5c-1.4-1-2.5-2.1-3.1-3.8C38.7,46.9,38.6,46.8,38.7,46.7z"/>
	<path class="st3" d="M152.8,47.4c0,0.1,0,0.2,0,0.3c-0.6-0.6-1.4-0.7-2.2-0.9c-1-0.3-2-0.5-2.9-0.8c-0.9-0.4-1.4-1.1-1.6-2
		c0.1,0,0.1,0.1,0.2,0.1c0.3,0.3,0.5,0.7,0.9,0.9c0.8,0.5,1.7,0.6,2.6,0.9c0.8,0.2,1.6,0.4,2.3,0.8c0.2,0.2,0.5,0.3,0.5,0.6
		C152.7,47.2,152.7,47.3,152.8,47.4z"/>
	<path class="st2" d="M136,58.1c0.1,0.4-0.2,0.4-0.5,0.3c-1.7-0.2-3.4,0-5.1-0.1c-0.7,0-1.5,0.1-2.2,0.1c0,0,0,0,0,0
		c0.1-0.4,0.5-0.4,0.8-0.5c0.5-0.1,1-0.2,1.5-0.4c1.2-0.1,2.4-0.1,3.5,0.2c0.7,0.2,1.3,0.1,1.9-0.4C136.1,57.6,136,57.8,136,58.1z"
		/>
	<path class="st4" d="M91.1,39.2c0.2-0.3,0.4-0.6,0.5-0.9c0.1-0.2,0.2-0.3,0.4-0.4c0.1,0,0.1,0.1,0.1,0.2c-0.4,0.5-0.8,1-0.8,1.8
		c0.1,2.3,0,4.5,0,6.8c0,0.5,0.2,0.9,0.6,1.3c0.1,0.1,0.3,0.2,0.5,0.2c0.1,0.2,0.3,0.5,0.5,0.6c-0.2,0.2-0.5,0.2-0.8,0.2
		c-0.9-0.2-1.1-0.9-1.1-1.6c0-1.7-0.1-3.5,0-5.2C91.1,41,91.1,40.1,91.1,39.2z"/>
	<path class="st1" d="M163,56.7c0.6,0.6,1.3,0.7,2.2,0.5c0.1,0,0.2,0,0.4,0c0,0.2-0.2,0.3-0.3,0.4c-0.6,0.3-1.2,0.2-1.7,0
		c-0.3-0.1-0.7-0.2-1-0.3c-0.1-0.1-0.2-0.2-0.3-0.3c-0.7-0.9-0.8-2.1-0.1-3c0.4-0.5,0.9-0.8,1.5-0.8c0.8-0.1,1.5-0.1,2.3,0.2
		c-0.1,0.2-0.1,0.5-0.3,0.6c-0.2-0.1-0.3-0.3-0.5-0.5c-0.8-0.4-2,0-2.3,0.8C162.3,55.1,162.5,56.2,163,56.7z"/>
	<path class="st2" d="M118.9,50.8c0,0.3-0.2,0.3-0.4,0.2c-2.2-0.1-4.4-0.1-6.6-0.1c0.7-0.4,1.4-0.6,2.2-0.7c0.5-0.1,1-0.1,1.5-0.1
		c0.6,0,1.1,0,1.7,0.2c0.6,0.2,1.1,0,1.5-0.3C118.9,50.4,118.9,50.6,118.9,50.8z"/>
	<path class="st3" d="M121.4,51C121.4,51,121.5,51,121.4,51c0.3-0.1,0.5-0.1,0.7-0.1c1.3,0,2.6,0,3.9,0c0.3,0,0.5,0,0.7-0.2
		c0.1,0.2,0.2,0.9,0.1,1c-0.1,0.1-0.2,0.1-0.3,0.1c-1.5,0-3.1,0-4.6,0C121.5,51.8,121.4,51.7,121.4,51z"/>
	<path class="st3" d="M102,51.1c0.2-0.1,0.1-0.2,0.1-0.3c0.1,0.2,0.2,0.9,0.1,1c-0.1,0.1-0.2,0.1-0.4,0.1c-1.1,0-2.2,0-3.2,0
		c-0.4,0-0.9,0-1.3,0.1c-0.4,0-0.5-0.1-0.5-0.5c0-0.1,0-0.2,0-0.3c0.3-0.2,0.7-0.2,1.1-0.2c1.2,0,2.4,0,3.5,0
		C101.6,50.9,101.8,50.9,102,51.1z"/>
	<path class="st2" d="M110.7,50.7c0,0.2-0.1,0.3-0.3,0.3c-2.2,0-4.3,0-6.5,0c0.1-0.2,0.3-0.2,0.5-0.2c1.1-0.3,2.2-0.8,3.4-0.6
		c0.4,0.1,0.8,0.1,1.1,0.2c0.6,0.3,1.2,0.1,1.7-0.2C110.7,50.3,110.7,50.5,110.7,50.7z"/>
	<path class="st2" d="M45.1,52.2c0.4-0.2,0.8-0.4,1.2-0.7c0.4-0.1,0.6,0,0.6,0.4c0,0.4-0.4,0.8-0.9,1c-0.1,0-0.3,0-0.4,0.1
		c-1.3,0.4-2.3,1.1-3.4,1.9c-0.2-0.4-0.1-0.6,0.2-0.8C43.4,53.5,44.2,52.8,45.1,52.2z"/>
	<path class="st3" d="M153.5,40.8c-0.8-0.6-1.6-1-2.6-0.9c-1.1,0.1-2,0.9-2.1,1.9c-0.3,0-0.3-0.3-0.3-0.5c-0.1-1.2,0.8-2.1,2-2.3
		c0.8-0.1,1.6,0,2.3,0.5c0.3,0.2,0.6,0.4,0.8,0.6C153.5,40.4,153.7,40.6,153.5,40.8z"/>
	<path class="st2" d="M152.7,39.6c-1-0.6-2.1-0.8-3.2-0.2c-0.8,0.4-1.3,1.6-0.8,2.3c0,0,0,0,0,0.1c-0.5,0.2-0.9-0.2-0.9-0.8
		c-0.1-0.8,0.4-1.7,1.2-2.1c1.1-0.5,2.1-0.6,3.3-0.3c0.2,0.1,0.4,0.2,0.6,0.4C153,39.3,153.1,39.5,152.7,39.6z"/>
	<path class="st7" d="M16.7,37.3c-1.6,0.1-3.2-1.5-3.1-3.2c0.1-1.7,1.4-3,3.1-3c1.7,0,3.1,1.3,3.1,3.2C19.8,36,18.4,37.4,16.7,37.3z
		"/>
	<path class="st1" d="M169.6,54c0.3,0.7,0.6,1.5,0.9,2.2c0,0.1,0,0.2,0.2,0.2c0.1,0.2,0,0.3-0.1,0.4c-0.1,0.1-0.2,0.3-0.2,0.6
		c0.2-0.2,0.2-0.5,0.3-0.6c0.1-0.2,0.1-0.4,0.3-0.4c0,0,0.1,0,0.1,0.1c0,0.4-0.2,0.8-0.4,1.2c-0.1,0.2-0.3,0.3-0.5,0.1
		c-0.4-0.4-0.5-0.9-0.7-1.4c-0.4-0.8-0.7-1.7-1.1-2.5c-0.1-0.1-0.2-0.2-0.2-0.3c-0.1-0.2-0.5,0.1-0.4-0.3c0.1-0.3,0.3,0,0.5,0
		c0.3,0,0.7,0,1,0c-0.4,0.3-0.2,0.6-0.1,1c0.3,0.7,0.6,1.4,0.9,2.1c-0.3-0.7-0.6-1.4-0.8-2.1c-0.3-0.7-0.3-0.7,0.4-0.9
		c0.1-0.1,0.2-0.2,0.3,0.1c0,0.1,0,0.2-0.2,0.2c-0.1,0-0.2,0-0.3,0.1C169.6,53.7,169.6,53.9,169.6,54z"/>
	<path class="st2" d="M126.7,50.7c0,0.2,0,0.4-0.3,0.3c-1.6,0-3.2,0-4.8,0c-0.1,0-0.1,0-0.2-0.1c0.4-0.5,0.8-0.8,1.5-0.7
		c0.4,0,0.7,0,1.1,0c0.4,0,0.7,0,1.1,0.2c0.6,0.2,1.1,0,1.6-0.2C126.7,50.4,126.7,50.6,126.7,50.7z"/>
	<path class="st8" d="M81.7,55.3c0.1,1.9-1.4,3.1-3,3.1c-1.7,0-3-1.3-3.1-3.1c0-1.6,1.4-3.1,3.1-3.1C80.3,52.2,81.8,53.7,81.7,55.3z
		"/>
	<path class="st2" d="M102,51.1c-1,0-2,0-3,0c-0.7,0-1.4,0-2.1,0.1c0,0-0.1,0-0.2-0.1c0.3,0,0.4-0.2,0.6-0.4
		c0.2-0.3,0.5-0.4,0.9-0.4c0.4,0,0.9,0,1.3,0c0.4,0,0.8,0,1.1,0.2c0.5,0.3,0.9-0.1,1.4-0.3C102,50.6,102,50.8,102,51.1z"/>
	<path class="st2" d="M146.7,50.1c-0.4,0.1-0.6,0.2-0.8,0.5c-0.3-0.4-0.2-0.9-0.1-1.3c0-0.4,0.1-0.7,0.1-1.1c0-0.5,0.1-0.9,0.1-1.3
		c0-0.2,0.1-0.2,0.2-0.2c0.3,0,0.5,0,0.8,0c0,0.1,0,0.2,0,0.2c-0.4,0.8-0.4,1.6,0.1,2.4C146.9,49.7,147,50,146.7,50.1z"/>
	<path class="st1" d="M157.6,56.9c0.4,0.4,0.9,0.5,1.4,0.2c0.1-0.1,0.2,0,0.2,0.1c-0.5,0.5-1.1,0.4-1.6,0.3c-0.1,0-0.3,0-0.4-0.1
		c-0.1,0-0.1-0.1-0.2-0.2c-0.6-0.8-0.5-2.1,0.4-2.6c0.5-0.3,1.2-0.3,1.8,0.1c0.1,0.2,0.1,0.3,0.1,0.5c0,0.4-0.3,0.6-0.7,0.7
		c-0.3,0-0.6,0-0.8,0c-0.3,0-0.5,0.2-0.3,0.5C157.5,56.7,157.6,56.8,157.6,56.9z"/>
	<path class="st9" d="M171.1,56.4c-0.3,0.3-0.3,0.7-0.6,1.1c-0.1,0.1-0.1,0.2-0.2,0.2c-0.1-0.1,0-0.2,0-0.3c0-0.4,0.4-0.5,0.5-0.9
		c0,0,0,0,0,0c0.1-0.1,0.1-0.3,0.2-0.4l0,0c0.1-0.1,0.1-0.3,0.2-0.4l0,0c0.3-0.6,0.6-1.3,0.8-2c0.1-0.3,0.2-0.4,0.5-0.5c0,0,0,0,0,0
		c0.1,0,0.3-0.1,0.4,0.1c0.1,0.2-0.2,0.1-0.3,0.2c0.1,0.1,0.1,0,0.2,0c0.1,0,0.2,0,0.3,0.1c0.1,0.2-0.1,0.2-0.2,0.2
		c-0.2,0.1-0.2,0.2-0.3,0.4c-0.5,1.2-1,2.4-1.5,3.6c-0.1,0.2-0.1,0.4-0.4,0.4c-0.2,0-0.2-0.2-0.3-0.4c0.3,0,0.5-0.1,0.5-0.4
		C170.8,57,171,56.7,171.1,56.4c0-0.1,0-0.1,0.1-0.2C171.1,56.3,171.1,56.3,171.1,56.4z"/>
	<path class="st10" d="M152.7,39.6c0.3-0.3,0.1-0.5-0.2-0.6c-1-0.6-2.1-0.5-3.2-0.1c-0.7,0.3-1.2,0.8-1.4,1.5
		c-0.2,0.7,0.1,1.4,0.8,1.4c0.1,0.2,0.3,0.3,0.5,0.4c-0.8,0.5-1.6,0-1.7-0.9c0-0.5,0-1,0.3-1.5c1-1.2,2.3-1.5,3.7-1.4
		c0.5,0.1,1,0.2,1.5,0.5c0.4,0.2,0.6,0.4,0.5,0.9c0,0.1-0.1,0.3-0.3,0.3C153.2,39.9,153,39.8,152.7,39.6z"/>
	<path class="st11" d="M70,58.2c0-1.6,1.2-2.8,2.8-2.8c1.5,0,2.8,1.2,2.8,2.9c0,1.6-1.3,2.9-2.8,2.9C71.2,61.1,70,59.8,70,58.2z"/>
	<path class="st12" d="M53.9,62.6c0.6,1.3-0.2,2.6-1.4,2.8c-0.9,0.2-1.7-0.2-2.1-1c-0.3-0.6-0.3-1.3,0-1.9c0.7-1,1.5-1.1,2.3-0.9
		C53.2,61.8,53.5,62.2,53.9,62.6z"/>
	<path class="st13" d="M43.2,28.1c-1.1,0-2-0.9-2-2c0-1.2,1-2,2-2c1.2,0,2,0.8,2,2C45.2,27.3,44.3,28.2,43.2,28.1z"/>
	<path class="st14" d="M163,56.7c-0.5-0.1-0.5-0.5-0.6-0.9c-0.2-0.8-0.2-1.5,0.4-2.1c0.5-0.5,1.5-0.6,2.1-0.3
		c0.2,0.1,0.3,0.3,0.5,0.5c0,0.1,0,0.1,0,0.2c-0.5-0.3-1.1-0.4-1.7-0.2c-0.9,0.4-1.3,1.6-0.9,2.5C163,56.6,163,56.6,163,56.7z"/>
	<path class="st10" d="M78.6,50.1c-0.6,0.6-1.4,0.5-2.1,0.4c-1.6-0.3-3.1-0.4-4.7,0c-0.7,0.2-1.4,0.2-2,0.6
		c-0.2-0.1-0.1-0.2-0.1-0.3c0.9-0.4,1.9-0.4,2.8-0.8c0.3-0.2,0.6-0.2,0.9-0.2c0.8,0,1.6,0,2.4,0.1c0.4,0.1,0.8,0.1,1.1,0.3
		c0.4,0.1,0.7,0.1,1.1-0.2c0.1-0.1,0.3-0.2,0.5-0.2C78.7,49.9,78.6,50,78.6,50.1z"/>
	<path class="st15" d="M49,64c0,0.9-0.7,1.7-1.6,1.7c-0.9,0-1.7-0.7-1.7-1.7c0-0.9,0.7-1.6,1.7-1.6C48.3,62.3,49,63,49,64z"/>
	<path class="st16" d="M155,57.6c0.3-0.3,0.4-0.6,0.4-1c0-1,0-1.9,0-2.9c0-0.3,0.1-0.6,0.3-0.8c0.4,1.3,0.1,2.7,0.2,4
		c0,0.2-0.1,0.4,0.2,0.4c0.1,0,0.1,0.1,0.1,0.2c-0.1,0.1-0.2,0.1-0.3,0.1C155.6,57.8,155.4,57.8,155,57.6
		C155.1,57.6,155,57.6,155,57.6z"/>
	<path class="st11" d="M67.1,62.6c-1.5-0.1-2.5-1.2-2.5-2.5c0-1.5,1.1-2.5,2.5-2.5c1.4,0,2.5,1.1,2.5,2.5
		C69.6,61.5,68.6,62.6,67.1,62.6z"/>
	<path class="st17" d="M25.7,29.5c0-1.4,1.1-2.6,2.5-2.6c1.4,0,2.5,1.1,2.5,2.5c0,1.3-1.1,2.6-2.5,2.6C26.8,32,25.7,30.9,25.7,29.5z
		"/>
	<path class="st18" d="M55.5,26.6c0-0.7,0.6-1.4,1.3-1.4c0.7,0,1.4,0.7,1.3,1.3c0,0.7-0.4,1.3-1.3,1.4C56.2,28,55.5,27.4,55.5,26.6z
		"/>
	<path class="st19" d="M49.6,25.8c0,0.8-0.8,1.6-1.8,1.5c-0.8-0.1-1.5-1-1.5-1.7c0.1-1.1,0.9-1.7,1.7-1.6C49,24,49.7,24.8,49.6,25.8
		z"/>
	<path class="st17" d="M20.2,32.9c-0.6-1-0.7-2-0.1-3c0.6-1,1.4-1.5,2.6-1.4c1.2,0,2.4,1.1,2.6,2.3c0.2,1.2-0.2,2.1-1.1,2.8
		c-0.1,0-0.1,0.1-0.2,0.1c-0.1,0-0.1,0-0.2,0c0-0.1,0.1-0.2,0.1-0.3c1.1-0.9,1.3-2.3,0.6-3.5c-0.1-0.3-0.3-0.5-0.6-0.7
		c-0.2,0-0.3-0.2-0.4-0.3c-0.1-0.1-0.3-0.1-0.5-0.2c0,0-0.1,0-0.1,0c-0.3,0-0.7,0-1,0c0,0-0.1,0-0.1,0c-0.1,0-0.3,0.1-0.4,0.2
		c-0.1,0.1-0.2,0.1-0.3,0.2c-0.3,0.1-0.5,0.4-0.7,0.6c-0.1,0.1-0.2,0.2-0.3,0.4c-0.1,0.1-0.1,0.3-0.2,0.5c0,0.1-0.1,0.2-0.1,0.3
		c-0.1,0.5-0.1,1,0.2,1.5c0,0.1,0.1,0.1,0.1,0.2C20.2,32.7,20.4,32.8,20.2,32.9z"/>
	<path class="st3" d="M100.3,49.6C100.3,49.5,100.2,49.5,100.3,49.6c-0.2-1.9-0.2-3.6-0.1-5.4c0.1-1.8,0-3.7,0.1-5.5
		c0.2,0,0.2,0.2,0.2,0.3c0,2.1,0.1,4.2,0,6.3C100.3,46.7,100.3,48.1,100.3,49.6z"/>
	<path class="st2" d="M153.8,42C153.7,42,153.7,42,153.8,42c-0.1-0.2,0-0.4,0.1-0.6c0.2-0.4,0.3-0.7,0.2-1.2c-0.1-0.3-0.1-0.6,0-0.9
		c0-0.5,0.3-0.8,0.8-0.9c0,0.2,0,0.3,0,0.5c0.1,0.8,0,1.6,0,2.3C154.8,42.1,154.5,42.3,153.8,42z"/>
	<path class="st15" d="M44.2,63.8c0,0.8-0.6,1.4-1.4,1.4c-0.9,0-1.4-0.6-1.4-1.4c0-0.8,0.7-1.4,1.4-1.4
		C43.6,62.4,44.4,63.1,44.2,63.8z"/>
	<path class="st6" d="M55.7,64.5c-1.3-0.7-1.4-2.4-0.5-3.3c0.5-0.5,1.2-0.8,2-0.6c0.8,0.2,1.4,0.7,1.6,1.6c0.2,0.9-0.2,1.9-1,2.3
		c0,0,0-0.1-0.1-0.1c0,0,0,0,0-0.1c0,0,0-0.1,0.1-0.1c0.2-0.1,0.3-0.3,0.5-0.5c0,0,0-0.1,0.1-0.1c0.1-0.1,0.1-0.2,0.1-0.4
		c0,0,0-0.1,0-0.1c0.2-0.8,0-1.6-0.8-2c-1.1-0.6-1.9-0.3-2.6,0.7c-0.4,0.7-0.3,1.4,0.2,2c0.1,0.1,0.3,0.3,0.4,0.4
		C55.8,64.4,55.8,64.4,55.7,64.5z"/>
	<path class="st20" d="M34.6,26c1.1,0.6,1.4,1.7,1.2,2.6c-0.3,1.2-1.2,1.9-2.4,1.9c-0.8,0-1.8-0.6-2.1-1.8c0.1-0.4-0.1-0.7,0.1-1.1
		c0.3,0.1,0.2,0.3,0.2,0.5c0,0.5,0.1,0.9,0.4,1.3c0.5,0.6,1.3,0.9,2,0.8c1-0.2,1.6-1.1,1.6-1.8c0.1-0.8-0.3-1.5-0.9-2
		c-0.1-0.1-0.2-0.1-0.2-0.2C34.4,25.9,34.5,26,34.6,26z"/>
	<path class="st21" d="M37.2,63c-0.1-0.6,0.5-1.3,1.3-1.4c0.7,0,1.3,0.6,1.3,1.3c0,0.7-0.6,1.3-1.3,1.4C37.8,64.3,37.2,63.7,37.2,63
		z"/>
	<path class="st10" d="M135.9,57.3c-0.2,0.5-0.8,0.7-1.3,0.6c-1.4-0.3-2.7-0.4-4.1-0.2c-0.1-0.3,0.2-0.2,0.3-0.4c0,0,0,0,0,0
		c0.6,0,1.2,0,1.9,0c0.4,0,0.7,0.1,1.1,0.2c0.1-0.1,0.2-0.1,0.3,0c0.6,0.2,1.1,0.2,1.5-0.2C135.8,57.3,135.9,57.3,135.9,57.3z"/>
	<path class="st22" d="M33.5,60.3c0-0.6,0.5-1.1,1.1-1.1c0.6,0,1.1,0.5,1.1,1.1c0,0.6-0.5,1.2-1.1,1.1C34.1,61.4,33.4,61,33.5,60.3z
		"/>
	<path class="st2" d="M96.6,49.9c0-0.1,0-0.2,0-0.3c0.2-0.3,0.4-0.5,0.4-0.8c0-0.2,0.2-0.3,0.4-0.3c0.2,0,0.3,0.2,0.3,0.4
		c0,0.4,0,0.8-0.2,1.2c-0.3,0.3-0.7,0.6-0.9,0.9C96.5,50.6,96.6,50.2,96.6,49.9z"/>
	<path class="st3" d="M144.2,57.6c0.4-0.1,0.5-0.5,0.6-0.8c0.2-0.8,0.4-0.9,1.2-0.7c0.1,0,0.2,0,0.3,0c0.4-0.1,0.7,0,0.7,0.5
		c-0.3,0-0.6,0-1,0c-0.7,0-0.7,0-0.9,0.7c-0.1,0.1-0.1,0.2-0.1,0.3C144.8,57.6,144.5,57.6,144.2,57.6z"/>
	<path class="st23" d="M140.3,57.7c0.2,0,0.4-0.1,0.6-0.3c0.1,0,0.1-0.1,0.2-0.1c0.1-0.1,0.2-0.2,0.3-0.3c0.2-0.2,0.2-0.4,0.3-0.6
		c0.1-0.1,0-0.3,0.1-0.4c0.3,0.7,0.1,1.5-0.6,1.9c-0.8,0.4-1.5,0.4-2.3,0.1c-0.2-0.1-0.2-0.2-0.2-0.3c0,0,0.1-0.1,0.2-0.1
		C139.3,57.6,139.8,57.6,140.3,57.7z"/>
	<path class="st24" d="M116.5,39.7c-0.1,0.1-0.2,0.2-0.3,0.2c-0.4,0.3-0.6,0.2-0.8-0.2c-0.3-0.5-0.2-1-0.2-1.5
		C115.8,38.5,116.2,39.1,116.5,39.7z"/>
	<path class="st3" d="M153.8,42c0.3-0.1,0.7,0.1,0.9-0.1c0.2-0.2,0-0.6,0.1-0.9c0.2-0.7,0-1.4,0.1-2c0.2,0.3,0.2,0.6,0.1,1
		c0,0.1,0,0.2,0,0.3c0.1,0.7-0.1,1.4-0.1,2.1c0,0.2-0.1,0.3-0.3,0.3C153.8,42.8,153.8,42.8,153.8,42z"/>
	<path class="st3" d="M71.8,33.6c0.1,0.2,0.1,0.3,0.1,0.5c-0.4-0.3-0.9-0.3-1.4-0.3c-0.7,0-0.6,0.1-0.6-0.6c0-0.1,0-0.1,0-0.2
		c0,0,0.1-0.1,0.1-0.1c0.6-0.1,1.1,0,1.6,0.2C71.8,33.3,71.9,33.4,71.8,33.6z"/>
	<path class="st25" d="M53.9,25.8c0,0.8-0.6,1.4-1.4,1.4c-0.8,0-1.4-0.6-1.4-1.4c0-0.8,0.7-1.5,1.4-1.4
		C53.2,24.4,53.9,24.9,53.9,25.8z"/>
	<path class="st3" d="M96.6,40.8c0,0.1,0,0.2,0,0.3c-0.4-0.2-0.8-0.3-1.3-0.3c-0.5,0-0.5,0-0.5-0.5c0-0.1,0-0.1,0-0.2
		c0-0.1,0.1-0.1,0.2-0.1c0.5,0,0.9,0,1.3,0.1c0.1,0.1,0.2,0.2,0.3,0.3C96.6,40.6,96.6,40.7,96.6,40.8z"/>
	<path class="st3" d="M88.4,40.6c0,0.2,0.1,0.3,0.1,0.5c-0.4-0.3-0.9-0.2-1.3-0.2c-0.5,0-0.5,0-0.5-0.5c0-0.1,0-0.2,0-0.3
		c0,0,0.1-0.1,0.1-0.1c0.5,0.1,0.9-0.1,1.4,0.1C88.3,40.3,88.4,40.4,88.4,40.6z"/>
	<path class="st26" d="M61.9,29.3c0,0.6-0.5,1.1-1.1,1.1c-0.6,0-1.1-0.5-1.1-1.1c0-0.6,0.5-1.2,1.1-1.2
		C61.3,28.1,61.9,28.7,61.9,29.3z"/>
	<path class="st3" d="M162.2,57c0.1,0.1,0.2,0.1,0.3,0.2c0.8,0.5,1.7,0.6,2.7,0.4c0.2,0,0.4-0.1,0.5-0.1c0.1,0,0.2,0,0.4-0.1
		c-0.1,0.5-0.5,0.5-0.8,0.6c-0.9,0.2-1.8,0.1-2.6-0.5C162.4,57.4,162.3,57.2,162.2,57z"/>
	<path class="st2" d="M78.5,49.8c-0.6,0.5-1.2,0.7-1.9,0.4c-0.2-0.1-0.5,0-0.7-0.2c-0.1-0.1-0.2-0.1-0.1-0.2c0.2,0,0.5,0.1,0.7-0.2
		C77.1,49.8,77.8,49.8,78.5,49.8z"/>
	<path class="st3" d="M105.5,41c0,0.1,0,0.1,0,0.2c-0.4-0.2-0.8-0.3-1.2-0.3c-0.4,0-0.5-0.1-0.5-0.5c0-0.1,0-0.2,0-0.3
		c0,0,0.1-0.1,0.1-0.1c0.4-0.1,0.8,0,1.2,0.2c0.1,0.1,0.3,0.2,0.3,0.4C105.4,40.8,105.4,40.9,105.5,41z"/>
	<path class="st4" d="M146.8,49.4c-0.6-0.9-0.5-1.7,0-2.6c0.2,0,0.2,0.1,0.2,0.3c-0.1,0.4-0.3,0.9-0.2,1.3c0.1,0.2,0.1,0.5,0.4,0.5
		c0.3,0.2,0.6,0.4,0.8,0.7C147.6,49.9,147.2,49.9,146.8,49.4z"/>
	<path class="st10" d="M154.8,38.5c-0.7,0.3-0.8,1-0.6,1.6c0.1,0.6,0,1.1-0.4,1.6c-0.1,0.1-0.1,0.1-0.1,0.2
		c-0.2-0.1-0.1-0.3-0.1-0.5c0.4-0.5,0.3-1.1,0.1-1.7c0-0.2-0.1-0.5,0.1-0.7c0.2-0.3,0.4-0.6,0.6-0.8
		C154.6,38.3,154.8,38.3,154.8,38.5z"/>
	<path class="st10" d="M107.9,39.2c0.2-0.5,0.5-0.9,0.8-1.4c0.1,0.1,0.2,0.2,0.1,0.4c-0.1,0.2-0.2,0.4-0.3,0.6
		c-0.2,0.4-0.2,0.5,0.2,0.6c0,0,0.1,0,0.1,0.1c0,0.1,0,0.3,0,0.4c-0.2,0-0.3,0.1-0.5,0.2c-0.4,0.2-0.5,0.1-0.6-0.4
		C107.9,39.5,107.9,39.3,107.9,39.2z"/>
	<path class="st27" d="M62.4,38c0,0.4-0.3,0.7-0.6,0.7c-0.4,0-0.6-0.3-0.6-0.7c0-0.4,0.2-0.6,0.6-0.6C62.1,37.3,62.4,37.6,62.4,38z"
		/>
	<path class="st28" d="M169.7,53.2c0,0.1,0,0.2-0.1,0.2c-0.4,0-0.4,0.2-0.2,0.5c0.3,0.8,0.6,1.6,1,2.4c0,0.1,0.1,0.2,0,0.3
		c-0.2,0-0.2-0.1-0.3-0.2c-0.3-0.8-0.6-1.5-1-2.3c-0.2-0.4-0.2-0.7,0.3-0.9C169.5,53.2,169.6,53.2,169.7,53.2z"/>
	<path class="st29" d="M138.6,55.1c0.6,0.2,1.2,0.3,1.8,0.5c0.1,0,0.3,0.1,0.3,0.3c0,0.1,0,0.2-0.1,0.3c-0.4-0.1-0.9-0.1-1.3-0.3
		c-0.3-0.1-0.5-0.2-0.5-0.5c0.4,0,0.9,0.3,1.3,0.3c0.1,0,0-0.1,0,0c-0.5,0-0.9-0.2-1.3-0.3C138.7,55.3,138.7,55.2,138.6,55.1z"/>
	<path class="st10" d="M70,33.1C70,33.1,69.9,33.1,70,33.1c-0.3,0-0.4,0-0.3-0.3c0.8-0.5,1.6-0.5,2.4,0c0.3,0.3,0.3,0.4-0.1,0.7
		c0,0-0.1,0-0.1,0c-0.1-0.1-0.1-0.2-0.2-0.4c-0.4-0.5-0.7-0.6-1.3-0.3C70.2,33,70.1,33,70,33.1z"/>
	<path class="st3" d="M128.4,40.1c0.1,0,0.2,0,0.4,0c0.7,0,0.7,0,0.7,0.8c-0.2,0-0.5,0-0.7,0c-0.4,0-0.5-0.1-0.5-0.5
		C128.3,40.3,128.3,40.2,128.4,40.1C128.4,40.1,128.4,40.1,128.4,40.1z"/>
	<path class="st30" d="M146.8,49.4c0.4,0.4,0.8,0.4,1.2,0.2c0.1,0,0.2,0.1,0.2,0.1c-0.5,0.3-0.2,0.5,0,0.8c-0.5-0.1-1-0.4-1.6-0.3
		C146.9,49.9,146.8,49.6,146.8,49.4z"/>
	<path class="st3" d="M157,57.3c0.1,0,0.1,0.1,0.2,0.1c0.5,0.2,1,0.3,1.5,0.2c0.1,0,0.3,0,0.4,0c0.1,0,0.2-0.1,0.4,0
		c-0.2,0.6-0.7,0.6-1.1,0.6C157.7,58.1,157.2,57.9,157,57.3z"/>
	<path class="st31" d="M157.6,56.9c-0.4-0.2-0.5-0.4-0.4-0.8c0-0.1,0.1-0.2,0.3-0.2c0.3,0,0.6,0,0.8,0c0.6,0,0.8-0.2,0.8-0.8
		c0-0.1,0-0.2,0-0.3c0.2,0.2,0.3,0.4,0.3,0.7c0.1,0.1,0,0.2,0,0.2c-0.1,0.2-0.3,0.3-0.5,0.4c-0.1,0-0.2,0-0.3,0c-0.3,0-0.6,0-0.9,0
		c-0.3,0.1-0.2,0.3-0.1,0.5C157.6,56.8,157.6,56.8,157.6,56.9z"/>
	<path class="st2" d="M135.7,57.2c-0.3,0.4-0.7,0.6-1.2,0.4c-0.2-0.1-0.5-0.1-0.7-0.2c0-0.1,0-0.2,0-0.3c0.1,0,0.1-0.1,0.2-0.1
		C134.6,57.2,135.1,57.2,135.7,57.2z"/>
	<path class="st32" d="M139.4,53.6c0.5-0.3,1.1-0.3,1.5,0c0,0.1,0,0.2-0.1,0.2c-0.7-0.2-1.2,0-1.5,0.6c-0.1,0-0.1,0-0.2-0.1
		C139.1,54,139.2,53.8,139.4,53.6z"/>
	<path class="st17" d="M31.5,27.5c-0.2,0.2-0.1,0.4-0.1,0.6c0,0.1,0,0.3-0.1,0.4c-0.2-0.7-0.1-1.3,0.3-1.9c0.7-1,1.8-1.3,2.9-0.8
		c-0.1,0-0.1,0-0.2,0.1c-0.1,0.1-0.2,0.1-0.3,0c-0.9-0.3-2.1,0.3-2.5,1.2C31.6,27.4,31.6,27.5,31.5,27.5z"/>
	<path class="st33" d="M39.1,29c-1.1,0.4-2.5-0.6-2.5-1.8c0-0.9,0.3-1.6,1.1-2.1c0.1-0.1,0.2-0.1,0.3-0.1c0.1,0,0.1,0,0.2,0
		c0,0.2-0.1,0.2-0.2,0.2c-1.1,0.6-1.4,1.6-0.8,2.7c0,0,0,0.1,0.1,0.1c0.4,0.6,1,0.8,1.7,0.8c0.1,0,0.2,0,0.3,0
		C39.1,28.9,39.1,28.9,39.1,29z"/>
	<path class="st10" d="M103.9,40.2C103.8,40.2,103.8,40.2,103.9,40.2c-0.3,0-0.3-0.1-0.3-0.3c0.4-0.3,0.9-0.3,1.3-0.3
		c0.7,0.1,0.9,0.4,0.4,1c-0.1-0.1-0.2-0.2-0.3-0.3c-0.3-0.4-0.4-0.5-0.9-0.3C104.1,40.1,104,40.1,103.9,40.2z"/>
	<path class="st34" d="M34.2,51.6c0,0.4-0.2,0.6-0.6,0.6c-0.3,0-0.6-0.3-0.7-0.6c0-0.4,0.3-0.7,0.7-0.7
		C33.9,50.9,34.2,51.2,34.2,51.6z"/>
	<path class="st31" d="M165.7,57.5c-0.9,0.4-2.6,0.4-3.2-0.3c0.6,0.1,1.1,0.3,1.7,0.4c0.5,0,1,0,1.4-0.4c0.1,0,0.2,0,0.2,0
		C165.8,57.3,165.7,57.4,165.7,57.5z"/>
	<path class="st2" d="M153.8,39.9c0.3,0.7,0.3,1.2-0.2,1.6c-0.2-0.2-0.1-0.4-0.1-0.7c0.1-0.2-0.1-0.4-0.1-0.7
		c0.1-0.1,0.1-0.2,0.2-0.3C153.7,39.7,153.8,39.7,153.8,39.9z"/>
	<path class="st3" d="M159.4,55.8c0-0.1,0-0.2,0-0.3c0,0,0,0,0,0c0.3,0.9,0.3,0.9-0.6,0.9c-0.3,0-0.6,0-0.9,0
		c-0.2,0-0.3,0.1-0.3,0.3c-0.1-0.2-0.3-0.4,0-0.6c0.4,0.1,0.7,0.1,1.1,0c0.1,0,0.2,0,0.3,0C159.2,56,159.4,56,159.4,55.8z"/>
	<path class="st4" d="M96.5,40.5c-0.1-0.1-0.2-0.2-0.3-0.3c-0.3-0.5-0.6-0.5-1.3-0.2c-0.1,0-0.1,0-0.2,0c-0.2,0-0.2-0.1-0.2-0.3
		c0.5-0.2,1-0.3,1.5-0.2c0.1,0,0.3,0.1,0.4,0.1c0.2,0.1,0.3,0.1,0.3,0.3C96.8,40.3,96.8,40.5,96.5,40.5z"/>
	<path class="st10" d="M88.4,40.6c-0.1-0.1-0.2-0.2-0.3-0.4c-0.4-0.4-0.6-0.4-1.1-0.2c-0.1,0-0.2,0.1-0.4,0.1c0,0-0.1,0-0.1,0
		c-0.1,0-0.2-0.1-0.2-0.2c0.6-0.4,1.2-0.4,1.8-0.2c0.3,0.2,0.4,0.4,0.3,0.8C88.5,40.6,88.5,40.6,88.4,40.6z"/>
	<path class="st21" d="M32.8,56.4c-0.5,0-0.8-0.3-0.8-0.8c0-0.4,0.4-0.8,0.8-0.8c0.4,0,0.8,0.4,0.8,0.8C33.6,56,33.2,56.4,32.8,56.4
		z"/>
	<path class="st35" d="M130.9,57.3c-0.1,0.2-0.3,0.2-0.3,0.4c-0.6,0.3-1.3,0.2-1.8,0.5c-0.2,0.1-0.3,0.2-0.4,0.3
		c-0.2,0-0.2-0.1-0.2-0.3c0.4-0.2,0.9-0.4,1.4-0.4C130,57.7,130.4,57.4,130.9,57.3z"/>
	<path class="st3" d="M154.8,57.4c0,0.1,0,0.2,0,0.2c-0.7,0.7-1.4,0.6-1.8-0.2c0.1,0,0.1,0,0.2,0c0.4,0.2,0.8,0.1,1.2-0.1
		C154.6,57.4,154.7,57.3,154.8,57.4z"/>
	<path class="st36" d="M53.9,62.6c-0.2,0.1-0.2-0.1-0.3-0.2c-0.7-1.1-2.5-1.1-3.1,0.1c0,0,0,0-0.1,0.1c-0.1-0.1-0.1-0.2,0-0.3
		c0.9-1.2,2.6-1.1,3.3,0.2C53.8,62.5,53.8,62.6,53.9,62.6z"/>
	<path class="st2" d="M133.6,38.3c0,0.4,0,0.8,0,1.2c-0.2,0.2-0.4,0.3-0.6,0.1C132.8,39.1,133.1,38.4,133.6,38.3z"/>
	<path class="st3" d="M147.9,57.7c0.3,0,0.5,0,0.8,0.1c0.1,0,0.2,0.1,0.2,0.2c0,0.1-0.1,0.1-0.2,0.1c-0.5-0.1-1.1-0.1-1.6,0
		c-0.1,0-0.2,0-0.2-0.1c0-0.1,0.1-0.2,0.2-0.2C147.4,57.7,147.7,57.7,147.9,57.7z"/>
	<path class="st37" d="M133.6,38.3c-0.5,0.4-0.7,0.9-0.6,1.3c-0.1,0.2-0.3,0.2-0.5,0.1c0,0,0,0,0,0c0.2-0.7,0.5-1.3,1-1.7
		C133.6,38,133.7,38.1,133.6,38.3z"/>
	<path class="st38" d="M172.3,53.2c-0.5,0.3-0.5,0.9-0.7,1.4c-0.2,0.3-0.2,0.8-0.5,1.1c0.1-0.6,0.5-1.2,0.7-1.9
		c-0.1-0.1-0.1-0.2,0-0.3c-0.1-0.2-0.2-0.1-0.4-0.1c-0.2,0-0.1-0.1-0.1-0.2c0-0.1,0.1-0.1,0.2-0.1C171.7,53.2,172,53.1,172.3,53.2z"
		/>
	<path class="st10" d="M132.6,39.6c0.2,0,0.3-0.1,0.5-0.1c0.2,0.1,0.4,0,0.6-0.1c0,0.1,0,0.3,0,0.4c-0.1,0.1-0.2,0.1-0.3,0.2
		c-0.2,0.1-0.4,0.2-0.6,0.1C132.6,40.1,132.5,39.8,132.6,39.6z"/>
	<path class="st2" d="M118.5,50c-0.2,0.3-0.5,0.4-0.9,0.3c-0.3-0.1-0.5-0.2-0.8-0.3c0.2-0.1,0.4-0.2,0.6-0.3
		C117.7,49.8,118.1,49.9,118.5,50z"/>
	<path class="st2" d="M147.2,48.9c-0.3,0.2-0.4,0-0.4-0.2c-0.2-0.6-0.2-1.1,0.2-1.6C147.1,47.6,146.9,48.3,147.2,48.9z"/>
	<path class="st37" d="M68.5,42.6c-0.3,0.3-0.5,0.6-0.8,0.8c-0.2,0.2-0.3,0.5-0.4,0.7c-0.1,0.2-0.1,0.3-0.3,0.5
		c-0.2-0.3,0.1-0.6,0-0.9c0,0,0-0.1,0.1-0.1c0.3-0.4,0.8-0.6,1.1-1C68.2,42.6,68.4,42.6,68.5,42.6z"/>
	<path class="st39" d="M23.9,33.7c0.1,0,0.1,0,0.2,0c-0.7,0.7-2.3,0.7-3.1,0c0-0.1,0.1-0.1,0.2-0.1c0.4,0,0.7,0.3,1.1,0.3
		c0.4,0.1,0.8-0.1,1.3-0.2C23.7,33.7,23.8,33.6,23.9,33.7z"/>
	<path class="st2" d="M108.9,39.4c-0.2-0.1-0.5,0.1-0.6-0.1c-0.1-0.2,0-0.5,0.2-0.7c0.1-0.2,0.2-0.4,0.4-0.5
		C108.9,38.6,108.9,39,108.9,39.4z"/>
	<path class="st40" d="M126.4,50c-0.4,0.5-0.9,0.4-1.4,0.1c0-0.1,0.2-0.2,0.2-0.4C125.6,49.9,126,49.8,126.4,50z"/>
	<path class="st31" d="M159.1,57.6c-0.5,0.1-1,0.3-1.6,0.1c-0.1-0.1-0.3-0.1-0.4-0.3c0.5,0,1.1,0.2,1.6,0c0.2-0.1,0.3-0.1,0.5-0.2
		C159.3,57.4,159.1,57.4,159.1,57.6z"/>
	<path class="st38" d="M142.5,57.5c-0.2-0.3-0.2-0.6,0.1-0.8c0.2-0.1,0.5-0.2,0.6,0.2C143.2,57.4,142.9,57.5,142.5,57.5z"/>
	<path class="st38" d="M149.4,57.6c-0.2-0.1-0.3-0.2-0.2-0.5c0.1-0.2,0.2-0.3,0.4-0.3c0.2,0,0.4,0,0.4,0.2
		C150,57.3,149.8,57.5,149.4,57.6z"/>
	<path class="st17" d="M39.1,29C39.1,29,39.1,28.9,39.1,29c0.1-0.2,0.2-0.2,0.3-0.3c0.9-0.5,1.3-1.3,1-2.3c0-0.1-0.1-0.2,0-0.4
		c0,0,0.1,0,0.1,0C41.1,27.1,40.4,28.7,39.1,29z"/>
	<path class="st41" d="M172.6,57.6c-0.3-0.2-0.2-0.5-0.1-0.7c0.2-0.3,0.5-0.3,0.7,0C173.3,57.3,172.9,57.5,172.6,57.6z"/>
	<path class="st3" d="M155.1,57.7c0.3,0,0.5,0,0.8,0c0.1,0.1,0.2,0.1,0.3,0.2c0.1,0,0.2,0,0.2,0.2c0,0.1-0.2,0.1-0.2,0.1
		c-0.2,0-0.4,0-0.6,0C155.2,58.1,155.1,58,155.1,57.7z"/>
	<path class="st1" d="M166.6,57.6c-0.3-0.2-0.2-0.5-0.1-0.7c0.2-0.3,0.5-0.2,0.8,0C167.2,57.3,167,57.5,166.6,57.6z"/>
	<path class="st31" d="M154.5,57.5c-0.5,0.4-1,0.3-1.4,0c0-0.1-0.1-0.1-0.1-0.2c0.6,0.2,1.1,0,1.7-0.1
		C154.7,57.4,154.6,57.4,154.5,57.5z"/>
	<path class="st2" d="M110.3,50c-0.4,0.6-0.9,0.3-1.4,0c0.1-0.1,0.3-0.2,0.4-0.2C109.7,49.9,110,50,110.3,50z"/>
	<path class="st3" d="M144.9,57.7c0.2,0,0.3,0,0.5,0c0.1,0,0.2,0.1,0.2,0.2c0,0.1-0.1,0.1-0.2,0.1c-0.3-0.1-0.6-0.1-0.9,0
		c-0.1,0-0.2,0-0.2-0.1c0-0.1,0.1-0.2,0.2-0.2C144.5,57.7,144.7,57.7,144.9,57.7z"/>
	<path class="st3" d="M167.4,57.3c0.2,0.2,0.2,0.3,0.1,0.5c-0.1,0.2-0.3,0.3-0.5,0.3c-0.2-0.1-0.5-0.2-0.5-0.5
		C166.9,57.7,167.2,57.4,167.4,57.3z"/>
	<path class="st2" d="M101.6,50c-0.4,0.4-0.5,0.4-1.3,0.1c0.1-0.1,0.2-0.2,0.2-0.3C100.9,49.9,101.3,50,101.6,50z"/>
	<path class="st3" d="M150.3,57.3c0.2,0.2,0.2,0.4,0.1,0.6c-0.1,0.2-0.3,0.3-0.4,0.3c-0.2-0.1-0.4-0.2-0.5-0.5
		C149.8,57.7,150,57.4,150.3,57.3z"/>
	<path class="st37" d="M61.7,44.8c-0.5,0.1-0.8,0.5-1.2,0.8c-0.1,0-0.3,0.1-0.4-0.1c0.5-0.3,0.9-0.6,1.4-0.9
		C61.7,44.6,61.7,44.7,61.7,44.8z"/>
	<path class="st3" d="M173.4,57.3c0.2,0.1,0.2,0.3,0.1,0.5c-0.1,0.2-0.3,0.3-0.5,0.3c-0.2,0-0.5-0.2-0.5-0.5c0.1-0.1,0.3,0,0.5-0.1
		c0.1,0,0.2-0.1,0.2-0.2C173.3,57.3,173.4,57.3,173.4,57.3z"/>
	<path class="st3" d="M143.4,57.3c0.2,0.1,0.3,0.2,0.2,0.4c-0.1,0.2-0.2,0.4-0.5,0.4c-0.2,0-0.5-0.2-0.5-0.5c0.1-0.1,0.3,0,0.5-0.1
		C143.2,57.5,143.2,57.5,143.4,57.3C143.3,57.3,143.3,57.3,143.4,57.3z"/>
	<path class="st42" d="M40.4,26C40.4,26,40.4,26,40.4,26c-0.7-0.7-1.4-1-2.3-1c0,0,0,0-0.1-0.1c-0.1,0-0.1,0-0.2,0
		C38.7,24.5,40.1,25.1,40.4,26z"/>
	<path class="st43" d="M128.4,40.1C128.4,40.1,128.4,40.1,128.4,40.1c-0.3,0-0.4,0-0.3-0.2c0.6-0.3,1.2-0.4,1.8-0.2
		c0,0,0.1,0,0.1,0.1c-0.1,0.2-0.3,0.1-0.4,0.1C129.1,39.7,128.7,39.7,128.4,40.1z"/>
	<path class="st44" d="M55.7,64.5c0-0.1,0-0.1,0-0.2c0.1-0.1,0.2,0,0.3,0c0,0,0.1,0,0.1,0c0.4,0.1,0.8,0.1,1.2,0c0,0,0.1,0,0.1,0
		c0.1,0,0.2-0.1,0.3,0c0,0,0,0.1,0,0.1C57.2,64.8,56.5,64.9,55.7,64.5z"/>
	<path class="st45" d="M167.4,57.3c-0.2,0.3-0.4,0.6-0.8,0.3c0,0,0-0.1,0-0.1c0.2-0.2,0.5-0.4,0.7-0.7
		C167.3,57,167.4,57.2,167.4,57.3z"/>
	<path class="st31" d="M150.3,57.3c-0.2,0.3-0.4,0.6-0.8,0.3c0,0,0-0.1,0-0.1c0.2-0.2,0.5-0.4,0.7-0.6
		C150.2,57.1,150.3,57.2,150.3,57.3z"/>
	<path class="st31" d="M173.4,57.3C173.4,57.3,173.4,57.4,173.4,57.3c-0.2,0.2-0.2,0.3-0.3,0.3c-0.2,0.2-0.3,0.1-0.5,0
		c0,0,0-0.1,0-0.1c0.2-0.2,0.6-0.3,0.7-0.7C173.4,57,173.4,57.1,173.4,57.3z"/>
	<path class="st46" d="M141.7,56.4c0,0.2-0.1,0.4-0.3,0.6c-0.1,0.1-0.2,0.2-0.3,0.3c0,0.1-0.1,0.1-0.2,0.1c0-0.1,0-0.1,0.1-0.2
		c0.7-0.5,0.7-1.1,0.4-1.8c0,0,0-0.1,0-0.1c0.2,0.1,0.3,0.3,0.3,0.6C141.7,56,141.7,56.2,141.7,56.4z"/>
	<path class="st47" d="M143.1,57.6c-0.2,0.2-0.3,0.1-0.5,0c0,0,0-0.1-0.1-0.1c0.3-0.1,0.6-0.3,0.8-0.6c0.1,0.1,0.1,0.2,0.1,0.3
		c0,0,0,0.1,0,0.1C143.3,57.5,143.2,57.6,143.1,57.6z"/>
	<path class="st31" d="M165.5,54.1c0-0.1,0-0.1,0-0.2c0.1-0.2,0-0.5,0.3-0.6c0.2,0.1,0,0.2,0,0.3c0.1,0.3,0.2,0.6-0.2,0.8
		C165.4,54.4,165.5,54.2,165.5,54.1z"/>
	<path class="st3" d="M165.7,54.4c0.2-0.2,0.2-0.5,0.2-0.8c0.2,0,0.3,0.1,0.2,0.3c-0.1,0.2,0,0.3-0.1,0.5c0,0.1,0,0.3-0.2,0.3
		C165.6,54.7,165.7,54.6,165.7,54.4z"/>
	<path class="st48" d="M141.3,54.3c0.1-0.2,0.2-0.4,0.2-0.7c0.2,0,0.2,0.1,0.2,0.3c-0.1,0.2,0.1,0.6-0.1,0.7
		C141.2,54.8,141.3,54.5,141.3,54.3z"/>
	<path class="st49" d="M21.2,33.7c-0.1,0-0.1,0-0.2,0c-0.4-0.2-0.6-0.5-0.8-0.8c0.1-0.1-0.1-0.2,0-0.3c0,0,0.1,0,0.1,0
		C20.5,33,20.9,33.3,21.2,33.7z"/>
	<path class="st8" d="M50.5,62.3c0,0.1,0,0.2,0,0.3c-0.3,0.4-0.3,0.9-0.2,1.4c0,0.2,0.1,0.3,0.1,0.5C50,63.7,50,63,50.5,62.3z"/>
	<path class="st50" d="M169.6,54c0-0.2-0.2-0.3-0.1-0.5c0,0,0,0,0,0c0.2,0,0.5-0.1,0.5,0.1c0,0.2-0.3,0.2-0.4,0.3
		C169.7,53.9,169.6,54,169.6,54z"/>
	<path class="st31" d="M147.2,57.6c0.5-0.3,0.7-0.3,1.1,0C148,57.6,147.6,57.6,147.2,57.6z"/>
	<path class="st41" d="M140.3,57.7c-0.6,0.1-1.1,0-1.7-0.2c0,0,0,0,0-0.1c0.1-0.1,0.2-0.1,0.3,0C139.4,57.6,139.9,57.6,140.3,57.7
		C140.3,57.7,140.3,57.7,140.3,57.7z"/>
	<path class="st19" d="M63.1,33.4c0.4,0.4,0.4,1-0.2,1.3c0,0-0.1,0-0.1,0c0,0,0-0.1,0-0.1c0.3-0.3,0.4-0.7,0.1-1
		C62.9,33.4,63,33.4,63.1,33.4z"/>
	<path class="st51" d="M140.3,57.6c-0.6,0.1-1.1-0.2-1.7-0.2c-0.1,0-0.1,0-0.2-0.1c0.2-0.1,0.4-0.1,0.6,0
		C139.5,57.6,139.9,57.5,140.3,57.6z"/>
	<path class="st30" d="M138.8,55.4c0.5,0.1,0.9,0.2,1.4,0.3C139.7,55.8,139.3,55.6,138.8,55.4C138.8,55.4,138.8,55.4,138.8,55.4z"/>
	<path class="st52" d="M145.1,57.6c-0.1-0.1-0.3,0-0.3-0.3c0.1-0.2,0.2,0,0.3-0.1c0.1,0.1,0.3,0.1,0.2,0.3
		C145.3,57.7,145.2,57.6,145.1,57.6z"/>
	<path class="st53" d="M62.8,34.6C62.8,34.6,62.9,34.6,62.8,34.6c-0.4,0.2-0.7,0.2-0.9-0.3c0,0,0-0.1,0-0.1
		C62.2,34.4,62.5,34.5,62.8,34.6z"/>
	<path class="st54" d="M63.1,33.4C63,33.4,63,33.4,63.1,33.4c-0.4,0-0.7,0.1-1,0.1c0,0,0-0.1,0-0.1C62.4,33.1,62.7,33.1,63.1,33.4z"
		/>
	<path class="st51" d="M139.2,54.3c0,0,0.1,0.1,0.1,0.1c0,0.1,0,0.1,0,0.2c-0.4-0.2-0.4-0.5-0.1-0.9
		C139.3,53.9,139.1,54.1,139.2,54.3z"/>
	<path class="st13" d="M62,33.3C62,33.4,62,33.4,62,33.3c0.1,0.4-0.1,0.6-0.2,0.8c0,0,0,0.1,0,0.1C61.7,33.9,61.7,33.6,62,33.3z"/>
	<path class="st3" d="M171.7,53.5c0,0.1,0,0.2,0,0.3c-0.1,0-0.3,0.1-0.3-0.1C171.4,53.5,171.6,53.5,171.7,53.5z"/>
	<path class="st55" d="M141.4,53.4c-0.2,0.1-0.1,0.3-0.2,0.5c-0.1-0.2,0-0.4,0.1-0.6C141.4,53.3,141.5,53.3,141.4,53.4z"/>
	<path class="st56" d="M154.8,53.5c0,0.1,0.1,0.2,0.1,0.3c-0.1,0-0.3,0.1-0.3-0.1C154.6,53.5,154.7,53.5,154.8,53.5z"/>
	<path class="st3" d="M168.3,53.5c0.1,0.1,0.1,0.2,0.2,0.3c-0.1-0.1-0.3,0-0.3-0.2C168.1,53.5,168.2,53.5,168.3,53.5z"/>
	<path class="st57" d="M140.8,53.8c-0.1-0.1-0.1-0.2,0.1-0.2c0.1,0.1,0.2,0.2,0.2,0.3C141,53.9,140.9,53.9,140.8,53.8z"/>
	<path class="st58" d="M140.7,56.2c-0.1-0.1-0.1-0.2,0.1-0.3c0.1,0.1,0.1,0.2,0.1,0.3C140.8,56.3,140.7,56.3,140.7,56.2z"/>
	<path class="st1" d="M171.1,55.6c0,0.2,0,0.3-0.2,0.4C170.9,55.9,170.9,55.7,171.1,55.6z"/>
	<path class="st59" d="M141.7,56.4c0-0.2,0-0.3,0-0.5c0,0,0.1,0,0.1,0.1C141.7,56.1,141.8,56.3,141.7,56.4z"/>
	<path class="st1" d="M170.9,56c0,0.2,0,0.3-0.2,0.4C170.7,56.3,170.8,56.1,170.9,56z"/>
	<path class="st2" d="M52,49.8c-1,0.6-2.1,0.9-3.2,0.9c-1.4,0.1-2.8-0.1-4-0.9c-0.1-0.1-0.2-0.1-0.3-0.2c-0.1-0.1-0.2-0.2-0.1-0.3
		c0.1-0.1,0.2-0.1,0.3-0.1c0.2,0,0.4,0.1,0.6,0c0,0,0.1,0,0.1,0c0.2,0,0.4,0.1,0.6,0.2c2.1,0.9,4.1,0.7,5.9-0.8
		c0.9-0.7,1.3-1.8,1.6-2.9c0.8-2.7,0.8-5.5,0-8.2c-0.1-0.4-0.3-0.7-0.4-1c0-0.5-0.1-0.9-0.3-1.3c-0.1-0.1-0.1-0.3,0-0.4
		c0.7,0.6,1.2,1.3,1.6,2.1c0.5,1,0.7,2.1,0.8,3.2c0.2,2,0,4-0.5,5.9c-0.4,1.5-1.1,2.9-2.6,3.7C52.1,49.6,52,49.7,52,49.8z"/>
	<path class="st4" d="M53,34.7c0.2,0.6,0.4,1.1,0.4,1.8c-0.1,0-0.1,0-0.2-0.1c-0.4-0.8-0.9-1.5-1.6-2.1c-0.1-0.1-0.1-0.2-0.2-0.3
		c-0.2-0.6-0.7-0.9-1.2-1.1c-0.8-0.4-1.7-0.4-2.6-0.4c-0.9,0.1-1.7,0.2-2.5,0.6c-1.4,0.7-2.2,1.8-2.8,3.1c-0.6,1.4-0.9,2.9-1,4.5
		c-0.1,1.6,0.2,3.2,0.8,4.7c0.3,0.7,0.7,1.4,1.4,1.9c0.3,0.2,0.4,0.5,0.6,0.8c0.3,0.3,0.6,0.6,0.9,0.8c0.1,0.1,0.3,0.1,0.3,0.3l0,0
		l0,0c-0.6,0.1-1.2,0.1-1.7-0.3c-0.6-0.4-1-1-1.4-1.6c-1-1.6-1.5-3.4-1.5-5.4c0-1.9,0.1-3.7,0.7-5.5c0.5-1.4,1.3-2.5,2.6-3.3
		c1.5-0.9,3.1-1,4.8-0.9c0.4,0,0.7,0.1,1.1,0.2c0.8,0.3,1.5,0.6,2.1,1.2C52.5,33.9,52.7,34.4,53,34.7z"/>
	<path class="st1" d="M44.1,33.1c-0.9,0.7-1.6,1.6-2.2,2.6c-0.5,0.9-0.7,2-0.9,3c-0.2,1.2-0.2,2.4-0.2,3.6c0.1,2.2,0.8,4.2,2.2,6
		c0.6,0.7,1.3,1,2.3,1c-0.2,0.3-0.4,0.1-0.6,0.1c-0.1,0-0.2-0.1-0.3,0c0,0.1,0.1,0.2,0.1,0.2c0.6,0.4,1.2,0.7,1.8,0.9
		c0.7,0.2,1.5,0.3,2.3,0.3c-0.3,0.2-0.7,0.1-1,0.1c-0.6,0-0.9,0.4-0.7,0.9c0.1,0.2,0.2,0.3,0.4,0.3c0.4,0.1,0.8,0.2,1.1-0.1
		c0.3,0.1,0.6,0.2,0.8,0.3c-0.7,0.1-1.4,0.1-2.1,0.3c0.2,0.2,0.4,0.2,0.6,0.3c1.6,0.4,3.1,1,4.6,1.5c1,0.3,2,0.8,3.1,0.7
		c-0.7,0.3-1.5,0.1-2.2-0.1c-2.4-0.5-4.7-1.3-7.1-1.8c-0.2-0.1-0.4,0-0.7-0.1c0.3-0.2,0.7-0.3,1-0.6c0.1-0.2,0.2-0.4,0.2-0.7
		c-0.1-0.2-0.3-0.3-0.5-0.2c-0.1,0-0.3,0-0.4,0c-0.1-0.2,0.1-0.4,0.2-0.5c0.1-0.2,0.1-0.3-0.1-0.4c-0.1-0.1-0.3-0.1-0.5-0.1
		c-1.9-0.3-3.6-1.3-5.1-2.4c-0.1-0.1-0.3-0.2-0.2-0.4c0.2-0.2,0-0.3-0.1-0.4c-0.7-1.3-1-2.7-1.1-4.2c-0.1-1.3-0.1-2.6,0.2-3.8
		c0.3-1.5,1-2.8,2-3.9c0.8-0.9,1.7-1.7,2.7-2.2C43.9,33.2,44,33.1,44.1,33.1z"/>
	<path class="st4" d="M40.2,47.8c1.6,1.2,3.3,2.2,5.3,2.6c0,0,0,0,0,0c0.3,0.1,0.7,0,0.8,0.3c0.2,0.4-0.3,0.5-0.4,0.8
		c0,0,0,0.1,0,0.1c-0.2,0.1-0.4-0.1-0.6-0.1c0-0.1,0-0.1,0-0.2c0.2-0.3,0-0.4-0.3-0.4c-1.1-0.2-2.2-0.5-3.2-1
		c-0.2-0.1-0.3-0.1-0.5-0.2c-0.2-0.1-0.4-0.2-0.5-0.3c-1-0.7-1.6-1.6-2.1-2.7C39.2,47,39.6,47.5,40.2,47.8z"/>
	<path class="st60" d="M135.4,49.5c-0.3-0.1-0.5-0.2-0.8-0.3c-0.4-0.1-0.8-0.3-0.9-0.7c0-1.9,0-3.9,0-5.8c0-0.2,0.1-0.4,0.2-0.5
		c0.9-1.1,3.5-1.9,4.9-0.2c0.3,0.3,0.4,0.7,0.7,1c0.3,0.7,0.3,1.5,0.3,2.3c0,1-0.2,1.9-0.7,2.8c-0.7,1.2-1.7,1.8-3.1,1.7
		C135.8,49.7,135.6,49.7,135.4,49.5z"/>
	<path class="st2" d="M135.4,49.5c1.9,0.5,3.3-0.6,3.8-2.3c0.5-1.4,0.6-2.9,0.1-4.3c0-0.1-0.1-0.2-0.1-0.3c0.3-0.4,0.2-1,0.3-1.4
		c1,2.2,1.5,4.5,0.4,6.9c-0.8,1.1-1.9,2-3.3,2.4c-0.7,0.2-1.5,0.1-2.2-0.2c-0.2-0.2,0-0.3,0.2-0.4C135,49.8,135.2,49.6,135.4,49.5z"
		/>
	<path class="st4" d="M133.8,48.5c0.3,0.2,0.6,0.4,0.9,0.7c-0.9,0.4-2.1-0.4-2.1-1.4c0-1.8,0-3.7,0-5.5c0-0.9,0.2-1.6,1.1-1.9
		c0.8-0.2,1.5-0.7,2.3-1c0.8-0.2,1.6,0,2.3,0.4c0.6,0.4,1,0.8,0.9,1.6c0,0.2,0,0.3-0.2,0.5c-0.4-0.3-0.6-0.7-0.9-1.1
		c-0.3-0.8-1.4-1.4-2.3-1c-0.7,0.3-1.4,0.6-2.1,1c-0.5,0.3-0.7,0.7-0.7,1.3c0,1.7,0,3.4,0,5.1c0,0.6,0.2,1,0.7,1.2
		C133.8,48.5,133.8,48.5,133.8,48.5z"/>
	<path class="st4" d="M129.5,39.8c0.1-0.1,0.3,0,0.4-0.1c0.1,0,0.1,0,0.2,0c0.3,0.3,0.1,0.6-0.1,0.8C129.7,40.4,129.9,40,129.5,39.8
		z"/>
	<path class="st4" d="M96.6,49.5c0-0.1,0-0.3,0.1-0.4c0-0.2-0.1-0.2-0.2-0.1c-0.8,0.3-1.5,0.8-2.1,1.3c-0.9,0.6-1.9,0.7-2.9,0.6
		c-0.5,0-1.1,0-1.6-0.1c-0.4-0.3-0.8-0.6-0.9-1.1c0.3-0.2,0.6-0.1,0.9,0c0.6,0.3,1.2,0.7,1.9,0.7c0.7,0,1.5-0.1,2.1-0.4
		c0.7-0.2,1.2-0.8,1.9-1.1c0.3-0.2,0.6-0.3,1-0.3c0.2,0,0.3,0.1,0.3,0.4C97,49.2,97,49.4,96.6,49.5z"/>
	<path class="st4" d="M152.7,47.1c-0.2-0.2-0.3-0.3-0.5-0.5c-0.1-0.3-0.3-0.5-0.5-0.6c-0.4-0.2-0.8-0.3-1.2-0.4
		c-0.9-0.2-1.8-0.4-2.7-0.7c-0.2-0.1-0.5-0.1-0.7,0.1c-0.4-0.2-0.7-0.5-0.8-0.9c0.4-0.2,0.8,0,1.2,0.1c1.3,0.5,2.7,0.8,4,1.1
		c0.5,0.1,1,0.3,1.3,0.7C153,46.3,153,46.8,152.7,47.1z"/>
	<path class="st1" d="M72,33.6c0.1-0.2,0.3-0.5,0.1-0.7c1.1-0.1,2.1,0.1,3.2,0.1C75,33.2,75,33.5,75,33.9c0,1.9,0,3.7,0,5.6
		c0.1,3.1,0,6.2,0.1,9.3c0,0.7,0.3,1,0.8,1.1c0,0.1,0.1,0.2,0.1,0.2c-0.6,0-1.3-0.1-1.9-0.1c-0.5,0-1,0-1.5,0.1
		c0.4-0.4,0.5-0.9,0.5-1.4c0-4.9,0-9.8,0-14.7c0-0.1,0-0.3,0-0.4c-0.1-0.4-0.2-0.4-0.5-0.2C72.3,33.5,72.2,33.6,72,33.6z"/>
	<path class="st3" d="M133.8,48.5C133.8,48.5,133.8,48.5,133.8,48.5c-0.3-0.2-0.3-0.4-0.3-0.6c0-2,0-4,0-5.9c0-0.3,0.1-0.6,0.3-0.8
		c1-0.9,2.2-1.3,3.5-0.9c0.3,0.1,0.6,0.3,0.8,0.5c0.3,0.3,0.6,0.6,0.8,1c0.1,0.3,0.2,0.5,0.3,0.8c0,0.1,0.1,0.2,0.1,0.3
		c-0.2-0.3-0.4-0.7-0.7-1c-0.9-1-2.1-1.2-3.4-0.7c-0.3,0.1-0.5,0.2-0.8,0.4c-0.4,0.3-0.7,0.6-0.7,1.2
		C133.9,44.8,133.8,46.7,133.8,48.5z"/>
	<path class="st1" d="M83.3,33.4c0.4,0.5,0.6,1.1,0.7,1.7c0.5,2.5-1.1,4.8-3.1,5.7c0,0-0.1,0-0.2,0c0.4-0.5,0.9-1,1.1-1.6
		c0.4-1.2,0.3-2.4,0.1-3.6c-0.1-0.3-0.1-0.6-0.2-0.8c0-0.1-0.1-0.3-0.2-0.3c-0.2,0-0.2,0.1-0.3,0.3c-0.1,0.2-0.3,0.3-0.5,0.3
		c-0.1,0-0.1-0.1-0.1-0.2c0.3-0.7,0.1-1.6-0.8-2C81,32.8,82.2,32.7,83.3,33.4z"/>
	<path class="st1" d="M96.6,49.5c0.5-0.4,0.5-0.6,0.1-1c0.9-0.6,0.9-1.5,0.9-2.4c0-0.6-0.1-1.2-0.1-1.8c0-1.2-0.1-2.4-0.1-3.6
		c0-0.1,0-0.2-0.1-0.3c-0.1-0.1-0.1-0.3-0.3-0.3c-0.2,0-0.2,0.1-0.3,0.2c-0.1,0.1-0.2,0.3-0.3,0.4c-0.1-0.1-0.1-0.2-0.1-0.3
		c0.4-0.4,0.3-0.6-0.1-0.8c-0.1,0-0.2-0.1-0.3-0.1c0.8,0.2,1.5,0,2.3-0.2c0.3-0.1,0.7-0.2,0.9-0.4c-0.1,0.2-0.1,0.5-0.1,0.7
		c0,0.9,0,1.9,0,2.8c-0.1,2.1-0.1,4.2-0.1,6.4c0,0.4,0.1,0.9,0.6,1.2c-0.8,0-1.5,0-2.1,0c0-0.3,0-0.7,0.1-1c0-0.2,0.1-0.5-0.2-0.5
		c-0.2,0-0.4,0.2-0.4,0.4c0,0.4-0.2,0.5-0.5,0.6C96.6,49.6,96.6,49.5,96.6,49.5z"/>
	<path class="st1" d="M153.8,39.9c-0.1-0.1-0.2-0.1-0.2,0c0.1-0.4-0.2-0.7-0.5-0.9c0.2,0.1,0.5,0.1,0.7,0.2
		C153.8,39.3,153.8,39.6,153.8,39.9z"/>
	<path class="st1" d="M67,43.6C67,43.6,67,43.6,67,43.6c-0.1,0.9-0.2,1-1,1.1c-1.3,0-2.6,0-3.8,0c-0.2,0-0.4,0-0.6-0.1
		c0.4-1.2,0.1-1,1.5-1c1.2,0,2.3,0,3.5,0C66.7,43.5,66.9,43.5,67,43.6z"/>
	<path class="st4" d="M61.5,44.5c1.5,0,3,0,4.5,0c0.7,0,0.7,0,0.9-0.7c0-0.1,0.1-0.1,0.1-0.2c0.2,0.3-0.1,0.6-0.1,0.9
		c-0.1,0.2-0.4,0.2-0.6,0.2c-1.5,0-3.1,0-4.6,0C61.6,44.7,61.6,44.6,61.5,44.5C61.5,44.5,61.5,44.5,61.5,44.5z"/>
	<path class="st2" d="M79.9,33.9c-0.7-0.5-1.6-0.7-2.4-0.7c-0.3,0-0.6,0.1-1,0.1c-0.4,0-0.5,0.2-0.5,0.6c0,4.3,0,8.6,0,12.8
		c0,0.7,0.1,1.4,0.1,2.2c0,0.1,0.1,0.2,0.1,0.4c-0.5,0-0.8-0.3-0.8-0.9c0-0.1,0-0.2,0-0.3c0-4.6,0-9.2,0-13.7c0-1.2,0.5-1.5,1.5-1.6
		c0.7-0.1,1.5,0,2.2,0.2C79.5,33,79.8,33.3,79.9,33.9z"/>
	<path class="st2" d="M112.7,40.6c-1.1-0.8-2.8-0.4-3.6,0.6c-0.2,0.2-0.2,0.4-0.2,0.7c0,2.4,0,4.8,0,7.2c0,0.2,0.1,0.3,0.1,0.4
		c-0.7-0.1-0.8-0.5-0.8-1.2c0-0.8,0-1.6,0.1-2.4c0-1.3,0-2.7,0-4c0-0.7,0.3-1.2,1-1.4c0.6-0.2,1.2-0.7,1.8-0.8
		c0.4-0.1,0.8-0.1,1.2,0.1C112.5,40,112.7,40.2,112.7,40.6z"/>
	<path class="st2" d="M89.8,50.7c0.4-0.2,0.9-0.1,1.3-0.1c1.4,0.2,2.6,0,3.7-0.9c0.5-0.4,1-0.7,1.7-0.8c-0.6,0.6-1.2,1.4-1.9,1.9
		c-0.8,0.6-1.8,0.6-2.8,0.6C91.1,51.4,90.4,51.2,89.8,50.7z"/>
	<path class="st5" d="M139.2,54.3c-0.2-0.2,0-0.4,0-0.6c0.1,0,0.1-0.1,0.2-0.1C139.3,53.8,139.2,54.1,139.2,54.3z"/>
	<path class="st31" d="M146.4,53.3c0.2,0.5,0.4,0.9,0.6,1.4c0.3,0.7,0.6,1.5,0.9,2.2c0,0.1,0.2,0.2,0,0.3c-0.2,0.1-0.2-0.1-0.3-0.2
		c-0.3-0.6-0.5-1.1-0.7-1.7c-0.1-0.3-0.3-0.7-0.4-1C146.3,54,146.3,53.6,146.4,53.3z"/>
	<path class="st61" d="M145.7,55.9c-0.3,0-0.5,0.1-0.4-0.4c0.1-0.4,0.3-0.9,0.6-1.3c0.2,0.1,0.2,0.3,0.2,0.5
		C146.2,55.1,146,55.5,145.7,55.9z"/>
	<path class="st60" d="M145.7,55.9c0.1-0.4,0.3-0.8,0.4-1.2c0.2,0.4,0.4,0.7,0.5,1.2C146.3,55.9,146,55.9,145.7,55.9z"/>
	<path class="st62" d="M63.7,61.6c0,1-1,2-2,2c-1,0-2-0.9-2-2.1c0-1.1,1-2,2.1-2C62.8,59.5,63.7,60.5,63.7,61.6z"/>
	<path class="st60" d="M154.9,55.5c0,0.3,0,0.6,0,0.9c0,0.3-0.1,0.6-0.4,0.7c-0.4,0.1-0.6,0-0.8-0.3c0,0-0.1-0.1-0.1-0.1
		c0-0.2,0-0.4,0-0.6c0-0.4,0.1-0.7,0.5-0.8C154.4,55.1,154.7,55.2,154.9,55.5z"/>
	<path class="st31" d="M153.7,56.7C153.7,56.7,153.7,56.8,153.7,56.7c-0.2,0.2-0.3,0.1-0.4,0c-0.3-0.7-0.2-1.7,0.8-2
		c0.3-0.1,0.6,0,0.6,0.4c-0.1,0.1-0.3,0-0.4,0c-0.4-0.1-0.7,0.1-0.7,0.5C153.5,56,153.5,56.3,153.7,56.7z"/>
	<path class="st3" d="M153.7,56.7c-0.2-0.3-0.3-1.2-0.1-1.5c0.2-0.3,0.6-0.3,1.1-0.1c0.1,0.1,0.1,0.2,0.2,0.3
		c-0.1,0-0.2-0.1-0.3-0.1c-0.4-0.1-0.9,0.1-0.9,0.6C153.7,56.2,153.7,56.5,153.7,56.7z"/>
	<path class="st63" d="M154.5,57.5c0.1-0.1,0.1-0.2,0.2-0.3c0.1-0.1,0.1-0.1,0.2,0c0,0,0,0.1,0,0.2
		C154.7,57.4,154.6,57.4,154.5,57.5z"/>
	<path class="st2" d="M41.4,49.6c1.2,0.5,2.4,0.9,3.6,1.1c0,0,0,0,0,0c0.6,0.1,0.6,0.1,0.3,0.7c-0.6,0-1.1-0.2-1.6-0.4
		c-0.9-0.3-1.8-0.8-2.5-1.4C41.2,49.6,41.3,49.6,41.4,49.6z"/>
	<path class="st64" d="M41.4,49.6c-0.1,0-0.1,0-0.2,0c-0.2,0-0.3-0.1-0.3-0.3C41,49.4,41.2,49.5,41.4,49.6z"/>
	<path class="st2" d="M147.1,44.9c0-0.2,0.1-0.4,0.4-0.3c1.2,0.4,2.5,0.7,3.7,1c0.4,0.1,0.7,0.3,1,0.6c0.1,0.1,0.2,0.2,0,0.3
		c-1.3-0.6-2.7-0.8-4-1.2C147.8,45.3,147.4,45.2,147.1,44.9z"/>
	<path class="st19" d="M16.7,37.2c-1.7,0.1-2.9-1.5-2.9-2.9c0-1.5,1.3-3,3-2.9c1.7,0,2.8,1.4,2.8,2.9C19.7,35.8,18.4,37.2,16.7,37.2
		z"/>
	<path class="st21" d="M81.6,55.4c0.1,1.7-1.3,2.9-2.9,2.9c-1.5,0-2.9-1.1-2.9-3.1c0-1.3,1.4-2.9,3-2.9
		C80.1,52.4,81.7,53.9,81.6,55.4z"/>
	<path class="st3" d="M157.6,55.8c-0.1,0-0.1,0-0.2,0c-0.2-0.4-0.1-0.7,0.3-0.9c0.1,0,0.3,0,0.4,0c0,0,0.1,0,0.1,0.1
		c0.1,0.1,0.2,0.2,0.1,0.3C158.2,55.4,157.8,55.5,157.6,55.8z"/>
	<path class="st60" d="M157.6,55.8c0.1-0.5,0.4-0.5,0.8-0.5c0.2,0.5,0.2,0.5-0.3,0.5C158,55.8,157.8,55.8,157.6,55.8z"/>
	<path class="st65" d="M157.8,54.9c-0.4,0.1-0.3,0.5-0.3,0.8c-0.2,0.1-0.3,0-0.3-0.2c-0.1-0.4,0.2-0.6,0.4-0.8
		c0.3-0.2,0.5-0.2,0.7,0.1c0,0-0.1,0-0.1,0C158.1,54.9,157.9,54.9,157.8,54.9z"/>
	<path class="st66" d="M171.1,56.4c0-0.2,0-0.3,0.1-0.4C171.3,56.2,171.2,56.3,171.1,56.4C171.1,56.4,171.1,56.4,171.1,56.4z"/>
	<path class="st21" d="M70.1,58.2c0-1.5,1.3-2.7,2.6-2.7c1.5,0,2.7,1.2,2.7,2.7c0,1.5-1.2,2.7-2.7,2.7
		C71.4,60.9,70.1,59.8,70.1,58.2z"/>
	<path class="st67" d="M52.1,61.8c1,0,1.6,0.8,1.6,1.7c0,1-0.8,1.6-1.7,1.7c-0.9,0-1.7-0.8-1.7-1.7C50.4,62.5,51.1,61.8,52.1,61.8z"
		/>
	<path class="st68" d="M43.2,27.9c-0.8,0.1-1.8-0.8-1.7-1.7c0-0.8,0.9-1.8,1.7-1.8c1.1,0,1.8,0.8,1.8,1.8C45,27,44.2,28,43.2,27.9z"
		/>
	<path class="st69" d="M48.6,64.6c-0.4,0.8-1.2,1-1.9,0.7c-0.7-0.3-1-1.2-0.6-1.8c0,0,0,0,0,0c0.1,0.2-0.1,0.5,0.1,0.7
		c0,0.1,0.1,0.1,0.1,0.2c0.4,0.7,1,0.9,1.7,0.5c0.1-0.1,0.2-0.1,0.2-0.2C48.4,64.6,48.5,64.5,48.6,64.6z"/>
	<path class="st69" d="M48.6,64.6c-0.1,0.1-0.2,0.1-0.3,0.2c-0.1-0.1,0-0.2,0-0.3c0.2-1-0.3-1.6-1.3-1.5c-0.1,0-0.2,0-0.3,0
		c-0.1-0.1,0-0.1,0-0.2c0.6-0.4,1.4-0.1,1.7,0.5C48.8,63.7,48.9,64.1,48.6,64.6z"/>
	<path class="st69" d="M46.8,62.7c0,0.1-0.1,0.1-0.1,0.2c0,0,0,0,0,0.1c-0.2,0.1-0.3,0.4-0.6,0.5c0,0,0,0,0,0
		C46.2,63,46.5,62.8,46.8,62.7z"/>
	<path class="st21" d="M67.2,57.7c1.2-0.2,2.4,1.3,2.3,2.3c0,1.3-1.1,2.4-2.4,2.4c-1.3,0-2.4-1.1-2.4-2.4
		C64.8,58.8,65.8,57.6,67.2,57.7z"/>
	<path class="st18" d="M30.5,29.6c0,1.3-1.1,2.4-2.4,2.3c-1.4,0-2.3-0.9-2.3-2.4c-0.1-1.4,1.1-2.4,2.4-2.4
		C29.4,27.1,30.6,28.1,30.5,29.6z"/>
	<path class="st70" d="M56.8,27.6c-0.5,0-1-0.5-1-1c0-0.5,0.5-1,1-1c0.6,0,1,0.5,1,1C57.8,27.2,57.4,27.6,56.8,27.6z"/>
	<path class="st71" d="M47.9,27c-0.8,0.1-1.4-0.7-1.4-1.4c0-0.8,0.7-1.5,1.5-1.4c0.7,0,1.4,0.7,1.4,1.4C49.4,26.4,48.8,27,47.9,27z"
		/>
	<path class="st72" d="M21.2,33.7c-0.4-0.3-0.7-0.7-1-1.1c0-0.1-0.1-0.1-0.1-0.2c-0.2-0.5-0.3-1-0.2-1.6c0-0.1,0-0.2,0.1-0.3
		c0.1-0.2,0.1-0.3,0.2-0.5c0-0.2,0.1-0.3,0.3-0.3c0.2-0.3,0.5-0.5,0.8-0.7c0.1-0.1,0.2-0.2,0.3-0.2c0.1-0.1,0.3-0.1,0.4-0.2l0,0
		c0.4-0.1,0.8-0.1,1.2,0l0,0c0.2,0.1,0.4,0.1,0.5,0.2c0.2,0.1,0.2,0.3,0.4,0.3c0.3,0.2,0.5,0.4,0.7,0.7c0.8,1.4,0.5,2.9-0.8,3.9
		C23,34.2,22.1,34.1,21.2,33.7z"/>
	<path class="st49" d="M19.9,30.8c-0.1,0.5,0.1,1.1,0.2,1.6C19.8,31.9,19.7,31.4,19.9,30.8z"/>
	<path class="st49" d="M21.2,29.1c-0.3,0.2-0.5,0.4-0.8,0.7C20.5,29.4,20.8,29.1,21.2,29.1z"/>
	<path class="st49" d="M24.7,29.8c-0.3-0.2-0.5-0.4-0.7-0.7C24.4,29.3,24.6,29.5,24.7,29.8z"/>
	<path class="st49" d="M23.1,28.7c-0.4,0-0.8,0-1.2,0C22.3,28.6,22.7,28.6,23.1,28.7z"/>
	<path class="st49" d="M23.6,28.9c-0.2,0-0.4,0-0.5-0.2C23.3,28.7,23.5,28.7,23.6,28.9z"/>
	<path class="st49" d="M20.2,30.1c0,0.2,0,0.4-0.2,0.5C20,30.4,20,30.2,20.2,30.1z"/>
	<path class="st49" d="M21.9,28.7c-0.1,0.1-0.3,0.1-0.4,0.2C21.6,28.7,21.8,28.7,21.9,28.7z"/>
	<path class="st73" d="M41.7,63.8c0-0.7,0.5-1.1,1.1-1.2c0.7,0,1.2,0.7,1.2,1.2c0,0.6-0.6,1.2-1.2,1.2C42.1,65,41.7,64.5,41.7,63.8z
		"/>
	<path class="st74" d="M55,61.8c0.6-1.1,1.7-1.4,2.7-0.8c0.7,0.6,1,1.3,0.8,2.2v0c-0.1,0.1-0.1,0.3-0.2,0.4
		c-0.2,0.2-0.4,0.4-0.6,0.6l0,0c-0.1,0.1-0.2,0.1-0.3,0.2c-0.5,0.2-0.9,0.2-1.4,0C55,64,54.6,63,55,61.8z"/>
	<path class="st75" d="M55,61.8c0,0.4-0.2,0.7-0.1,1c0.1,0.7,0.5,1.2,1.1,1.6c-0.1,0-0.2,0-0.3-0.1c-0.8-0.7-1.1-1.5-0.8-2.3
		C54.9,61.9,55,61.9,55,61.8z"/>
	<path class="st75" d="M58.5,63.2c0.1-0.9-0.1-1.6-0.8-2.2C58.5,61.4,58.9,62.6,58.5,63.2z"/>
	<path class="st75" d="M57.7,64.2c0.2-0.2,0.4-0.4,0.6-0.6C58.2,63.9,58,64.1,57.7,64.2z"/>
	<path class="st75" d="M58.3,63.6c0-0.2,0-0.3,0.2-0.4C58.5,63.4,58.5,63.5,58.3,63.6z"/>
	<path class="st75" d="M57.4,64.4c0.1-0.1,0.2-0.2,0.3-0.2c0,0,0,0.1,0,0.1C57.6,64.4,57.5,64.4,57.4,64.4z"/>
	<path class="st72" d="M31.5,27.5c0.2-1.2,1.6-2.1,3-1.5c0.4,0.3,0.8,0.6,1,1c0.4,0.8,0.4,1.5-0.1,2.2c-0.4,0.7-1.1,1.1-2,1
		c-1.1-0.1-1.8-0.7-1.9-2C31.5,28,31.5,27.8,31.5,27.5z"/>
	<path class="st76" d="M39.6,63c0,0.6-0.5,1.1-1.1,1.1c-0.7,0-1.1-0.5-1.1-1.1c0-0.5,0.5-1.1,1.1-1.1C39.1,61.9,39.6,62.3,39.6,63z"
		/>
	<path class="st77" d="M34.5,59.4c0.5,0,0.9,0.4,0.9,0.9c0,0.4-0.4,0.9-0.9,0.9c-0.5,0-0.8-0.3-0.8-0.8
		C33.7,59.8,34.1,59.4,34.5,59.4z"/>
	<path class="st1" d="M141.1,57.3c0.1-0.1,0.2-0.2,0.3-0.3C141.4,57.2,141.3,57.3,141.1,57.3z"/>
	<path class="st40" d="M70,33.1c0.5-0.4,0.9-0.5,1.4-0.3c0.2,0.1,0.3,0.2,0.3,0.4C71.1,33.1,70.6,33.1,70,33.1z"/>
	<path class="st78" d="M53.7,25.8c0,0.7-0.5,1.2-1.2,1.2c-0.7,0-1.3-0.5-1.2-1.2c0-0.7,0.6-1.4,1.2-1.3C53.1,24.6,53.8,25,53.7,25.8
		z"/>
	<path class="st2" d="M94.9,40.1c0.3-0.4,0.8-0.4,1.2-0.2c0.2,0.1,0.2,0.2,0.2,0.4C95.8,40.1,95.4,40.1,94.9,40.1z"/>
	<path class="st79" d="M86.7,40.1c0.4-0.2,0.7-0.5,1.2-0.2c0.2,0.1,0.2,0.2,0.2,0.4c-0.3-0.1-0.7-0.1-1-0.1
		C87,40.2,86.8,40.2,86.7,40.1z"/>
	<path class="st80" d="M60.7,28.4c0.6,0,0.9,0.3,0.9,0.9c0,0.5-0.4,1-0.9,1c-0.5,0-0.9-0.5-0.9-0.9C59.8,28.7,60.2,28.4,60.7,28.4z"
		/>
	<path class="st81" d="M103.9,40.2c0.2-0.2,0.4-0.4,0.8-0.3c0.3,0,0.5,0.1,0.5,0.5C104.7,40.3,104.3,40.2,103.9,40.2z"/>
	<path class="st82" d="M62,38c0,0.2-0.1,0.3-0.3,0.3c-0.2,0-0.3-0.1-0.3-0.3c0-0.2,0.1-0.3,0.3-0.3C61.9,37.7,62,37.8,62,38z"/>
	<path class="st60" d="M158.7,56.1c-0.4,0.1-0.7,0.1-1.1,0C158,56.1,158.4,56.1,158.7,56.1z"/>
	<path class="st83" d="M159.4,55.8c0.1,0.4-0.2,0.3-0.4,0.3C159.1,56,159.3,55.9,159.4,55.8z"/>
	<path class="st84" d="M38.1,25c0.6,0,1.2-0.1,1.7,0.3c0.2,0.2,0.4,0.4,0.6,0.7c0.5,1.3,0,2.4-1.3,2.9c-0.7,0.2-1.4,0-1.9-0.6
		C37.1,28.2,37,28.2,37,28c0.2-0.1,0.3,0.1,0.4,0.2c0.7,0.6,1.7,0.7,2.2,0.1c0.7-0.6,0.9-1.4,0.4-2.3c-0.3-0.6-1.1-1-1.8-0.8
		c-0.8,0.2-1.3,0.8-1.3,1.6c0,0.3,0,0.6,0.2,0.9c0,0.1,0,0.2,0,0.2c-0.7-0.8-0.5-1.7,0.1-2.4C37.3,25.3,37.7,25.2,38.1,25z"/>
	<path class="st85" d="M33.6,51.1c0.3,0,0.4,0.2,0.4,0.4c0,0.2-0.2,0.4-0.4,0.4c-0.3,0-0.4-0.2-0.4-0.5
		C33.2,51.2,33.4,51.1,33.6,51.1z"/>
	<path class="st86" d="M32.8,54.9c0.4,0,0.6,0.3,0.6,0.7c0,0.3-0.3,0.6-0.6,0.6c-0.4,0-0.7-0.3-0.6-0.8
		C32.2,55.2,32.5,54.9,32.8,54.9z"/>
	<path class="st1" d="M173.1,57.6c0.1-0.1,0.1-0.2,0.2-0.2C173.4,57.6,173.3,57.7,173.1,57.6z"/>
	<path class="st87" d="M143.1,57.6c0.1-0.1,0.1-0.2,0.2-0.2C143.4,57.6,143.3,57.7,143.1,57.6z"/>
	<path class="st75" d="M56,64.4c0.5,0.1,0.9,0.1,1.4,0C56.9,64.7,56.5,64.7,56,64.4z"/>
	<path class="st88" d="M61.9,34.2c-0.1-0.3,0.1-0.5,0.2-0.8c0.3-0.1,0.6-0.3,0.9,0c0.4,0.5,0.3,0.8-0.2,1.2
		C62.4,34.7,62.1,34.5,61.9,34.2z"/>
	<path class="st60" d="M45.4,49.2c-0.8-0.5-1.4-1.1-1.9-1.9C43.1,47,43,46.5,42.8,46c-0.4-0.9-0.7-1.8-0.8-2.8c0-1.3,0-2.7,0.3-4
		c0.3-1.5,0.9-2.8,2-3.9c2.2-2.2,6.6-2.3,8.6,0.6c0.3,0.5,0.6,1,0.8,1.5c0.4,0.8,0.5,1.7,0.6,2.6c0.1,0.8,0.1,1.7,0.1,2.5
		c-0.1,1.9-0.5,3.7-1.6,5.3c-0.8,1.2-1.9,1.8-3.2,2.1c-1.4,0.3-2.7,0.1-3.9-0.6C45.5,49.2,45.5,49.2,45.4,49.2z"/>
	<path class="st3" d="M53.7,37.4c-0.4-0.5-0.6-1.1-1-1.6c-1-1.3-2.4-2-4-2c-1.4-0.1-2.7,0.2-3.8,1.1c-1.3,1-2,2.4-2.4,4
		c-0.4,1.4-0.3,2.9-0.3,4.3c-0.2,0-0.2-0.2-0.2-0.3c-0.2-2.3-0.1-4.6,0.9-6.8c1-2,2.7-3.2,5-3.3c1.1,0,2.1,0.1,3.1,0.7
		c0.2,0.1,0.4,0.2,0.5,0.4c0.5,0.5,1,1,1.4,1.6c0.2,0.3,0.3,0.6,0.4,0.8C53.5,36.8,53.7,37.1,53.7,37.4z"/>
	<path class="st2" d="M51.5,34c-0.4-0.2-0.7-0.5-1.2-0.6c-2.8-1-5.8-0.1-7.3,2.6c-0.5,0.9-0.8,1.9-0.9,2.9c-0.2,1.1-0.2,2.2-0.2,3.2
		c0,0.3,0,0.7,0.2,1c0.2,1.3,0.6,2.6,1.2,3.7c0.1,0.1,0.1,0.3,0.2,0.4c-0.5-0.2-0.8-0.7-1.1-1.2c-0.6-1-0.9-2.1-1.1-3.3
		c-0.2-0.9-0.1-1.9-0.1-2.8c0.2-2.2,0.8-4.3,2.3-6c0.7-0.8,1.7-1.3,2.7-1.5c1.3-0.3,2.6-0.3,3.9,0.2C50.8,33,51.3,33.3,51.5,34z"/>
	<path class="st2" d="M138.2,40.9c-0.6-0.4-1.1-0.6-1.8-0.6c-0.9,0-1.7,0.3-2.4,1c-0.2,0.2-0.3,0.4-0.3,0.8c0,2,0,4,0,5.9
		c0,0.2,0,0.4,0.1,0.6c-0.5-0.2-0.8-0.5-0.8-1.1c0-1.8,0-3.7,0-5.5c0-0.6,0.3-1,0.8-1.3c0.6-0.3,1.2-0.5,1.7-0.8
		c1-0.5,2-0.1,2.6,0.6C138.2,40.5,138.2,40.7,138.2,40.9z"/>
	<path class="st89" d="M60.2,61.5c0-1,0.6-1.6,1.6-1.6c0.8,0,1.6,0.8,1.6,1.6c0,0.9-0.8,1.6-1.7,1.6C60.9,63.2,60.1,62.4,60.2,61.5z
		"/>
	<path class="st68" d="M16.8,31.6c1.4-0.1,2.6,1.1,2.6,2.6c0,1.4-1.2,2.7-2.7,2.7c-1.3,0-2.6-1.2-2.6-2.7
		C14.1,32.8,15.4,31.5,16.8,31.6z"/>
	<path class="st90" d="M78.7,52.7c1.6-0.1,2.7,1.3,2.7,2.7c0,1.5-1.1,2.7-2.7,2.7C77,58,76,56.8,76,55.3
		C76,53.9,77.1,52.6,78.7,52.7z"/>
	<path class="st60" d="M157.8,54.9c0.1-0.1,0.3-0.1,0.4,0C158.1,54.9,157.9,54.9,157.8,54.9z"/>
	<path class="st91" d="M75.2,58.2c0.1,1.4-1.1,2.5-2.4,2.5c-1.6-0.1-2.4-1.1-2.4-2.5c0-1.5,0.9-2.4,2.4-2.5
		C74.1,55.7,75.3,56.9,75.2,58.2z"/>
	<path class="st92" d="M52.1,62c0.8-0.1,1.5,0.7,1.5,1.4c0,0.8-0.7,1.4-1.4,1.4c-0.8,0-1.4-0.6-1.4-1.4C50.6,62.6,51.3,62,52.1,62z"
		/>
	<path class="st93" d="M41.7,26.1c0-0.9,0.7-1.6,1.6-1.6c0.9,0,1.6,0.7,1.6,1.5c0,0.9-0.7,1.6-1.5,1.6C42.4,27.7,41.7,27,41.7,26.1z
		"/>
	<path class="st77" d="M46.8,62.9c0.1,0,0.2,0,0.2,0c0.5-0.1,1-0.1,1.3,0.4c0.3,0.4,0.4,0.9,0.1,1.4c0,0,0,0.1,0,0.1
		c-0.7,0.6-1.4,0.6-1.9,0c-0.1-0.2-0.1-0.4-0.3-0.5C46,63.6,46.3,63.2,46.8,62.9L46.8,62.9z"/>
	<path class="st69" d="M46.8,62.9c-0.4,0.4-0.6,0.8-0.6,1.3c-0.2-0.3,0-0.6,0-0.8C46.4,63.2,46.5,62.9,46.8,62.9z"/>
	<path class="st94" d="M67.2,57.9c1.1-0.2,2.2,1.1,2.1,2.2c0,1.1-0.9,2.2-2.2,2.2c-1.2,0-2.2-0.9-2.2-2.2
		C64.9,58.9,65.9,57.8,67.2,57.9z"/>
	<path class="st95" d="M28.1,31.7c-1,0.1-2.2-1-2.1-2.2c0.1-1.3,1-2.2,2.2-2.2c1.2,0,2.1,0.8,2.1,2.2C30.4,30.6,29.5,31.8,28.1,31.7
		z"/>
	<path class="st96" d="M56.9,26.2c0.3,0,0.4,0.2,0.4,0.4c0,0.3-0.1,0.5-0.4,0.5c-0.3,0-0.5-0.2-0.5-0.5
		C56.4,26.3,56.5,26.2,56.9,26.2z"/>
	<path class="st97" d="M46.9,25.6c0-0.6,0.4-1,1-1c0.6,0,1,0.4,1,1.1c0,0.5-0.5,1-1,1C47.5,26.7,46.8,26.2,46.9,25.6z"/>
	<path class="st98" d="M22.6,28.9c1.4,0,2.4,1,2.4,2.5c0,1.4-1,2.5-2.4,2.5c-1.5,0-2.4-1-2.5-2.5C20,29.9,21.1,28.9,22.6,28.9z"/>
	<path class="st99" d="M41.9,63.8c0-0.6,0.4-1,1-1c0.7,0,1.1,0.4,1.1,1c0,0.6-0.4,1-1,1C42.2,64.8,41.9,64.4,41.9,63.8z"/>
	<path class="st62" d="M58.4,62.6c0,0.9-0.8,1.7-1.7,1.7c-0.8,0-1.7-0.8-1.7-1.7c0-0.8,0.8-1.8,1.8-1.7C57.7,61,58.4,61.7,58.4,62.6
		z"/>
	<path class="st100" d="M35.4,28.1c0,1.1-0.8,1.9-1.9,1.9c-1,0-1.9-0.9-1.9-1.9c0-1.1,0.9-2,2-2C34.7,26.1,35.4,26.9,35.4,28.1z"/>
	<path class="st101" d="M37.7,63c0-0.5,0.3-0.8,0.8-0.8c0.4,0,0.8,0.4,0.8,0.8c0,0.5-0.4,0.9-0.9,0.9C38.1,63.8,37.7,63.4,37.7,63z"
		/>
	<path class="st102" d="M33.9,60.3c0-0.3,0.4-0.7,0.6-0.7c0.3,0,0.7,0.4,0.7,0.7c0,0.3-0.4,0.7-0.7,0.7C34.3,61,33.9,60.6,33.9,60.3
		z"/>
	<path class="st103" d="M53.5,25.8c0,0.7-0.4,1.1-1,1.1c-0.7,0-1.1-0.4-1.1-1.1c0-0.6,0.5-1.1,1-1.1C53.1,24.7,53.5,25.2,53.5,25.8z
		"/>
	<path class="st104" d="M60.3,29.3c0-0.3,0.2-0.5,0.5-0.5c0.3,0,0.5,0.2,0.5,0.5c0,0.3-0.2,0.5-0.5,0.6
		C60.5,29.8,60.3,29.6,60.3,29.3z"/>
	<path class="st68" d="M37,28c-0.2-0.5-0.3-1.1-0.2-1.7c0.2-0.9,1.4-1.6,2.3-1.2c1.1,0.5,1.5,1.2,1.2,2.3c-0.3,1.3-2,1.8-3,0.8
		C37.3,28.2,37.2,28.1,37,28C37,28,37,28,37,28z"/>
	<path class="st105" d="M33.6,51.7c-0.1,0-0.2-0.1-0.2-0.1c0-0.1,0-0.1,0.1-0.2c0.1,0,0.2,0,0.2,0.2C33.7,51.7,33.7,51.7,33.6,51.7z
		"/>
	<path class="st106" d="M33.2,55.7c0,0.2-0.2,0.4-0.5,0.4c-0.3,0-0.5-0.2-0.5-0.6c0-0.3,0.2-0.4,0.5-0.4
		C33.1,55.1,33.2,55.3,33.2,55.7z"/>
	<path class="st107" d="M62.5,34.5c-0.3,0-0.4-0.2-0.4-0.5c0-0.3,0.2-0.5,0.5-0.5c0.3,0,0.5,0.2,0.5,0.5
		C63,34.3,62.8,34.4,62.5,34.5z"/>
	<path class="st108" d="M60.4,61.5c0-0.7,0.6-1.3,1.3-1.3c0.8,0,1.3,0.6,1.3,1.4c0,0.8-0.6,1.3-1.4,1.3C61,62.9,60.4,62.3,60.4,61.5
		z"/>
	<path class="st109" d="M16.7,36.7c-1.4,0-2.4-1.1-2.4-2.5c0-1.4,1.1-2.6,2.5-2.5c1.2,0,2.4,0.9,2.4,2.4
		C19.2,35.7,18.1,36.8,16.7,36.7z"/>
	<path class="st110" d="M78.7,57.8c-1.3,0-2.4-1.1-2.4-2.4c0-1.4,1.1-2.6,2.5-2.6c1.4,0,2.4,1.1,2.5,2.6
		C81.2,56.7,79.9,58,78.7,57.8z"/>
	<path class="st111" d="M70.6,58.2c0-1.2,1-2.3,2.2-2.3c1.3,0,2.2,0.9,2.3,2.3c0,1.3-0.9,2.3-2.2,2.3C71.6,60.5,70.6,59.5,70.6,58.2
		z"/>
	<path class="st112" d="M52,62.3c0.6-0.1,1.2,0.5,1.2,1.2c0,0.7-0.5,1.2-1.2,1.2c-0.6,0-1.2-0.6-1.2-1.3
		C50.9,62.8,51.5,62.3,52,62.3z"/>
	<path class="st113" d="M43.2,27.5c-0.8,0-1.4-0.6-1.4-1.4c0-0.8,0.6-1.5,1.4-1.5c0.7,0,1.4,0.6,1.4,1.5C44.6,27,44,27.5,43.2,27.5z
		"/>
	<path class="st114" d="M47.4,64.8c-0.4,0-0.9-0.4-0.9-0.8c0-0.5,0.3-0.8,0.9-0.8c0.4,0,0.9,0.4,0.9,0.8
		C48.2,64.4,47.8,64.8,47.4,64.8z"/>
	<path class="st115" d="M67.1,62.1c-1.2,0-2-0.9-2-2c0-1.1,0.8-2.1,2.1-2c1,0,1.9,0.9,1.9,2C69.1,61.2,68.1,62.1,67.1,62.1z"/>
	<path class="st116" d="M26.3,29.5c-0.1-1.1,0.8-2,1.9-1.9c1.1,0,1.8,0.7,1.9,2c0,0.9-0.8,1.9-1.9,1.9
		C27.2,31.4,26.2,30.5,26.3,29.5z"/>
	<path class="st96" d="M47.5,25.7c0-0.4,0.2-0.5,0.4-0.5c0.3,0,0.4,0.2,0.4,0.4c0,0.3-0.2,0.5-0.4,0.5
		C47.7,26.1,47.5,25.9,47.5,25.7z"/>
	<path class="st117" d="M22.5,33.6c-1.3,0.1-2.3-1.1-2.3-2.3c0-1.2,1.1-2.2,2.3-2.2c1.2,0,2.3,1,2.3,2.3
		C24.8,32.5,23.9,33.7,22.5,33.6z"/>
	<path class="st118" d="M43.7,63.8c0,0.5-0.4,0.9-0.8,0.9c-0.5,0-0.9-0.5-0.9-1c0-0.4,0.5-0.9,0.9-0.9
		C43.3,62.9,43.7,63.3,43.7,63.8z"/>
	<path class="st119" d="M56.7,61.1c1,0,1.4,0.7,1.5,1.6c0.1,0.8-0.7,1.5-1.5,1.4c-1,0-1.5-0.6-1.5-1.5
		C55.2,61.8,55.8,61.1,56.7,61.1z"/>
	<path class="st120" d="M35.1,28.1c0,0.9-0.7,1.5-1.6,1.5c-0.8,0-1.5-0.8-1.5-1.6c0-0.9,0.8-1.6,1.6-1.6
		C34.5,26.4,35.1,27.1,35.1,28.1z"/>
	<path class="st121" d="M38.1,62.9c0-0.3,0.2-0.5,0.4-0.5c0.3,0,0.5,0.3,0.5,0.5c0,0.3-0.2,0.5-0.5,0.5C38.2,63.4,38,63.2,38.1,62.9
		z"/>
	<path class="st122" d="M34.6,59.8c0.3,0,0.5,0.2,0.5,0.5c0,0.3-0.2,0.5-0.5,0.5c-0.3,0-0.5-0.2-0.5-0.5
		C34.1,60,34.2,59.8,34.6,59.8z"/>
	<path class="st123" d="M52.5,24.8c0.5,0,1,0.4,1,1c0,0.5-0.5,1-1,1c-0.5,0-1-0.5-1-1C51.5,25.3,51.9,24.8,52.5,24.8z"/>
	<path class="st124" d="M60.8,29.3c0,0.1,0,0.1-0.1,0.2c-0.1,0-0.1-0.1-0.1-0.1c0-0.1,0-0.1,0.1-0.1C60.8,29.1,60.8,29.2,60.8,29.3z
		"/>
	<path class="st125" d="M37,27c-0.1-1,0.9-1.8,1.7-1.7c0.9,0.1,1.6,0.7,1.6,1.7c0,1-0.7,1.7-1.7,1.7C37.7,28.6,37,27.9,37,27z"/>
	<path class="st126" d="M32.8,55.3c0.3,0,0.4,0.2,0.4,0.3S33,56,32.8,56c-0.2,0-0.3-0.2-0.3-0.3C32.4,55.4,32.5,55.3,32.8,55.3z"/>
	<path class="st127" d="M62.5,33.6c0.2,0,0.3,0.2,0.3,0.3c0,0.2-0.1,0.3-0.3,0.3c-0.2,0-0.3-0.1-0.3-0.3
		C62.2,33.7,62.4,33.7,62.5,33.6z"/>
	<path class="st128" d="M62.6,61.5c0,0.5-0.4,0.9-0.9,0.9c-0.4,0-0.9-0.5-0.9-0.9c0-0.5,0.5-0.9,0.9-0.9
		C62.3,60.6,62.6,61,62.6,61.5z"/>
	<path class="st129" d="M19,34.3c0,1.2-1,2.3-2.2,2.3c-1.1,0-2.3-0.9-2.3-2.3c0-1.3,1.1-2.3,2.3-2.2C17.9,32,19,32.9,19,34.3z"/>
	<path class="st130" d="M78.6,57.6c-1.2,0.1-2.3-1.2-2.3-2.4c0-1.2,1.2-2.3,2.3-2.3c1.2,0,2.3,1.1,2.3,2.4
		C81,56.5,79.9,57.8,78.6,57.6z"/>
	<path class="st119" d="M70.8,58.2c0-1.1,0.9-2,2-2c1.1,0,2,1,2,2c0,1.1-1,2-2.1,2C71.7,60.2,70.8,59.3,70.8,58.2z"/>
	<path class="st131" d="M52.1,62.9c0.3,0,0.6,0.3,0.6,0.6c0,0.3-0.3,0.6-0.6,0.6c-0.3,0-0.6-0.3-0.6-0.6
		C51.5,63.2,51.8,62.9,52.1,62.9z"/>
	<path class="st132" d="M44.4,26.1c0,0.7-0.5,1.2-1.1,1.2c-0.6,0-1.2-0.7-1.2-1.2c0-0.7,0.5-1.2,1.2-1.2
		C43.9,24.9,44.4,25.5,44.4,26.1z"/>
	<path class="st133" d="M47.3,63.5c0.3,0,0.5,0.2,0.5,0.4c0,0.2-0.2,0.4-0.4,0.4c-0.3,0-0.4-0.2-0.4-0.5
		C46.9,63.7,47.1,63.5,47.3,63.5z"/>
	<path class="st134" d="M65.5,60.1c-0.1-0.9,0.8-1.8,1.6-1.7c0.9,0.1,1.6,0.7,1.6,1.7c0,0.9-0.7,1.7-1.7,1.7
		C66.2,61.8,65.4,60.9,65.5,60.1z"/>
	<path class="st135" d="M27.3,30.9c-0.6-0.1-1-1.2-0.8-1.8c0.2-0.7,0.6-1.2,1.3-1.3c0.7-0.1,1.3,0.1,1.7,0.6c0.4,0.5,0.5,1.5,0,2.2
		c-0.5,0.6-1.3,0.8-2,0.5C27.5,31.1,27.4,31,27.3,30.9c0.2-0.1,0.3,0,0.5,0c0.9,0.3,1.6-0.3,1.8-1c0.3-0.9-0.2-1.6-1-1.9
		c-0.8-0.2-1.6,0.2-1.8,1c-0.1,0.5,0,1,0.3,1.4C27.2,30.6,27.4,30.7,27.3,30.9z"/>
	<path class="st136" d="M24.5,31.3c0.2,1.2-1.2,2.1-2,2.1c-0.9,0-2.1-0.9-2-2.1c0.1-1.3,0.9-2.1,2-2.1
		C23.6,29.2,24.6,30.1,24.5,31.3z"/>
	<path class="st114" d="M42.2,63.8c0-0.4,0.3-0.7,0.6-0.7c0.4,0,0.7,0.3,0.7,0.7c0,0.4-0.3,0.7-0.7,0.6
		C42.5,64.5,42.2,64.2,42.2,63.8z"/>
	<path class="st137" d="M56.7,61.4c0.7-0.1,1.3,0.7,1.3,1.3c0,0.7-0.5,1.3-1.3,1.3c-0.7,0-1.3-0.5-1.3-1.3
		C55.5,61.9,56,61.4,56.7,61.4z"/>
	<path class="st138" d="M34.7,28.1c0,0.7-0.5,1.2-1.1,1.2c-0.6,0-1.2-0.6-1.2-1.1c0-0.7,0.6-1.2,1.2-1.2
		C34.2,26.9,34.7,27.4,34.7,28.1z"/>
	<path class="st139" d="M38.5,62.7c0.1,0.1,0.2,0.1,0.2,0.2c0,0.1-0.1,0.2-0.2,0.2c-0.1,0-0.2-0.1-0.2-0.3
		C38.3,62.8,38.4,62.7,38.5,62.7z"/>
	<path class="st140" d="M34.6,59.9c0.2,0,0.3,0.2,0.3,0.4c0,0.2-0.1,0.3-0.3,0.3c-0.2,0-0.3-0.1-0.4-0.3
		C34.2,60.1,34.4,60,34.6,59.9z"/>
	<path class="st141" d="M52.5,25c0.4,0,0.8,0.4,0.8,0.8c0,0.4-0.4,0.8-0.8,0.8c-0.4,0-0.8-0.4-0.8-0.8C51.7,25.3,52,25,52.5,25z"/>
	<path class="st116" d="M40,27.4c-0.1,0.5-0.5,1-1,1.1c-0.6,0.1-1.3-0.1-1.6-0.6c-0.4-0.6-0.3-1.4,0.2-1.9c0.4-0.4,1.1-0.6,1.7-0.4
		C39.8,25.8,40.3,26.5,40,27.4c-0.1-0.1-0.1-0.3-0.1-0.5c-0.1-0.9-0.9-1.5-1.7-1.2c-0.6,0.2-1,0.9-0.8,1.5c0.1,0.6,0.7,1.1,1.4,1
		c0.5,0,0.7-0.3,1-0.7C39.8,27.5,39.8,27.3,40,27.4z"/>
	<path class="st142" d="M32.8,55.5c0.1,0,0.2,0.1,0.2,0.2c0,0.1-0.1,0.2-0.2,0.2c-0.1,0-0.2-0.1-0.2-0.1
		C32.6,55.5,32.7,55.5,32.8,55.5z"/>
	<path class="st143" d="M62.5,33.8c0.1,0,0.2,0.1,0.2,0.2c0,0.1,0,0.2-0.1,0.2c-0.1,0-0.2-0.1-0.2-0.1
		C62.4,33.9,62.4,33.8,62.5,33.8z"/>
	<path class="st144" d="M61.7,62c-0.2,0-0.4-0.2-0.4-0.5c0-0.3,0.1-0.5,0.5-0.5c0.3,0,0.5,0.2,0.5,0.5C62.3,61.8,62.2,62,61.7,62z"
		/>
	<path class="st145" d="M18.7,34.3c0.1,1-0.8,2-2,2c-1.2,0-2-0.8-2-2c0-1.3,0.8-2,2-2.1C17.9,32.2,18.8,33.2,18.7,34.3z"/>
	<path class="st146" d="M80.8,55.4c0,1.1-1,2.1-2.1,2.1c-1.2,0-2.1-1-2.1-2.2c0-1.2,0.9-2.1,2.1-2.1C79.9,53.2,80.8,54.2,80.8,55.4z
		"/>
	<path class="st147" d="M71.1,58.2c0-0.9,0.8-1.8,1.7-1.8c0.9,0,1.8,0.8,1.8,1.8c0,0.9-0.8,1.8-1.8,1.8C71.9,60,71.1,59.2,71.1,58.2
		z"/>
	<path class="st148" d="M43.3,25.2c0.6,0,1,0.4,1,1c0,0.5-0.5,1-1,1c-0.6,0-1-0.4-1-1C42.3,25.5,42.7,25.2,43.3,25.2z"/>
	<path class="st149" d="M47.4,64.1c-0.1,0-0.1-0.1-0.1-0.1c0-0.1,0-0.1,0.1-0.1c0.1,0,0.1,0.1,0.1,0.1C47.5,64,47.5,64.1,47.4,64.1z
		"/>
	<path class="st150" d="M67.2,58.9c0.6,0,1.1,0.6,1.1,1.1c0,0.7-0.6,1.3-1.2,1.3c-0.6,0-1.2-0.6-1.1-1.2
		C66,59.4,66.5,58.9,67.2,58.9z"/>
	<path class="st151" d="M27.3,30.9c-0.4-0.4-0.7-0.9-0.7-1.5c0.1-0.6,0.3-1,0.8-1.3c0.6-0.3,1.2-0.3,1.7,0.2
		c0.4,0.4,0.6,0.8,0.5,1.5c-0.2,1-1.2,1.6-2.1,1.2C27.5,30.9,27.4,30.9,27.3,30.9C27.3,30.9,27.3,30.9,27.3,30.9z"/>
	<path class="st145" d="M20.7,31.3c0-1,0.8-1.9,1.9-1.9c1,0,1.9,0.8,1.8,1.9c0,1.2-0.8,1.9-1.8,1.9C21.5,33.3,20.7,32.6,20.7,31.3z"
		/>
	<path class="st142" d="M42.5,63.8c0-0.2,0.1-0.4,0.3-0.3c0.2,0,0.4,0.1,0.4,0.3c0,0.2-0.1,0.3-0.3,0.3C42.6,64.2,42.5,64,42.5,63.8
		z"/>
	<path class="st152" d="M57.7,62.6c0,0.6-0.5,1.1-1,1.1c-0.5,0-1-0.5-1-1.1c0-0.6,0.5-1.1,1-1.1C57.2,61.5,57.8,62,57.7,62.6z"/>
	<path class="st124" d="M33.6,28.6c-0.4,0-0.6-0.2-0.6-0.5c0-0.3,0.2-0.5,0.5-0.5c0.3,0,0.6,0.2,0.5,0.6
		C34.1,28.4,33.9,28.6,33.6,28.6z"/>
	<path class="st142" d="M34.8,60.3c0,0.1-0.1,0.2-0.2,0.2c-0.1,0-0.2-0.1-0.2-0.2c0-0.1,0.1-0.2,0.2-0.2
		C34.7,60.1,34.7,60.2,34.8,60.3z"/>
	<path class="st153" d="M53,25.8c0,0.4-0.2,0.6-0.5,0.6c-0.4,0-0.6-0.2-0.6-0.6c0-0.3,0.3-0.6,0.6-0.6C52.7,25.2,53,25.5,53,25.8z"
		/>
	<path class="st154" d="M40,27.4c-0.2,0.2-0.3,0.5-0.5,0.7c-0.5,0.5-1.3,0.5-1.9,0c-0.5-0.5-0.6-1.4-0.1-1.9c0.5-0.6,1-0.7,1.6-0.5
		c0.5,0.2,0.9,0.8,0.9,1.4C40,27.1,40,27.3,40,27.4L40,27.4z"/>
	<path class="st149" d="M61.7,61.3c0.1,0,0.3,0.1,0.3,0.2c0,0.2-0.1,0.3-0.3,0.3c-0.1,0-0.2-0.1-0.2-0.2
		C61.5,61.4,61.6,61.3,61.7,61.3z"/>
	<path class="st155" d="M18.6,34.2c0.1,1.1-0.9,1.9-1.8,1.9c-1,0-1.9-0.8-1.8-2c0-1.1,0.9-1.8,1.8-1.8
		C17.7,32.4,18.6,33.2,18.6,34.2z"/>
	<path class="st147" d="M80.5,55.4c0,1-0.8,1.8-1.8,1.8c-1,0-1.8-0.8-1.8-1.8c0-1,0.8-1.9,1.8-1.8C79.6,53.6,80.5,54.2,80.5,55.4z"
		/>
	<path class="st114" d="M71.5,58.2c0-0.7,0.6-1.3,1.2-1.4c0.7,0,1.4,0.7,1.4,1.4c0,0.7-0.7,1.3-1.4,1.3
		C72.1,59.6,71.5,58.9,71.5,58.2z"/>
	<path class="st156" d="M44,26.1c0,0.4-0.3,0.7-0.7,0.7c-0.5,0-0.8-0.3-0.8-0.7c0-0.4,0.3-0.7,0.7-0.8C43.6,25.3,44,25.7,44,26.1z"
		/>
	<path class="st157" d="M67.8,60c0,0.3-0.4,0.7-0.7,0.7c-0.3,0-0.7-0.4-0.7-0.6c0-0.3,0.4-0.7,0.7-0.7C67.5,59.4,67.8,59.7,67.8,60z
		"/>
	<path class="st158" d="M28.2,28.1c0.8-0.1,1.3,0.7,1.4,1.3c0,0.8-0.6,1.4-1.4,1.5c-0.8,0-1.4-0.6-1.4-1.4
		C26.8,28.7,27.4,28.1,28.2,28.1z"/>
	<path class="st159" d="M22.5,33c-1,0-1.7-0.7-1.7-1.7c0-0.9,0.7-1.7,1.7-1.7c1,0,1.7,0.7,1.7,1.7C24.2,32.2,23.4,33.2,22.5,33z"/>
	<path class="st160" d="M57.6,62.7c0,0.4-0.4,0.9-0.9,0.9c-0.4,0-0.8-0.5-0.8-0.9c0-0.6,0.3-0.9,0.9-0.9
		C57.3,61.8,57.6,62.1,57.6,62.7z"/>
	<path class="st161" d="M52.5,26.1c-0.2-0.1-0.3-0.1-0.3-0.3c0-0.2,0.1-0.3,0.3-0.3c0.2,0,0.2,0.1,0.2,0.3
		C52.7,26,52.6,26,52.5,26.1z"/>
	<path class="st162" d="M39.8,27c0,0.7-0.5,1.2-1.2,1.2c-0.7,0-1.2-0.6-1.2-1.3c0-0.6,0.6-1.2,1.2-1.2C39.3,25.7,39.8,26.2,39.8,27z
		"/>
	<path class="st163" d="M16.7,32.5c1,0,1.7,0.8,1.7,1.7c0,1-0.8,1.8-1.7,1.8c-0.9,0-1.7-0.8-1.7-1.7C15,33.3,15.8,32.5,16.7,32.5z"
		/>
	<path class="st164" d="M78.7,53.8c1,0,1.5,0.8,1.6,1.6c0,0.8-0.8,1.7-1.6,1.6c-0.8,0-1.6-0.9-1.6-1.7
		C77.1,54.5,77.9,53.8,78.7,53.8z"/>
	<path class="st165" d="M73.7,58.3c0,0.5-0.4,0.9-0.9,0.9c-0.5,0-0.9-0.4-0.9-0.9c0-0.5,0.4-0.9,0.9-0.9
		C73.3,57.3,73.7,57.7,73.7,58.3z"/>
	<path class="st166" d="M43.3,25.7c0.2,0,0.4,0.2,0.4,0.4c0,0.3-0.2,0.5-0.5,0.5c-0.3,0-0.4-0.2-0.4-0.5
		C42.8,25.9,42.9,25.7,43.3,25.7z"/>
	<path class="st167" d="M67.4,60.1c0,0.2-0.1,0.2-0.3,0.2c-0.1,0-0.2-0.1-0.2-0.3c0-0.2,0.1-0.2,0.3-0.2
		C67.3,59.9,67.4,60,67.4,60.1z"/>
	<path class="st168" d="M28.2,28.5c0.6,0,1,0.5,1,1c0,0.6-0.5,1.1-1.1,1.1c-0.6,0-1-0.5-1-1.1C27.2,28.8,27.5,28.5,28.2,28.5z"/>
	<path class="st169" d="M22.5,32.9c-0.9,0-1.5-0.6-1.5-1.5c0-1,0.6-1.5,1.5-1.5c0.7-0.1,1.5,0.8,1.5,1.5
		C24,32.1,23.3,32.8,22.5,32.9z"/>
	<path class="st170" d="M57.4,62.7c0,0.4-0.3,0.6-0.7,0.6c-0.4,0-0.7-0.3-0.7-0.6c0-0.3,0.4-0.7,0.7-0.7C57,62,57.4,62.4,57.4,62.7z
		"/>
	<path class="st171" d="M39.7,27c0,0.7-0.4,1.1-1.1,1.1c-0.6,0-1.1-0.5-1.1-1c0-0.7,0.5-1.2,1.1-1.2C39.2,25.9,39.7,26.3,39.7,27z"
		/>
	<path class="st172" d="M15.2,34.2c0-0.9,0.7-1.5,1.6-1.6c0.9,0,1.6,0.8,1.6,1.6c0,0.6-0.6,1.6-1.6,1.5
		C15.8,35.8,15.2,35.1,15.2,34.2z"/>
	<path class="st173" d="M80,55.4c0,0.8-0.6,1.4-1.4,1.4c-0.8,0-1.3-0.6-1.3-1.4c0-0.8,0.6-1.4,1.4-1.4C79.5,53.9,80,54.6,80,55.4z"
		/>
	<path class="st174" d="M72.8,57.6c0.3,0,0.6,0.3,0.6,0.6c0,0.4-0.3,0.7-0.6,0.7c-0.3,0-0.7-0.3-0.7-0.7
		C72.1,57.9,72.5,57.6,72.8,57.6z"/>
	<path class="st175" d="M43.2,26.4c-0.2-0.1-0.3-0.1-0.3-0.3c0-0.2,0.1-0.3,0.3-0.3c0.2,0,0.3,0.1,0.3,0.3
		C43.5,26.3,43.4,26.4,43.2,26.4z"/>
	<path class="st176" d="M28.7,29.4c0,0.3-0.2,0.5-0.5,0.5c-0.3,0-0.5-0.2-0.5-0.5c0-0.3,0.2-0.5,0.5-0.5
		C28.5,29,28.7,29.2,28.7,29.4z"/>
	<path class="st177" d="M22.5,32.6c-0.8,0-1.3-0.5-1.3-1.2c0-0.8,0.5-1.4,1.3-1.4c0.7,0,1.3,0.5,1.3,1.3
		C23.8,32.1,23.3,32.6,22.5,32.6z"/>
	<path class="st178" d="M56.7,62.2c0.3,0,0.5,0.2,0.5,0.4c0,0.2-0.2,0.5-0.5,0.5c-0.3,0-0.5-0.2-0.5-0.5
		C56.3,62.4,56.4,62.2,56.7,62.2z"/>
	<path class="st179" d="M39.5,27c0,0.6-0.3,0.9-0.9,0.9c-0.5,0-0.9-0.4-0.9-0.9c0-0.6,0.4-0.9,1-0.9C39.1,26,39.5,26.4,39.5,27z"/>
	<path class="st180" d="M18,34.3c0,0.7-0.6,1.4-1.3,1.4c-0.7,0-1.4-0.7-1.4-1.4c0-0.6,0.7-1.3,1.4-1.3C17.4,32.8,18,33.5,18,34.3z"
		/>
	<path class="st181" d="M78.7,56.5c-0.7,0-1.2-0.5-1.2-1.2c0-0.6,0.6-1.1,1.2-1.1c0.6,0,1.2,0.5,1.2,1.1
		C79.8,56,79.3,56.5,78.7,56.5z"/>
	<path class="st133" d="M73.3,58.2c0,0.3-0.2,0.5-0.5,0.5c-0.3,0-0.5-0.2-0.5-0.5c0-0.3,0.2-0.5,0.5-0.5
		C73.1,57.7,73.3,57.9,73.3,58.2z"/>
	<path class="st182" d="M22.5,32.4c-0.7,0-1.1-0.4-1.1-1.1c0-0.6,0.5-1.1,1.1-1.1c0.7,0,1.1,0.4,1.1,1C23.6,32,23.2,32.4,22.5,32.4z
		"/>
	<path class="st183" d="M57,62.6c0,0.2-0.1,0.3-0.2,0.3c-0.2,0-0.3-0.1-0.3-0.2c0-0.1,0.1-0.2,0.2-0.2C56.9,62.4,57,62.5,57,62.6z"
		/>
	<path class="st184" d="M39.3,27c0,0.5-0.3,0.7-0.8,0.7c-0.4,0-0.7-0.4-0.7-0.7c0-0.4,0.4-0.8,0.8-0.8C39.1,26.2,39.3,26.5,39.3,27z
		"/>
	<path class="st185" d="M16.7,33c0.7,0,1.2,0.5,1.2,1.2c0,0.7-0.6,1.2-1.2,1.2c-0.7,0-1.2-0.6-1.2-1.2C15.5,33.6,16.1,33,16.7,33z"
		/>
	<path class="st186" d="M79.6,55.3c0,0.6-0.4,1-0.9,1c-0.6,0-0.9-0.4-0.9-1c0-0.5,0.4-1,0.9-1C79.2,54.4,79.6,54.8,79.6,55.3z"/>
	<path class="st167" d="M72.8,58.5c-0.2,0-0.3-0.1-0.3-0.2c0-0.2,0.1-0.3,0.3-0.3c0.2,0,0.3,0.1,0.3,0.2
		C73.1,58.4,73,58.5,72.8,58.5z"/>
	<path class="st187" d="M23.5,31.3c0,0.5-0.5,1-1,1c-0.4,0-1-0.5-1-0.8c0-0.6,0.2-1.1,1-1.1C23.1,30.4,23.5,30.8,23.5,31.3z"/>
	<path class="st188" d="M39.2,26.9c0,0.4-0.2,0.6-0.5,0.6c-0.3,0-0.7-0.3-0.6-0.6c0-0.3,0.3-0.6,0.6-0.6
		C38.9,26.3,39.2,26.6,39.2,26.9z"/>
	<path class="st189" d="M16.7,33.2c0.6,0,1.1,0.4,1.1,1c0,0.6-0.4,1.1-1,1.1c-0.6,0-1.1-0.5-1.1-1C15.7,33.6,16.1,33.2,16.7,33.2z"
		/>
	<path class="st190" d="M78.7,56.1c-0.4,0-0.8-0.3-0.7-0.7c0-0.5,0.3-0.8,0.7-0.8c0.4,0,0.8,0.4,0.8,0.9
		C79.4,55.8,79.1,56.1,78.7,56.1z"/>
	<path class="st188" d="M22.5,32.2c-0.4,0-0.8-0.4-0.8-0.8c0-0.4,0.4-0.9,0.8-0.8c0.4,0,0.8,0.5,0.8,0.8
		C23.4,31.7,22.9,32.2,22.5,32.2z"/>
	<path class="st191" d="M39.1,27c0,0.3-0.3,0.5-0.5,0.4c-0.3,0-0.4-0.2-0.4-0.5c0-0.3,0.2-0.4,0.5-0.4C38.9,26.5,39,26.7,39.1,27z"
		/>
	<path class="st188" d="M16.7,33.4c0.5,0,0.9,0.4,0.9,0.9c0,0.5-0.4,0.9-0.9,0.9c-0.5,0-0.9-0.4-0.9-0.9
		C15.8,33.8,16.2,33.4,16.7,33.4z"/>
	<path class="st192" d="M78.7,54.8c0.4,0,0.6,0.2,0.6,0.6c0,0.3-0.3,0.6-0.6,0.6c-0.3,0-0.6-0.3-0.6-0.6
		C78.1,55,78.3,54.8,78.7,54.8z"/>
	<path class="st82" d="M23.2,31.3c0,0.4-0.3,0.7-0.7,0.7c-0.4,0-0.7-0.3-0.7-0.7c0-0.3,0.4-0.6,0.7-0.6
		C22.8,30.7,23.2,31.1,23.2,31.3z"/>
	<path class="st193" d="M38.9,26.9c0,0.3-0.1,0.4-0.3,0.4c-0.2,0-0.3-0.1-0.4-0.3c0-0.2,0.1-0.4,0.3-0.4
		C38.8,26.6,38.9,26.8,38.9,26.9z"/>
	<path class="st194" d="M17.5,34.2c0,0.4-0.3,0.8-0.7,0.8c-0.4,0-0.7-0.4-0.7-0.7c0-0.4,0.3-0.7,0.7-0.7
		C17,33.5,17.4,33.9,17.5,34.2z"/>
	<path class="st195" d="M78.7,54.9c0.3,0,0.4,0.2,0.4,0.4c0,0.2-0.1,0.4-0.4,0.4c-0.3,0-0.4-0.2-0.4-0.4
		C78.3,55.1,78.4,54.9,78.7,54.9z"/>
	<path class="st196" d="M22,31.3c0.1-0.3,0.2-0.4,0.5-0.4c0.3,0,0.5,0.2,0.5,0.5c0,0.3-0.2,0.5-0.5,0.5C22.2,31.8,22,31.6,22,31.3z"
		/>
	<path class="st197" d="M38.4,27c0-0.1,0.1-0.2,0.1-0.2c0.1,0,0.2,0,0.2,0.1c0,0.1-0.1,0.2-0.1,0.2C38.5,27.1,38.5,27.1,38.4,27z"/>
	<path class="st198" d="M16.8,34.8c-0.3,0-0.6-0.2-0.6-0.5c0-0.3,0.2-0.6,0.5-0.6c0.3,0,0.6,0.2,0.6,0.5
		C17.3,34.6,17.1,34.8,16.8,34.8z"/>
	<path class="st199" d="M78.9,55.3c0,0.1-0.1,0.2-0.3,0.2c-0.1,0-0.2-0.1-0.2-0.2c0-0.2,0.1-0.2,0.3-0.2
		C78.8,55.1,78.9,55.2,78.9,55.3z"/>
	<path class="st200" d="M22.8,31.3c0,0.3-0.1,0.4-0.3,0.4c-0.2,0-0.4,0-0.4-0.3c0-0.2,0.1-0.3,0.3-0.4C22.7,31,22.8,31.2,22.8,31.3z
		"/>
	<path class="st201" d="M17.1,34.2c0,0.2-0.1,0.4-0.4,0.4c-0.3,0-0.4-0.1-0.4-0.4c0-0.3,0.2-0.4,0.4-0.4C17,33.9,17.1,34,17.1,34.2z
		"/>
	<path class="st202" d="M16.8,34.4c-0.1,0-0.2-0.1-0.2-0.2c0-0.1,0.1-0.2,0.2-0.2c0.1,0,0.2,0.1,0.2,0.2
		C16.9,34.4,16.9,34.4,16.8,34.4z"/>
</g>
</svg>
