<?xml version="1.0" encoding="utf-8"?>
<!-- Generator: Adobe Illustrator 28.0.0, SVG Export Plug-In . SVG Version: 6.00 Build 0)  -->
<svg version="1.1" id="Capa_1" xmlns="http://www.w3.org/2000/svg" xmlns:xlink="http://www.w3.org/1999/xlink" x="0px" y="0px"
	 viewBox="0 0 254 92" style="enable-background:new 0 0 254 92;" xml:space="preserve">
<style type="text/css">
	.st0{fill:#293378;}
	.st1{fill:#FFFFFF;}
</style>
<g>
	<path class="st0" d="M221.6,50.6c3.9,4.6,7.7,9.2,11.6,13.9c-0.3,0-0.4,0-0.5,0c-4.3,0-8.6,0-13,0c-0.3,0-0.6-0.1-0.8-0.4
		c-3.5-4.3-7-8.5-10.4-12.8c-0.4-0.5-0.8-0.4-1.3-0.4c-0.1,0-0.1,0.1-0.1,0.2c0,0.1,0,0.3,0,0.4c0,4.1,0,8.1,0,12.2
		c0,0.1,0,0.2,0,0.4c0,0.5,0,0.5-0.5,0.5c-3.4,0-6.9,0-10.3,0c-0.1,0-0.2,0-0.3,0c-0.2,0-0.2-0.1-0.2-0.2c0-0.2,0-0.3,0-0.5
		c0-11.8,0-23.6,0-35.3c0-0.1,0-0.1,0-0.2c0-0.2,0.1-0.4,0.3-0.3c0.1,0,0.2,0,0.3,0c7.2,0,14.3,0,21.5,0c1.8,0,3.5,0.2,5.2,0.8
		c3.7,1.4,5.8,4.1,6.5,7.9c0,0.3,0.1,0.6,0.1,0.9c0,1.2,0,2.5,0,3.7c-0.1,4-2.7,7.6-6.5,9c-0.4,0.1-0.7,0.2-1.1,0.3
		C221.9,50.5,221.8,50.5,221.6,50.6z"/>
	<path class="st0" d="M28.6,64.5c-3.9,0-7.8,0-11.6,0c-0.6,0-0.6,0.1-0.6-0.6c0-2.9,0-5.7,0-8.6c0-0.1,0-0.2,0-0.3
		c0-0.1,0.1-0.2,0.2-0.2c0.1,0,0.3,0,0.4,0c6.1,0,12.3,0,18.4,0c0.3,0,0.6,0,0.9-0.1c0.5-0.2,0.8-0.5,0.8-1.1c0-0.6,0-1.1,0-1.7
		c-0.1-0.6-0.4-0.9-1-1c-0.2,0-0.5,0-0.7,0c-3.5,0-7.1,0-10.6,0c-1.8,0-3.4-0.4-4.9-1.3c-2.1-1.4-3.5-3.3-4-5.8
		c-0.1-0.4-0.1-0.9-0.1-1.3c0-1.7,0-3.3,0-5c0-4.3,2.7-7.9,6.8-9.1c1.1-0.3,2.2-0.5,3.3-0.5c2.8,0,5.5,0,8.3,0c4.5,0,9,0,13.5,0
		c0.1,0,0.2,0,0.4,0c0.3,0,0.3,0.1,0.3,0.4c0,2.8,0,5.5,0,8.3c0,0.3,0,0.4-0.4,0.4c-0.5,0-1.1,0-1.6,0c-5.7,0-11.4,0-17,0
		c-0.3,0-0.6,0-0.9,0.1c-0.6,0.1-1,0.5-1,1.1c0,0.4,0,0.8,0,1.2c0.1,0.7,0.5,1.2,1.2,1.3c0.2,0,0.4,0,0.6,0c3.3,0,6.6,0,9.9,0
		c2.3,0,4.5,0.5,6.4,1.8c1.9,1.2,3.3,2.9,3.9,5.1c0.2,0.7,0.3,1.4,0.3,2.1c0,1.6,0,3.2,0,4.7c0,1.9-0.5,3.5-1.4,5.1
		c-1.5,2.4-3.6,4.1-6.4,4.8c-0.8,0.2-1.7,0.3-2.5,0.3C35.9,64.5,32.3,64.5,28.6,64.5z"/>
	<path class="st0" d="M90.3,41.3c0,4,0,7.9,0,11.9c0,1.6-0.2,3.1-0.7,4.6c-1,2.7-2.8,4.5-5.3,5.7c-1.4,0.6-2.9,1-4.5,1.2
		c-1.3,0.2-2.6,0.2-3.9,0.2c-2.7,0-5.5,0-8.2,0c-2.5,0-5-0.5-7.2-1.7c-3.4-1.8-5.5-4.6-6-8.5c-0.1-0.6-0.1-1.1-0.1-1.7
		c0-8.1,0-16.3,0-24.4c0-0.1,0-0.2,0-0.3c0-0.2,0.1-0.3,0.3-0.3c0.1,0,0.2,0,0.3,0c3.7,0,7.4,0,11.1,0c0.6,0,0.6-0.1,0.6,0.6
		c0,7.7,0,15.4,0,23.1c0,0.5,0,0.9,0.1,1.4c0.3,1.1,1,1.7,2.1,2c0.3,0.1,0.7,0.1,1.1,0.1c1.6,0,3.3,0,4.9,0c0.3,0,0.5,0,0.8-0.1
		c1.4-0.2,2.2-1,2.3-2.4c0-0.4,0-0.8,0-1.2c0-7.6,0-15.3,0-22.9c0-0.1,0-0.2,0-0.3c0-0.2,0-0.4,0.3-0.3c0,0,0.1,0,0.2,0
		c3.8,0,7.6,0,11.4,0c0.1,0,0.2,0,0.3,0c0.2,0,0.2,0.1,0.2,0.2c0,0.1,0,0.3,0,0.4C90.3,32.8,90.3,37,90.3,41.3z"/>
	<path class="st0" d="M176.6,64.5c-4.7,0-9.4,0-14.1,0c-0.1,0-0.2,0-0.3,0c-0.4,0-0.4,0-0.4-0.4c0-0.1,0-0.2,0-0.3
		c0-11.8,0-23.5,0-35.3c0-0.7-0.1-0.6,0.6-0.6c9.2,0,18.3,0,27.5,0c0.1,0,0.2,0,0.4,0c0.2,0,0.3,0,0.3,0.3c0,0.1,0,0.2,0,0.3
		c0,2.6,0,5.3,0,7.9c0,0.1,0,0.2,0,0.3c0,0.2-0.1,0.3-0.2,0.2c-0.1,0-0.3,0-0.4,0c-5.3,0-10.6,0-15.9,0c-0.7,0-0.6-0.1-0.6,0.6
		c0,1.1,0,2.1,0,3.2c0,0.5,0,0.5,0.5,0.5c4.4,0,8.7,0,13.1,0c0.7,0,0.7,0,0.7,0.7c0,2.5,0,4.9,0,7.4c0,0.1,0,0.2,0,0.3
		c0,0.5,0,0.5-0.5,0.5c-4.4,0-8.7,0-13.1,0c-0.7,0-0.6-0.1-0.6,0.6c0,1.2,0,2.4,0,3.6c0,0.5,0,0.5,0.5,0.5c4.3,0,8.6,0,12.9,0
		c1.4,0,2.9,0,4.3,0c0.4,0,0.4,0,0.4,0.4c0,3,0,5.9,0,8.9c0,0.4,0,0.4-0.5,0.4C186.2,64.5,181.4,64.5,176.6,64.5z"/>
	<path class="st0" d="M140.5,54.8c0.3,0,0.5,0,0.6,0c5.1,0,10.2,0,15.3,0c0.6,0,0.6-0.1,0.6,0.6c0,2.8,0,5.7,0,8.5
		c0,0.1,0,0.2,0,0.3c0,0.2-0.1,0.3-0.3,0.3c-0.1,0-0.2,0-0.4,0c-10.2,0-20.4,0-30.7,0c-0.7,0-0.6,0.1-0.6-0.6c0-2.8,0-5.7,0-8.5
		c0-0.4,0.1-0.6,0.3-0.9c4-4.4,8.1-8.7,12.1-13.1c1.2-1.3,2.4-2.6,3.6-3.9c0.1-0.1,0.1-0.2,0.2-0.2c-0.2-0.1-0.4-0.1-0.5-0.1
		c-5,0-9.9,0-14.9,0c-0.7,0-0.6,0.1-0.6-0.6c0-2.7,0-5.3,0-8c0-0.1,0-0.2,0-0.3c0-0.2,0-0.4,0.3-0.4c0.1,0,0.2,0,0.3,0
		c10,0,19.9,0,29.9,0c0.7,0,0.6-0.1,0.6,0.6c0,2.7,0,5.3,0,8c0,0.3-0.1,0.6-0.3,0.8c-5,5.6-10,11.3-15,16.9
		C140.9,54.4,140.8,54.6,140.5,54.8z"/>
	<path class="st0" d="M95.5,46.2c0-5.9,0-11.8,0-17.7c0-0.1,0-0.1,0-0.2c0-0.4,0-0.4,0.4-0.4c3.8,0,7.6,0,11.4,0
		c0.4,0,0.4,0,0.4,0.5c0,4.9,0,9.7,0,14.6c0,3.8,0,7.6,0,11.4c0,0.1,0,0.2,0,0.4c0,0.2,0.1,0.3,0.3,0.3c0.1,0,0.3,0,0.4,0
		c4.4,0,8.8,0,13.2,0c0.6,0,0.6-0.1,0.6,0.6c0,2.8,0,5.6,0,8.4c0,0.1,0,0.2,0,0.3c0,0.2-0.1,0.3-0.3,0.3c-0.1,0-0.2,0-0.4,0
		c-8.5,0-16.9,0-25.4,0c-0.7,0-0.6,0.1-0.6-0.6C95.5,58,95.5,52.1,95.5,46.2C95.5,46.2,95.5,46.2,95.5,46.2z"/>
	<path class="st1" d="M211.5,42.5c-1.4,0-2.9,0-4.3,0c-0.4,0-0.4,0-0.4-0.4c0-1.6,0-3.2,0-4.7c0-0.4,0-0.4,0.4-0.4
		c2.7,0,5.4,0,8.2,0c0.4,0,0.8,0,1.1,0.1c0.8,0.2,1.3,0.7,1.5,1.5c0.1,0.8,0.1,1.5-0.1,2.3c-0.2,0.9-0.9,1.5-1.9,1.6
		c-0.2,0-0.5,0-0.7,0C214.1,42.5,212.8,42.5,211.5,42.5z"/>
</g>
</svg>
