<?xml version="1.0" encoding="utf-8"?>
<!-- Generator: Adobe Illustrator 28.0.0, SVG Export Plug-In . SVG Version: 6.00 Build 0)  -->
<svg version="1.1" id="Capa_1" xmlns="http://www.w3.org/2000/svg" xmlns:xlink="http://www.w3.org/1999/xlink" x="0px" y="0px"
	 viewBox="0 0 185 92" style="enable-background:new 0 0 185 92;" xml:space="preserve">
<style type="text/css">
	.st0{fill:#FEFEFE;}
	.st1{fill:#E42629;}
	.st2{fill:#E4272A;}
	.st3{fill:#E4282B;}
	.st4{fill:#E52A2D;}
	.st5{fill:#FEFCFC;}
	.st6{fill:#FEFDFD;}
	.st7{fill:#FEFAFB;}
	.st8{fill:#FDF6F7;}
	.st9{fill:#E52E32;}
	.st10{fill:#FDF9F9;}
</style>
<g>
	<path class="st0" d="M91.9,89c-24.1,0-48.1,0-72.2,0c-0.6,0-0.7-0.1-0.7-0.7c0-26.5,0-53,0-79.5C19,8.1,19.1,8,19.7,8
		C67.8,8,116,8,164.1,8c0.6,0,0.7,0.1,0.7,0.7c0,26.5,0,53,0,79.5c0,0.6-0.1,0.7-0.7,0.7C140,89,116,89,91.9,89z"/>
	<path class="st1" d="M33.6,37.6c1.1-3.4,2.2-6.6,3.2-9.9c0.2-0.5,0.4-0.7,0.9-0.7c0.9,0.1,1.9-0.2,2.5,0.2c0.7,0.4,0.6,1.5,0.9,2.3
		c0.8,2.4,1.6,4.9,2.4,7.3c0.1,0.2,0.1,0.4,0.3,0.6c0.7-2.3,1.5-4.5,2.2-6.8c0.3-0.9,0-1.3-1-1.3c-0.6,0-0.7-0.1-0.7-0.7
		c0-1.6,0-1.6,1.5-1.6c1.3,0,2.6,0,4,0c0.5,0,0.8,0.1,0.7,0.7c0,0.1,0,0.3,0,0.4c0.1,0.8,0.1,1.5-1.1,1.3c-0.4-0.1-0.7,0.3-0.8,0.6
		c-1.5,4.6-3,9.2-4.5,13.8c-0.2,0.7,0.2,1.2,0.9,1.1c0.8-0.1,0.9,0.3,0.9,0.9c0,1.4,0,1.4-1.4,1.4c-2.4,0-4.8,0-7.2,0
		c-0.5,0-0.7-0.1-0.7-0.7c0-0.2,0-0.4,0-0.6c-0.1-0.8,0-1.2,1-1.1c0.6,0.1,1-0.4,0.8-1.1c-0.7-2.3-1.4-4.6-2.3-6.9
		c-0.4,1.3-0.9,2.6-1.3,3.9c-0.3,0.9-0.6,1.8-0.9,2.8c-0.3,0.9,0,1.4,1,1.3c0.7,0,0.8,0.2,0.8,0.8c0,1.5,0,1.5-1.5,1.5
		c-2.3,0-4.6,0-7,0c-0.7,0-0.9-0.2-0.8-0.8c0-0.2,0-0.4,0-0.6c-0.1-0.7,0.1-1,0.9-1c0.8,0.1,1.1-0.4,0.9-1.2
		c-1.5-4.5-2.9-9.1-4.4-13.6c-0.2-0.6-0.6-0.9-1.2-0.8c-0.5,0.1-0.7-0.1-0.7-0.7c0-1.6,0-1.6,1.6-1.6c2.9,0,5.7,0,8.6,0
		c0.7,0,0.9,0.2,0.8,0.9c0,0.2,0,0.3,0,0.5c0.1,0.7,0,1-0.9,1c-0.7-0.1-1.1,0.4-0.9,1C32,32.7,32.8,35.1,33.6,37.6z"/>
	<path class="st1" d="M125,47.2c-2.4,0-4.7,0-7.1,0c-0.6,0-0.9-0.1-0.8-0.8c0-0.2,0-0.4,0-0.6c-0.1-0.7,0-1.1,0.9-1
		c0.7,0.1,1-0.3,1-1c0-4.5,0-9,0-13.5c0-0.8-0.3-1.1-1.2-1c-0.6,0-0.7-0.2-0.7-0.7c0-1.6,0-1.6,1.6-1.6c4.5,0,9.1,0,13.6,0
		c0.6,0,0.8,0.2,0.8,0.8c0,1.3,0,2.7,0,4c0,0.5-0.2,0.6-0.6,0.6c-1.7,0-1.7,0-1.7-1.6c0-1.5-0.1-1.6-1.6-1.6c-0.8,0-1.5,0-2.3,0
		c-0.7,0-1.1,0.3-1.1,1.1c0,1.7,0,3.4,0,5.1c0,0.4,0.1,0.6,0.5,0.5c0.3,0,0.6,0,0.9,0c0.9,0,1.2-0.3,1.2-1.2c0-0.6,0.1-0.7,0.7-0.7
		c1.6,0,1.6,0,1.6,1.6c0,1.3,0,2.6,0,3.9c0,0.6-0.2,0.7-0.7,0.7c-0.2,0-0.4,0-0.6,0c-0.7,0.1-1-0.1-0.9-0.9c0.1-0.7-0.3-1-1-1
		c-1.6-0.1-1.6-0.1-1.6,1.5c0,1.3,0,2.6,0,4c0,0.9,0.3,1.2,1.2,1.2c0.8,0,1.7,0,2.5,0c1,0,1.2-0.3,1.2-1.3c0-0.1,0-0.2,0-0.3
		c0-1.8,0-1.8,1.8-1.6c0.3,0,0.5,0.1,0.5,0.5c0,1.5,0,3,0,4.5c0,0.6-0.3,0.5-0.7,0.5C129.9,47.2,127.4,47.2,125,47.2z"/>
	<path class="st1" d="M147.6,35.4c1-1.7,2-3.3,2.8-5c0.3-0.6-0.1-1.2-0.8-1.1c-1,0.1-1.1-0.4-1-1.1c0-0.2,0-0.4,0-0.6
		c-0.1-0.5,0.2-0.6,0.6-0.6c1.8,0,3.6,0,5.3,0c0.5,0,0.7,0.2,0.6,0.7c0,0.2,0,0.3,0,0.5c0.1,0.8,0,1.3-1,1.2
		c-0.4-0.1-0.7,0.2-0.9,0.6c-1.4,2.4-2.7,4.8-4.1,7.1c-0.2,0.3-0.2,0.5-0.2,0.8c0,1.9,0,3.9,0,5.8c0,0.9,0.2,1.2,1.2,1.2
		c0.7,0,0.7,0.2,0.7,0.8c0,1.5,0,1.5-1.5,1.5c-2.8,0-5.6,0-8.4,0c-0.6,0-0.9-0.1-0.8-0.7c0-0.1,0-0.3,0-0.4c-0.1-0.8,0-1.3,1-1.2
		c0.6,0.1,0.9-0.4,0.9-0.9c0-1.3,0-2.5,0-3.8c0-0.3-0.2-0.6-0.3-0.8c-1.8-3.1-3.6-6.2-5.4-9.3c-0.3-0.5-0.7-0.8-1.3-0.7
		c-0.5,0.1-0.7-0.1-0.7-0.7c0-1.6,0-1.6,1.6-1.6c3.2,0,6.4,0,9.6,0c0.6,0,0.8,0.2,0.7,0.8c0,0.2,0,0.3,0,0.5c0.1,0.7,0,1.2-0.9,1.1
		c-0.8-0.1-1.1,0.6-0.8,1.2C145.7,32.2,146.6,33.8,147.6,35.4z"/>
	<path class="st1" d="M90,27c2.4,0,4.8,0,7.2,0c0.5,0,0.8,0.1,0.7,0.7c0,1.4,0,2.8,0,4.2c0,0.5-0.1,0.6-0.6,0.6
		c-1.7,0-1.7,0-1.7-1.7c0-1.4-0.1-1.5-1.5-1.5c-0.8,0-1.6,0-2.4,0c-0.6,0-0.9,0.3-0.9,1c0,1.7,0,3.5,0,5.2c0,0.4,0.2,0.6,0.6,0.5
		c0.2,0,0.5,0,0.7,0c1,0,1.3-0.2,1.3-1.2c0-0.6,0.2-0.7,0.7-0.7c1.5,0,1.5,0,1.5,1.5c0,1.3,0,2.6,0,4c0,0.4-0.1,0.7-0.6,0.6
		c-0.2,0-0.3,0-0.5,0c-0.8,0.1-1.3,0-1.2-1c0.1-0.6-0.4-0.9-1-0.9c-1.5,0-1.5-0.1-1.5,1.5c0,1.3,0,2.6,0,4c0,1,0.2,1.2,1.2,1.2
		c0.6,0,0.7,0.2,0.7,0.7c0,1.6,0,1.6-1.5,1.6c-2.8,0-5.5,0-8.3,0c-0.6,0-0.9-0.1-0.8-0.8c0-0.2,0-0.4,0-0.6c-0.1-0.7,0.1-1.1,0.9-1
		c0.6,0.1,0.9-0.3,0.9-1c0-4.6,0-9.1,0-13.7c0-0.7-0.4-1-1-1c-0.7,0.1-0.9-0.2-0.9-0.8c0-1.5,0-1.5,1.5-1.5C85.6,27,87.8,27,90,27z"
		/>
	<path class="st1" d="M72.3,47.2c-2.4,0-4.7,0-7.1,0c-0.6,0-0.9-0.1-0.8-0.8c0-0.2,0-0.4,0-0.6c-0.1-0.7,0.1-1,0.9-0.9
		c0.7,0.1,1-0.3,1-1c0-4.5,0-9,0-13.5c0-0.8-0.4-1.1-1.1-1c-0.6,0.1-0.8-0.1-0.8-0.8c0-1.5,0-1.5,1.5-1.5c2.8,0,5.6,0,8.4,0
		c0.6,0,0.9,0.1,0.8,0.8c0,0.2,0,0.4,0,0.6c0.1,0.7-0.1,1.1-0.9,1c-0.7-0.1-1,0.4-1,1c0,4.5,0,9,0,13.5c0,0.7,0.4,1.1,1.1,1.1
		c0.9,0,1.8,0,2.7,0c0.9,0,1.1-0.3,1.2-1.1c0-0.2,0-0.3,0-0.5c0-1.7,0-1.7,1.7-1.6c0.5,0,0.6,0.2,0.6,0.6c0,1.4,0,2.8,0,4.2
		c0,0.5-0.1,0.7-0.7,0.7C77.2,47.2,74.8,47.2,72.3,47.2z"/>
	<path class="st1" d="M107.5,47.2c-2.4,0-4.8,0-7.2,0c-0.6,0-0.9-0.1-0.8-0.7c0-0.2,0-0.4,0-0.6c-0.1-0.7,0.1-1,0.9-0.9
		c0.8,0.1,1-0.5,1-1.2c0-2.8,0-5.7,0-8.5c0-1.5,0-3.1,0-4.6c0-1-0.2-1.3-1.2-1.3c-0.5,0-0.7-0.1-0.7-0.7c0-1.6,0-1.6,1.6-1.6
		c2.8,0,5.6,0,8.3,0c0.6,0,0.8,0.2,0.8,0.8c0,0.2,0,0.3,0,0.5c0.1,0.7,0,1.2-1,1.1c-0.6-0.1-1,0.4-1,1c0,4.5,0,9,0,13.5
		c0,0.7,0.3,1,1,1c0.9,0,1.9,0,2.8,0c0.7,0,1.1-0.3,1-1c0-0.6,0-1.1,0-1.7c0-0.3,0.1-0.5,0.5-0.5c0,0,0.1,0,0.1,0
		c1.7-0.1,1.7-0.1,1.7,1.6c0,1.1,0,2.1,0,3.2c0,0.6-0.2,0.8-0.8,0.7C112.3,47.2,109.9,47.2,107.5,47.2z"/>
	<path class="st1" d="M57.5,47.2c-1.4,0-2.8,0-4.2,0c-1,0-1,0-1-1.1c0-0.1,0-0.2,0-0.2c-0.1-0.7,0.1-1.1,0.9-1
		c0.6,0.1,0.9-0.3,0.9-0.9c0-4.5,0-9,0-13.5c0-0.7-0.3-1.2-1.1-1.1c-0.7,0.1-0.7-0.2-0.7-0.8c0-1.5,0-1.5,1.5-1.5c2.8,0,5.5,0,8.3,0
		c0.6,0,0.9,0.1,0.8,0.8c0,0.2,0,0.4,0,0.6c0.1,0.7-0.1,1.1-0.9,1c-0.6-0.1-0.9,0.3-1,0.9c0,0.2,0,0.5,0,0.7c0,4.2,0,8.5,0,12.7
		c0,1,0.2,1.2,1.2,1.2c0.6,0,0.7,0.2,0.7,0.7c0,1.6,0,1.6-1.5,1.6C60,47.2,58.7,47.2,57.5,47.2z"/>
	<path class="st1" d="M131.7,67.3c0.4-1.7,0.9-3.1,1.2-4.6c0.1-0.5,0.4-0.7,0.9-0.7c1.7,0,1.7,0,1.7,1.7c0,1.8,0,3.7,0,5.5
		c0,0.6-0.3,0.7-0.8,0.7c-0.5,0-0.8-0.1-0.7-0.7c0-1.6,0-3.3-0.1-5c-0.1,0.2-0.1,0.4-0.2,0.7c-0.4,1.5-0.8,2.9-1.1,4.4
		c-0.1,0.6-0.4,0.6-0.9,0.6c-0.5,0-0.8,0-1-0.6c-0.3-1.4-0.7-2.9-1.1-4.3c-0.1-0.2-0.1-0.5-0.3-0.7c0,1.7,0,3.3,0,5
		c0,0.6-0.2,0.7-0.8,0.7c-0.5,0-0.8-0.1-0.8-0.7c0-2.2,0-4.4,0-6.6c0-0.5,0.2-0.6,0.6-0.6c1.7,0,1.7,0,2.2,1.6
		C130.9,64.8,131.3,66,131.7,67.3z"/>
	<path class="st1" d="M96.3,55.1c0-1.2,0-2.5,0-3.7c0-0.5,0.1-0.7,0.7-0.7c1.2,0.1,2.3,0,3.5,0c1.4,0,2.4,0.8,2.9,2.1
		c0.6,1.5,0.6,3,0,4.6c-0.5,1.3-1.5,2-2.9,2.1c-1.2,0.1-2.4,0-3.6,0.1c-0.4,0-0.5-0.2-0.5-0.5C96.3,57.7,96.3,56.4,96.3,55.1z"/>
	<path class="st2" d="M55.3,55.1c0,1.2,0,2.5,0,3.7c0,0.5-0.1,0.7-0.7,0.7c-1.4-0.1-1.1,0.1-1.1-1.1c0-0.7,0-1.5,0-2.2
		c0-0.4-0.1-0.6-0.5-0.6c0,0-0.1,0-0.1,0c-0.9,0-2.1-0.3-2.7,0.1c-0.6,0.5-0.2,1.7-0.2,2.6c0,1-0.6,1.4-1.6,1.1
		c-0.2-0.1-0.2-0.3-0.2-0.4c0-2.6,0-5.3,0-7.9c0-0.3,0.1-0.4,0.4-0.4c0.3,0,0.6,0,0.9,0c0.4,0,0.5,0.1,0.5,0.5c0,0.8,0,1.6,0,2.4
		c0,0.4,0.1,0.5,0.5,0.5c0.8,0,1.7,0,2.5,0c0.4,0,0.5-0.2,0.5-0.5c0-0.8,0-1.6,0-2.4c0-0.4,0.1-0.5,0.5-0.5c1.3-0.1,1.3-0.1,1.3,1.2
		C55.3,53,55.3,54.1,55.3,55.1z"/>
	<path class="st1" d="M57.5,55.1c0-1.3,0-2.5,0-3.8c0-0.4,0.1-0.6,0.6-0.6c1.8,0,3.6,0,5.4,0c0.7,0,0.6,0.4,0.6,0.8
		c0,0.4,0.1,0.8-0.6,0.7c-1.2-0.1-2.4,0-3.6,0c-0.5,0-0.6,0.1-0.6,0.6c0,1.3,0,1.3,1.3,1.3c0.8,0,1.7,0,2.5,0
		c0.7-0.1,0.6,0.3,0.7,0.8c0,0.5-0.1,0.8-0.7,0.7c-1-0.1-2.1,0-3.2,0c-0.4,0-0.6,0.1-0.6,0.6c-0.1,1.8-0.1,1.8,1.8,1.8
		c0.9,0,1.8,0,2.7,0c0.7,0,0.5,0.4,0.5,0.7c0,0.3,0.2,0.8-0.5,0.8c-1.9,0-3.8,0-5.7,0c-0.5,0-0.5-0.2-0.5-0.6
		C57.5,57.7,57.5,56.4,57.5,55.1z"/>
	<path class="st1" d="M112.6,54.2c0,1-0.1,2-0.1,3c-0.1,1.1-0.6,1.9-1.7,2.3c-1.1,0.4-2.2,0.4-3.3,0.1c-1.3-0.4-1.9-1.4-2-2.7
		c-0.1-1.9,0-3.8-0.1-5.7c0-0.3,0.1-0.5,0.5-0.5c0.2,0,0.4,0,0.6,0c0.6-0.1,0.7,0.1,0.7,0.7c0,1.6,0,3.3,0,4.9c0,1.3,0.9,2,2.1,1.8
		c0.8-0.1,1.3-0.6,1.3-1.4c0-1.8,0.1-3.6,0-5.3c0-0.9,0.5-0.7,1-0.7c0.5,0,1-0.1,0.9,0.7C112.5,52.4,112.6,53.3,112.6,54.2
		C112.6,54.2,112.6,54.2,112.6,54.2z"/>
	<path class="st1" d="M74.1,59.5c-0.2,0-0.3,0-0.4,0c-1.5,0-1.5,0-2-1.3c-0.2-0.5-0.4-0.7-0.9-0.6c-0.8,0-1.5,0-2.3,0
		c-0.4,0-0.7,0.1-0.8,0.5c-0.6,1.5-0.6,1.5-2.3,1.4c-0.1-0.2,0-0.4,0.1-0.6c1-2.5,2-5,3-7.6c0.2-0.5,0.5-0.7,0.9-0.6
		c0.5,0.1,1.1-0.3,1.5,0.6C71.8,54,72.9,56.7,74.1,59.5z"/>
	<path class="st1" d="M62.2,66.4c1.3,0.8,1.8,2.2,2.6,3.3c-1.6,0.3-1.7,0.3-2.6-0.9c-0.3-0.5-0.7-1-1-1.5c-0.2-0.3-0.4-0.5-0.8-0.7
		c-0.9-0.3-1.1-0.1-1.1,0.8c0,0.6,0,1.2,0,1.9c0,0.6-0.3,0.6-0.7,0.6c-0.4-0.1-0.9,0.3-0.9-0.5c0-2.3,0-4.6,0-6.9
		c0-0.4,0.1-0.5,0.5-0.5c1.3,0,2.6,0,4,0.1c1.2,0.1,1.9,0.7,2,1.8c0.1,1.2-0.4,2-1.7,2.4C62.5,66.3,62.4,66.4,62.2,66.4z"/>
	<path class="st1" d="M44,64.8c0,1.7,0,3.1,0,4.5c0,0.7-0.4,0.6-0.8,0.6c-0.5,0-0.7-0.1-0.7-0.7c0-2.1,0-4.2,0-6.3
		c0-0.3-0.3-0.8,0.3-0.9c0.5,0,1.1-0.3,1.5,0.4c0.8,1.4,1.7,2.8,2.5,4.1c0.1,0.2,0.2,0.3,0.5,0.7c0-1.6,0-3,0-4.4
		c0-0.6,0.1-0.8,0.8-0.8c0.6,0,0.8,0.2,0.8,0.8c0,2.1,0,4.2,0,6.2c0,0.3,0.2,0.8-0.2,0.8c-0.5,0-1.2,0.4-1.6-0.3
		c-0.8-1.4-1.7-2.7-2.5-4C44.4,65.3,44.2,65.1,44,64.8z"/>
	<path class="st1" d="M90,65.6c1.7,0,1.7,0,1.7,1.7c0,0.5,0.3,1.1-0.2,1.5c-0.8,0.7-1.8,1-2.9,1.1c-1.6,0-3-0.4-3.8-2
		c-0.8-1.6-0.7-3.3,0.4-4.8c1.4-1.9,5.1-1.8,6.1,0.2c0.1,0.2,0.5,0.7,0.1,0.8c-0.5,0.1-1,0.6-1.5,0c-0.6-0.8-1.3-1.1-2.3-0.8
		c-0.9,0.3-1.4,0.9-1.5,1.8c0,0.4-0.1,0.8,0,1.2c0.2,1.9,1.7,2.8,3.5,2c0.5-0.2,0.7-0.6,0.6-1.1c-0.1-0.5-0.5-0.2-0.8-0.3
		c-0.4-0.1-0.9,0.3-1.1-0.4c-0.2-0.8,0-0.9,0.8-0.9C89.3,65.6,89.7,65.6,90,65.6z"/>
	<path class="st1" d="M74.4,50.7c0.6,0,1.1,0,1.6,0c0.4,0,0.4,0.3,0.5,0.6c0.6,1.7,1.1,3.3,1.7,5c0.1,0.2,0.2,0.5,0.3,0.9
		c0.6-1.9,1.2-3.6,1.8-5.3c0.4-1.2,0.4-1.2,1.7-1.2c0.2,0,0.3,0,0.6,0c-0.5,1.4-1,2.7-1.4,4c-0.5,1.4-1,2.9-1.5,4.3
		c-0.1,0.3-0.3,0.6-0.7,0.5c-0.5-0.1-1.3,0.3-1.5-0.3C76.4,56.5,75.5,53.6,74.4,50.7z"/>
	<path class="st2" d="M34.9,65.9c0-1.1,0-2.2,0-3.3c0-0.4,0.1-0.6,0.6-0.6c1.6,0,3.2,0,4.8,0c0.6,0,0.5,0.3,0.5,0.7
		c0,0.4,0,0.7-0.5,0.7c-1,0-2.1,0-3.1,0c-0.8-0.1-0.6,0.5-0.7,0.9c0,0.5,0,0.9,0.7,0.8c0.9-0.1,1.8,0,2.7,0c0.6,0,0.5,0.3,0.5,0.7
		c0,0.3,0.1,0.7-0.5,0.7c-0.9,0-1.9,0-2.8,0c-0.4,0-0.6,0.1-0.6,0.6c0,1.6-0.1,1.6,1.5,1.6c0.8,0,1.6,0,2.3,0c0.6,0,0.5,0.4,0.5,0.7
		c0,0.4,0,0.6-0.5,0.6c-1.6,0-3.3,0-4.9,0c-0.5,0-0.5-0.2-0.5-0.6C34.9,68.2,34.9,67.1,34.9,65.9z"/>
	<path class="st1" d="M147.9,61.9c1.1,0,2.1,0.3,2.7,1.5c0.1,0.3,0.4,0.8,0,0.8c-0.5,0.1-1.1,0.4-1.5-0.2c-0.5-0.8-1.2-1-2.1-0.7
		c-0.3,0.1-0.6,0.3-0.6,0.6c0,0.3,0.2,0.5,0.5,0.6c0.8,0.3,1.6,0.5,2.4,0.8c1.1,0.4,1.8,1.2,1.7,2.3c-0.1,1.1-0.9,2-2,2.2
		c-0.7,0.1-1.4,0.2-2.2,0c-0.9-0.2-1.5-0.7-1.9-1.5c-0.2-0.3-0.5-0.9-0.3-1c0.3-0.2,0.8-0.2,1.2-0.2c0.3,0,0.3,0.3,0.4,0.4
		c0.4,1,1.7,1.4,2.7,0.8c0.3-0.2,0.5-0.5,0.5-0.9c0-0.4-0.3-0.6-0.6-0.7c-0.5-0.2-1.1-0.3-1.6-0.5c-1.6-0.5-2.3-1.3-2.2-2.5
		c0.1-1.1,1.1-1.8,2.7-1.9C147.7,61.9,147.8,61.9,147.9,61.9z"/>
	<path class="st1" d="M125.9,64.9c0,0.6,0,1.3,0,1.9c0,2.8-1.3,3.2-3.5,3.2c-1.8,0-2.7-1-2.8-2.8c-0.1-1.5,0-3.1,0-4.6
		c0-0.8,0.5-0.5,0.9-0.5c0.4,0,0.8-0.1,0.8,0.6c0,1.5,0,3,0,4.4c0,1.2,0.9,1.9,2.1,1.6c0.7-0.2,1-0.7,1-1.4c0-1.5,0-3,0-4.5
		c0-0.7,0.3-0.7,0.8-0.7c0.5,0,0.9,0,0.8,0.7C125.9,63.4,125.9,64.1,125.9,64.9C125.9,64.9,125.9,64.9,125.9,64.9z"/>
	<path class="st1" d="M100.5,69.9c-0.3,0-0.5,0-0.7,0c-0.8,0.1-1.2-0.2-1.4-0.9c-0.1-0.7-0.5-1-1.2-0.9c-0.2,0-0.5,0-0.7,0
		c-1.1-0.2-1.9,0.1-2,1.3c-0.1,0.4-1.4,0.7-1.7,0.4c-0.1-0.1-0.1-0.3,0-0.4c0.9-2.3,1.8-4.7,2.7-7c0.2-0.5,0.5-0.4,0.9-0.4
		c0.4,0,0.9-0.2,1.1,0.3C98.5,64.8,99.5,67.3,100.5,69.9z"/>
	<path class="st1" d="M76.3,65c0-0.8,0.1-1.5,0-2.3c-0.1-0.7,0.3-0.8,0.8-0.8c0.7,0,0.8,0.2,0.8,0.8c0,1.5,0,2.9,0,4.4
		c0,0.8,0.4,1.2,1.1,1.4c1.1,0.3,1.9-0.2,2-1.4c0-1.5,0-2.9,0-4.4c0-0.3-0.1-0.7,0.1-0.7c0.4-0.1,0.9,0,1.3,0c0.2,0,0.2,0.3,0.2,0.4
		c0,1.5,0,3.1,0,4.6c0,2.6-1.6,3-3.5,2.9c-1.9-0.1-2.6-1-2.7-2.8C76.3,66.4,76.3,65.7,76.3,65C76.3,65,76.3,65,76.3,65z"/>
	<path class="st2" d="M137.3,65.9c0-1.1,0-2.2,0-3.2c0-0.6,0.2-0.7,0.7-0.7c1.1,0.1,2.2,0,3.3,0.1c1.3,0.1,2,0.9,2.1,2.2
		c0.1,1.3-0.7,2.3-1.9,2.5c-0.7,0.1-1.3,0.1-2,0.1c-0.4,0-0.5,0.1-0.5,0.5c0,0.6,0,1.1,0,1.7c0.1,0.7-0.3,0.8-0.8,0.8
		c-0.6,0-0.8-0.2-0.8-0.8C137.3,68,137.3,67,137.3,65.9z"/>
	<path class="st1" d="M112,65.9c0-1.1,0-2.2,0-3.3c0-0.5,0.1-0.6,0.6-0.6c1.1,0,2.3,0,3.4,0.1c1.3,0.1,2,0.9,2.1,2.3
		c0,1.3-0.7,2.3-2,2.4c-0.6,0.1-1.3,0.1-1.9,0.1c-0.4,0-0.5,0.1-0.5,0.5c0,0.6,0,1.2,0,1.8c0.1,0.7-0.3,0.7-0.8,0.7
		c-0.5,0-0.9,0-0.8-0.7C112,68.1,112,67,112,65.9z"/>
	<path class="st1" d="M26.3,66.2c0-3,1.8-4.6,4.4-4.2c1,0.2,1.8,0.7,2.2,1.7c0.2,0.4,0.2,0.6-0.3,0.7c-0.6,0.2-1,0.3-1.5-0.5
		c-0.6-1-2.4-0.7-2.9,0.4c-0.4,1.1-0.4,2.2,0,3.3c0.3,0.7,0.8,1,1.6,1c0.8,0,1.3-0.4,1.6-1.1c0.4-1,1-0.3,1.4-0.2
		c0.6,0.2,0.2,0.6,0,0.9c-0.6,1.2-1.9,1.9-3.3,1.8c-1.5-0.1-2.8-1.2-3.2-2.7C26.4,66.9,26.4,66.4,26.3,66.2z"/>
	<path class="st1" d="M91.3,50.7c-1,1.5-1.8,2.9-2.7,4.3c-0.4,0.6-0.6,1.1-0.5,1.8c0,0.7,0,1.5,0,2.2c0,0.4-0.1,0.6-0.5,0.5
		c-0.3,0-0.5,0-0.8,0c-0.4,0-0.5-0.1-0.4-0.5c0,0,0-0.1,0-0.1c0.4-2.4-0.5-4.4-2-6.2c-0.5-0.6-0.8-1.3-1.3-2c0.6,0,1.1,0,1.5,0
		c0.4,0,0.6,0.1,0.8,0.5c0.6,1,1.2,1.9,1.8,3c0.5-0.9,1.1-1.8,1.5-2.6c0.3-0.6,0.7-0.9,1.4-0.8C90.5,50.8,90.8,50.7,91.3,50.7z"/>
	<path class="st1" d="M121.7,50.7c0.6,0,1,0,1.4,0c0.5-0.1,0.8,0.1,1.1,0.6c0.5,0.9,1.1,1.8,1.7,2.9c0.6-0.9,1.1-1.7,1.5-2.6
		c0.3-0.7,0.8-1,1.5-0.9c0.3,0,0.6,0,1.1,0c-0.9,1.4-1.7,2.7-2.5,4c-0.5,0.8-0.8,1.5-0.7,2.5c0,0.5,0,1,0,1.5
		c0.1,0.7-0.2,0.9-0.9,0.9c-0.8,0-1-0.2-0.9-1c0.3-2-0.3-3.7-1.5-5.2C122.8,52.6,122.4,51.7,121.7,50.7z"/>
	<path class="st2" d="M116.7,55.9c0-1,0-2.1,0-3.1c0-0.4-0.1-0.5-0.5-0.5c-0.5,0-1,0-1.5,0c-0.6,0.1-0.6-0.3-0.6-0.7
		c0-0.5,0-0.8,0.6-0.8c1.9,0,3.9,0,5.8,0c0.7,0,0.6,0.3,0.6,0.8c0,0.5,0,0.8-0.6,0.7c-0.6,0-1.5-0.2-1.9,0.1c-0.5,0.4-0.1,1.3-0.2,2
		c0,1.5,0,3,0,4.5c0,0.5-0.1,0.7-0.7,0.7c-1.4-0.1-1.1,0.1-1.1-1.2C116.7,57.5,116.7,56.7,116.7,55.9z"/>
	<path class="st2" d="M69.4,65.9c0-1.1,0-2.2,0-3.3c0-0.4,0.1-0.6,0.6-0.6c1.4,0,2.9,0,4.3,0c0.6,0,0.5,0.3,0.5,0.7
		c0,0.4-0.1,0.6-0.6,0.6c-0.9,0-1.8,0-2.7,0c-0.5,0-0.6,0.1-0.6,0.6c0,0.2,0,0.3,0,0.5c-0.1,0.6,0.1,0.9,0.8,0.8c0.7-0.1,1.3,0,2,0
		c0.5,0,0.5,0.3,0.5,0.6c0,0.4,0.1,0.7-0.6,0.7c-0.8-0.1-1.5,0-2.3,0c-0.4,0-0.5,0.1-0.5,0.5c0,0.8,0,1.6,0,2.3
		c0,0.7-0.5,0.5-0.8,0.5c-0.4,0-0.8,0.1-0.7-0.5C69.4,68.2,69.4,67.1,69.4,65.9z"/>
	<path class="st2" d="M52.5,66.6c0-0.9,0-1.8,0-2.7c0-0.5-0.1-0.6-0.6-0.6c-0.3,0-0.6,0-1,0c-0.5,0-0.8,0-0.8-0.7
		c0-0.7,0.4-0.6,0.8-0.6c1.6,0,3.2,0,4.8,0c0.5,0,0.7,0.1,0.7,0.6c0,0.5-0.1,0.7-0.7,0.7c-1.7,0-1.7,0-1.7,1.7c0,1.4,0,2.8,0,4.2
		c0,0.7-0.4,0.6-0.8,0.6c-0.4,0-0.9,0.1-0.8-0.6C52.6,68.4,52.5,67.5,52.5,66.6z"/>
	<path class="st2" d="M101.7,65.9c0-1,0-2.1,0-3.1c0-0.6,0.1-0.8,0.8-0.8c0.6,0,0.8,0.1,0.8,0.8c-0.1,1.7,0,3.3,0,5
		c0,0.6,0.2,0.7,0.7,0.7c0.9,0,1.8,0,2.8,0c0.5,0,0.5,0.3,0.5,0.7c0,0.4,0,0.7-0.5,0.7c-1.5,0-3,0-4.4,0c-0.5,0-0.6-0.1-0.6-0.6
		C101.7,68.2,101.7,67.1,101.7,65.9z"/>
	<path class="st3" d="M67.5,66c0,1.1,0,2.2,0,3.3c0,0.7-0.4,0.6-0.9,0.6c-0.4,0-0.8,0.1-0.8-0.6c0-2.2,0-4.5,0-6.7
		c0-0.6,0.3-0.6,0.8-0.6c0.4,0,0.9-0.1,0.8,0.6C67.5,63.7,67.5,64.8,67.5,66z"/>
	<path class="st4" d="M161.7,29.4c0,1.3-1.1,2.4-2.4,2.4c-1.4,0-2.4-1.1-2.4-2.4c0-1.4,1.1-2.4,2.5-2.4
		C160.7,27.1,161.7,28.1,161.7,29.4z"/>
	<path class="st0" d="M31.2,44.9c-1.3-3.8-2.4-7.5-3.6-11.1c-0.4-1.3-0.8-2.6-1.3-3.9c-0.2-0.4-0.1-0.6,0.4-0.6
		c1.8,0,1.8-0.1,2.3,1.6c1.1,3.2,2.1,6.5,3.2,9.7c0.1,0.4,0.1,0.8,0,1.2C31.9,42.8,31.6,43.8,31.2,44.9z"/>
	<path class="st0" d="M38.7,29.3c0.7,2.1,1.3,4.1,2,6c0.6,1.8,1.2,3.6,1.8,5.4c0.1,0.3,0.2,0.6,0,0.9c-0.4,1-0.7,2.1-1.1,3.3
		c-0.8-2.4-1.5-4.6-2.2-6.8c-0.5-1.5-0.9-3-1.5-4.4c-0.2-0.5-0.2-0.9,0-1.4C38.1,31.4,38.3,30.4,38.7,29.3z"/>
	<path class="st0" d="M123.5,37.2c0,2.4,0,4.7,0,7.1c0,0.6-0.2,0.7-0.7,0.7c-1.6,0-1.6,0-1.6-1.5c0-4.4,0-8.9,0-13.3
		c0-0.6,0.2-0.8,0.8-0.8c1.5,0,1.5,0,1.5,1.5C123.5,32.9,123.5,35,123.5,37.2z"/>
	<path class="st0" d="M138.8,29.3c0.8,0,1.5,0,2.2,0c0.3,0,0.5,0.2,0.6,0.4c1.7,2.9,3.3,5.8,5,8.7c0.1,0.3,0.2,0.5,0.2,0.8
		c0,1.7,0,3.4,0,5.1c0,0.6-0.2,0.7-0.7,0.7c-1.5,0-1.7,0-1.5-1.6c0.3-2.9-0.4-5.4-2.1-7.7c-1.2-1.8-2.2-3.7-3.3-5.6
		C139.1,29.9,139,29.6,138.8,29.3z"/>
	<path class="st5" d="M86.1,37.2c0-2.4,0-4.7,0-7.1c0-0.6,0.2-0.7,0.7-0.7c1.6,0,1.6,0,1.6,1.6c0,4.4,0,8.8,0,13.3
		c0,0.7-0.2,0.9-0.9,0.8c-1.5,0-1.5,0-1.5-1.4C86.1,41.4,86.1,39.3,86.1,37.2z"/>
	<path class="st0" d="M68.6,37.1c0-2.3,0-4.7,0-7c0-0.6,0.1-0.7,0.7-0.7c1.6,0,1.6,0,1.6,1.6c0,4.4,0,8.8,0,13.3
		c0,0.7-0.1,0.9-0.8,0.8c-1.5-0.1-1.5,0-1.5-1.5C68.6,41.3,68.6,39.2,68.6,37.1z"/>
	<path class="st0" d="M103.7,37.1c0-2.3,0-4.6,0-7c0-0.6,0.1-0.9,0.8-0.8c1.5,0,1.5,0,1.5,1.6c0,4.4,0,8.8,0,13.3
		c0,0.7-0.1,0.9-0.8,0.9c-1.5,0-1.5,0-1.5-1.5C103.7,41.4,103.7,39.2,103.7,37.1z"/>
	<path class="st6" d="M56.4,37.2c0-2.3,0-4.7,0-7c0-0.6,0.1-0.8,0.8-0.8c1.5,0,1.5,0,1.5,1.5c0,4.5,0,8.9,0,13.4
		c0,0.6-0.1,0.8-0.8,0.8c-1.5,0-1.5,0-1.5-1.5C56.4,41.4,56.4,39.3,56.4,37.2z"/>
	<path class="st0" d="M98,55.1c0-0.8,0-1.6,0-2.4c0-0.4,0.1-0.5,0.5-0.5c1,0.1,2.3-0.3,2.9,0.9c0.7,1.4,0.6,2.8,0,4.2
		c-0.3,0.6-0.9,0.7-1.5,0.7C98,58.2,98,58.2,98,56.3C98,55.9,98,55.5,98,55.1z"/>
	<path class="st7" d="M69.6,52.8c0.4,1.1,0.7,1.9,1,2.7c0.2,0.4,0.1,0.5-0.4,0.6c-1.9,0.1-1.9,0.1-1.3-1.7
		C69.1,54,69.3,53.5,69.6,52.8z"/>
	<path class="st6" d="M60.7,63.4c0.4,0,0.8,0,1.1,0c0.5,0.1,0.8,0.4,0.8,0.9c0,0.5-0.2,0.8-0.7,0.9c-0.7,0.1-1.4,0.1-2.1,0.1
		c-0.3,0-0.4-0.1-0.4-0.4C59.2,63.4,59.2,63.4,60.7,63.4z"/>
	<path class="st8" d="M96.5,63.8c0.3,0.9,0.6,1.7,0.9,2.5c0.1,0.3,0.1,0.4-0.2,0.4c0,0-0.1,0-0.1,0c-1.8,0.2-1.8,0.2-1.2-1.5
		C96.1,64.8,96.3,64.4,96.5,63.8z"/>
	<path class="st6" d="M138.9,64.3c-0.2-0.7,0-1.1,1-1c1.3,0.1,1.8,0.3,1.8,1.1c0,0.8-0.5,1.1-1.9,1.2
		C138.7,65.6,138.9,65,138.9,64.3z"/>
	<path class="st6" d="M113.6,64.2c-0.2-0.6,0.1-0.9,1-0.9c1.3,0.1,1.8,0.3,1.8,1.1c0,0.8-0.5,1-2,1.1
		C113.3,65.6,113.6,64.9,113.6,64.2z"/>
	<path class="st5" d="M159.3,31.4c-1,0-1.9-0.8-1.9-1.9c0-1.1,0.8-1.9,1.9-1.9c1.1,0,1.9,0.8,1.9,1.9
		C161.3,30.5,160.5,31.3,159.3,31.4z"/>
	<path class="st9" d="M160.4,30.6c-1,0.3-0.7-1.1-1.5-1c0,0-0.1,0-0.1,0.1c-0.2,0.3,0.2,0.9-0.3,0.9c-0.4,0-0.2-0.6-0.2-0.9
		c0-0.2,0-0.4,0-0.6c-0.2-0.8,0.3-1,1-0.9c0.4,0.1,0.8,0,1,0.4c0.1,0.4,0.1,0.7-0.3,0.9c-0.2,0.1-0.1,0.3,0,0.4
		C160.1,30.1,160.2,30.3,160.4,30.6z"/>
	<path class="st10" d="M159.1,29.3c-0.2,0-0.4,0-0.4-0.4c0-0.3,0.2-0.3,0.4-0.3c0.2,0,0.5,0,0.5,0.3
		C159.7,29.2,159.4,29.2,159.1,29.3z"/>
</g>
</svg>
