<?xml version="1.0" encoding="utf-8"?>
<!-- Generator: Adobe Illustrator 28.0.0, SVG Export Plug-In . SVG Version: 6.00 Build 0)  -->
<svg version="1.1" id="Capa_1" xmlns="http://www.w3.org/2000/svg" xmlns:xlink="http://www.w3.org/1999/xlink" x="0px" y="0px"
	 viewBox="0 0 893 229.3" style="enable-background:new 0 0 893 229.3;" xml:space="preserve">
<style type="text/css">
	.st0{fill:#FEFEFE;}
	.st1{fill:#09C2A9;}
	.st2{fill:#18294F;}
	.st3{fill:#43D0BD;}
</style>
<g>
	<path class="st0" d="M857,80.1c0,36.6,0,73.1,0,109.7c0,1.5-0.2,1.8-1.8,1.8c-273.1,0-546.1,0-819.2,0c-1.6,0-1.8-0.4-1.8-1.9
		c0-50.1,0-100.3,0-150.4c0-1.5,0.3-1.8,1.8-1.8c17.4,0.1,34.9,0,52.3,0c1.2,2.8,0.7,5.8,0.5,8.7c-0.9,11.5-4,22.5-9.3,32.8
		c-9.4,18-23.3,31.2-41.8,39.6c-1.8,0.8-2.6,1.8-2.6,3.8c0.1,7.2,0,14.4,0,21.7c0,2.3,0.3,2.5,2.5,1.8c13.8-4.8,26.3-11.7,37.3-21.2
		c17.6-15.2,29.5-34,35.6-56.4c1.4-5.1,2.4-10.3,2.9-15.6c0.1-1.2,0.2-2.3,1.2-3.3c1.1,1.3,1.1,2.7,1.2,4.1
		c1.4,11.8,4.7,23.1,9.7,33.9c6.4,13.7,15.3,25.6,26.4,35.7c11.2,10.2,24,17.9,38.4,22.8c2.4,0.8,2.5,0.7,2.5-1.8
		c0-7.2,0-14.4,0-21.7c0-1.8-0.6-2.8-2.2-3.6c-9.8-4.5-18.5-10.6-25.9-18.4c-13.5-14.2-21.6-31-23.9-50.5c-0.4-3.2-0.4-6.5-0.4-9.7
		c0-0.9-0.1-1.8,0.6-2.5c237.9,0,475.8,0,713.7,0c1.7,0,2.1,0.4,2,2c-0.1,6.4,0,12.8,0,19.2c-1.2,1-2.7,0.7-4.1,0.7
		c-28.2,0-56.5,0-84.7,0c-5,0-4.5-0.2-4.5,4.6c0,4.1,0,8.3,0,12.4c0,2.5,0.3,2.8,2.8,2.8c9,0,18,0,27.1,0c0.8,0,1.6,0,2.4,0
		c3,0.1,3.5,0.6,3.6,3.5c0,0.9,0,1.8,0,2.7c0,32.9,0,65.8,0,98.7c0,4,0,4,4,4c4.3,0,8.6,0,12.9,0c3.9,0,3.9,0,3.9-4
		c0-31,0-61.9,0-92.9c0-2.9-0.1-5.9,0-8.8c0.1-2.4,0.6-3,3.1-3.1c10.4-0.1,20.9-0.1,31.3,0C855.5,79.4,856.3,79.5,857,80.1z"/>
	<path class="st1" d="M141.2,37.7c-0.7,19.9,5.1,37.8,16.9,53.7c8.8,12,20.2,21,33.8,27.2c1,0.4,1.7,0.8,1.7,2.2
		c-0.1,8.6,0,17.3-0.1,25.9c0,0.2-0.1,0.4-0.1,0.6c-34.1-9.7-73.4-43.9-78.5-97.2c-6.9,48.4-33.5,80.9-80.2,97.8c0-4.9,0-9.1,0-13.4
		c0-4.3,0.1-8.7,0-13c0-1.5,0.5-2.2,1.8-2.8c23.9-10.8,39.9-28.5,48.1-53.4c2.9-9,4.2-18.2,3.8-27.6C106,37.7,123.6,37.7,141.2,37.7
		z"/>
	<path class="st2" d="M857,80.1c-11.1,0-22.2,0.1-33.3,0c-2.1,0-2.7,0.4-2.7,2.6c0.1,34.7,0,69.3,0.1,104c0,1.9-0.4,2.4-2.4,2.4
		c-5.8-0.1-11.7-0.2-17.5,0c-2.1,0.1-2.4-0.7-2.4-2.6c0.1-34.6,0-69.2,0.1-103.7c0-2.1-0.4-2.7-2.6-2.7c-10.4,0.1-20.8,0-31.3,0.1
		c-1.8,0-2.1-0.6-2.1-2.2c0.1-5.6,0.1-11.2,0-16.8c0-1.8,0.4-2.3,2.3-2.3c30.1,0.1,60.2,0,90.3,0c0.5,0,1,0,1.6,0
		C857,66,857,73.1,857,80.1z"/>
	<path class="st2" d="M757.7,124.1c-0.3,19.6-6.5,36.9-21.3,50.4c-14.3,13.1-31.5,18-50.7,16.5c-17-1.4-31.4-8.2-42.9-20.9
		c-9.7-10.8-14.9-23.6-16.3-37.9c-1.5-15,0.7-29.5,8.2-42.7c11.2-19.5,28.3-30.3,50.6-32.3c21.2-1.9,39.7,4.3,54.6,19.9
		c10.1,10.6,15.4,23.5,17.2,38C757.5,118,757.6,121,757.7,124.1z"/>
	<path class="st2" d="M373.4,123.7c0.5-22.3,8.4-41.2,27-54.8c13.5-9.9,28.9-13.3,45.5-11.8c17.2,1.6,31.8,8.6,43.1,21.7
		c9.7,11.2,14.7,24.4,15.8,39c1.2,15.9-1.8,30.9-10.6,44.3c-11.3,17.2-27.4,26.6-47.8,28.7c-17.9,1.8-34.2-2.3-48.4-13.6
		c-13.9-11-21.4-25.7-23.9-43.2C373.7,130.7,373.6,127.3,373.4,123.7z"/>
	<path class="st2" d="M254.5,123.7c0-20.8,0-41.6,0-62.4c0-1.9,0.4-2.5,2.4-2.4c13.2,0.1,26.3,0,39.5,0.1c18.6,0.1,35,5.9,47.9,19.8
		c9.2,9.9,14.3,21.9,16,35.2c2,16-0.2,31.4-8.7,45.3c-10.7,17.6-26.8,26.9-47.1,29.2c-3.7,0.4-7.4,0.4-11.1,0.4
		c-12.3,0-24.6,0-36.8,0c-1.6,0-2.4-0.3-2.1-2c0.1-0.4,0-0.7,0-1.1C254.5,165.2,254.5,144.4,254.5,123.7z"/>
	<path class="st2" d="M614.2,189c-6.2,0-12.3,0-18.4,0c-2.4,0-5.3,0.7-7.2-0.4c-1.8-1-2.7-3.7-4-5.7c-8.7-13.8-17.4-27.6-26-41.4
		c-0.7-1.2-1.5-1.8-3-1.7c-2.1,0.2-4.1,0.2-6.2,0c-1.7-0.1-2.1,0.5-2.1,2.1c0.1,13.1,0,26.2,0,39.4c0,2-0.1,4,0,6
		c0,1.2-0.2,1.7-1.5,1.7c-6.5-0.1-13-0.1-19.5,0c-1,0-1.5-0.3-1.4-1.4c0-0.4,0-0.7,0-1.1c0-41.7,0-83.3-0.1-125
		c0-2.1,0.4-2.7,2.6-2.7c13.5,0.1,26.9,0,40.4,0.1c10.6,0.1,20.5,2.6,28.9,9.4c10.9,9,14.8,20.9,14,34.6c-0.3,5.1-1.4,10.1-3.5,14.7
		c-4.6,10.3-12.6,16.9-23.4,20.1c-1.7,0.5-1.9,0.9-0.9,2.4c10,15.5,20,31,29.9,46.4C613.5,187.4,614.2,187.9,614.2,189z"/>
	<path class="st1" d="M113.9,189c-25.6,0-51.2,0-76.7,0.1c-2.1,0-2.5-0.6-2.5-2.5c0.1-7.2,0.1-14.5,0-21.7c0-1.5,0.3-2,1.9-2
		c51.7,0,103.4,0,155,0c1.6,0,1.9,0.5,1.9,2c-0.1,7.3-0.1,14.6,0,21.9c0,1.8-0.4,2.3-2.3,2.3C165.6,189,139.8,189,113.9,189z"/>
	<path class="st3" d="M114.7,47.8c0-1,0-1.5,0-2.1C115.1,46.3,115.2,46.9,114.7,47.8z"/>
	<path class="st0" d="M735,124.2c-0.3,13.8-4.6,26-15.1,35.5c-19,17.3-57,14.3-68.2-18.7c-5.8-17.2-3.7-33.7,7.8-48.2
		c18.2-22.8,59.9-20.4,72.3,13.1C734,111.8,735,117.9,735,124.2z"/>
	<path class="st0" d="M396.2,123.9c0.4-15.3,5.3-28.5,17.9-37.9c19.8-14.9,55.9-10.5,66,22.7c5.1,16.8,2.7,32.9-8.7,46.7
		c-10.3,12.5-24.2,16.6-39.8,13.9c-16.3-2.7-26.8-12.8-32.5-28C397,135.7,396.2,129.9,396.2,123.9z"/>
	<path class="st0" d="M276.9,124c0-13.9,0-27.9,0-41.8c0-1.7,0.4-2.1,2.1-2.1c7.5,0.2,15.1-0.5,22.6,0.4c17.3,2,28.9,11.6,34.1,28
		c5.7,18,2.7,34.6-10.8,48.4c-6.9,7-15.7,10.4-25.5,10.8c-6.9,0.3-13.9,0-20.8,0.1c-1.9,0-1.6-1-1.6-2.1
		C276.9,151.8,276.9,137.9,276.9,124z"/>
	<path class="st0" d="M547.5,99.4c0-5.7,0.1-11.5,0-17.2c0-1.7,0.5-2.1,2.1-2c7.1,0.2,14.2-0.4,21.3,0.5c9.6,1.1,16.3,7.1,17.3,15.5
		c1.5,13.1-5.5,21.6-18.9,22.4c-6.8,0.4-13.6,0.1-20.4,0.2c-1.4,0-1.3-0.8-1.3-1.7C547.5,111.2,547.5,105.3,547.5,99.4z"/>
</g>
</svg>
