<?xml version="1.0" encoding="utf-8"?>
<!-- Generator: Adobe Illustrator 28.0.0, SVG Export Plug-In . SVG Version: 6.00 Build 0)  -->
<svg version="1.1" id="Capa_1" xmlns="http://www.w3.org/2000/svg" xmlns:xlink="http://www.w3.org/1999/xlink" x="0px" y="0px"
	 viewBox="0 0 893 229.3" style="enable-background:new 0 0 893 229.3;" xml:space="preserve">
<style type="text/css">
	.st0{fill:#A5A5A5;}
	.st1{fill:#A6A6A6;}
	.st2{fill:#FAF5F2;}
	.st3{fill:#FDF3F3;}
	.st4{fill:#97202F;}
	.st5{fill:#FCF9F9;}
	.st6{fill:#FCF2EF;}
	.st7{fill:#B51F29;}
	.st8{fill:#FDEEED;}
	.st9{fill:#BF0D18;}
	.st10{fill:#B11A25;}
	.st11{fill:#BE1E26;}
	.st12{fill:#B51420;}
	.st13{fill:#FCEFED;}
	.st14{fill:#BF0A0F;}
	.st15{fill:#C10817;}
	.st16{fill:#B41F29;}
	.st17{fill:#AD1B26;}
	.st18{fill:#F6FEF9;}
	.st19{fill:#F5FEFA;}
	.st20{fill:#FEFEFE;}
	.st21{fill:#B51627;}
	.st22{fill:#C00812;}
	.st23{fill:#AD343B;}
	.st24{fill:#C4060E;}
	.st25{fill:#C40316;}
	.st26{fill:#BF0A0B;}
	.st27{fill:#BC0D03;}
	.st28{fill:#C4060F;}
	.st29{fill:#C2090C;}
	.st30{fill:#B71423;}
	.st31{fill:#BC0E14;}
	.st32{fill:#B41C28;}
	.st33{fill:#C3070F;}
	.st34{fill:#C10A0F;}
	.st35{fill:#C1080D;}
	.st36{fill:#CF0013;}
	.st37{fill:#C4070F;}
	.st38{fill:#C1090A;}
	.st39{fill:#BF0B09;}
	.st40{fill:#C00A0F;}
	.st41{fill:#C7050A;}
	.st42{fill:#C30706;}
	.st43{fill:#C30703;}
	.st44{fill:#C30E1D;}
	.st45{fill:#C3070E;}
	.st46{fill:#C20711;}
	.st47{fill:#C3080F;}
	.st48{fill:#C40604;}
	.st49{fill:#C40414;}
	.st50{fill:#C60415;}
	.st51{fill:#C70405;}
	.st52{fill:#C2080A;}
	.st53{fill:#C20A03;}
	.st54{fill:#BF0B05;}
	.st55{fill:#C40706;}
	.st56{fill:#C6040C;}
	.st57{fill:#BF0A11;}
	.st58{fill:#C30804;}
	.st59{fill:#C10903;}
	.st60{fill:#C6020E;}
	.st61{fill:#C30514;}
	.st62{fill:#C60313;}
	.st63{fill:#C20404;}
	.st64{fill:#C10601;}
	.st65{fill:#C60315;}
	.st66{fill:#C70312;}
	.st67{fill:#C00B0E;}
	.st68{fill:#C40605;}
	.st69{fill:#C70007;}
	.st70{fill:#C60714;}
	.st71{fill:#FEFDFD;}
	.st72{fill:#C20909;}
	.st73{fill:#C10802;}
	.st74{fill:#C50316;}
</style>
<g>
	<path class="st0" d="M609.7,125.8c6.2,8.7,11.9,16.7,17.6,24.8c2.7,3.9,5.5,7.7,8.2,11.7c2.4,3.5,2,5.7-2.9,5.7
		c-6.4-0.1-12.8,0-19.2-0.1c-3.9,0-6.5-2-8.7-5.2c-7.4-11-15-21.9-22.6-32.8c-1.4-2-2.5-5.1-5.8-4.2c-3.7,1-2,4.4-2.1,6.7
		c-0.2,9.5-0.3,19,0,28.5c0.2,5.4-2.2,7.2-7.2,7.1c-22-0.3-18.2,2.6-18.3-17.7c-0.2-28.5,0.1-57-0.2-85.5c-0.1-6.8,2.2-9.5,9-9.2
		c19.2,0.8,38.5-1.3,57.6,1.2c10.3,1.3,15.5,6.3,16,16.7c0.6,12.1,0.5,24.2,0,36.3c-0.3,9.1-4.4,13.1-13.2,14.9
		C615.4,125.2,613.1,125.4,609.7,125.8z"/>
	<path class="st0" d="M737.9,115.1c-0.7,9.2,1.5,21.8-1.1,34.3c-2.3,11.1-7.4,15.8-18.8,17.2c-17,2.2-34.1,2.1-51.1-0.1
		c-13-1.7-19.2-7.9-19.8-23.5c-0.8-22.5-1.9-45.1,0.7-67.5c1.3-11.5,6.1-16.7,17.4-18.3c17.9-2.5,36-2.6,53.9,0.1
		c12.2,1.8,18.1,9.6,18.5,23.2C738.1,90.9,737.9,101.3,737.9,115.1z"/>
	<path class="st1" d="M798.4,133.3c-6.3,9.8-12.3,18.9-17.9,28.2c-2.9,4.9-6.6,6.9-12.2,6.5c-5.4-0.4-10.9,0-16.4-0.1
		c-1.8,0-4.1,0.9-5-1.4c-0.7-1.7,1-3,1.9-4.4c10-14.7,19.9-29.5,30.3-44c3.6-5,3-8.4-0.4-13.1c-10.3-14.2-19.9-29-29.9-43.4
		c-3.1-4.4-2.7-6.4,3-6c0.5,0,1,0,1.4,0c23.4-0.2,23.4-0.2,35.5,19.7c2.9,4.8,5.5,9.9,10.1,14.3c5.6-8.9,11.3-17.4,16.3-26.2
		c3.3-5.8,7.5-8.6,14.4-8c5.2,0.5,10.4,0.2,15.7,0.1c5.3-0.1,5.7,1.8,2.9,5.8c-10.4,15-20.5,30.3-31.2,45.1
		c-3.1,4.3-2.7,7.2,0.1,11.1c10.4,14.7,20.6,29.6,30.7,44.5c1,1.4,3.2,2.9,1.9,4.9c-1,1.6-3.1,0.7-4.6,0.8
		c-24.5,0.7-24.5,0.7-37.5-19.8C804.6,143.5,801.8,138.8,798.4,133.3z"/>
	<path class="st0" d="M473.6,169.2c-10.8-0.3-19.4-4.2-23.5-15.1c-1.8-4.7-3.9-9.2-5.4-13.9c-2.2-7.6,0.9-13.7,7.8-16
		c7.5-2.6,13.1,0.2,16.2,8.1c0.2,0.4,0.3,0.9,0.5,1.3c1.4,2.4,1.7,6.4,4.7,6.5c3.8,0.2,4-4.2,5.1-6.8c9.2-22.6,18.3-45.3,27-68.1
		c2.7-7.1,7.1-10.2,14.5-9.7c3.5,0.2,7.1,0.2,10.7,0c4.8-0.2,6.5,1,4.5,6.2c-11.7,29.5-23.1,59.2-34.7,88.8
		C496.3,162.7,486.6,169.3,473.6,169.2z"/>
	<path class="st2" d="M298.5,164.8c-1.2,5.8-6.6,4.4-9.7,4.4c-18.5-0.3-37.1,1.9-55.6-1.2c-7.2-1.2-10.4-6.5-14.2-11.3
		c-0.9-0.9-0.8-1.9,0-2.8c-2.4-28.6-2.1-57.2-0.3-85.8c0.3-4.7,3.1-7.2,6.2-8.7c6.6-3.1,13.6-6.2,21-5.7c12.6,0.8,25.2,0.7,37.7,0.2
		c6.2-0.3,11.3,2.8,17.1,3.4c4.4,0.4,11,12.1,11,17.2c0,22.7,0,45.4-0.1,68.1c0,5.4-1.4,10.5-3.1,15.8
		C306.7,163.6,303.6,165.1,298.5,164.8c10-10.6,10.1-23.8,9.8-37.1c-0.3-12.8-0.1-25.6,0-38.4c0-4.8-0.4-9.4-1.4-14.1
		c-2-9.3-7.2-14.9-16.5-16.1c-19.3-2.5-38.7-3-57.9,1.3c-2.7,0.9-5.2,2.1-6.8,4.7c-0.8,1.2-1.4,2.6-2,3.9c-2,4.9-2.8,9.9-2.8,15.2
		c0.1,17.5,0.2,35,0,52.5c-0.3,23.6,8.4,28,28.3,29c14.6,0.8,29.3,1.3,43.9-1.5C294.9,163.9,296.8,163.6,298.5,164.8z"/>
	<path class="st3" d="M66.4,169.4c-6.1,0.1-12.2,0.3-18.3,0.4c-7.9,0.2-10.2-1.9-10.2-10.1c-0.1-22.3,0-44.6,0-66.9
		c0-10,0-19.9,0-29.9c0-6.1,1.8-9.4,9.1-9.2c20.9,0.5,41.7,0.2,62.6,0.2c14.6,0,14.6-0.1,15.3,14.6c0.5,10.6-2,12.8-12.6,12.6
		c-13.7-0.2-27.4,0.2-41,0.2c-1.2,0-2.3-0.5-2.4,1.4c-0.1,4.4-1.2,8.7,0.4,13.1c1,2.8,2.4,3.5,5.3,3.1c10.8-1.5,21.5,1.7,32.3,0.2
		c2-0.3,4.2,0.8,5.1,3.1c-0.7,0.6-1.6,0.9-2.5,1c-11.8-0.9-23.6-0.2-35.5-0.4c-8.2-0.2-9.7-1.5-9.6-9.5c0-4.9-0.9-9.9,1-14.7
		c0.8-1.3,2-1.8,3.3-2.2c2.6-0.5,5.3-0.2,7.9-0.5c11.8,0,23.7-0.2,35.5,0.1c4.3,0.1,7.8,0.1,7.7-6.1c-0.2-10.1-0.7-12-7.5-12.3
		c-8.7-0.4-17.5-0.1-26.3-0.2c-10.9,0-21.8,0-32.7,0c-3.3,0-6.7-0.2-9.7,1.5c-2.8,1.9-2.6,4.9-2.6,7.7c0,30-0.1,60.1,0,90.1
		c0,7.7,1.4,8.9,9.3,9c5,0.1,9.9-0.1,14.9-0.6c0.9,0.2,1.6,0.6,2.3,1.2l0,0C68.5,168.1,67.7,168.9,66.4,169.4z"/>
	<path class="st4" d="M159.1,56.8c3.6,1.6,2.3,4.8,2.3,7.4c0.1,24.7,0.2,49.3-0.1,74c-0.1,5.7,1.8,7.2,7.2,7
		c10.9-0.4,21.8,0,32.7-0.2c5-0.1,7.4,1.6,7.4,6.9c0.1,19.5,0.3,15.9-15.2,16c-16.8,0.1-33.7-0.1-50.5,0.1c-5.9,0.1-8.5-1.4-8.4-8
		c0.4-19.7,0.3-39.3,0.4-59c0.9-0.4,1.7-0.2,2.2,0.7c1.6,2.9,1.2,6,1.2,9.1c0,14.7,0,29.4,0.1,44.1c0,2.5-0.7,5.3,1.1,7.5
		c10.1,1.5,20.3,0.2,30.4,0.5c8.8,0.2,17.5,0.1,26.3,0c6.5-0.1,8.5-2.3,8.4-8.6c-0.1-5.5-4.1-5.6-8-5.6c-9.2,0-18.5-0.3-27.7,0.2
		c-8.8,0.4-12-2.2-11.9-10.9c0.3-22.5-1.4-45,1-67.4c0.4-4.1-0.6-8.5-3.3-12.1C154.8,54.7,157.1,56.3,159.1,56.8z"/>
	<path class="st5" d="M317.5,55.7c2-2.7,4.9-2.1,7.7-2.1c1.6,0,4.5,0.5,4.7,0c1.6-4.3,5.3-1.7,7.8-2.5c2.8-0.9,14.2,9,14.1,12.1
		c-0.4,11.3,5.2,21,10.6,29.8c2.7,4.5,7.4,6.5,3.7,12.4c6,5.3,3.7,15.2,10.9,19.9c1.5,1,4.4,2.6,1.1,5.1c-0.7,0.5-0.3,1.3,0.4,1.6
		c1.2,0.6,2.5,0.2,3.2-0.8c3.1-3.8,4.5-8.2,4-13.1l0,0c4-0.9,3.6-4.4,4.2-7.2c1-4.3,2.3-8.3,5.8-11.4c0.9,0.8,1.1,1.9,1,3.1
		c-2.7,13-7.2,25.3-14.3,36.6c-4.4,3.2-6.5,0.1-8.2-3.3c-2.5-5.1-4.4-10.5-6.5-15.8c-7.1-17.9-14.9-35.5-21.6-53.5
		c-2.6-7-7.1-9.3-14-9.4C327.2,57.1,322.1,58.5,317.5,55.7z"/>
	<path class="st6" d="M395.7,102c0-0.8,0-1.6,0-2.5c2.7-9.6,5.1-19.5,11.4-27.4c12.7-16.4,36.3-12,44.2,7.9c3,7.5,5.8,15.2,9,22.6
		c1.8,4.2-1,7.3-2.4,10.4c-2.5,5.6-10,8.1-17.4,6.3c-4.3-1-8.2-3-7.6-8.6c4.8,2,8.4,7.3,14.7,5.3c8-3.6,9.7-7.9,6.7-16.9
		c-2.2-7-4.7-13.9-8.3-20.3c-4.6-8-11-12.5-20.8-11.7c-9.5,0.7-14.9,6.3-18.7,14.1c-2.7,5.5-4.2,11.5-6.6,17.2
		C398.6,99.8,399.1,103.1,395.7,102z"/>
	<path class="st7" d="M317.5,55.7c6.2,0,12.3,0,18.5,0c5.3,0,8.8,2.4,10.8,7.5c9.1,22.9,18.2,45.8,27.7,68.5
		c1.1,2.6-0.2,10.1,7.2,6.3c2.3,0.2,2.1,1.8,1.9,3.4c-3.7,4.4-6.8,1.5-10.1-0.6c-1.5-1.3-2.1-3.1-2.4-4.9c-0.7-5.3-3.5-9.8-5.4-14.6
		c-2.9-9.3-7-18.1-10.8-27.1c-1.1-2.9-1.9-5.9-3.2-8.7c-2.5-5.6-4.8-11.3-7-17.1c-3.1-8-6.6-9.7-18.5-9.1c-0.9,0.2-1.8,0.4-2.7,0.6
		c-3,0.7-1.2,4.4-3.4,5.6C318.2,62.5,316.3,59.6,317.5,55.7z"/>
	<path class="st8" d="M67.8,166.6c-0.6-0.1-1.2-0.1-1.8-0.2c-1.7-2-1.6-4.4-1.6-6.8c-0.1-9.7-0.1-19.5,0-29.2c0-3.6,0.2-7.2,4.1-9.2
		c10.5-1.9,21.1-0.5,31.7-0.9c8.1-0.3,8.2-0.4,8.4-8.5c0.1-3.2-0.8-6.7,1.8-9.4c0.5,0,1.1,0,1.6-0.1c0,0.5,0,0.9,0.1,1.4
		c2.8,4.5-0.9,9.7,1.4,14.3c-1.9,5.5-5.5,7.5-11.4,7.2c-9-0.4-18-0.1-27.1-0.1c-1.6,1.8-4.1,2.4-5.7,4.3c-2.9,5.8-1,12-1.3,18
		C67.6,153.8,67.8,160.2,67.8,166.6z"/>
	<path class="st9" d="M424.6,99.7c-1.1,3.7-2.2,7.3-3.3,11c-3.4,10.2-6.7,20.5-11.6,30.1l0.1-0.1c-0.9,3.9-1.6,7.9-4.4,11
		c-1.4,1.4-2.4,3.5-5,2.6c-1.5-1.5-0.5-3.1,0-4.6c0.5-1.2,1.1-2.3,1.6-3.5c1-3,2.8-5.6,3.6-8.7c2.2-3.5,1.6-7.7,3-11.4
		c1.8-2.2,3.5-4.4,4.7-7c2.1-4.3,3.1-8.9,2.9-13.7c0.7-2.5,2.8-3.7,4.7-5.2C422,99.4,423.2,98.7,424.6,99.7z"/>
	<path class="st10" d="M400.1,153.8c2.2,0.2,2.8-2.3,4.5-2.8c0.5,1.5,1,2.9-0.7,4l0.1-0.1c-2.8,14.4-23.3,17.6-35.3,12.7
		c-1.5-0.6-3-1.5-4.3-2.5c-2.6-2.7-6.2-4.5-7.6-8.4c1.7-1.3,3.1-0.3,4.5,0.5c1.6,1.4,2.8,3.2,5,3.8c2,0.8,3.9,1.8,5.9,2.6
		c0.6,0.2,1.2,0.4,1.7,0.6c4.3,1.1,8.6,0.8,12.9,0.3c0.6-0.2,1.1-0.4,1.7-0.6c2.2-0.8,4.4-1.7,6.3-3.2c1.8-1.6,2.5-3.9,3.9-5.8
		C399.1,154.5,399.5,154.1,400.1,153.8z"/>
	<path class="st11" d="M136.2,101c-0.4,0-0.9,0-1.3,0.1c-0.1-13.2-0.1-26.5-0.3-39.7c0-3,0.9-5.5,4.1-5.4c6.8,0.1,13.6-1.3,20.3,0.9
		c-1.5,0.1-3.2-0.2-4.2,1.4c-0.9,1-2,1.4-3.3,1.6c-13.4-0.3-13.3-0.3-13.2,12.8c0.1,6.8,0.1,13.6,0,20.5
		C138.3,95.9,138.6,98.8,136.2,101z"/>
	<path class="st12" d="M361.5,158.1c-1.6-0.4-3.1-0.9-4.7-1.3c-6.8-10.4-9.9-22.3-14.1-33.8c-0.4-1-0.6-2.1-0.3-3.1
		c3.7-1.1,4.2,2.2,5.1,4.2c1.5,3.4,2.8,6.9,4.3,10.3c0.2,3.9,2.3,7.2,3.4,10.8c0.5,3.9,2.8,6.7,5.4,9.4c0.6,0.8,1,1.7,1.1,2.7
		C361.8,157.4,361.7,157.8,361.5,158.1z"/>
	<path class="st13" d="M364.4,165.1c5.2,2.3,10.6,3.6,16.3,3.7c10.8,0.2,18.5-4.4,23.3-13.9c0.9,6.3-3.5,9.2-8,12
		C386.2,173.2,371.7,172.4,364.4,165.1z"/>
	<path class="st14" d="M424.6,99.7c-1.1,0.4-2.1,0.9-3.2,1.3c-4-1.1-8.1-2.2-6.6-7.9c0.4-1.4,2.1-3.4,2.6-3c4,3.2,7.8-0.1,11.7-0.1
		c0.9,2.3,2.1,4.5,4.5,5.7c1.4,2.5,3.2,5.1-1.6,6c-1.9-0.5-2.3-2.5-3.7-3.5C426.7,97.7,425.7,98.9,424.6,99.7z"/>
	<path class="st15" d="M320.2,65.5c1.9-2-4-7.2,2.9-7.2c1.6,2.7,0.7,6.1,2.7,8.6c0.3,0.6,0.6,1.2,0.9,1.8c1.2,3.8,2.5,7.5,4.9,10.9
		c1.9,2.6,2.5,5.6,0.5,8.5c-4.1,0.5-2.4-4.6-5.1-5.5C324.1,77.1,321.7,71.5,320.2,65.5z"/>
	<path class="st16" d="M326.9,82.7c3.5,0.2,2.6,4.1,4.7,5.5c2.1,0.7,2.7,2.5,3.1,4.4c1.6,6.4,4.5,12.4,7.1,18.4
		c1.2,2.7,3.3,5.4,1.2,8.6c-0.1,1.1-0.2,2.3-0.2,3.4C336.9,109.8,331.4,96.4,326.9,82.7z"/>
	<path class="st13" d="M409.6,140.7c3.2-10.3,7-20.3,11.6-30.1C419.6,121.5,416.6,131.9,409.6,140.7z"/>
	<path class="st17" d="M428.3,98.3c1.6,0.3,2.5,1.4,3.1,2.8c1.5,1.1,2.9,2.2,3.9,3.9c1.3,1.7,1.7,3.8,2.4,5.8c0.3,0.5,0.6,1,0.9,1.4
		c1,1.1,2.2,1.8,3.5,2.3c2,0.8,4.2,0.6,6.1,1.7c0.4,0.3,0.5,0.6,0.5,1c0,0.4-0.1,0.6-0.2,0.6c-7.1,2.1-12.1-0.6-15.6-6.9
		C431.4,106.6,429.9,102.4,428.3,98.3z"/>
	<path class="st18" d="M66.4,169.4c0.5-1,1-1.9,1.5-2.9c1.4-0.4,1.7-3.5,3.8-2.1c2.3,1.5,0.2,2.7-0.7,3.9c-0.7,0.9-1.2,1.9-1.7,3
		c-1,2.1-4,3.4-4.7,2.8C61.9,171.9,65.7,171.1,66.4,169.4z"/>
	<path class="st13" d="M404,155c0.2-1.3,0.4-2.7,0.7-4c1.7-3.5,3.4-6.9,5.1-10.4C411,146.7,407.9,151,404,155z"/>
	<path class="st3" d="M113.4,118.1c-2.9-4.5-0.8-9.5-1.4-14.3C117.4,108.1,112.2,113.4,113.4,118.1z"/>
	<path class="st5" d="M385.8,118.1c-3.7,0.2-3.3,3.9-5,5.9c-3.1-4.7,0.5-6.5,3.5-8.6c0.9-0.6,1.2-0.1,1.4,0.6
		C385.8,116.7,385.8,117.4,385.8,118.1L385.8,118.1z"/>
	<path class="st19" d="M218.9,153.8c0,0.9,0,1.9,0,2.8c0,1.9-0.9,3.5-2.6,5.3C213.9,157.7,216.4,155.7,218.9,153.8z"/>
	<path class="st18" d="M69.2,129.5c0.2-3.7,2.6-4.4,5.7-4.3C74.7,129,72.3,129.7,69.2,129.5z"/>
	<path class="st20" d="M588,105.1c-14.2,0-14.2,0-14.2-14.1c0-12.9,0-12.9,13.2-12.9c0.9,0,1.9,0,2.8,0c17.6,0,17.4,0,17.1,17.8
		c-0.1,6.5-3.3,8.9-9.1,9.2C594.6,105.2,591.3,105.1,588,105.1z"/>
	<path class="st20" d="M713.6,112.1c0,8.3-0.2,16.6,0,24.9c0.2,6.1-2.5,8.5-8.6,8.3c-8.8-0.3-17.5-0.3-26.3-0.1
		c-5.2,0.1-7.5-2.4-7.5-7.2c-0.1-17.3-0.1-34.6,0-51.9c0-5.1,2.5-7.8,7.9-7.7c8.5,0.1,17.1,0,25.6,0.1c6.1,0.1,9.6,2.3,9,9.5
		C713.1,95.9,713.6,104,713.6,112.1z"/>
	<path class="st21" d="M230.3,59.6c3.7-2.4,8-2.7,12.2-3.1c15.2-1.2,30.3-1.3,45.4,0.2c13.5,1.3,20.1,7,21.2,20.4
		c1.8,23.1,1.4,46.4,0.2,69.6c-0.4,7.9-4.1,13.9-10.8,18.1c0,0,0,0,0,0c-18.9,4.9-38.2,3.9-57.3,2c-15.7-1.6-21.5-8.4-22-24.4
		c-0.5-14.9-0.2-29.9-0.2-44.9c0-6.2-0.1-12.4,0.3-18.5c0.3-4.4,0.6-9,3.7-12.7c3.9,4.1-0.1,8.6,0.8,12.9c0.1,2.4-0.1,4.7-0.6,7.1
		c-1.2,3.3-1,6.7,0.1,10c1,14.2,0.7,28.4,0.2,42.6c-0.6,16,6.4,23.9,22.6,24.2c12.8,0.3,25.6,0.2,38.3,0c7.6-0.1,14.7-1.7,18.2-9.7
		c0.3-0.8,0.6-1.5,1.1-2.2c1.9-2.5,1.7-5.4,1.7-8.2c0-22.3,0.1-44.6-0.1-66.9c-0.1-0.7-0.2-1.4-0.4-2.1c-0.6-2.5-1.6-4.8-3.8-6.4
		c-1.5-1.5-2.8-3.3-4.9-4.1c-2.6-1-5.2-1.9-7.9-2.6c-14.4-0.8-28.7-0.7-43.1,0c-3.7,2.2-7.8,1.4-11.7,1.5c-1.1,0.1-2.1-0.1-3.1-0.7
		C229.8,60.9,229.8,60.3,230.3,59.6z"/>
	<path class="st22" d="M230.4,61.1c0.9,0,1.9,0,2.8-0.1c0.3,2.4-0.6,5,0.5,7.4c-0.2,1.1-0.8,1.7-1.8,1.9c-1.1,0.2-1.9-0.6-2.8-0.9
		c0.3,0.8,1.1,1.2,1.2,2.1c0.2,0.7,0.3,1.3,0.4,2c0.2,2.5,0.1,5.1,0.2,7.6c-0.5,4.8,4.7,9.1,1.4,14.2c-0.8,0.8-1.8,1.2-2.9,1.2
		c-5.5-0.5-4.5-4.8-5.2-8.4c-0.5-2.9,2-6.7-2.4-8.6c0.4-4.4,0.8-8.9,1.2-13.3c0.5-0.8,1-1.6,1.5-2.4
		C226.7,63.4,227.6,60.2,230.4,61.1z"/>
	<path class="st23" d="M230.4,61.1c-2,0.8-3.3,3.1-5.8,2.8c1.2-2.4,3.2-3.8,5.8-4.3C230.4,60.1,230.4,60.6,230.4,61.1z"/>
	<path class="st24" d="M69.3,78.1c-0.9,0.2-1.8,0.4-2.7,0.5c-1.2,0.5-2.3,1.4-1.9,2.6c1.4,5.3,0.4,10.7,0.6,16
		c0.2,4,1.1,4.6,4.8,4.7c10.4,0.5,20.8-0.8,31.1-0.2c1.8,0.1,5-1.7,5.1,2.3c-3.6,1.7-7.4,0.5-10.6,1.1c-1.5,0-1.2,1-1.1,0
		c0,0,0.8,0,1.3,0c4,0.1,8-0.9,11.9,0.9c2.4,2.9,1.1,6.4,1.3,9.6c0.1,3.1-1.4,4.5-4.8,4.8c-6.9,0.4-13.7,0.7-20.6,0
		c-1.2-0.1-2.4-1.1-3.4-0.5c-3.9,2-7,1.2-8.9-2.7c-1.9-3.9,1.3-5.8,3.5-8.1c-5.1,3.9-8.4,8.8-9.2,15.3c-0.3,10.4,0,20.8-0.1,31.2
		c-0.1,9.2-1.6,10.7-10.7,10.8c-14.2,0.2-14.2,0.2-14.2-14.1c0-27.5,0.2-55-0.2-82.5c-0.1-5.7,1.7-7.5,7.2-7.5
		c16.7,0.2,33.3,0.1,50,0.1c-16.6,0-33.2,0.1-49.8-0.1c-3.4,0-7.9,0.6-5.8-5.5c1.8-1.5,4.1-1.1,6.2-1.1c21.8,0,43.7,0.2,65.5-0.1
		c6.5-0.1,8.8,1.9,8.7,8.5c-0.4,16.7,0.8,14-14.1,14.1c-10.7,0.1-21.4-0.2-32-0.3C74,75.7,71.6,77,69.3,78.1z"/>
	<path class="st25" d="M42.2,57c-0.2,5.1,3.5,4.1,6.4,4.1c17.3,0,34.7,0,52,0.1c2.5,0,5.2-0.7,8,1c-1.8,2.9-4.6,1.8-6.9,1.8
		c-16.9,0.1-33.7,0.3-50.6-0.1c-6.8-0.2-9.5,0.6-9.2,9c0.9,28,0.3,56,0.3,84c0,9.2,0,9.1,8.8,8.4c1.7-0.1,3.3-0.2,5,0
		c6.7,0.7,9.1-3,9-8.9c-0.2-9,0.8-18-0.6-27c-0.4-2.2,0.4-4.6,0.7-6.9c0.6-1.3,0.8-2.7,1.8-3.8c1.6-1.6,3.4-1.8,4.8,0.1
		c2.1,3-1.5,2.5-2.4,3.7c-3.5,1-2.8,3.9-2.8,6.4c-0.1,12.5-0.3,25-0.4,37.6c-7.3,2.8-15,1.3-22.4,1.1c-4.2-0.1-3.6-4.3-3.6-7.3
		c-0.1-18.9,0-37.8,0-56.8c0-13.2,0-26.5,0.1-39.7C40,61.4,39,58.5,42.2,57z"/>
	<path class="st26" d="M69.2,122.5c0.2-1.2,2.9-1.6,1.5-3.2c-1.3-1.6-2.3-0.3-3.2,0.9c-0.7,0.9-1.7,1.5-2.5,2.3
		c-1.1-2.4-2.6-4.9,1.5-6c1.8-0.5,2.3-2,2.7-3.7c1.6-6.9,4.2-7.6,10.4-2.7c-0.8,1.8-2.8,1.5-4.2,2c-2.7,1-4.6,2.5-2.7,5
		c0.9,1.2,3,6.1,5.8,1c1-1.8,1.9-0.5,2.8-0.1c7.9,3.7,16.2,0.8,24.3,1.1c2,0.1,2-1.6,2-3c0.1-3.1,0-6.1,0-9.2
		c-0.8-0.8-1.5-1.6-1.4-2.8c-6-3.1-12.6-1.7-18.7-1.1c-6.3,0.6-12.5,0-18.7,0.5c-4.6,0.4-8.9-6.1-6-11c2.2-3.8,0.7-6.1,0.1-9.1
		c-0.7-3.7-0.8-3.7,3.5-4.5c0,5.6,0.2,11.3-0.2,16.9c-0.3,4.6,1.6,5.5,5.7,5.4c10.3-0.2,20.7-0.1,31-0.1c2.6,0,5.2-0.4,7.3,1.6
		c1,20.4,1,20.4-19.4,20.4C83.8,122.8,76.5,122.6,69.2,122.5z"/>
	<path class="st27" d="M69.3,78.1c1.4-1.7,2.8-3.3,4.2-5.1c2.1,1.1,1.6,3.6,2.9,5.1C74,78.1,71.6,78.1,69.3,78.1z"/>
	<path class="st28" d="M151.9,58.3c1,0,1.9-0.1,2.9-0.1c7.9,1.9,5.3,9,5,13.2c-1.6,23.4-0.1,46.8-0.6,70.3c-0.1,4.6,2.9,6.2,7.1,5.7
		c10.6-1.3,21.3-0.3,31.9-0.6c4.7-0.1,8.8,1,9,6.6c0.4,10-1.2,11.8-8.9,11.9c-19.9,0.4-39.7-1-59.6,0.7c-0.3,0-0.7-0.5-1.1-0.8
		c1.3-8.5,0.6-17,0.7-25.4c0.3-22.7-0.6-45.4,0.5-68c0.5-2.3,2.2-4.1,2.7-6.5c0.7-2.4,1.3-5.1,4.2-5.9c2.6,1.4,1.5,4.3,2.7,6.3
		c0.9,2.4,2.8,3.6,5.3,3.3c1.2-0.1,1.7-1.5,1.8-2.6c0.1-1.4-0.9-1.3-1.8-1.1c-2,0.2-4,0.3-5.1-1.9C148.5,60.8,150.6,59.8,151.9,58.3
		z"/>
	<path class="st29" d="M151.9,58.3c0,2-1,3.4-2.9,4.2c-2.5,0.6-1.3-2.5-2.8-2.8c-1.9,1.4-2.6,3.4-2.9,5.7c-0.7,0.7-1.6,0.8-2.5,0.3
		c-1.1-0.6-0.9-1.8-1.2-2.8c0.2,0.9,0,1.8,0.1,2.6c0.1,1.4,0.7,2.7,0.7,4.1c0,28.9,0,57.7,0,86.6c0,3.3,0.5,6.7-2.8,8.9
		c-2.4-2.1-1.4-4.9-1.4-7.3c-0.1-18.9,0-37.8,0-56.7c0-10.6,0-21.2,0-31.9c0-11.3,1.5-12.7,12.9-11.5
		C150.1,57.8,151,58.1,151.9,58.3z"/>
	<path class="st30" d="M382.9,141c-0.4-0.9-0.8-1.9-1.2-2.8c5.7-11.6,10.3-23.7,14-36.1c0.9-1.4,1.9-2.7,2.8-4.1
		c1.3,1,1.6,2.4,1.7,4c0,1.1-0.2,2.2-0.5,3.2c-1.6,3.5-2.8,7.1-4.2,10.6c-2.4,6.7-4.3,13.5-6.9,20.1c-0.7,1.5-1.6,2.8-2.6,4.1
		c-0.4,0.5-0.8,1-1.4,1.3C384,141.5,383.5,141.4,382.9,141z"/>
	<path class="st31" d="M398.6,102.4c0-1.5-0.1-3-0.1-4.5c1.6-6.4,4.1-12.6,7-18.6c4.2-8.8,10.7-14.2,21-14.4
		c10.6-0.2,17.5,5.2,21.9,14.1c3.1,6.4,5.8,12.9,7.4,19.9c0.6,1.8,0.6,3.7,0.4,5.6c-1.7,2-2.4,0.2-3.3-0.8c-0.8-1.5-1.4-3.2-1.9-4.8
		c-0.8-2.4-1.3-5-2-7.4c-0.3-0.9-0.5-1.7-0.8-2.6c-0.5-1.7-1.2-3.3-2.1-4.8c-0.9-1.9-2.6-3-4.1-4.3c-1.2-2.5-3.4-4.2-5.1-6.3
		c-1.2-2.2-3.3-2.2-5.4-2.2C427,72,422.3,70.4,418,73c-8.9,5.1-10.9,14.4-13.9,23C402.7,98.5,403.2,102.7,398.6,102.4z"/>
	<path class="st32" d="M455.6,105.3c0.1-2.1,0.2-4.2,0.2-6.2c3.9,9,1.7,14.4-7.4,18.6c0-0.4,0-0.8-0.1-1.1c-0.6-1.4,0.2-2.4,0.9-3.5
		c1.2-1.4,2.5-2.7,3.2-4.4C453.2,107.2,454.1,105.9,455.6,105.3z"/>
	<path class="st33" d="M343.1,119.5c-3.4-10.6-9.4-20.3-11.4-31.3c1.1-7.9-6.8-12.6-7.1-19.9c6.9-3.9,13.7-2.9,20.6,0.2
		c0.3-0.1,0.5-0.1,0.8-0.2c3.1,5.4,5.2,11.2,7.1,17.1c1.2,1.5,0.4,3.3,0.9,4.9c-0.2,2.1-0.8,4-2.6,5.3c-0.7,0.2-1.3,0-1.8-0.5
		c-1.1-2-2.3-3.7-5-2.8c-3.9,1.7-3.3,5.6-2.3,7.8c3.2,6.8,4.4,14.6,9.4,20.6c1.4,1.1,2.4,2.4,2.7,4.2c0.3,1.4,0.3,2.7,0.2,4.1
		c-0.2,2.1-0.7,4.1-2.2,5.7c-0.3,0.2-0.6,0.4-0.9,0.6C346.4,131.3,347.7,123.8,343.1,119.5z"/>
	<path class="st33" d="M382.9,141c0.5,0,0.9,0,1.4,0c2.7,3.4,3.5,7.2,2.1,11.3c-3.3,9.5-8.4,10.5-14.9,3c-1.7-2-4.1-3.2-5.8-5.2
		c-1.5-1.8-0.4-4.9-3.1-6.2c-2.4,1.2-1.6,6.4-4.5,5.4c-3.7-1.3-1.9-5.8-2.6-8.8c-1-3.6-2.5-7.2,0.1-10.8c0.1-2.7-0.1-5.3-1-7.9
		c-0.4-2.8-0.9-5.7,1.4-8c4.5,1.2,6.7,6.2,11.4,7.2c2.3,4.6,4.8,9.1,5.7,14.3c-0.4,1.7-3,4.2,1.4,4.3
		C377.1,140.8,379.4,144.4,382.9,141z"/>
	<path class="st34" d="M367.2,121c-5,0-9.6-0.6-10-7.1c-4.8-1.6-4.2-6.2-5.4-10.2c-2.5,2.5-1.6,5.4-1.5,8.2c-0.1,2.3,1,4.3,1.8,6.3
		c0.2,1.9-0.8,3.1-2,4.3c-4.2-8.5-9.4-16.7-10-26.5c-0.2-2.9-0.1-5.8,4.3-4.8c1.9,1.8-0.1,3.9,0.3,5.9c2.1,0.6,3-2.9,5.4-1.6l0,0
		c2.1,1.2,3.1-1.4,4.8-1.4c0.3,0,0.6,0,0.9,0C361.3,102.2,364.3,111.6,367.2,121z"/>
	<path class="st15" d="M325.9,58.2c10.6-3,18.3,0.8,20,10c0,0,0,0,0,0c-3.9-2.4-8-4-12.8-3.3C330.4,63,329.7,59,325.9,58.2z"/>
	<path class="st35" d="M325.9,58.2c4.8-1,5.5,2.9,7.1,5.7c-2.3,2.5-5.8,1.6-8.6,2.9c-3.9-2.3-1.6-5.6-1.4-8.5
		C324,58.3,324.9,58.2,325.9,58.2z"/>
	<path class="st36" d="M374.4,139.5c-1,1.3-2.6,2.1-3.4,0.5c-1-1.9,0.5-3.5,2-4.8C373,136.8,372.7,138.5,374.4,139.5z"/>
	<path class="st34" d="M353,91c0-1.9,0-3.8,0-5.7c2,2.5,2.7,5.4,2.9,8.5c0,0-0.1,0-0.1,0C353.2,94.5,353.3,92.6,353,91z"/>
	<path class="st24" d="M357.3,139.5c0,3,0,6,0,9.1c3.2-0.9,1.8-3,2.4-4.4c0.6-1.2-0.8-3.7,2.2-3.2c2.2,0.4,5,0.4,4.8,3.9
		c-0.5,7.5,7.4,8.9,10.6,13.8c1.8,2.9,9.3-5.3,8.3-10.9c-0.4-2.3-1.2-4.6-1.1-7c0,0,0,0,0,0c1.5-1.1,1.8-2.9,2.8-4.3
		c1.2-7.5,4.3-14.4,7.1-21.4c5.1-2.1,3.2,4.1,6.3,4.8c-1-4.9-5-9.5-2-14.8c0-0.9,0-1.9,0-2.8c3.7-1,1.8-5.4,4.3-7.1
		c0.3,0.2,0.6,0.3,0.8,0.5c3.5,2.7,1.8,7.9,5.3,10.6c1.3,2.1,2.3,4.3,3.3,6.5c0.6,2,1.1,3.9,1.8,5.8c0,0.3,0.1,0.6,0.1,0.9
		c-0.3,3-2.4,5-4.3,7.1c-6.1,2-6.4,3.1-2.9,11.4c-1.4,2.9-2.8,5.7-4.3,8.6c-3.4-0.5-0.1,2.3-1.4,2.8c-0.5,1.4-0.9,2.9-1.4,4.3
		c0,0.5-0.1,0.9-0.1,1.4c-1,1.8-2.4,2.2-4.2,1c-0.5-0.4-1-0.9-1.5-1.4c-2.8-2.7-4.1-5.5-0.8-8.9c1.2-1.3,1.2-3.5,1.4-5.4
		c0.2-2.1,1.5-3.3,2.9-4.7c-1.4,0.6-3.3,1.4-3.1,2.6c0.8,5.7-3.5,9.4-5,14.1c-3.6,4,1.1,8.6-1,12.7l0,0c-5.2,1.1-10.5,1.1-15.7,0
		c-0.5,0-0.9,0-1.4,0c-1.7-2.7-4.7-4-6.6-6.5c-0.6-0.2-1.1-0.4-1.5-0.8c-0.8-1.3-2.2-1.8-3.3-2.6c-3.8-2.2-6.3-5.2-5.7-10
		c-0.8-0.8-0.7-1.8-0.5-2.8C354.6,140.9,354.8,138.9,357.3,139.5z"/>
	<path class="st37" d="M402.9,95.3c1.3-7.5,4.7-14,8.8-20.3c1.4-2.2,3.2-2.5,5.4-2.5c3.5-2.1,7.9-2.8,10.9-0.7
		c3.9,2.6,3.3-1.2,4.7-2.1c2.5-0.2,4.6,0.2,5.7,2.8c-1.4,3.2-1.3,5.6,2.5,7.5c1.5,0.8,1.2-0.5,1.8-0.4c2.7,0.1,4.1,1.6,4.3,4.3
		c0.4,0.6,0.4,1.4,0.1,2c-1.6,3.7,0.9,2.6,2.7,2.3c0,0.9,0,1.9,0,2.8c1.6,2.1-0.6,5.7,2.8,7.1c0.5,1.4,1,2.9,1.4,4.3
		c-1.4,1.2-1.9,3.6-4.4,3.5c-4-1.4-2.6-6.9-6.4-8.4c-1.5-0.5-3-0.7-4.5-1.3c-0.6-0.3-1-0.8-1.4-1.3c-1.5-2.7-3.9-4.4-5-5.6
		c0.1,0.1,1.4,0.9-0.2,2.5c-1.4,0.6-2.7,0.4-3.8-0.7c-1-1.1-2-1.3-2.6,0.2c-0.7,1.8,0.9,5-3.1,4.8c-3.6-0.2-2.1-3.7-4.1-6
		c-2.3,3.4-6.2,6.1,0.9,8.3c1.3,0.4,1.7,1.5,1.9,2.7c-1.4,1.4-2.9,2.9-4.3,4.3c-2.8,0.5-5.4-0.6-7.9-1.6c-0.6-0.7-1.5-1.5-1.4-2.4
		C408.2,97.6,405.7,96.4,402.9,95.3L402.9,95.3z"/>
	<path class="st38" d="M410,103.9c2.9-2.4,4.9,0.1,7.1,1.4c1.8,5.3-0.2,9.8-2.9,14.3c0,0,0,0,0,0c-1.4-1.7-1.3-4.1-2.9-5.7
		c-1.3-2.2-3.4-4.1-2.9-7.1C407.8,105.1,408.8,104.4,410,103.9z"/>
	<path class="st39" d="M407.2,138.1c-3.8-1.8-4.7-4.9-4.2-8.7c0.4-3.2,3.3-3.7,5.6-4.5c1-0.4,1.3,0.9,1.4,1.8
		C409.1,130.5,408.1,134.3,407.2,138.1z"/>
	<path class="st40" d="M401.5,149.5c-2.5-2-2.3-4.2-0.4-6.5c3,0.1,0,3.1,1.9,3.7C402.9,147.8,402.6,148.9,401.5,149.5z"/>
	<path class="st33" d="M388.7,165.2c-0.5-4.3-5.6-8.6,0-12.8c2.4,0.8,4.8,1.8,7.1,2.9v0c0.6,2.4,1.7,4.7,0,7.1
		C393.4,163.2,391,164.2,388.7,165.2z"/>
	<path class="st33" d="M364.4,158c1.2-0.1,3-2.5,2.8-1.6c-0.4,4.1,4.4,5.1,4.3,8.7c-1.9-1-3.8-1.9-5.7-2.9
		C364.7,161.1,363.4,159.9,364.4,158z"/>
	<path class="st33" d="M372.9,165.2c5.2,0,10.5,0,15.7,0C383.4,167.4,378.2,167.5,372.9,165.2z"/>
	<path class="st40" d="M395.8,162.3c0.5-2.4-1.6-4.7,0-7.1c1.4,0.9,2.8,0.9,4.2,0C399,157.8,398.3,160.6,395.8,162.3z"/>
	<path class="st12" d="M364.4,158c0.5,1.4,1,2.8,1.4,4.3c-2.7-0.1-4.1-1.5-4.3-4.2c0,0,0,0,0,0C362.5,157.1,363.4,157.2,364.4,158
		L364.4,158z"/>
	<path class="st33" d="M354.4,142.4c0,1,0,1.9,0,2.9c-1.2-3.3-5.3-5.7-2.8-10c0,0,0,0,0,0C356.8,135.9,355.5,139.2,354.4,142.4z"/>
	<path class="st33" d="M364.4,158c-0.9,0-1.9,0-2.8,0c-0.5-0.9-1-1.9-1.4-2.8C362.2,155.2,364.3,155.1,364.4,158z"/>
	<path class="st33" d="M444.2,95.3c4.1,2.1,3.7,6.7,5.7,10c1.1,1,1.4,2.3,1.2,3.8c1.4,2.1-4.9,2.1-1.2,4.8c-0.5,0.9-1,1.8-1.5,2.7
		c-2.4-0.1-5,1.1-7.1-1.3c-1-1.5-3-1.6-4.3-2.8l0,0c0.3-2.9,4.9-7.5-2.9-7.1c-0.9-1.4-1.8-2.9-2.8-4.3c4.9-0.8,0.7-3.9,1.4-5.7
		c0.3-0.2,0.5-0.5,0.8-0.7c1.8-0.8,3.5-0.6,4.9,0.7C440.4,98.1,442.3,97.6,444.2,95.3z"/>
	<path class="st41" d="M428.6,91c1.4,0,2.9,0,4.3,0c1.2,1.4,1.1,2.8,0,4.3c0,0,0,0,0,0C427.3,98,428.9,93.5,428.6,91z"/>
	<path class="st42" d="M324.5,66.8c1.4-5.2,5.7-1.9,8.6-2.9c0.2,0,0.5,0.1,0.7,0c5.4-2.2,9.5-1.1,12.1,4.3c-1.7,2.5-1.5,2.2-3.9,0.8
		c-2.5-1.4-5.4-3-8.4-1.7c-3,1.2-6,0.7-9,0.9C324.5,67.8,324.5,67.3,324.5,66.8z"/>
	<path class="st43" d="M434.2,105.3c2-2.5,4-3,6.2-0.1c3.5,4.6-2.5,4.7-3.3,7.2C434.8,110.6,436.1,107.3,434.2,105.3z"/>
	<path class="st44" d="M437.1,112.4c1.6,0.6,4.3-0.3,4.3,2.8C439.3,115.3,437.9,114.3,437.1,112.4z"/>
	<path class="st45" d="M221.8,79.6c0.9-1.2,1.8-2.5,3.4-4.5c1.5,5.4,0.6,10.1,0.9,14.7c0.1,2.3-0.7,5,2.8,5.5c2.2,2.3,2,5.2,1.9,8
		c-0.3,13.9,0.7,27.7-0.6,41.6c-0.2,1.7,0.1,2.7,1.8,3.2c3.7,0.2,7.1,6.8,11,0.4c0.7-0.8,1.6-1.4,2.6-1.6c7.5,0.4,15.1-0.3,22.5,1.5
		c4.1,2.7,8.3,2.9,12.6,0.6c1.4-0.6,3-0.5,4-1.9c1.4-2.1,2.4-4.3,2.9-6.8c0.2-0.7,0.3-1.4,0.5-2.1c0.3-14.1-0.2-28.3,0.6-42.4
		c1.2-4.2,1.2-8.4,0.4-12.6c-2.2-4.3-6.6-5-10.6-6.5c-1.7-0.6-4-1.4-3.8-3.6c0.2-2.4,2.7-2.2,4.5-2.5c4.3-0.6,8.5,0.4,12.7,0.7
		c4.1,0.2,4.3,3.9,4.4,7c0.5,14.2,2.4,28.3,1.6,42.5c-0.5,8.5,0.1,17.1,1.5,25.5c0.7,3.1,0.1,7,5,7.4c-2.7,8.8-9.9,11-17.6,11.3
		c-14.2,0.5-28.5,0.7-42.7,0c-15.2-0.8-23.7-7.8-22.7-26.3c0.8-14.4,0.2-28.9,0.3-43.4c-1.1-2.9-1.1-5.7,0-8.6
		C221.8,84.4,221.8,82,221.8,79.6z"/>
	<path class="st46" d="M298.8,148.1c-3.9-3.8-2.3-9-2.6-13.4c-0.8-10.6-0.2-21.3-0.3-32c-0.1-9-2.4-18-1.5-27.1
		c0.1-1.5-0.7-3.1-2.4-2.7c-5.4,1.2-10.7-1.7-16.6,0.3c5.5,3.4,13,3,16.3,9.3c-3.4,4,0.1,8.7-1.4,12.8c0,14,0,27.9,0,41.9
		c0,1.4-0.2,2.8-1.4,3.8c-1.6-14-0.2-28-0.8-42.1c0.7,14-0.9,28,0.8,42.1c0.6,3-1.6,4.9-2.9,7.1c-3.8,0-7.2,1.7-10.8,2.7
		c-2.2,0.1-4.5,0.5-6.3-1.3c-8.1,0-16.2-0.1-24.3-1.4c-4.8,0.1-6-3.1-6.2-7.1c2.4-15.1,1.7-30.2,0.5-45.3
		c-0.4-5.8-0.6-11.3,1.4-16.8c0.4-1.8,0.8-3.5,1.2-5.3c0.9-3.1,3.5-4.7,5.8-2.8c3.3,2.7,5.9,2.1,9.2,0.5c1.9-0.9,4.2-0.6,5.4,1.7
		c-0.2,0.7-0.6,1.2-1.2,1.5c0.7-0.2,0.9-0.8,1.2-1.3c0.3-0.4,0.7-1,1-0.9c4,1.3,6.8-0.3,8.9-3.6c9.9-1.4,19.8-0.9,29.7-2
		c3.3,0.5,3.8,3.1,4.2,5.7c-4,10.5-1.7,21.5-2.5,32.3c-0.7,9.7,0.2,19.4,0.5,29.1c-0.1-16.3,0.2-32.6-0.1-48.9
		c-0.1-4.3,0.7-8.4,2.2-12.5c2,1.6,1.4,3.9,1.4,5.9c0,22.2,0,44.4,0,66.6c0,2.8,0.4,5.8-2.8,7.4C303.5,149.8,303,146.5,298.8,148.1z
		"/>
	<path class="st47" d="M271.7,69.7c-1.9,4.5-1.9,4.5-8.7,3.8c-0.4,0-0.9,0.3-1.3,0.5l0,0c-3.9-4.1-6.8,0.7-10.1,1.4
		c-2.4,0.5-2.5,1.2-2.7-1.7c-0.1-1.7-1.2-1-1.8-1.3c-1.9-1-3.7-1.4-3.9,1.7c-1.6,1-2.8,0.1-4.1-0.8c-0.4-0.4-0.7-1-0.8-1.6
		c-0.8-2.5-3.9-1.5-5.1-3.4c-4.5-2.4-2.6-4.8,0-7.2c2.9-3.3,7.1,2.1,10-1.4c8.5-1.2,17-0.9,25.5-0.2c0.4,2.9-1.8,2.8-3.6,2.9
		c-3.3,0.2-6.6,0.1-9,0.1c4-1,9.4,2,13.7-2.2c6.8-1.3,13.6-2.1,20.4-0.6c2.5,0.6,5.1,0.9,7.1,2.9c-4.2,4.8-9.4,6.2-15.6,5.8
		C278.5,68.1,274.8,67,271.7,69.7z"/>
	<path class="st48" d="M271.7,69.7c-1.2-0.2-2.5-0.3-2.6-1.9c-0.1-1.1,0.6-1.6,1.8-1.4c1.6,0.2,3.3,0.2,4.9,0.4
		c7.7,1.1,14.8-0.8,21.5-4.3c2.8,0,3.2,2.5,4.3,4.2c-4.1,3.5-9.1,2.6-13.8,2.8C282.5,69.9,277.1,69.7,271.7,69.7z"/>
	<path class="st22" d="M290.3,59.7c-7.2-0.8-14.3,1.2-21.4,1.4l0,0c-8.4-3.2-17.1-0.6-25.7-1.4c1.8-2.1,4.4-1.4,6.6-1.4
		c11.3-0.1,22.6-0.1,33.8,0C285.9,58.3,288.4,57.6,290.3,59.7z"/>
	<path class="st42" d="M298.8,148.1c0.6-0.7,1.2-1.4,1.9-2c1.2-1,2.7-2.5,4.2-1.5c1.7,1.1,0.3,2.9,0,4.4c-0.3,1.1-0.3,2.3-0.4,3.4
		c0,0.5,0,0.9,0,1.4C296.5,157.9,298.2,152.5,298.8,148.1z"/>
	<path class="st22" d="M221.8,86.7c0,2.9,0,5.7,0,8.6C219.7,92.5,219.7,89.6,221.8,86.7z"/>
	<path class="st45" d="M241.8,78.2c-2.2,18.7,1.2,37.3,0.1,56c-0.2,3.1,0,6.2-2.9,8.2c-0.7,1.3-0.8,3-2.1,4
		c-1.8,0.9-3.4,3.2-5.7,0.9c-1.5-16-0.5-32-0.7-48c0-1.5,0.4-2.8,1.4-3.9c1.6-5.3-3.8-9.1-2.8-14.3c3.1-2.3-0.3-7,3.2-9.1
		c3.5-0.4,3.8,2,3.8,4.5c0.1,3.9,0.5,7.7-0.1,11.6c0.5-3.2,0.5-6.3,0.3-9.5c-0.1-2.2-1.2-5.4,2.7-6l0,0
		C240.9,73.9,240.4,76.5,241.8,78.2z"/>
	<path class="st49" d="M231.8,95.3c0.1,17,0.1,34.1,0.3,51.1c0,0.6,0.8,1.1,1.2,1.6c0.3,0.5,0.3,1,0,1.4c-4.7,0.9-7.3,1.2-4.9-5.5
		c1.8-5.1,0.6-11.2,0.6-16.8c0.1-10.6,0-21.2,0-31.8C229.9,95.3,230.8,95.3,231.8,95.3z"/>
	<path class="st50" d="M238.9,72.5c-2.5,2.6-1.5,5.8-1.1,8.7c0.5,3.3-0.4,6-2.5,9.1c-1.9-4.6-0.1-8.9-0.7-13.1
		c-0.3-2.1,0.2-4.4-2.9-4.7c-1,0.8-1.9,0.8-2.9,0c0-0.5,0-0.9,0-1.4c0.6-1.2,2.1-0.6,2.9-1.4c0.5-0.5,1-1,1.4-1.4c1.6,0,3.2,0,4.8,0
		C243.7,68.5,240.3,70.7,238.9,72.5z"/>
	<path class="st51" d="M228.9,72.5c1,0,1.9,0,2.9,0c0,2.4,0,4.7,0,7.1c0,2.4-1.4,1.9-2.8,1.4C228.9,78.2,228.9,75.4,228.9,72.5z"/>
	<path class="st47" d="M231.8,69.7c-0.6,1.1-1.7,1.4-2.9,1.4c-0.9-1.7-3.5,0.8-4-1.6c-0.1-0.6,0.2-1.7,0.5-1.8
		C228,66.6,229.6,69.1,231.8,69.7z"/>
	<path class="st52" d="M106.3,103.9c1.1,0.6,1.4,1.7,1.4,2.8c-6.7-1.2-13.7,1.3-22.5-1.4C93.5,102.9,100,104.3,106.3,103.9z"/>
	<path class="st53" d="M116.4,67.5c1.3,2.8,2.5,5.5-0.3,7.5c-1.1,0.8-3.2,0.7-3.8-0.5C110.4,70.5,115.1,70,116.4,67.5z"/>
	<path class="st54" d="M154.8,64c0.8-1.4,2-3.3,2.7-0.2c0.7,2.8-0.3,5.9-2.2,7.7c-1.8,1.8-3.3-1.6-5.4-1.9c-1.3-0.1-3.6-0.2-2.3-2.8
		C149.5,64.4,153,66.4,154.8,64z"/>
	<path class="st55" d="M140.5,69.7c-6.1-2.6,0.6-6.6-2.3-10.1c4.5,0.7,0.4,6.5,5.1,5.8C143.4,67.5,143.4,69.5,140.5,69.7z"/>
	<path class="st56" d="M154.8,64c-0.9,4.6-4.6,2.2-7.1,2.8c-1.4-2.2-1.6-4.6-1.4-7.1c2.6-0.7,1.6,2.2,2.8,2.8
		C150.6,64.6,152.8,63.8,154.8,64z"/>
	<path class="st48" d="M204.3,155.8c-2.6-1.2-4.1-2.5-3.4-5c0.3-1,1.3-1.4,2.2-0.9C205.5,151.2,204.7,153.3,204.3,155.8z"/>
	<path class="st57" d="M398.6,105.3c-0.9,6.7,5.1,12,4.2,18.8c-5.6-0.7-5.1-6.5-8.5-8.8C395.4,111.8,395.7,108,398.6,105.3z"/>
	<path class="st33" d="M387.2,136.6c0,2.1,0.1,4.2-2.8,4.3C384.4,138.9,385.3,137.5,387.2,136.6z"/>
	<path class="st58" d="M432.8,69.7c2,3.8-2.1,5-3.1,8c-1.5-9.9-8.5-3.6-12.6-5.2c1.1-4.6,4.8-2.5,7.4-2.8
		C427.3,69.4,430.1,69.7,432.8,69.7z"/>
	<path class="st33" d="M442.8,79.6c-0.4,1.2-0.1,5.2-2.1,1.9c-2.2-3.6-3.1-1.7-4.9,0.5c-0.2-4.2,0.7-7.1,2.7-9.5
		C440.5,74.6,443.4,76,442.8,79.6z"/>
	<path class="st33" d="M449.9,88.2c-2,0.9-0.7,3.6-2.4,4.7c-5.4-2.8-2.5-5.9-0.4-9C448,85.3,449,86.8,449.9,88.2z"/>
	<path class="st59" d="M449.9,109.6c0-1.4,0-2.9,0-4.3c1.5-0.9,2.1-3.1,4.3-2.8c0,1.2,0.3,2.2,1.4,2.8c-0.5,1.4-0.9,2.8-1.4,4.3
		C452.8,110.6,451.4,110.8,449.9,109.6z"/>
	<path class="st33" d="M452.8,98.2c-4.6-0.9-2.2-4.6-2.8-7.1C452.2,92.9,451,96.1,452.8,98.2z"/>
	<path class="st60" d="M449.9,109.6c1.4,0,2.8,0,4.3,0c-0.9,2-2.3,3.4-4.3,4.3c-1.1-0.2-2.9-0.2-3-0.6
		C446.4,111,449.4,111.2,449.9,109.6z"/>
	<path class="st61" d="M350.1,122.4c0.5-1.4,0.9-2.9,1.4-4.3c-1.5-1.6-1-4.3-2.8-5.7c-0.4-4.4-1.7-9.1,3.7-11.6
		c2.6,4,1.1,9.5,4.8,13c-2.6,2.5-1,5.7-1.4,8.6c-0.3,1.6-0.4,3.4-2.9,2.9C352.9,123.4,352,122.4,350.1,122.4z"/>
	<path class="st62" d="M350.1,95.3c-3.1,0.5-2.9,6.8-6.5,4.8c-4.6-2.6,1.5-5.9,0.8-9.1C349.6,88.1,350.4,91,350.1,95.3z"/>
	<path class="st63" d="M354.4,142.4c0-2.7,0.5-5.7-2.8-7.1c0.5-1.9,0.9-3.8,1.4-5.7c1.9-1.1,3.1,0.3,4.3,1.4c-4.1,2.8-0.3,5.7,0,8.5
		C356.3,140.4,355.4,141.4,354.4,142.4z"/>
	<path class="st34" d="M357.3,131c-1.4-0.5-2.8-1-4.3-1.4c0-1.4,0-2.9,0-4.3c1-1,1.9-1.9,2.9-2.9C358.4,124.9,356.8,128.1,357.3,131
		z"/>
	<path class="st64" d="M353,91c0.9,1,1.9,1.9,2.8,2.9c-1.8,0.7-2.5,6-5.7,1.4C351.1,93.9,352,92.5,353,91z"/>
	<path class="st33" d="M348.7,112.4c3.8,0.5,2.6,3.5,2.8,5.7C349,117,348.6,114.9,348.7,112.4z"/>
	<path class="st40" d="M395.8,155.2c-3.1,0.8-6.5,2.4-7.1-2.9c4-6.4,2.5-15.3,10.1-20.4c3.5,4.9-2.3,8.2-3.5,11.7
		C393.7,148.1,393.2,151.4,395.8,155.2z"/>
	<path class="st65" d="M410,103.9c-0.5,1-1,1.9-1.4,2.9c-7.4-1-1.9-8.6-5.7-11.4c3.9,2.2,2-3.2,4.7-3.2
		C408.4,96,409.2,99.9,410,103.9z"/>
	<path class="st9" d="M411.5,113.8c2.6,1.1,3,3.3,2.9,5.7C411.7,118.5,411.3,116.3,411.5,113.8z"/>
	<path class="st14" d="M432.8,95.3c0-1.4,0-2.8,0-4.3c-1.1-2-5.1-2.2-3.4-7c2.3,5.1,9.7,4.4,9.1,11.3
		C436.6,95.3,434.7,95.3,432.8,95.3z"/>
	<path class="st14" d="M444.2,95.3c-0.1,2.6-1.5,5-3.9,5c-3-0.1-1.4-3.2-1.9-5C440.4,95.3,442.3,95.3,444.2,95.3z"/>
	<path class="st66" d="M282.8,157.8c-3.6,5-8.1,1.4-12,2.3c-0.9,0.2-1.8-1.4-1.7-2.7c0.1-1.5,1.1-2,2.4-2.1
		C275.3,154.9,279,155.3,282.8,157.8z"/>
	<path class="st67" d="M233.2,149.5c0-0.5,0-1,0-1.4c0.1-2.9,2.2-2.9,4.3-2.8c2.4,0.8,4.6,1.8,5.7,4.3c1.8,5-1.8,4.6-4.4,3.9
		C236.7,152.8,235.1,150.8,233.2,149.5z"/>
	<path class="st68" d="M268.9,149.5c2.4,0,4.8,0,7.1,0c1.9-1,3.8-1.2,5.7,0C277.4,153.4,273.1,154.6,268.9,149.5z"/>
	<path class="st58" d="M290.3,95.3c-0.3-4.4-4.7-9.2,1.4-12.8C291.1,86.7,293.1,91.3,290.3,95.3z"/>
	<path class="st69" d="M243.2,149.5c-1.3-2.2-5.3-0.9-5.7-4.3c-0.7-1.5-1.1-2.9,1.4-2.9c2.1,1.7,2.9,4.7,5.7,5.7
		C244.1,148.5,243.7,149,243.2,149.5z"/>
	<path class="st70" d="M281.7,149.5c-1.9,0-3.8,0-5.7,0c3-2.9,6.4-2.4,10-1.4C285.7,151.8,283.1,148.9,281.7,149.5z"/>
	<path class="st71" d="M285.5,111.3c0,8.8,0,17.6,0,26.4c0,5.2-2,7.8-7.7,7.6c-9-0.4-18-0.3-27.1-0.1c-5.1,0.1-7.4-1.9-7.3-7.1
		c0.1-17.6,0.1-35.1,0-52.7c0-4.4,1.8-6.7,6.3-6.6c9.7,0,19.5,0,29.2,0.1c5.1,0,7,2.5,6.8,7.6C285.3,94.7,285.6,103,285.5,111.3
		C285.5,111.3,285.5,111.3,285.5,111.3z"/>
	<path class="st72" d="M305.9,72.5c0,20.3,0,40.7,0,61c0,1.7,0,3.3-0.1,5c-0.1,1.2-0.5,2.6-1.8,2.7c-1.8,0.2-2.2-1.5-2.3-2.9
		c-0.3-7.5-1.1-15.2-0.9-22.6c0.2-10,0.4-20.1,0.8-30.2C301.8,80.8,302.6,76.3,305.9,72.5C305.9,72.5,305.9,72.5,305.9,72.5z"/>
	<path class="st45" d="M288.8,140.9c-2.4-2.3-1.3-5.3-1.4-8c-0.1-12-0.1-24,1.4-35.9C288.8,111.6,288.8,126.3,288.8,140.9
		L288.8,140.9z"/>
	<path class="st73" d="M241.8,78.2c-3.8-0.5-2.6-3.5-2.8-5.7c1.4,0.5,2.8,1,4.3,1.4C242.7,75.4,242.2,76.8,241.8,78.2z"/>
	<path class="st47" d="M261.7,73.9c1,6.4-3.4,0.8-4.5,2.5C257.8,73.5,259.9,74.1,261.7,73.9L261.7,73.9z"/>
	<path class="st74" d="M268.9,61.1c-0.2,1.2-0.7,2.6-1.9,2.6c-6.6,0.2-13.3,0.8-19.9-0.3c0-0.8,0-1.6,0-2.3
		C254.3,61.1,261.6,61.1,268.9,61.1C268.9,61.1,268.9,61.1,268.9,61.1z"/>
</g>
</svg>
