<?xml version="1.0" encoding="utf-8"?>
<!-- Generator: Adobe Illustrator 28.0.0, SVG Export Plug-In . SVG Version: 6.00 Build 0)  -->
<svg version="1.1" id="Capa_1" xmlns="http://www.w3.org/2000/svg" xmlns:xlink="http://www.w3.org/1999/xlink" x="0px" y="0px"
	 viewBox="0 0 246.3 80.7" style="enable-background:new 0 0 246.3 80.7;" xml:space="preserve">
<style type="text/css">
	.st0{fill:#030303;}
	.st1{fill:#030404;}
	.st2{fill:#15639D;}
</style>
<g id="Grupo_50" transform="translate(357.951 -13.121)">
	<g id="Grupo_6" transform="translate(104.725 78.121)">
		<g id="Grupo_5" transform="translate(0 0)">
			<path id="Trazado_9" class="st0" d="M-386.2-41.5v31.8h7v-18.6c1.8,1.6,22.7,18.7,22.7,18.7v-32.9h-7v18.6
				c-1.8-1.6-22.7-19-22.7-19L-386.2-41.5z"/>
			<path id="Trazado_10" class="st0" d="M-324.6-42.4h-25.3v32.7h25.3v-6.7h-18.2v-6.7h18.2v-6.7h-18.2v-5.9h18.2L-324.6-42.4
				L-324.6-42.4z"/>
			<path id="Trazado_11" class="st0" d="M-226.5-42.4h-25.3v32.7h25.3v-6.7h-18.2v-6.7h18.1v-6.7h-18.1v-5.9h18.2V-42.4L-226.5-42.4
				z"/>
			<path id="Trazado_12" class="st0" d="M-317.5-42.4h-0.6v32.7h18.6c6.1,0,10.3-4,10.3-9.7c0.1-3.4-1.9-6.5-5-7.8
				c2.1-1.4,3.3-3.7,3.3-6.2c0-6.2-4.9-9-9.7-9L-317.5-42.4z M-301.4-35.7c1.6-0.2,3.1,1,3.3,2.6c0.2,1.6-1,3.1-2.6,3.3
				c-0.2,0-0.5,0-0.7,0h-9.7v-5.9L-301.4-35.7z M-300.2-23.1c2.3,0,3.9,1.4,3.9,3.4c0,1.9-1.7,3.3-3.9,3.3h-10.9v-6.7L-300.2-23.1z"
				/>
			<path id="Trazado_13" class="st0" d="M-283.9-42.4h-0.6v32.7h7v-10h6.2c0.3,0.5,6.6,10,6.6,10h8.8c0,0-7.4-10.6-8.1-11.6
				c4.2-1.4,7-5.3,7.1-9.7c0-6.8-4.8-11.4-11.9-11.4H-283.9z M-269.3-35.7c4,0,5.4,2.4,5.4,4.7s-1.4,4.7-5.4,4.7h-8.1v-9.4H-269.3z"
				/>
		</g>
	</g>
	<g id="Grupo_7" transform="translate(47.049 78.431)">
		<path id="Trazado_14" class="st1" d="M-397.7-26.4c0-9.2,7.4-16.4,17.2-16.4h45.4v7.4h-45.6c-5.5,0-9.7,4-9.7,9c0,5,4,9,9,9
			c3.9,0,7.4-2.9,8.2-5.3h-7.8v-7.4c0.6,0,15.4,0,16,0c1.3,13-7.3,20-16.4,20C-390.4-10-397.7-17.4-397.7-26.4z"/>
		<path id="Trazado_15" class="st2" d="M-335.2-30.1v7.4c-0.6,0-24.2,0-24.8,0v-7.4L-335.2-30.1z"/>
		<path id="Trazado_16" class="st2" d="M-335.2-17.3v7.4H-360v-7.4C-359.4-17.3-335.8-17.3-335.2-17.3z"/>
	</g>
</g>
</svg>
