<?xml version="1.0" encoding="utf-8"?>
<!-- Generator: Adobe Illustrator 28.0.0, SVG Export Plug-In . SVG Version: 6.00 Build 0)  -->
<svg version="1.1" id="Capa_1" xmlns="http://www.w3.org/2000/svg" xmlns:xlink="http://www.w3.org/1999/xlink" x="0px" y="0px"
	 viewBox="0 0 246.3 57.7" style="enable-background:new 0 0 246.3 57.7;" xml:space="preserve">
<style type="text/css">
	.st0{fill:#0079BD;}
	.st1{fill:url(#SVGID_1_);}
	.st2{fill:url(#SVGID_00000080196599609722428380000007000245682358477229_);}
	.st3{fill:#FFFFFF;}
	.st4{opacity:0.34;fill:url(#SVGID_00000045621145749379874390000009420243955556266120_);}
	.st5{opacity:0.34;fill:url(#SVGID_00000132056012610319200230000016005872846754087320_);}
</style>
<polygon class="st0" points="59.5,16.5 59.5,25.3 67.6,25.3 67.6,16.5 76.2,16.5 76.2,42.5 67.6,42.5 67.6,32.4 59.5,32.4 
	59.5,42.5 50.9,42.5 50.9,16.5 "/>
<path class="st0" d="M85.8,42.5l1-3.5h8.6l1,3.5h8.6l-9.3-26H87l-9.4,26.1L85.8,42.5L85.8,42.5z M93.8,33.7h-5.4l2.6-9.3L93.8,33.7z
	 M116.6,33l9.8-16.5H117l-4.6,8.9l-4.6-8.9h-9.5l9.8,16.6v9.5h8.6C116.6,42.6,116.6,33,116.6,33z M144.4,16.5h-7l-3.1,16.2h-0.1
	l-2.9-16.2h-8.2l6.5,26.1h8.5l2.9-15.2h0.1l3,15.2h8.5l6.5-26.1h-8.2L148,32.7h-0.1C147.6,32.6,144.4,16.5,144.4,16.5z M194.9,33.5
	c4,0,4.6,1.1,4.6,4.6c-0.1,1.5,0.1,3,0.4,4.6h8.7v-0.8c-1,0-0.9-1.2-0.9-4.6c0-5.3-1.6-6-4.4-6.9c3-0.9,4.4-3.4,4.4-6.4
	c0-5.1-2.8-7.5-11.6-7.5h-12.4v26.1h8.6v-9.1H194.9L194.9,33.5z M192.3,22.6h4c2.1,0,3.5,0.9,3.5,2.7s-1.4,2.5-4,2.5h-3.4
	L192.3,22.6L192.3,22.6z M222,42.5c8.3,0,13.9-3.8,13.9-13.6c0-8.6-5.2-12.5-13.7-12.5h-11.5v26.1H222L222,42.5z M219.3,22.6h1.6
	c4.6,0,6.4,1.4,6.4,6.9c0,4.9-2.2,7-6.2,7h-1.8V22.6z"/>
<path class="st0" d="M163.2,42.5l1-3.5h8.6l1,3.5h8.6l-9.3-26h-8.7L155,42.6L163.2,42.5L163.2,42.5z M171.3,33.7h-5.4l2.6-9.3
	L171.3,33.7z"/>
<path class="st0" d="M237.7,21.4c-1.3,0-2.4-1-2.4-2.3V19c-0.1-1.3,0.9-2.5,2.2-2.5c1.3-0.1,2.5,0.9,2.5,2.2V19
	C240.1,20.2,239.1,21.3,237.7,21.4 M237.7,21.7c1.5,0,2.8-1.3,2.8-2.8s-1.3-2.8-2.8-2.8s-2.8,1.3-2.8,2.8
	C234.9,20.5,236.1,21.7,237.7,21.7 M238.1,19.1c0.5,0,1-0.2,1-0.9s-0.3-0.9-1.1-0.9h-1.4v3.1h0.4V19h0.7l0.9,1.4h0.5
	C239.1,20.5,238.1,19.1,238.1,19.1z M237.1,18.8v-1.1h0.9c0.4,0,0.8,0.1,0.8,0.5s-0.7,0.5-1.1,0.5h-0.6V18.8z"/>
<g>
	<g>
		
			<image style="overflow:visible;opacity:0.2;" width="43" height="43" xlink:href="86A2C5C51948751.png"  transform="matrix(1 0 0 1 4 6.7)">
		</image>
		<g>
			<linearGradient id="SVGID_1_" gradientUnits="userSpaceOnUse" x1="7.1242" y1="28.55" x2="43.7626" y2="28.55">
				<stop  offset="2.436094e-02" style="stop-color:#7F7F80"/>
				<stop  offset="0.34" style="stop-color:#FFFFFF"/>
				<stop  offset="0.6662" style="stop-color:#FFFFFF"/>
				<stop  offset="0.9986" style="stop-color:#5F5F60"/>
			</linearGradient>
			<rect x="7.1" y="10.6" class="st1" width="36.6" height="35.9"/>
		</g>
	</g>
	
		<radialGradient id="SVGID_00000152954984037765662160000001420928906796830378_" cx="25.4434" cy="28.05" r="15.573" gradientUnits="userSpaceOnUse">
		<stop  offset="7.943203e-02" style="stop-color:#02517E"/>
		<stop  offset="0.7685" style="stop-color:#0078BE"/>
		<stop  offset="0.9986" style="stop-color:#1D1D1B"/>
	</radialGradient>
	<circle style="fill:url(#SVGID_00000152954984037765662160000001420928906796830378_);" cx="25.4" cy="28.1" r="15.6"/>
	<g>
		
			<image style="overflow:visible;opacity:0.77;" width="25" height="25" xlink:href="86A2C5C51948756.png"  transform="matrix(1 0 0 1 13 15.7)">
		</image>
		<g>
			<polygon class="st3" points="16.8,19 23.2,19 23.2,25 27.4,25 27.4,19 34.1,19 34.1,37.5 27.5,37.5 27.5,30.8 23.3,30.8 
				23.3,37.5 16.8,37.5 			"/>
		</g>
	</g>
	
		<linearGradient id="SVGID_00000000924871523224185170000010261459620605617544_" gradientUnits="userSpaceOnUse" x1="22.8147" y1="43.3191" x2="26.0575" y2="24.9282">
		<stop  offset="0.1662" style="stop-color:#A5CBED"/>
		<stop  offset="1" style="stop-color:#C9D8F0"/>
	</linearGradient>
	<path style="opacity:0.34;fill:url(#SVGID_00000000924871523224185170000010261459620605617544_);" d="M9.7,28.2
		c0,0,2.5,0.5,3.6-1.2c0,0,1.4,2.8,4.7,0c0,0,2.4,2.7,5.2,0c0,0,2.9,2.7,5,0c0,0,2.7,2.9,5.2,0c0,0,1.4,3,4.9,0c0,0,0.9,2.2,3,1.4
		c0,0-1.7,15.1-15.8,15.1C25.4,43.6,11.1,43.6,9.7,28.2z"/>
	
		<linearGradient id="SVGID_00000089539941538081638310000017744687254219886782_" gradientUnits="userSpaceOnUse" x1="22.8147" y1="43.3191" x2="26.0575" y2="24.9282">
		<stop  offset="0.1662" style="stop-color:#A5CBED"/>
		<stop  offset="1" style="stop-color:#C9D8F0"/>
	</linearGradient>
	<path style="opacity:0.34;fill:url(#SVGID_00000089539941538081638310000017744687254219886782_);" d="M9.7,28.2
		c0,0,2.5,0.5,3.6-1.2c0,0,1.4,2.8,4.7,0c0,0,2.4,2.7,5.2,0c0,0,2.9,2.7,5,0c0,0,2.7,2.9,5.2,0c0,0,1.4,3,4.9,0c0,0,0.9,2.2,3,1.4
		c0,0-1.7,15.1-15.8,15.1C25.4,43.6,11.1,43.6,9.7,28.2z"/>
</g>
</svg>
