<?xml version="1.0" encoding="utf-8"?>
<!-- Generator: Adobe Illustrator 28.0.0, SVG Export Plug-In . SVG Version: 6.00 Build 0)  -->
<svg version="1.1" id="Capa_1" xmlns="http://www.w3.org/2000/svg" xmlns:xlink="http://www.w3.org/1999/xlink" x="0px" y="0px"
	 viewBox="0 0 246.3 57.7" style="enable-background:new 0 0 246.3 57.7;" xml:space="preserve">
<style type="text/css">
	.st0{fill:#0090D2;}
	.st1{fill:#008FD2;}
	.st2{fill:#1C1C1B;}
	.st3{fill:#1D1D1C;}
	.st4{fill:#FDFDFD;}
	.st5{fill:#F5F5F5;}
	.st6{fill:#EDEDEC;}
	.st7{fill:#FBFBFB;}
</style>
<g>
	<path class="st0" d="M19,23.4c0.7,0.6,1.5,1.1,2.2,1.7c11.7,11,27.8,10.9,39.2-0.2c0.4-0.4,0.8-0.8,1.3-1.2
		c3.4,9.9-4.2,22.2-15.3,25.1c-11.1,2.9-22.1-2.8-26.2-13.4c-0.4-0.9-0.2-2.2-1.2-2.8C19,29.5,19,26.4,19,23.4z"/>
	<path class="st1" d="M41.2,27.9c-7.7,0-13.4-3.1-17.9-8.6c-1.3-1.6-1.2-2.7,0-4.3c8.4-11.5,26.6-11.5,35,0c1.2,1.6,1.3,2.7,0,4.3
		C53.8,24.8,48,27.8,41.2,27.9z"/>
	<path class="st2" d="M81.9,41.2c-7.7,0-13.4-5.6-13.3-13.2c0.1-6.9,6-12.3,13.4-12.3c7.6,0,13.6,5.6,13.5,12.6
		C95.3,36,89.7,41.3,81.9,41.2z"/>
	<path class="st2" d="M189.6,41.2c-7.8,0-13.4-5.3-13.5-12.9c-0.1-7.1,5.8-12.6,13.4-12.6c7.4,0,13.3,5.5,13.3,12.4
		C203,35.7,197.4,41.2,189.6,41.2z"/>
	<path class="st2" d="M167.6,30.1c0-3.6,0.2-7.2-0.1-10.8c-0.2-2.8,1.1-2.9,3.3-2.9c2.1,0,3.1,0.3,3.1,2.8c-0.2,5.9,0,11.7-0.1,17.6
		c0,1.2,1,3.3-0.9,3.5c-2.1,0.2-4.7,1.3-6.5-1.3c-2.6-3.6-5.5-7.1-8.3-10.6c-0.5-0.6-0.7-1.5-2.1-1.5c0,3.8-0.1,7.7,0,11.5
		c0.1,2.6-1.5,2.2-3,2.1c-1.4-0.1-3.5,1-3.4-2c0.1-6.1,0-12.2,0.1-18.3c0-1.2-1-3.3,1-3.5c2.1-0.2,4.7-1.2,6.5,1.3
		c2.6,3.6,5.5,7.1,8.3,10.6C166,29.1,166.3,30,167.6,30.1z"/>
	<path class="st3" d="M133,27.4c3.8,2.3,4.9,4.4,4.1,8.1c-0.6,2.9-3.4,4.7-7.4,4.9c-2.9,0.1-5.7,0-8.6,0.1c-1.6,0.1-2.3-0.3-2.3-2.1
		c0.1-6.6,0.1-13.2,0-19.8c0-1.7,0.5-2.3,2.2-2.2c2.3,0.1,4.5,0,6.8,0c2.7,0.1,5.4,0.4,6.6,3.3C135.6,22.6,135.3,25.2,133,27.4z"/>
	<path class="st2" d="M104,32.6c0,1.5-0.2,3,0,4.5c0.4,2.8-0.7,3.6-3.5,3.5c-2.3-0.1-3-0.6-2.9-2.9c0.2-6.2,0.1-12.5,0-18.7
		c0-2,0.5-2.7,2.6-2.5c2,0.2,4,0,6.1,0c5.3,0.1,7.9,1.6,8.9,5.3c1,3.7-0.4,6.5-4.7,9.2c2.3,3,4.5,5.9,7.2,9.4
		c-3.2-0.3-6.2,1.3-8.4-1c-1.9-2-3.1-4.6-4.6-7C104.5,32.5,104.3,32.5,104,32.6z"/>
	<path class="st2" d="M224.4,16.8c-2,2.8-3.7,5.5-5.6,8c-1.5,1.9-1.7,3.4-0.1,5.5c2.4,3,4.5,6.3,7,9.9c-2.9,0.1-5.8,1.3-7.8-0.6
		c-1.9-1.8-3-4.3-4.7-6.9c-3.2,4.5-5.5,10.2-12.7,7.2c2.6-3.5,5.2-7.1,7.9-10.6c0.9-1.2,1-2.1,0.1-3.3c-2.2-2.9-4.1-5.9-6.5-9.4
		c2.8,0,5.5-0.7,7.3,0.2c1.8,1,2.8,3.6,4.5,6C214.9,16.6,218.9,15.5,224.4,16.8z"/>
	<path class="st3" d="M146.3,28.7c0,3.3-0.1,6.6,0,9.8c0.1,3-2.1,1.8-3.5,1.9c-1.4,0.1-3.1,0.7-3-2c0.2-6.7,0.2-13.3,0-20
		c-0.1-2.7,1.8-2,3.1-1.9c1.4,0.1,3.5-1,3.4,2C146.2,21.9,146.3,25.3,146.3,28.7z"/>
	<path class="st4" d="M81.9,35.2c-3.7,0-6.7-3.1-6.7-6.9c0-3.7,3.2-6.6,7-6.4c3.7,0.1,6.6,3.1,6.5,6.6
		C88.7,32.3,85.7,35.2,81.9,35.2z"/>
	<path class="st4" d="M182.8,28.4c-0.1-3.7,2.9-6.6,6.8-6.6c3.6,0,6.7,2.9,6.8,6.3c0.1,3.8-3.1,7-6.9,7
		C185.8,35.2,182.9,32.2,182.8,28.4z"/>
	<path class="st5" d="M126.3,35.7c-1.7,0.2-1-1.6-1.2-2.9c-0.3-2,0.7-2.4,2.5-2.3c1.8,0.2,3.5,0.5,3.3,2.8
		C130.6,35.7,128.7,35.5,126.3,35.7z"/>
	<path class="st6" d="M126.6,21.4c1.5,0.1,2.6,0.6,2.6,2.2c0,1.6-1.1,2.1-2.6,2.2c-1.6,0.1-1.6-0.9-1.6-2
		C125.2,22.7,124.6,21.2,126.6,21.4z"/>
	<path class="st7" d="M103.9,24.3c0.5-1.2-0.8-3,1.6-2.9c1.9,0.1,3.3,0.8,3.3,2.8c0,2-1.3,2.8-3.2,2.9
		C102.9,27.3,104.7,25.1,103.9,24.3z"/>
</g>
</svg>
