<?xml version="1.0" encoding="utf-8"?>
<!-- Generator: Adobe Illustrator 28.0.0, SVG Export Plug-In . SVG Version: 6.00 Build 0)  -->
<svg version="1.1" id="Capa_1" xmlns="http://www.w3.org/2000/svg" xmlns:xlink="http://www.w3.org/1999/xlink" x="0px" y="0px"
	 viewBox="0 0 893 229.3" style="enable-background:new 0 0 893 229.3;" xml:space="preserve">
<style type="text/css">
	.st0{fill:#EDEDEE;}
	.st1{fill:#E1251B;}
	.st2{fill:#040404;}
</style>
<g id="Layer_2">
	<g id="Layer_1-2">
		<path class="st0" d="M184.9,203.6H35.9c-10.8,0-19.5-8.7-19.5-19.5V43c0-10.8,8.7-19.5,19.5-19.5h149.1c10.8,0,19.5,8.7,19.5,19.5
			c0,0,0,0,0,0v141.1C204.4,194.9,195.7,203.6,184.9,203.6C184.9,203.6,184.9,203.6,184.9,203.6"/>
		<rect x="40.8" y="50.4" class="st1" width="35.7" height="92.6"/>
		<polygon class="st2" points="137.4,100.5 162.9,142.9 187.4,100.5 		"/>
		<polygon class="st2" points="146.1,172 157.3,152.7 125.8,100.5 89.6,100.5 130.8,172 		"/>
		<path class="st1" d="M83.7,72.5c0-11,8.9-19.9,19.9-19.9c11,0,19.9,8.9,19.9,19.9s-8.9,19.9-19.9,19.9
			C92.6,92.4,83.7,83.5,83.7,72.5"/>
		<path class="st1" d="M266.6,107.1h20.7c4.9,0,9.2-2.7,13.1-8.2c3.3-4.4,5.1-9.7,5.3-15.2c0.1-5.8-1.8-11.5-5.3-16.2
			c-3.4-4.7-8.9-7.4-14.7-7.4l-18.9,0.1L266.6,107.1z M266.6,158.7h8.2v4.9h-32.3v-4.9l7.7,0.1V60.2h-7.7v-5h45.2
			c9.4,0,17.2,2.3,23.6,7c6.9,4.8,11,12.9,10.7,21.3c0,6.7-2.7,13.2-7.4,18c-4.5,5-10.5,8.4-17,9.8h0.2c4,14.2,13.5,30,28.6,47.5
			h7.4v4.9h-22.5c-12-15.8-22-33.1-29.6-51.5h-15.1V158.7z"/>
		<path class="st1" d="M387.3,120.1c-0.6-17.2-6.6-25.8-18.1-25.8c-6-0.2-11.6,3.2-14.1,8.6c-2.3,4.4-3.5,10.2-3.6,17.2H387.3z
			 M351.4,124.5c-0.1,3-0.1,4.8-0.1,5.4c0,20.1,7.4,30.2,22.1,30.2c5.1,0,10.1-1.4,14.4-4c4.3-2.5,7.7-6.4,9.7-10.9l4,2.4
			c-2.4,5.9-6.9,10.8-12.6,13.6c-5.7,2.9-12,4.4-18.3,4.3c-11.4,0-20.1-3.9-26-11.7c-5.3-6.9-7.9-16.3-7.9-28.1
			c0-10.8,2.7-19.5,8-25.9c5.7-6.9,13.9-10.3,24.6-10.3c10.3,0,18.3,3.3,24.1,10c5.3,6.1,8.3,14.5,8.9,25L351.4,124.5z"/>
		<path class="st1" d="M460.8,102.5c-5.9-5.7-11.5-8.5-16.8-8.5c-1.9,0-3.7,0.7-5.2,1.8c-7.7,5.5-11.5,16.2-11.5,32.1
			c0,17.7,4.7,28.5,14,32.4c1.2,0.5,2.6,0.8,3.9,0.8c3-0.1,5.9-1,8.5-2.5c2.7-1.4,5.1-3.4,7-5.9L460.8,102.5z M453,55.2h22.6v104
			h7.8v4.4h-22.5v-4.5c-4.6,4.1-10.6,6.1-17.9,6.1c-20.3,0-30.4-12.6-30.4-37.7s9.9-37.8,29.7-37.9c7.8,0,14,2.1,18.6,6.2l-0.1-36.1
			h-7.7L453,55.2z"/>
		<polygon class="st1" points="563.8,136.8 564.5,136.8 588.6,60.1 582.3,60.1 582.3,55.2 602.5,55.2 602.5,60.1 594.7,60.1 
			562.4,163.6 556.1,163.6 522.8,60.1 515.1,60.1 515.1,55.2 545.4,55.2 545.4,60.1 539.3,60.1 		"/>
		<path class="st1" d="M618.5,161.1c4.2,0,8.6-2.1,13.2-6.4c3.8-3.4,6.8-7.6,8.7-12.3v-19.8c-2.5,1.4-7,3.1-13.7,4.9
			c-5.9,1.7-10,3.5-12.4,5.4c-3.6,3-5.4,7.4-5.4,13.3c-0.1,3.4,0.6,6.7,2,9.7C612.5,159.4,615.1,161.1,618.5,161.1 M600.4,93.3
			c11-2.6,18.6-3.9,22.7-3.9c11.3,0,19.3,1.7,23.8,5.1c5.4,4,8.1,11.5,8.1,22.4v32.1c0,6.8,0.6,10.3,1.7,10.3h7.3v4.4h-21.2
			c-1.7-2.6-2.5-6.7-2.5-12.5c-2.7,4.4-6.4,8.1-11,10.5c-4.5,2.5-9.5,3.9-14.7,3.9c-6.3,0-11.2-1.5-14.8-4.6
			c-3.9-3.3-5.8-8-5.8-14.2c0-7.7,3-13.2,9-16.5c2.9-1.6,9.2-3.3,19.1-5.3c8.5-1.7,14.3-4.2,17.4-7.3c0.5-1.4,0.7-2.9,0.7-4.4
			c0-13-6.7-19.5-20.2-19.5c-8.9,0-14,5.2-15.1,15.7h-4.5V93.3z"/>
		<polygon class="st1" points="673.1,159.2 680.8,159.2 680.8,59.7 673.1,59.7 673.1,55.2 695.6,55.2 695.6,159.2 703.3,159.2 
			703.3,163.6 673.1,163.6 		"/>
		<polygon class="st1" points="707.9,95.8 707.9,91.3 736.5,91.3 736.5,95.8 730.5,95.8 749.4,144.8 768.4,95.8 762.5,95.8 
			762.5,91.3 780.8,91.3 780.8,95.8 773.1,95.8 746.8,163.6 741.9,163.6 715.7,95.7 715.6,95.8 		"/>
		<path class="st1" d="M835.7,120.1c-0.5-17.2-6.6-25.8-18.1-25.8c-6-0.2-11.6,3.2-14.1,8.6c-2.3,4.4-3.5,10.2-3.5,17.2H835.7z
			 M799.8,124.5c-0.1,3-0.1,4.8-0.1,5.4c0,20.1,7.4,30.2,22.1,30.2c5.1,0,10.1-1.4,14.4-4c4.3-2.5,7.7-6.4,9.7-10.9l4,2.4
			c-2.4,5.9-6.9,10.8-12.6,13.6c-5.7,2.9-12,4.4-18.3,4.3c-11.4,0-20.1-3.9-26-11.7c-5.2-6.9-7.9-16.3-7.9-28.1
			c0-10.8,2.7-19.5,8-25.9c5.7-6.9,13.9-10.3,24.6-10.3c10.3,0,18.3,3.3,24.1,10c5.3,6.1,8.3,14.5,8.9,25L799.8,124.5z"/>
		<path class="st1" d="M859.8,76.5h1c0.9,0,1.4,0.4,1.4,1.2s-0.5,1.2-1.4,1.2h-1V76.5z M864.6,77.4c-0.1-1.8-1.7-3.2-3.5-3.1
			c-0.1,0-0.1,0-0.2,0h-3.5v9.5h2.3v-3h1.2l1.5,3h2.6l-1.9-3.5C864,79.7,864.6,78.6,864.6,77.4 M860.7,87.6c-4.7,0-8.5-3.7-8.5-8.4
			s3.7-8.5,8.4-8.5c4.7,0,8.5,3.7,8.5,8.4c0,0,0,0.1,0,0.1C869.1,83.8,865.3,87.5,860.7,87.6 M860.7,69.8c-5.1,0-9.3,4.1-9.3,9.3
			c0,5.1,4.1,9.3,9.3,9.3c5.1,0,9.3-4.1,9.3-9.3c0,0,0,0,0,0C869.9,74,865.8,69.8,860.7,69.8"/>
	</g>
</g>
</svg>
