<?xml version="1.0" encoding="utf-8"?>
<!-- Generator: Adobe Illustrator 28.0.0, SVG Export Plug-In . SVG Version: 6.00 Build 0)  -->
<svg version="1.1" id="Capa_1" xmlns="http://www.w3.org/2000/svg" xmlns:xlink="http://www.w3.org/1999/xlink" x="0px" y="0px"
	 viewBox="0 0 1139.2 229.3" style="enable-background:new 0 0 1139.2 229.3;" xml:space="preserve">
<style type="text/css">
	.st0{fill:#0071BA;}
</style>
<g id="Group_12884" transform="matrix(1.9998049,0,0,1.9998049,0.00986692,0.0275851)">
	<g id="Group_12881">
		<path id="Path_6235" class="st0" d="M116.1,70.4c-0.2-0.3-0.4-0.6-0.8-0.9c-0.3-0.2-0.7-0.3-1.1-0.3c-0.2,0-0.5,0-0.7,0.1
			c-0.2,0.1-0.4,0.2-0.6,0.3c-0.2,0.2-0.3,0.3-0.4,0.5c-0.1,0.2-0.1,0.4-0.1,0.7c0,0.2,0.1,0.4,0.2,0.6c0.1,0.2,0.3,0.3,0.4,0.5
			c0.2,0.1,0.4,0.3,0.6,0.3l0.6,0.3l0.7,0.3c0.3,0.1,0.7,0.3,1,0.5c0.3,0.2,0.6,0.4,0.8,0.6c0.2,0.2,0.4,0.5,0.6,0.8
			c0.1,0.4,0.2,0.7,0.2,1.1c0,0.5-0.1,0.9-0.3,1.3c-0.2,0.4-0.4,0.8-0.7,1.1c-0.3,0.3-0.7,0.5-1.1,0.7c-0.4,0.2-0.9,0.3-1.3,0.3
			c-0.4,0-0.8-0.1-1.2-0.2c-0.4-0.1-0.7-0.3-1-0.6c-0.3-0.3-0.6-0.6-0.7-0.9c-0.2-0.4-0.4-0.7-0.4-1.2l1.2-0.3
			c0,0.3,0.1,0.5,0.2,0.8c0.1,0.2,0.3,0.5,0.5,0.6c0.2,0.2,0.4,0.3,0.7,0.4c0.3,0.1,0.5,0.2,0.8,0.2c0.3,0,0.6-0.1,0.8-0.2
			c0.3-0.1,0.5-0.3,0.7-0.4c0.2-0.2,0.4-0.4,0.5-0.7c0.1-0.3,0.2-0.6,0.2-0.9c0-0.3-0.1-0.6-0.2-0.8c-0.1-0.2-0.3-0.4-0.5-0.6
			c-0.2-0.2-0.4-0.3-0.6-0.4c-0.2-0.1-0.5-0.2-0.7-0.4l-0.7-0.3c-0.3-0.1-0.6-0.3-0.9-0.5c-0.3-0.2-0.5-0.3-0.8-0.6
			c-0.2-0.2-0.4-0.5-0.5-0.7c-0.1-0.3-0.2-0.7-0.2-1c0-0.8,0.3-1.5,0.9-2c0.3-0.2,0.6-0.4,1-0.6c0.4-0.1,0.8-0.2,1.2-0.2
			c1.2,0,2.3,0.6,2.8,1.7L116.1,70.4z"/>
		<path id="Path_6236" class="st0" d="M130.8,68.1c0.8,0,1.5,0.1,2.2,0.4c0.7,0.3,1.3,0.7,1.8,1.2c0.5,0.5,0.9,1.1,1.2,1.8
			c0.6,1.4,0.6,3,0,4.4c-0.3,0.7-0.7,1.3-1.2,1.8c-0.5,0.5-1.1,0.9-1.8,1.2c-1.4,0.6-3,0.6-4.4,0c-0.7-0.3-1.3-0.7-1.8-1.2
			c-0.5-0.5-0.9-1.1-1.2-1.8c-0.6-1.4-0.6-3,0-4.4c0.3-0.7,0.7-1.3,1.2-1.8c0.5-0.5,1.1-0.9,1.8-1.2
			C129.3,68.3,130.1,68.1,130.8,68.1 M130.8,69.2c-1.2,0-2.3,0.5-3.2,1.3c-0.4,0.4-0.7,0.9-1,1.4c-0.2,0.6-0.3,1.2-0.3,1.8
			c0,0.6,0.1,1.2,0.3,1.7c0.5,1.1,1.3,1.9,2.4,2.4c1.1,0.5,2.4,0.5,3.5,0c1.1-0.5,1.9-1.3,2.4-2.4c0.2-0.6,0.3-1.1,0.3-1.7
			c0-0.6-0.1-1.2-0.3-1.8c-0.2-0.5-0.5-1-1-1.4C133.2,69.7,132,69.2,130.8,69.2"/>
		<path id="Path_6237" class="st0" d="M145.8,78.1h3v1.1h-4.2V68.3h1.2V78.1z"/>
		<path id="Path_6238" class="st0" d="M157.7,74.8v0.6c0,0.2,0,0.4,0,0.6c0,0.2,0.1,0.4,0.1,0.6c0.1,0.2,0.2,0.4,0.3,0.6
			c0.2,0.3,0.6,0.6,1,0.8c0.4,0.2,0.8,0.3,1.2,0.3c0.4,0,0.8-0.1,1.2-0.3c0.4-0.2,0.7-0.4,1-0.7c0.1-0.2,0.3-0.4,0.3-0.6
			c0.1-0.2,0.1-0.4,0.2-0.6c0-0.2,0.1-0.4,0.1-0.7v-7.1h1.2v6.8c0,0.3,0,0.6,0,0.8c0,0.3-0.1,0.5-0.1,0.8c-0.1,0.3-0.2,0.5-0.3,0.7
			c-0.1,0.2-0.3,0.5-0.5,0.7c-0.4,0.4-0.8,0.7-1.3,0.9c-0.5,0.2-1.1,0.3-1.6,0.3c-0.5,0-1-0.1-1.5-0.3c-0.5-0.2-0.9-0.5-1.3-0.8
			c-0.2-0.2-0.4-0.4-0.6-0.7c-0.1-0.2-0.2-0.5-0.3-0.7c-0.1-0.3-0.1-0.5-0.1-0.8c0-0.3,0-0.6,0-0.9v-6.8h1.2L157.7,74.8z"/>
		<path id="Path_6239" class="st0" d="M181.2,70.7c-0.4-0.5-0.9-0.8-1.5-1.1c-0.6-0.3-1.2-0.4-1.8-0.4c-0.6,0-1.2,0.1-1.7,0.4
			c-0.5,0.2-1,0.6-1.4,1c-0.4,0.4-0.7,0.9-0.9,1.4c-0.5,1.1-0.5,2.3,0,3.4c0.2,0.5,0.5,1,0.9,1.4c0.4,0.4,0.9,0.8,1.4,1
			c0.5,0.2,1.1,0.4,1.7,0.4c0.6,0,1.2-0.1,1.8-0.4c0.6-0.3,1.1-0.6,1.5-1v1.5c-0.5,0.3-1,0.6-1.6,0.8c-0.6,0.2-1.1,0.3-1.7,0.3
			c-0.8,0-1.5-0.1-2.2-0.4c-1.4-0.6-2.4-1.6-3-3c-0.3-0.7-0.5-1.4-0.5-2.2c0-0.8,0.1-1.5,0.4-2.2c0.6-1.4,1.7-2.4,3-3
			c0.7-0.3,1.4-0.5,2.2-0.4c1.2,0,2.3,0.4,3.3,1.1L181.2,70.7z"/>
		<rect id="Rectangle_5372" x="189.8" y="68.3" class="st0" width="1.2" height="10.9"/>
		<path id="Path_6240" class="st0" d="M204.8,68.1c0.8,0,1.5,0.1,2.2,0.4c0.7,0.3,1.3,0.7,1.8,1.2c0.5,0.5,0.9,1.1,1.2,1.8
			c0.6,1.4,0.6,3,0,4.4c-0.3,0.7-0.7,1.3-1.2,1.8c-0.5,0.5-1.1,0.9-1.8,1.2c-1.4,0.6-3,0.6-4.4,0c-0.7-0.3-1.3-0.7-1.8-1.2
			c-0.5-0.5-0.9-1.1-1.2-1.8c-0.6-1.4-0.6-3,0-4.4c0.3-0.7,0.7-1.3,1.2-1.8c0.5-0.5,1.1-0.9,1.8-1.2C203.3,68.3,204,68.1,204.8,68.1
			 M204.8,69.2c-1.2,0-2.3,0.5-3.2,1.3c-0.4,0.4-0.7,0.9-0.9,1.4c-0.2,0.6-0.4,1.1-0.3,1.8c0,0.6,0.1,1.2,0.3,1.7
			c0.5,1.1,1.3,1.9,2.4,2.4c1.1,0.5,2.4,0.5,3.5,0c1.1-0.5,1.9-1.3,2.4-2.4c0.2-0.6,0.3-1.1,0.3-1.7c0-0.6-0.1-1.2-0.3-1.8
			c-0.2-0.5-0.5-1-1-1.4C207.1,69.7,206,69.2,204.8,69.2 M206.8,65.3l-2.2,2.2l-0.7-0.4l1.7-2.4L206.8,65.3z"/>
		<path id="Path_6241" class="st0" d="M218.7,67.8l8.5,8.9v-8.4h1.2v11.4l-8.5-8.9v8.4h-1.2V67.8z"/>
		<path id="Path_6242" class="st0" d="M250.9,79.2h-1.2v-9.8h-2.6v-1.1h6.5v1.1h-2.7L250.9,79.2z"/>
		<path id="Path_6243" class="st0" d="M266.4,68.1c0.8,0,1.5,0.1,2.2,0.4c0.7,0.3,1.3,0.7,1.8,1.2c0.5,0.5,0.9,1.1,1.2,1.8
			c0.6,1.4,0.6,3,0,4.4c-0.3,0.7-0.7,1.3-1.2,1.8c-0.5,0.5-1.1,0.9-1.8,1.2c-1.4,0.6-3,0.6-4.4,0c-0.7-0.3-1.3-0.7-1.8-1.2
			c-0.5-0.5-0.9-1.1-1.2-1.8c-0.6-1.4-0.6-3,0-4.4c0.3-0.7,0.7-1.3,1.2-1.8c0.5-0.5,1.1-0.9,1.8-1.2
			C264.9,68.3,265.7,68.1,266.4,68.1 M266.4,69.2c-1.2,0-2.3,0.5-3.2,1.3c-0.4,0.4-0.7,0.9-1,1.4c-0.2,0.6-0.4,1.1-0.3,1.8
			c0,0.6,0.1,1.2,0.3,1.7c0.5,1.1,1.3,1.9,2.4,2.4c1.1,0.5,2.4,0.5,3.5,0c0.5-0.2,1-0.6,1.4-1c0.4-0.4,0.7-0.9,1-1.4
			c0.2-0.6,0.3-1.1,0.3-1.7c0-0.6-0.1-1.2-0.3-1.8c-0.2-0.5-0.5-1-1-1.4C268.8,69.7,267.6,69.2,266.4,69.2"/>
		<path id="Path_6244" class="st0" d="M283.1,79.2h-1.2v-9.8h-2.6v-1.1h6.5v1.1h-2.7V79.2z"/>
		<path id="Path_6245" class="st0" d="M294,76.1l-1.3,3.1h-1.3l5-11.4l4.9,11.4h-1.3l-1.3-3.1H294z M296.3,70.6l-1.9,4.4h3.7
			L296.3,70.6z"/>
		<path id="Path_6246" class="st0" d="M310.1,78.1h3v1.1h-4.2V68.3h1.2L310.1,78.1z"/>
		<path id="Path_6247" class="st0" d="M331.7,68.3h5.7v1.1h-4.4v3.2h4.3v1.1h-4.3v4.3h4.4v1.1h-5.7V68.3z"/>
		<path id="Path_6248" class="st0" d="M346,67.8l8.5,8.9v-8.4h1.2v11.4l-8.5-8.9v8.4H346V67.8z"/>
		<path id="Path_6249" class="st0" d="M382.2,72.7v-4.4h1.2v10.9h-1.2v-5.3h-5.6v5.4h-1.2V68.3h1.2v4.4H382.2z"/>
		<path id="Path_6250" class="st0" d="M392.2,68.3h5.7v1.1h-4.4v3.2h4.3v1.1h-4.3v4.3h4.4v1.1h-5.7V68.3z"/>
		<path id="Path_6251" class="st0" d="M407.6,79.2h-1.2V68.3h1.6c0.5,0,1,0,1.5,0.1c0.4,0.1,0.9,0.2,1.3,0.5
			c0.4,0.2,0.7,0.5,0.9,0.9c0.2,0.5,0.4,1,0.3,1.5c0,0.8-0.2,1.5-0.7,2.1c-0.5,0.6-1.2,0.9-2,0.9l3.5,4.9h-1.5l-3.3-4.8h-0.3
			L407.6,79.2z M407.6,73.3h0.4c0.3,0,0.7,0,1-0.1c0.3,0,0.6-0.1,0.9-0.3c0.3-0.1,0.5-0.3,0.6-0.6c0.2-0.3,0.3-0.7,0.2-1
			c0-0.4-0.1-0.7-0.2-1.1c-0.1-0.3-0.4-0.5-0.6-0.6c-0.3-0.1-0.6-0.2-0.9-0.3c-0.3,0-0.7-0.1-1-0.1h-0.4L407.6,73.3z"/>
		<path id="Path_6252" class="st0" d="M421.9,79.2h-1.2V68.3h1.6c0.5,0,1,0,1.5,0.1c0.4,0.1,0.9,0.2,1.3,0.5
			c0.4,0.2,0.7,0.5,0.9,0.9c0.2,0.5,0.4,1,0.3,1.5c0,0.8-0.2,1.5-0.7,2.1c-0.5,0.6-1.2,0.9-2,0.9l3.5,4.9h-1.5l-3.3-4.8h-0.3V79.2z
			 M421.9,73.3h0.4c0.3,0,0.7,0,1-0.1c0.3,0,0.6-0.1,0.9-0.3c0.3-0.1,0.5-0.3,0.6-0.6c0.2-0.3,0.3-0.7,0.2-1c0-0.4-0.1-0.7-0.2-1.1
			c-0.1-0.3-0.4-0.5-0.6-0.6c-0.3-0.1-0.6-0.2-0.9-0.3c-0.3,0-0.7-0.1-1-0.1h-0.4L421.9,73.3z"/>
		<path id="Path_6253" class="st0" d="M436.6,76.1l-1.3,3.1h-1.3l5-11.4l4.9,11.4h-1.3l-1.3-3.1L436.6,76.1z M439,70.6l-1.9,4.4h3.7
			L439,70.6z"/>
		<path id="Path_6254" class="st0" d="M453,67.7l4,9.2l4-9.2l2.2,11.5h-1.2l-1.4-7.4h0l-3.5,7.8l-3.5-7.8h0l-1.4,7.4h-1.2L453,67.7z
			"/>
		<rect id="Rectangle_5373" x="471" y="68.3" class="st0" width="1.2" height="10.9"/>
		<path id="Path_6255" class="st0" d="M480.9,68.3h5.7v1.1h-4.4v3.2h4.3v1.1h-4.3v4.3h4.4v1.1h-5.7L480.9,68.3z"/>
		<path id="Path_6256" class="st0" d="M495.1,67.8l8.5,8.9v-8.4h1.2v11.4l-8.5-8.9v8.4h-1.2V67.8z"/>
		<path id="Path_6257" class="st0" d="M516.5,79.2h-1.2v-9.8h-2.6v-1.1h6.5v1.1h-2.7V79.2z"/>
		<path id="Path_6258" class="st0" d="M527.3,76.1l-1.3,3.1h-1.3l5-11.4l4.9,11.4h-1.3l-1.3-3.1H527.3z M529.7,70.6l-1.9,4.4h3.7
			L529.7,70.6z"/>
		<path id="Path_6259" class="st0" d="M547.2,70.4c-0.2-0.3-0.4-0.6-0.8-0.9c-0.3-0.2-0.7-0.3-1.1-0.3c-0.2,0-0.5,0-0.7,0.1
			c-0.2,0.1-0.4,0.2-0.6,0.3c-0.2,0.2-0.3,0.3-0.4,0.5c-0.1,0.2-0.1,0.4-0.1,0.7c0,0.2,0.1,0.4,0.2,0.6c0.1,0.2,0.3,0.3,0.4,0.5
			c0.2,0.1,0.4,0.3,0.6,0.3l0.6,0.3L546,73c0.3,0.1,0.7,0.3,1,0.5c0.3,0.2,0.6,0.4,0.8,0.6c0.2,0.2,0.4,0.5,0.6,0.8
			c0.1,0.4,0.2,0.7,0.2,1.1c0,0.5-0.1,0.9-0.3,1.3c-0.2,0.4-0.4,0.8-0.7,1.1c-0.3,0.3-0.7,0.5-1.1,0.7c-0.4,0.2-0.9,0.3-1.3,0.3
			c-0.4,0-0.8-0.1-1.2-0.2c-0.4-0.1-0.7-0.3-1-0.6c-0.3-0.3-0.6-0.6-0.7-0.9c-0.2-0.4-0.4-0.7-0.4-1.2l1.2-0.3
			c0,0.3,0.1,0.5,0.2,0.8c0.1,0.2,0.3,0.5,0.5,0.6c0.2,0.2,0.4,0.3,0.7,0.4c0.3,0.1,0.5,0.2,0.8,0.2c0.3,0,0.6-0.1,0.8-0.2
			c0.3-0.1,0.5-0.3,0.7-0.4c0.2-0.2,0.4-0.4,0.5-0.7c0.1-0.3,0.2-0.6,0.2-0.9c0-0.3-0.1-0.6-0.2-0.8c-0.1-0.2-0.3-0.4-0.5-0.6
			c-0.2-0.2-0.4-0.3-0.6-0.4c-0.2-0.1-0.5-0.2-0.7-0.4l-0.7-0.3c-0.3-0.1-0.6-0.3-0.9-0.5c-0.3-0.2-0.5-0.3-0.8-0.6
			c-0.2-0.2-0.4-0.5-0.5-0.7c-0.1-0.3-0.2-0.7-0.2-1c0-0.8,0.3-1.5,0.9-2c0.3-0.2,0.6-0.4,1-0.6c0.4-0.1,0.8-0.2,1.2-0.2
			c1.2,0,2.3,0.6,2.8,1.7L547.2,70.4z"/>
		<path id="Path_6260" class="st0" d="M85.7,30l-0.2,0.1c-5,1.8-21.7,8.2-25.2,12.8c-0.5,0.7-0.9,1.6-0.9,2.6
			c-0.1,2.7,3.3,7.6,21.3,14.6c8.4,3.3,13,5.1,15.1,6C98.1,53.2,94.4,39.9,85.7,30 M54.3,54.4c-0.5-0.1-2.3-0.2-3.2-0.3
			c-1.3-0.1-3.2-0.2-5.5-0.2C33.3,54,21.3,57,10.4,62.6l-0.2,0.1c2.2,23.8,23.3,41.2,47.1,39c10-0.9,19.4-5.4,26.6-12.5
			c6-5.8,10-13.3,11.6-21.5l0-0.1C89.2,65.1,64.5,55.7,54.3,54.4 M83.9,28C67,11.1,39.7,11.1,22.8,27.9
			c-8.3,8.3-12.9,19.7-12.7,31.5c12.4-7,45.5-24.7,74.1-31.1C84.1,28.2,84,28.1,83.9,28"/>
		<path id="Path_6261" class="st0" d="M534.6,37.5h-12.4l-0.9,8.7h14.3L534.6,37.5z"/>
		<path id="Path_6262" class="st0" d="M463.6,42c-0.9-0.8-2.1-1.3-3.3-1.4c1.3,0,2.6-0.6,3.5-1.6c1.2-1.5,1.2-2.4,1.2-4.8v-9.3
			c-0.1-1.3-0.6-2.6-1.5-3.5c-0.9-0.8-2.1-1.2-3.3-1.3h-32.7v33.7h8.5v-7.6h17.2c0.9-0.1,1.7,0.3,2.3,0.9c0.5,0.4,0.7,1,0.7,1.7v5
			h8.8v-7.7C465.1,44.6,464.6,43.1,463.6,42 M456.1,34.8c0,1.5-1.2,2.7-2.7,2.7c0,0,0,0,0,0h-17.5v-9.3h17.2c1.5-0.2,2.9,0.9,3,2.4
			c0,0.1,0,0.2,0,0.2L456.1,34.8z"/>
		<path id="Path_6263" class="st0" d="M421.6,42c-0.9-0.8-2.1-1.3-3.3-1.4c1.3,0,2.6-0.6,3.5-1.6c1.2-1.5,1.2-2.4,1.2-4.8v-9.3
			c0-1.3-0.6-2.6-1.5-3.5c-0.9-0.8-2.1-1.2-3.3-1.3h-32.7v33.7h8.5v-7.6h17.2c0.9-0.1,1.7,0.3,2.3,0.9c0.5,0.4,0.7,1,0.7,1.7v5h8.8
			v-7.7C423.1,44.6,422.6,43.1,421.6,42 M414.2,34.8c0,1.5-1.2,2.7-2.6,2.7c0,0,0,0,0,0H394v-9.3h17.2c1.5-0.2,2.9,0.9,3,2.4
			c0,0.1,0,0.2,0,0.2L414.2,34.8z"/>
		<path id="Path_6264" class="st0" d="M192,42c-0.9-0.8-2.1-1.3-3.3-1.4c1.3,0,2.6-0.6,3.4-1.6c1.2-1.5,1.2-2.4,1.2-4.8v-9.3
			c-0.1-1.3-0.6-2.6-1.6-3.5c-0.9-0.8-2.1-1.3-3.3-1.3h-32.7v33.7h8.5v-7.6h17.2c0.9-0.1,1.7,0.3,2.3,0.9c0.5,0.4,0.7,1,0.7,1.7v5.1
			h8.8v-7.7C193.5,44.6,193,43.1,192,42 M184.5,34.8c0,1.5-1.2,2.7-2.7,2.7c0,0,0,0,0,0h-17.5v-9.3h17.1c1.5-0.2,2.9,0.9,3.1,2.4
			c0,0.1,0,0.2,0,0.2L184.5,34.8z"/>
		<path id="Path_6265" class="st0" d="M546.4,22.2c-1.3-1.3-3.1-2-5-2h-25.6c-1.8-0.1-3.6,0.6-4.9,1.8c-1.6,1.4-2.5,3.3-2.5,5.4
			v18.8h-30.4v-5.1h26v-6.6h-26v-6.3h26v-8h-34.5v33.7h48.5l2.3-21.9c0,0-0.1-3.5,2.6-3.7h11.1c3,0,2.8,3.8,2.8,3.8l2.2,21.8h9.7
			V27.5C548.7,25.5,547.9,23.5,546.4,22.2"/>
		<path id="Path_6266" class="st0" d="M280.1,34.3v-9.3c-0.1-1.3-0.6-2.6-1.5-3.5c-0.9-0.8-2.1-1.2-3.3-1.3h-32.7v33.7h8.5v-7.7
			h17.2c6.1,0,9.2-1.4,10.6-3.7C280.1,40.2,280.1,35.9,280.1,34.3 M271.2,34.8c0,1.5-1.2,2.7-2.6,2.7c0,0,0,0,0,0H251v-9.3h17.1
			c1.5-0.2,2.9,0.9,3,2.4c0,0.1,0,0.2,0,0.2V34.8z"/>
		<path id="Path_6267" class="st0" d="M324.9,26.3c-0.1-1.8-0.9-3.4-2.3-4.5c-1.4-1.2-3.2-1.8-5-1.7H292c-1.8-0.1-3.5,0.5-4.9,1.5
			c-1.5,1-2.5,2.8-2.5,4.6v21.3c-0.1,1.8,0.8,3.5,2.2,4.5c1.4,1.1,3.2,1.7,5,1.7h25.6c1.8,0.1,3.5-0.5,4.9-1.5
			c1.5-1,2.5-2.7,2.5-4.6L324.9,26.3z M310.4,46.2h-11.1c-3,0-2.8-3.2-2.8-3.2V30.9c0,0-0.1-2.9,2.5-3.1h11.1c3,0,2.8,3.2,2.8,3.2
			v12.1C313,43.1,313.1,46,310.4,46.2"/>
		<path id="Path_6268" class="st0" d="M127.6,37.5v4.8h11.8V43c0,0,0.1,3.1-2.5,3.2h-11.1c-3,0-2.8-3.3-2.8-3.3V29.4
			c0,0-0.1-2.9,2.6-3.1h11.1c3,0,2.8,3.2,2.8,3.2v1.4h11.9v-4.6c0.1-1.8-0.8-3.5-2.2-4.5c-1.4-1.1-3.2-1.7-5-1.7h-25.6
			c-1.8-0.1-3.5,0.5-4.9,1.5c-1.5,1-2.5,2.7-2.5,4.6v21.4c-0.1,1.8,0.8,3.5,2.2,4.5c1.4,1.1,3.2,1.7,5,1.7h25.6
			c1.8,0.1,3.5-0.5,4.9-1.5c1.5-1,2.5-2.7,2.5-4.6V37.5H127.6z"/>
		<path id="Path_6269" class="st0" d="M381,46.8l0-26.6h-9.8l-2.3,23.2c0,1.4-1,2.6-2.4,2.8h-11.4c-1.5-0.3-2.6-1.7-2.5-3.2
			l-2.1-22.9h-9.8v26.5c0,2,0.9,3.9,2.3,5.2c1.3,1.3,3.1,2,4.9,1.9h25.8c1.9-0.1,3.8-0.8,5.2-2.2C380.2,50.3,380.9,48.6,381,46.8"/>
		<path id="Path_6270" class="st0" d="M238.1,46.8V20.1h-9.7l-2.3,23.3c0,1.4-1,2.6-2.4,2.8h-11.4c-1.5-0.3-2.5-1.7-2.5-3.2
			l-2.1-22.9h-9.8v26.5c-0.1,2,0.8,4,2.3,5.2c1.3,1.3,3.1,1.9,4.9,1.9h25.8c1.9-0.1,3.8-0.8,5.2-2.2C237.3,50.3,238,48.6,238.1,46.8
			"/>
	</g>
</g>
</svg>
