<?xml version="1.0" encoding="utf-8"?>
<!-- Generator: Adobe Illustrator 28.0.0, SVG Export Plug-In . SVG Version: 6.00 Build 0)  -->
<svg version="1.1" id="Capa_1" xmlns="http://www.w3.org/2000/svg" xmlns:xlink="http://www.w3.org/1999/xlink" x="0px" y="0px"
	 viewBox="0 0 185 59" style="enable-background:new 0 0 185 59;" xml:space="preserve">
<style type="text/css">
	.st0{fill:#1D1D1B;}
	.st1{fill:#E20613;}
</style>
<g>
	<g>
		<path class="st0" d="M27.9,23.5c-0.7-0.5-1.3-0.9-2-1.2c-0.7-0.3-1.3-0.4-1.9-0.4c-0.8,0-1.4,0.2-1.9,0.6
			c-0.5,0.4-0.8,0.9-0.8,1.5c0,0.4,0.1,0.8,0.4,1c0.3,0.3,0.6,0.5,1,0.7c0.4,0.2,0.9,0.4,1.4,0.5s1,0.3,1.5,0.5
			c2,0.7,3.5,1.6,4.4,2.7c0.9,1.1,1.4,2.6,1.4,4.4c0,1.2-0.2,2.3-0.6,3.3c-0.4,1-1,1.8-1.8,2.5c-0.8,0.7-1.7,1.2-2.9,1.6
			c-1.1,0.4-2.4,0.6-3.9,0.6c-3,0-5.8-0.9-8.3-2.7l2.6-5c0.9,0.8,1.8,1.4,2.7,1.8c0.9,0.4,1.8,0.6,2.7,0.6c1,0,1.8-0.2,2.2-0.7
			c0.5-0.5,0.7-1,0.7-1.6c0-0.4-0.1-0.7-0.2-0.9s-0.3-0.5-0.6-0.7c-0.3-0.2-0.7-0.4-1.1-0.6c-0.5-0.2-1-0.4-1.7-0.6
			c-0.8-0.3-1.6-0.5-2.3-0.8c-0.8-0.3-1.4-0.7-2-1.2c-0.6-0.5-1.1-1.1-1.4-1.9c-0.4-0.8-0.5-1.7-0.5-2.9c0-1.2,0.2-2.2,0.6-3.2
			c0.4-1,0.9-1.8,1.6-2.4c0.7-0.7,1.6-1.2,2.6-1.6s2.2-0.6,3.4-0.6c1.2,0,2.4,0.2,3.7,0.5s2.5,0.8,3.7,1.4L27.9,23.5z"/>
		<path class="st0" d="M48.3,22.6H41v4h6.9v5.2H41v4.1h7.3v5.2H34.9V17.4h13.5V22.6z"/>
		<path class="st0" d="M67.2,37h-8.8L57,41.1h-6.6l9-23.7h6.7l9,23.7h-6.6L67.2,37z M65.6,32.3l-2.8-7.9l-2.8,7.9H65.6z"/>
		<path class="st0" d="M83.7,17.4v18.5h7.4v5.2H77.6V17.4H83.7z"/>
	</g>
	<g>
		<path class="st1" d="M99.8,41.1h-6.2V17.4h9.8c2.7,0,4.7,0.7,6.1,2.1s2.1,3.3,2.1,5.8s-0.7,4.5-2.1,5.8c-1.4,1.4-3.4,2.1-6.1,2.1
			h-3.6V41.1z M99.8,28.3h2c2.3,0,3.4-1,3.4-2.9c0-2-1.1-2.9-3.4-2.9h-2V28.3z"/>
		<path class="st1" d="M127.6,37h-8.8l-1.4,4.1h-6.6l9-23.7h6.7l9,23.7H129L127.6,37z M126,32.3l-2.8-7.9l-2.8,7.9H126z"/>
		<path class="st1" d="M144.1,27.2l7.5-9.8h7.6l-9.4,11.2l10.3,12.5h-8l-8-10.3v10.3h-6.2V17.4h6.2V27.2z"/>
	</g>
	<g>
		<path class="st1" d="M159.2,23.8c0-1,0.2-2,0.6-2.9c0.4-0.9,0.9-1.7,1.6-2.3c0.7-0.7,1.4-1.2,2.3-1.6c0.9-0.4,1.8-0.6,2.9-0.6
			c1,0,2,0.2,2.9,0.6c0.9,0.4,1.7,0.9,2.3,1.6c0.7,0.7,1.2,1.4,1.6,2.3c0.4,0.9,0.6,1.9,0.6,2.9c0,1-0.2,2-0.6,2.9
			c-0.4,0.9-0.9,1.7-1.6,2.3c-0.7,0.7-1.4,1.2-2.3,1.6c-0.9,0.4-1.9,0.6-2.9,0.6c-1,0-2-0.2-2.9-0.6c-0.9-0.4-1.7-0.9-2.3-1.6
			c-0.7-0.7-1.2-1.4-1.6-2.3C159.4,25.7,159.2,24.8,159.2,23.8z M160.6,23.8c0,0.8,0.2,1.6,0.5,2.3c0.3,0.7,0.7,1.3,1.3,1.9
			c0.5,0.5,1.2,1,1.9,1.3c0.7,0.3,1.5,0.5,2.3,0.5s1.6-0.2,2.3-0.5s1.3-0.7,1.9-1.3c0.5-0.5,1-1.2,1.3-1.9c0.3-0.7,0.5-1.5,0.5-2.3
			c0-0.8-0.2-1.6-0.5-2.3c-0.3-0.7-0.7-1.3-1.3-1.9c-0.5-0.5-1.2-1-1.9-1.3s-1.5-0.5-2.3-0.5s-1.6,0.2-2.3,0.5
			c-0.7,0.3-1.3,0.7-1.9,1.3c-0.5,0.5-1,1.2-1.3,1.9C160.8,22.2,160.6,23,160.6,23.8z M170.7,27.9h-3.1l-1.9-2.8v2.8h-2.5v-8.3h3.6
			c0.9,0,1.6,0.2,2.1,0.7c0.5,0.5,0.8,1.1,0.8,1.9c0,1.2-0.6,2-1.8,2.3L170.7,27.9z M165.7,23.2h0.3c0.8,0,1.2-0.3,1.2-0.9
			c0-0.6-0.4-0.8-1.2-0.8h-0.3V23.2z"/>
	</g>
</g>
</svg>
