<?xml version="1.0" encoding="UTF-8"?>
<svg xmlns="http://www.w3.org/2000/svg" version="1.1" viewBox="0 0 382.6 99.4">
  <defs>
    <style>
      .cls-1 {
        fill: #5f5e5e;
      }

      .cls-2 {
        fill: #5d5c5c;
      }

      .cls-3 {
        fill: #cfcece;
      }

      .cls-4 {
        fill: #1c1a19;
      }

      .cls-5 {
        fill: #7e7d7d;
      }

      .cls-6 {
        fill: #302e2d;
      }

      .cls-7 {
        fill: #878686;
      }

      .cls-8 {
        fill: #535151;
      }

      .cls-9 {
        fill: #fefefe;
      }

      .cls-10 {
        fill: #413f3e;
      }

      .cls-11 {
        fill: #595757;
      }

      .cls-12 {
        fill: #fcfcfc;
      }

      .cls-13 {
        fill: #1b1918;
      }

      .cls-14 {
        fill: #b9b9b9;
      }

      .cls-15 {
        fill: #9c9b9a;
      }

      .cls-16 {
        fill: #3b3a39;
      }

      .cls-17 {
        fill: #c7c6c6;
      }

      .cls-18 {
        fill: #b2b1b1;
      }
    </style>
  </defs>
  <!-- Generator: Adobe Illustrator 28.6.0, SVG Export Plug-In . SVG Version: 1.2.0 Build 709)  -->
  <g>
    <g id="Capa_1">
      <g>
        <path class="cls-13" d="M63.5,26.4c.3.3.7.7,1,1,.2,0,.2.1.2.2.5.7,1.2,1.2,1.7,1.9,1.6,1.8,3.2,3.5,4.3,5.7.3.5.5,1.1.6,1.7,0,.1,0,.3,0,.4.1,1.3,0,2.5,0,3.8,0,.5,0,.9,0,1.4,0,.3,0,.6,0,.9,0,4.6,0,9.2,0,13.7,0,1.6-.9,2.7-2.4,3.1-.1,0-.3,0-.4,0-.1,0-.3,0-.4,0-17.8,0-35.6,0-53.4,0-.1,0-.3,0-.4,0-1.2,0-2-.7-2.5-1.7-.1-.2-.1-.5-.3-.8h0c0-.3,0-.4,0-.6,0-4.8,0-9.5,0-14.3,0-.2,0-.4,0-.6v-1.2c0-.3,0-.5,0-.8,0-.8,0-1.6,0-2.4,0-.1,0-.2,0-.3v-.2c0,0,0-.1,0-.2,0-.1,0-.2,0-.3,0-.5.2-1,.4-1.4.7-1.6,1.8-2.9,2.9-4.3.4-.5.9-1,1.3-1.5.1-.2.2-.3.5-.4.4-.5.9-.9,1.3-1.4.2-.2.5-.5.7-.7.1-.3.4-.6.7-.7.7-.7,1.4-1.4,2.2-2.1,1.3-1.2,2.6-2.4,4-3.6.6-.5,1.1-1,1.7-1.4.9-.6,1.9-.9,2.9-1.1.8-.2,1.6-.3,2.3-.4.1,0,.3,0,.4,0,.1,0,.3,0,.4,0,.2,0,.4,0,.5,0,.2,0,.4,0,.6,0,.3,0,.6,0,.9,0,1.6,0,3.1,0,4.7,0,2.5,0,5.1,0,7.6,0,0,0,0,0,0,0,.3,0,.6,0,.9,0,.2,0,.4,0,.6,0,.2,0,.3,0,.5,0,.1,0,.3,0,.4,0,.1,0,.3,0,.4,0,1.4.2,2.7.4,4,.9.7.3,1.3.7,1.9,1.2,2.2,1.9,4.3,3.8,6.4,5.9.1.1.2.2.3.3.2,0,.3.1.3.3Z"/>
        <path class="cls-13" d="M30.1,77.2c-.9-.3-1.8-.7-2.5-1.3-1-.8-1.9-1.5-2.9-2.3-.6-.5-1.2-1-1.8-1.5-.8-.7-1.7-1.4-2.5-2.2-.6-.5-1.2-1.1-1.7-1.7-.9-1-1.9-2-2.6-3.2-.2-.3-.3-.6-.4-1,0-.2,0-.3,0-.5.1-.5.6-.6,1-.6.5,0,1,0,1.5,0,.1,0,.3,0,.4,0,.6,0,1.3,0,1.9,0,.6,0,1.1,0,1.7,0,1.6,0,3.2,0,4.7,0,.1,0,.3,0,.4,0,2.1,0,4.3,0,6.4,0,.1,0,.3,0,.4,0,2.2,0,4.5,0,6.7,0,.1,0,.3,0,.4,0,2.7,0,5.4,0,8.1,0,.1,0,.3,0,.4,0,.6,0,1.2,0,1.8,0,1.4,0,2.7,0,4.1,0,.3,0,.7,0,1,0,1.1,0,2.2,0,3.3,0,.8,0,1.5,0,2.3,0,.4,0,.9,0,1.3,0h1c.2,0,.5,0,.8,0,.2,0,.4,0,.5,0,.1,0,.3,0,.5,0,.3,0,.6,0,.8.1.2,0,.3,0,.4.3,0,.1,0,.3,0,.4-.3,1-1,1.8-1.6,2.5-1.2,1.5-2.6,2.9-4,4.2-2.3,2.2-4.8,4.3-7.4,6.1-.8.6-1.8.8-2.8,1-.6.1-1.3.2-1.9.3-.1,0-.3,0-.4,0-.2,0-.5,0-.7,0-.2,0-.3,0-.5,0-.1,0-.3,0-.4,0-.3,0-.6,0-.9,0h-1.4c-.3,0-.7,0-1,0-.3,0-.6,0-.9,0-.2,0-.5,0-.7,0-.3,0-.6,0-.9,0-.8,0-1.7,0-2.5,0-.5,0-1,0-1.6,0-2,0-4.1,0-6.1-.4-.5,0-.9-.2-1.4-.3-.1,0-.3,0-.4-.2Z"/>
        <path class="cls-9" d="M16.8,29.3c-1.3,1.4-2.5,2.8-3.5,4.4-.6.9-1.1,1.8-1.4,2.8,0,.1,0,.3,0,.4,0,.1,0,.3,0,.4,0,0,0,.1,0,.1,0-4.4,0-8.8,0-13.2,0,0,.2.2.3.2,1.5,1.5,3.1,3.1,4.6,4.6,0,0,.2.2.2.3Z"/>
        <path class="cls-12" d="M30.1,77.2c2.6.7,5.2.9,7.8.9,0,0,0,0,0,0,0,0,0,0,0,0h-8.7c.2-.2.4-.5.7-.7,0,0,.2-.2.2-.3Z"/>
        <path class="cls-1" d="M11.7,42.8c0,4.7,0,9.5,0,14.2,0,.2.1.4,0,.6v-14.8s0,0,0,0Z"/>
        <path class="cls-2" d="M11.7,37.6c.1,0,0,.2,0,.3,0,.8,0,1.7,0,2.5,0,0,0,0,0,0v-2.7Z"/>
        <path class="cls-18" d="M39.5,78.1c.8,0,1.7,0,2.5,0,0,0,0,0,0,0,0,0,0,0,0,0h-2.5s0,0,0,0c0,0,0,0,0,0Z"/>
        <path class="cls-17" d="M39.5,78.1s0,0,0,0h-1.6s0,0,0,0c.5,0,1.1,0,1.6,0Z"/>
        <path class="cls-6" d="M44.6,78.1c.3,0,.7,0,1,0h-1s0,0,0,0c0,0,0,0,0,0Z"/>
        <path class="cls-15" d="M42,78.2s0,0,0,0c.3,0,.6,0,.9,0,0,0,0,0,0,0,0,0,0,0,0,0h-.9Z"/>
        <path class="cls-8" d="M46.9,78.2c.3-.1.6,0,.9,0,0,0,0,0,0,0,0,0,0,0,0,0h-.9Z"/>
        <path class="cls-11" d="M44.6,78.1s0,0,0,0h-.9s0,0,0,0c0,0,0,0,0,0,.3,0,.6,0,.9,0Z"/>
        <path class="cls-16" d="M11.7,40.4s0,0,0,0c0,.2,0,.5,0,.7v-.7Z"/>
        <path class="cls-5" d="M43.7,78.1s0,0,0,0h-.7s0,0,0,0c.2,0,.5,0,.7,0Z"/>
        <path class="cls-14" d="M48.3,78.1c.2,0,.3,0,.5,0,0,0,0,0,0,0h-.5s0,0,0,0c0,0,0,0,0,0Z"/>
        <path class="cls-10" d="M11.7,42.8s0,0,0,0v-.5c.1.2,0,.3,0,.5Z"/>
        <path class="cls-7" d="M48.3,78.1s0,0,0,0h-.4s0,0,0,0c.1,0,.3,0,.4,0Z"/>
        <path class="cls-13" d="M239.4,34.4c0,.3,0,.6,0,.9,0,.2,0,.4,0,.6-.2,1.6-.6,3.1-1.2,4.5-.8,1.8-2,3.2-3.7,4.2-.8.5-1.7.9-2.6,1.4.3,0,.5.2.8.3,2.1.8,3.4,2.4,4,4.6.2.6.2,1.1.3,1.7,0,.5,0,.9,0,1.4-.2,2.4-1.1,4.5-2.5,6.4-1.5,1.9-3.3,3.4-5.6,4.3-1.5.6-3,1-4.6,1.2-.1,0-.3,0-.4,0-.1,0-.3,0-.4,0-.2,0-.5,0-.8,0-.8,0-1.5,0-2.3,0-.6,0-1.1,0-1.7,0-.6,0-1.3,0-1.9,0-1,0-2,0-3,0-.4,0-.8,0-1.3,0-.4,0-.7,0-1.1,0-.2,0-.5,0-.7,0-.1,0-.3,0-.4,0-.1,0-.3,0-.5,0,0,0,0,0-.1,0-.5,0-.4,0-.3-.5.2-.6.3-1.2.4-1.8.2-.7.3-1.5.5-2.2.2-.7.3-1.5.5-2.2.2-.7.3-1.4.5-2.2.1-.6.2-1.1.3-1.7.2-.8.3-1.6.5-2.3.2-1,.4-2,.6-3,.2-.7.3-1.4.5-2.2.2-1,.4-1.9.6-2.8.2-.9.4-1.7.6-2.5.2-.7.3-1.5.4-2.2.1-.7.3-1.4.5-2.1.2-.8.4-1.5.5-2.3.1-.7.3-1.4.5-2.1.2-.8.3-1.5.5-2.3.2-.7.3-1.4.5-2.1,0-.3.1-.6.2-.9,0-.2,0-.3.3-.3.2,0,.4,0,.6,0,.1,0,.3,0,.5,0,.2,0,.4,0,.6,0,.3,0,.6,0,.9,0,1.2,0,2.4,0,3.6,0,.2,0,.5,0,.7,0,.6,0,1.1,0,1.7,0,.6,0,1.2,0,1.8,0,.6,0,1.3,0,1.9,0,.2,0,.4,0,.5,0,.2,0,.5,0,.7,0,.2,0,.4,0,.5,0,.1,0,.2,0,.3,0,.1,0,.3,0,.4,0,1.1.2,2.2.4,3.3.8,2.1.8,3.4,2.3,3.6,4.5,0,.1,0,.3,0,.4,0,.2,0,.4,0,.5Z"/>
        <path class="cls-13" d="M109.1,46c0,.2,0,.5,0,.7,0,.2,0,.5,0,.7,0,.2,0,.5,0,.7,0,.2,0,.5,0,.8,0,.2,0,.4,0,.6,0,.2,0,.5,0,.8,0,.2,0,.5,0,.7,0,.2,0,.5,0,.7,0,.2,0,.4,0,.6,0,.2,0,.5,0,.8,0,.2,0,.4,0,.6,0,.2,0,.5,0,.8,0,.2,0,.5,0,.7,0,.2,0,.5,0,.8,0,.2,0,.4,0,.6,0,.2,0,.5,0,.8,0,.2,0,.5,0,.7,0,.2,0,.5,0,.7,0,.2,0,.5,0,.7,0,.2,0,.5,0,.8v.6c0,.2,0,.5,0,.8,0,.2,0,.5,0,.7,0,.2,0,.5,0,.7,0,.2,0,.4,0,.6,0,.2,0,.5,0,.8,0,.2,0,.5,0,.7,0,.2,0,.5,0,.7,0,.5,0,.5-.5.5-1.2,0-2.5,0-3.7,0-.5,0-1,0-1.4,0-.7,0-1.4,0-2.1,0-.2,0-.3,0-.3-.3,0-.3,0-.7,0-1,0-.8,0-1.6,0-2.5,0-.6,0-1.2,0-1.8,0-.6,0-1.3,0-1.9,0-.1,0-.3,0-.4h0c-.3,0-.6,0-.8,0-1.1,0-2.3,0-3.4,0-.4,0-.8,0-1.2,0-1.2,0-2.5,0-3.7,0-.1,0-.3,0-.4,0-.3,0-.5,0-.6.4-.9,2.2-1.9,4.4-2.8,6.6-.1.3-.3.6-.4.9-.2,0-.4,0-.6,0-1,0-2,0-3,0-1.2,0-2.4,0-3.6,0-.7,0-.7,0-.5-.7.3-.9.7-1.8,1.1-2.7,1.3-2.9,2.8-5.7,4.2-8.6.6-1.1,1.1-2.2,1.6-3.4.5-1,1-2.1,1.5-3.1.7-1.3,1.2-2.7,1.9-4,.3-.7.7-1.4,1-2.1,0-.1,0-.2.1-.3.8-1.5,1.5-3,2.3-4.5.5-1.1,1-2.2,1.5-3.2.6-1.2,1.1-2.4,1.7-3.7.3-.6.5-1.1.7-1.7,0-.1.2-.1.3-.1,2.1,0,4.2,0,6.4,0,0,0,0,0,0,0,.9,0,1.7,0,2.6,0,.3,0,.4,0,.4.4,0,.2,0,.5,0,.8,0,.2,0,.5,0,.7,0,.2,0,.5,0,.8,0,.2,0,.4,0,.6,0,.2,0,.5,0,.8,0,.2,0,.5,0,.7,0,.2,0,.5,0,.7,0,.2,0,.4,0,.6,0,.2,0,.5,0,.8,0,.2,0,.4,0,.6,0,.2,0,.5,0,.8,0,.2,0,.5,0,.7,0,.2,0,.5,0,.8,0,.2,0,.4,0,.6,0,.2,0,.5,0,.8,0,.2,0,.5,0,.7,0,.2,0,.5,0,.7v.7c0,.2,0,.5,0,.8,0,.2,0,.4,0,.6,0,.2,0,.5,0,.8,0,.2,0,.5,0,.7,0,.2,0,.5,0,.7,0,.2,0,.4,0,.6,0,.2,0,.5,0,.8Z"/>
        <path class="cls-13" d="M283.5,57.1v-.5c0-.1,0-.3,0-.5,0,0,0-.2,0-.3,0-.1,0-.3,0-.4,0-1.2.3-2.4.6-3.5.4-1.6.8-3.2,1.4-4.8.4-1.1.8-2.2,1.3-3.3.8-1.6,1.5-3.2,2.7-4.6.6-.7,1.5-1.2,2.3-1.7,1.1-.6,2.2-.9,3.4-1,.2,0,.4,0,.5,0,.2,0,.4,0,.6,0,.2,0,.3,0,.5,0,1.6.2,3,.8,4.1,2,.3.3.5.6.7.9,0,0,0,.2.2.2,0,0,.1-.1.1-.2.1-.6.3-1.2.4-1.8.1-.7.3-1.5.5-2.2.2-1.1.4-2.2.7-3.3.2-.9.4-1.8.6-2.6.1-.4.2-.9.3-1.3,0-.2.2-.1.3-.2.5,0,.9,0,1.4,0,.4,0,.9,0,1.3,0,1.4,0,2.8,0,4.2,0,.1,0,.3,0,.3.1-.2.7-.4,1.5-.5,2.2-.3,1.6-.7,3.2-1,4.9-.4,1.7-.7,3.3-1.1,5-.6,2.7-1.2,5.3-1.7,8-.6,2.9-1.3,5.9-1.9,8.8-.6,2.8-1.2,5.6-1.8,8.3,0,.2-.1.4,0,.6-.2.2-.5,0-.7.1-1.1,0-2.2,0-3.3,0-.9,0-1.8,0-2.7,0-.4,0-.4-.1-.4-.5.1-.6.2-1.2.4-1.9,0,0,0-.1,0-.1,0,0-.1,0-.2,0-.5.4-1,.7-1.4,1.2-.9.8-2,1.3-3.1,1.7-.6.2-1.1.2-1.7.3-.3,0-.6,0-.9,0,0,0-.1,0-.2,0-.2,0-.4,0-.6,0-.9,0-1.8-.3-2.6-.8-.7-.4-1.3-1-1.7-1.7-.6-.9-.9-2-1.1-3,0-.2,0-.4,0-.6,0-.1,0-.3,0-.4,0-.1,0-.2,0-.3,0-.2,0-.5,0-.7,0-.5,0-.9,0-1.4,0-.2,0-.5,0-.8Z"/>
        <path class="cls-13" d="M162.8,65.9c0-.6.2-1.1.3-1.7.2-.9.4-1.7.5-2.5.2-.7.3-1.5.4-2.2.2-.8.3-1.6.5-2.5.3-1.2.5-2.3.8-3.5.2-1,.4-2,.6-3,.2-.9.4-1.8.6-2.7.2-.8.3-1.6.5-2.5.2-.9.4-1.8.6-2.7.2-1.1.5-2.3.7-3.4.1-.6.3-1.3.4-1.9.3,0,.6,0,.9,0,1.9,0,3.9,0,5.8,0,.5,0,.5,0,.4.5-.1.7-.3,1.5-.4,2.2.4-.2.8-.5,1.1-.8,1.3-1.4,3.1-2.1,4.9-2.5.3,0,.7-.1,1-.2.2,0,.4,0,.5,0,.4,0,.8,0,1.2,0,.2,0,.3,0,.5,0,.9.2,1.8.3,2.6.8,1.1.7,1.7,1.6,2,2.8,0,.2.1.5.2.7,0,.1,0,.3,0,.4,0,.5,0,1,0,1.4,0,.1,0,.3,0,.4-.2,1.7-.6,3.3-1,4.9-.4,1.8-.8,3.6-1.2,5.3-.6,2.7-1.2,5.5-1.8,8.2-.3,1.3-.6,2.7-.9,4,0,.3-.2.3-.4.3-2.2,0-4.3,0-6.5,0-.1,0-.2,0-.4,0-.1-.2,0-.4,0-.6,0-1,.2-2,.4-2.9.2-.9.4-1.9.6-2.8.3-1.1.6-2.3.8-3.4.2-1,.5-2,.7-3,.3-1.2.5-2.3.8-3.5.2-1,.4-2,.5-2.9,0-.2.1-.4,0-.7,0-.1,0-.3,0-.4v-.4c0-.5,0-1.1,0-1.6,0-.6-.4-.8-.8-1.1-.4-.2-.8-.4-1.2-.4-.3,0-.6,0-.9,0-1.6.2-2.7.9-3.4,2.4-.7,1.5-1,3.1-1.4,4.6-.3,1.4-.6,2.8-.9,4.2-.3,1.6-.6,3.2-.9,4.8-.5,2.4-.9,4.8-1.6,7.2-.1.4-.3.6-.7.6-.6,0-1.2,0-1.7,0-.2,0-.3,0-.5,0-.8,0-1.6,0-2.4,0-.6,0-1.2,0-1.8,0-.1,0-.3,0-.4,0Z"/>
        <path class="cls-13" d="M261.8,66.9c-1-.1-2-.4-2.8-.9-1-.7-1.5-1.6-1.8-2.7-.2-.5-.2-1-.3-1.6,0-.6,0-1.1,0-1.7,0-1.1.3-2.1.6-3.1.6-1.6,1.3-3,2.5-4.2.9-.9,2-1.5,3.2-2,2.1-.9,4.4-1.3,6.6-1.9.9-.2,1.9-.5,2.7-1,1-.6,1.7-1.3,1.9-2.4,0-.4.2-.8,0-1.3,0-.1,0-.3,0-.4-.2-1-.8-1.7-1.9-1.9-.1,0-.2-.1-.4,0-.3,0-.6,0-.9,0-1.5.2-2.6.8-3.2,2.4-.2.6-.5,1.2-.7,1.8,0,.2-.2.3-.5.3-1.9,0-3.8,0-5.6,0-.2,0-.5.1-.4-.4.2-.9.3-1.7.6-2.5.8-2.2,2.3-3.9,4.3-5.1,1.6-.9,3.3-1.4,5.1-1.7.1,0,.3,0,.4,0h.3c.2,0,.3,0,.5,0h2.1c.2,0,.4,0,.5,0,1.3.2,2.6.4,3.8.9.9.4,1.8.8,2.4,1.6.4.6.6,1.2.7,1.9,0,.2,0,.4,0,.6,0,.5,0,1,0,1.5,0,.2,0,.4,0,.6,0,.1,0,.3,0,.5-.3,2.6-.9,5.1-1.4,7.7-.5,2.4-1.1,4.8-1.5,7.2-.2,1.2-.5,2.4-.5,3.7,0,.1,0,.3,0,.4,0,0,0,.2,0,.3,0,.1,0,.3,0,.4v.3c0,.2,0,.4,0,.5,0,.1,0,.3,0,.4,0,.3,0,.5,0,.8,0,.3-.2.2-.3.2-1.8,0-3.6,0-5.4,0-.2,0-.5,0-.7,0-.6,0-.6,0-.7-.7,0-.6-.2-1.2-.6-1.7-.2-.2-.2-.2-.3,0-.9,1.4-2.3,2.1-3.8,2.7-.7.3-1.5.4-2.2.5-.1,0-.3,0-.5,0-.3,0-.7,0-1,0-.1,0-.3,0-.4,0Z"/>
        <path class="cls-13" d="M350.8,37.4c.6,0,1.2,0,1.8,0,.4,0,.9,0,1.3,0,.1,0,.3,0,.4,0,.6,0,1.2,0,1.8,0,.5,0,.9,0,1.4,0,.1,0,.2,0,.3,0,0,.6,0,1.2,0,1.8,0,.6,0,1.2,0,1.9,0,.1,0,.3,0,.4,0,.7,0,1.5,0,2.2,0,.6,0,1.2,0,1.9,0,.1,0,.3,0,.4,0,.7,0,1.5,0,2.2,0,.6,0,1.2,0,1.9,0,.1,0,.3,0,.4,0,.7,0,1.5,0,2.2,0,.6,0,1.2,0,1.9,0,.1,0,.3,0,.4v1.3s0,0,0,0c.4-1.1.9-2.2,1.3-3.3,0-.1,0-.2.1-.3,0,0,0,0,0,0,0-.1,0-.2.1-.3.2-.6.4-1.1.7-1.7.4-.9.7-1.8,1.1-2.7,0-.2.1-.4.2-.5,0-.1,0-.2.1-.3,0,0,0,0,0,0,0-.1,0-.2.1-.3.1-.6.4-1.1.6-1.6.4-1,.8-2,1.2-3,0-.1,0-.2.1-.3.1-.6.4-1.1.6-1.6.3-.9.7-1.8,1.1-2.7,0-.2.2-.2.3-.2,1.4,0,2.8,0,4.3,0,1,0,1.9,0,2.9,0,0,0,0,0,0,0-.2.4-.3.7-.4,1.1,0,.1,0,.2-.1.3-.4.9-.9,1.8-1.2,2.8,0,.1,0,.2-.2.3-.2.5-.5.9-.6,1.4,0,.1,0,.2-.2.3-.1.2-.2.4-.3.6,0,.1,0,.2-.2.3-.5,1-1,2-1.4,3.1,0,0,0,.2-.2.3-.4.8-.8,1.6-1.1,2.4,0,.1,0,.2-.2.3-.5,1-1.1,2.1-1.5,3.2,0,.1,0,.2-.2.3-.3.7-.7,1.4-1,2.1,0,.1,0,.2-.2.3-.5,1-1,1.9-1.4,3,0,.2,0,.3-.2.4-.9,1.7-1.7,3.4-2.6,5.1-1,2-2,4-3.2,5.9-.9,1.4-2,2.6-3.5,3.4-1,.4-2,.7-3,.8-.2,0-.4,0-.7,0-.2,0-.3,0-.5,0-.2,0-.4,0-.6,0-.4,0-.7,0-1.1,0-.4,0-.8,0-1.2,0-.3,0-.7,0-1,0h-.5c-.1,0-.3,0-.4,0-.3,0-.2-.2-.2-.4.2-.8.4-1.7.6-2.6.2-.7.3-1.4.4-2.1,0-.2.1-.3.3-.3.3,0,.6,0,.9,0,.9,0,1.8.1,2.7-.3.9-.4,1.6-1.1,2.1-2,.4-.7.5-1.4.6-2.1,0-.1,0-.3,0-.4,0-.1,0-.3,0-.4,0-.6,0-1.2,0-1.9,0-.2,0-.4,0-.6,0-.2,0-.4,0-.5,0-.1,0-.2,0-.3,0-.1,0-.3,0-.5v-.3c0-.1,0-.3,0-.4,0-.1,0-.2,0-.3,0-.1,0-.3,0-.4v-.3c0-.1,0-.3,0-.4,0,0,0-.2,0-.3,0-.1,0-.3,0-.4,0-.1,0-.2,0-.3,0-.1,0-.3,0-.4,0-.1,0-.2,0-.3,0-.2,0-.4,0-.5v-.5c0-.2,0-.4,0-.5,0-.2,0-.3,0-.5,0-.2,0-.4,0-.5,0-.2,0-.3,0-.5,0-.2,0-.3,0-.5,0-.1,0-.3,0-.4,0-.2,0-.4,0-.5,0-.1,0-.3,0-.4,0-.2,0-.3,0-.5,0-.1,0-.3,0-.4,0-.2,0-.3,0-.5,0-.1,0-.3,0-.4,0-.1,0-.3,0-.5,0-.1,0-.3,0-.4,0-.1,0-.3,0-.5,0-.1,0-.3,0-.4,0-.1,0-.3,0-.5,0-.1,0-.3,0-.4,0-.1,0-.3,0-.5,0-.1,0-.2,0-.3,0-.2,0-.4,0-.5,0-.1,0-.3,0-.4,0-.2,0-.4,0-.5,0-.1,0-.3,0-.4,0-.2,0-.4,0-.5,0-.1,0-.3,0-.4,0-.2,0-.4,0-.6,0-.2,0-.3,0-.5,0-.2,0-.4,0-.6,0-.2,0-.4,0-.5,0-.2,0-.5,0-.7,0-.2,0-.4,0-.6,0-.3,0-.6,0-.9,0-.3,0-.7,0-1,0-.5,0-1,0-1.5,0-.2,0-.3.3-.3.1,0,.3,0,.4,0Z"/>
        <path class="cls-13" d="M346.4,43.4c0,.1,0,.3,0,.4,0,.6,0,1.3,0,1.9,0,.2,0,.3,0,.5,0,.1,0,.3,0,.5-.2,2-.6,3.9-1.1,5.8,0,.3-.2.4-.5.4-3.4,0-6.7,0-10.1,0-1.2,0-2.4,0-3.6,0-.3,0-.4,0-.5.3-.8,2.1-1.1,4.2-.6,6.4.5,2,2.9,2.8,4.5,1.4.7-.6,1.1-1.4,1.6-2.1.4-.8.8-1.6,1.2-2.3.1-.2.3-.3.6-.3.8,0,1.6,0,2.4,0,.6,0,1.2,0,1.8,0,.2,0,.3,0,.5,0,.4,0,.7,0,1.1,0,.2,0,.2,0,.2.3-.5,2.3-1.4,4.3-3,6.1-1.1,1.2-2.3,2.2-3.8,2.9-1.3.6-2.7,1-4.2,1.1-.2,0-.4,0-.5,0-.5,0-1,0-1.5,0-.2,0-.4,0-.6,0-.1,0-.2,0-.3,0-.1,0-.3,0-.4,0-1,0-2-.3-2.9-.7-1.2-.5-2.3-1.4-3-2.5-.5-.9-.9-1.9-1-3,0-.3,0-.6,0-.8,0-.2,0-.4,0-.5,0-.5,0-1.1,0-1.6,0-.2,0-.5,0-.7,0-.1,0-.3,0-.4,0-.1,0-.3,0-.4,0-1.1.3-2.3.5-3.4.3-1.4.7-2.7,1-4,.3-1.2.7-2.4,1.2-3.5.7-1.6,1.5-3.1,2.7-4.4,2-2.3,4.5-3.5,7.4-3.9.4,0,.8-.1,1.2-.2.2,0,.4,0,.5,0,.6,0,1.2,0,1.7,0,.2,0,.4,0,.5,0,1.1.1,2.2.3,3.2.8,1.3.6,2.2,1.5,2.9,2.7.1,0,.1.2.1.3.3.8.5,1.7.7,2.5,0,.1,0,.3,0,.4Z"/>
        <path class="cls-13" d="M139.1,56.9c0-.1,0-.3,0-.4,0-.1,0-.3,0-.4,0-1.1.3-2.3.5-3.4.2-1,.5-2,.7-3,.4-1.4.8-2.8,1.3-4.1.5-1.3,1.1-2.6,1.9-3.7,1.1-1.6,2.5-2.9,4.3-3.8,1.2-.6,2.6-1,4-1.2.2,0,.3,0,.5,0,.1,0,.3,0,.4,0,.1,0,.2,0,.3,0,.2,0,.4,0,.6,0h1.7c.2,0,.4,0,.5,0,1.1.1,2.1.3,3.1.8,2,.9,3.1,2.4,3.6,4.5,0,.4.2.8.2,1.2,0,.1,0,.3,0,.4,0,.2,0,.3,0,.5,0,.5,0,1,0,1.5,0,.2,0,.4,0,.5,0,.1,0,.3,0,.5-.2,2-.6,4-1.2,5.9,0,.3-.2.4-.4.3-.5,0-1.1,0-1.6,0-.1,0-.3,0-.4,0-2.9,0-5.7,0-8.6,0-.1,0-.3,0-.4,0-.9,0-1.8,0-2.7,0-.2,0-.2,0-.3.2-.5.9-.7,1.8-.8,2.8,0,.3,0,.7,0,1,0,.5,0,1,0,1.5,0,.9.2,1.7.7,2.4.4.6.9.9,1.6.9.3,0,.6,0,.9,0,.6,0,1.1-.3,1.6-.7,1.1-.8,1.6-1.9,2.1-3.1.2-.5.3-.9.5-1.4.2-.2.5,0,.7,0,.4,0,.8,0,1.2,0,.4,0,.8,0,1.2,0,.4,0,.8,0,1.3,0,.4,0,.8,0,1.2,0,.3,0,.6,0,.9,0,.2,0,.3,0,.2.3-.9,2.7-2.1,5.2-4.2,7.2-.8.8-1.8,1.4-2.9,1.9-1.1.5-2.3.8-3.5.9-.1,0-.3,0-.5,0-.3,0-.5,0-.8,0-.2,0-.4,0-.6,0-.3,0-.5,0-.8,0-.2,0-.4,0-.5,0,0,0-.2,0-.3,0-.1,0-.3,0-.4,0-1,0-1.9-.3-2.8-.7-1.3-.5-2.3-1.4-3.1-2.6-.5-.9-.8-1.8-1-2.7,0-.3,0-.7,0-1.1,0-.2,0-.3,0-.5,0-.5,0-1.1,0-1.6,0-.2,0-.5,0-.7Z"/>
        <path class="cls-13" d="M128.3,28.2c-.2.9-.4,1.7-.6,2.6-.4,1.7-.7,3.5-1.1,5.2-.4,1.8-.8,3.6-1.2,5.4-.6,2.9-1.3,5.8-1.9,8.6-.7,3.2-1.3,6.3-2,9.4-.5,2.1-.9,4.1-1.3,6.2,0,.1-.1.2,0,.4-.4,0-.8,0-1.2,0-.1,0-.3,0-.4,0-1.2,0-2.4,0-3.6,0-.7,0-1.4,0-2.1,0,.1-.5.1-.9.2-1.3.1-.7.3-1.5.4-2.2.2-.8.3-1.7.5-2.5.1-.8.3-1.5.5-2.3.1-.7.2-1.4.4-2.1.1-.6.3-1.2.4-1.8.2-.8.3-1.6.5-2.4,0-.5.2-.9.3-1.4.1-.7.3-1.4.4-2.1.1-.5.2-1.1.4-1.6.2-1.1.5-2.2.7-3.4.2-.9.4-1.9.6-2.8.2-.9.4-1.8.6-2.7.3-1.2.5-2.3.8-3.5.2-1.1.5-2.1.8-3.2.2-.8.4-1.6.6-2.4.1-.5.4-.2.6-.3.2,0,.3,0,.5,0,2,0,4,0,6,0,.1,0,.3-.1.3.2Z"/>
        <path class="cls-13" d="M324.5,28.2c-.2.9-.4,1.7-.6,2.6-.7,3.2-1.4,6.3-2,9.5-.5,2.5-1.1,5-1.6,7.4-.6,2.6-1.1,5.2-1.7,7.8-.6,3-1.3,6-1.9,8.9-.1.5-.3,1-.3,1.5,0,.2-.2.1-.3.1-.3,0-.7,0-1,0-.9,0-1.9,0-2.8,0-.9,0-1.8,0-2.7,0-.2,0-.3,0-.5,0,0-1,.3-2,.5-3,.2-1.2.5-2.3.7-3.5.2-.9.4-1.8.6-2.7.2-.9.3-1.8.5-2.7.2-1,.4-1.9.6-2.9.2-.8.3-1.7.5-2.6.2-.9.4-1.7.6-2.6.2-.8.3-1.6.5-2.5.2-.8.4-1.6.5-2.5.2-1,.5-2.1.7-3.1.2-.9.4-1.9.6-2.8.1-.8.4-1.6.5-2.3.2-.9.4-1.9.6-2.8.2-.7.4-1.4.6-2.2,0-.1.2,0,.3,0,2.3,0,4.5,0,6.8,0,.1,0,.3-.1.3.2Z"/>
        <path class="cls-13" d="M125.6,65.9c.2-.8.3-1.6.5-2.4.2-1.1.5-2.2.7-3.4.2-.9.4-1.9.6-2.8.2-.8.3-1.6.5-2.4.2-.9.4-1.8.6-2.7.2-1.1.5-2.3.7-3.4.2-.9.5-1.9.6-2.8.1-.8.3-1.6.5-2.4.1-.7.3-1.4.5-2.1.2-.8.3-1.7.5-2.6.2-.9.4-1.7.6-2.6.2-.9.4-1.7.5-2.6.1-.6.2-1.1.4-1.7.2-.7.3-1.4.4-2,.1-.6.2-1.3.4-1.9,0-.1,0-.2.2-.2.3,0,.6,0,.8,0,2,0,4,0,6,0,.1,0,.3,0,.4,0-.6,2.6-1.1,5.1-1.7,7.6-.5,2.1-.9,4.3-1.4,6.4-.6,3-1.3,6-2,9-.6,2.9-1.3,5.8-1.9,8.7-.4,2-.8,3.9-1.2,5.9,0,.2-.1.4-.4.3-.2,0-.5,0-.7,0-.7,0-1.4,0-2,0-.2,0-.4,0-.6,0h-2.9c-.2,0-.4,0-.6,0,0,0-.2,0-.2-.1Z"/>
        <path class="cls-13" d="M255.4,44c-1.1,0-2.1.3-3,.9-1.1.6-1.7,1.7-2.1,2.9-.5,1.5-.8,3.1-1.2,4.6-.3,1.5-.6,3-.9,4.4-.3,1.8-.7,3.6-1.1,5.4-.3,1.2-.6,2.4-.9,3.5,0,.2-.2.3-.4.3-.3,0-.6,0-.8,0-.7,0-1.5,0-2.2,0-.3,0-.6,0-1,0-.9,0-1.8,0-2.7,0-.3,0-.4,0-.3-.3.2-.7.3-1.3.4-2,.2-.9.4-1.8.6-2.7.2-1.2.5-2.3.7-3.5.2-.9.4-1.8.6-2.7.3-1.4.6-2.9.9-4.3.3-1.4.6-2.7.9-4.1.2-1,.4-2.1.7-3.1.2-1.1.5-2.3.7-3.4.2-.7.3-1.5.5-2.2.3-.2.6,0,.9,0,1.3,0,2.5,0,3.8,0,.7,0,1.4,0,2.1,0,.1,0,.3,0,.3.1-.2,1-.3,2-.5,2.9,0,0,0,.2,0,.2,1-1,1.9-2.1,3.1-2.8.9-.6,2-.9,3-1.1.1,0,.3,0,.5,0,.6,0,1.1,0,1.7,0,.2,0,.3,0,.3.3-.5,2.2-1,4.3-1.4,6.5,0,0,0,.2,0,.3-.3.1-.6,0-.8,0-.1,0-.3,0-.4,0-.2,0-.5,0-.7,0-.2,0-.4,0-.5,0-.1,0-.2,0-.3,0-.1,0-.3,0-.4,0Z"/>
        <path class="cls-13" d="M196.8,53.8c-1.4,0-2.9,0-4.3,0-.7,0-.7,0-.5-.7.2-.9.4-1.8.6-2.6.2-.9.4-1.8.6-2.8,0-.1.2-.1.3-.1,2.6,0,5.2,0,7.8,0,0,0,0,0,0,0,2.2,0,4.4,0,6.6,0,.1,0,.3,0,.5,0-.2,1.1-.5,2.2-.7,3.3-.2.9-.4,1.8-.6,2.7,0,.2-.1.2-.3.2-1.5,0-3,0-4.5,0-.1,0-.3,0-.4,0-.2,0-.3,0-.5,0-1.3,0-2.7,0-4,0-.1,0-.3,0-.4,0Z"/>
        <path class="cls-12" d="M14.5,60.3c.2,0,.4,0,.6,0,17.8,0,35.7,0,53.5,0,0,0,0,0,.1,0-.1.1-.3,0-.4,0-17.8,0-35.6,0-53.5,0-.1,0-.3,0-.4,0Z"/>
        <path class="cls-12" d="M150.4,52.9c.9,0,1.8,0,2.7,0,2.2,0,4.5,0,6.7,0,0,0-.2,0-.2,0-3.1,0-6.1,0-9.2,0Z"/>
        <path class="cls-12" d="M49.7,62.9c-.8,0-1.6,0-2.4,0-2.2,0-4.3,0-6.5,0,0,0,.2,0,.3,0,2.9,0,5.8,0,8.7,0Z"/>
        <path class="cls-12" d="M201.3,47.5c-2.5,0-5,0-7.6,0-.2,0-.4,0-.5.1,0-.2.1-.2.2-.2,2.6,0,5.1,0,7.7,0,0,0,.1,0,.2,0Z"/>
        <path class="cls-12" d="M324.5,28.2c0-.1,0-.2-.2-.1-2.3,0-4.7,0-7,0,0,0,0,0-.1,0,0-.2.2-.1.3-.1,2.3,0,4.5,0,6.8,0,.1,0,.4,0,.2.2Z"/>
        <path class="cls-12" d="M34.1,62.9c-2.4,0-4.7,0-7.1,0,0,0,0,0-.1,0,2.3,0,4.6,0,7,0,0,0,.2,0,.2,0Z"/>
        <path class="cls-12" d="M128.3,28.2c0-.3-.2-.2-.3-.2-2,0-4.1,0-6.1,0-.1,0-.2,0-.4,0,0,0,.2,0,.3,0,2.1,0,4.2,0,6.3,0,.1,0,.4,0,.2.2Z"/>
        <path class="cls-12" d="M105.2,28c-2.1,0-4.2,0-6.3,0-.1,0-.3,0-.4,0,0-.2.1-.2.2-.2,2.1,0,4.2,0,6.3,0,0,0,.1,0,.2,0Z"/>
        <path class="cls-12" d="M312,28.1c0-.2-.2,0-.4,0-1.8,0-3.6,0-5.4,0,.1,0,.2,0,.3,0,1.7,0,3.4,0,5.2,0,0,0,.3-.1.3.1Z"/>
        <path class="cls-12" d="M102.1,64.7c0,.3,0,.6,0,1,0,.2,0,.3.3.3,1.1,0,2.1,0,3.2,0,.1,0,.2,0,.4,0-1.2,0-2.4,0-3.6,0-.3,0-.3-.1-.3-.3,0-.3,0-.7,0-1Z"/>
        <path class="cls-12" d="M196.8,53.8c1.6,0,3.2,0,4.7,0,0,0,0,0,.1,0-1.5,0-3.1,0-4.6,0,0,0-.2,0-.2,0Z"/>
        <path class="cls-12" d="M59.9,62.9c-1.4,0-2.9,0-4.3,0,1.4,0,2.7,0,4.1,0,0,0,.2,0,.2,0Z"/>
        <path class="cls-12" d="M212.5,66.2c1.4,0,2.8,0,4.3,0,0,0-.2,0-.3,0-1.2,0-2.5,0-3.7,0,0,0-.2,0-.3,0Z"/>
        <path class="cls-12" d="M92.4,58.1c1,0,2.1,0,3.1,0,.4,0,.7,0,1.1,0,0,0-.2,0-.2,0-1.3,0-2.6,0-3.9,0Z"/>
        <path class="cls-12" d="M22.1,62.8c-1.2,0-2.4,0-3.6,0,1.1,0,2.2,0,3.3,0,0,0,.2,0,.2,0Z"/>
        <path class="cls-12" d="M84.9,66.1c1,0,2,0,3,0,.2,0,.4,0,.5,0,0,0-.2,0-.3,0-1.1,0-2.2,0-3.3,0Z"/>
        <path class="cls-12" d="M241.7,66c1,0,2.1,0,3.1,0-1,0-1.9,0-2.9,0,0,0-.2,0-.2,0Z"/>
        <path class="cls-9" d="M373.2,37.4h-3c.1-.1.2,0,.3,0,.8,0,1.5,0,2.3,0,.1,0,.3,0,.4,0Z"/>
        <path class="cls-12" d="M129.2,66c.9,0,1.8,0,2.6,0-.8,0-1.6,0-2.4,0,0,0-.2,0-.2,0Z"/>
        <path class="cls-12" d="M251.9,37.6c0-.1-.2,0-.3,0-.7,0-1.4,0-2.1,0,.7,0,1.5,0,2.2,0,0,0,.3,0,.2.1Z"/>
        <path class="cls-12" d="M350.8,37.4q-.7,0-.7.7c0,.3,0,.7,0,1-.1-.5,0-1.1,0-1.6,0,0,0-.2.2-.2.2,0,.4,0,.6,0Z"/>
        <path class="cls-9" d="M19.6,26.5c-.2.2-.5.5-.7.7,0-.4.3-.7.7-.7Z"/>
        <path class="cls-12" d="M230.4,28c-.8,0-1.6,0-2.4,0,.7,0,1.4,0,2.2,0,0,0,.2,0,.3,0Z"/>
        <path class="cls-12" d="M102,58.1c.1.3,0,.6,0,.9,0,.5,0,.9,0,1.4-.1-.3,0-.6,0-.9,0-.5,0-.9,0-1.4Z"/>
        <path class="cls-9" d="M358.1,55.2c0-.8,0-1.5,0-2.3.1.3,0,.6,0,1,0,.4,0,.9,0,1.3Z"/>
        <path class="cls-9" d="M358,50.7c0-.8,0-1.5,0-2.3.1.3,0,.6,0,1,0,.4,0,.9,0,1.3Z"/>
        <path class="cls-9" d="M357.9,41.7c0-.8,0-1.5,0-2.3.1.3,0,.6,0,1,0,.4,0,.9,0,1.3Z"/>
        <path class="cls-9" d="M357.9,46.2c0-.8,0-1.5,0-2.3.1.3,0,.6,0,1,0,.4,0,.9,0,1.3Z"/>
        <path class="cls-12" d="M342.6,56.5c-.8,0-1.5,0-2.3,0,.7,0,1.4,0,2,0,0,0,.2,0,.2,0Z"/>
        <path class="cls-12" d="M162.8,65.9c.7,0,1.5,0,2.2,0-.6,0-1.3,0-1.9,0,0,0-.2,0-.3,0Z"/>
        <path class="cls-12" d="M167.4,66c.7,0,1.5,0,2.2,0-.7,0-1.3,0-2,0,0,0-.2,0-.2,0Z"/>
        <path class="cls-12" d="M346.5,45.7c0-.6,0-1.3,0-1.9,0,.6.1,1.3,0,1.9Z"/>
        <path class="cls-12" d="M351.9,63c0,.6,0,1.2,0,1.9,0-.6,0-1.2,0-1.9Z"/>
        <path class="cls-12" d="M256.8,60c0,.6,0,1.1,0,1.7,0-.6-.1-1.1,0-1.7Z"/>
        <path class="cls-9" d="M354.3,37.5c-.6,0-1.1,0-1.7,0,.6,0,1.1,0,1.7,0Z"/>
        <path class="cls-9" d="M357.8,37.6c-.6,0-1.1,0-1.7,0,.5,0,.9,0,1.4,0,.1,0,.2,0,.3,0Z"/>
        <path class="cls-12" d="M218.7,66.2c.6,0,1.1,0,1.7,0-.6.1-1.1,0-1.7,0Z"/>
        <path class="cls-12" d="M226.1,28c-.6,0-1.1,0-1.7,0,.6,0,1.1,0,1.7,0Z"/>
        <path class="cls-12" d="M118.6,66.1c.5,0,1.1,0,1.6,0-.4.2-.8,0-1.2,0-.1,0-.3,0-.4,0Z"/>
        <path class="cls-12" d="M163.1,45.6c0-.5,0-1,0-1.5.1.5.1,1,0,1.5Z"/>
        <path class="cls-12" d="M181.4,43.9c.1.5,0,1.1,0,1.6,0-.5,0-1.1,0-1.6Z"/>
        <path class="cls-12" d="M281.5,43.1c0-.5,0-1,0-1.5.1.5.1,1,0,1.5Z"/>
        <path class="cls-12" d="M146.4,58.4c0-.5,0-1,0-1.5,0,.5,0,1,0,1.5Z"/>
        <path class="cls-12" d="M315.1,66.1c.3,0,.7,0,1,0,.1,0,.3,0,.3-.1,0,.2-.1.2-.3.2-.4,0-.7,0-1.1,0Z"/>
        <path class="cls-12" d="M236.9,54c0-.5,0-.9,0-1.4.1.5.1.9,0,1.4Z"/>
        <path class="cls-12" d="M71.5,42.4c0-.5,0-.9,0-1.4,0,.5,0,.9,0,1.4Z"/>
        <path class="cls-12" d="M63.5,63c-.4,0-.9,0-1.3,0,.4,0,.9,0,1.3,0Z"/>
        <path class="cls-12" d="M134.7,28c-.3,0-.5,0-.8,0-.1,0-.2,0-.3.2,0-.1,0-.2.2-.2.3,0,.6,0,.9,0Z"/>
        <path class="cls-12" d="M257.3,43.8c.4,0,.8,0,1.3,0-.4.2-.8,0-1.3,0Z"/>
        <path class="cls-12" d="M159.4,56.6c-.4,0-.8,0-1.2,0,.4,0,.8,0,1.2,0Z"/>
        <path class="cls-12" d="M156.9,56.5c-.4,0-.8,0-1.2,0,.4,0,.8,0,1.2,0Z"/>
        <path class="cls-12" d="M347.4,75.5c.4,0,.7,0,1.1,0-.4.1-.7,0-1.1,0Z"/>
        <path class="cls-12" d="M245.6,37.4c-.3,0-.6-.1-.9,0,0-.2.2-.2.3-.2.2,0,.5,0,.7,0Z"/>
        <path class="cls-9" d="M362.6,60c0-.1.2-.3.2-.4.2.3,0,.4-.2.4Z"/>
        <path class="cls-12" d="M345.3,75.4c.3,0,.6,0,1,0-.3,0-.7,0-1,0Z"/>
        <path class="cls-12" d="M169.7,37.4c-.3,0-.6,0-.9,0,.3-.1.6,0,.9,0Z"/>
        <path class="cls-12" d="M271.1,41.8c.3,0,.6,0,.9,0-.3,0-.6,0-.9,0Z"/>
        <path class="cls-12" d="M220.2,27.9c-.3,0-.6,0-.9,0,.3-.1.6,0,.9,0Z"/>
        <path class="cls-12" d="M149.6,61.7c-.3,0-.6,0-.9,0,.3,0,.6,0,.9,0Z"/>
        <path class="cls-12" d="M346.5,70c-.3,0-.6,0-.9,0,.3-.1.6,0,.9,0Z"/>
        <path class="cls-12" d="M350.1,40.2c0,.3,0,.6,0,.9-.1-.3,0-.6,0-.9Z"/>
        <path class="cls-12" d="M48.7,17.8c-.3,0-.6,0-.9,0,.3,0,.6,0,.9,0Z"/>
        <path class="cls-12" d="M125.6,65.9c.2.2.5,0,.8.1-.2,0-.4,0-.7,0,0,0-.2,0,0-.1Z"/>
        <path class="cls-12" d="M289.8,66.9c.3,0,.6,0,.9,0-.3.1-.6,0-.9,0Z"/>
        <path class="cls-12" d="M35.4,17.7c-.3,0-.6,0-.9,0,.3-.1.6,0,.9,0Z"/>
        <path class="cls-12" d="M277.7,65.9c0-.3,0-.6,0-.8,0,.3,0,.6,0,.8Z"/>
        <path class="cls-12" d="M101.1,58.1c.3,0,.6,0,.8,0-.3,0-.6,0-.8,0Z"/>
        <path class="cls-12" d="M154.5,56.4c-.2,0-.5-.1-.7,0,.2-.3.5-.1.7,0Z"/>
        <path class="cls-12" d="M178.5,42.4c.3,0,.6,0,.9,0-.3,0-.6,0-.9,0Z"/>
        <path class="cls-9" d="M63.5,26.4c-.1-.1-.2-.2-.3-.3.2,0,.4,0,.3.3Z"/>
        <path class="cls-12" d="M109.7,57.2c0-.2,0-.5,0-.8.1.2,0,.5,0,.8Z"/>
        <path class="cls-12" d="M108.6,36.2c0-.2,0-.5,0-.8.1.2,0,.5,0,.8Z"/>
        <path class="cls-12" d="M109.8,60c0-.2,0-.5,0-.8.1.2,0,.5,0,.8Z"/>
        <path class="cls-12" d="M110.1,64.2c0-.2,0-.5,0-.8.1.2,0,.5,0,.8Z"/>
        <path class="cls-12" d="M108.3,29.2c0-.2,0-.5,0-.8.1.2,0,.5,0,.8Z"/>
        <path class="cls-12" d="M222.7,66.1c.2,0,.5,0,.8,0-.2.1-.5,0-.8,0Z"/>
        <path class="cls-12" d="M109.6,54.4c0-.2,0-.5,0-.8.1.2,0,.5,0,.8Z"/>
        <path class="cls-12" d="M109.1,46c0-.2,0-.5,0-.8.1.2,0,.5,0,.8Z"/>
        <path class="cls-12" d="M109,43.2c0-.2,0-.5,0-.8.1.2,0,.5,0,.8Z"/>
        <path class="cls-12" d="M108.5,34.8c0-.2,0-.5,0-.8.1.2,0,.5,0,.8Z"/>
        <path class="cls-12" d="M109.3,48.8c0-.2,0-.5,0-.8.1.2,0,.5,0,.8Z"/>
        <path class="cls-12" d="M109.6,55.8c0-.2,0-.5,0-.8.1.2,0,.5,0,.8Z"/>
        <path class="cls-12" d="M108.7,37.6c0-.2,0-.5,0-.8.1.2,0,.5,0,.8Z"/>
        <path class="cls-12" d="M109.3,50.2c0-.2,0-.5,0-.8.1.2,0,.5,0,.8Z"/>
        <path class="cls-12" d="M108.5,33.4c0-.2,0-.5,0-.7.1.2,0,.5,0,.7Z"/>
        <path class="cls-12" d="M108.4,32c0-.2,0-.5,0-.8.1.2,0,.5,0,.8Z"/>
        <path class="cls-12" d="M110,62.8c0-.2,0-.5,0-.7.1.2,0,.5,0,.7Z"/>
        <path class="cls-12" d="M109.4,51.6c0-.2,0-.5,0-.7.1.2,0,.5,0,.7Z"/>
        <path class="cls-12" d="M109.1,44.6c0-.2,0-.5,0-.7.1.2,0,.5,0,.7Z"/>
        <path class="cls-12" d="M283.5,57.1c0,.3,0,.5,0,.8,0-.3,0-.5,0-.8Z"/>
        <path class="cls-12" d="M109.9,61.4c0-.2,0-.5,0-.8.1.2,0,.5,0,.8Z"/>
        <path class="cls-12" d="M109.5,53c0-.2,0-.5,0-.8.1.2,0,.5,0,.8Z"/>
        <path class="cls-12" d="M108.8,39c0-.2,0-.5,0-.8.1.2,0,.5,0,.8Z"/>
        <path class="cls-9" d="M64.7,27.6c0,0-.2-.1-.2-.2,0,0,0-.1,0-.1.2,0,.1.2.1.3Z"/>
        <path class="cls-12" d="M108.3,30.6c0-.2,0-.5,0-.8.1.2,0,.5,0,.8Z"/>
        <path class="cls-12" d="M108.9,41.8c0-.2,0-.5,0-.8.1.2,0,.5,0,.8Z"/>
        <path class="cls-12" d="M65.2,63.1c-.3,0-.5,0-.8,0,.3,0,.5,0,.8,0Z"/>
        <path class="cls-12" d="M350.2,41.7c0,.2,0,.4,0,.7-.1-.2,0-.4,0-.7Z"/>
        <path class="cls-12" d="M108.8,40.4c0-.2,0-.5,0-.7.1.2,0,.5,0,.7Z"/>
        <path class="cls-12" d="M283.4,59.2c0,.2,0,.5,0,.7-.1-.2,0-.5,0-.7Z"/>
        <path class="cls-12" d="M109.2,47.4c0-.2,0-.5,0-.7.1.2,0,.5,0,.7Z"/>
        <path class="cls-12" d="M110.1,65.6c0-.2,0-.5,0-.7.1.2,0,.5,0,.7Z"/>
        <path class="cls-9" d="M345.7,40.5c0,0-.1-.2-.1-.3.2,0,.2,0,.1.3Z"/>
        <path class="cls-12" d="M148.1,66.9c.2,0,.4,0,.6,0-.2,0-.4,0-.6,0Z"/>
        <path class="cls-9" d="M92.3,41.3c0,.1,0,.2-.1.3-.2-.2,0-.3.1-.3Z"/>
        <path class="cls-12" d="M109.8,58.6c0-.2,0-.5,0-.7.1.2,0,.5,0,.7Z"/>
        <path class="cls-12" d="M303.2,66.1c.2-.1.5,0,.7-.1-.2.2-.5,0-.7.1Z"/>
        <path class="cls-12" d="M322.5,56.9c0,.2,0,.5,0,.7,0-.2,0-.5,0-.7Z"/>
        <path class="cls-12" d="M210.7,66.1c.2,0,.5,0,.7,0-.2,0-.5,0-.7,0Z"/>
        <path class="cls-12" d="M139.1,56.9c0,.2,0,.5,0,.7,0-.2,0-.5,0-.7Z"/>
        <path class="cls-12" d="M177.3,65.5c0,.2,0,.4,0,.6-.2-.2-.1-.4,0-.6Z"/>
        <path class="cls-12" d="M289,66.8c.2,0,.4,0,.6,0-.2,0-.4,0-.6,0Z"/>
        <path class="cls-12" d="M239.4,36c0-.2,0-.4,0-.6,0,.2,0,.4,0,.6Z"/>
        <path class="cls-12" d="M350.3,43c0,.2,0,.4,0,.6-.1-.2,0-.4,0-.6Z"/>
        <path class="cls-12" d="M153.8,36.6c-.2,0-.4,0-.6,0,.2-.1.4,0,.6,0Z"/>
        <path class="cls-12" d="M330.2,66.8c.2,0,.4,0,.6,0-.2,0-.4,0-.6,0Z"/>
        <path class="cls-12" d="M350.4,44c0,.2,0,.4,0,.6-.1-.2,0-.4,0-.6Z"/>
        <path class="cls-12" d="M256.1,43.9c.2,0,.4,0,.5,0-.2.1-.4,0-.5,0Z"/>
        <path class="cls-12" d="M351.4,56.9c0,.2,0,.4,0,.5-.1-.2,0-.4,0-.5Z"/>
        <path class="cls-12" d="M34,17.8c-.2,0-.4,0-.5,0,.2-.1.4,0,.5,0Z"/>
        <path class="cls-12" d="M231.6,28.1c-.2,0-.4,0-.5,0,.2,0,.4,0,.5,0Z"/>
        <path class="cls-12" d="M239.4,34.4c0-.2,0-.4,0-.5.1.2,0,.4,0,.5Z"/>
        <path class="cls-12" d="M351.3,55.9c0,.2,0,.4,0,.5-.1-.2,0-.4,0-.5Z"/>
        <path class="cls-12" d="M274.6,36.6c-.2,0-.4,0-.5,0,.2,0,.4,0,.5,0Z"/>
        <path class="cls-12" d="M351.2,54.9c0,.2,0,.4,0,.5-.1-.2,0-.4,0-.5Z"/>
        <path class="cls-12" d="M295.9,36.6c-.2,0-.4,0-.5,0,.2-.1.4,0,.5,0Z"/>
        <path class="cls-12" d="M156.1,36.7c-.2,0-.4,0-.5,0,.2,0,.4,0,.5,0Z"/>
        <path class="cls-12" d="M183,36.6c-.2,0-.4,0-.5,0,.2-.1.4,0,.5,0Z"/>
        <path class="cls-12" d="M332.4,66.9c.2,0,.4,0,.5,0-.2.1-.4,0-.5,0Z"/>
        <path class="cls-12" d="M337.2,36.6c-.2,0-.4,0-.5,0,.2-.1.4,0,.5,0Z"/>
        <path class="cls-12" d="M322.4,59.2c0,.2,0,.4,0,.5-.1-.2,0-.4,0-.5Z"/>
        <path class="cls-12" d="M351.1,53c0,.2,0,.3,0,.5-.1-.2,0-.4,0-.5Z"/>
        <path class="cls-9" d="M339.4,36.7c-.2,0-.4,0-.5,0,.2,0,.4,0,.5,0Z"/>
        <path class="cls-12" d="M146.8,66.8c.2,0,.4,0,.5,0-.2,0-.4,0-.5,0Z"/>
        <path class="cls-12" d="M309.1,66.1c.2,0,.3,0,.5,0-.2,0-.3.1-.5,0Z"/>
        <path class="cls-12" d="M350.4,45.1c0,.2,0,.3,0,.5-.1-.2,0-.4,0-.5Z"/>
        <path class="cls-12" d="M350.5,46c0,.2,0,.3,0,.5-.1-.2,0-.3,0-.5Z"/>
        <path class="cls-12" d="M277.8,64.7c0-.2,0-.4,0-.5,0,.2,0,.4,0,.5Z"/>
        <path class="cls-12" d="M15.6,63.5c0,.2,0,.3,0,.5-.1-.2-.1-.3,0-.5Z"/>
        <path class="cls-12" d="M351.9,62c0,.2,0,.3,0,.5-.1-.2,0-.3,0-.5Z"/>
        <path class="cls-12" d="M350.6,46.9c0,.2,0,.3,0,.5-.1-.2,0-.3,0-.5Z"/>
        <path class="cls-12" d="M350.9,50.4c0,.1,0,.3,0,.5-.1-.1,0-.3,0-.5Z"/>
        <path class="cls-9" d="M364.3,56.6c0,0,.1-.2.2-.3,0,.2,0,.2-.2.3Z"/>
        <path class="cls-12" d="M350.7,48.7c0,.1,0,.3,0,.5-.1-.1,0-.3,0-.5Z"/>
        <path class="cls-12" d="M350.6,47.8c0,.1,0,.3,0,.5-.1-.1,0-.3,0-.5Z"/>
        <path class="cls-12" d="M283.5,56.1c0,.2,0,.3,0,.5,0-.2,0-.3,0-.5Z"/>
        <path class="cls-12" d="M49.8,17.8c-.2,0-.3,0-.5,0,.2,0,.3,0,.5,0Z"/>
        <path class="cls-12" d="M66.3,63.1c-.2,0-.3,0-.5,0,.2,0,.3,0,.5,0Z"/>
        <path class="cls-9" d="M367.1,50.8c0,0,.1-.2.2-.3,0,.2,0,.2-.2.3Z"/>
        <path class="cls-12" d="M218.7,28c-.1,0-.3,0-.5,0,.1-.1.3,0,.5,0Z"/>
        <path class="cls-12" d="M271.9,36.6c-.2,0-.3,0-.5,0,.1-.1.3,0,.5,0Z"/>
        <path class="cls-12" d="M350.9,51.3c0,.1,0,.3,0,.5-.1-.1,0-.3,0-.5Z"/>
        <path class="cls-12" d="M67.5,63.9c0-.1,0-.3,0-.4.1.1,0,.3,0,.4Z"/>
        <path class="cls-12" d="M351.8,61.2c0,.1,0,.3,0,.5-.1-.1,0-.3,0-.5Z"/>
        <path class="cls-12" d="M346.4,46.7c0-.2,0-.3,0-.5,0,.2,0,.3,0,.5Z"/>
        <path class="cls-12" d="M163,46.6c0-.2,0-.3,0-.5,0,.2,0,.3,0,.5Z"/>
        <path class="cls-12" d="M351,52.1c0,.1,0,.3,0,.5-.1-.1,0-.3,0-.5Z"/>
        <path class="cls-12" d="M349.2,75.4c.2,0,.3,0,.5,0-.1.1-.3,0-.5,0Z"/>
        <path class="cls-12" d="M297,36.6c-.2,0-.3,0-.5,0,.2,0,.3,0,.5,0Z"/>
        <path class="cls-9" d="M365.4,54.2c0,0,.1-.2.2-.3,0,.2,0,.2-.2.3Z"/>
        <path class="cls-12" d="M184.6,36.7c-.2,0-.3,0-.5,0,.2,0,.3,0,.5,0Z"/>
        <path class="cls-12" d="M263.2,67c.1,0,.3,0,.5,0-.1.1-.3,0-.5,0Z"/>
        <path class="cls-12" d="M139.1,59.2c0,.2,0,.3,0,.5-.1-.1,0-.3,0-.5Z"/>
        <path class="cls-12" d="M350.8,49.5c0,.1,0,.3,0,.5-.1-.1,0-.3,0-.5Z"/>
        <path class="cls-12" d="M281.5,44.1c0-.2,0-.3,0-.5,0,.2,0,.3,0,.5Z"/>
        <path class="cls-12" d="M351.2,53.9c0,.2,0,.3,0,.5-.1-.1,0-.3,0-.5Z"/>
        <path class="cls-12" d="M149.5,66.9c.1,0,.3,0,.5,0-.1.1-.3,0-.5,0Z"/>
        <path class="cls-12" d="M209.9,66c.2,0,.3,0,.5,0-.2,0-.3,0-.5,0Z"/>
        <path class="cls-12" d="M258.1,36.7c-.1,0-.3,0-.5,0,.1-.1.3,0,.5,0Z"/>
        <path class="cls-12" d="M346.4,43.4c0-.1,0-.2,0-.4.1.1,0,.2,0,.4Z"/>
        <path class="cls-12" d="M189.3,43.3c0-.1,0-.3,0-.4,0,.1,0,.3,0,.4Z"/>
        <path class="cls-12" d="M283.5,60.2c0,.1,0,.3,0,.4-.1-.1,0-.3,0-.4Z"/>
        <path class="cls-9" d="M363.9,42c0,.1,0,.2-.1.3,0-.1,0-.2.1-.3Z"/>
        <path class="cls-9" d="M359.7,52.5c0,.1,0,.2-.1.3,0-.1,0-.2.1-.3Z"/>
        <path class="cls-9" d="M371.2,42c0,0,.1-.2.2-.3,0,.1,0,.3-.2.3Z"/>
        <path class="cls-12" d="M189.4,41.4c0-.1,0-.3,0-.4.1.1,0,.3,0,.4Z"/>
        <path class="cls-3" d="M251.5,40.7c0,0,0,.1,0,.1,0,0,0-.2,0-.3,0,0,0,.1,0,.2Z"/>
        <path class="cls-9" d="M372.6,38.9c0-.1,0-.2.1-.3,0,.1,0,.2-.1.3Z"/>
        <path class="cls-12" d="M71.5,37.2c0-.1,0-.2,0-.4.1.1,0,.3,0,.4Z"/>
        <path class="cls-12" d="M163.1,43.6c0-.1,0-.3,0-.4.1.1,0,.3,0,.4Z"/>
        <path class="cls-12" d="M146.2,66.8c.1,0,.3,0,.4,0-.1,0-.3,0-.4,0Z"/>
        <path class="cls-12" d="M329.5,66.8c.1,0,.3,0,.4,0-.1,0-.3,0-.4,0Z"/>
        <path class="cls-9" d="M359.6,52.9c0,.1,0,.2-.1.3,0-.1,0-.2.1-.3Z"/>
        <path class="cls-9" d="M370.4,43.7c0,0,.1-.2.2-.3,0,.1,0,.2-.2.3Z"/>
        <path class="cls-12" d="M152.8,36.7c-.1,0-.3,0-.4,0,.1-.1.3,0,.4,0Z"/>
        <path class="cls-12" d="M351.7,59.8c0,.1,0,.2,0,.4-.1-.1,0-.3,0-.4Z"/>
        <path class="cls-12" d="M274.3,43.7c0,.1,0,.2,0,.4-.1-.1,0-.2,0-.4Z"/>
        <path class="cls-12" d="M255.4,44c.1,0,.3,0,.4,0-.1.1-.3,0-.4,0Z"/>
        <path class="cls-12" d="M271.1,36.6c-.1,0-.2,0-.4,0,.1-.1.3,0,.4,0Z"/>
        <path class="cls-12" d="M261.8,66.9c.1,0,.3,0,.4,0-.1,0-.3,0-.4,0Z"/>
        <path class="cls-12" d="M223.9,66c.1,0,.3,0,.4,0-.1.1-.3,0-.4,0Z"/>
        <path class="cls-9" d="M370,44.6c0,0,.1-.2.2-.3,0,.1,0,.2-.2.3Z"/>
        <path class="cls-12" d="M351.7,60.5c0,.1,0,.3,0,.4-.1-.1,0-.3,0-.4Z"/>
        <path class="cls-12" d="M351.6,59.1c0,.1,0,.3,0,.4-.1-.1,0-.3,0-.4Z"/>
        <path class="cls-12" d="M181.4,45.9c0,.1,0,.3,0,.4,0-.1,0-.3,0-.4Z"/>
        <path class="cls-12" d="M351.5,58.5c0,.1,0,.3,0,.4-.1-.1,0-.3,0-.4Z"/>
        <path class="cls-12" d="M344.4,75.4c.1,0,.3,0,.4,0-.1,0-.3,0-.4,0Z"/>
        <path class="cls-12" d="M351.9,65.3c0,.1,0,.3,0,.4,0-.1,0-.3,0-.4Z"/>
        <path class="cls-12" d="M283.6,55.5c0,.1,0,.3,0,.4,0-.1,0-.3,0-.4Z"/>
        <path class="cls-12" d="M277.8,63.8c0-.1,0-.3,0-.4,0,.1,0,.3,0,.4Z"/>
        <path class="cls-12" d="M139.2,56.1c0,.1,0,.3,0,.4,0-.1,0-.3,0-.4Z"/>
        <path class="cls-12" d="M49.4,78.1c.1,0,.3,0,.4,0-.1.1-.3,0-.4,0Z"/>
        <path class="cls-12" d="M232.3,28.2c-.1,0-.3,0-.4,0,.1,0,.3,0,.4,0Z"/>
        <path class="cls-12" d="M351.4,57.8c0,.1,0,.3,0,.4-.1-.1,0-.3,0-.4Z"/>
        <path class="cls-9" d="M362,46.9c0,.1,0,.2-.1.3,0-.1,0-.2.1-.3Z"/>
        <path class="cls-12" d="M50.6,17.9c-.1,0-.3,0-.4,0,.1,0,.3,0,.4,0Z"/>
        <path class="cls-12" d="M33,17.9c-.1,0-.3,0-.4,0,.1-.1.3,0,.4,0Z"/>
        <path class="cls-9" d="M361.8,47.2c0,.1,0,.2-.1.3,0-.1,0-.2.1-.3Z"/>
        <path class="cls-9" d="M368.4,48c0,0,.1-.2.2-.3,0,.1,0,.2-.2.3Z"/>
        <path class="cls-12" d="M277.9,63.1c0-.1,0-.3,0-.4,0,.1,0,.3,0,.4Z"/>
        <path class="cls-12" d="M322.6,56.1c0,.1,0,.3,0,.4,0-.1,0-.3,0-.4Z"/>
        <path class="cls-9" d="M59.7,41.8c.5.5,1.1.9,1.7,1.2,1,.5,1.5,1.3,1.5,2.3.1,1.9.1,3.8,0,5.7-.2,1.9-1.6,3-3.2,3.3-1.4.3-2.9.4-4.3.4-3.5.1-7,.2-10.5,0-.6,0-1.2,0-1.8-.1.2-.7.3-1.3.4-2,.2-2,.3-3.9.3-5.9,0-4.4-.2-8.7-.4-13.1,0-1-.2-2-.3-3,0-.2,0-.3.3-.3,4.2,0,8.4-.1,12.6,0,.8,0,1.7,0,2.5.1,1.6.2,2.5,1.2,3,2.7.2.6.3,1.3.3,1.9,0,1.4.1,2.8,0,4.2-.1,1.1-.7,1.9-1.7,2.4,0,0-.2.1-.3.2Z"/>
        <path class="cls-9" d="M40.2,54.7c-2,0-3.9,0-5.9,0-.2,0-.3,0-.3-.2,0-.2-.2-.4-.2-.6-.5-2-1.4-3.8-2-5.8,0-.2-.2-.2-.4-.2-1.9,0-3.8,0-5.6,0-.3,0-.4,0-.4-.4,0-.6,0-1.2,0-1.8,0-.2,0-.3.3-.3,1.5,0,3,0,4.4,0,.5,0,.5,0,.4-.5-.5-1.8-1.2-3.6-1.9-5.3-.5-1.3-1-2.6-1.6-3.8,0-.2-.2-.3-.3-.5-.1.3-.3.6-.4.8-2.2,5.7-4.3,11.4-5.9,17.2-.1.4-.2.8-.2,1.2,0,.2,0,.2-.2.2-1.1,0-2.2,0-3.4,0,.4-.7.7-1.3.9-2,1.6-4,3.1-8.1,4.5-12.2,1.2-3.3,2.3-6.7,3.4-10,0-.2.2-.3.4-.3,1.5,0,3,0,4.4,0,.3,0,.4,0,.5.3,1.7,4.1,3.2,8.3,4.8,12.5,1.4,3.6,2.7,7.1,4.3,10.6.2.3.3.7.5,1.1Z"/>
        <path class="cls-9" d="M39.1,43.3c-.6,0-1.1,0-1.7,0-.2,0-.2,0-.2-.2,0-.7,0-1.3,0-2,0-.2,0-.2.2-.2,1.1,0,2.2,0,3.3,0,.2,0,.3,0,.2.2,0,.7,0,1.3,0,2,0,.2,0,.2-.2.2-.6,0-1.1,0-1.7,0Z"/>
        <path class="cls-12" d="M11.7,37.3c0-.1,0-.3,0-.4,0,.1,0,.3,0,.4Z"/>
        <path class="cls-9" d="M27.5,69.3c0-.7,0-1.5,0-2.3,0-.5.2-.6.7-.7.7,0,1.5,0,2.2,0,.5,0,.7.2.7.7.1,1.5.1,3.1,0,4.6,0,.5-.2.7-.8.7-.2,0-.3,0-.2.3,0,.3.2.7.3,1,0,.1,0,.2-.2.2-.3,0-.6,0-.6-.4,0-.4,0-.8-.3-1-.2-.2-.7,0-1.1,0-.6,0-.8-.1-.9-.8,0-.7,0-1.5,0-2.3Z"/>
        <path class="cls-9" d="M32.8,69c0-.8,0-1.5,0-2.3,0-.3,0-.4.3-.3.2,0,.4,0,.4.3,0,1.4,0,2.8,0,4.2,0,.3,0,.4.4.4.4,0,.9,0,1.3,0,.3,0,.4,0,.3-.4,0-1.4,0-2.8,0-4.2,0-.3,0-.4.4-.3.2,0,.4,0,.4.3,0,1.4,0,2.8,0,4.2,0,.3,0,.6,0,.9,0,.4-.3.6-.7.6-.7,0-1.3,0-2,0-.4,0-.6-.2-.7-.5-.1-.6,0-1.2,0-1.9,0-.3,0-.6,0-.9Z"/>
        <path class="cls-9" d="M41.4,72.3q-.8,0-1-.7t-.8-.6c-.3,0-.7,0-1,0-.2,0-.3,0-.4.3,0,.2-.1.4-.2.6,0,.3-.2.5-.5.4,0,0-.2,0-.3,0,.4-1.3.8-2.6,1.1-3.9.2-.6.4-1.2.5-1.8,0-.3.2-.2.4-.2.2,0,.4,0,.4.2.5,1.9,1.1,3.8,1.7,5.7Z"/>
        <path class="cls-9" d="M49.5,69.9c0-.7,0-1.4,0-2.2,0-.2,0-.3-.3-.3-.3,0-.6,0-.9,0-.2,0-.2,0-.2-.2,0-.9,0-.9.8-.9.8,0,1.7,0,2.5,0,.2,0,.3,0,.3.3,0,.8,0,.8-.7.8s-.7,0-.7.7c0,1.3,0,2.6,0,3.9,0,.3-.2.3-.4.3-.2,0-.4,0-.4-.3,0-.7,0-1.4,0-2.2Z"/>
        <path class="cls-9" d="M51.8,66.4s0,0,0,0q.8,0,1.2.7c.2.5.5,1,.7,1.6.3-.6.5-1.2.8-1.7.3-.6.3-.7,1.1-.5-.5,1-.9,1.9-1.4,2.9-.1.2-.2.5-.2.7,0,.7,0,1.3,0,2,0,.4-.2.3-.4.3-.2,0-.4,0-.3-.3,0-.8.2-1.6,0-2.4-.2-.7-.7-1.4-1-2.1-.2-.4-.3-.7-.5-1.1Z"/>
        <path class="cls-9" d="M42.4,69.3c0-.9,0-1.8,0-2.7,0-.3.1-.3.3-.3.2,0,.4,0,.4.3,0,1.4,0,2.8,0,4.2,0,.3,0,.4.4.4.6,0,1.1,0,1.7,0,.2,0,.3,0,.3.3,0,.9,0,.9-.8.9s-1.2,0-1.8,0c-.3,0-.4,0-.4-.4,0-.9,0-1.8,0-2.6Z"/>
        <path class="cls-12" d="M47.2,69.3c0,.9,0,1.8,0,2.7,0,.3-.1.3-.3.3-.2,0-.4.1-.4-.3,0-1.8,0-3.6,0-5.4,0-.3.2-.3.4-.3.2,0,.4,0,.3.3,0,.9,0,1.8,0,2.7Z"/>
        <path class="cls-9" d="M220.2,60.4c-.5,0-.9,0-1.4,0-.4,0-.4,0-.4-.5.3-1.7.6-3.4,1-5.1.4-1.7.7-3.5,1.3-5.2.1-.4.3-.5.7-.5,1.6,0,3.1-.2,4.6.3,1.3.4,2.3,1,2.7,2.4.3,1,.2,1.9,0,2.9-.3,1.2-.7,2.3-1.4,3.3-1,1.3-2.3,2-3.9,2.3-1,.2-2.1.2-3.1.2Z"/>
        <path class="cls-9" d="M225.7,33.7c1.1,0,2.2,0,3.2.3,1.9.4,2.7,1.4,2.5,3.3-.1,1.4-.6,2.8-1.4,4-1,1.3-2.4,1.9-3.9,2.2-1.3.2-2.6.2-4,0-.3,0-.2-.2-.2-.3.4-1.8.7-3.6,1.1-5.4.3-1.2.5-2.5.8-3.7,0-.3.1-.4.4-.4.5,0,1,0,1.4,0Z"/>
        <path class="cls-9" d="M102,35.4c0,.1,0,.3,0,.4,0,5.2,0,10.4,0,15.6,0,.3,0,.4-.4.4-2.2,0-4.3,0-6.5,0-.3,0-.3,0-.2-.3.7-2,1.5-3.8,2.3-5.7,1.3-3,2.6-5.9,3.8-8.9.2-.5.5-1,.9-1.4Z"/>
        <path class="cls-9" d="M300.3,46.2c0,2-.4,4-.8,5.9-.4,1.8-.8,3.7-1.6,5.4-.3.8-.8,1.6-1.3,2.3-.8,1-1.9,1.4-3.2,1.4-.9,0-1.5-.4-1.9-1.2-.3-.6-.4-1.2-.4-1.8-.1-1.7.2-3.4.5-5,.4-2,.7-4.1,1.4-6,.4-1.2.9-2.2,1.7-3.2.8-.9,1.8-1.5,3-1.6,1-.2,1.8.3,2.2,1.3.3.8.4,1.7.4,2.5Z"/>
        <path class="cls-9" d="M272.7,52.1c-.2,1.6-.5,3.2-.9,4.7-.2.7-.4,1.5-.8,2.2-.1.2-.2.5-.4.6-1.1,1.1-2.4,2-4.1,2.1-1.3.2-2.4-.7-2.5-2.1-.1-1.9.7-3.6,1.9-4.9.5-.6,1.3-.8,2-1.1,1.5-.6,3.1-1.1,4.7-1.6Z"/>
        <path class="cls-9" d="M335,48.5c-1,0-2,0-3,0-.2,0-.3,0-.3-.3.2-1.4.6-2.7,1.3-4,.7-1.2,1.7-2.1,3.2-2.4.4,0,.9,0,1.3,0,1,.2,1.5.8,1.8,1.7.2.9.2,1.8.1,2.7,0,.5-.1,1-.2,1.5,0,.4-.3.7-.7.8-.7.1-1.4,0-2.2,0-.4,0-.9,0-1.3,0h0Z"/>
        <path class="cls-9" d="M151.5,48.5c-1,0-2,0-3,0-.1,0-.3,0-.2-.2.2-1.7.6-3.3,1.7-4.7.9-1.1,2-1.8,3.5-1.9,1.1,0,1.9.5,2.2,1.6.4,1.4.4,2.8,0,4.2-.1.5-.4.9-1,.9-1.1.1-2.2,0-3.3,0Z"/>
        <path class="cls-13" d="M48.6,42.6c0-3.1,0-6.2,0-9.2,0-.3,0-.4.4-.4,1.7,0,3.3-.1,5,0,.3,0,.6,0,.8,0,.9.1,1.3.6,1.5,1.5.1.7.1,1.4,0,2.1,0,1.1,0,2.2-.2,3.3-.2.9-.5,1.2-1.5,1.3-1,0-2,0-3.1,0-.7,0-.7,0-.7.7,0,.4,0,.8,0,1.3,0,.2,0,.3.3.3,1.3.1,2.5,0,3.8,0,.3,0,.6,0,.9,0,.7,0,1.2.5,1.5,1.2.2.6.3,1.2.3,1.9,0,1.2,0,2.4,0,3.6-.2,1.3-.8,1.9-2.1,2-.8.1-1.7,0-2.5,0-1.4,0-2.7,0-4.1,0-.3,0-.4-.1-.4-.4,0-3.1,0-6.2,0-9.3h0Z"/>
        <path class="cls-13" d="M29.5,69.5q-.5.4-.4,1c.2.7.2.7-.6.7-.3,0-.3,0-.3-.3,0-1.1,0-2.1,0-3.2,0-.2,0-.3.3-.3.6,0,1.2,0,1.8,0,.2,0,.3,0,.3.3,0,1.1,0,2.2,0,3.2,0,.1,0,.3-.2.3-.2,0-.5.2-.5-.2-.1-.5-.2-1-.4-1.5Z"/>
        <path class="cls-4" d="M39.2,67.5c.2.9.4,1.6.7,2.4h-1.3c.2-.8.4-1.5.7-2.4Z"/>
      </g>
    </g>
  </g>
</svg>