<?xml version="1.0" encoding="UTF-8"?>
<svg xmlns="http://www.w3.org/2000/svg" version="1.1" viewBox="0 0 197.9 55.5">
  <defs>
    <style>
      .cls-1 {
        fill: #fe5e01;
      }

      .cls-2, .cls-3 {
        fill: #231f20;
      }

      .cls-3 {
        fill-rule: evenodd;
      }

      .cls-4 {
        fill: #ed1c24;
      }
    </style>
  </defs>
  <!-- Generator: Adobe Illustrator 28.6.0, SVG Export Plug-In . SVG Version: 1.2.0 Build 709)  -->
  <g>
    <g id="Capa_1">
      <g id="layer1">
        <g id="g22265">
          <path id="path11811" class="cls-4" d="M-313.5,583.1h62.6l-31.2,63-31.3-63"/>
          <path id="path11815" class="cls-4" d="M-329.1,552.2h93.6l30.9-61.7h-155.6l31.1,61.7"/>
          <path id="path11819" class="cls-3" d="M-346.9,564.9c0-3.7-1.9-6.7-6.3-6.7s-7,5-7,9.4,1.5,9.4,7,9.4,6.3-2.7,6.3-6.6l-3.9-.4c-.1,2.3-.5,3.6-2.2,3.6s-2.3-2.3-2.3-6,.3-6,2.2-6,1.9,2.1,1.9,3.3h4.2"/>
          <path id="path11823" class="cls-3" d="M-340.4,562.4h0l1.3,7.3h-2.9l1.5-7.3ZM-347.2,576.6h3.8l.8-3.6h4.2l.7,3.6h4.6l-3.8-18h-6l-4.2,18"/>
          <path id="path11827" class="cls-3" d="M-327.7,561.9h.8c1.5,0,3,.2,3,2s-1.1,2-2.8,2h-.9v-4ZM-332.2,576.6h4.6v-7.8h1.5l2.3,7.8h4.5l-3-8.8c1.8-.7,3-2.3,3-4.1,0-3.5-2.6-5.1-6-5.1h-6.8v18"/>
          <path id="path11831" class="cls-3" d="M-304.2,567.6c0-3.5,0-6,2.1-6s2.1,2.5,2.1,6,0,6-2.1,6-2.1-2.5-2.1-6ZM-309.1,567.6c0,4.6,1.6,9.4,7,9.4s7-4.8,7-9.4-1.6-9.4-7-9.4-7,4.8-7,9.4"/>
          <path id="path11835" class="cls-3" d="M-267.2,562.4h0l1.3,7.3h-2.9l1.5-7.3ZM-273.9,576.6h3.8l.8-3.6h4.2l.7,3.6h4.6l-3.8-18h-6l-4.2,18"/>
          <path id="path11839" class="cls-3" d="M-257.1,576.6h4.6l4.9-18h-3.8l-3,12.5h0l-2.1-12.5h-4.6l4,18"/>
          <path id="path11843" class="cls-3" d="M-243,562.4h0l1.3,7.3h-2.9l1.5-7.3ZM-249.7,576.6h3.8l.8-3.6h4.2l.7,3.6h4.6l-3.8-18h-6l-4.2,18"/>
          <path id="path11847" class="cls-2" d="M-318.3,576.6h9.4v-3.2h-4.8v-14.8h-4.6v18"/>
          <path id="path11851" class="cls-2" d="M-274.2,567.6h-6.2v3h2.3c0,1.1-.7,2.9-2.2,2.9s-2.3-2.3-2.3-6,.3-6,2.2-6,1.8,1.3,2,3.4h4.4c0-4-2-6.8-6.5-6.8s-7,5-7,9.8,1.9,8.9,6.6,8.9,2.9-.6,3.9-1.7l.9,1.4h1.6l.3-2.8v-6.2"/>
          <path id="path11855" class="cls-2" d="M-223.7,573.2h-6.6l6.6-12.4v-2.3h-11.4v3.3h5.8l-5.9,11v3.7s11.4,0,11.4,0v-3.3"/>
          <path id="path11859" class="cls-2" d="M-210.7,573.2h-6.6s6.6-12.4,6.6-12.4v-2.3h-11.4v3.3h5.8l-5.9,11v3.7s11.4,0,11.4,0v-3.3"/>
          <path id="path11863" class="cls-2" d="M-209.2,576.6h4.6v-18h-4.6v18Z"/>
        </g>
      </g>
      <g>
        <path class="cls-1" d="M17.6,31.4l1.4-9c.4-2.4.7-4.9,1-7.3h.1c.3,2.4.5,4.9.8,7.3l1.1,9h-4.4ZM34.8,44.6L26.6,5.9h-12.8L4.6,44.6h10.8l.9-5h7l.8,5h10.8Z"/>
        <path class="cls-1" d="M46.3,18.3v13.8c0,3.2.2,4.7,1.9,4.7s2-1.4,2-4.7v-13.8h10.1v15.2c0,8-4.7,11.7-12,11.7s-12-4.3-12-11.7v-15.2h10Z"/>
        <path class="cls-1" d="M126.8,44.6v-13.9c0-3.2-.2-4.7-1.9-4.7s-2,1.4-2,4.7v13.9h-10.1v-15.2c0-8,4.7-11.7,12-11.7s12,4.3,12,11.7v15.2h-10.1Z"/>
        <path class="cls-1" d="M68.2,44.6v-18.2h-3.9v-8.1h3.9v-7.1h10v7.1h3.9v8.1h-3.9v18.2h-10Z"/>
        <path class="cls-1" d="M96.8,25.1c3.5,0,4,3.5,4,6s-.5,6-4,6-4.1-3.5-4.1-6,.5-6,4.1-6M96.8,17c-8.7,0-12.6,6.5-12.6,14.1s3.9,14.1,12.6,14.1,12.6-6.5,12.6-14.1-3.9-14.1-12.6-14.1"/>
        <rect class="cls-1" x="140.6" y="18.3" width="10.1" height="26.3"/>
        <path class="cls-1" d="M140.2,10.2c0-3,2.5-5.4,5.5-5.4,3,0,5.4,2.5,5.4,5.5,0,3-2.4,5.4-5.4,5.4-3,0-5.4-2.4-5.5-5.4,0,0,0,0,0,0"/>
        <path class="cls-1" d="M170.7,44.6c-7.4,1.3-17.2-1.2-17.2-13.6s10.7-15.3,17.2-13.6v9c-3-.9-7.1-.5-7.1,4.4s3.3,4.9,7.1,4.5v9.3Z"/>
        <path class="cls-1" d="M174.1,35.4c3.3,1.4,7.9,1.7,7.9-.4s-7.9-2.8-7.9-10.5,10.3-9.6,19.1-6.9v7.3c-3.6-1.1-7.6-.9-7.6.7,0,3.7,7.6,2.8,7.6,10.3s-9.3,11.5-19.2,8.1v-8.6Z"/>
      </g>
    </g>
  </g>
</svg>