<?xml version="1.0" encoding="UTF-8"?>
<svg xmlns="http://www.w3.org/2000/svg" version="1.1" viewBox="0 0 185 170.4">
  <defs>
    <style>
      .cls-1, .cls-2 {
        fill: #231f20;
      }

      .cls-2 {
        fill-rule: evenodd;
      }

      .cls-3 {
        fill: #ed1c24;
      }
    </style>
  </defs>
  <!-- Generator: Adobe Illustrator 28.6.0, SVG Export Plug-In . SVG Version: 1.2.0 Build 709)  -->
  <g>
    <g id="Capa_1">
      <g id="layer1">
        <g id="g22265">
          <path id="path11811" class="cls-3" d="M61.4,102.5h62.6l-31.2,63-31.3-63"/>
          <path id="path11815" class="cls-3" d="M45.8,71.6h93.6l30.9-61.7H14.7l31.1,61.7"/>
          <path id="path11819" class="cls-2" d="M28,84.3c0-3.7-1.9-6.7-6.3-6.7s-7,5-7,9.4,1.5,9.4,7,9.4,6.3-2.7,6.3-6.6l-3.9-.4c-.1,2.3-.5,3.6-2.2,3.6s-2.3-2.3-2.3-6,.3-6,2.2-6,1.9,2.1,1.9,3.3h4.2"/>
          <path id="path11823" class="cls-2" d="M34.4,81.9h0l1.3,7.3h-2.9l1.5-7.3ZM27.7,96h3.8l.8-3.6h4.2l.7,3.6h4.6l-3.8-18h-6l-4.2,18"/>
          <path id="path11827" class="cls-2" d="M47.2,81.3h.8c1.5,0,3,.2,3,2s-1.1,2-2.8,2h-.9v-4ZM42.7,96h4.6v-7.8h1.5l2.3,7.8h4.5l-3-8.8c1.8-.7,3-2.3,3-4.1,0-3.5-2.6-5.1-6-5.1h-6.8v18"/>
          <path id="path11831" class="cls-2" d="M70.7,87c0-3.5,0-6,2.1-6s2.1,2.5,2.1,6,0,6-2.1,6-2.1-2.5-2.1-6ZM65.8,87c0,4.6,1.6,9.4,7,9.4s7-4.8,7-9.4-1.6-9.4-7-9.4-7,4.8-7,9.4"/>
          <path id="path11835" class="cls-2" d="M107.7,81.9h0l1.3,7.3h-2.9l1.5-7.3ZM101,96h3.8l.8-3.6h4.2l.7,3.6h4.6l-3.8-18h-6l-4.2,18"/>
          <path id="path11839" class="cls-2" d="M117.8,96h4.6l4.9-18h-3.8l-3,12.5h0l-2.1-12.5h-4.6l4,18"/>
          <path id="path11843" class="cls-2" d="M131.9,81.9h0l1.3,7.3h-2.9l1.5-7.3ZM125.2,96h3.8l.8-3.6h4.2l.7,3.6h4.6l-3.8-18h-6l-4.2,18"/>
          <path id="path11847" class="cls-1" d="M56.6,96h9.4v-3.2h-4.8v-14.8h-4.6v18"/>
          <path id="path11851" class="cls-1" d="M100.7,87.1h-6.2v3h2.3c0,1.1-.7,2.9-2.2,2.9s-2.3-2.3-2.3-6,.3-6,2.2-6,1.8,1.3,2,3.4h4.4c0-4-2-6.8-6.5-6.8s-7,5-7,9.8,1.9,8.9,6.6,8.9,2.9-.6,3.9-1.7l.9,1.4h1.6l.3-2.8v-6.2"/>
          <path id="path11855" class="cls-1" d="M151.2,92.7h-6.6l6.6-12.4v-2.3h-11.4v3.3h5.8l-5.9,11v3.7s11.4,0,11.4,0v-3.3"/>
          <path id="path11859" class="cls-1" d="M164.1,92.7h-6.6s6.6-12.4,6.6-12.4v-2.3h-11.4v3.3h5.8l-5.9,11v3.7s11.4,0,11.4,0v-3.3"/>
          <path id="path11863" class="cls-1" d="M165.7,96h4.6v-18h-4.6v18Z"/>
        </g>
      </g>
    </g>
  </g>
</svg>