<?xml version="1.0" encoding="UTF-8"?>
<svg xmlns="http://www.w3.org/2000/svg" xmlns:xlink="http://www.w3.org/1999/xlink" version="1.1" viewBox="0 0 185 92">
  <defs>
    <style>
      .cls-1 {
        fill: #ed1c24;
      }

      .cls-2 {
        fill: #fff;
      }

      .cls-3 {
        fill: url(#Degradado_sin_nombre_2-2);
      }

      .cls-4 {
        fill: url(#Degradado_sin_nombre_2);
      }
    </style>
    <radialGradient id="Degradado_sin_nombre_2" data-name="Degradado sin nombre 2" cx="-2471" cy="11642.7" fx="-2498.7" fy="11673.3" r="236.9" gradientTransform="translate(343 2054.2) rotate(94.7) scale(.8 0) skewX(-.1)" gradientUnits="userSpaceOnUse">
      <stop offset="0" stop-color="#871518"/>
      <stop offset=".1" stop-color="#881919" stop-opacity=".9"/>
      <stop offset=".3" stop-color="#8c241e" stop-opacity=".7"/>
      <stop offset=".4" stop-color="#933427" stop-opacity=".6"/>
      <stop offset=".5" stop-color="#9e4938" stop-opacity=".5"/>
      <stop offset=".6" stop-color="#ab6250" stop-opacity=".4"/>
      <stop offset=".7" stop-color="#be8371" stop-opacity=".3"/>
      <stop offset=".9" stop-color="#d5b0a2" stop-opacity=".1"/>
      <stop offset="1" stop-color="#f5ece8" stop-opacity="0"/>
      <stop offset="1" stop-color="#fff" stop-opacity="0"/>
    </radialGradient>
    <radialGradient id="Degradado_sin_nombre_2-2" data-name="Degradado sin nombre 2" cx="-2169.3" cy="-6511.1" fx="-2197" fy="-6480.5" r="236.9" gradientTransform="translate(339.9 1736.5) rotate(85.3) scale(.8 0) skewX(-.1)" xlink:href="#Degradado_sin_nombre_2"/>
  </defs>
  <!-- Generator: Adobe Illustrator 28.6.0, SVG Export Plug-In . SVG Version: 1.2.0 Build 709)  -->
  <g>
    <g id="Capa_1">
      <rect class="cls-1" x="8.6" y="8.5" width="167.8" height="73.2"/>
      <path class="cls-2" d="M29.6,31.5c10.5-3.9,22.3-6.5,34.4-4.7l1.2-2.3c2.5-.4,5-.7,7.5-1l-3.4,5.1c3.3,1.4,6,4.9,6.3,8.5,0,4.9-2.2,9-4.7,12.8l3.7-.4c2.5-4,9.3-8.8,12.2-5.2l1-1.4s4.5-.7,4.6-.7c-4,7.4-6.2,9.5-5.6,10.2.6.8,7.9-5.7,10.7-11l4.3-.5-2.5,4.3c4.4-3.6,6-5.9,8.4-4.9,3.4,1.4-4,9.3-3.2,9.9.7.4,6.7-4,9.6-8.4l-4.1.6,1.4-2.7,4-.5c4.4-8.1,15.9-23.6,19.5-21.3,3.3,2.1-4.6,12.4-14.9,19.8l-.6,1.2,9-1c.2,0,.3.4,0,.6-2.9,2.5-8.6,8.4-5.6,10.3,2.6.9,6.7-5.1,7.1-6.4-2.3-.7-.5-7.2,2.8-6.4,2.2.8.6,4,0,5.2,4.3-.5,8.1-4.9,8.1-4.9,0-3.4,2.2-7.1,4.7-6.2,1.6.9.3,3.3-2.4,6.2-.3.3-.2,1.7-.2,3.3,2.9-1,6.2-2.4,8.9-3.7,0-3.3,1.7-7.3,4.5-6.5,2,.6,0,4.7-2.5,6.8,0,4.4.7,7.4-.4,9.7-1.3,2.7-5.8,4.9-8.4,3.4-2.8-1.6-.3-5.2,1.4-6.5,1.5-1.2,5.3-3,5.3-3,0,0,.2-1.5.1-2.2-1.5.9-8.7,3.6-8.7,3.6-.3,2.6-.3,3.7-1.5,6.1-1.5,3-6.7,4.2-8.4,2.5-1.2-1.2-.9-4,1.6-5.9,1.9-1.5,5.8-3.1,5.8-3.1,0,0,.3-1.5.2-2.1-2.5,2.2-5.4,4.4-9.1,4.5h0c-2.2,4.5-8.2,10.7-12.5,7.9-4.1-2.7,2.5-9.7,3.2-10.2-1.4,0-4.1.7-4.1.7l-7.3,13.5h0s24.8-2.9,47.4-2.9l-2.7,2.5c1.3.9,2.6,1.8,4,2.6,0,0-23.5-1-50.6,1.2l-4,7.4-4.9.3,4.3-7.4s-12.3.4-39.4,4c.3-.6.4-.7.8-1.4,24-4.8,40.3-6,40.3-6,0,0,3.8-6.5,3.6-6.4-2.4,2-7.6,6.2-9.8,4.1-1.6-2,4-8.3,3.3-8.8-.5-.4-7.1,6.3-9.5,10-1.3,0-3.8.4-3.8.4l1.9-3.7c-2.2,1.7-4.4,3.5-6.8,4.4-.7.3-2.2.3-2.9-1.5,0,0-4.9,4.4-8.1,2.7-1.8-.9-.9-4.2-.6-5l-3.9.4c-16.8,19.5-38.7,21.7-41.3,17.4-2.8-4.6,7.1-10.7,20.8-15,0,0,12.1-21.8,11.9-22-16.7-2.5-37.4,10.3-37.4,10.3l6.1-11.2ZM35.9,66.5c2,2.5,18.4-.1,29.5-13.9-7.7,1.2-12.2,2.8-13.9,3.4-3.6,5.9-5.1,8.1-6.5,7.8-1.7-.2,1-3.4,2.4-6.5-6,2-13.3,6.8-11.5,9.1ZM53.7,52.9c4.3-1.2,11-2.2,13.3-2.5,1.9-3.1,8.2-13.6-.8-16.9l-12.5,19.4ZM79.6,48.5c-1.3,1.7-2.7,4.6-1.6,5.4,1.1.8,4-1.7,5-3,1.7-2.2,3.1-5.2,2-5.8-1.6-.9-4.5,2.1-5.4,3.3ZM121.9,34.1c3.3-2,11.6-10.3,9.6-12.3-2.2-.9-7.9,8.3-9.6,12.3ZM136.8,44c-1.4,1-2.1,2.2-1.4,2.8.6.5,2.4-.5,3.1-1.5,1.2-1.6,1.5-3.1,1.5-3.1,0,0-1.1.3-3.2,1.8ZM147.7,43.4c-.5.4-2.2,2-1.5,2.8.6.7,2.6-.5,3.4-1.4,1-1.2,1.5-3.2,1.5-3.2,0,0-2.1.6-3.4,1.8Z"/>
      <rect class="cls-4" x="176.4" y="8.5" width="13.4" height="73.2"/>
      <rect class="cls-3" x="-4.8" y="8.5" width="13.4" height="73.2"/>
    </g>
  </g>
</svg>