<?xml version="1.0" encoding="UTF-8"?>
<svg xmlns="http://www.w3.org/2000/svg" version="1.1" viewBox="0 0 319.4 99.4">
  <defs>
    <style>
      .cls-1 {
        fill: #007bc1;
      }
    </style>
  </defs>
  <!-- Generator: Adobe Illustrator 28.6.0, SVG Export Plug-In . SVG Version: 1.2.0 Build 709)  -->
  <g>
    <g id="Capa_1">
      <path class="cls-1" d="M57.7,88.7l6.8-21.8h-25.2v-6.6h27.2l6.5-21.1h-33.6v-6.2h35.5l6.8-22.3H12.1v78h45.6M280.6,59.7l-14.7-49h-37.6v78h23.5v-48.9h.2l14.5,48.9h38V10.7h-23.7v49h-.2ZM204.6,68.7c8.7,0,15.5-6.9,15.5-15.7s-6.4-16.5-15.1-16.5-15.5,7.7-15.5,16.5,6.5,15.7,15.1,15.7ZM192.2,10.7h-72.3v22.3h22.8v55.7h36.7c-2.3-1.3-17.9-13.4-17.9-36s11.7-37.2,30.6-41.9ZM93.8,68l-6.4,20.7h37.6l-6-20.7h-25.2ZM106.7,25.7l7.2,24.8h-14.7l7.5-24.8Z"/>
    </g>
  </g>
</svg>