<?xml version="1.0" encoding="UTF-8"?>
<svg xmlns="http://www.w3.org/2000/svg" version="1.1" viewBox="0 0 236.7 54.1">
  <defs>
    <style>
      .cls-1 {
        fill: #005bac;
      }
    </style>
  </defs>
  <!-- Generator: Adobe Illustrator 28.6.0, SVG Export Plug-In . SVG Version: 1.2.0 Build 709)  -->
  <g>
    <g id="Capa_1">
      <path id="_パス_882" data-name="パス_882" d="M80.3,18.1h14v3.1h-10.5v5.3h9.2v2.9h-9.2v9h-3.6v-20.3"/>
      <path id="_パス_883" data-name="パス_883" d="M108.4,38.4h-3.2v-2.1h0c-.9,1.5-2.5,2.4-4.2,2.5-3.8,0-5.5-1.9-5.5-5.8v-9.3h3.2v9c0,2.6,1.1,3.5,2.8,3.5,2.7,0,3.6-1.7,3.6-4v-8.5h3.2v14.7"/>
      <path id="_パス_884" data-name="パス_884" d="M111.8,23.7h3.2v16c0,2.9-1.2,4.6-4.2,4.6-.5,0-1,0-1.5-.1v-2.6c.4,0,.7,0,1.1.1,1.2,0,1.3-.7,1.3-2.2v-15.9ZM115.1,18.1v3.1h-3.2v-3.1h3.2Z"/>
      <path id="_パス_885" data-name="パス_885" d="M122,23.7v14.7h-3.2v-14.7h3.2ZM122,18.1v3.1h-3.2v-3.1h3.2Z"/>
      <path id="_パス_886" data-name="パス_886" d="M133.3,18.1h14.6v3.1h-11.1v5.3h10.2v2.9h-10.2v6h11.3v3.1h-14.8v-20.3"/>
      <rect id="_長方形_2592" data-name="長方形_2592" x="150.4" y="18.1" width="3.2" height="20.3"/>
      <path id="_パス_887" data-name="パス_887" d="M158.7,31.9c0,2.3,1.3,4.4,4,4.4,1.6.2,3.1-.9,3.6-2.4h3.1c-.7,3.1-3.5,5.2-6.7,5-4.6,0-7.2-3.2-7.2-7.7s2.7-7.8,7.1-7.8,7.5,4.2,6.9,8.6h-10.8ZM166.3,29.7c0-2.1-1.6-3.8-3.7-3.9-2.1,0-3.8,1.6-3.9,3.7,0,0,0,.2,0,.2h7.6"/>
      <path id="_パス_888" data-name="パス_888" d="M181.7,28.6c-.2-1.7-1.7-2.9-3.4-2.8-1.7,0-4,.9-4,5.3s1.1,5,3.9,5,3.2-1.3,3.5-3.4h3.2c-.6,3.8-3,5.9-6.7,5.9s-7.1-3.3-7.1-7.6,2.4-7.9,7.3-7.9,6.3,1.7,6.6,5.3h-3.2"/>
      <path id="_パス_889" data-name="パス_889" d="M185.8,23.7h2.4v-4.4h3.2v4.4h2.9v2.4h-2.9v7.9c0,1.3.1,2,1.6,2,.5,0,.9,0,1.4-.1v2.5c-.7,0-1.4.2-2.1.2-3.4,0-4-1.3-4.1-3.8v-8.7h-2.4v-2.4"/>
      <path id="_パス_890" data-name="パス_890" d="M209.8,23.7v14.7h-3.2v-14.7h3.2ZM209.8,18.1v3.1h-3.2v-3.1h3.2Z"/>
      <path id="_パス_891" data-name="パス_891" d="M222.2,28.6c-.2-1.7-1.7-2.9-3.4-2.8-1.7,0-4,.9-4,5.3s1.1,5,3.9,5,3.2-1.3,3.5-3.4h3.2c-.6,3.8-3,5.9-6.7,5.9s-7.1-3.3-7.1-7.6,2.4-7.9,7.3-7.9,6.3,1.7,6.6,5.3h-3.2"/>
      <path id="_パス_892" data-name="パス_892" d="M204.9,23.3c-.3,0-.6,0-1,0-2,0-3.7,1.4-4.3,3.2h0v-2.8h-3v14.7h3.2v-7c0-3.2,1.8-5,4-5,.4,0,.8,0,1.1.1v-3.1"/>
      <path id="_パス_893" data-name="パス_893" class="cls-1" d="M65.1,13.7c-3.4-2.7-7.8-3.8-12-3-4.1.8-7.8,2.8-10.7,5.8l1.1-5.3h-21.2c-2.7,0-5.1,2-5.7,4.6h0c-.9,4.1-6.2,29.2-6.2,29.2h10.4l2.8-12.9h12.8c.2,4,2,7.7,5.1,10.2,3.4,2.7,7.8,3.8,12,3,3.5-.7,6.8-2.3,9.5-4.7,2.7-2.4,4.8-5.4,6-8.8v-.2c0,0-2.3,0-2.3,0h0c-2.4,6-7.7,10.5-13.5,11.5h0c-3.6.7-7.3-.2-10.1-2.5-2.8-2.5-4.4-6.1-4.3-9.9,0-8.4,6.7-16.5,14.8-17.9,3.6-.7,7.3.2,10.1,2.5,2.6,2.2,4.1,5.4,4.3,8.8h-24.5l-.5,2.4h27.3v-.2c0-.6,0-.9,0-1.2.1-4.4-1.8-8.7-5.1-11.6ZM25.9,21.4h0c.2-.8.9-1.4,1.7-1.4h12.1c-.9,1.3-1.6,2.7-2.1,4.2h-12.3l.6-2.8Z"/>
    </g>
  </g>
</svg>