<?xml version="1.0" encoding="UTF-8"?>
<svg xmlns="http://www.w3.org/2000/svg" version="1.1" viewBox="0 0 137.2 133">
  <defs>
    <style>
      .cls-1 {
        fill: #1d1d1b;
      }

      .cls-2 {
        fill: #db7f1d;
      }
    </style>
  </defs>
  <!-- Generator: Adobe Illustrator 28.6.0, SVG Export Plug-In . SVG Version: 1.2.0 Build 709)  -->
  <g>
    <g id="Capa_1">
      <g>
        <path class="cls-1" d="M114.6,59h-23.2l-29.2-35.5c-1.6-2-4.1-2.9-6.5-2.6-.2,0-.4,0-.7,0h-29.7c-4.1,0-7.3,3.3-7.3,7.3s3.3,7.3,7.3,7.3h27.7l24.6,29.9c0,.3,0,.6,0,1,0,.7.1,1.3.3,1.9l-25.2,30.1h-27.3c-4.1,0-7.3,3.3-7.3,7.3h0c0,4.1,3.3,7.3,7.3,7.3h29.7c.9,0,1.7-.2,2.5-.5,1.7-.3,3.2-1.1,4.4-2.5l30.5-36.4h22.2c4.1,0,7.3-3.3,7.3-7.3s-3.3-7.3-7.3-7.3Z"/>
        <g>
          <path class="cls-2" d="M114.6,97.6h-27.7l-7.2-8.7-9.6,11.4,7.6,9.3c1.6,2,4.1,2.9,6.5,2.6.2,0,.4,0,.7,0h29.7c4.1,0,7.3-3.3,7.3-7.3s-3.3-7.3-7.3-7.3Z"/>
          <path class="cls-2" d="M114.6,20h-29.7c-.9,0-1.7.2-2.5.5-1.7.3-3.2,1.1-4.4,2.5l-30.5,36.4h-22.2c-4.1,0-7.3,3.3-7.3,7.3s3.3,7.3,7.3,7.3h23.2l12.1,14.7,9.6-11.4-8-9.7c0-.3,0-.6,0-1,0-.7-.1-1.3-.3-1.9l25.2-30.1h27.3c4.1,0,7.3-3.3,7.3-7.3h0c0-4.1-3.3-7.3-7.3-7.3Z"/>
        </g>
      </g>
    </g>
  </g>
</svg>