<?xml version="1.0" encoding="UTF-8"?>
<svg xmlns="http://www.w3.org/2000/svg" version="1.1" viewBox="0 0 303 133">
  <defs>
    <style>
      .cls-1 {
        fill: #1b5081;
      }

      .cls-2 {
        fill: #77a9e0;
      }

      .cls-3 {
        fill: #c9dae6;
      }

      .cls-4 {
        fill: #54a545;
      }

      .cls-5 {
        fill: #0c5186;
      }

      .cls-6 {
        fill: #105d9b;
      }

      .cls-7 {
        fill: #125c9a;
      }

      .cls-8 {
        fill: #14508a;
      }

      .cls-9 {
        fill: #4a81c1;
      }

      .cls-10 {
        fill: #e2fbfd;
      }

      .cls-11 {
        fill: #16568d;
      }

      .cls-12 {
        fill: #105392;
      }

      .cls-13 {
        fill: #0f508c;
      }

      .cls-14 {
        fill: #0e5b9b;
      }

      .cls-15 {
        fill: #175186;
      }

      .cls-16 {
        fill: #4780bf;
      }

      .cls-17 {
        fill: #2a5f91;
      }

      .cls-18 {
        fill: #d5e7f1;
      }

      .cls-19 {
        fill: #f2f9fb;
      }

      .cls-20 {
        fill: #d6e5ef;
      }

      .cls-21 {
        fill: #00579b;
      }

      .cls-22 {
        fill: #255280;
      }

      .cls-23 {
        fill: #29547d;
      }

      .cls-24 {
        fill: #40709b;
      }

      .cls-25 {
        fill: #5b91ca;
      }

      .cls-26 {
        fill: #124e8f;
      }

      .cls-27 {
        fill: #115190;
      }

      .cls-28 {
        fill: #145e9b;
      }

      .cls-29 {
        fill: #125092;
      }

      .cls-30 {
        fill: #105190;
      }

      .cls-31 {
        fill: #3c6b98;
      }

      .cls-32 {
        fill: #fefefe;
      }

      .cls-33 {
        fill: #05589d;
      }

      .cls-34 {
        fill: #0a599a;
      }

      .cls-35 {
        fill: #0b528a;
      }

      .cls-36 {
        fill: #15528a;
      }

      .cls-37 {
        fill: #0f5c9a;
      }

      .cls-38 {
        fill: #4980c0;
      }

      .cls-39 {
        fill: #105c9a;
      }

      .cls-40 {
        fill: #0a538c;
      }

      .cls-41 {
        fill: #155f9c;
      }

      .cls-42 {
        fill: #f7fdfe;
      }

      .cls-43 {
        fill: #38618d;
      }

      .cls-44 {
        fill: #2d6390;
      }

      .cls-45 {
        fill: #517ea7;
      }

      .cls-46 {
        fill: #1f4d7c;
      }

      .cls-47 {
        fill: #0a548c;
      }

      .cls-48 {
        fill: #1c4f82;
      }
    </style>
  </defs>
  <!-- Generator: Adobe Illustrator 28.6.0, SVG Export Plug-In . SVG Version: 1.2.0 Build 709)  -->
  <g>
    <g id="Capa_1">
      <g>
        <path class="cls-26" d="M34.8,46.1v-24.7c0-.2-.1-.5.2-1,.2.3.2.5.4.6,4.4,4.4,8.6,8.6,13,13,6.6,6.6,13.3,13.3,19.9,19.9q.9.9,0,1.8c-11.1,11.1-22,22-33,32.9-.1.1-.2.3-.4.5-.1,0-.1-.1-.2-.1v-25.2h.1c.3.1.5.3.9.6l7.1,7.1c.1.1.3.3.5.4v-34c-.3,0-.4.3-.5.4-2.3,2.3-4.7,4.7-7,7-.2.2-.4.5-.9.6h-.1Z"/>
        <path class="cls-26" d="M168.7,57.5v-16.5c0-.6.1-.9.9-.9,1.9.1,3.8,0,5.6,0s.6.1.6.5v28.5c0,.5-.2.5-.6.5h-5.1c-.3,0-.6-.1-.9-.4-5.2-5.5-10.4-11.2-15.7-16.7,0,0-.1-.1-.2-.1-.2.2-.1.5-.1.7v15.8c0,.6-.1.7-.7.7h-5.8c-.4,0-.6-.1-.6-.6v-28.4c0-.4.1-.6.5-.6h5c.4,0,.6.1,1,.4,4.6,4.9,9.2,9.7,13.7,14.6.7.9,1.5,1.6,2.3,2.4Z"/>
        <path class="cls-26" d="M288.4,69.8h-7.7c-.4,0-.5-.2-.7-.5-1.5-2.6-3-5-4.5-7.6-.3-.4-.5-.6-1.1-.6h-5.6c-.6,0-.7.2-.7.7v7.2c0,.5-.1.6-.6.6h-5.9c-.4,0-.5-.1-.5-.5v-28.7c0-.4.1-.5.5-.5,5.4,0,10.9-.1,16.3.1,3.5.1,6.7,1.2,8.8,4.2,3.6,4.8,2.8,11.9-3.6,15.3q-.7.4-.3,1.2c1.7,2.8,3.5,5.5,5.2,8.3.1.2.2.4.4.7Z"/>
        <path class="cls-26" d="M114.7,55v-14.1c0-.5.1-.7.6-.6h23.9c.5,0,.6.1.6.6v4.9c0,.5-.1.6-.6.6h-16.7c-.6,0-.7.2-.7.9v4.3c0,.4.1.5.5.5h10.5c.6,0,.7.1.7.7v4.7c0,.6-.2.7-.7.7h-10.5c-.5,0-.7.1-.6.6,0,1.5.1,2.9,0,4.4,0,.6.2.7.7.7h16.5c.6,0,.9.2.7.9v4.8c0,.4-.1.5-.5.5h-24.1c-.5,0-.5-.2-.5-.6.2-5.1.2-9.9.2-14.6Z"/>
        <path class="cls-26" d="M81.7,54.9v-14.2c0-.4,0-.6.5-.6,5.3,0,10.8,0,16.1.1,3.2.1,6.3,1,8.5,3.5,4.9,5.4,2.9,15.1-5.4,17-1.4.3-2.7.4-3.9.4h-8.1c-.5,0-.6.1-.6.6v7.5c0,.5-.1.6-.6.6h-5.9c-.5,0-.6-.1-.6-.6.1-4.8.1-9.6.1-14.4Z"/>
        <path class="cls-26" d="M237.4,69.8h-3.2c-.5,0-.7-.2-.9-.6-.3-1.1-.7-2.1-1.2-3.2-.1-.4-.4-.5-.7-.5h-13.7c-.4,0-.5.1-.7.4-.4,1.2-1,2.2-1.4,3.4-.1.3-.3.4-.7.4h-6.3c-.5,0-.6-.1-.4-.6,3.7-8,7.5-16,11.2-24,.7-1.5,1.4-3.1,2.1-4.6.1-.3.3-.4.7-.4h5.1c.3,0,.5.1.6.4,4.4,9.6,8.7,19.2,13.1,28.8.2.4.1.5-.3.5-1.1,0-2.2,0-3.3,0Z"/>
        <path class="cls-26" d="M212.4,40.2c-1,2-1.8,3.9-2.7,5.9-.2.4-.4.3-.7.3h-9.1c-.5,0-.6.1-.6.6v22c0,.6-.1.9-.7.9-1.8-.1-3.7,0-5.5,0s-.7-.1-.7-.7v-21.8q0-1-1-1h-10c-.5,0-.7-.1-.6-.6v-4.7c0-.6.1-.7.7-.7h28.9c.6-.1,1.3-.1,2.1-.1Z"/>
        <path class="cls-26" d="M253.1,55v14.1c0,.5-.1.7-.7.7h-5.8c-.5,0-.6-.1-.6-.6v-28.4c0-.4.1-.6.5-.5h5.9c.5,0,.6.1.6.6.1,4.8.1,9.5.1,14.2Z"/>
        <path class="cls-4" d="M25.8,54.9v-17.5c3,3,6,5.9,8.8,8.8h0s0,.1.1.1h0c-.1.4-.4.5-.6.7l-7.5,7.5c-.3.3-.6.5-.5,1.1v16.3c0,.2,0,.4-.1.6-.1.1-.2.2-.2.1-.1-.2,0-.4,0-.6v-15.9c0-.2.1-.5-.1-.7-.1-.3,0-.4.1-.5Z"/>
        <path class="cls-4" d="M25.8,54.9c0,.1-.1.2-.1.3-2.4,2.4-5,5-7.5,7.6-.3.3-.6.7-1.1,1.2v-17.6c2.9,2.8,5.8,5.6,8.6,8.5Z"/>
        <path class="cls-4" d="M26.1,72.5c-.2-.1-.1-.3-.1-.5v-16.7c.4,0,.5.3.7.5,2.4,2.3,4.8,4.8,7.2,7.2s.4.4.7.6c.1,0,.1.1.1.1.1.1,0,.2-.1.3h0c-1.1,1.1-2.1,2.1-3.3,3.2-1.8,1.7-3.5,3.4-5.3,5.2Z"/>
        <path class="cls-4" d="M34.9,63.6h-.1c-.2-.3-.2-.6-.2-1v-15.4c0-.3,0-.7.2-1h0c.3-.1.4.1.6.3l7.7,7.7c.2.2.3.4.4.6v.3c-.1.3-.3.5-.5.7l-7.3,7.3c-.2.1-.3.4-.7.3Z"/>
        <path class="cls-32" d="M34.9,63.6c2.3-2.3,4.8-4.7,7.1-7.1.4-.4,1-1,1.5-1.4v17.3l-.2.2c-.1-.2-.2-.4-.3-.5l-7.7-7.7c-.2-.2-.3-.3-.5-.4,0-.1.1-.2.1-.3Z"/>
        <path class="cls-32" d="M43.5,54.9l-8.1-8.1c-.2-.2-.3-.4-.6-.5h0c.6-.7,1.3-1.3,1.9-1.9l6.4-6.4c.1-.1.2-.3.4-.3,0,5.8,0,11.5,0,17.3Z"/>
        <path class="cls-32" d="M52.4,46.5v17.1c-.2.1-.3-.1-.4-.2l-7.9-7.9c-.2-.2-.5-.4-.1-.7,2.8-2.7,5.4-5.4,8.2-8.1,0-.1,0-.2.2-.2Z"/>
        <path class="cls-32" d="M273.3,46.1c1.4.1,3-.1,4.7.1,2.4.3,3.6,2.2,3.6,4.5-.1,2.4-2,4.4-4.3,4.5h-8.8c-.4,0-.4-.1-.4-.4v-8.1c0-.4.2-.4.5-.4,1.4-.1,2.9-.1,4.7-.1Z"/>
        <path class="cls-32" d="M93.8,46.1h4.2c2.8.1,4.4,1.7,4.5,4.4.1,2.6-1.5,4.5-4.2,4.6-3,.1-6.1,0-9.1.1-.3,0-.3-.1-.3-.3v-8.3c0-.4.2-.3.5-.3,1.4-.1,2.9-.1,4.4-.1h0Z"/>
        <path class="cls-32" d="M229.5,59.9h-9.8c-.1-.2,0-.3.1-.5,1.5-3.4,2.9-6.8,4.4-10.2.1-.2.1-.4.3-.5.3,0,.3.3.3.4,1.5,3.5,3,6.9,4.5,10.4.1.2.1.3.2.4Z"/>
        <path class="cls-32" d="M34.8,46.2v17.4c-.3,0-.4-.2-.6-.4-2.6-2.6-5-5-7.6-7.6-.2-.2-.4-.3-.5-.5,0-.2.1-.3.2-.4,2.8-2.8,5.4-5.4,8.2-8.2.1,0,.2-.1.3-.2Z"/>
      </g>
      <g>
        <path class="cls-21" d="M109.2,89.6h23.3c.4.3.4.8.3,1.2-.3,1.6-.5,3.1-.9,4.7-.2.9-.5,1.3-1.5,1.3-2,0-3.9,0-5.9,0-3.2,0-6.5,0-9.7,0-.3,0-.6,0-1,0-.6,0-1.1.3-1.1,1,0,.7.6.6,1.1.6,4.9,0,9.9,0,14.8,0,.5,0,1,0,1.6,0,.6,0,1,.4.9,1-.2,1.9-.6,3.8-1.1,5.7-.1.4-.5.6-1,.7-.6,0-1.2,0-1.8,0-4.8,0-9.5,0-14.3,0-.4,0-.8,0-1.2,0-.5.1-.7.4-.7.9,0,.5.4.6.8.7.4,0,.7,0,1.1,0,4.7,0,9.4,0,14.2,0,.4,0,.8,0,1.3,0,.9,0,1.2.5,1.1,1.3,0,.3,0,.7-.2,1-.5,1.1-.7,2.3-.9,3.4-.2.9-.4,1.2-1.3,1.2-7.1,0-14.1,0-21.2,0-.4,0-.7,0-1.1,0-1.2,0-1.9-.6-2.2-1.6-.1-.5.2-1.1-.3-1.6v-.6c.6-.7.2-1.5.3-2.3,0,0,0-.2,0-.3,0-.3.1-.5.2-.7.2-.5,0-1,0-1.5.1-1.5.4-3,.8-4.5.6-1.4,1-2.8.8-4.3,0-.9.2-1.7.4-2.5.3-.5.5-1,.6-1.6,0,0,0-.2,0-.3.2-.2.3-.5.3-.9.1-.5.4-.8.8-1.1.3-.2.6-.2.8-.5,0,0,.1-.1.2-.1.2,0,.4-.2.7-.4.4-.1.8-.1,1.1-.3Z"/>
        <path class="cls-21" d="M191.1,114.7h-20.8c-1.8-.2-2.8-1.2-3.2-3-.2-.7,0-1.5,0-2.2,1-5.5,1.9-11,2.9-16.5.1-.6.3-1.1.8-1.5.4-.3.9-.6,1.2-1.1.2-.2.4-.4.6-.4.6,0,1.2-.2,1.8-.2,6.6,0,13.2,0,19.7,0,.7,0,1.3,0,1.2,1,0,.1,0,.2,0,.4-.4.8-.4,1.6-.2,2.4,0,.5-.2,1.1-.2,1.6-.2,1.3-.5,1.6-1.8,1.6-4.4,0-8.7,0-13.1,0-2,0-2,0-2.4,2-.5,2.5-.9,5.1-1.4,7.6,0,.4-.1.8.2,1.1.7.3,1.5.4,2.3.4,4.1,0,8.2,0,12.3,0,.7,0,1.2.1,1.4.9,0,1.8-.5,3.5-.8,5.3,0,.4-.4.5-.6.7Z"/>
        <path class="cls-21" d="M161.4,89.6h7.8c.4.3.3.7.3,1.2-.5,3.5-1.2,6.9-1.8,10.4-.6,3.6-1.3,7.2-1.9,10.8,0,.5-.2,1.1-.5,1.6-.4,1-1.3,1.1-2.2,1-2,0-4,0-6,0-.5-.3-.4-.8-.3-1.2.4-2.8,1-5.6,1.5-8.3.4-2.2.7-4.4,1.2-6.6.6-.6.5-1.3.4-2.1.2-1.9.6-3.7.9-5.5,0-.5.2-.9.7-1.2Z"/>
        <path class="cls-2" d="M127.9,114.6c0,0,0,.1,0,.2h-22.3c0-.1,0-.2.1-.3,7.2,0,14.4,0,21.6,0,.2,0,.5,0,.6.1Z"/>
        <path class="cls-9" d="M174.2,89.7v-.2h21.3c0,.3,0,.6-.2.8-.2-.6-.7-.5-1.1-.5-6.3,0-12.7,0-19,0-.3,0-.7,0-1,0Z"/>
        <path class="cls-16" d="M146.7,114.7c0,0,0-.1,0-.2,2.4,0,4.8,0,7.1,0,.4,0,.9.1,1.1-.4.2.2.1.4.2.6h-8.3Z"/>
        <path class="cls-16" d="M164.7,114.5c0,0,0,.1,0,.2h-7.8c0,0,0-.1,0-.2,2.1-.2,4.1,0,6.2,0,.5,0,1-.1,1.5,0Z"/>
        <path class="cls-16" d="M137.8,114.5c0,0,0,.1,0,.2h-7.4c0,0,0-.1,0-.2.6-.3,1.1-.1,1.7,0,1.9,0,3.8-.2,5.7,0Z"/>
        <path class="cls-33" d="M102.2,109.9c.5-.5.2-1.2.6-1.8,0,.6,0,1.2,0,1.8,0,.4-.1.7-.6.7v-.8Z"/>
        <path class="cls-33" d="M102.8,112.6c-.3-.2-.1-.7-.6-.8v-.6c1.1,0,.4.9.6,1.4Z"/>
        <path class="cls-25" d="M227.6,89.6c0,0,0,.1,0,.2-.3.3-.7.3-1,0,0,0,0-.1,0-.2h1Z"/>
        <path class="cls-8" d="M105.5,114.5c-.4,0-.7-.1-1-.4,7.4.4,14.8,0,22.3.2.9,0,1.2-.4,1.3-1.2.2-1.1.1-2.4.8-3.4-.2,1.4-.5,2.8-.7,4.1,0,.3,0,.6-.4.7-4.1,0-8.2,0-12.3,0-3.4,0-6.7,0-10.1,0Z"/>
        <path class="cls-5" d="M103.9,101.5c.2-1.5.4-3,.8-4.5,0,1.6-.2,3.1-.8,4.5Z"/>
        <path class="cls-7" d="M105.2,94.6c0-.6,0-1.2.4-1.8,0,.6,0,1.2-.4,1.8Z"/>
        <path class="cls-47" d="M103,106.9c0-.3,0-.7.2-1,0,.5.1,1.1-.1,1.6-.2-.2-.2-.4,0-.6Z"/>
        <path class="cls-13" d="M103,106.9c0,.2,0,.4,0,.6,0,.2,0,.4-.3.6,0-.4,0-.8.2-1.2Z"/>
        <path class="cls-7" d="M105.5,92.8c0-.3.2-.6.4-.8,0,.4,0,.7-.4.8Z"/>
        <path class="cls-37" d="M106.7,91.1c.2-.3.5-.5.8-.6-.2.3-.4.6-.8.6Z"/>
        <path class="cls-37" d="M107.5,90.5c.2-.2.4-.4.8-.4-.2.3-.4.4-.8.4Z"/>
        <path class="cls-21" d="M195.2,102.5c0,.3-.1.7-.2,1,0-.4.2-.9.2-1.3,0,.1,0,.2,0,.3Z"/>
        <path class="cls-21" d="M193.9,110.2c.2-1.1.4-2.3.6-3.4-.3,1.3-.5,2.6-.7,3.9-.1.7.1,1.3.5,1.9-.4-.7-.5-1.6-.4-2.5Z"/>
        <path class="cls-21" d="M195.6,100.2c.2-1.1.4-2.1.6-3.2-.2,1-.4,2.1-.6,3.2Z"/>
        <path class="cls-21" d="M200.1,89.9c-.2,0-.5,0-.7.2-1.5.8-2.4,2-2.7,3.7,0,0,0,0,0,0,.4-2,1.5-3.3,3.4-3.8Z"/>
        <path class="cls-21" d="M196.5,114.5c0,0-.1,0-.2,0,0,0,.1,0,.2,0Z"/>
        <path class="cls-21" d="M223.9,94.1c.2-1,0-2-.2-2.9,0-.1,0-.2-.2-.3-.5-.4-1-.9-1.6-1,0,0,0,0,0,0,0,0,0,0,0,.1,0,0,0,0,0,0-7,0-14,0-20.9,0-2,0-3.6,1.8-3.9,3.5-.3,1.9-.8,3.9-1.1,5.8-.3,2-.7,3.9-.9,5.9-.2,1.6-.6,3.3-1,4.9-.3,1.4.9,3.5,2.2,3.9.4,0,.8.1.9.6h20.6c1.3-.2,2.3-.7,2.9-1.9.3-.6.5-1.2.5-1.8.2-1.4.5-2.8.7-4.2.6-3.8,1.4-7.6,1.9-11.4,0-.4-.2-.8-.1-1.2ZM215.7,97.3c-.6,3.3-1.2,6.6-1.7,9.9,0,.5-.3.8-.9.8-1.7,0-3.5,0-5.2,0-1.7,0-3.5,0-5.2,0-.7,0-.8-.2-.7-.8.6-3.3,1.2-6.7,1.7-10,.1-.6.4-.8,1-.8,3.4,0,6.8,0,10.2,0,.8,0,.9.3.8.9Z"/>
        <path class="cls-34" d="M196.7,114.7h.6c-.3,0-.5-.1-.8-.2,0,0,.2.1.2.2Z"/>
        <path class="cls-34" d="M195.3,102.2c.1-.6.2-1.3.3-1.9-.1.6-.2,1.3-.3,1.9Z"/>
        <path class="cls-34" d="M200.5,89.8c7.1,0,14.1,0,21.2,0,0,0,.1,0,.2,0-.2-.2-.6,0-.7-.3h-.2c-.3.3-.7.2-1.1.2-6.4,0-12.8,0-19.3,0h0c-.2,0-.3,0-.5.1.1,0,.2,0,.4,0Z"/>
        <path class="cls-34" d="M195.1,103.5c-.2,1.1-.4,2.2-.6,3.3,0-.2,0-.4.1-.5.2-.9.3-1.9.5-2.8Z"/>
        <path class="cls-34" d="M196.8,93.7c0,0,0,.2,0,.3-.2,1-.4,2.1-.5,3.1,0-.1,0-.3,0-.4.2-1,.3-2,.5-2.9Z"/>
        <path class="cls-34" d="M194.6,113.1c-.1-.1-.2-.3-.3-.4.4.7.9,1.3,1.7,1.6.1,0,.2,0,.4.1-.7-.3-1.3-.7-1.7-1.3Z"/>
        <path class="cls-34" d="M196.4,114.1c-1.4-.3-2.6-2.5-2.2-3.9.4-1.6.8-3.2,1-4.9.2-2,.6-4,.9-5.9.3-1.9.7-3.9,1.1-5.8.3-1.7,1.9-3.5,3.9-3.5,7,.1,14,0,20.9,0,0,0,0,0,0,0,0,0,0,0,0-.1,0,0,0,0,0,0,0,0-.1,0-.2,0-7.1,0-14.1,0-21.2,0-.1,0-.2,0-.4,0-1.8.5-2.9,1.8-3.4,3.8-.2,1-.3,2-.5,2.9,0,.1,0,.3,0,.4-.2,1.1-.4,2.1-.6,3.2-.1.6-.2,1.3-.3,1.9,0,.4-.2.9-.2,1.3-.1.9-.2,1.9-.5,2.8,0,.2,0,.4-.1.5-.2,1.1-.4,2.3-.6,3.4-.2.9,0,1.7.4,2.5,0,.2.2.3.3.4.5.6,1.1,1,1.7,1.3,0,0,.1,0,.2,0,.3,0,.5.2.8.2-.1-.5-.5-.5-.9-.6Z"/>
        <path class="cls-38" d="M201.7,89.7c6.1,0,12.2,0,18.3,0,.3,0,.7,0,1,0h-20.4c0,0,0,.1,0,.2h0c.3-.2.7,0,1,0Z"/>
        <path class="cls-38" d="M219.9,89.7c.4,0,.8.1,1.1-.2-.3.2-.7,0-1,0-6.1,0-12.2,0-18.3,0-.3,0-.7,0-1,0h0c6.4,0,12.8,0,19.3,0Z"/>
        <path class="cls-6" d="M223.3,91.1c.7.8.7,1.7.6,2.6,0,.6-.1,1.2-.4,1.8,0-1.5.4-2.9-.2-4.4Z"/>
        <path class="cls-6" d="M221.9,90.1c0,0,0-.1,0-.2.6.2,1.1.5,1.4,1.1-.5-.3-.9-.6-1.4-.9Z"/>
        <path class="cls-21" d="M158.8,92.3c-.2-.3-.5-.6-.6-1,0-.1-.1-.3-.2-.4-.3-.2-.5-.4-.7-.7-.5-.6-1.3-.4-1.9-.7h-20.6c-.7.3-.7,1-.8,1.6-.7,3.5-1.3,7-1.9,10.5-.5,2.9-1.2,5.8-1.5,8.7.4,1.1-.2,2.1-.2,3.1,0,.7.3,1,1,1,1.6,0,3.1,0,4.7,0q1.4,0,2-1.3c0-.1.2-.3.3-.4.2-.3.2-.6.3-.9.4-1.7.5-3.4.9-5.1.1-.6.4-.9,1-.9.6,0,1.2,0,1.8,0,.8,0,1.2.3,1.4,1.1.6,2.2,1.2,4.4,1.9,6.6.2.5.3,1.1,1,1.1,2.4,0,4.7,0,7.1,0,.3,0,.7.1,1-.2.4-.6.1-1.2,0-1.8-.5-2-1.1-3.9-1.7-5.9-.2-.8,0-1.2.7-1.5.2-.2.5-.4.7-.5,0,0,.1,0,.2-.2.3-.3.7-.5,1-.7.7-.5,1.2-1.2,1.3-2.2,0-1.1.2-2.1.6-3.1,0,0,0-.2,0-.3,0-.7.1-1.4.6-1.9.3-1.4.7-2.7.4-4.2ZM150.3,97.1c-.2,1.7-.4,2-2.1,2-1,0-2.1,0-3.1,0-1.2,0-2.4,0-3.6,0-.2,0-.6,0-.6,0-.3-.8.2-1.5.2-2.3,0-.4.3-.5.6-.4,2.6,0,5.3,0,7.9,0,.6,0,.8.3.7.9Z"/>
        <path class="cls-27" d="M137.8,114.5c-2.5,0-4.9,0-7.4,0,0-1.5.4-2.9.8-4.4,0,.8,0,1.6-.2,2.5-.5,1.3-.1,1.7,1.2,1.7,1.5,0,3,0,4.5,0,.7,0,1.2-.1,1.1-1,0-.4,0-.7.4-.9,0,.7-.1,1.5-.4,2.1Z"/>
        <path class="cls-40" d="M157.6,98.5c-.1,1.2-.3,2.3-.8,3.4.2-1.1.2-2.3.8-3.4Z"/>
        <path class="cls-40" d="M158,96.3c0,.7-.2,1.5-.4,2.1,0-.7-.2-1.5.4-2.1Z"/>
        <path class="cls-14" d="M155.6,103.7c-.2.4-.5.6-.9.8.2-.4.5-.7.9-.8Z"/>
        <path class="cls-39" d="M157.9,91.3c.4.2.4.6.5.9-.4-.2-.4-.6-.5-.9Z"/>
        <path class="cls-14" d="M154.6,104.5c-.2.2-.5.4-.8.4.2-.3.4-.4.8-.4Z"/>
        <path class="cls-39" d="M157.2,90.5c.4,0,.5.2.6.6-.3-.1-.5-.3-.6-.6Z"/>
        <path class="cls-29" d="M174.2,89.7c6.7,0,13.4,0,20.1,0,.4,0,1-.2,1.1.6,0,.3,0,.6-.2.8,0-.9-.3-1.2-1.3-1.2-6.6,0-13.1,0-19.7,0-.1,0-.1-.1,0-.2h0Z"/>
        <path class="cls-46" d="M175.8,107.9c5.3,0,10.6,0,15.9,0,1,0,.5.6.4,1,0-.8-.5-.8-1.1-.8-4.7,0-9.3,0-14,0-.4,0-.8,0-1.2-.2Z"/>
        <path class="cls-29" d="M195.2,91.1c0,.8-.2,1.6-.4,2.3,0-.8-.2-1.7.4-2.3Z"/>
        <path class="cls-28" d="M174.2,89.8c0,0,0,.1,0,.2-.5.1-1,.3-1.5.4.5-.3,1-.5,1.6-.6Z"/>
        <path class="cls-41" d="M171.2,91.7c.2-.4.6-.8,1-1-.2.5-.5.8-1,1Z"/>
        <path class="cls-30" d="M164.7,114.5c-2.6,0-5.1,0-7.7,0,0,0,0-.1,0-.2,1.9,0,3.7,0,5.6,0,1.1,0,1.9,0,2.4-1.2,0,.5,0,.9-.3,1.4Z"/>
        <path class="cls-35" d="M159.8,98.4c0-.8.1-1.5.4-2.2,0,.8.2,1.6-.4,2.2Z"/>
        <path class="cls-44" d="M225.6,93.9c-1.1-1-1.2-2.2-.2-3.4.2,0,.4,0,.5.1,0,0,0,.2,0,.3-.5.8-.4,1.6,0,2.4,0,0,0,.2,0,.3,0,.1-.2.2-.3.2Z"/>
        <path class="cls-36" d="M229.5,92.6c0,.5-.3.9-.8,1.2-.2,0-.3,0-.3-.2,0,0,0-.2,0-.3.1-.6.3-1.2.4-1.8.1-.2.2-.5.5-.4,0,.1,0,.2,0,.4.3.4.2.8.2,1.2Z"/>
        <path class="cls-43" d="M226.6,89.7c.3,0,.7,0,1,0,.2,0,.4,0,.6.2,0,.2-.2.4-.5.5-.4,0-.9,0-1.3,0-.1-.1-.3-.2-.2-.4.1,0,.3-.1.4-.2Z"/>
        <path class="cls-22" d="M228.2,94.2c0,.2-.2.2-.4.1-.4,0-.8,0-1.1,0-.3,0-.6-.1-.8-.3,0-.2.2-.3.5-.4.6,0,1.2,0,1.7.2.1,0,.2.2.2.4Z"/>
        <path class="cls-24" d="M229.3,91.1c0,.2-.1.4-.2.6-.7,0-.6-.6-.7-1.1,0-.2.2-.2.3-.3.4.1.6.3.6.8Z"/>
        <path class="cls-12" d="M229.5,92.6c-.3-.4-.2-.8-.2-1.2.6.3.4.8.2,1.2Z"/>
        <path class="cls-31" d="M226.2,89.9c0,0,.2.2.3.2,0,.3-.1.4-.3.5-.1,0-.3,0-.4,0-.1,0-.3-.2-.4-.2.2-.3.5-.5.8-.6Z"/>
        <path class="cls-15" d="M228.7,90.4c0,0-.1.1-.2.2-.4.1-.7,0-.7-.4.1,0,.3-.1.4-.2.2.1.4.3.6.4Z"/>
        <path class="cls-17" d="M228.2,94.2c0,0-.1-.1-.2-.2,0-.1,0-.3,0-.4.2-.1.3-.1.5,0,0,0,.1.1.2.2-.1.3-.3.4-.6.4Z"/>
        <path class="cls-48" d="M226.6,94.4c.4-.2.8-.2,1.1,0-.4.1-.8.1-1.1,0Z"/>
        <path class="cls-1" d="M226.2,93.9c-.1,0-.3,0-.4.1,0,0-.1-.1-.2-.2,0,0,.1-.2.2-.2,0,0,.1,0,.2,0,.1,0,.2.2.2.3Z"/>
        <path class="cls-19" d="M225.8,93.5c-.8-.9-.8-2,0-2.6.7.5.7,1.9,0,2.6Z"/>
        <path class="cls-10" d="M225.8,93.5c.3-.9.4-1.7,0-2.6,0,0,0-.1,0-.2,0,0,.2-.1.2-.2.2,0,.3,0,.4.2.1.9.1,1.8,0,2.6,0,.2-.2.3-.4.2,0,0-.1,0-.2,0,0,0,0-.1,0-.2Z"/>
        <path class="cls-18" d="M226.2,90.7c0,0-.1-.1-.2-.2.1-.1.3-.2.4-.4.4,0,.9,0,1.3,0,.2.1.5.3.7.4.2.4.4.8.6,1.1,0,.7-.1,1.3-.6,1.7-.1.1-.3.1-.4,0-.5-.5-1-.9-.4-1.6.3-.5.1-.8-.4-.9-.4,0-.8,0-1.1-.3Z"/>
        <path class="cls-3" d="M228.2,93.4c.1,0,.2,0,.3,0,0,0,0,.1,0,.2-.1,0-.2.1-.4.2-.2,0-.5,0-.3-.4.1,0,.3,0,.4,0Z"/>
        <path class="cls-20" d="M227.8,93.4c.1.1.2.3.4.4,0,0-.1.1-.2.2-.6.1-1.2.1-1.7-.1,0,0-.2-.2-.2-.2,0,0,.1-.1.2-.2.3-.3,0-.8.3-1.1.8-.4,1.1-.1,1.3,1.1Z"/>
        <path class="cls-23" d="M226.6,92.5c0,.4.4.9-.4.9,0-.9,0-1.8,0-2.7.3,0,.7,0,1,0,1,0,1.2.5.7,1.4-.2,0-.3,0-.4-.2,0-.1-.1-.3-.3-.3-.2,0-.3.1-.4.2-.1.2-.4.4-.3.7Z"/>
        <path class="cls-11" d="M227.8,91.7c0,.1.1.3.2.4-.3.2-.4.3-.2.7.2.2.4.4.4.7-.1,0-.3,0-.4,0-.2-.3-.3-.6-.5-.9-.2-.3-.4-.3-.7,0-.2-.2-.2-.5,0-.8.1,0,.2,0,.4,0,.3-.1.6-.1.8,0Z"/>
        <path class="cls-42" d="M227.8,91.7c-.3.2-.6.2-1,.2-.2-.9-.2-.9.8-.8.2.1.2.4.2.6Z"/>
        <path class="cls-45" d="M227.6,91.1c-.5,0-1,0-.8.8,0,0-.2-.1-.3-.2,0-.8.4-1,1-.6Z"/>
      </g>
    </g>
  </g>
</svg>