<?xml version="1.0" encoding="UTF-8"?>
<svg xmlns="http://www.w3.org/2000/svg" version="1.1" viewBox="0 0 233.6 190.4">
  <defs>
    <style>
      .cls-1 {
        fill: #e2056b;
      }

      .cls-1, .cls-2, .cls-3, .cls-4, .cls-5 {
        fill-rule: evenodd;
      }

      .cls-2 {
        fill: #048f4f;
      }

      .cls-3 {
        fill: #0f8acb;
      }

      .cls-4 {
        fill: #921c7e;
      }

      .cls-5 {
        fill: #055ea7;
      }
    </style>
  </defs>
  <!-- Generator: Adobe Illustrator 28.6.0, SVG Export Plug-In . SVG Version: 1.2.0 Build 709)  -->
  <g>
    <g id="Capa_1">
      <g>
        <polygon points="5.6 129.4 220.3 129.4 220.3 118.5 5.6 118.5 5.6 129.4 5.6 129.4"/>
        <polygon points="124.9 60.2 124.7 61 121.5 71.8 128.7 71.8 116.2 109.8 129.1 109.8 141.6 71.7 148.8 71.7 152.4 60.2 124.9 60.2 124.9 60.2"/>
        <polygon points="91.5 60.2 87.8 71.8 96 71.8 83.9 109.8 96.6 109.8 109 71.7 116.3 71.7 119.8 60.2 91.5 60.2 91.5 60.2"/>
        <polygon points="73.6 60.2 57.5 109.8 70.3 109.8 86.4 60.2 73.6 60.2 73.6 60.2"/>
        <polygon points="220.3 98.4 200.3 98.4 212.7 60.3 199.9 60.3 184 109.8 220.3 109.8 220.3 98.4 220.3 98.4"/>
        <path d="M163.7,60.2l-27.9,49.6h13.2l4-7.2h14.1l-.8,7.2h12.7l4.7-49.6h-20ZM168.2,92.3h-9.5l11.8-21.3-2.3,21.3h0Z"/>
        <path d="M64.1,71.6c0,1.6-.3,3.2-.8,4.9-2.8,8.8-9.1,14.1-17.1,15.1h-1.2c0,.1,7.6,18.3,7.6,18.3h-13.2l-6.9-18.8-5.7,18.8h-12.8l5.8-17.9H5.6v-10.3h17.4l7-21.4h22.1c4.2,0,7.7,1.6,9.8,4.5,1.4,1.9,2.1,4.2,2.1,6.8h0ZM51.7,74c0-.8-.2-1.6-.7-2.2-.7-.9-1.8-1.4-3.2-1.4h-9l-3.4,11.3h7.9c3.4,0,7-2.7,8.1-6,.2-.6.3-1.2.3-1.7h0Z"/>
        <polygon class="cls-1" points="225 144.6 225 182.8 198 182.8 198 144.6 225 144.6 225 144.6"/>
        <polygon class="cls-4" points="194.3 144.6 194.3 182.8 167.3 182.8 167.3 144.6 194.3 144.6 194.3 144.6"/>
        <polygon class="cls-5" points="163.6 144.6 163.6 182.8 136.6 182.8 136.6 144.6 163.6 144.6 163.6 144.6"/>
        <polygon class="cls-3" points="132.9 144.6 132.9 182.8 105.9 182.8 105.9 144.6 132.9 144.6 132.9 144.6"/>
        <polygon class="cls-2" points="10.3 182.8 102.2 182.8 102.2 144.6 10.3 144.6 10.3 182.8 10.3 182.8"/>
        <polygon class="cls-1" points="225 4.7 225 43 198 43 198 4.7 225 4.7 225 4.7"/>
        <polygon class="cls-4" points="194.3 4.7 194.3 43 167.3 43 167.3 4.7 194.3 4.7 194.3 4.7"/>
        <polygon class="cls-5" points="163.6 4.7 163.6 43 136.6 43 136.6 4.7 163.6 4.7 163.6 4.7"/>
        <polygon class="cls-3" points="132.9 4.7 132.9 43 105.9 43 105.9 4.7 132.9 4.7 132.9 4.7"/>
        <polygon class="cls-2" points="10.3 43 102.2 43 102.2 4.7 10.3 4.7 10.3 43 10.3 43"/>
      </g>
    </g>
  </g>
</svg>