<?xml version="1.0" encoding="UTF-8"?>
<svg xmlns="http://www.w3.org/2000/svg" version="1.1" viewBox="0 0 233.6 53.3">
  <defs>
    <style>
      .cls-1 {
        fill: #fefdfd;
      }

      .cls-2 {
        fill: #f4f4f4;
      }

      .cls-3 {
        fill: #060606;
      }

      .cls-4 {
        fill: #020202;
      }

      .cls-5 {
        fill: #e0071b;
      }

      .cls-6 {
        fill: #f8f8f8;
      }

      .cls-7 {
        fill: #e0081c;
      }

      .cls-8 {
        fill: #fefefe;
      }

      .cls-9 {
        fill: #eee;
      }
    </style>
  </defs>
  <!-- Generator: Adobe Illustrator 28.6.0, SVG Export Plug-In . SVG Version: 1.2.0 Build 709)  -->
  <g>
    <g id="Capa_1">
      <g>
        <path class="cls-5" d="M91.6,41.1c-1.2,1.6-2.8,1.7-4.4,1.6-6.7,0-13.3,0-20,0-2.4,0-4-1.5-4-3.9,0-2.6,0-5.3,0-7.9,0-1.1.2-2.2.9-3.1.8-1,1.8-1.6,3.1-1.6,6.8,0,13.7,0,20.5,0,1.2,0,2.2.5,3.2,1.3.2.2.3.5.7.5,0-1.3.3-2.7-.6-3.8-.8-1.1-2-1.6-3.4-1.6-5.2,0-10.4,0-15.5,0-.8,0-1-.2-1-1,0-1.6,0-3.2,0-4.7,0-.6,0-.8.7-.8,6.5,0,13.1,0,19.6,0,1,0,1.9.2,2.8.7,3.3,2,5.5,4.7,5.4,8.8,0,5.4,0,10.7,0,16.1,0,.7-.1.9-.9.9-1.9,0-3.9,0-5.8,0q-1.3,0-1.3-1.6Z"/>
        <path class="cls-5" d="M158.7,42.7c-3.4,0-6.8,0-10.2,0-4.4,0-8.3-3.9-8.3-8.3,0-3.4,0-6.8,0-10.1,0-4.1,3.9-8.1,8-8.1,6.6,0,13.3,0,19.9,0,4,0,8.6,3.4,8.6,8.7,0,3.3,0,6.6,0,9.9,0,4.2-3.9,8-8,8-3.3,0-6.6,0-9.9,0Z"/>
        <path class="cls-5" d="M180.2,31.7c0-3.1,0-6.3,0-9.4,0-3.5,2.8-6.5,6.3-6.7,3-.2,5.5.7,7.4,3.1,4.2,5,8.4,9.9,12.6,14.8.5.5.9,1.1,1.7,1.2.7,0,1.2-.1,1.3-.9,0-.3,0-.6,0-1,0-5.3,0-10.5,0-15.8,0-.7.1-1,.9-1,2,0,3.9,0,5.9,0,.6,0,.9.1.9.8,0,6.6,0,13.1,0,19.7,0,4.2-3.5,7.2-7.8,6.9-2.2-.1-3.9-1-5.3-2.7-4.5-5.5-9.1-11-13.7-16.5-.1-.2-.3-.4-.4-.5-.5-.5-1-.6-1.6-.4-.6.2-.6.7-.6,1.3,0,5.6,0,11.2,0,16.8,0,.8-.1,1.1-1,1-1.9,0-3.8,0-5.7,0-.8,0-.9-.3-.9-1,0-3.4,0-6.7,0-10.1Z"/>
        <path class="cls-5" d="M9.4,16.2c2.7,0,5.4,0,8.1,0,.6,0,.7.4.9.7,3.2,5.7,6.4,11.4,9.5,17.1.1.2.2.5.4.7.6,1,1.4,1,2,0,1.2-2,2.3-4.1,3.5-6.1,2.2-3.9,4.4-7.7,6.5-11.6.3-.5.6-.7,1.2-.7,2.6,0,5.3,0,8.1,0-.8,1.5-1.6,2.9-2.3,4.2-3.4,6.1-6.8,12.3-10.2,18.4-1.7,3.1-4.3,4.8-7.9,4.7-3.5,0-5.9-1.7-7.6-4.7-4-7.3-7.9-14.5-11.9-21.8-.1-.2-.4-.5-.3-.8Z"/>
        <path class="cls-5" d="M141.2,16.5c-.9.5-1.9,1-2.8,1.5-6.3,3.5-12.5,6.9-18.8,10.4,0,0-.2,0-.3.1-1.1.7-1.1,1.5,0,2.1,2.7,1.6,5.5,3.1,8.3,4.6,4.3,2.4,8.5,4.7,12.8,7.1.2.1.5.2.7.5h-.8c-4.7,0-9.5,0-14.2,0-.4,0-.8,0-1.2-.2-3.4-1.9-6.8-3.8-10.3-5.7-5.4-3-5.2-10.3-1.6-13.7.6-.5,1.2-1,1.9-1.3,3.3-1.8,6.5-3.5,9.8-5.3.5-.3.9-.4,1.5-.4,5,0,10,0,15,0,0,0,0,.1,0,.2Z"/>
        <path class="cls-5" d="M102,29.6c0-4.2,0-8.3,0-12.5,0-.7.1-.9.9-.9,2,0,3.9,0,5.9,0,.5,0,.8,0,.8.7,0,8.4,0,16.8,0,25.2,0,.5-.1.7-.7.7-2,0-4.1,0-6.1,0-.6,0-.8-.2-.8-.8,0-4.2,0-8.3,0-12.5Z"/>
        <path class="cls-5" d="M59.6,29.5c0,4.2,0,8.3,0,12.5,0,.6-.1.8-.8.8-2,0-4.1,0-6.1,0-.6,0-.8-.1-.8-.7,0-8.4,0-16.8,0-25.1,0-.6.2-.7.8-.7,2,0,3.9,0,5.9,0,.7,0,1,.1,1,.9,0,4.1,0,8.2,0,12.4Z"/>
        <path class="cls-7" d="M52,8.3h7.6c-.9,1.5-1.6,3-2.5,4.4-.6,1-1.9,1-2.5,0-.9-1.4-1.7-2.9-2.6-4.5Z"/>
        <path class="cls-4" d="M226.2,19.7c0,1.7-1.3,3-3.1,3.1-1.8,0-3.1-1.3-3.1-3.1,0-1.7,1.4-3.1,3-3.1,1.7,0,3.1,1.4,3.1,3.1Z"/>
        <path class="cls-1" d="M80.4,36.2c-2.5,0-4.9,0-7.4,0-1.3,0-2-.6-2-1.7,0-1.2.8-1.8,2-1.8,4.8,0,9.7,0,14.5,0,.5,0,.9,0,1.3.3.7.4,1.3.9,1.2,1.8-.1.8-1,1.4-1.9,1.4-2.6,0-5.2,0-7.8,0Z"/>
        <path class="cls-8" d="M158.5,22.6c2.2,0,4.5,0,6.7,0,2.4,0,3.7,1.3,3.7,3.6,0,2.1,0,4.1,0,6.2,0,2.1-1.3,3.4-3.4,3.4-4.6,0-9.3,0-13.9,0-2.2,0-3.4-1.3-3.5-3.5,0-2.2,0-4.3,0-6.5,0-2,1.4-3.2,3.5-3.2,2.3,0,4.6,0,6.9,0Z"/>
        <path class="cls-3" d="M221.4,18.1c0-.2.2-.3.4-.4.5,0,1-.1,1.5,0,1,.2,1.4.7,1.2,1.7-.2.7.4,1.4,0,2.1h0c-.6.3-1,0-1.2-.6,0-.2-.1-.4-.4-.4-.2,0-.3.2-.3.4,0,.5-.4.7-.8.7,0,0-.1-.1-.2-.2-.5-1.1-.2-2.2-.2-3.3Z"/>
        <path class="cls-2" d="M224.5,21.4c0-.8-.5-1.5-.1-2.4.2-.6-.3-1-1-1.1-.5,0-1.1.3-1.6-.2,1.3-.5,2.3-.4,3,.5.6.8.7,1.6.3,2.5-.1.3-.3.6-.6.7Z"/>
        <path class="cls-2" d="M221.8,21.6c.4-.2.8-.4.6-1,0-.3,0-.6.4-.6.4,0,.8,0,.7.5,0,.8.3.9,1,.8-.9.8-1.8.7-2.7.2Z"/>
        <path class="cls-6" d="M221.4,18.1c.5.6.1,1.2.2,1.9,0,.5,0,1,0,1.4-1-1.2-1.1-1.9-.2-3.3Z"/>
        <path class="cls-9" d="M222.9,19.5c-.3,0-.5,0-.5-.4,0-.4.3-.5.6-.4.3,0,.7,0,.7.4,0,.4-.4.5-.7.4Z"/>
      </g>
    </g>
  </g>
</svg>