<?xml version="1.0" encoding="UTF-8"?>
<svg xmlns="http://www.w3.org/2000/svg" version="1.1" viewBox="0 0 185 92">
  <defs>
    <style>
      .cls-1 {
        fill: #74b62b;
      }
    </style>
  </defs>
  <!-- Generator: Adobe Illustrator 28.6.0, SVG Export Plug-In . SVG Version: 1.2.0 Build 709)  -->
  <g>
    <g id="Capa_1">
      <g>
        <path class="cls-1" d="M119,44.6v3.9h5.4v3.5h-10.9v-10.9h23.3v-12.4h-31.1c-2.6,0-4.7,2.1-4.7,4.7v26.4c0,2.6,2.1,4.7,4.7,4.7h26.4c2.6,0,4.7-2.1,4.7-4.7v-15.2h-17.9Z"/>
        <path class="cls-1" d="M172.3,28.6h-26.4c-2.6,0-4.7,2.1-4.7,4.7v26.4c0,2.6,2.1,4.7,4.7,4.7h26.4c2.6,0,4.7-2.1,4.7-4.7v-26.4c0-2.6-2.1-4.7-4.7-4.7M164.6,51.9h-10.9v-10.9h10.9v10.9Z"/>
        <path class="cls-1" d="M75.8,28.6l-25.7,39.7h-4.5l5.8,8.9,19.1-8.9h-5.6l6.6-10.1h12.8v6.2h12.4V28.6h-20.9ZM75.5,51.9l8.8-13.5v13.5h-8.8Z"/>
        <polygon class="cls-1" points="21.8 64.4 32.6 47.8 32.6 64.4 47.5 64.4 73.3 24.7 77.3 24.7 71.5 15.8 52.4 24.7 58.3 24.7 45 45.2 45 28.6 30.2 28.6 19.4 45.2 19.4 28.6 7 28.6 7 64.4 21.8 64.4"/>
      </g>
    </g>
  </g>
</svg>